<svg id="Layer_1" data-name="Layer 1" xmlns="http://www.w3.org/2000/svg" viewBox="0 0 44.76 44.34">
  <title>ico-wwd-3</title>
  <path d="M324.82,391.3a4,4,0,0,1-2-1.45,4.32,4.32,0,0,1-.72-2.75c0-2.25,1.23-2.62,1.14-4.25a4.78,4.78,0,0,0-2.63-3.73,5.32,5.32,0,0,0-4.76.11,3.68,3.68,0,0,1-2.83.12c-1.5-.69-1.28-2.44-3-3.94a6.23,6.23,0,0,0-3.58-1.41c-3-.11-5,2.45-5.25,2.79a4,4,0,0,1-1.36,1.85,4.05,4.05,0,0,1-2,.79,9.93,9.93,0,0,0-2.45-.65,6.16,6.16,0,0,0-4.26.49,4.82,4.82,0,0,0-2,3.46,5.57,5.57,0,0,0,.67,3.5,3.78,3.78,0,0,1-.17,3.18c-.8,1.17-2.13.72-3.71,1.86a5.64,5.64,0,0,0-2.36,4.81,5.72,5.72,0,0,0,2.56,4.06c2.95,1.08,3.69,2.24,3.83,3.09.22,1.3-1,1.86-1.25,4,0,.44-.35,2.91,1.23,4.44a4.93,4.93,0,0,0,3.43,1.22c2.42,0,3.07-1.53,4.81-1.12a4.36,4.36,0,0,1,2.68,2.17,15.61,15.61,0,0,0,1.9,3,5.19,5.19,0,0,0,5,1.16,5.63,5.63,0,0,0,3.59-3.77,3.5,3.5,0,0,1,2-2.08,3.59,3.59,0,0,1,3.3.57,5.16,5.16,0,0,0,3.74.2A4.39,4.39,0,0,0,323,410.6a4.28,4.28,0,0,0-.23-3.42c-1-2.7-.7-4.13-.11-4.95.7-1,1.57-.73,3-1.89.51-.41,2.56-2.08,2.55-4.37A5.58,5.58,0,0,0,324.82,391.3Zm-18.63,12.8a8.38,8.38,0,1,1,8.38-8.38A8.38,8.38,0,0,1,306.19,404.1Z" transform="translate(-283.44 -374)"/>
</svg>
