<svg xmlns="http://www.w3.org/2000/svg" viewBox="0 0 19.96 16.52">
  <title>ico-socials-tw</title>
  <path d="M6.27,16.51c7.54,0,11.66-6.36,11.66-11.87a4.87,4.87,0,0,0,0-.54A8.26,8.26,0,0,0,20,1.94a8.05,8.05,0,0,1-2.36.66A4.15,4.15,0,0,0,19.4.29a7.86,7.86,0,0,1-2.6,1A4,4,0,0,0,11.09,1L11,1.12a4.25,4.25,0,0,0-1.18,4A11.52,11.52,0,0,1,1.39.75,4.23,4.23,0,0,0,2.65,6.32,4,4,0,0,1,.8,5.8v0A4.14,4.14,0,0,0,4.08,9.94,4,4,0,0,1,2.23,10a4.13,4.13,0,0,0,3.83,2.9A8.12,8.12,0,0,1,1,14.7a7.89,7.89,0,0,1-1-.06,11.43,11.43,0,0,0,6.27,1.87" transform="translate(0 0.01)"/>
</svg>
