<svg xmlns="http://www.w3.org/2000/svg" viewBox="0 0 19.88 20.39">
  <title>ico-socials-insta</title>
  <path d="M6.6,10.17a3.3,3.3,0,1,1,3.29,3.37A3.3,3.3,0,0,1,6.6,10.17h0m-1.78,0A5.08,5.08,0,1,0,9.89,5a5.08,5.08,0,0,0-5.07,5.2h0M14,4.77a1.19,1.19,0,1,0,1.18-1.22A1.2,1.2,0,0,0,14,4.77h0M5.9,18.4a5.26,5.26,0,0,1-1.84-.34,3.3,3.3,0,0,1-1.88-1.92c-.58-1.55-.39-8.87-.34-10.06A4.4,4.4,0,0,1,2.92,3c1-1,2.27-1.51,11-1.11a4.25,4.25,0,0,1,3,1.11c1,1,1.47,2.33,1.08,11.22a6.06,6.06,0,0,1-.34,1.88c-.9,2.35-3,2.68-11.71,2.26M5.82.11A5.91,5.91,0,0,0,1.66,1.75,6.21,6.21,0,0,0,.06,6c0,1-.31,8.77.46,10.8a5.1,5.1,0,0,0,2.9,3,7.31,7.31,0,0,0,2.4.47c8.8.4,12.07.18,13.45-3.43a7.38,7.38,0,0,0,.45-2.46c.41-9-.06-11-1.6-12.59C16.91.5,15.47-.34,5.82.11" transform="translate(0.02 0.01)"/>
</svg>
