<?xml version="1.0" standalone="no"?>
<!DOCTYPE svg PUBLIC "-//W3C//DTD SVG 1.1//EN" "http://www.w3.org/Graphics/SVG/1.1/DTD/svg11.dtd" >
<svg xmlns="http://www.w3.org/2000/svg" xmlns:xlink="http://www.w3.org/1999/xlink" version="1.1">
<metadata></metadata>
<defs>
<font id="roboto_slablight" horiz-adv-x="1470" >
<font-face units-per-em="2048" ascent="1638" descent="-410" />
<missing-glyph horiz-adv-x="489" />
<glyph unicode="&#xfb01;" horiz-adv-x="1184" d="M58 965v95h175v137q0 168 93.5 260t259.5 92q124 0 271 -57l-20 -100q-59 25 -115.5 38.5t-127.5 13.5q-121 0 -182 -63.5t-61 -183.5v-137h609v-962l160 -13v-85h-437v85l160 13v867h-492v-867l160 -13v-85h-437v85l159 13v867h-175z" />
<glyph unicode="&#xfb02;" horiz-adv-x="1298" d="M74 0v85l159 13v867h-155v95h155v108q0 182 107 281.5t296 99.5q168 0 352 -66h43v-1385l160 -13v-85h-437v85l159 13v1303q-62 21 -127 32t-143 11q-151 0 -221.5 -70t-70.5 -206v-108h274v-95h-274v-867l160 -13v-85h-437z" />
<glyph horiz-adv-x="0" />
<glyph horiz-adv-x="682" />
<glyph unicode="&#xd;" horiz-adv-x="489" />
<glyph unicode=" "  horiz-adv-x="489" />
<glyph unicode="&#x09;" horiz-adv-x="489" />
<glyph unicode="&#xa0;" horiz-adv-x="489" />
<glyph unicode="!" horiz-adv-x="448" d="M140 0v163h139v-163h-139zM151 468v959h118v-959h-118z" />
<glyph unicode="&#x22;" horiz-adv-x="666" d="M163 1069l8 278v182h100v-190l-38 -270h-70zM399 1069l8 278v182h100v-190l-38 -270h-70z" />
<glyph unicode="#" horiz-adv-x="1221" d="M62 402v91h267l81 433h-274v93h292l77 408h98l-78 -408h308l77 408h98l-77 -408h224v-93h-242l-81 -433h250v-91h-268l-75 -402h-98l75 402h-307l-76 -402h-97l75 402h-249zM427 493h307l81 433h-307z" />
<glyph unicode="$" horiz-adv-x="1075" d="M81 405l2 5h110q0 -117 45.5 -189t122.5 -105.5t170 -33.5q144 0 229 76.5t85 193.5q0 109 -70 177.5t-250 132.5q-205 64 -302.5 155t-97.5 256q0 160 98.5 259.5t266.5 112.5v198h101v-198q170 -17 265.5 -129.5t93.5 -305.5l-7 -2h-107q0 149 -79 243t-219 94 q-145 0 -220 -76t-75 -193q0 -75 28 -129.5t98 -97t196 -85.5q203 -68 300 -157.5t97 -252.5t-101 -261t-274 -112v-185h-100v185q-118 8 -211 55.5t-145.5 139t-49.5 229.5z" />
<glyph unicode="%" horiz-adv-x="1428" d="M75 1077v75q0 83 35.5 150t98 106t146.5 39q83 0 146 -39t98 -105.5t35 -150.5v-75q0 -82 -35 -149t-97.5 -105.5t-144.5 -38.5q-127 0 -204.5 85t-77.5 208zM171 1077q0 -86 48 -147.5t138 -61.5q87 0 134.5 61.5t47.5 147.5v75q0 87 -48 149t-136 62t-136 -62.5 t-48 -148.5v-75zM322 166l697 1115l74 -47l-697 -1115zM793 273v77q0 82 35 148.5t98 106t146 39.5t146.5 -39.5t98.5 -106t35 -148.5v-77q0 -124 -76.5 -209t-201.5 -85q-126 0 -203.5 85t-77.5 209zM888 273q0 -87 48 -148t138 -61q87 0 135 61t48 148v77q0 89 -48 149.5 t-137 60.5q-88 0 -136 -60.5t-48 -149.5v-77z" />
<glyph unicode="&#x26;" horiz-adv-x="1244" d="M73 363q0 114 66 206.5t191 187.5q8 5 16 11t16 13q-79 99 -116.5 179t-37.5 165q0 155 87 238.5t239 83.5q141 0 224 -78.5t83 -199.5q0 -89 -44 -152t-128 -126l-155 -122l403 -470q47 69 73.5 155.5t26.5 183.5h109q0 -125 -36 -229.5t-103 -190.5l181 -213l-2 -5 h-135l-121 139q-77 -68 -173.5 -114t-221.5 -46q-203 0 -322.5 105t-119.5 279zM190 363q0 -122 84 -204t241 -82q189 0 330 141l-419 485l-45 -35q-113 -93 -152 -167t-39 -138zM325 1127q0 -132 126 -284l172 131q58 43 82 91.5t24 103.5q0 78 -51.5 128.5t-143.5 50.5 q-100 0 -154.5 -63.5t-54.5 -157.5z" />
<glyph unicode="'" horiz-adv-x="430" d="M163 1069l8 278v182h100v-190l-38 -270h-70z" />
<glyph unicode="(" horiz-adv-x="624" d="M112 562v14q0 179 36.5 341.5t99 297t141 232t163.5 145.5h6l25 -71q-96 -68 -176.5 -208t-129 -328.5t-48.5 -405.5v-19q0 -216 48.5 -405t129 -330t176.5 -211l-25 -68h-6q-86 49 -164.5 144.5t-141 229.5t-98.5 296.5t-36 345.5z" />
<glyph unicode=")" horiz-adv-x="616" d="M11 -386q94 68 174.5 208.5t130 330.5t49.5 407v19q0 215 -50 405t-131 331t-173 210l25 67h6q83 -48 162 -145.5t142 -232t99.5 -297t36.5 -341.5v-14q0 -183 -36.5 -345.5t-99 -296.5t-141.5 -229.5t-163 -144.5h-6z" />
<glyph unicode="*" horiz-adv-x="933" d="M65 1087l31 98l325 -121l-4 363h102l-7 -366l318 125l32 -98l-327 -113l219 -289l-84 -61l-209 300l-200 -298l-84 59l213 295z" />
<glyph unicode="+" horiz-adv-x="1122" d="M72 616v108h425v458h117v-458h436v-108h-436v-473h-117v473h-425z" />
<glyph unicode="," horiz-adv-x="385" d="M59 -224q46 64 68 128t22 140v140h118v-137q0 -91 -37 -176.5t-102 -145.5z" />
<glyph unicode="-" horiz-adv-x="777" d="M151 560v98h469v-98h-469z" />
<glyph unicode="." horiz-adv-x="457" d="M142 0v160h134v-160h-134z" />
<glyph unicode="/" horiz-adv-x="782" d="M0 -122l596 1549h106l-595 -1549h-107z" />
<glyph unicode="0" horiz-adv-x="1134" d="M119 554v318q0 277 117 426t326 149q208 0 325.5 -149t117.5 -426v-318q0 -277 -116.5 -426t-324.5 -149q-209 0 -327 149.5t-118 425.5zM236 537q0 -219 84.5 -339.5t243.5 -120.5q158 0 241 120.5t83 339.5v355q0 219 -83.5 337.5t-242.5 118.5t-242.5 -118.5 t-83.5 -337.5v-355z" />
<glyph unicode="1" horiz-adv-x="815" d="M86 1263v83l400 85v-1333l256 -13v-85h-630v85l256 13v1207z" />
<glyph unicode="2" horiz-adv-x="1093" d="M74 1022q-2 120 50 216t151 152.5t235 56.5q189 0 300.5 -105.5t111.5 -283.5q0 -118 -73.5 -238.5t-206.5 -270.5l-393 -446l2 -5h624l7 202h104v-300h-886v89l467 530q130 148 183.5 246t53.5 189q0 134 -76 214t-221 80q-153 0 -237 -90t-84 -242h-110z" />
<glyph unicode="3" horiz-adv-x="1079" d="M74 381l1 6h110q0 -137 94.5 -223.5t244.5 -86.5q151 0 236.5 80t85.5 226q0 151 -89.5 223t-253.5 72h-136v99h136q156 0 235.5 78t79.5 200q0 135 -75.5 214t-223.5 79q-137 0 -225 -80t-88 -214h-110l-2 5q-3 112 51.5 200t152 138t221.5 50q191 0 304 -104.5 t113 -290.5q0 -101 -63 -190t-177 -131q134 -38 200.5 -128t66.5 -216t-56 -218t-155 -141t-228 -49q-125 0 -228.5 48t-164 138.5t-57.5 215.5z" />
<glyph unicode="4" horiz-adv-x="1154" d="M62 362v65l657 1000h129v-967h223v-98h-223v-264l159 -13v-85h-437v85l160 13v264h-668zM201 460h529v799l-6 2l-50 -92z" />
<glyph unicode="5" horiz-adv-x="1048" d="M95 369l2 6h105q0 -144 82 -221t218 -77q159 0 237.5 96.5t78.5 279.5q0 160 -79 257t-221 97q-137 0 -209 -44.5t-103 -132.5l-96 17l79 780h717v-231h-96l-8 124h-512l-53 -512q53 50 118 76.5t175 29.5q122 2 213.5 -53.5t142.5 -160t51 -245.5q0 -217 -109 -346.5 t-326 -129.5q-119 0 -212 44.5t-145.5 131t-49.5 214.5z" />
<glyph unicode="6" horiz-adv-x="1101" d="M119 551v261q0 207 62 348.5t171.5 214t251.5 72.5q73 0 144.5 -16t126.5 -47l-28 -94q-56 30 -111 44t-132 14q-162 0 -262 -123t-103 -372l2 -94q50 81 141 132.5t206 51.5q127 0 220.5 -61t144 -168.5t50.5 -248.5q0 -142 -54.5 -251t-152 -172t-226.5 -63 q-132 0 -234 67.5t-159.5 194.5t-57.5 310zM236 541q0 -223 93 -343.5t241 -120.5q95 0 166.5 52t110 140t38.5 196q0 171 -83.5 277t-237.5 106q-84 0 -154.5 -34t-116.5 -91t-57 -127v-55z" />
<glyph unicode="7" horiz-adv-x="1092" d="M74 1127v300h936v-99q-155 -182 -259.5 -364.5t-167 -388t-90.5 -456.5l-11 -119h-117l10 119q41 363 170 657.5t344 551.5h-703l-7 -201h-105z" />
<glyph unicode="8" horiz-adv-x="1104" d="M90 378q0 126 78 220.5t209 133.5q-113 38 -180 125t-67 202q0 185 116.5 286.5t301.5 101.5q122 0 216.5 -46t149 -132.5t54.5 -209.5q0 -115 -68.5 -202t-181.5 -125q131 -40 210.5 -134t79.5 -220q0 -128 -58.5 -217t-162 -135.5t-237.5 -46.5q-206 0 -333 103 t-127 296zM208 377q0 -141 95 -220.5t247 -79.5q149 0 245 80t96 220q0 90 -45 159.5t-122.5 108t-175.5 38.5q-99 0 -176 -38.5t-120.5 -107.5t-43.5 -160zM248 1060q0 -127 84 -203t218 -76q130 0 215.5 76.5t85.5 202.5q0 84 -40.5 149t-109 102t-153.5 37 q-132 0 -216 -78t-84 -210z" />
<glyph unicode="9" horiz-adv-x="1115" d="M82 939q0 144 57 259t155.5 182t221.5 67q209 0 332.5 -136t123.5 -411v-300q0 -312 -129.5 -466.5t-346.5 -154.5q-76 0 -153 15.5t-147 44.5l22 98q67 -31 131.5 -45.5t146.5 -14.5q163 0 256 122t95 373l-2 68q-48 -88 -135 -137t-195 -49q-130 0 -227.5 61.5 t-151.5 171t-54 252.5zM204 939q0 -110 38 -197.5t108 -138.5t165 -51q128 0 213.5 66t121.5 162v128q0 223 -87.5 331.5t-241.5 108.5q-92 0 -163.5 -54.5t-112.5 -147.5t-41 -207z" />
<glyph unicode=":" horiz-adv-x="381" d="M127 0v160h134v-160h-134zM127 899v160h134v-160h-134z" />
<glyph unicode=";" horiz-adv-x="384" d="M64 -224q46 64 68 128t22 140v140h118v-137q0 -91 -37 -176.5t-102 -145.5zM132 901v160h134v-160h-134z" />
<glyph unicode="&#x3c;" horiz-adv-x="1001" d="M74 492v93l811 371v-122l-602 -268l-101 -27v-6l101 -27l602 -264v-121z" />
<glyph unicode="=" horiz-adv-x="1104" d="M144 415v101h817v-101h-817zM144 817v103h817v-103h-817z" />
<glyph unicode="&#x3e;" horiz-adv-x="1034" d="M122 112v119l619 270l101 27v6l-101 29l-619 265v120l829 -371v-94z" />
<glyph unicode="?" horiz-adv-x="906" d="M64 1100q-2 162 102 254.5t268 92.5q176 0 275 -98.5t99 -266.5q0 -89 -27.5 -160.5t-83 -140.5t-139.5 -148q-39 -36 -57.5 -66.5t-24 -68.5t-5.5 -101h-117q1 85 8.5 132.5t36 85.5t89.5 94q75 69 119 125.5t63.5 114t19.5 131.5q0 125 -66.5 195t-189.5 70 q-116 0 -186 -67.5t-72 -183.5h-109zM351 0v150h136v-150h-136z" />
<glyph unicode="@" horiz-adv-x="1772" d="M84 468q12 277 120.5 484.5t294 323.5t430.5 116q253 0 424.5 -107t254.5 -306t73 -476q-7 -141 -55.5 -260.5t-140 -191.5t-226.5 -72q-76 0 -127.5 51t-67.5 142q-103 -193 -305 -193q-129 0 -195.5 118t-48.5 311q15 165 73 289t147 192t199 68q91 0 147.5 -26 t123.5 -79v-16l-48 -549q-9 -130 30 -177t93 -47q139 0 220 122.5t91 317.5q18 382 -148.5 594t-517.5 212q-215 0 -378.5 -105t-259 -294.5t-107.5 -441.5q-12 -248 62.5 -435t228 -291t377.5 -104q92 0 178 21.5t147 55.5l30 -72q-63 -40 -164 -63.5t-196 -23.5 q-246 0 -420 111t-262 315t-77 486zM623 408q-14 -152 27 -243t135 -91q85 0 154.5 46.5t119.5 169.5q0 21 2 38l43 486q-62 55 -154 55q-132 0 -217.5 -116t-109.5 -345z" />
<glyph unicode="A" d="M61 0v85l105 7l506 1335h112l503 -1335l105 -7v-85h-352v85l125 9l-118 322h-640l-120 -322l126 -9v-85h-352zM445 519h563l-257 701l-20 58h-6l-20 -58z" />
<glyph unicode="B" horiz-adv-x="1256" d="M74 0v85l160 13v1230l-160 13v86h572q222 0 346.5 -93.5t124.5 -281.5q0 -112 -63 -194t-174 -110q88 -15 155 -65t105 -124.5t38 -160.5q0 -192 -124 -295t-331 -103h-649zM352 98h371q158 0 247.5 78t89.5 220q0 128 -81.5 210t-236.5 82h-390v-590zM352 787h328 q153 0 236 68.5t83 199.5q0 273 -353 273h-294v-541z" />
<glyph unicode="C" horiz-adv-x="1294" d="M105 704v18q0 213 77 376.5t217.5 256t331.5 92.5q148 0 254 -41t188 -112v-278h-100l-10 228q-64 48 -140.5 75t-191.5 27q-156 0 -270 -79t-176.5 -219t-62.5 -324v-20q0 -191 63 -331t182 -216.5t288 -76.5q89 0 173 22.5t142 60.5l10 215h99v-284q-87 -57 -196.5 -86 t-228.5 -29q-212 0 -356.5 93.5t-218.5 256.5t-74 375z" />
<glyph unicode="D" horiz-adv-x="1344" d="M74 0v85l160 13v1230l-160 13v86h552q182 0 321 -90t217.5 -249t78.5 -363v-23q0 -203 -77.5 -361.5t-215.5 -249.5t-319 -91h-557zM352 98h274q148 0 260.5 80t175.5 216.5t63 307.5v25q0 173 -63 308.5t-175.5 214t-260.5 78.5h-274v-1230z" />
<glyph unicode="E" horiz-adv-x="1261" d="M74 0v85l160 13v1230l-160 13v86h1026v-313h-100l-10 216h-638v-540h575v-98h-575v-597h668l10 218h99v-313h-1055z" />
<glyph unicode="F" horiz-adv-x="1225" d="M74 0v85l160 13v1230l-160 13v86h1057v-313h-100l-10 215h-669v-561h581v-99h-581v-571l160 -13v-85h-438z" />
<glyph unicode="G" horiz-adv-x="1356" d="M105 704v31q0 211 79 371.5t216.5 250.5t313.5 90q158 0 268.5 -39.5t195.5 -106.5v-265h-101l-10 214q-62 45 -142.5 70.5t-201.5 25.5q-142 0 -255 -77t-179.5 -214.5t-66.5 -317.5v-33q0 -187 61 -327t176.5 -218.5t279.5 -78.5q116 0 204 25.5t153 61.5v378l-293 4 v95h410v-523q-76 -57 -191 -99.5t-282 -42.5q-196 0 -338.5 92t-219.5 255t-77 378z" />
<glyph unicode="H" horiz-adv-x="1508" d="M74 0v85l160 13v1230l-160 13v86h438v-86l-160 -13v-571h805v571l-159 13v86h437v-86l-160 -13v-1230l160 -13v-85h-437v85l159 13v560h-805v-560l160 -13v-85h-438z" />
<glyph unicode="I" horiz-adv-x="585" d="M74 0v85l160 13v1230l-160 13v86h438v-86l-160 -13v-1230l160 -13v-85h-438z" />
<glyph unicode="J" horiz-adv-x="1128" d="M51 396l2 6h110q2 -160 82 -241.5t229 -81.5q138 0 217 90.5t79 240.5v918l-185 12v87h463v-86l-160 -13v-918q0 -196 -110.5 -313.5t-301.5 -117.5q-188 0 -305.5 105t-119.5 312z" />
<glyph unicode="K" horiz-adv-x="1411" d="M74 0v85l160 13v1230l-160 13v86h438v-86l-160 -13v-761l682 763l1 5l-138 6v86h401v-86l-122 -11l-474 -526l521 -707l124 -12v-85h-411v85l140 7l1 3l-452 623l-273 -303v-317l160 -13v-85h-438z" />
<glyph unicode="L" horiz-adv-x="1160" d="M74 0v85l160 13v1230l-160 13v86h438v-86l-160 -13v-1231h599l10 230h96v-327h-983z" />
<glyph unicode="M" horiz-adv-x="1859" d="M80 0v85l160 13v1230l-160 13v86h319l527 -1223h6l520 1223h327v-86l-160 -13v-1230l160 -13v-85h-437v85l163 13v1157l-5 1l-529 -1232h-82l-535 1228l-6 -2l4 -530v-622l165 -13v-85h-437z" />
<glyph unicode="N" horiz-adv-x="1520" d="M75 0v85l160 13v1230l-160 13v86h279l815 -1227l6 2v1126l-167 13v86h438v-86l-160 -13v-1328h-110l-824 1232l-6 -2v-1132l167 -13v-85h-438z" />
<glyph unicode="O" horiz-adv-x="1396" d="M100 704v18q0 217 73.5 380t207 254t314.5 91q185 0 318.5 -91t205.5 -254t72 -380v-18q0 -217 -71.5 -379.5t-205 -254t-318.5 -91.5q-181 0 -315 91.5t-207.5 254.5t-73.5 379zM219 704q0 -187 57 -327t164 -217.5t256 -77.5q155 0 261 77.5t161 217t55 327.5v20 q0 186 -56 325.5t-162 217.5t-260 78q-148 0 -255 -78t-164 -218t-57 -325v-20z" />
<glyph unicode="P" horiz-adv-x="1248" d="M74 0v85l160 13v1230l-160 13v86h602q226 0 348.5 -114t122.5 -303t-122.5 -302.5t-348.5 -113.5h-324v-496l160 -13v-85h-438zM352 692h324q177 0 265 90.5t88 225.5q0 139 -88 229.5t-265 90.5h-324v-636z" />
<glyph unicode="Q" horiz-adv-x="1402" d="M100 704v18q0 216 73.5 379.5t207 254.5t313.5 91q185 0 318.5 -91t205.5 -254.5t72 -379.5v-18q0 -212 -65.5 -374.5t-201.5 -252.5l295 -208l-68 -89l-333 241q-106 -42 -221 -42q-181 0 -314.5 91.5t-207.5 254.5t-74 379zM219 704q0 -187 57 -327t164 -217.5 t256 -77.5q152 0 258.5 77.5t162 217t55.5 327.5v20q0 186 -55.5 325.5t-162 217.5t-260.5 78q-147 0 -254 -78t-164 -218t-57 -325v-20z" />
<glyph unicode="R" horiz-adv-x="1346" d="M74 -1v86l160 13v1230l-160 13v85h602q230 0 353 -100t123 -289q0 -144 -78.5 -235t-215.5 -125l259 -583l117 -8v-87h-200l-286 661q-28 -2 -57 -2l-339 -3v-557l160 -13v-86h-438zM352 753h312q192 0 281 78t89 207q0 138 -89 214t-269 76h-324v-575z" />
<glyph unicode="S" horiz-adv-x="1170" d="M105 132v277h98l15 -223q86 -54 179 -80.5t188 -26.5q169 0 271 76.5t102 199.5q0 117 -86.5 192.5t-303.5 131.5q-233 61 -339.5 154.5t-106.5 250.5q0 106 57 188t159.5 128.5t238.5 46.5q144 0 257 -43t192 -110v-255h-97l-15 202q-61 50 -145.5 78.5t-191.5 28.5 q-158 0 -247.5 -76t-89.5 -186q0 -72 32 -126t112 -96.5t223 -79.5q232 -60 350.5 -161.5t118.5 -265.5q0 -114 -62.5 -199t-173.5 -132t-255 -47q-121 0 -243.5 37.5t-236.5 115.5z" />
<glyph unicode="T" horiz-adv-x="1310" d="M85 1113v314h1136v-314h-95l-14 218h-400v-1233l160 -13v-85h-437v85l160 13v1233h-401l-13 -218h-96z" />
<glyph unicode="U" horiz-adv-x="1448" d="M64 1341v86h437v-86l-160 -13v-868q0 -183 106.5 -282t275.5 -99q170 0 277.5 98.5t107.5 282.5v868l-159 13v86h437v-86l-160 -13v-868q0 -155 -63 -262.5t-177 -163t-264 -55.5q-147 0 -259 56.5t-176 164t-64 260.5v868z" />
<glyph unicode="V" horiz-adv-x="1438" d="M59 1341v86h376v-86l-141 -9l395 -1084l29 -94h6l30 94l400 1084l-148 9v86h377v-86l-110 -7l-497 -1334h-112l-496 1334z" />
<glyph unicode="W" horiz-adv-x="2018" d="M63 1341v86h382v-86l-153 -10l228 -928l53 -206h6l60 205l324 1025h110l325 -1025l58 -210h6l58 210l225 929l-157 10v86h378v-86l-105 -7l-336 -1334h-117l-344 1097l-44 143h-6l-42 -143l-346 -1097h-112l-342 1334z" />
<glyph unicode="X" horiz-adv-x="1421" d="M67 0v85l117 10l461 631l-435 605l-119 10v86h397v-86l-149 -6l373 -528l367 528l-150 6v86h398v-86l-121 -10l-424 -605l455 -631l118 -10v-85h-399v85l151 6l-396 556l-394 -556l148 -6v-85h-398z" />
<glyph unicode="Y" horiz-adv-x="1415" d="M59 1341v86h399v-86l-150 -8l377 -658l23 -44l1 2l23 42l384 658l-152 8v86h394v-86l-120 -8l-471 -795v-440l160 -13v-85h-437v85l160 13v433l-475 802z" />
<glyph unicode="Z" horiz-adv-x="1184" d="M89 0v90l833 1239h-697l-7 -212h-100v310h946v-85l-835 -1244h759l9 220h99v-318h-1007z" />
<glyph unicode="[" horiz-adv-x="537" d="M154 -306v1937h323v-99h-206v-1739h206v-99h-323z" />
<glyph unicode="\" horiz-adv-x="793" d="M35 1427h115l596 -1549h-115z" />
<glyph unicode="]" horiz-adv-x="516" d="M23 -207h205v1739h-205v99h323v-1937h-323v99z" />
<glyph unicode="^" horiz-adv-x="828" d="M70 714l293 713h88l292 -713h-114l-193 477l-28 91h-6l-30 -91l-189 -477h-113z" />
<glyph unicode="_" horiz-adv-x="1127" d="M117 0h863v-98h-863v98z" />
<glyph unicode="`" horiz-adv-x="395" d="M39 1524l2 5h138l178 -245l-5 -3h-86z" />
<glyph unicode="a" horiz-adv-x="1100" d="M90 277q0 147 125 238t341 91h219v121q0 116 -68.5 185.5t-204.5 69.5q-78 0 -139 -25t-106 -63l-10 -162h-97v222q69 59 156 92.5t198 33.5q187 0 288 -94t101 -261v-511q0 -32 2 -62.5t7 -61.5l126 -5v-85h-231q-11 58 -16 93t-6 79q-58 -85 -153 -139t-210 -54 q-151 0 -236.5 80.5t-85.5 217.5zM208 273q0 -85 58 -138t159 -53q109 0 206.5 57.5t143.5 152.5v223h-220q-163 0 -255 -70t-92 -172z" />
<glyph unicode="b" horiz-adv-x="1091" d="M-12 1443v86h278v-630q52 85 134.5 133t196.5 48q127 0 218 -69t140 -194.5t49 -295.5v-20q0 -237 -108 -379.5t-297 -142.5q-116 0 -201 46.5t-137 128.5l-12 -154h-101v1430zM266 281q37 -92 115.5 -146.5t194.5 -54.5q153 0 231 115t78 306v20q0 204 -78.5 331 t-232.5 127q-124 0 -198 -62t-110 -157v-479z" />
<glyph unicode="c" horiz-adv-x="1053" d="M90 510v41q0 155 56 274.5t156.5 187t236.5 67.5q123 0 219.5 -46.5t160.5 -120.5l2 -240h-98l-15 198q-49 52 -115 81t-151 29q-100 0 -175.5 -56t-117 -153.5t-41.5 -220.5v-41q0 -194 90 -313.5t243 -119.5q119 0 198 62.5t96 183.5h105l2 -5q-14 -151 -119 -245 t-283 -94q-132 0 -233.5 67t-159 186.5t-57.5 277.5z" />
<glyph unicode="d" horiz-adv-x="1186" d="M90 501v20q0 170 48.5 295.5t139 194.5t219.5 69q111 0 192.5 -47t134.5 -131v528l-160 13v86h278v-1431l160 -13v-85h-265l-9 150q-52 -81 -135.5 -126t-197.5 -45q-190 0 -297.5 142.5t-107.5 379.5zM209 501q0 -191 77 -306t230 -115q115 0 191.5 52t116.5 141v495 q-38 92 -111.5 151.5t-194.5 59.5q-153 0 -231 -127t-78 -331v-20z" />
<glyph unicode="e" horiz-adv-x="1050" d="M92 499v54q0 152 59 271t159.5 187.5t223.5 68.5q195 0 305 -123t110 -329v-100h-735l-2 -43q1 -117 43.5 -209.5t119.5 -145.5t179 -53q100 0 176 31.5t133 87.5l50 -80q-60 -60 -148.5 -98.5t-210.5 -38.5q-137 0 -240.5 66.5t-162.5 183.5t-59 270zM220 632l1 -6h610 v30q0 140 -79 232.5t-218 92.5q-84 0 -151.5 -45.5t-110.5 -124.5t-52 -179z" />
<glyph unicode="f" horiz-adv-x="708" d="M75 965v95h177v156q0 159 80 246t224 87q67 0 138 -18l-16 -95q-24 6 -51 9t-60 3q-96 0 -147 -60.5t-51 -171.5v-156h258v-95h-258v-867l170 -13v-85h-447v85l160 13v867h-177z" />
<glyph unicode="g" horiz-adv-x="1132" d="M90 501v20q0 170 49 295.5t140.5 194.5t220.5 69q113 0 197 -49.5t135 -136.5l13 166h235v-85l-136 -14v-947q0 -205 -111 -323.5t-308 -118.5q-77 0 -163.5 18.5t-150.5 49.5l31 98q63 -30 133 -46.5t148 -16.5q151 0 227 89.5t76 249.5v129q-53 -77 -135.5 -120.5 t-192.5 -43.5q-191 0 -299.5 142.5t-108.5 379.5zM209 501q0 -192 78 -306.5t232 -114.5q117 0 193 53t114 145v485q-37 95 -109.5 155.5t-195.5 60.5q-154 0 -233 -127.5t-79 -330.5v-20z" />
<glyph unicode="h" horiz-adv-x="1269" d="M55 0v85l160 13v1332l-160 13v86h277v-654q52 97 140 151t206 54q168 0 257.5 -103.5t89.5 -322.5v-556l160 -13v-85h-437v85l159 13v558q0 173 -67.5 248t-187.5 75q-130 0 -208.5 -72.5t-111.5 -188.5v-620l160 -13v-85h-437z" />
<glyph unicode="i" horiz-adv-x="616" d="M77 0v85l160 13v863l-160 13v86h278v-962l159 -13v-85h-437zM223 1359v170h132v-170h-132z" />
<glyph unicode="j" horiz-adv-x="534" d="M-27 -410l12 95q16 -4 46 -9t51 -5q86 0 133 63.5t47 178.5v1048l-160 13v86h277v-1147q0 -164 -78.5 -252.5t-218.5 -88.5q-30 0 -55.5 5t-53.5 13zM245 1359v170h132v-170h-132z" />
<glyph unicode="k" horiz-adv-x="1190" d="M62 0v85l159 13v1332l-159 13v86h277v-1051l469 484v6l-115 6v86h380v-86l-127 -12l-336 -347l393 -519l132 -11v-85h-390v85l116 6l-1 5l-326 441l-195 -201v-238l160 -13v-85h-437z" />
<glyph unicode="l" horiz-adv-x="601" d="M73 0v85l159 13v1332l-159 13v86h277v-1431l160 -13v-85h-437z" />
<glyph unicode="m" horiz-adv-x="1939" d="M80 0v85l160 13v863l-160 13v86h265l10 -181q49 95 134.5 148t204.5 53q251 0 320 -245q45 115 135 180.5t217 65.5q170 0 262.5 -113t92.5 -350v-519l160 -13v-85h-438v85l159 13v521q0 197 -69 278.5t-191 81.5q-138 0 -213 -87.5t-89 -222.5v-572l160 -13v-85h-439v85 l160 13v522q0 193 -70 276t-192 83q-130 0 -202 -68.5t-98 -182.5v-630l159 -13v-85h-438z" />
<glyph unicode="n" horiz-adv-x="1304" d="M80 0v85l160 13v863l-160 13v86h264l10 -190q51 100 137 155t206 55q172 0 262.5 -105.5t90.5 -329.5v-547l159 -13v-85h-437v85l160 13v546q0 184 -67.5 259.5t-193.5 75.5q-131 0 -207.5 -73.5t-105.5 -192.5v-615l159 -13v-85h-437z" />
<glyph unicode="o" horiz-adv-x="1118" d="M90 514v32q0 156 58.5 276.5t163.5 189t247 68.5q141 0 246.5 -68.5t164 -189t58.5 -276.5v-32q0 -157 -58.5 -277.5t-163.5 -189t-245 -68.5q-143 0 -248.5 68.5t-164 189t-58.5 277.5zM208 514q0 -124 41.5 -222.5t120.5 -156.5t191 -58q108 0 186.5 58t120.5 156.5 t42 222.5v32q0 121 -42.5 219.5t-121.5 157t-187 58.5q-111 0 -189.5 -58.5t-120 -157t-41.5 -219.5v-32z" />
<glyph unicode="p" horiz-adv-x="1154" d="M50 974v86h258l14 -161q53 86 137 133.5t198 47.5q128 0 219 -69t139.5 -194.5t48.5 -295.5v-20q0 -237 -107.5 -379.5t-296.5 -142.5q-113 0 -197 42.5t-136 117.5v-448l164 -12v-87h-437v87l156 12v1270zM327 266q38 -88 114 -138.5t191 -50.5q154 0 234 116.5 t80 307.5v20q0 203 -80.5 330.5t-235.5 127.5q-120 0 -193 -59t-110 -149v-505z" />
<glyph unicode="q" horiz-adv-x="1114" d="M90 501v20q0 170 48.5 295.5t139 194.5t219.5 69q110 0 192 -46.5t135 -129.5l10 156h103v-1369l155 -12v-87h-432v87l159 12v445q-52 -74 -134 -115.5t-190 -41.5q-190 0 -297.5 142.5t-107.5 379.5zM209 501q0 -192 77 -308t230 -116q113 0 188.5 51t114.5 140v505 q-38 88 -110.5 148t-190.5 60q-153 0 -231 -128t-78 -332v-20z" />
<glyph unicode="r" horiz-adv-x="820" d="M79 0v85l160 13v863l-160 13v86h263l13 -161l1 -29q45 99 122.5 154.5t184.5 55.5q27 0 57 -4.5t43 -9.5l-14 -108l-109 7h-6q-108 1 -178 -65q-72 -68 -99 -179v-623l159 -13v-85h-437z" />
<glyph unicode="s" horiz-adv-x="994" d="M101 314h96l17 -156q56 -44 126 -64t149 -20q133 0 202.5 58t69.5 138q0 74 -62 131.5t-221 92.5q-190 41 -274.5 109.5t-84.5 191.5q0 120 99.5 202.5t267.5 82.5q117 0 203 -34t148 -90l5 -218h-96l-14 157q-44 42 -103.5 65t-142.5 23q-119 0 -184 -55.5t-65 -128.5 q0 -48 20 -84.5t77.5 -65t167.5 -52.5q198 -45 287.5 -122t89.5 -200q0 -129 -100.5 -212.5t-289.5 -83.5q-112 0 -207.5 30t-179.5 87z" />
<glyph unicode="t" horiz-adv-x="709" d="M45 965v95h183v273h118v-273h247v-95h-247v-692q0 -105 37.5 -152t100.5 -47q32 0 65 4t67 10l18 -84q-76 -23 -170 -23q-112 0 -174 69.5t-62 222.5v692h-183z" />
<glyph unicode="u" horiz-adv-x="1197" d="M47 974v86h249v-616q0 -194 63.5 -279t184.5 -85q136 0 212.5 63t104.5 171v647l-151 13v86h270v-962l142 -13v-85h-246l-10 174q-50 -93 -133.5 -144t-202.5 -51q-166 0 -259 114t-93 353v515z" />
<glyph unicode="v" horiz-adv-x="1160" d="M39 974v86h374v-86l-140 -9l275 -699l39 -117h6l42 117l266 699l-141 9v86h373v-86l-115 -7l-375 -967h-106l-385 967z" />
<glyph unicode="w" horiz-adv-x="1767" d="M51 974v86h377v-86l-138 -10l182 -621l49 -174h6l57 174l242 717h104l241 -716l61 -186l6 1l57 185l182 621l-139 9v86h373v-86l-119 -8l-295 -966h-114l-248 723l-54 175l-6 -1l-53 -174l-250 -723h-106l-295 968z" />
<glyph unicode="x" horiz-adv-x="1173" d="M63 0v85l120 11l336 444l-322 424l-115 10v86h359v-86l-114 -5l263 -350l259 350l-118 5v86h356v-86l-116 -10l-312 -422l343 -446l116 -11v-85h-374v85l124 5l-280 371l-277 -371l118 -5v-85h-366z" />
<glyph unicode="y" horiz-adv-x="1164" d="M40 974v86h374v-86l-135 -9l273 -684l44 -120h6l303 804l-139 9v86h371v-86l-113 -7l-435 -1138q-44 -112 -108.5 -184.5t-191.5 -72.5q-20 0 -49 4.5t-44 7.5l14 98q13 -2 38 -4.5t37 -2.5q77 0 122 50.5t82 143.5l55 144l-389 954z" />
<glyph unicode="z" horiz-adv-x="1034" d="M103 0v85l642 877h-528l-12 -207h-95v305h784v-86l-645 -878h587l12 209h95v-305h-840z" />
<glyph unicode="{" horiz-adv-x="683" d="M62 532v101q115 0 170.5 66t55.5 187v223q0 168 75.5 285t255.5 171l26 -76q-126 -41 -182.5 -140t-56.5 -240v-223q0 -111 -46.5 -190.5t-141.5 -113.5q95 -34 141.5 -114t46.5 -190v-222q0 -140 57.5 -236.5t184.5 -138.5l-29 -78q-180 54 -255.5 170t-75.5 283v222 q0 121 -55.5 187.5t-170.5 66.5z" />
<glyph unicode="|" horiz-adv-x="417" d="M147 -265v1692h100v-1692h-100z" />
<glyph unicode="}" horiz-adv-x="682" d="M26 -319q125 42 183.5 138.5t58.5 236.5v222q0 111 47.5 191.5t147.5 112.5q-100 32 -147.5 111.5t-47.5 192.5v223q0 141 -57.5 240t-181.5 140l26 76q178 -54 254 -171t76 -285v-223q0 -121 55.5 -187t171.5 -66v-101q-116 0 -171.5 -67t-55.5 -187v-222 q0 -167 -76 -283t-254 -170z" />
<glyph unicode="~" horiz-adv-x="1348" d="M119 465q0 86 35 155.5t97.5 110t142.5 40.5q85 0 157 -36t159 -111q118 -106 223 -106q75 0 128 63t53 159l96 -15q0 -84 -36 -154.5t-99 -112.5t-142 -42q-86 0 -157 34.5t-158 112.5q-62 52 -116 78.5t-108 26.5q-77 0 -128.5 -59.5t-51.5 -158.5z" />
<glyph unicode="&#xa1;" horiz-adv-x="448" d="M169 897h139v163h-139v-163zM180 -367h118v959h-118v-959z" />
<glyph unicode="&#xa2;" horiz-adv-x="1066" d="M122 510v41q0 144 46 257t134 183t213 83v218h118v-215q103 -11 188.5 -55.5t141.5 -113.5l4 -231h-99l-19 189q-46 52 -116.5 83.5t-159.5 31.5q-113 0 -187 -56t-110.5 -153t-36.5 -221v-41q0 -127 36 -224.5t110.5 -153t188.5 -55.5q78 0 145 30.5t108.5 87 t41.5 135.5h105l2 -6q2 -88 -43.5 -160.5t-124.5 -120t-175 -60.5v-223h-118v225q-189 19 -291 163t-102 362z" />
<glyph unicode="&#xa3;" horiz-adv-x="1140" d="M67 630v99h198l-10 290q0 200 104 314t278 114q182 0 274.5 -100.5t89.5 -273.5l-2 -5h-110q0 146 -67.5 213t-184.5 67q-123 0 -194 -86t-71 -243l10 -290h442v-99h-438l7 -173q0 -107 -26 -202t-74 -157h648l7 202h104v-300h-923v98h10q45 10 75.5 66t45.5 134.5 t15 158.5l-6 173h-202z" />
<glyph unicode="&#xa4;" horiz-adv-x="1431" d="M92 58l157 159q-59 79 -91 175.5t-32 203.5q0 224 132 390l-166 169l83 84l164 -168q77 66 172 102t199 36t199 -36.5t172 -103.5l167 171l85 -85l-170 -172q62 -80 96 -179t34 -208q0 -106 -31.5 -201.5t-89.5 -174.5l161 -162l-85 -84l-155 157q-79 -72 -177 -111.5 t-206 -39.5q-109 0 -206.5 39t-176.5 110l-152 -154zM238 596q0 -140 64 -256t171 -184.5t237 -68.5q129 0 236 68.5t171 184.5t64 256q0 139 -64 254t-171 183.5t-236 68.5q-130 0 -237 -68.5t-171 -183.5t-64 -254z" />
<glyph unicode="&#xa5;" horiz-adv-x="1355" d="M58 1341v86h366v-86l-107 -7l339 -568l22 -45l4 3l21 42l338 568l-107 7v86h366v-86l-126 -9l-391 -641h365v-85h-412v-202h412v-85h-412v-221l160 -13v-85h-437v85l159 13v221h-406v85h406v202h-406v85h362l-390 641z" />
<glyph unicode="&#xa6;" horiz-adv-x="452" d="M147 -265v755h118v-755h-118zM147 684v743h118v-743h-118z" />
<glyph unicode="&#xa7;" horiz-adv-x="1189" d="M88 -68l2 5l110 2q0 -112 51 -184.5t136 -106.5t188 -34q160 0 251 69t91 179q0 69 -31.5 117t-110 86.5t-220.5 78.5q-237 59 -352 145.5t-115 250.5q0 98 61.5 167.5t171.5 99.5q-95 48 -142 117.5t-47 174.5q0 157 125.5 252.5t335.5 95.5q218 0 339.5 -109 t118.5 -307l-2 -6h-110q0 139 -92 231t-254 92q-170 0 -256.5 -69.5t-86.5 -177.5q0 -74 30 -123.5t108.5 -87t225.5 -79.5q163 -43 265.5 -92t150.5 -119t48 -178q0 -98 -64.5 -167t-178.5 -97q101 -50 150.5 -118.5t49.5 -175.5q0 -163 -124.5 -256t-335.5 -93 q-138 0 -249.5 44t-176 136.5t-61.5 236.5zM206 542q0 -76 32 -125t117 -88t244 -84q33 -10 59 -17.5t51 -15.5q118 9 185 66.5t67 140.5q0 71 -35.5 121t-121.5 90.5t-239 84.5q-73 18 -132 41q-113 -13 -170 -71t-57 -143z" />
<glyph unicode="&#xa8;" horiz-adv-x="570" d="M39 1360v169h133v-169h-133zM400 1360v169h131v-169h-131z" />
<glyph unicode="&#xa9;" horiz-adv-x="1564" d="M90 714q0 155 54 288t149 233t221.5 155.5t271.5 55.5q144 0 270.5 -55.5t222 -155.5t149.5 -233t54 -288q0 -154 -54 -288t-149.5 -234t-222 -156.5t-270.5 -56.5q-145 0 -271 56.5t-221.5 156.5t-149.5 234t-54 288zM174 714q0 -136 47.5 -254.5t131.5 -207t195 -139 t238 -50.5q126 0 237 50.5t194.5 139t131.5 207t48 254.5t-47.5 254t-131.5 206t-195 138t-237 50q-127 0 -238 -49.5t-195 -138t-131.5 -206t-47.5 -254.5zM449 656v116q0 169 89.5 274.5t237.5 105.5q144 0 225.5 -78t78.5 -223l-3 -6h-89q0 219 -212 219 q-108 0 -168.5 -81.5t-60.5 -209.5v-117q0 -130 60 -210.5t169 -80.5q104 0 157.5 52.5t53.5 166.5h89l3 -6q3 -147 -78 -224.5t-225 -77.5q-149 0 -238 104.5t-89 275.5z" />
<glyph unicode="&#xaa;" horiz-adv-x="858" d="M104 902q0 102 77 159t225 57h178v60q0 84 -40 129.5t-118 45.5q-90 0 -139 -36.5t-49 -107.5l-98 9l-2 6q-5 96 75.5 159.5t212.5 63.5q121 0 193.5 -70t72.5 -200v-308q0 -48 6 -91.5t19 -85.5h-109q-18 47 -22 106q-36 -51 -96.5 -85.5t-141.5 -34.5q-117 0 -180.5 60 t-63.5 164zM210 906q0 -136 158 -136q68 0 132.5 38.5t83.5 85.5v143h-177q-94 0 -145.5 -38.5t-51.5 -92.5z" />
<glyph unicode="&#xab;" horiz-adv-x="900" d="M82 501v19l289 371h104l-271 -381l271 -379h-104zM385 501v19l289 371h104l-271 -381l271 -379h-104z" />
<glyph unicode="&#xac;" horiz-adv-x="1089" d="M119 658v102h795v-382h-117v280h-678z" />
<glyph unicode="&#xad;" horiz-adv-x="777" d="M151 560v98h469v-98h-469z" />
<glyph unicode="&#xae;" horiz-adv-x="1563" d="M90 714q0 155 54 288t149 233t221.5 155.5t271.5 55.5q144 0 270.5 -55.5t222 -155.5t149.5 -233t54 -288q0 -154 -54 -288t-149.5 -234t-222 -156.5t-270.5 -56.5q-145 0 -271.5 56.5t-221.5 156.5t-149 234t-54 288zM173 714q0 -136 48 -254.5t132 -207t195 -139 t238 -50.5q126 0 237 50.5t194.5 139t131.5 207t48 254.5t-47.5 254t-131.5 206t-195 138t-237 50q-127 0 -238 -49.5t-195 -138t-132 -206t-48 -254.5zM530 310v833h253q144 0 221.5 -62t77.5 -181q0 -133 -138 -193q66 -24 96 -76t30 -126v-55q0 -38 3.5 -70.5t13.5 -54.5 v-15h-101q-9 20 -11 60t-2 81v53q0 82 -37 118.5t-126 36.5h-183v-349h-97zM627 747h177q77 1 130 40.5t53 110.5q0 84 -45.5 120t-158.5 36h-156v-307z" />
<glyph unicode="&#xaf;" horiz-adv-x="735" d="M39 1360v94h657v-94h-657z" />
<glyph unicode="&#xb0;" horiz-adv-x="732" d="M122 1202q0 67 32 123t87 89t121 33q64 0 118 -33t86.5 -89t32.5 -123t-32.5 -121.5t-86.5 -87t-118 -32.5q-67 0 -121.5 32.5t-86.5 87t-32 121.5zM210 1202q0 -66 43.5 -109t108.5 -43q63 0 106 43t43 109q0 68 -43 112.5t-106 44.5q-65 0 -108.5 -45t-43.5 -112z" />
<glyph unicode="&#xb1;" horiz-adv-x="1060" d="M83 713v99h406v430h109v-430h383v-99h-383v-430h-109v430h-406zM126 49v98h819v-98h-819z" />
<glyph unicode="&#xb2;" horiz-adv-x="799" d="M111 654v88l309 276q75 69 101.5 113t26.5 90q0 64 -38 102t-115 38q-85 0 -131 -41.5t-46 -106.5h-98l-2 6q-6 95 71 162.5t206 67.5q121 0 191 -59t70 -170q0 -72 -46 -133t-147 -155l-209 -184l2 -6h413v-88h-558z" />
<glyph unicode="&#xb3;" horiz-adv-x="820" d="M103 864l1 6h99q0 -62 50 -101t132 -39q88 0 137.5 37.5t49.5 100.5q0 141 -182 141h-120v88h120q170 0 170 132q0 58 -44.5 94.5t-130.5 36.5q-73 0 -121 -34.5t-48 -92.5h-98l-2 6q-6 92 73 150.5t196 58.5q130 0 205.5 -57t75.5 -163q0 -57 -35 -103t-98 -71 q146 -44 146 -186q0 -107 -81.5 -166.5t-212.5 -59.5q-78 0 -144 25.5t-104 75t-34 121.5z" />
<glyph unicode="&#xb4;" horiz-adv-x="395" d="M39 1284l179 245h137l2 -5l-227 -243h-86z" />
<glyph unicode="&#xb5;" horiz-adv-x="1271" d="M65 974v86h275v-620q0 -203 70 -283t188 -80q142 0 214 66t95 187v631l-159 13v86h277v-962l160 -13v-85h-262l-10 158q-45 -87 -121.5 -133t-184.5 -46q-88 0 -156 31.5t-111 101.5v-520h-116v1369z" />
<glyph unicode="&#xb6;" horiz-adv-x="1043" d="M76 968q0 135 57.5 238.5t165.5 162t260 58.5h381v-86l-160 -13v-1230l160 -13v-85h-437v85l159 13v412h-103q-153 0 -261 57.5t-165 161t-57 239.5z" />
<glyph unicode="&#xb7;" horiz-adv-x="487" d="M166 620v160h134v-160h-134z" />
<glyph unicode="&#xb8;" horiz-adv-x="460" d="M39 -351q88 0 148 30t60 87q0 55 -40 76.5t-142 30.5l31 142h91l-15 -82q79 -8 126 -46.5t47 -118.5q0 -89 -77.5 -141.5t-221.5 -52.5z" />
<glyph unicode="&#xb9;" horiz-adv-x="495" d="M89 1335v90l253 22v-795h-108v691z" />
<glyph unicode="&#xba;" horiz-adv-x="902" d="M119 1004v115q0 145 85.5 236.5t230.5 91.5t231.5 -91.5t86.5 -236.5v-115q0 -146 -86 -236.5t-230 -90.5q-146 0 -232 90.5t-86 236.5zM224 1004q0 -105 53.5 -170t159.5 -65q101 0 155 66t54 169v115q0 102 -54.5 168t-156.5 66t-156.5 -66t-54.5 -168v-115z" />
<glyph unicode="&#xbb;" horiz-adv-x="897" d="M103 159l270 380l-270 386h104l288 -376v-19l-288 -371h-104zM411 159l270 380l-270 386h104l288 -376v-19l-288 -371h-104z" />
<glyph unicode="&#xbc;" horiz-adv-x="1461" d="M162 1334v90l252 23v-796h-107v691zM300 174l697 1115l73 -47l-696 -1115zM749 232l420 553h112v-530h150v-88h-150v-167h-106v167h-422zM876 255h299v394l-6 2l-25 -42z" />
<glyph unicode="&#xbd;" horiz-adv-x="1432" d="M162 1334v90l252 23v-796h-107v691zM311 174l697 1115l73 -47l-696 -1115zM889 0v88l309 277q75 68 101.5 112t26.5 90q0 64 -38 102.5t-115 38.5q-85 0 -131 -42t-46 -106h-98l-2 5q-6 96 71 163.5t206 67.5q121 0 191 -59.5t70 -170.5q0 -72 -46 -133t-147 -155 l-209 -184l2 -6h413v-88h-558z" />
<glyph unicode="&#xbe;" horiz-adv-x="1636" d="M127 866l1 6h99q0 -62 50 -101.5t132 -39.5q88 0 137.5 37.5t49.5 101.5q0 141 -182 141h-120v87h120q170 0 170 132q0 58 -44.5 95t-130.5 37q-73 0 -121 -35t-48 -93h-98l-2 6q-6 92 73 151t196 59q130 0 205.5 -57.5t75.5 -163.5q0 -57 -35 -103t-98 -70 q146 -44 146 -186q0 -107 -81.5 -167t-212.5 -60q-78 0 -144 25.5t-104 75t-34 122.5zM503 174l697 1115l73 -47l-696 -1115zM954 232l420 553h112v-530h150v-88h-150v-167h-106v167h-422zM1081 255h299v394l-6 2l-25 -42z" />
<glyph unicode="&#xbf;" horiz-adv-x="845" d="M56 -21q0 89 27.5 160.5t83 140.5t139.5 148q39 36 57.5 66.5t24 68.5t5.5 101h117q-1 -85 -8.5 -132.5t-36 -85.5t-89.5 -94q-75 -69 -119 -125.5t-63.5 -114t-19.5 -131.5q0 -125 66.5 -195t189.5 -70q116 0 186 67.5t72 183.5h109l3 -6q2 -162 -102 -254.5t-268 -92.5 q-176 0 -275 98.5t-99 266.5zM377 911v150h136v-150h-136z" />
<glyph unicode="&#xc0;" d="M61 0v85l105 7l506 1335h112l503 -1335l105 -7v-85h-352v85l125 9l-118 322h-640l-120 -322l126 -9v-85h-352zM445 519h563l-257 701l-20 58h-6l-20 -58zM496 1795l2 5h138l178 -245l-5 -3h-86z" />
<glyph unicode="&#xc1;" d="M61 0v85l105 7l506 1335h112l503 -1335l105 -7v-85h-352v85l125 9l-118 322h-640l-120 -322l126 -9v-85h-352zM445 519h563l-257 701l-20 58h-6l-20 -58zM641 1555l179 245h137l2 -5l-227 -243h-86z" />
<glyph unicode="&#xc2;" d="M61 0v85l105 7l506 1335h112l503 -1335l105 -7v-85h-352v85l125 9l-118 322h-640l-120 -322l126 -9v-85h-352zM445 519h563l-257 701l-20 58h-6l-20 -58zM455 1564v20l227 216h88l228 -219v-17h-104l-169 164l-166 -164h-104z" />
<glyph unicode="&#xc3;" d="M61 0v85l105 7l506 1335h112l503 -1335l105 -7v-85h-352v85l125 9l-118 322h-640l-120 -322l126 -9v-85h-352zM402 1595q0 86 53 144.5t128 58.5q51 0 102.5 -28t99.5 -56t88 -28t71.5 33t31.5 88l77 -13q0 -86 -52.5 -143.5t-126.5 -57.5q-52 0 -104 27.5t-99.5 55.5 t-87.5 28q-42 0 -73 -32.5t-31 -86.5zM445 519h563l-257 701l-20 58h-6l-20 -58z" />
<glyph unicode="&#xc4;" d="M61 0v85l105 7l506 1335h112l503 -1335l105 -7v-85h-352v85l125 9l-118 322h-640l-120 -322l126 -9v-85h-352zM445 519h563l-257 701l-20 58h-6l-20 -58zM481 1631v169h133v-169h-133zM842 1631v169h131v-169h-131z" />
<glyph unicode="&#xc5;" d="M61 0v85l105 7l506 1335h112l503 -1335l105 -7v-85h-352v85l125 9l-118 322h-640l-120 -322l126 -9v-85h-352zM445 519h563l-257 701l-20 58h-6l-20 -58zM544 1642q0 76 53.5 128.5t130.5 52.5t130.5 -52t53.5 -129t-53.5 -127t-130.5 -50t-130.5 50t-53.5 127zM620 1642 q0 -47 31 -77.5t77 -30.5q47 0 77.5 30t30.5 78q0 49 -30.5 80.5t-77.5 31.5t-77.5 -31.5t-30.5 -80.5z" />
<glyph unicode="&#xc6;" horiz-adv-x="2016" d="M50 0v85l126 9l807 1333h847v-300h-104l-7 201h-568l22 -535h577v-99h-573l24 -596h578l8 202h103v-300h-961v85l155 13l-12 284h-582l-172 -290l105 -7v-85h-373zM553 492h515l-34 808l-5 1l-34 -61z" />
<glyph unicode="&#xc7;" horiz-adv-x="1294" d="M105 704v18q0 213 77 376.5t217.5 256t331.5 92.5q148 0 254 -41t188 -112v-278h-100l-10 228q-64 48 -140.5 75t-191.5 27q-156 0 -270 -79t-176.5 -219t-62.5 -324v-20q0 -191 63 -331t182 -216.5t288 -76.5q89 0 173 22.5t142 60.5l10 215h99v-284q-87 -57 -196.5 -86 t-228.5 -29q-212 0 -356.5 93.5t-218.5 256.5t-74 375zM603 -351q88 0 148 30t60 87q0 55 -40 76.5t-142 30.5l31 142h91l-15 -82q79 -8 126 -46.5t47 -118.5q0 -89 -77.5 -141.5t-221.5 -52.5z" />
<glyph unicode="&#xc8;" horiz-adv-x="1261" d="M74 0v85l160 13v1230l-160 13v86h1026v-313h-100l-10 216h-638v-540h575v-98h-575v-597h668l10 218h99v-313h-1055zM399 1795l2 5h138l178 -245l-5 -3h-86z" />
<glyph unicode="&#xc9;" horiz-adv-x="1261" d="M74 0v85l160 13v1230l-160 13v86h1026v-313h-100l-10 216h-638v-540h575v-98h-575v-597h668l10 218h99v-313h-1055zM544 1555l179 245h137l2 -5l-227 -243h-86z" />
<glyph unicode="&#xca;" horiz-adv-x="1261" d="M74 0v85l160 13v1230l-160 13v86h1026v-313h-100l-10 216h-638v-540h575v-98h-575v-597h668l10 218h99v-313h-1055zM358 1564v20l227 216h88l228 -219v-17h-104l-169 164l-166 -164h-104z" />
<glyph unicode="&#xcb;" horiz-adv-x="1261" d="M74 0v85l160 13v1230l-160 13v86h1026v-313h-100l-10 216h-638v-540h575v-98h-575v-597h668l10 218h99v-313h-1055zM384 1631v169h133v-169h-133zM745 1631v169h131v-169h-131z" />
<glyph unicode="&#xcc;" horiz-adv-x="585" d="M61 1795l2 5h138l178 -245l-5 -3h-86zM74 0v85l160 13v1230l-160 13v86h438v-86l-160 -13v-1230l160 -13v-85h-438z" />
<glyph unicode="&#xcd;" horiz-adv-x="585" d="M74 0v85l160 13v1230l-160 13v86h438v-86l-160 -13v-1230l160 -13v-85h-438zM206 1555l179 245h137l2 -5l-227 -243h-86z" />
<glyph unicode="&#xce;" horiz-adv-x="585" d="M20 1564v20l227 216h88l228 -219v-17h-104l-169 164l-166 -164h-104zM74 0v85l160 13v1230l-160 13v86h438v-86l-160 -13v-1230l160 -13v-85h-438z" />
<glyph unicode="&#xcf;" horiz-adv-x="585" d="M46 1631v169h133v-169h-133zM74 0v85l160 13v1230l-160 13v86h438v-86l-160 -13v-1230l160 -13v-85h-438zM407 1631v169h131v-169h-131z" />
<glyph unicode="&#xd0;" horiz-adv-x="1344" d="M74 0v85l160 13v1230l-160 13v86h552q182 0 321 -90t217.5 -249t78.5 -363v-23q0 -203 -77.5 -361.5t-215.5 -249.5t-319 -91h-557zM74 673v99h548v-99h-548zM352 98h274q148 0 260.5 80t175.5 216.5t63 307.5v25q0 173 -63 308.5t-175.5 214t-260.5 78.5h-274v-1230z " />
<glyph unicode="&#xd1;" horiz-adv-x="1520" d="M75 0v85l160 13v1230l-160 13v86h279l815 -1227l6 2v1126l-167 13v86h438v-86l-160 -13v-1328h-110l-824 1232l-6 -2v-1132l167 -13v-85h-438zM435 1595q0 86 53 144.5t128 58.5q51 0 102.5 -28t99.5 -56t88 -28t71.5 33t31.5 88l77 -13q0 -86 -52.5 -143.5t-126.5 -57.5 q-52 0 -104 27.5t-99.5 55.5t-87.5 28q-42 0 -73 -32.5t-31 -86.5z" />
<glyph unicode="&#xd2;" horiz-adv-x="1396" d="M100 704v18q0 217 73.5 380t207 254t314.5 91q185 0 318.5 -91t205.5 -254t72 -380v-18q0 -217 -71.5 -379.5t-205 -254t-318.5 -91.5q-181 0 -315 91.5t-207.5 254.5t-73.5 379zM219 704q0 -187 57 -327t164 -217.5t256 -77.5q155 0 261 77.5t161 217t55 327.5v20 q0 186 -56 325.5t-162 217.5t-260 78q-148 0 -255 -78t-164 -218t-57 -325v-20zM463 1795l2 5h138l178 -245l-5 -3h-86z" />
<glyph unicode="&#xd3;" horiz-adv-x="1396" d="M100 704v18q0 217 73.5 380t207 254t314.5 91q185 0 318.5 -91t205.5 -254t72 -380v-18q0 -217 -71.5 -379.5t-205 -254t-318.5 -91.5q-181 0 -315 91.5t-207.5 254.5t-73.5 379zM219 704q0 -187 57 -327t164 -217.5t256 -77.5q155 0 261 77.5t161 217t55 327.5v20 q0 186 -56 325.5t-162 217.5t-260 78q-148 0 -255 -78t-164 -218t-57 -325v-20zM608 1555l179 245h137l2 -5l-227 -243h-86z" />
<glyph unicode="&#xd4;" horiz-adv-x="1396" d="M100 704v18q0 217 73.5 380t207 254t314.5 91q185 0 318.5 -91t205.5 -254t72 -380v-18q0 -217 -71.5 -379.5t-205 -254t-318.5 -91.5q-181 0 -315 91.5t-207.5 254.5t-73.5 379zM219 704q0 -187 57 -327t164 -217.5t256 -77.5q155 0 261 77.5t161 217t55 327.5v20 q0 186 -56 325.5t-162 217.5t-260 78q-148 0 -255 -78t-164 -218t-57 -325v-20zM423 1564v20l227 216h88l228 -219v-17h-104l-169 164l-166 -164h-104z" />
<glyph unicode="&#xd5;" horiz-adv-x="1396" d="M100 704v18q0 217 73.5 380t207 254t314.5 91q185 0 318.5 -91t205.5 -254t72 -380v-18q0 -217 -71.5 -379.5t-205 -254t-318.5 -91.5q-181 0 -315 91.5t-207.5 254.5t-73.5 379zM219 704q0 -187 57 -327t164 -217.5t256 -77.5q155 0 261 77.5t161 217t55 327.5v20 q0 186 -56 325.5t-162 217.5t-260 78q-148 0 -255 -78t-164 -218t-57 -325v-20zM369 1595q0 86 53 144.5t128 58.5q51 0 102.5 -28t99.5 -56t88 -28t71.5 33t31.5 88l77 -13q0 -86 -52.5 -143.5t-126.5 -57.5q-52 0 -104 27.5t-99.5 55.5t-87.5 28q-42 0 -73 -32.5 t-31 -86.5z" />
<glyph unicode="&#xd6;" horiz-adv-x="1396" d="M100 704v18q0 217 73.5 380t207 254t314.5 91q185 0 318.5 -91t205.5 -254t72 -380v-18q0 -217 -71.5 -379.5t-205 -254t-318.5 -91.5q-181 0 -315 91.5t-207.5 254.5t-73.5 379zM219 704q0 -187 57 -327t164 -217.5t256 -77.5q155 0 261 77.5t161 217t55 327.5v20 q0 186 -56 325.5t-162 217.5t-260 78q-148 0 -255 -78t-164 -218t-57 -325v-20zM449 1631v169h133v-169h-133zM810 1631v169h131v-169h-131z" />
<glyph unicode="&#xd7;" horiz-adv-x="1034" d="M77 312l351 357l-336 344l78 78l335 -343l336 343l77 -78l-336 -344l351 -357l-77 -77l-351 356l-350 -356z" />
<glyph unicode="&#xd8;" horiz-adv-x="1396" d="M100 704v18q0 217 73.5 380t207 254t314.5 91q185 0 318.5 -91t205.5 -254t72 -380v-18q0 -217 -71.5 -379.5t-205 -254t-318.5 -91.5q-181 0 -315 91.5t-207.5 254.5t-73.5 379zM167 -72l959 1557h102l-959 -1557h-102zM219 704q0 -187 57 -327t164 -217.5t256 -77.5 q155 0 261 77.5t161 217t55 327.5v20q0 186 -56 325.5t-162 217.5t-260 78q-148 0 -255 -78t-164 -218t-57 -325v-20z" />
<glyph unicode="&#xd9;" horiz-adv-x="1448" d="M64 1341v86h437v-86l-160 -13v-868q0 -183 106.5 -282t275.5 -99q170 0 277.5 98.5t107.5 282.5v868l-159 13v86h437v-86l-160 -13v-868q0 -155 -63 -262.5t-177 -163t-264 -55.5q-147 0 -259 56.5t-176 164t-64 260.5v868zM493 1795l2 5h138l178 -245l-5 -3h-86z" />
<glyph unicode="&#xda;" horiz-adv-x="1448" d="M64 1341v86h437v-86l-160 -13v-868q0 -183 106.5 -282t275.5 -99q170 0 277.5 98.5t107.5 282.5v868l-159 13v86h437v-86l-160 -13v-868q0 -155 -63 -262.5t-177 -163t-264 -55.5q-147 0 -259 56.5t-176 164t-64 260.5v868zM638 1555l179 245h137l2 -5l-227 -243h-86z " />
<glyph unicode="&#xdb;" horiz-adv-x="1448" d="M64 1341v86h437v-86l-160 -13v-868q0 -183 106.5 -282t275.5 -99q170 0 277.5 98.5t107.5 282.5v868l-159 13v86h437v-86l-160 -13v-868q0 -155 -63 -262.5t-177 -163t-264 -55.5q-147 0 -259 56.5t-176 164t-64 260.5v868zM453 1564v20l227 216h88l228 -219v-17h-104 l-169 164l-166 -164h-104z" />
<glyph unicode="&#xdc;" horiz-adv-x="1448" d="M64 1341v86h437v-86l-160 -13v-868q0 -183 106.5 -282t275.5 -99q170 0 277.5 98.5t107.5 282.5v868l-159 13v86h437v-86l-160 -13v-868q0 -155 -63 -262.5t-177 -163t-264 -55.5q-147 0 -259 56.5t-176 164t-64 260.5v868zM478 1631v169h133v-169h-133zM839 1631v169 h131v-169h-131z" />
<glyph unicode="&#xdd;" horiz-adv-x="1415" d="M59 1341v86h399v-86l-150 -8l377 -658l23 -44l1 2l23 42l384 658l-152 8v86h394v-86l-120 -8l-471 -795v-440l160 -13v-85h-437v85l160 13v433l-475 802zM621 1555l179 245h137l2 -5l-227 -243h-86z" />
<glyph unicode="&#xde;" horiz-adv-x="1231" d="M69 0v85l159 13v1230l-159 13v86h437v-86l-160 -13v-199h317q217 0 338.5 -112.5t121.5 -293.5t-121.5 -293t-338.5 -112h-317v-220l160 -13v-85h-437zM346 416h317q113 0 189 41.5t114.5 111t38.5 152.5q0 86 -38.5 156t-114.5 112t-189 42h-317v-615z" />
<glyph unicode="&#xdf;" horiz-adv-x="1238" d="M54 0v85l160 13v1037q0 197 98.5 305.5t263.5 108.5q140 0 232 -76.5t92 -215.5q0 -90 -31 -164t-61.5 -136.5t-30.5 -117.5t37 -101t90.5 -92t107.5 -97.5t90.5 -114.5t36.5 -145q0 -99 -47 -168t-127 -105.5t-179 -36.5q-56 0 -115.5 11t-109 28.5t-75.5 40.5l33 97 q42 -31 114.5 -55t138.5 -24q117 0 183 59t66 153q0 65 -36 118.5t-90 101.5t-107.5 97t-89.5 105.5t-36 126.5q0 65 31 134.5t62.5 141.5t31.5 143q0 85 -56 139.5t-150 54.5q-113 0 -181.5 -82t-68.5 -234v-1135h-277z" />
<glyph unicode="&#xe0;" horiz-adv-x="1100" d="M90 277q0 147 125 238t341 91h219v121q0 116 -68.5 185.5t-204.5 69.5q-78 0 -139 -25t-106 -63l-10 -162h-97v222q69 59 156 92.5t198 33.5q187 0 288 -94t101 -261v-511q0 -32 2 -62.5t7 -61.5l126 -5v-85h-231q-11 58 -16 93t-6 79q-58 -85 -153 -139t-210 -54 q-151 0 -236.5 80.5t-85.5 217.5zM208 273q0 -85 58 -138t159 -53q109 0 206.5 57.5t143.5 152.5v223h-220q-163 0 -255 -70t-92 -172zM281 1524l2 5h138l178 -245l-5 -3h-86z" />
<glyph unicode="&#xe1;" horiz-adv-x="1100" d="M90 277q0 147 125 238t341 91h219v121q0 116 -68.5 185.5t-204.5 69.5q-78 0 -139 -25t-106 -63l-10 -162h-97v222q69 59 156 92.5t198 33.5q187 0 288 -94t101 -261v-511q0 -32 2 -62.5t7 -61.5l126 -5v-85h-231q-11 58 -16 93t-6 79q-58 -85 -153 -139t-210 -54 q-151 0 -236.5 80.5t-85.5 217.5zM208 273q0 -85 58 -138t159 -53q109 0 206.5 57.5t143.5 152.5v223h-220q-163 0 -255 -70t-92 -172zM427 1284l179 245h137l2 -5l-227 -243h-86z" />
<glyph unicode="&#xe2;" horiz-adv-x="1100" d="M90 277q0 147 125 238t341 91h219v121q0 116 -68.5 185.5t-204.5 69.5q-78 0 -139 -25t-106 -63l-10 -162h-97v222q69 59 156 92.5t198 33.5q187 0 288 -94t101 -261v-511q0 -32 2 -62.5t7 -61.5l126 -5v-85h-231q-11 58 -16 93t-6 79q-58 -85 -153 -139t-210 -54 q-151 0 -236.5 80.5t-85.5 217.5zM208 273q0 -85 58 -138t159 -53q109 0 206.5 57.5t143.5 152.5v223h-220q-163 0 -255 -70t-92 -172zM241 1293v20l227 216h88l228 -219v-17h-104l-169 164l-166 -164h-104z" />
<glyph unicode="&#xe3;" horiz-adv-x="1100" d="M90 277q0 147 125 238t341 91h219v121q0 116 -68.5 185.5t-204.5 69.5q-78 0 -139 -25t-106 -63l-10 -162h-97v222q69 59 156 92.5t198 33.5q187 0 288 -94t101 -261v-511q0 -32 2 -62.5t7 -61.5l126 -5v-85h-231q-11 58 -16 93t-6 79q-58 -85 -153 -139t-210 -54 q-151 0 -236.5 80.5t-85.5 217.5zM187 1324q0 86 53 144.5t128 58.5q51 0 102.5 -28t99.5 -56t88 -28t71.5 33t31.5 88l77 -13q0 -86 -52.5 -143.5t-126.5 -57.5q-52 0 -104 27.5t-99.5 55.5t-87.5 28q-42 0 -73 -32.5t-31 -86.5zM208 273q0 -85 58 -138t159 -53 q109 0 206.5 57.5t143.5 152.5v223h-220q-163 0 -255 -70t-92 -172z" />
<glyph unicode="&#xe4;" horiz-adv-x="1100" d="M90 277q0 147 125 238t341 91h219v121q0 116 -68.5 185.5t-204.5 69.5q-78 0 -139 -25t-106 -63l-10 -162h-97v222q69 59 156 92.5t198 33.5q187 0 288 -94t101 -261v-511q0 -32 2 -62.5t7 -61.5l126 -5v-85h-231q-11 58 -16 93t-6 79q-58 -85 -153 -139t-210 -54 q-151 0 -236.5 80.5t-85.5 217.5zM208 273q0 -85 58 -138t159 -53q109 0 206.5 57.5t143.5 152.5v223h-220q-163 0 -255 -70t-92 -172zM266 1360v169h133v-169h-133zM627 1360v169h131v-169h-131z" />
<glyph unicode="&#xe5;" horiz-adv-x="1100" d="M90 277q0 147 125 238t341 91h219v121q0 116 -68.5 185.5t-204.5 69.5q-78 0 -139 -25t-106 -63l-10 -162h-97v222q69 59 156 92.5t198 33.5q187 0 288 -94t101 -261v-511q0 -32 2 -62.5t7 -61.5l126 -5v-85h-231q-11 58 -16 93t-6 79q-58 -85 -153 -139t-210 -54 q-151 0 -236.5 80.5t-85.5 217.5zM208 273q0 -85 58 -138t159 -53q109 0 206.5 57.5t143.5 152.5v223h-220q-163 0 -255 -70t-92 -172zM329 1371q0 76 53.5 128.5t130.5 52.5t130.5 -52t53.5 -129t-53.5 -127t-130.5 -50t-130.5 50t-53.5 127zM405 1371q0 -47 31 -77.5 t77 -30.5q47 0 77.5 30t30.5 78q0 49 -30.5 80.5t-77.5 31.5t-77.5 -31.5t-30.5 -80.5z" />
<glyph unicode="&#xe6;" horiz-adv-x="1732" d="M90 288q0 150 125 242.5t342 92.5h218v104q0 116 -68 185.5t-205 69.5q-78 0 -138.5 -25t-106.5 -63l-9 -162h-98v222q69 59 156.5 92.5t197.5 33.5q142 0 230.5 -57.5t121.5 -161.5q50 99 147.5 159t211.5 60q196 0 305.5 -121.5t109.5 -332.5v-98h-736l-1 -43 q0 -181 87.5 -294.5t264.5 -113.5q101 0 175 31t141 87l47 -85q-59 -55 -145.5 -93t-217.5 -38q-277 0 -410 238q-69 -111 -176 -174.5t-243 -63.5q-153 0 -239.5 84t-86.5 225zM208 284q0 -85 58.5 -143.5t158.5 -58.5q112 0 213.5 65.5t149.5 170.5q-6 47 -9.5 88.5 t-3.5 86.5v40h-220q-163 0 -255 -72t-92 -177zM894 628l2 -5h616v31q0 144 -75 235.5t-222 91.5q-137 0 -223 -99.5t-98 -253.5z" />
<glyph unicode="&#xe7;" horiz-adv-x="1053" d="M90 510v41q0 155 56 274.5t156.5 187t236.5 67.5q123 0 219.5 -46.5t160.5 -120.5l2 -240h-98l-15 198q-49 52 -115 81t-151 29q-100 0 -175.5 -56t-117 -153.5t-41.5 -220.5v-41q0 -194 90 -313.5t243 -119.5q119 0 198 62.5t96 183.5h105l2 -5q-14 -151 -119 -245 t-283 -94q-132 0 -233.5 67t-159 186.5t-57.5 277.5zM425 -351q88 0 148 30t60 87q0 55 -40 76.5t-142 30.5l31 142h91l-15 -82q79 -8 126 -46.5t47 -118.5q0 -89 -77.5 -141.5t-221.5 -52.5z" />
<glyph unicode="&#xe8;" horiz-adv-x="1050" d="M92 499v54q0 152 59 271t159.5 187.5t223.5 68.5q195 0 305 -123t110 -329v-100h-735l-2 -43q1 -117 43.5 -209.5t119.5 -145.5t179 -53q100 0 176 31.5t133 87.5l50 -80q-60 -60 -148.5 -98.5t-210.5 -38.5q-137 0 -240.5 66.5t-162.5 183.5t-59 270zM220 632l1 -6h610 v30q0 140 -79 232.5t-218 92.5q-84 0 -151.5 -45.5t-110.5 -124.5t-52 -179zM303 1524l2 5h138l178 -245l-5 -3h-86z" />
<glyph unicode="&#xe9;" horiz-adv-x="1050" d="M92 499v54q0 152 59 271t159.5 187.5t223.5 68.5q195 0 305 -123t110 -329v-100h-735l-2 -43q1 -117 43.5 -209.5t119.5 -145.5t179 -53q100 0 176 31.5t133 87.5l50 -80q-60 -60 -148.5 -98.5t-210.5 -38.5q-137 0 -240.5 66.5t-162.5 183.5t-59 270zM220 632l1 -6h610 v30q0 140 -79 232.5t-218 92.5q-84 0 -151.5 -45.5t-110.5 -124.5t-52 -179zM448 1284l179 245h137l2 -5l-227 -243h-86z" />
<glyph unicode="&#xea;" horiz-adv-x="1050" d="M92 499v54q0 152 59 271t159.5 187.5t223.5 68.5q195 0 305 -123t110 -329v-100h-735l-2 -43q1 -117 43.5 -209.5t119.5 -145.5t179 -53q100 0 176 31.5t133 87.5l50 -80q-60 -60 -148.5 -98.5t-210.5 -38.5q-137 0 -240.5 66.5t-162.5 183.5t-59 270zM220 632l1 -6h610 v30q0 140 -79 232.5t-218 92.5q-84 0 -151.5 -45.5t-110.5 -124.5t-52 -179zM262 1293v20l227 216h88l228 -219v-17h-104l-169 164l-166 -164h-104z" />
<glyph unicode="&#xeb;" horiz-adv-x="1050" d="M92 499v54q0 152 59 271t159.5 187.5t223.5 68.5q195 0 305 -123t110 -329v-100h-735l-2 -43q1 -117 43.5 -209.5t119.5 -145.5t179 -53q100 0 176 31.5t133 87.5l50 -80q-60 -60 -148.5 -98.5t-210.5 -38.5q-137 0 -240.5 66.5t-162.5 183.5t-59 270zM220 632l1 -6h610 v30q0 140 -79 232.5t-218 92.5q-84 0 -151.5 -45.5t-110.5 -124.5t-52 -179zM288 1360v169h133v-169h-133zM649 1360v169h131v-169h-131z" />
<glyph unicode="&#xec;" horiz-adv-x="616" d="M58 1524l2 5h138l178 -245l-5 -3h-86zM77 0v85l160 13v863l-160 13v86h278v-962l159 -13v-85h-437z" />
<glyph unicode="&#xed;" horiz-adv-x="616" d="M77 0v85l160 13v863l-160 13v86h278v-962l159 -13v-85h-437zM203 1284l179 245h137l2 -5l-227 -243h-86z" />
<glyph unicode="&#xee;" horiz-adv-x="616" d="M17 1293v20l227 216h88l228 -219v-17h-104l-169 164l-166 -164h-104zM77 0v85l160 13v863l-160 13v86h278v-962l159 -13v-85h-437z" />
<glyph unicode="&#xef;" horiz-adv-x="616" d="M43 1360v169h133v-169h-133zM77 0v85l160 13v863l-160 13v86h278v-962l159 -13v-85h-437zM404 1360v169h131v-169h-131z" />
<glyph unicode="&#xf0;" horiz-adv-x="1156" d="M76 446q0 154 58 265.5t163.5 173t247.5 61.5q103 0 190 -39.5t138 -105.5l5 5q-18 130 -67 231.5t-123 177.5l-302 -172l-49 71l281 161q-43 32 -91 59t-103 52l38 101q151 -60 262 -151l253 145l50 -72l-237 -136q110 -119 166.5 -283t56.5 -379v-87q0 -159 -61.5 -282 t-168 -193t-241.5 -70q-136 0 -241 62t-165 167.5t-60 237.5zM195 446q0 -97 42.5 -181t121.5 -135t187 -51q103 0 182 57.5t123.5 158t44.5 229.5v142q-38 76 -126.5 127.5t-224.5 51.5q-170 0 -260 -113t-90 -286z" />
<glyph unicode="&#xf1;" horiz-adv-x="1304" d="M80 0v85l160 13v863l-160 13v86h264l10 -190q51 100 137 155t206 55q172 0 262.5 -105.5t90.5 -329.5v-547l159 -13v-85h-437v85l160 13v546q0 184 -67.5 259.5t-193.5 75.5q-131 0 -207.5 -73.5t-105.5 -192.5v-615l159 -13v-85h-437zM327 1324q0 86 53 144.5t128 58.5 q51 0 102.5 -28t99.5 -56t88 -28t71.5 33t31.5 88l77 -13q0 -86 -52.5 -143.5t-126.5 -57.5q-52 0 -104 27.5t-99.5 55.5t-87.5 28q-42 0 -73 -32.5t-31 -86.5z" />
<glyph unicode="&#xf2;" horiz-adv-x="1118" d="M90 514v32q0 156 58.5 276.5t163.5 189t247 68.5q141 0 246.5 -68.5t164 -189t58.5 -276.5v-32q0 -157 -58.5 -277.5t-163.5 -189t-245 -68.5q-143 0 -248.5 68.5t-164 189t-58.5 277.5zM208 514q0 -124 41.5 -222.5t120.5 -156.5t191 -58q108 0 186.5 58t120.5 156.5 t42 222.5v32q0 121 -42.5 219.5t-121.5 157t-187 58.5q-111 0 -189.5 -58.5t-120 -157t-41.5 -219.5v-32zM327 1524l2 5h138l178 -245l-5 -3h-86z" />
<glyph unicode="&#xf3;" horiz-adv-x="1118" d="M90 514v32q0 156 58.5 276.5t163.5 189t247 68.5q141 0 246.5 -68.5t164 -189t58.5 -276.5v-32q0 -157 -58.5 -277.5t-163.5 -189t-245 -68.5q-143 0 -248.5 68.5t-164 189t-58.5 277.5zM208 514q0 -124 41.5 -222.5t120.5 -156.5t191 -58q108 0 186.5 58t120.5 156.5 t42 222.5v32q0 121 -42.5 219.5t-121.5 157t-187 58.5q-111 0 -189.5 -58.5t-120 -157t-41.5 -219.5v-32zM472 1284l179 245h137l2 -5l-227 -243h-86z" />
<glyph unicode="&#xf4;" horiz-adv-x="1118" d="M90 514v32q0 156 58.5 276.5t163.5 189t247 68.5q141 0 246.5 -68.5t164 -189t58.5 -276.5v-32q0 -157 -58.5 -277.5t-163.5 -189t-245 -68.5q-143 0 -248.5 68.5t-164 189t-58.5 277.5zM208 514q0 -124 41.5 -222.5t120.5 -156.5t191 -58q108 0 186.5 58t120.5 156.5 t42 222.5v32q0 121 -42.5 219.5t-121.5 157t-187 58.5q-111 0 -189.5 -58.5t-120 -157t-41.5 -219.5v-32zM287 1293v20l227 216h88l228 -219v-17h-104l-169 164l-166 -164h-104z" />
<glyph unicode="&#xf5;" horiz-adv-x="1118" d="M90 514v32q0 156 58.5 276.5t163.5 189t247 68.5q141 0 246.5 -68.5t164 -189t58.5 -276.5v-32q0 -157 -58.5 -277.5t-163.5 -189t-245 -68.5q-143 0 -248.5 68.5t-164 189t-58.5 277.5zM208 514q0 -124 41.5 -222.5t120.5 -156.5t191 -58q108 0 186.5 58t120.5 156.5 t42 222.5v32q0 121 -42.5 219.5t-121.5 157t-187 58.5q-111 0 -189.5 -58.5t-120 -157t-41.5 -219.5v-32zM233 1324q0 86 53 144.5t128 58.5q51 0 102.5 -28t99.5 -56t88 -28t71.5 33t31.5 88l77 -13q0 -86 -52.5 -143.5t-126.5 -57.5q-52 0 -104 27.5t-99.5 55.5t-87.5 28 q-42 0 -73 -32.5t-31 -86.5z" />
<glyph unicode="&#xf6;" horiz-adv-x="1118" d="M90 514v32q0 156 58.5 276.5t163.5 189t247 68.5q141 0 246.5 -68.5t164 -189t58.5 -276.5v-32q0 -157 -58.5 -277.5t-163.5 -189t-245 -68.5q-143 0 -248.5 68.5t-164 189t-58.5 277.5zM208 514q0 -124 41.5 -222.5t120.5 -156.5t191 -58q108 0 186.5 58t120.5 156.5 t42 222.5v32q0 121 -42.5 219.5t-121.5 157t-187 58.5q-111 0 -189.5 -58.5t-120 -157t-41.5 -219.5v-32zM312 1360v169h133v-169h-133zM673 1360v169h131v-169h-131z" />
<glyph unicode="&#xf7;" horiz-adv-x="1125" d="M73 632v113h978v-113h-978zM498 209v156h140v-156h-140zM498 990v157h140v-157h-140z" />
<glyph unicode="&#xf8;" horiz-adv-x="1118" d="M90 514v32q0 156 58.5 276.5t163.5 189t247 68.5q141 0 246.5 -68.5t164 -189t58.5 -276.5v-32q0 -157 -58.5 -277.5t-163.5 -189t-245 -68.5q-143 0 -248.5 68.5t-164 189t-58.5 277.5zM172 -133l682 1327h91l-682 -1327h-91zM208 514q0 -124 41.5 -222.5t120.5 -156.5 t191 -58q108 0 186.5 58t120.5 156.5t42 222.5v32q0 121 -42.5 219.5t-121.5 157t-187 58.5q-111 0 -189.5 -58.5t-120 -157t-41.5 -219.5v-32z" />
<glyph unicode="&#xf9;" horiz-adv-x="1197" d="M47 974v86h249v-616q0 -194 63.5 -279t184.5 -85q136 0 212.5 63t104.5 171v647l-151 13v86h270v-962l142 -13v-85h-246l-10 174q-50 -93 -133.5 -144t-202.5 -51q-166 0 -259 114t-93 353v515zM359 1524l2 5h138l178 -245l-5 -3h-86z" />
<glyph unicode="&#xfa;" horiz-adv-x="1197" d="M47 974v86h249v-616q0 -194 63.5 -279t184.5 -85q136 0 212.5 63t104.5 171v647l-151 13v86h270v-962l142 -13v-85h-246l-10 174q-50 -93 -133.5 -144t-202.5 -51q-166 0 -259 114t-93 353v515zM505 1284l179 245h137l2 -5l-227 -243h-86z" />
<glyph unicode="&#xfb;" horiz-adv-x="1197" d="M47 974v86h249v-616q0 -194 63.5 -279t184.5 -85q136 0 212.5 63t104.5 171v647l-151 13v86h270v-962l142 -13v-85h-246l-10 174q-50 -93 -133.5 -144t-202.5 -51q-166 0 -259 114t-93 353v515zM319 1293v20l227 216h88l228 -219v-17h-104l-169 164l-166 -164h-104z" />
<glyph unicode="&#xfc;" horiz-adv-x="1197" d="M47 974v86h249v-616q0 -194 63.5 -279t184.5 -85q136 0 212.5 63t104.5 171v647l-151 13v86h270v-962l142 -13v-85h-246l-10 174q-50 -93 -133.5 -144t-202.5 -51q-166 0 -259 114t-93 353v515zM345 1360v169h133v-169h-133zM706 1360v169h131v-169h-131z" />
<glyph unicode="&#xfd;" horiz-adv-x="1164" d="M40 974v86h374v-86l-135 -9l273 -684l44 -120h6l303 804l-139 9v86h371v-86l-113 -7l-435 -1138q-44 -112 -108.5 -184.5t-191.5 -72.5q-20 0 -49 4.5t-44 7.5l14 98q13 -2 38 -4.5t37 -2.5q77 0 122 50.5t82 143.5l55 144l-389 954zM496 1284l179 245h137l2 -5 l-227 -243h-86z" />
<glyph unicode="&#xfe;" horiz-adv-x="1149" d="M46 -321l160 12v1739l-160 13v86h277v-624q52 82 135.5 128.5t195.5 46.5q127 0 217.5 -69t139 -194.5t48.5 -295.5v-20q0 -237 -107 -379.5t-296 -142.5q-113 0 -197 42.5t-136 118.5v-449l160 -12v-87h-437v87zM323 267q38 -88 114.5 -139t190.5 -51q154 0 234 116 t80 308v20q0 203 -80.5 330.5t-235.5 127.5q-120 0 -193 -59.5t-110 -149.5v-503z" />
<glyph unicode="&#xff;" horiz-adv-x="1164" d="M40 974v86h374v-86l-135 -9l273 -684l44 -120h6l303 804l-139 9v86h371v-86l-113 -7l-435 -1138q-44 -112 -108.5 -184.5t-191.5 -72.5q-20 0 -49 4.5t-44 7.5l14 98q13 -2 38 -4.5t37 -2.5q77 0 122 50.5t82 143.5l55 144l-389 954zM336 1360v169h133v-169h-133z M697 1360v169h131v-169h-131z" />
<glyph unicode="&#x152;" horiz-adv-x="1968" d="M100 704v18q0 217 76 380t218.5 254t342.5 91q94 0 203 -20h893v-313h-105l-8 214h-669v-538h584v-98h-584v-594h675l7 215h105v-313h-896q-111 -21 -204 -21q-200 0 -342.5 91.5t-219 254.5t-76.5 379zM219 704q0 -187 60 -327t175.5 -217.5t283.5 -77.5q96 0 195 27 v1208q-101 28 -196 28q-168 0 -283.5 -78t-175 -218t-59.5 -325v-20z" />
<glyph unicode="&#x153;" horiz-adv-x="1886" d="M90 514v32q0 156 58.5 276.5t163 189t246.5 68.5q146 0 254.5 -75.5t161.5 -206.5q52 129 158 205.5t233 76.5q195 0 307 -123t112 -329v-100h-745l-2 -43q1 -116 44.5 -208t120.5 -146t178 -54q110 0 186.5 30.5t132.5 88.5l50 -80q-60 -64 -151 -100.5t-218 -36.5 q-136 0 -245.5 75t-162.5 203q-53 -130 -160.5 -204t-251.5 -74q-143 0 -248 68.5t-163.5 189t-58.5 277.5zM208 514q0 -124 41.5 -222.5t120.5 -156.5t190 -58q109 0 187.5 58t120.5 156.5t42 222.5v32q0 121 -42.5 219.5t-121.5 157t-188 58.5q-110 0 -188.5 -58.5 t-120 -157t-41.5 -219.5v-32zM1045 632l2 -6h619v30q0 140 -80.5 232.5t-220.5 92.5q-86 0 -155 -45.5t-112.5 -124.5t-52.5 -179z" />
<glyph unicode="&#x178;" horiz-adv-x="1415" d="M59 1341v86h399v-86l-150 -8l377 -658l23 -44l1 2l23 42l384 658l-152 8v86h394v-86l-120 -8l-471 -795v-440l160 -13v-85h-437v85l160 13v433l-475 802zM461 1631v169h133v-169h-133zM822 1631v169h131v-169h-131z" />
<glyph unicode="&#x2c6;" horiz-adv-x="621" d="M39 1293v20l227 216h88l228 -219v-17h-104l-169 164l-166 -164h-104z" />
<glyph unicode="&#x2dc;" horiz-adv-x="729" d="M39 1324q0 86 53 144.5t128 58.5q51 0 102.5 -28t99.5 -56t88 -28t71.5 33t31.5 88l77 -13q0 -86 -52.5 -143.5t-126.5 -57.5q-52 0 -104 27.5t-99.5 55.5t-87.5 28q-42 0 -73 -32.5t-31 -86.5z" />
<glyph unicode="&#x2000;" horiz-adv-x="911" />
<glyph unicode="&#x2001;" horiz-adv-x="1823" />
<glyph unicode="&#x2002;" horiz-adv-x="911" />
<glyph unicode="&#x2003;" horiz-adv-x="1823" />
<glyph unicode="&#x2004;" horiz-adv-x="607" />
<glyph unicode="&#x2005;" horiz-adv-x="455" />
<glyph unicode="&#x2006;" horiz-adv-x="303" />
<glyph unicode="&#x2007;" horiz-adv-x="303" />
<glyph unicode="&#x2008;" horiz-adv-x="227" />
<glyph unicode="&#x2009;" horiz-adv-x="364" />
<glyph unicode="&#x200a;" horiz-adv-x="101" />
<glyph unicode="&#x2010;" horiz-adv-x="777" d="M151 560v98h469v-98h-469z" />
<glyph unicode="&#x2011;" horiz-adv-x="777" d="M151 560v98h469v-98h-469z" />
<glyph unicode="&#x2012;" horiz-adv-x="777" d="M151 560v98h469v-98h-469z" />
<glyph unicode="&#x2013;" horiz-adv-x="1377" d="M158 673v99h1064v-99h-1064z" />
<glyph unicode="&#x2014;" horiz-adv-x="1612" d="M162 673v99h1309v-99h-1309z" />
<glyph unicode="&#x2018;" horiz-adv-x="357" d="M97 1056v169q0 91 36.5 176.5t100.5 144.5l70 -49q-46 -65 -67.5 -129t-21.5 -141v-171h-118z" />
<glyph unicode="&#x2019;" horiz-adv-x="357" d="M61 1086q46 64 68 127.5t22 141.5v174h118v-172q0 -92 -37 -177t-101 -144z" />
<glyph unicode="&#x201a;" horiz-adv-x="385" d="M59 -224q46 64 68 128t22 140v140h118v-137q0 -91 -37 -176.5t-102 -145.5z" />
<glyph unicode="&#x201c;" horiz-adv-x="600" d="M97 1056v169q0 91 36.5 176.5t100.5 144.5l70 -49q-46 -65 -67.5 -129t-21.5 -141v-171h-118zM339 1056v169q0 91 36.5 176.5t100.5 144.5l70 -49q-46 -65 -67.5 -129t-21.5 -141v-171h-118z" />
<glyph unicode="&#x201d;" horiz-adv-x="604" d="M67 1086q46 64 68 127.5t22 141.5v174h118v-172q0 -92 -37 -177t-101 -144zM307 1086q46 64 68 127.5t22 141.5v174h118v-172q0 -92 -37 -177t-101 -144z" />
<glyph unicode="&#x201e;" horiz-adv-x="613" d="M59 -224q46 64 68 128t22 140v140h118v-137q0 -91 -37 -176.5t-102 -145.5zM287 -224q46 64 68 128t22 140v140h118v-137q0 -91 -37 -176.5t-102 -145.5z" />
<glyph unicode="&#x2022;" horiz-adv-x="658" d="M132 703v63q0 78 49 127t132 49t133 -49.5t50 -126.5v-63q0 -78 -49.5 -126t-132.5 -48q-84 0 -133 48t-49 126z" />
<glyph unicode="&#x2026;" horiz-adv-x="1271" d="M163 0v160h134v-160h-134zM565 0v160h134v-160h-134zM950 0v160h134v-160h-134z" />
<glyph unicode="&#x202f;" horiz-adv-x="364" />
<glyph unicode="&#x2039;" horiz-adv-x="563" d="M67 535v19l289 371h104l-271 -381l271 -379h-104z" />
<glyph unicode="&#x203a;" horiz-adv-x="562" d="M81 159l270 380l-270 386h104l288 -376v-19l-288 -371h-104z" />
<glyph unicode="&#x205f;" horiz-adv-x="455" />
<glyph unicode="&#x20ac;" horiz-adv-x="1029" d="M70 523v86h164v192h-164v86h164v36q0 160 60.5 277.5t169 182t252.5 64.5q55 0 109.5 -7.5t117.5 -22.5l-9 -103q-52 16 -107.5 25t-110.5 9q-167 0 -265.5 -114t-98.5 -309v-38h535v-86h-535v-192h535v-86h-532l-1 -22q-1 -192 98 -308t266 -116q117 0 216 34l9 -101 q-109 -31 -225 -31q-143 0 -251.5 64t-170 180t-62.5 274v26h-164z" />
<glyph unicode="&#x2122;" horiz-adv-x="1221" d="M96 1359v68h376v-68h-149v-458h-72v458h-155zM549 901v526h92l167 -415h6l171 415h86v-526h-71v376l-6 2l-157 -378h-50l-161 392l-6 -1v-391h-71z" />
<glyph unicode="&#x25fc;" horiz-adv-x="1058" d="M0 0v1058h1058v-1058h-1058z" />
<glyph unicode="&#xfb03;" horiz-adv-x="1895" d="M75 965v95h177v156q0 159 80 246t224 87q67 0 138 -18l-16 -95q-24 6 -51 9t-60 3q-96 0 -147 -60.5t-51 -171.5v-156h258v-95h-258v-867l170 -13v-85h-447v85l160 13v867h-177zM768 965v95h175v137q0 168 93.5 260t259.5 92q124 0 271 -57l-20 -100q-59 25 -115.5 38.5 t-127.5 13.5q-121 0 -182 -63.5t-61 -183.5v-137h609v-962l160 -13v-85h-437v85l160 13v867h-492v-867l160 -13v-85h-437v85l159 13v867h-175z" />
<glyph unicode="&#xfb04;" horiz-adv-x="2007" d="M75 965v95h177v156q0 159 80 246t224 87q67 0 138 -18l-16 -95q-24 6 -51 9t-60 3q-96 0 -147 -60.5t-51 -171.5v-156h258v-95h-258v-867l170 -13v-85h-447v85l160 13v867h-177zM783 0v85l159 13v867h-155v95h155v108q0 182 107 281.5t296 99.5q168 0 352 -66h43v-1385 l160 -13v-85h-437v85l159 13v1303q-62 21 -127 32t-143 11q-151 0 -221.5 -70t-70.5 -206v-108h274v-95h-274v-867l160 -13v-85h-437z" />
</font>
</defs>
</svg>
