<?xml version="1.0" standalone="no"?>
<!DOCTYPE svg PUBLIC "-//W3C//DTD SVG 1.1//EN" "http://www.w3.org/Graphics/SVG/1.1/DTD/svg11.dtd" >
<svg xmlns="http://www.w3.org/2000/svg" xmlns:xlink="http://www.w3.org/1999/xlink" version="1.1">
<metadata></metadata>
<defs>
<font id="roboto_slabregular" horiz-adv-x="1502" >
<font-face units-per-em="2048" ascent="1638" descent="-410" />
<missing-glyph horiz-adv-x="498" />
<glyph unicode="&#xfb01;" horiz-adv-x="1214" d="M44 917v143h166v115q0 178 104.5 276t290.5 98q64 0 129 -15.5t149 -43.5l-32 -157q-52 20 -111 35t-121 15q-115 0 -165.5 -51t-50.5 -157v-115h604v-909l160 -28v-123h-512v123l159 28v766h-411v-766l160 -28v-123h-513v123l160 28v766h-166z" />
<glyph unicode="&#xfb02;" horiz-adv-x="1323" d="M50 0v123l160 28v766h-141v143h141v77q0 197 115 304.5t319 107.5q84 0 166.5 -15.5t191.5 -44.5h87v-1338l160 -28v-123h-513v123l160 28v1201q-57 14 -117 22.5t-120 8.5q-136 0 -196 -61t-60 -185v-77h246v-143h-246v-766l160 -28v-123h-513z" />
<glyph horiz-adv-x="0" />
<glyph horiz-adv-x="682" />
<glyph unicode="&#xd;" horiz-adv-x="498" />
<glyph unicode=" "  horiz-adv-x="498" />
<glyph unicode="&#x09;" horiz-adv-x="498" />
<glyph unicode="&#xa0;" horiz-adv-x="498" />
<glyph unicode="!" horiz-adv-x="473" d="M140 0v200h193v-200h-193zM140 468v959h193v-959h-193z" />
<glyph unicode="&#x22;" horiz-adv-x="754" d="M163 1034v495h155v-219l-60 -276h-95zM467 1034v495h155v-219l-60 -276h-95z" />
<glyph unicode="#" horiz-adv-x="1221" d="M62 402v137h257l67 341h-250v139h278l80 408h148l-80 -408h249l81 408h148l-81 -408h196v-139h-222l-67 -341h216v-137h-243l-79 -402h-148l79 402h-251l-78 -402h-148l78 402h-230zM467 539h251l67 341h-251z" />
<glyph unicode="$" horiz-adv-x="1087" d="M80 416l2 4h187q0 -150 75.5 -214.5t186.5 -64.5q127 0 197.5 60.5t70.5 166.5q0 89 -62.5 151t-206.5 111q-198 60 -299 160t-101 266q0 162 93.5 264t255.5 123v216h155v-217q164 -24 254.5 -141t90.5 -314h-192q0 133 -61.5 215.5t-170.5 82.5q-116 0 -174 -60.5 t-58 -165.5q0 -95 60 -153.5t215 -111.5q200 -65 297 -161.5t97 -262.5q0 -168 -101 -268t-278 -119v-187h-152v187q-169 18 -277 123.5t-104 309.5z" />
<glyph unicode="%" horiz-adv-x="1430" d="M75 1077v75q0 125 80.5 210t213.5 85q136 0 216 -84.5t80 -210.5v-75q0 -124 -80 -208.5t-214 -84.5t-215 84.5t-81 208.5zM219 1077q0 -73 39.5 -123t112.5 -50q72 0 111.5 50t39.5 123v75q0 73 -40 124.5t-113 51.5q-72 0 -111 -51.5t-39 -124.5v-75zM307 173l697 1116 l106 -66l-696 -1115zM766 273v77q0 82 36.5 148.5t102.5 106t155 39.5q135 0 215.5 -85t80.5 -209v-77q0 -125 -80 -209.5t-214 -84.5q-135 0 -215.5 84.5t-80.5 209.5zM909 273q0 -73 40 -123.5t113 -50.5t112 50.5t39 123.5v77q0 72 -40 123t-113 51q-72 0 -111.5 -51 t-39.5 -123v-77z" />
<glyph unicode="&#x26;" horiz-adv-x="1263" d="M73 384q0 118 66.5 206t198.5 177q4 2 10 6q-77 97 -114 173t-37 156q0 166 95.5 255.5t263.5 89.5q104 0 182 -41t122.5 -109.5t44.5 -152.5q0 -96 -51.5 -166.5t-152.5 -143.5l-107 -78l333 -401q40 63 62.5 140.5t22.5 164.5h173q0 -256 -149 -436l181 -219l-2 -5 h-224l-84 100q-161 -121 -370 -121q-141 0 -245.5 51.5t-161.5 143t-57 210.5zM266 384q0 -111 69.5 -182.5t201.5 -71.5q143 0 269 93l-354 427l-39 -29q-90 -66 -118.5 -127t-28.5 -110zM390 1104q0 -98 106 -231l135 93q56 38 76 81.5t20 96.5q0 59 -47.5 105.5 t-123.5 46.5q-80 0 -123 -55.5t-43 -136.5z" />
<glyph unicode="'" horiz-adv-x="450" d="M163 1034v495h155v-219l-60 -276h-95z" />
<glyph unicode="(" horiz-adv-x="648" d="M112 570v9q0 193 42.5 359.5t113 300t156.5 226.5t171 138l6 -1l36 -113q-89 -70 -165 -197t-121.5 -305.5t-45.5 -405.5v-13q0 -227 45.5 -405.5t121 -306.5t165.5 -204l-36 -106h-6q-85 46 -171 139t-156.5 225.5t-113 299t-42.5 360.5z" />
<glyph unicode=")" horiz-adv-x="640" d="M11 -348q88 69 163.5 197t122 309.5t46.5 409.5v13q0 225 -48 405t-124 310t-160 201l36 106h6q85 -45 170.5 -138t156.5 -226.5t113.5 -300t42.5 -359.5v-9q0 -194 -42.5 -360.5t-113.5 -299t-156.5 -225.5t-170.5 -139h-6z" />
<glyph unicode="*" horiz-adv-x="938" d="M65 1050l48 150l290 -108l-10 335h158l-10 -341l287 108l47 -153l-296 -87l189 -265l-128 -94l-177 281l-173 -273l-129 91l194 268z" />
<glyph unicode="+" horiz-adv-x="1122" d="M72 593v174h393v415h193v-415h392v-174h-392v-450h-193v450h-393z" />
<glyph unicode="," horiz-adv-x="395" d="M23 -232q46 70 69.5 143.5t23.5 156.5v149h193v-146q0 -96 -48 -201t-130 -175z" />
<glyph unicode="-" horiz-adv-x="781" d="M151 527v151h479v-151h-479z" />
<glyph unicode="." horiz-adv-x="483" d="M142 0v198h193v-198h-193z" />
<glyph unicode="/" horiz-adv-x="807" d="M0 -122l596 1549h163l-595 -1549h-164z" />
<glyph unicode="0" horiz-adv-x="1144" d="M119 544v338q0 272 121.5 418.5t330.5 146.5q211 0 333.5 -146.5t122.5 -418.5v-338q0 -274 -121.5 -419.5t-332.5 -145.5q-209 0 -331.5 146t-122.5 419zM312 505q0 -186 67.5 -280.5t193.5 -94.5q261 0 261 375v418q0 373 -263 373q-126 0 -192.5 -94t-66.5 -279v-418z " />
<glyph unicode="1" horiz-adv-x="827" d="M115 1216v121l417 90v-1276l220 -28v-123h-633v123l220 28v1069z" />
<glyph unicode="2" horiz-adv-x="1108" d="M74 1012q-2 124 52.5 222.5t159 155.5t248.5 57q135 0 232.5 -51t150.5 -140.5t53 -204.5q0 -118 -69 -234.5t-194 -252.5l-376 -408l2 -5h507l16 164h163v-315h-924v132l468 520q83 93 130 159t65.5 120t18.5 112q0 107 -64.5 180t-185.5 73q-125 0 -195 -75.5 t-70 -214.5h-186z" />
<glyph unicode="3" horiz-adv-x="1083" d="M74 370l2 6h185q0 -112 69 -179t189 -67q123 0 192.5 67t69.5 197q0 132 -61.5 195t-195.5 63h-168v151h168q129 0 182.5 64t53.5 179q0 250 -241 250q-112 0 -180.5 -66.5t-68.5 -175.5h-185l-2 5q-3 108 51.5 196.5t154 140t230.5 51.5q198 0 316 -105t118 -300 q0 -88 -53.5 -176t-160.5 -134q128 -42 181.5 -132t53.5 -202q0 -130 -58 -224t-161 -144.5t-236 -50.5q-130 0 -232 47.5t-159 135.5t-54 208z" />
<glyph unicode="4" horiz-adv-x="1163" d="M62 329v109l629 989h204v-947h197v-151h-197v-178l159 -28v-123h-511v123l160 28v178h-641zM268 480h435v672l-6 1l-20 -51z" />
<glyph unicode="5" horiz-adv-x="1059" d="M95 369l2 6h174q0 -115 67.5 -180t173.5 -65q122 0 189.5 86.5t67.5 236.5q0 138 -68 225.5t-188 87.5q-114 0 -165.5 -34t-75.5 -105l-160 17l82 783h754v-282h-145l-19 110h-426l-46 -400q44 33 99 55t128 24q197 2 310 -128.5t113 -350.5q0 -215 -115 -345.5 t-335 -130.5q-121 0 -216.5 44.5t-149.5 131t-51 214.5z" />
<glyph unicode="6" horiz-adv-x="1121" d="M119 562v192q0 226 68 380.5t188 233.5t276 79q72 0 144 -16.5t119 -41.5l-37 -144q-46 22 -101 36.5t-125 14.5q-150 0 -239 -113.5t-94 -341.5l3 -4q55 51 134.5 81t171.5 30q128 0 222 -60.5t145.5 -166.5t51.5 -241q0 -148 -55 -260.5t-155 -176.5t-234 -64 q-139 0 -248.5 68.5t-172 198.5t-62.5 316zM311 543q0 -199 82.5 -306t208.5 -107q118 0 184.5 100.5t66.5 249.5q0 141 -71.5 232.5t-196.5 91.5q-99 0 -168.5 -40t-105.5 -106v-115z" />
<glyph unicode="7" horiz-adv-x="1105" d="M74 1111v316h965v-152q-130 -154 -214 -285.5t-135.5 -259.5t-81 -267.5t-49.5 -308.5l-16 -154h-193l16 154q27 225 88.5 416t159.5 363.5t236 341.5h-596l-15 -164h-165z" />
<glyph unicode="8" horiz-adv-x="1108" d="M90 386q0 121 72.5 213t196.5 135q-107 41 -168 125t-61 195q0 189 116.5 291t306.5 102q188 0 307 -102t119 -291q0 -111 -62.5 -195t-169.5 -125q123 -43 197 -135t74 -213q0 -198 -129 -302.5t-334 -104.5q-210 0 -337.5 104.5t-127.5 302.5zM283 390 q0 -121 74 -190.5t198 -69.5q120 0 195.5 70t75.5 190q0 118 -77.5 193.5t-195.5 75.5q-120 0 -195 -75t-75 -194zM323 1051q0 -109 64 -175t168 -66q102 0 166.5 66t64.5 175q0 105 -66 175t-167 70q-103 0 -166.5 -67.5t-63.5 -177.5z" />
<glyph unicode="9" horiz-adv-x="1130" d="M82 939q0 149 59.5 263.5t160 179.5t222.5 65q224 0 352.5 -139.5t128.5 -412.5v-258q0 -334 -137.5 -496t-366.5 -162q-75 0 -153 14.5t-139 43.5l29 146q60 -28 122 -40.5t141 -12.5q139 0 220 106.5t84 342.5l-4 5q-40 -66 -110.5 -101t-158.5 -35q-209 0 -329.5 129 t-120.5 362zM275 939q0 -154 69 -246.5t188 -92.5q107 0 178 46t102 117v151q0 382 -282 382q-71 0 -129 -46t-92 -126t-34 -185z" />
<glyph unicode=":" horiz-adv-x="410" d="M142 0v198h193v-198h-193zM142 862v198h193v-198h-193z" />
<glyph unicode=";" horiz-adv-x="415" d="M52 -232q46 70 69.5 143.5t23.5 156.5v149h193v-146q0 -96 -48 -201t-130 -175zM143 862v198h193v-198h-193z" />
<glyph unicode="&#x3c;" horiz-adv-x="996" d="M74 476v146l800 371v-197l-548 -229l-83 -17v-6l83 -19l548 -223v-197z" />
<glyph unicode="=" horiz-adv-x="1104" d="M144 399v161h817v-161h-817zM144 807v160h817v-160h-817z" />
<glyph unicode="&#x3e;" horiz-adv-x="1038" d="M122 85v192l587 234l82 16v6l-82 20l-587 229v191l838 -370v-146z" />
<glyph unicode="?" horiz-adv-x="933" d="M65 1100q-2 104 49.5 182.5t142.5 121.5t209 43q193 0 299.5 -98.5t106.5 -274.5q0 -84 -28 -153t-83.5 -138.5t-140.5 -154.5q-34 -35 -49.5 -64t-20 -65.5t-4.5 -96.5h-193q0 71 5 117t19 79.5t43.5 67t79.5 78.5q104 94 141.5 170t37.5 155q0 104 -55.5 160t-157.5 56 q-90 0 -152 -48.5t-62 -142.5h-184zM351 0v204h201v-204h-201z" />
<glyph unicode="@" horiz-adv-x="1784" d="M84 468q13 277 119 487.5t289 328.5t426 118q248 0 420 -110.5t257.5 -315t74.5 -484.5q-6 -140 -56 -256t-146.5 -186.5t-240.5 -70.5q-72 0 -124 41t-75 114q-97 -155 -283 -155q-123 0 -190.5 118.5t-49.5 310.5q14 169 70.5 295t143.5 195.5t193 69.5 q103 0 165.5 -25.5t137.5 -78.5l2 -4l-50 -573q-9 -108 21 -148.5t80 -40.5q121 0 193 111t80 283q16 374 -141 583.5t-486 209.5q-202 0 -351.5 -103t-236 -287.5t-96.5 -426.5q-11 -246 59.5 -424t213 -275t347.5 -97q86 0 174 21t149 55l38 -105q-66 -41 -167.5 -64 t-197.5 -23q-248 0 -423 111t-263 315t-76 486zM677 408q-11 -138 21.5 -211.5t105.5 -73.5q61 0 113.5 24.5t95.5 86.5q-2 23 2 53l46 527q-25 12 -53 19t-58 7q-123 0 -187.5 -107t-85.5 -325z" />
<glyph unicode="A" d="M69 0v123l105 15l499 1289h166l490 -1289l105 -15v-123h-410v123l108 19l-94 263h-572l-97 -263l108 -19v-123h-408zM526 566h453l-210 581l-11 32h-6l-12 -32z" />
<glyph unicode="B" horiz-adv-x="1295" d="M79 0v123l160 28v1124l-160 27v125h616q223 0 349 -96.5t126 -289.5q0 -95 -60 -170t-159 -111q128 -28 202.5 -127t74.5 -230q0 -196 -127.5 -299.5t-344.5 -103.5h-677zM432 151h324q132 0 205 65t73 185q0 125 -61.5 196.5t-187.5 71.5h-353v-518zM432 820h313 q104 0 168 60.5t64 164.5q0 115 -72.5 172.5t-209.5 57.5h-263v-455z" />
<glyph unicode="C" horiz-adv-x="1264" d="M78 703v20q0 210 75.5 373t217 257t337.5 94q138 0 252.5 -43t190.5 -109v-308h-154l-21 225q-99 76 -269 76q-141 0 -238 -72t-147 -198.5t-50 -292.5v-22q0 -270 119 -418.5t340 -148.5q69 0 134.5 17t108.5 43l22 199h151v-310q-81 -50 -192.5 -78t-230.5 -28 q-214 0 -358 94.5t-216 258t-72 371.5z" />
<glyph unicode="D" horiz-adv-x="1328" d="M79 0v123l160 28v1124l-160 27v125h559q189 0 329.5 -90t219 -248t78.5 -361v-30q0 -198 -75.5 -356.5t-214 -250t-327.5 -91.5h-569zM432 151h206q135 0 232 74t149.5 198t52.5 275v32q0 156 -52.5 279t-149.5 194.5t-232 71.5h-206v-1124z" />
<glyph unicode="E" horiz-adv-x="1279" d="M79 0v123l160 28v1124l-160 27v125h1057v-343h-155l-22 194h-527v-465h526v-151h-526v-517h559l21 197h154v-342h-1087z" />
<glyph unicode="F" horiz-adv-x="1230" d="M79 0v123l160 28v1124l-160 27v125h1073v-343h-154l-22 193h-544v-494h523v-152h-523v-480l160 -28v-123h-513z" />
<glyph unicode="G" horiz-adv-x="1319" d="M78 702v23q0 216 79 378t216.5 253t311.5 91q167 0 283 -38t198 -103v-288h-159l-20 207q-96 64 -282 64q-123 0 -221 -70.5t-155 -196.5t-57 -295v-25q0 -171 52.5 -298t153.5 -197t245 -70q98 0 165.5 17.5t119.5 44.5v335l-273 10v142h466v-553q-61 -58 -176.5 -106 t-301.5 -48q-198 0 -343 92t-223.5 254.5t-78.5 376.5z" />
<glyph unicode="H" horiz-adv-x="1546" d="M79 0v123l160 28v1124l-160 27v125h513v-125l-160 -27v-493h682v493l-159 27v125h512v-125l-160 -27v-1124l160 -28v-123h-512v123l159 28v479h-682v-479l160 -28v-123h-513z" />
<glyph unicode="I" horiz-adv-x="671" d="M79 0v123l160 28v1124l-160 27v125h513v-125l-160 -27v-1124l160 -28v-123h-513z" />
<glyph unicode="J" horiz-adv-x="1145" d="M59 407l2 6h185q4 -144 66 -212t178 -68q122 0 178.5 76t56.5 196v870l-190 25v127h543v-125l-160 -27v-870q0 -192 -108 -309t-317 -117q-119 0 -215.5 47.5t-154.5 142.5t-64 238z" />
<glyph unicode="K" horiz-adv-x="1470" d="M79 0v123l160 28v1124l-160 27v125h513v-125l-160 -27v-613l561 622l4 5l-107 13v125h458v-125l-135 -24l-436 -474l490 -656l131 -25v-123h-476v123l118 14l-1 1l-383 532l-224 -243v-276l160 -28v-123h-513z" />
<glyph unicode="L" horiz-adv-x="1185" d="M79 0v123l160 28v1124l-160 27v125h513v-125l-160 -27v-1127h505l22 225h148v-373h-1028z" />
<glyph unicode="M" horiz-adv-x="1942" d="M92 0v123l160 28v1124l-160 27v125h418l459 -1083h6l445 1083h430v-125l-160 -27v-1124l160 -28v-123h-512v123l168 28v1012l-5 1l-463 -1113h-129l-479 1111l-5 -1l7 -597v-413l173 -28v-123h-513z" />
<glyph unicode="N" horiz-adv-x="1560" d="M81 0v123l160 28v1124l-160 27v125h355l700 -1112l6 2v958l-176 27v125h513v-125l-160 -27v-1275h-176l-719 1118l-6 -2v-965l176 -28v-123h-513z" />
<glyph unicode="O" horiz-adv-x="1323" d="M69 703v20q0 213 71 376t204 255.5t318 92.5q195 0 326.5 -92.5t199 -255.5t67.5 -376v-20q0 -213 -67.5 -376t-199 -255.5t-326.5 -92.5q-185 0 -317.5 92.5t-204 255.5t-71.5 376zM263 703q0 -167 46 -294t135 -198t218 -71q142 0 229.5 70.5t128.5 197.5t41 295v22 q0 167 -41.5 293t-129.5 197t-228 71q-129 0 -218 -71.5t-135 -197.5t-46 -292v-22z" />
<glyph unicode="P" horiz-adv-x="1271" d="M79 0v123l160 28v1124l-160 27v125h656q228 0 355 -117.5t127 -309.5q0 -194 -127 -311t-355 -117h-303v-421l160 -28v-123h-513zM432 723h303q145 0 217 78t72 197q0 118 -72 197.5t-217 79.5h-303v-552z" />
<glyph unicode="Q" horiz-adv-x="1348" d="M69 703v20q0 212 71 375.5t203.5 256t317.5 92.5q193 0 325 -92.5t199.5 -256t67.5 -375.5v-20q0 -193 -46 -348.5t-172 -251.5l286 -199l-109 -144l-345 253q-49 -16 -101 -25t-105 -9q-184 0 -316.5 93t-204 256t-71.5 375zM262 703q0 -167 45.5 -294t134.5 -198 t219 -71q138 0 226 70.5t130.5 197.5t42.5 295v22q0 167 -41.5 293t-129.5 197t-228 71q-128 0 -217 -71.5t-135.5 -197.5t-46.5 -292v-22z" />
<glyph unicode="R" horiz-adv-x="1357" d="M79 0v123l160 28v1124l-160 27v124h636q234 0 358.5 -103.5t124.5 -293.5q0 -147 -73.5 -238t-205.5 -126l241 -521l99 -18v-126h-238l-286 643l-303 -6v-486l160 -28v-123h-513zM432 789h264q162 0 235 61.5t73 180.5q0 113 -70.5 178.5t-218.5 65.5h-283v-486z" />
<glyph unicode="S" horiz-adv-x="1181" d="M113 135v305h150l32 -224q64 -40 138.5 -61.5t160.5 -21.5q146 0 226.5 65.5t80.5 170.5q0 98 -72.5 163t-259.5 107q-221 51 -337.5 155.5t-116.5 262.5q0 112 59 200.5t165 139t247 50.5q150 0 265 -45.5t190 -109.5v-286h-150l-33 204q-44 36 -109.5 59.5t-162.5 23.5 q-124 0 -201 -64t-77 -169q0 -92 73.5 -150t254.5 -103q225 -56 341.5 -165.5t116.5 -270.5q0 -114 -62 -203t-174 -139t-264 -50q-130 0 -251 38.5t-230 117.5z" />
<glyph unicode="T" horiz-adv-x="1377" d="M94 1083v344h1186v-344h-143l-30 198h-323v-1130l160 -28v-123h-513v123l160 28v1130h-323l-29 -198h-145z" />
<glyph unicode="U" horiz-adv-x="1491" d="M69 1302v125h512v-125l-160 -27v-815q0 -160 89.5 -243t232.5 -83q144 0 235.5 81.5t91.5 244.5v815l-160 27v125h513v-125l-160 -27v-815q0 -233 -143.5 -357t-379.5 -124q-147 0 -262.5 58t-182.5 165.5t-67 257.5v815z" />
<glyph unicode="V" horiz-adv-x="1477" d="M64 1302v125h450v-125l-130 -20l320 -908l33 -112h6l35 112l331 909l-145 19v125h450v-125l-115 -15l-478 -1287h-165l-479 1287z" />
<glyph unicode="W" horiz-adv-x="2086" d="M71 1302v125h462v-125l-148 -22l186 -785l43 -183l6 -1l57 183l287 933h170l290 -933l56 -194h6l51 194l184 786l-160 22v125h455v-125l-113 -14l-319 -1288h-184l-309 988l-39 144h-6l-39 -144l-310 -988h-173l-333 1288z" />
<glyph unicode="X" horiz-adv-x="1498" d="M78 0v123l124 22l442 579l-410 557l-124 21v125h462v-125l-134 -12l316 -440l300 440l-138 12v125h466v-125l-131 -21l-387 -557l430 -579l126 -22v-123h-468v123l138 13l-338 464l-337 -464l130 -13v-123h-467z" />
<glyph unicode="Y" horiz-adv-x="1431" d="M64 1302v125h492v-125l-163 -18l303 -561l20 -38l1 2l20 36l317 561l-168 18v125h482v-125l-124 -18l-432 -750v-383l160 -28v-123h-511v123l159 28v368l-439 765z" />
<glyph unicode="Z" horiz-adv-x="1173" d="M88 0v146l742 1130h-555l-17 -184h-155v335h950v-142l-746 -1135h606l18 203h154v-353h-997z" />
<glyph unicode="[" horiz-adv-x="561" d="M154 -306v1937h376v-152h-183v-1633h183v-152h-376z" />
<glyph unicode="\" horiz-adv-x="824" d="M35 1427h183l595 -1549h-182z" />
<glyph unicode="]" horiz-adv-x="540" d="M23 -154h184v1633h-184v152h377v-1937h-377v152z" />
<glyph unicode="^" horiz-adv-x="846" d="M70 714l293 713h131l292 -713h-178l-163 411l-16 69h-6l-15 -69l-160 -411h-178z" />
<glyph unicode="_" horiz-adv-x="1144" d="M117 0h903v-151h-903v151z" />
<glyph unicode="`" horiz-adv-x="486" d="M39 1523l2 6h226l180 -267h-144z" />
<glyph unicode="a" horiz-adv-x="1109" d="M77 288q0 151 123.5 242.5t343.5 91.5h189v104q0 96 -58.5 149t-163.5 53q-67 0 -116 -16t-89 -45l-21 -148h-149v243q144 118 378 118q193 0 302.5 -92t109.5 -264v-510q0 -21 0.5 -40.5t2.5 -39.5l103 -11v-123h-277q-17 80 -21 146q-56 -72 -139.5 -119.5 t-178.5 -47.5q-166 0 -252.5 81t-86.5 228zM270 284q0 -143 174 -143q96 0 175.5 46t113.5 111v192h-196q-133 0 -200 -63.5t-67 -142.5z" />
<glyph unicode="b" horiz-adv-x="1122" d="M-16 1404v125h353v-594q50 70 124 107.5t173 37.5q131 0 224 -71t142.5 -199.5t49.5 -298.5v-21q0 -153 -49.5 -267.5t-142.5 -179t-222 -64.5q-205 0 -308 157l-17 -136h-167v1377zM337 296q36 -74 98.5 -117t151.5 -43q136 0 202.5 97t66.5 257v21q0 183 -67 297.5 t-204 114.5q-89 0 -150.5 -43t-97.5 -116v-468z" />
<glyph unicode="c" horiz-adv-x="1045" d="M76 510v41q0 151 57 270.5t164 189t255 69.5q128 0 224.5 -42t162.5 -116l5 -255h-151l-33 186q-34 34 -84 54.5t-117 20.5q-87 0 -152 -51t-101 -136t-36 -190v-41q0 -175 75 -277.5t206 -102.5q98 0 162.5 54t79.5 148h173l2 -6q-5 -91 -54 -170.5t-139.5 -128 t-222.5 -48.5q-144 0 -251 67.5t-166 187t-59 276.5z" />
<glyph unicode="d" horiz-adv-x="1193" d="M76 490v21q0 170 49 298.5t142.5 199.5t223.5 71q94 0 166 -35t123 -100v432l-160 27v125h353v-1378l160 -28v-123h-327l-16 126q-106 -147 -301 -147q-129 0 -222 64.5t-142 179t-49 267.5zM270 490q0 -160 65.5 -257t202.5 -97q86 0 145 39.5t97 110.5v492 q-37 67 -97 106t-143 39q-138 0 -204 -114.5t-66 -297.5v-21z" />
<glyph unicode="e" horiz-adv-x="1037" d="M73 510v43q0 151 62 270t165.5 188t225.5 69q214 0 324 -129.5t110 -344.5v-121h-688l-2 -5q2 -153 76.5 -251.5t209.5 -98.5q98 0 172 28t128 77l75 -125q-57 -55 -150.5 -93t-224.5 -38q-147 0 -256 67.5t-168 187t-59 276.5zM276 641l2 -5h489v26q0 113 -60.5 189.5 t-180.5 76.5q-97 0 -165.5 -82t-84.5 -205z" />
<glyph unicode="f" horiz-adv-x="710" d="M63 917v143h165v135q0 169 89 261.5t247 92.5q34 0 72.5 -5t79.5 -15l-23 -147q-18 4 -48 7t-56 3q-168 0 -168 -197v-135h232v-143h-232v-766l183 -28v-123h-535v123l159 28v766h-165z" />
<glyph unicode="g" horiz-adv-x="1133" d="M76 490v21q0 170 50.5 298.5t145 199.5t225.5 71q197 0 302 -153l17 133h294v-123l-131 -29v-894q0 -206 -114.5 -324t-326.5 -118q-76 0 -165.5 21t-156.5 57l50 150q53 -28 126.5 -47t143.5 -19q129 0 189.5 72.5t60.5 207.5v101q-106 -136 -291 -136 q-129 0 -223.5 64.5t-145 179.5t-50.5 267zM270 490q0 -160 67.5 -257t205.5 -97q87 0 146 40t97 112v488q-37 68 -97 107.5t-144 39.5q-138 0 -206.5 -115.5t-68.5 -296.5v-21z" />
<glyph unicode="h" horiz-adv-x="1288" d="M48 0v123l160 28v1226l-160 27v125h353v-610q55 77 134 119t176 42q171 0 265 -102t94 -314v-513l160 -28v-123h-513v123l160 28v515q0 257 -224 257q-80 0 -145 -37.5t-107 -102.5v-632l160 -28v-123h-513z" />
<glyph unicode="i" horiz-adv-x="638" d="M66 0v123l159 28v757l-159 28v124h352v-909l160 -28v-123h-512zM215 1322v207h203v-207h-203z" />
<glyph unicode="j" horiz-adv-x="514" d="M-55 -411l13 147q14 -5 46.5 -8.5t50.5 -3.5q58 0 91.5 50.5t33.5 138.5v995l-159 28v124h352v-1147q0 -164 -84 -252.5t-234 -88.5q-31 0 -56.5 4.5t-53.5 12.5zM170 1322v207h203v-207h-203z" />
<glyph unicode="k" horiz-adv-x="1261" d="M63 0v123l159 28v1226l-159 27v125h353v-985l375 373l5 6l-114 13v124h457v-124l-136 -26l-298 -299l365 -464l153 -24v-123h-479v123l108 13l-3 4l-269 346l-164 -166v-169l159 -28v-123h-512z" />
<glyph unicode="l" horiz-adv-x="639" d="M63 0v123l159 28v1226l-159 27v125h353v-1378l159 -28v-123h-512z" />
<glyph unicode="m" horiz-adv-x="1937" d="M73 0v123l159 28v757l-159 28v124h333l12 -138q51 76 131.5 117t186.5 41t182 -49t114 -147q50 90 132.5 143t191.5 53q163 0 257 -111t94 -335v-483l160 -28v-123h-514v123l160 28v485q0 157 -54 222t-160 65q-100 0 -161.5 -71t-71.5 -179v-522l160 -28v-123h-513v123 l160 28v485q0 149 -55.5 218t-159.5 69q-89 0 -145.5 -36t-87.5 -102v-634l160 -28v-123h-512z" />
<glyph unicode="n" horiz-adv-x="1316" d="M73 0v123l159 28v757l-159 28v124h332l13 -157q53 84 133 130.5t182 46.5q172 0 266 -100.5t94 -310.5v-518l159 -28v-123h-512v123l160 28v514q0 141 -55.5 199.5t-169.5 58.5q-83 0 -147 -40t-103 -110v-622l160 -28v-123h-512z" />
<glyph unicode="o" horiz-adv-x="1101" d="M76 518v22q0 157 58 279t164.5 191.5t251.5 69.5q147 0 253 -69.5t164 -191t58 -279.5v-22q0 -157 -58 -279t-163.5 -191t-251.5 -69q-147 0 -253.5 69.5t-164.5 191.5t-58 278zM270 518q0 -168 71 -278t211 -110q137 0 208.5 110t71.5 278v22q0 112 -32 199.5t-94.5 138 t-155.5 50.5q-92 0 -155 -50.5t-94 -138t-31 -199.5v-22z" />
<glyph unicode="p" horiz-adv-x="1173" d="M33 936v124h326l17 -129q109 149 305 149q131 0 224.5 -71t142.5 -199t49 -299v-21q0 -153 -49.5 -267.5t-142 -179t-221.5 -64.5q-193 0 -298 131v-366l169 -27v-125h-512v125l150 27v1164zM386 268q36 -66 94.5 -102t143.5 -36q137 0 208 100t71 260v21 q0 181 -71 296.5t-210 115.5q-82 0 -141 -37t-95 -102v-516z" />
<glyph unicode="q" horiz-adv-x="1116" d="M76 490v21q0 170 49 298.5t142.5 199.5t223.5 71q186 0 289 -136l16 116h166v-1316l150 -27v-125h-502v125l159 27v356q-103 -121 -280 -121q-129 0 -222 64.5t-142 179t-49 267.5zM270 490q0 -161 65.5 -260.5t202.5 -99.5q80 0 136.5 35.5t94.5 100.5v532 q-38 60 -95 95t-134 35q-138 0 -204 -117t-66 -300v-21z" />
<glyph unicode="r" horiz-adv-x="836" d="M71 0v123l159 28v757l-159 28v124h332l16 -135l2 -19q45 82 111.5 128t151.5 46q30 0 62 -5.5t46 -10.5l-26 -179l-134 8q-8 1 -17 1q-65 0 -111 -36q-52 -40 -81 -106v-601l160 -28v-123h-512z" />
<glyph unicode="s" horiz-adv-x="1001" d="M102 319h146l36 -151q104 -44 218 -44q117 0 168 45.5t51 111.5q0 63 -51.5 106.5t-186.5 74.5q-192 44 -282.5 118t-90.5 197q0 86 50 154.5t139 108.5t208 40q120 0 206 -27.5t149 -73.5l10 -242h-145l-31 141q-34 26 -81.5 39.5t-107.5 13.5q-91 0 -147 -42t-56 -106 q0 -37 16 -64.5t62 -49.5t135 -44q222 -52 309.5 -132t87.5 -198q0 -134 -99.5 -225t-312.5 -91q-107 0 -200 22t-198 67z" />
<glyph unicode="t" horiz-adv-x="715" d="M24 917v143h167v256h193v-256h230v-143h-230v-644q0 -76 30.5 -112.5t81.5 -36.5q34 0 76 6.5t66 11.5l26 -126q-42 -13 -103 -23t-114 -10q-118 0 -187 69.5t-69 220.5v644h-167z" />
<glyph unicode="u" horiz-adv-x="1220" d="M51 936v124h315v-627q0 -169 50 -233t155 -64q103 0 170 42t102 118v612l-142 28v124h335v-909l121 -28v-123h-295l-12 157q-50 -85 -129 -131.5t-182 -46.5q-172 0 -269.5 111t-97.5 345v473z" />
<glyph unicode="v" horiz-adv-x="1181" d="M25 936v124h445v-124l-138 -20l235 -603l28 -86h6l31 86l219 603l-142 20v124h443v-124l-111 -15l-359 -921h-169l-378 921z" />
<glyph unicode="w" horiz-adv-x="1786" d="M51 936v124h438v-124l-130 -22l146 -528l33 -125h6l43 125l230 674h163l220 -672l47 -149h5l46 149l148 527l-133 21v124h428v-124l-117 -17l-275 -919h-183l-214 637l-51 171l-6 -1l-50 -170l-231 -637h-165l-279 922z" />
<glyph unicode="x" horiz-adv-x="1178" d="M41 0v123l118 23l316 390l-309 377l-105 23v124h415v-124l-106 -12l218 -270l212 271l-114 11v124h409v-124l-108 -23l-287 -374l330 -393l110 -23v-123h-450v123l127 11l-232 283l-225 -283l114 -11v-123h-433z" />
<glyph unicode="y" horiz-adv-x="1168" d="M24 936v124h444v-124l-128 -20l207 -530l50 -138h6l245 668l-136 20v124h437v-124l-110 -16l-418 -1083q-44 -115 -117.5 -190t-200.5 -75q-23 0 -59 5.5t-56 9.5l20 152q16 -2 45.5 -3.5t40.5 -1.5q62 0 100.5 47t71.5 129l47 112l-376 898z" />
<glyph unicode="z" horiz-adv-x="1011" d="M86 0v135l577 776h-394l-25 -178h-145v327h804v-131l-584 -782h452l26 179h144v-326h-855z" />
<glyph unicode="{" horiz-adv-x="686" d="M62 532v144q104 0 154 60.5t50 170.5v202q0 168 80.5 285t271.5 171l40 -115q-108 -34 -153.5 -122.5t-45.5 -218.5v-202q0 -102 -41.5 -180.5t-124.5 -122.5q83 -45 124.5 -124t41.5 -180v-201q0 -129 45.5 -217t153.5 -123l-40 -116q-191 54 -271.5 171.5t-80.5 284.5 v201q0 110 -50 171t-154 61z" />
<glyph unicode="|" horiz-adv-x="441" d="M147 -265v1692h154v-1692h-154z" />
<glyph unicode="}" horiz-adv-x="686" d="M26 -241q106 35 152 123t46 217v201q0 105 44.5 183.5t136.5 120.5q-92 40 -136.5 118.5t-44.5 184.5v202q0 130 -46 218.5t-152 122.5l40 115q190 -54 270.5 -171t80.5 -285v-202q0 -110 50 -170.5t155 -60.5v-144q-105 0 -155 -61t-50 -171v-201q0 -167 -80.5 -284.5 t-270.5 -171.5z" />
<glyph unicode="~" horiz-adv-x="1358" d="M119 465q0 89 38 162t105 116.5t154 43.5q86 0 159.5 -34t156.5 -102q58 -50 104.5 -72.5t96.5 -22.5q65 0 112.5 55.5t47.5 131.5l139 -18q0 -89 -39.5 -165t-107 -121.5t-152.5 -45.5q-87 0 -159 32.5t-156 104.5q-58 47 -106 70.5t-96 23.5q-66 0 -112.5 -52 t-46.5 -125z" />
<glyph unicode="&#xa1;" horiz-adv-x="473" d="M140 -367h193v959h-193v-959zM140 860h193v200h-193v-200z" />
<glyph unicode="&#xa2;" horiz-adv-x="1095" d="M102 510v41q0 193 90.5 335t265.5 181v225h193v-216q206 -23 323 -154l9 -235h-154l-42 167q-34 33 -88 53.5t-122 20.5q-101 0 -163 -50t-90.5 -135.5t-28.5 -191.5v-41q0 -109 28 -195t90 -135.5t164 -49.5q64 0 119.5 27.5t89 73.5t33.5 104h175l2 -6 q3 -80 -43.5 -152.5t-125.5 -124t-176 -67.5v-225h-193v232q-175 37 -265.5 179.5t-90.5 338.5z" />
<glyph unicode="&#xa3;" horiz-adv-x="1155" d="M67 603v152h153l-9 264q0 200 109.5 314t293.5 114q196 0 304 -102t104 -271l-2 -6h-185q0 116 -62.5 172t-158.5 56q-97 0 -153.5 -73t-56.5 -204l10 -264h410v-152h-406l6 -146q0 -89 -15 -168.5t-43 -137.5h540l15 164h164v-315h-956v151h10q31 9 52 56.5t31 114.5 t10 135l-6 146h-159z" />
<glyph unicode="&#xa4;" horiz-adv-x="1431" d="M92 110l135 137q-101 154 -101 349q0 204 109 360l-143 146l135 137l141 -143q72 54 159.5 83.5t182.5 29.5t182 -30t161 -85l143 146l137 -138l-147 -149q51 -77 79 -167.5t28 -189.5q0 -96 -26 -184t-73 -162l139 -140l-137 -136l-131 132q-156 -126 -355 -126 q-200 0 -355 125l-128 -130zM305 596q0 -123 54.5 -224t146 -160.5t204.5 -59.5q110 0 202 59.5t146 160.5t54 224q0 121 -54 221t-146 160t-202 60q-113 0 -204.5 -60t-146 -160t-54.5 -221z" />
<glyph unicode="&#xa5;" horiz-adv-x="1358" d="M58 1302v125h433v-125l-85 -14l256 -471l21 -40l4 7l18 33l255 471l-84 14v125h432v-125l-136 -19l-326 -560h306v-120h-376v-164h376v-120h-376v-168l160 -28v-123h-513v123l160 28v168h-367v120h367v164h-367v120h304l-326 559z" />
<glyph unicode="&#xa6;" horiz-adv-x="486" d="M147 -265v777h193v-777h-193zM147 684v743h193v-743h-193z" />
<glyph unicode="&#xa7;" horiz-adv-x="1208" d="M88 540q0 184 177 268q-67 49 -100 117t-33 163q0 162 131 260.5t351 98.5q228 0 356 -109t124 -307l-3 -6h-185q0 116 -77.5 193.5t-214.5 77.5q-143 0 -216 -58.5t-73 -147.5q0 -65 27 -106.5t100 -74t211 -70.5q160 -45 261 -98t149 -128.5t48 -190.5 q0 -92 -47 -160.5t-133 -107.5q68 -50 102.5 -116.5t34.5 -162.5q0 -169 -130.5 -264.5t-350.5 -95.5q-145 0 -261 44t-183 136t-64 236l2 6l184 2q0 -93 44 -153t117 -89.5t161 -29.5q133 0 210.5 58t77.5 148q0 59 -30 99.5t-104 74.5t-207 75q-156 42 -257 95t-150 130 t-49 193zM281 542q0 -66 27.5 -108.5t100.5 -76.5t211 -72q51 -15 88.5 -26.5t70.5 -23.5q72 20 111 69t39 115q0 60 -30.5 102t-105 77.5t-206.5 76.5q-91 23 -164 51q-71 -18 -106.5 -67t-35.5 -117z" />
<glyph unicode="&#xa8;" horiz-adv-x="695" d="M39 1322v207h203v-207h-203zM454 1322v207h203v-207h-203z" />
<glyph unicode="&#xa9;" horiz-adv-x="1563" d="M90 714q0 155 54 288t149 233t221.5 155.5t271.5 55.5q144 0 270.5 -55.5t221.5 -155.5t149 -233t54 -288q0 -154 -54 -288t-149.5 -234t-221.5 -156.5t-270 -56.5q-145 0 -271.5 56.5t-221.5 156.5t-149 234t-54 288zM208 714q0 -129 44.5 -241t124 -196.5t184 -131.5 t225.5 -47q120 0 224 47t183.5 131.5t124 196.5t44.5 241q0 130 -44.5 241t-124 194.5t-183.5 130.5t-224 47q-121 0 -225.5 -46.5t-184 -130.5t-124 -195t-44.5 -241zM430 656v116q0 170 92.5 275t249.5 105q154 0 240.5 -77.5t82.5 -223.5l-2 -6h-143q0 93 -45 135.5 t-133 42.5q-93 0 -143 -69t-50 -181v-117q0 -115 50 -183.5t143 -68.5q88 0 132.5 42t44.5 138h143l2 -6q4 -148 -82 -225t-240 -77q-157 0 -249.5 104t-92.5 276z" />
<glyph unicode="&#xaa;" horiz-adv-x="876" d="M104 902q0 107 82.5 166t240.5 59h136v51q0 128 -115 128q-137 0 -137 -101l-160 13l-1 6q-6 96 77.5 159.5t220.5 63.5q130 0 207 -69.5t77 -200.5v-308q0 -101 26 -177h-172q-8 20 -13 44t-8 49q-32 -46 -87 -76.5t-130 -30.5q-117 0 -180.5 60t-63.5 164zM272 906 q0 -92 117 -92q50 0 103 29t71 64v108h-135q-73 0 -114.5 -32t-41.5 -77z" />
<glyph unicode="&#xab;" horiz-adv-x="916" d="M57 496v19l289 381h145l-250 -391l250 -390h-145zM385 496v19l289 381h145l-250 -391l250 -390h-145z" />
<glyph unicode="&#xac;" horiz-adv-x="1099" d="M119 624v162h817v-418h-193v256h-624z" />
<glyph unicode="&#xad;" horiz-adv-x="781" d="M151 527v151h479v-151h-479z" />
<glyph unicode="&#xae;" horiz-adv-x="1563" d="M90 714q0 155 54 288t149 233t221.5 155.5t271.5 55.5q144 0 270.5 -55.5t221.5 -155.5t149 -233t54 -288q0 -154 -54 -288t-149.5 -234t-221.5 -156.5t-270 -56.5q-145 0 -271.5 56.5t-221.5 156.5t-149 234t-54 288zM208 714q0 -129 44.5 -241t124 -196.5t184 -131.5 t225.5 -47q120 0 224 47t183.5 131.5t124 196.5t44.5 241q0 130 -44.5 241t-124 194.5t-183.5 130.5t-224 47q-121 0 -225.5 -46.5t-184 -130.5t-124 -195t-44.5 -241zM498 310v833h274q149 0 233.5 -64.5t84.5 -187.5q0 -121 -126 -183q65 -26 94 -78t29 -125v-55 q0 -40 3.5 -72t12.5 -53v-15h-149q-9 20 -11 60t-2 81v53q0 70 -33 103.5t-108 33.5h-156v-331h-146zM644 768h149q64 1 108 32t44 86q0 71 -38.5 100t-134.5 29h-128v-247z" />
<glyph unicode="&#xaf;" horiz-adv-x="784" d="M39 1323v143h707v-143h-707z" />
<glyph unicode="&#xb0;" horiz-adv-x="741" d="M122 1192q0 69 34 127t91 93t125 35t124.5 -35t90 -93t33.5 -127q0 -71 -33.5 -128t-90 -90.5t-124.5 -33.5q-69 0 -126 33.5t-90.5 90.5t-33.5 128zM249 1192q0 -54 35.5 -89.5t87.5 -35.5q51 0 86 35.5t35 89.5t-35 90.5t-86 36.5q-52 0 -87.5 -36.5t-35.5 -90.5z" />
<glyph unicode="&#xb1;" horiz-adv-x="1035" d="M74 688v151h372v403h174v-403h351v-151h-351v-405h-174v405h-372zM122 5v152h818v-152h-818z" />
<glyph unicode="&#xb2;" horiz-adv-x="810" d="M117 1215q-6 97 76 165.5t221 68.5q132 0 206.5 -62.5t74.5 -176.5q0 -52 -18.5 -92t-63 -85t-119.5 -114l-150 -132l2 -6h354v-127h-580v127l296 257q67 58 88 94.5t21 78.5q0 49 -27.5 79.5t-83.5 30.5q-66 0 -102 -31.5t-36 -80.5h-157z" />
<glyph unicode="&#xb3;" horiz-adv-x="828" d="M109 864l1 6h160q0 -45 36.5 -73t99.5 -28q70 0 111 29t41 76q0 62 -35.5 89.5t-106.5 27.5h-131v123h131q128 0 128 107q0 43 -35.5 71t-102.5 28q-55 0 -89.5 -23.5t-34.5 -62.5h-159l-1 6q-6 92 76.5 150t207.5 58q142 0 224 -58t82 -166q0 -54 -34.5 -98.5 t-95.5 -70.5q143 -48 143 -183q0 -109 -88 -169.5t-231 -60.5q-84 0 -152.5 25.5t-108.5 75t-36 121.5z" />
<glyph unicode="&#xb4;" horiz-adv-x="486" d="M39 1262l181 267h225l2 -6l-264 -261h-144z" />
<glyph unicode="&#xb5;" horiz-adv-x="1288" d="M65 936v124h351v-609q0 -185 54 -253t154 -68q97 0 157 36t90 105v637l-160 28v124h353v-909l160 -28v-123h-333l-9 107q-87 -128 -250 -128q-139 0 -216 67v-454h-192v1316z" />
<glyph unicode="&#xb6;" horiz-adv-x="1068" d="M76 968q0 135 57.5 238.5t165.5 162t260 58.5h434v-125l-160 -27v-1124l160 -28v-123h-513v123l160 28v359h-81q-153 0 -261 57.5t-165 161t-57 239.5z" />
<glyph unicode="&#xb7;" horiz-adv-x="505" d="M157 617v198h193v-198h-193z" />
<glyph unicode="&#xb8;" horiz-adv-x="460" d="M39 -138l39 169h139l-20 -88q65 -11 107 -50t42 -116q0 -93 -77.5 -148t-221.5 -55l-7 107q71 0 113.5 23.5t42.5 69.5t-35.5 63.5t-121.5 24.5z" />
<glyph unicode="&#xb9;" horiz-adv-x="536" d="M93 1294v131l295 22v-795h-170v642h-125z" />
<glyph unicode="&#xba;" horiz-adv-x="922" d="M119 1004v115q0 145 91.5 236.5t246.5 91.5t247 -91.5t92 -236.5v-115q0 -146 -92 -236.5t-245 -90.5q-156 0 -248 90.5t-92 236.5zM287 1004q0 -86 43 -137.5t129 -51.5q81 0 124 52t43 137v115q0 82 -43.5 134.5t-125.5 52.5q-83 0 -126.5 -52.5t-43.5 -134.5v-115z " />
<glyph unicode="&#xbb;" horiz-adv-x="919" d="M103 149l249 390l-249 391h145l289 -381v-19l-289 -381h-145zM441 149l249 390l-249 391h145l289 -381v-19l-289 -381h-145z" />
<glyph unicode="&#xbc;" horiz-adv-x="1414" d="M179 1293v131l295 23v-796h-170v642h-125zM314 181l697 1116l107 -66l-697 -1115zM769 249l413 536h170v-509h124v-127h-124v-149h-166v149h-409zM948 276h238v304l-6 1l-13 -21z" />
<glyph unicode="&#xbd;" horiz-adv-x="1450" d="M179 1293v131l295 23v-796h-170v642h-125zM327 181l697 1116l107 -66l-697 -1115zM911 562q-6 97 76 165.5t221 68.5q132 0 206.5 -63t74.5 -176q0 -52 -18.5 -92.5t-63 -85.5t-119.5 -113l-150 -133l2 -6h354v-127h-580v127l296 257q67 58 88 94.5t21 79.5 q0 49 -27.5 79t-83.5 30q-66 0 -102 -31t-36 -80h-157z" />
<glyph unicode="&#xbe;" horiz-adv-x="1656" d="M125 866l1 6h160q0 -46 36.5 -73.5t99.5 -27.5q70 0 111 28.5t41 75.5q0 62 -35.5 89.5t-106.5 27.5h-131v124h131q128 0 128 106q0 44 -35.5 71.5t-102.5 27.5q-55 0 -89.5 -23.5t-34.5 -62.5h-159l-1 6q-6 92 76.5 150.5t207.5 58.5q142 0 224 -58.5t82 -166.5 q0 -54 -34.5 -98.5t-95.5 -69.5q143 -48 143 -183q0 -109 -88 -170t-231 -61q-84 0 -152.5 25.5t-108.5 75t-36 122.5zM495 181l697 1116l107 -66l-697 -1115zM954 249l413 536h170v-509h124v-127h-124v-149h-166v149h-409zM1133 276h238v304l-6 1l-13 -21z" />
<glyph unicode="&#xbf;" horiz-adv-x="872" d="M57 -13q0 84 28 153t83.5 138.5t140.5 154.5q34 35 49.5 64t20 65.5t4.5 96.5h193q0 -71 -5 -117t-19 -79.5t-43.5 -67t-79.5 -78.5q-104 -94 -141.5 -170t-37.5 -155q0 -104 55.5 -160t157.5 -56q90 0 152 48.5t62 142.5h184l3 -6q2 -104 -49.5 -182.5t-142.5 -121.5 t-209 -43q-193 0 -299.5 98.5t-106.5 274.5zM377 857v204h201v-204h-201z" />
<glyph unicode="&#xc0;" d="M69 0v123l105 15l499 1289h166l490 -1289l105 -15v-123h-410v123l108 19l-94 263h-572l-97 -263l108 -19v-123h-408zM465 1811l2 6h226l180 -267h-144zM526 566h453l-210 581l-11 32h-6l-12 -32z" />
<glyph unicode="&#xc1;" d="M69 0v123l105 15l499 1289h166l490 -1289l105 -15v-123h-410v123l108 19l-94 263h-572l-97 -263l108 -19v-123h-408zM526 566h453l-210 581l-11 32h-6l-12 -32zM636 1550l181 267h225l2 -6l-264 -261h-144z" />
<glyph unicode="&#xc2;" d="M69 0v123l105 15l499 1289h166l490 -1289l105 -15v-123h-410v123l108 19l-94 263h-572l-97 -263l108 -19v-123h-408zM454 1559v26l241 232h117l243 -233v-25h-158l-144 145l-142 -145h-157zM526 566h453l-210 581l-11 32h-6l-12 -32z" />
<glyph unicode="&#xc3;" d="M69 0v123l105 15l499 1289h166l490 -1289l105 -15v-123h-410v123l108 19l-94 263h-572l-97 -263l108 -19v-123h-408zM414 1588q0 63 27.5 115t73.5 84t103 32q44 0 94 -24.5t96.5 -49t80.5 -24.5q40 0 69 31.5t29 79.5l106 -28q0 -94 -59.5 -159t-144.5 -65q-48 0 -98 24 t-95 48.5t-78 24.5q-41 0 -70 -32t-29 -78zM526 566h453l-210 581l-11 32h-6l-12 -32z" />
<glyph unicode="&#xc4;" d="M69 0v123l105 15l499 1289h166l490 -1289l105 -15v-123h-410v123l108 19l-94 263h-572l-97 -263l108 -19v-123h-408zM446 1610v207h203v-207h-203zM526 566h453l-210 581l-11 32h-6l-12 -32zM861 1610v207h203v-207h-203z" />
<glyph unicode="&#xc5;" d="M69 0v123l105 15l499 1289h166l490 -1289l105 -15v-123h-410v123l108 19l-94 263h-572l-97 -263l108 -19v-123h-408zM526 566h453l-210 581l-11 32h-6l-12 -32zM552 1679q0 82 59.5 138t144.5 56q83 0 142 -55.5t59 -138.5q0 -85 -59 -138t-142 -53q-85 0 -144.5 53 t-59.5 138zM653 1679q0 -43 30.5 -72.5t72.5 -29.5q41 0 70.5 29t29.5 73t-29.5 74t-70.5 30q-43 0 -73 -30t-30 -74z" />
<glyph unicode="&#xc6;" horiz-adv-x="2054" d="M50 0v123l138 20l777 1284h948v-316h-165l-14 164h-498l19 -457h579v-152h-573l22 -515h511l16 164h164v-315h-1037v123l153 27l-8 193h-545l-119 -206l81 -14v-123h-449zM638 518h437l-30 696l-5 2l-8 -14z" />
<glyph unicode="&#xc7;" horiz-adv-x="1264" d="M78 703v20q0 210 75.5 373t217 257t337.5 94q138 0 252.5 -43t190.5 -109v-308h-154l-21 225q-99 76 -269 76q-141 0 -238 -72t-147 -198.5t-50 -292.5v-22q0 -270 119 -418.5t340 -148.5q69 0 134.5 17t108.5 43l22 199h151v-310q-81 -50 -192.5 -78t-230.5 -28 q-214 0 -358 94.5t-216 258t-72 371.5zM595 -138l39 169h139l-20 -88q65 -11 107 -50t42 -116q0 -93 -77.5 -148t-221.5 -55l-7 107q71 0 113.5 23.5t42.5 69.5t-35.5 63.5t-121.5 24.5z" />
<glyph unicode="&#xc8;" horiz-adv-x="1279" d="M79 0v123l160 28v1124l-160 27v125h1057v-343h-155l-22 194h-527v-465h526v-151h-526v-517h559l21 197h154v-342h-1087zM351 1811l2 6h226l180 -267h-144z" />
<glyph unicode="&#xc9;" horiz-adv-x="1279" d="M79 0v123l160 28v1124l-160 27v125h1057v-343h-155l-22 194h-527v-465h526v-151h-526v-517h559l21 197h154v-342h-1087zM521 1550l181 267h225l2 -6l-264 -261h-144z" />
<glyph unicode="&#xca;" horiz-adv-x="1279" d="M79 0v123l160 28v1124l-160 27v125h1057v-343h-155l-22 194h-527v-465h526v-151h-526v-517h559l21 197h154v-342h-1087zM339 1559v26l241 232h117l243 -233v-25h-158l-144 145l-142 -145h-157z" />
<glyph unicode="&#xcb;" horiz-adv-x="1279" d="M79 0v123l160 28v1124l-160 27v125h1057v-343h-155l-22 194h-527v-465h526v-151h-526v-517h559l21 197h154v-342h-1087zM331 1610v207h203v-207h-203zM746 1610v207h203v-207h-203z" />
<glyph unicode="&#xcc;" horiz-adv-x="671" d="M46 1811l2 6h226l180 -267h-144zM79 0v123l160 28v1124l-160 27v125h513v-125l-160 -27v-1124l160 -28v-123h-513z" />
<glyph unicode="&#xcd;" horiz-adv-x="671" d="M79 0v123l160 28v1124l-160 27v125h513v-125l-160 -27v-1124l160 -28v-123h-513zM216 1550l181 267h225l2 -6l-264 -261h-144z" />
<glyph unicode="&#xce;" horiz-adv-x="671" d="M34 1559v26l241 232h117l243 -233v-25h-158l-144 145l-142 -145h-157zM79 0v123l160 28v1124l-160 27v125h513v-125l-160 -27v-1124l160 -28v-123h-513z" />
<glyph unicode="&#xcf;" horiz-adv-x="671" d="M26 1610v207h203v-207h-203zM79 0v123l160 28v1124l-160 27v125h513v-125l-160 -27v-1124l160 -28v-123h-513zM441 1610v207h203v-207h-203z" />
<glyph unicode="&#xd0;" horiz-adv-x="1328" d="M79 0v123l160 28v1124l-160 27v125h559q189 0 329.5 -90t219 -248t78.5 -361v-30q0 -198 -75.5 -356.5t-214 -250t-327.5 -91.5h-569zM79 640v152h591v-152h-591zM432 151h206q135 0 232 74t149.5 198t52.5 275v32q0 156 -52.5 279t-149.5 194.5t-232 71.5h-206v-1124z " />
<glyph unicode="&#xd1;" horiz-adv-x="1560" d="M81 0v123l160 28v1124l-160 27v125h355l700 -1112l6 2v958l-176 27v125h513v-125l-160 -27v-1275h-176l-719 1118l-6 -2v-965l176 -28v-123h-513zM440 1588q0 63 27.5 115t73.5 84t103 32q44 0 94 -24.5t96.5 -49t80.5 -24.5q40 0 69 31.5t29 79.5l106 -28 q0 -94 -59.5 -159t-144.5 -65q-48 0 -98 24t-95 48.5t-78 24.5q-41 0 -70 -32t-29 -78z" />
<glyph unicode="&#xd2;" horiz-adv-x="1323" d="M69 703v20q0 213 71 376t204 255.5t318 92.5q195 0 326.5 -92.5t199 -255.5t67.5 -376v-20q0 -213 -67.5 -376t-199 -255.5t-326.5 -92.5q-185 0 -317.5 92.5t-204 255.5t-71.5 376zM263 703q0 -167 46 -294t135 -198t218 -71q142 0 229.5 70.5t128.5 197.5t41 295v22 q0 167 -41.5 293t-129.5 197t-228 71q-129 0 -218 -71.5t-135 -197.5t-46 -292v-22zM373 1811l2 6h226l180 -267h-144z" />
<glyph unicode="&#xd3;" horiz-adv-x="1323" d="M69 703v20q0 213 71 376t204 255.5t318 92.5q195 0 326.5 -92.5t199 -255.5t67.5 -376v-20q0 -213 -67.5 -376t-199 -255.5t-326.5 -92.5q-185 0 -317.5 92.5t-204 255.5t-71.5 376zM263 703q0 -167 46 -294t135 -198t218 -71q142 0 229.5 70.5t128.5 197.5t41 295v22 q0 167 -41.5 293t-129.5 197t-228 71q-129 0 -218 -71.5t-135 -197.5t-46 -292v-22zM544 1550l181 267h225l2 -6l-264 -261h-144z" />
<glyph unicode="&#xd4;" horiz-adv-x="1323" d="M69 703v20q0 213 71 376t204 255.5t318 92.5q195 0 326.5 -92.5t199 -255.5t67.5 -376v-20q0 -213 -67.5 -376t-199 -255.5t-326.5 -92.5q-185 0 -317.5 92.5t-204 255.5t-71.5 376zM263 703q0 -167 46 -294t135 -198t218 -71q142 0 229.5 70.5t128.5 197.5t41 295v22 q0 167 -41.5 293t-129.5 197t-228 71q-129 0 -218 -71.5t-135 -197.5t-46 -292v-22zM361 1559v26l241 232h117l243 -233v-25h-158l-144 145l-142 -145h-157z" />
<glyph unicode="&#xd5;" horiz-adv-x="1323" d="M69 703v20q0 213 71 376t204 255.5t318 92.5q195 0 326.5 -92.5t199 -255.5t67.5 -376v-20q0 -213 -67.5 -376t-199 -255.5t-326.5 -92.5q-185 0 -317.5 92.5t-204 255.5t-71.5 376zM263 703q0 -167 46 -294t135 -198t218 -71q142 0 229.5 70.5t128.5 197.5t41 295v22 q0 167 -41.5 293t-129.5 197t-228 71q-129 0 -218 -71.5t-135 -197.5t-46 -292v-22zM322 1588q0 63 27.5 115t73.5 84t103 32q44 0 94 -24.5t96.5 -49t80.5 -24.5q40 0 69 31.5t29 79.5l106 -28q0 -94 -59.5 -159t-144.5 -65q-48 0 -98 24t-95 48.5t-78 24.5q-41 0 -70 -32 t-29 -78z" />
<glyph unicode="&#xd6;" horiz-adv-x="1323" d="M69 703v20q0 213 71 376t204 255.5t318 92.5q195 0 326.5 -92.5t199 -255.5t67.5 -376v-20q0 -213 -67.5 -376t-199 -255.5t-326.5 -92.5q-185 0 -317.5 92.5t-204 255.5t-71.5 376zM263 703q0 -167 46 -294t135 -198t218 -71q142 0 229.5 70.5t128.5 197.5t41 295v22 q0 167 -41.5 293t-129.5 197t-228 71q-129 0 -218 -71.5t-135 -197.5t-46 -292v-22zM354 1610v207h203v-207h-203zM769 1610v207h203v-207h-203z" />
<glyph unicode="&#xd7;" horiz-adv-x="1048" d="M77 344l321 327l-321 328l124 123l319 -326l321 326l123 -123l-321 -328l321 -327l-123 -124l-321 326l-319 -326z" />
<glyph unicode="&#xd8;" horiz-adv-x="1323" d="M69 703v20q0 213 71 376t204 255.5t318 92.5q195 0 326.5 -92.5t199 -255.5t67.5 -376v-20q0 -213 -67.5 -376t-199 -255.5t-326.5 -92.5q-185 0 -317.5 92.5t-204 255.5t-71.5 376zM120 -92l937 1579h146l-937 -1579h-146zM263 703q0 -167 46 -294t135 -198t218 -71 q142 0 229.5 70.5t128.5 197.5t41 295v22q0 167 -41.5 293t-129.5 197t-228 71q-129 0 -218 -71.5t-135 -197.5t-46 -292v-22z" />
<glyph unicode="&#xd9;" horiz-adv-x="1491" d="M69 1302v125h512v-125l-160 -27v-815q0 -160 89.5 -243t232.5 -83q144 0 235.5 81.5t91.5 244.5v815l-160 27v125h513v-125l-160 -27v-815q0 -233 -143.5 -357t-379.5 -124q-147 0 -262.5 58t-182.5 165.5t-67 257.5v815zM456 1811l2 6h226l180 -267h-144z" />
<glyph unicode="&#xda;" horiz-adv-x="1491" d="M69 1302v125h512v-125l-160 -27v-815q0 -160 89.5 -243t232.5 -83q144 0 235.5 81.5t91.5 244.5v815l-160 27v125h513v-125l-160 -27v-815q0 -233 -143.5 -357t-379.5 -124q-147 0 -262.5 58t-182.5 165.5t-67 257.5v815zM627 1550l181 267h225l2 -6l-264 -261h-144z" />
<glyph unicode="&#xdb;" horiz-adv-x="1491" d="M69 1302v125h512v-125l-160 -27v-815q0 -160 89.5 -243t232.5 -83q144 0 235.5 81.5t91.5 244.5v815l-160 27v125h513v-125l-160 -27v-815q0 -233 -143.5 -357t-379.5 -124q-147 0 -262.5 58t-182.5 165.5t-67 257.5v815zM445 1559v26l241 232h117l243 -233v-25h-158 l-144 145l-142 -145h-157z" />
<glyph unicode="&#xdc;" horiz-adv-x="1491" d="M69 1302v125h512v-125l-160 -27v-815q0 -160 89.5 -243t232.5 -83q144 0 235.5 81.5t91.5 244.5v815l-160 27v125h513v-125l-160 -27v-815q0 -233 -143.5 -357t-379.5 -124q-147 0 -262.5 58t-182.5 165.5t-67 257.5v815zM437 1610v207h203v-207h-203zM852 1610v207h203 v-207h-203z" />
<glyph unicode="&#xdd;" horiz-adv-x="1431" d="M64 1302v125h492v-125l-163 -18l303 -561l20 -38l1 2l20 36l317 561l-168 18v125h482v-125l-124 -18l-432 -750v-383l160 -28v-123h-511v123l159 28v368l-439 765zM598 1550l181 267h225l2 -6l-264 -261h-144z" />
<glyph unicode="&#xde;" horiz-adv-x="1251" d="M69 0v123l159 28v1124l-159 27v125h512v-125l-160 -27v-135h264q226 0 353.5 -116t127.5 -301q0 -186 -127.5 -301t-353.5 -115h-264v-156l160 -28v-123h-512zM421 458h264q143 0 215.5 76.5t72.5 186.5q0 112 -72.5 190t-215.5 78h-264v-531z" />
<glyph unicode="&#xdf;" horiz-adv-x="1262" d="M54 0v123l160 28v949q0 142 51.5 242.5t142 153.5t208.5 53q160 0 261 -83t101 -243q0 -76 -19.5 -135.5t-44.5 -106.5t-44.5 -85.5t-19.5 -73.5q0 -39 34 -79t85.5 -85t102.5 -97.5t85.5 -117t34.5 -143.5q0 -157 -102 -239t-277 -82q-54 0 -112.5 9.5t-106.5 25 t-73 35.5l43 156q41 -28 105.5 -51.5t123.5 -23.5q107 0 156.5 46t49.5 124q0 54 -34.5 104.5t-85 99t-101 98.5t-84.5 103.5t-34 113.5q0 48 20.5 95.5t48 97t48 102.5t20.5 110q0 78 -48 126t-124 48q-99 0 -159 -77.5t-60 -220.5v-1100h-352z" />
<glyph unicode="&#xe0;" horiz-adv-x="1109" d="M77 288q0 151 123.5 242.5t343.5 91.5h189v104q0 96 -58.5 149t-163.5 53q-67 0 -116 -16t-89 -45l-21 -148h-149v243q144 118 378 118q193 0 302.5 -92t109.5 -264v-510q0 -21 0.5 -40.5t2.5 -39.5l103 -11v-123h-277q-17 80 -21 146q-56 -72 -139.5 -119.5 t-178.5 -47.5q-166 0 -252.5 81t-86.5 228zM234 1523l2 6h226l180 -267h-144zM270 284q0 -143 174 -143q96 0 175.5 46t113.5 111v192h-196q-133 0 -200 -63.5t-67 -142.5z" />
<glyph unicode="&#xe1;" horiz-adv-x="1109" d="M77 288q0 151 123.5 242.5t343.5 91.5h189v104q0 96 -58.5 149t-163.5 53q-67 0 -116 -16t-89 -45l-21 -148h-149v243q144 118 378 118q193 0 302.5 -92t109.5 -264v-510q0 -21 0.5 -40.5t2.5 -39.5l103 -11v-123h-277q-17 80 -21 146q-56 -72 -139.5 -119.5 t-178.5 -47.5q-166 0 -252.5 81t-86.5 228zM270 284q0 -143 174 -143q96 0 175.5 46t113.5 111v192h-196q-133 0 -200 -63.5t-67 -142.5zM405 1262l181 267h225l2 -6l-264 -261h-144z" />
<glyph unicode="&#xe2;" horiz-adv-x="1109" d="M77 288q0 151 123.5 242.5t343.5 91.5h189v104q0 96 -58.5 149t-163.5 53q-67 0 -116 -16t-89 -45l-21 -148h-149v243q144 118 378 118q193 0 302.5 -92t109.5 -264v-510q0 -21 0.5 -40.5t2.5 -39.5l103 -11v-123h-277q-17 80 -21 146q-56 -72 -139.5 -119.5 t-178.5 -47.5q-166 0 -252.5 81t-86.5 228zM222 1271v26l241 232h117l243 -233v-25h-158l-144 145l-142 -145h-157zM270 284q0 -143 174 -143q96 0 175.5 46t113.5 111v192h-196q-133 0 -200 -63.5t-67 -142.5z" />
<glyph unicode="&#xe3;" horiz-adv-x="1109" d="M77 288q0 151 123.5 242.5t343.5 91.5h189v104q0 96 -58.5 149t-163.5 53q-67 0 -116 -16t-89 -45l-21 -148h-149v243q144 118 378 118q193 0 302.5 -92t109.5 -264v-510q0 -21 0.5 -40.5t2.5 -39.5l103 -11v-123h-277q-17 80 -21 146q-56 -72 -139.5 -119.5 t-178.5 -47.5q-166 0 -252.5 81t-86.5 228zM183 1300q0 63 27.5 115t73.5 84t103 32q44 0 94 -24.5t96.5 -49t80.5 -24.5q40 0 69 31.5t29 79.5l106 -28q0 -94 -59.5 -159t-144.5 -65q-48 0 -98 24t-95 48.5t-78 24.5q-41 0 -70 -32t-29 -78zM270 284q0 -143 174 -143 q96 0 175.5 46t113.5 111v192h-196q-133 0 -200 -63.5t-67 -142.5z" />
<glyph unicode="&#xe4;" horiz-adv-x="1109" d="M77 288q0 151 123.5 242.5t343.5 91.5h189v104q0 96 -58.5 149t-163.5 53q-67 0 -116 -16t-89 -45l-21 -148h-149v243q144 118 378 118q193 0 302.5 -92t109.5 -264v-510q0 -21 0.5 -40.5t2.5 -39.5l103 -11v-123h-277q-17 80 -21 146q-56 -72 -139.5 -119.5 t-178.5 -47.5q-166 0 -252.5 81t-86.5 228zM214 1322v207h203v-207h-203zM270 284q0 -143 174 -143q96 0 175.5 46t113.5 111v192h-196q-133 0 -200 -63.5t-67 -142.5zM629 1322v207h203v-207h-203z" />
<glyph unicode="&#xe5;" horiz-adv-x="1109" d="M77 288q0 151 123.5 242.5t343.5 91.5h189v104q0 96 -58.5 149t-163.5 53q-67 0 -116 -16t-89 -45l-21 -148h-149v243q144 118 378 118q193 0 302.5 -92t109.5 -264v-510q0 -21 0.5 -40.5t2.5 -39.5l103 -11v-123h-277q-17 80 -21 146q-56 -72 -139.5 -119.5 t-178.5 -47.5q-166 0 -252.5 81t-86.5 228zM270 284q0 -143 174 -143q96 0 175.5 46t113.5 111v192h-196q-133 0 -200 -63.5t-67 -142.5zM320 1391q0 82 59.5 138t144.5 56q83 0 142 -55.5t59 -138.5q0 -85 -59 -138t-142 -53q-85 0 -144.5 53t-59.5 138zM421 1391 q0 -43 30.5 -72.5t72.5 -29.5q41 0 70.5 29t29.5 73t-29.5 74t-70.5 30q-43 0 -73 -30t-30 -74z" />
<glyph unicode="&#xe6;" horiz-adv-x="1702" d="M77 296q0 150 123.5 240.5t344.5 90.5h189v99q0 96 -58.5 149t-163.5 53q-67 0 -116 -16t-89 -45l-21 -148h-149v243q144 118 377 118q246 0 343 -162q129 162 332 162q209 0 322.5 -127.5t113.5 -350.5v-117h-696l-2 -5q1 -156 78 -253t229 -97q102 0 166.5 27t141.5 77 l66 -135q-54 -44 -146 -82t-228 -38q-266 0 -420 207q-140 -207 -388 -207q-171 0 -260 83.5t-89 233.5zM270 292q0 -64 43.5 -107.5t131.5 -43.5q99 0 181.5 57.5t118.5 136.5q-6 48 -8.5 82.5t-2.5 76.5v1h-196q-133 0 -200.5 -62.5t-67.5 -140.5zM929 632l2 -5h501v31 q0 119 -59 194.5t-184 75.5q-113 0 -181 -83t-79 -213z" />
<glyph unicode="&#xe7;" horiz-adv-x="1045" d="M76 510v41q0 151 57 270.5t164 189t255 69.5q128 0 224.5 -42t162.5 -116l5 -255h-151l-33 186q-34 34 -84 54.5t-117 20.5q-87 0 -152 -51t-101 -136t-36 -190v-41q0 -175 75 -277.5t206 -102.5q98 0 162.5 54t79.5 148h173l2 -6q-5 -91 -54 -170.5t-139.5 -128 t-222.5 -48.5q-144 0 -251 67.5t-166 187t-59 276.5zM445 -138l39 169h139l-20 -88q65 -11 107 -50t42 -116q0 -93 -77.5 -148t-221.5 -55l-7 107q71 0 113.5 23.5t42.5 69.5t-35.5 63.5t-121.5 24.5z" />
<glyph unicode="&#xe8;" horiz-adv-x="1037" d="M73 510v43q0 151 62 270t165.5 188t225.5 69q214 0 324 -129.5t110 -344.5v-121h-688l-2 -5q2 -153 76.5 -251.5t209.5 -98.5q98 0 172 28t128 77l75 -125q-57 -55 -150.5 -93t-224.5 -38q-147 0 -256 67.5t-168 187t-59 276.5zM236 1523l2 6h226l180 -267h-144zM276 641 l2 -5h489v26q0 113 -60.5 189.5t-180.5 76.5q-97 0 -165.5 -82t-84.5 -205z" />
<glyph unicode="&#xe9;" horiz-adv-x="1037" d="M73 510v43q0 151 62 270t165.5 188t225.5 69q214 0 324 -129.5t110 -344.5v-121h-688l-2 -5q2 -153 76.5 -251.5t209.5 -98.5q98 0 172 28t128 77l75 -125q-57 -55 -150.5 -93t-224.5 -38q-147 0 -256 67.5t-168 187t-59 276.5zM276 641l2 -5h489v26q0 113 -60.5 189.5 t-180.5 76.5q-97 0 -165.5 -82t-84.5 -205zM407 1262l181 267h225l2 -6l-264 -261h-144z" />
<glyph unicode="&#xea;" horiz-adv-x="1037" d="M73 510v43q0 151 62 270t165.5 188t225.5 69q214 0 324 -129.5t110 -344.5v-121h-688l-2 -5q2 -153 76.5 -251.5t209.5 -98.5q98 0 172 28t128 77l75 -125q-57 -55 -150.5 -93t-224.5 -38q-147 0 -256 67.5t-168 187t-59 276.5zM224 1271v26l241 232h117l243 -233v-25 h-158l-144 145l-142 -145h-157zM276 641l2 -5h489v26q0 113 -60.5 189.5t-180.5 76.5q-97 0 -165.5 -82t-84.5 -205z" />
<glyph unicode="&#xeb;" horiz-adv-x="1037" d="M73 510v43q0 151 62 270t165.5 188t225.5 69q214 0 324 -129.5t110 -344.5v-121h-688l-2 -5q2 -153 76.5 -251.5t209.5 -98.5q98 0 172 28t128 77l75 -125q-57 -55 -150.5 -93t-224.5 -38q-147 0 -256 67.5t-168 187t-59 276.5zM216 1322v207h203v-207h-203zM276 641 l2 -5h489v26q0 113 -60.5 189.5t-180.5 76.5q-97 0 -165.5 -82t-84.5 -205zM631 1322v207h203v-207h-203z" />
<glyph unicode="&#xec;" horiz-adv-x="638" d="M28 1523l2 6h226l180 -267h-144zM66 0v123l159 28v757l-159 28v124h352v-909l160 -28v-123h-512z" />
<glyph unicode="&#xed;" horiz-adv-x="638" d="M66 0v123l159 28v757l-159 28v124h352v-909l160 -28v-123h-512zM199 1262l181 267h225l2 -6l-264 -261h-144z" />
<glyph unicode="&#xee;" horiz-adv-x="638" d="M16 1271v26l241 232h117l243 -233v-25h-158l-144 145l-142 -145h-157zM66 0v123l159 28v757l-159 28v124h352v-909l160 -28v-123h-512z" />
<glyph unicode="&#xef;" horiz-adv-x="638" d="M9 1322v207h203v-207h-203zM66 0v123l159 28v757l-159 28v124h352v-909l160 -28v-123h-512zM424 1322v207h203v-207h-203z" />
<glyph unicode="&#xf0;" horiz-adv-x="1167" d="M76 457q0 149 62 262t170 176t248 63q81 0 154 -31t124 -82l4 5q-20 96 -61 175.5t-99 140.5l-266 -152l-76 100l240 137q-35 23 -72.5 41t-79.5 34l59 161q147 -43 266 -137l228 131l76 -100l-211 -121q102 -118 158 -281t56 -359v-96q0 -159 -64.5 -282t-176 -193 t-251.5 -70q-143 0 -253 63.5t-172.5 171t-62.5 243.5zM270 457q0 -87 36 -161.5t103 -120t158 -45.5q88 0 154.5 51t104 140.5t37.5 202.5v147q-35 57 -114 96.5t-193 39.5q-86 0 -150.5 -47.5t-100 -126.5t-35.5 -176z" />
<glyph unicode="&#xf1;" horiz-adv-x="1316" d="M73 0v123l159 28v757l-159 28v124h332l13 -157q53 84 133 130.5t182 46.5q172 0 266 -100.5t94 -310.5v-518l159 -28v-123h-512v123l160 28v514q0 141 -55.5 199.5t-169.5 58.5q-83 0 -147 -40t-103 -110v-622l160 -28v-123h-512zM321 1300q0 63 27.5 115t73.5 84t103 32 q44 0 94 -24.5t96.5 -49t80.5 -24.5q40 0 69 31.5t29 79.5l106 -28q0 -94 -59.5 -159t-144.5 -65q-48 0 -98 24t-95 48.5t-78 24.5q-41 0 -70 -32t-29 -78z" />
<glyph unicode="&#xf2;" horiz-adv-x="1101" d="M76 518v22q0 157 58 279t164.5 191.5t251.5 69.5q147 0 253 -69.5t164 -191t58 -279.5v-22q0 -157 -58 -279t-163.5 -191t-251.5 -69q-147 0 -253.5 69.5t-164.5 191.5t-58 278zM261 1523l2 6h226l180 -267h-144zM270 518q0 -168 71 -278t211 -110q137 0 208.5 110 t71.5 278v22q0 112 -32 199.5t-94.5 138t-155.5 50.5q-92 0 -155 -50.5t-94 -138t-31 -199.5v-22z" />
<glyph unicode="&#xf3;" horiz-adv-x="1101" d="M76 518v22q0 157 58 279t164.5 191.5t251.5 69.5q147 0 253 -69.5t164 -191t58 -279.5v-22q0 -157 -58 -279t-163.5 -191t-251.5 -69q-147 0 -253.5 69.5t-164.5 191.5t-58 278zM270 518q0 -168 71 -278t211 -110q137 0 208.5 110t71.5 278v22q0 112 -32 199.5t-94.5 138 t-155.5 50.5q-92 0 -155 -50.5t-94 -138t-31 -199.5v-22zM432 1262l181 267h225l2 -6l-264 -261h-144z" />
<glyph unicode="&#xf4;" horiz-adv-x="1101" d="M76 518v22q0 157 58 279t164.5 191.5t251.5 69.5q147 0 253 -69.5t164 -191t58 -279.5v-22q0 -157 -58 -279t-163.5 -191t-251.5 -69q-147 0 -253.5 69.5t-164.5 191.5t-58 278zM250 1271v26l241 232h117l243 -233v-25h-158l-144 145l-142 -145h-157zM270 518 q0 -168 71 -278t211 -110q137 0 208.5 110t71.5 278v22q0 112 -32 199.5t-94.5 138t-155.5 50.5q-92 0 -155 -50.5t-94 -138t-31 -199.5v-22z" />
<glyph unicode="&#xf5;" horiz-adv-x="1101" d="M76 518v22q0 157 58 279t164.5 191.5t251.5 69.5q147 0 253 -69.5t164 -191t58 -279.5v-22q0 -157 -58 -279t-163.5 -191t-251.5 -69q-147 0 -253.5 69.5t-164.5 191.5t-58 278zM211 1300q0 63 27.5 115t73.5 84t103 32q44 0 94 -24.5t96.5 -49t80.5 -24.5q40 0 69 31.5 t29 79.5l106 -28q0 -94 -59.5 -159t-144.5 -65q-48 0 -98 24t-95 48.5t-78 24.5q-41 0 -70 -32t-29 -78zM270 518q0 -168 71 -278t211 -110q137 0 208.5 110t71.5 278v22q0 112 -32 199.5t-94.5 138t-155.5 50.5q-92 0 -155 -50.5t-94 -138t-31 -199.5v-22z" />
<glyph unicode="&#xf6;" horiz-adv-x="1101" d="M76 518v22q0 157 58 279t164.5 191.5t251.5 69.5q147 0 253 -69.5t164 -191t58 -279.5v-22q0 -157 -58 -279t-163.5 -191t-251.5 -69q-147 0 -253.5 69.5t-164.5 191.5t-58 278zM242 1322v207h203v-207h-203zM270 518q0 -168 71 -278t211 -110q137 0 208.5 110t71.5 278 v22q0 112 -32 199.5t-94.5 138t-155.5 50.5q-92 0 -155 -50.5t-94 -138t-31 -199.5v-22zM657 1322v207h203v-207h-203z" />
<glyph unicode="&#xf7;" horiz-adv-x="1125" d="M73 585v184h978v-184h-978zM466 176v199h194v-199h-194zM466 979v199h194v-199h-194z" />
<glyph unicode="&#xf8;" horiz-adv-x="1101" d="M76 518v22q0 157 58 279t164.5 191.5t251.5 69.5q147 0 253 -69.5t164 -191t58 -279.5v-22q0 -157 -58 -279t-163.5 -191t-251.5 -69q-147 0 -253.5 69.5t-164.5 191.5t-58 278zM161 -128l651 1317h126l-650 -1317h-127zM270 518q0 -168 71 -278t211 -110 q137 0 208.5 110t71.5 278v22q0 112 -32 199.5t-94.5 138t-155.5 50.5q-92 0 -155 -50.5t-94 -138t-31 -199.5v-22z" />
<glyph unicode="&#xf9;" horiz-adv-x="1220" d="M51 936v124h315v-627q0 -169 50 -233t155 -64q103 0 170 42t102 118v612l-142 28v124h335v-909l121 -28v-123h-295l-12 157q-50 -85 -129 -131.5t-182 -46.5q-172 0 -269.5 111t-97.5 345v473zM305 1523l2 6h226l180 -267h-144z" />
<glyph unicode="&#xfa;" horiz-adv-x="1220" d="M51 936v124h315v-627q0 -169 50 -233t155 -64q103 0 170 42t102 118v612l-142 28v124h335v-909l121 -28v-123h-295l-12 157q-50 -85 -129 -131.5t-182 -46.5q-172 0 -269.5 111t-97.5 345v473zM475 1262l181 267h225l2 -6l-264 -261h-144z" />
<glyph unicode="&#xfb;" horiz-adv-x="1220" d="M51 936v124h315v-627q0 -169 50 -233t155 -64q103 0 170 42t102 118v612l-142 28v124h335v-909l121 -28v-123h-295l-12 157q-50 -85 -129 -131.5t-182 -46.5q-172 0 -269.5 111t-97.5 345v473zM293 1271v26l241 232h117l243 -233v-25h-158l-144 145l-142 -145h-157z" />
<glyph unicode="&#xfc;" horiz-adv-x="1220" d="M51 936v124h315v-627q0 -169 50 -233t155 -64q103 0 170 42t102 118v612l-142 28v124h335v-909l121 -28v-123h-295l-12 157q-50 -85 -129 -131.5t-182 -46.5q-172 0 -269.5 111t-97.5 345v473zM285 1322v207h203v-207h-203zM700 1322v207h203v-207h-203z" />
<glyph unicode="&#xfd;" horiz-adv-x="1168" d="M24 936v124h444v-124l-128 -20l207 -530l50 -138h6l245 668l-136 20v124h437v-124l-110 -16l-418 -1083q-44 -115 -117.5 -190t-200.5 -75q-23 0 -59 5.5t-56 9.5l20 152q16 -2 45.5 -3.5t40.5 -1.5q62 0 100.5 47t71.5 129l47 112l-376 898zM465 1262l181 267h225l2 -6 l-264 -261h-144z" />
<glyph unicode="&#xfe;" horiz-adv-x="1164" d="M24 -283l160 27v1633l-160 27v125h353v-586q107 137 296 137q131 0 224 -71t142 -199t49 -299v-21q0 -153 -49.5 -267.5t-141.5 -179t-221 -64.5q-195 0 -299 132v-367l160 -27v-125h-513v125zM377 270q37 -66 95.5 -103t143.5 -37q138 0 208.5 100t70.5 260v21 q0 181 -70.5 296.5t-210.5 115.5q-83 0 -141.5 -37.5t-95.5 -103.5v-512z" />
<glyph unicode="&#xff;" horiz-adv-x="1168" d="M24 936v124h444v-124l-128 -20l207 -530l50 -138h6l245 668l-136 20v124h437v-124l-110 -16l-418 -1083q-44 -115 -117.5 -190t-200.5 -75q-23 0 -59 5.5t-56 9.5l20 152q16 -2 45.5 -3.5t40.5 -1.5q62 0 100.5 47t71.5 129l47 112l-376 898zM275 1322v207h203v-207h-203 zM690 1322v207h203v-207h-203z" />
<glyph unicode="&#x100;" d="M69 0v123l105 15l499 1289h166l490 -1289l105 -15v-123h-410v123l108 19l-94 263h-572l-97 -263l108 -19v-123h-408zM401 1611v143h707v-143h-707zM526 566h453l-210 581l-11 32h-6l-12 -32z" />
<glyph unicode="&#x101;" horiz-adv-x="1109" d="M77 288q0 151 123.5 242.5t343.5 91.5h189v104q0 96 -58.5 149t-163.5 53q-67 0 -116 -16t-89 -45l-21 -148h-149v243q144 118 378 118q193 0 302.5 -92t109.5 -264v-510q0 -21 0.5 -40.5t2.5 -39.5l103 -11v-123h-277q-17 80 -21 146q-56 -72 -139.5 -119.5 t-178.5 -47.5q-166 0 -252.5 81t-86.5 228zM169 1323v143h707v-143h-707zM270 284q0 -143 174 -143q96 0 175.5 46t113.5 111v192h-196q-133 0 -200 -63.5t-67 -142.5z" />
<glyph unicode="&#x102;" d="M69 0v123l105 15l499 1289h166l490 -1289l105 -15v-123h-410v123l108 19l-94 263h-572l-97 -263l108 -19v-123h-408zM450 1811l2 6h147q0 -71 38 -115t118 -44q78 0 116.5 44t38.5 115h148l2 -6q-1 -123 -82 -199.5t-223 -76.5t-223.5 76.5t-81.5 199.5zM526 566h453 l-210 581l-11 32h-6l-12 -32z" />
<glyph unicode="&#x103;" horiz-adv-x="1109" d="M77 288q0 151 123.5 242.5t343.5 91.5h189v104q0 96 -58.5 149t-163.5 53q-67 0 -116 -16t-89 -45l-21 -148h-149v243q144 118 378 118q193 0 302.5 -92t109.5 -264v-510q0 -21 0.5 -40.5t2.5 -39.5l103 -11v-123h-277q-17 80 -21 146q-56 -72 -139.5 -119.5 t-178.5 -47.5q-166 0 -252.5 81t-86.5 228zM218 1523l2 6h147q0 -71 38 -115t118 -44q78 0 116.5 44t38.5 115h148l2 -6q-1 -123 -82 -199.5t-223 -76.5t-223.5 76.5t-81.5 199.5zM270 284q0 -143 174 -143q96 0 175.5 46t113.5 111v192h-196q-133 0 -200 -63.5t-67 -142.5z " />
<glyph unicode="&#x104;" d="M69 0v123l105 15l499 1289h166l490 -1289l105 -15v-123h-410v123l108 19l-94 263h-572l-97 -263l108 -19v-123h-408zM526 566h453l-210 581l-11 32h-6l-12 -32zM1121 -219q0 79 58.5 149t184.5 126l70 -56q-69 -51 -107.5 -97.5t-38.5 -99.5q0 -41 22 -64.5t72 -23.5 q26 0 48.5 7.5t48.5 17.5l32 -120q-35 -19 -75.5 -31t-88.5 -12q-103 0 -164.5 53.5t-61.5 150.5z" />
<glyph unicode="&#x105;" horiz-adv-x="1109" d="M77 288q0 151 123.5 242.5t343.5 91.5h189v104q0 96 -58.5 149t-163.5 53q-67 0 -116 -16t-89 -45l-21 -148h-149v243q144 118 378 118q193 0 302.5 -92t109.5 -264v-510q0 -21 0.5 -40.5t2.5 -39.5l103 -11v-123h-277q-17 80 -21 146q-56 -72 -139.5 -119.5 t-178.5 -47.5q-166 0 -252.5 81t-86.5 228zM270 284q0 -143 174 -143q96 0 175.5 46t113.5 111v192h-196q-133 0 -200 -63.5t-67 -142.5zM719 -219q0 79 58.5 149t184.5 126l70 -56q-69 -51 -107.5 -97.5t-38.5 -99.5q0 -41 22 -64.5t72 -23.5q26 0 48.5 7.5t48.5 17.5 l32 -120q-35 -19 -75.5 -31t-88.5 -12q-103 0 -164.5 53.5t-61.5 150.5z" />
<glyph unicode="&#x106;" horiz-adv-x="1264" d="M78 703v20q0 210 75.5 373t217 257t337.5 94q138 0 252.5 -43t190.5 -109v-308h-154l-21 225q-99 76 -269 76q-141 0 -238 -72t-147 -198.5t-50 -292.5v-22q0 -270 119 -418.5t340 -148.5q69 0 134.5 17t108.5 43l22 199h151v-310q-81 -50 -192.5 -78t-230.5 -28 q-214 0 -358 94.5t-216 258t-72 371.5zM577 1550l181 267h225l2 -6l-264 -261h-144z" />
<glyph unicode="&#x107;" horiz-adv-x="1045" d="M76 510v41q0 151 57 270.5t164 189t255 69.5q128 0 224.5 -42t162.5 -116l5 -255h-151l-33 186q-34 34 -84 54.5t-117 20.5q-87 0 -152 -51t-101 -136t-36 -190v-41q0 -175 75 -277.5t206 -102.5q98 0 162.5 54t79.5 148h173l2 -6q-5 -91 -54 -170.5t-139.5 -128 t-222.5 -48.5q-144 0 -251 67.5t-166 187t-59 276.5zM427 1262l181 267h225l2 -6l-264 -261h-144z" />
<glyph unicode="&#x108;" horiz-adv-x="1264" d="M78 703v20q0 210 75.5 373t217 257t337.5 94q138 0 252.5 -43t190.5 -109v-308h-154l-21 225q-99 76 -269 76q-141 0 -238 -72t-147 -198.5t-50 -292.5v-22q0 -270 119 -418.5t340 -148.5q69 0 134.5 17t108.5 43l22 199h151v-310q-81 -50 -192.5 -78t-230.5 -28 q-214 0 -358 94.5t-216 258t-72 371.5zM395 1559v26l241 232h117l243 -233v-25h-158l-144 145l-142 -145h-157z" />
<glyph unicode="&#x109;" horiz-adv-x="1045" d="M76 510v41q0 151 57 270.5t164 189t255 69.5q128 0 224.5 -42t162.5 -116l5 -255h-151l-33 186q-34 34 -84 54.5t-117 20.5q-87 0 -152 -51t-101 -136t-36 -190v-41q0 -175 75 -277.5t206 -102.5q98 0 162.5 54t79.5 148h173l2 -6q-5 -91 -54 -170.5t-139.5 -128 t-222.5 -48.5q-144 0 -251 67.5t-166 187t-59 276.5zM245 1271v26l241 232h117l243 -233v-25h-158l-144 145l-142 -145h-157z" />
<glyph unicode="&#x10a;" horiz-adv-x="1264" d="M78 703v20q0 210 75.5 373t217 257t337.5 94q138 0 252.5 -43t190.5 -109v-308h-154l-21 225q-99 76 -269 76q-141 0 -238 -72t-147 -198.5t-50 -292.5v-22q0 -270 119 -418.5t340 -148.5q69 0 134.5 17t108.5 43l22 199h151v-310q-81 -50 -192.5 -78t-230.5 -28 q-214 0 -358 94.5t-216 258t-72 371.5zM594 1610v207h203v-207h-203z" />
<glyph unicode="&#x10b;" horiz-adv-x="1045" d="M76 510v41q0 151 57 270.5t164 189t255 69.5q128 0 224.5 -42t162.5 -116l5 -255h-151l-33 186q-34 34 -84 54.5t-117 20.5q-87 0 -152 -51t-101 -136t-36 -190v-41q0 -175 75 -277.5t206 -102.5q98 0 162.5 54t79.5 148h173l2 -6q-5 -91 -54 -170.5t-139.5 -128 t-222.5 -48.5q-144 0 -251 67.5t-166 187t-59 276.5zM444 1322v207h203v-207h-203z" />
<glyph unicode="&#x10c;" horiz-adv-x="1264" d="M78 703v20q0 210 75.5 373t217 257t337.5 94q138 0 252.5 -43t190.5 -109v-308h-154l-21 225q-99 76 -269 76q-141 0 -238 -72t-147 -198.5t-50 -292.5v-22q0 -270 119 -418.5t340 -148.5q69 0 134.5 17t108.5 43l22 199h151v-310q-81 -50 -192.5 -78t-230.5 -28 q-214 0 -358 94.5t-216 258t-72 371.5zM395 1792v25h158l144 -145l142 145h157v-26l-241 -232h-117z" />
<glyph unicode="&#x10d;" horiz-adv-x="1045" d="M76 510v41q0 151 57 270.5t164 189t255 69.5q128 0 224.5 -42t162.5 -116l5 -255h-151l-33 186q-34 34 -84 54.5t-117 20.5q-87 0 -152 -51t-101 -136t-36 -190v-41q0 -175 75 -277.5t206 -102.5q98 0 162.5 54t79.5 148h173l2 -6q-5 -91 -54 -170.5t-139.5 -128 t-222.5 -48.5q-144 0 -251 67.5t-166 187t-59 276.5zM245 1504v25h158l144 -145l142 145h157v-26l-241 -232h-117z" />
<glyph unicode="&#x10e;" horiz-adv-x="1328" d="M79 0v123l160 28v1124l-160 27v125h559q189 0 329.5 -90t219 -248t78.5 -361v-30q0 -198 -75.5 -356.5t-214 -250t-327.5 -91.5h-569zM363 1792v25h158l144 -145l142 145h157v-26l-241 -232h-117zM432 151h206q135 0 232 74t149.5 198t52.5 275v32q0 156 -52.5 279 t-149.5 194.5t-232 71.5h-206v-1124z" />
<glyph unicode="&#x10f;" horiz-adv-x="1193" d="M76 490v21q0 170 49 298.5t142.5 199.5t223.5 71q94 0 166 -35t123 -100v432l-160 27v125h353v-1378l160 -28v-123h-327l-16 126q-106 -147 -301 -147q-129 0 -222 64.5t-142 179t-49 267.5zM270 490q0 -160 65.5 -257t202.5 -97q86 0 145 39.5t97 110.5v492 q-37 67 -97 106t-143 39q-138 0 -204 -114.5t-66 -297.5v-21zM1039 1229q35 49 52 98t17 114v88h176v-85q0 -180 -161 -288z" />
<glyph unicode="&#x110;" horiz-adv-x="1328" d="M79 0v123l160 28v1124l-160 27v125h559q189 0 329.5 -90t219 -248t78.5 -361v-30q0 -198 -75.5 -356.5t-214 -250t-327.5 -91.5h-569zM79 640v152h591v-152h-591zM432 151h206q135 0 232 74t149.5 198t52.5 275v32q0 156 -52.5 279t-149.5 194.5t-232 71.5h-206v-1124z " />
<glyph unicode="&#x111;" horiz-adv-x="1193" d="M76 490v21q0 170 49 298.5t142.5 199.5t223.5 71q94 0 166 -35t123 -100v432l-160 27v125h353v-1378l160 -28v-123h-327l-16 126q-106 -147 -301 -147q-129 0 -222 64.5t-142 179t-49 267.5zM270 490q0 -160 65.5 -257t202.5 -97q86 0 145 39.5t97 110.5v492 q-37 67 -97 106t-143 39q-138 0 -204 -114.5t-66 -297.5v-21zM542 1131v152h591v-152h-591z" />
<glyph unicode="&#x112;" horiz-adv-x="1279" d="M79 0v123l160 28v1124l-160 27v125h1057v-343h-155l-22 194h-527v-465h526v-151h-526v-517h559l21 197h154v-342h-1087zM286 1611v143h707v-143h-707z" />
<glyph unicode="&#x113;" horiz-adv-x="1037" d="M73 510v43q0 151 62 270t165.5 188t225.5 69q214 0 324 -129.5t110 -344.5v-121h-688l-2 -5q2 -153 76.5 -251.5t209.5 -98.5q98 0 172 28t128 77l75 -125q-57 -55 -150.5 -93t-224.5 -38q-147 0 -256 67.5t-168 187t-59 276.5zM171 1323v143h707v-143h-707zM276 641 l2 -5h489v26q0 113 -60.5 189.5t-180.5 76.5q-97 0 -165.5 -82t-84.5 -205z" />
<glyph unicode="&#x114;" horiz-adv-x="1279" d="M79 0v123l160 28v1124l-160 27v125h1057v-343h-155l-22 194h-527v-465h526v-151h-526v-517h559l21 197h154v-342h-1087zM335 1811l2 6h147q0 -71 38 -115t118 -44q78 0 116.5 44t38.5 115h148l2 -6q-1 -123 -82 -199.5t-223 -76.5t-223.5 76.5t-81.5 199.5z" />
<glyph unicode="&#x115;" horiz-adv-x="1037" d="M73 510v43q0 151 62 270t165.5 188t225.5 69q214 0 324 -129.5t110 -344.5v-121h-688l-2 -5q2 -153 76.5 -251.5t209.5 -98.5q98 0 172 28t128 77l75 -125q-57 -55 -150.5 -93t-224.5 -38q-147 0 -256 67.5t-168 187t-59 276.5zM220 1523l2 6h147q0 -71 38 -115t118 -44 q78 0 116.5 44t38.5 115h148l2 -6q-1 -123 -82 -199.5t-223 -76.5t-223.5 76.5t-81.5 199.5zM276 641l2 -5h489v26q0 113 -60.5 189.5t-180.5 76.5q-97 0 -165.5 -82t-84.5 -205z" />
<glyph unicode="&#x116;" horiz-adv-x="1279" d="M79 0v123l160 28v1124l-160 27v125h1057v-343h-155l-22 194h-527v-465h526v-151h-526v-517h559l21 197h154v-342h-1087zM538 1610v207h203v-207h-203z" />
<glyph unicode="&#x117;" horiz-adv-x="1037" d="M73 510v43q0 151 62 270t165.5 188t225.5 69q214 0 324 -129.5t110 -344.5v-121h-688l-2 -5q2 -153 76.5 -251.5t209.5 -98.5q98 0 172 28t128 77l75 -125q-57 -55 -150.5 -93t-224.5 -38q-147 0 -256 67.5t-168 187t-59 276.5zM276 641l2 -5h489v26q0 113 -60.5 189.5 t-180.5 76.5q-97 0 -165.5 -82t-84.5 -205zM423 1322v207h203v-207h-203z" />
<glyph unicode="&#x118;" horiz-adv-x="1279" d="M79 0v123l160 28v1124l-160 27v125h1057v-343h-155l-22 194h-527v-465h526v-151h-526v-517h559l21 197h154v-342h-1087zM853 -219q0 79 58.5 149t184.5 126l70 -56q-69 -51 -107.5 -97.5t-38.5 -99.5q0 -41 22 -64.5t72 -23.5q26 0 48.5 7.5t48.5 17.5l32 -120 q-35 -19 -75.5 -31t-88.5 -12q-103 0 -164.5 53.5t-61.5 150.5z" />
<glyph unicode="&#x119;" horiz-adv-x="1037" d="M73 510v43q0 151 62 270t165.5 188t225.5 69q214 0 324 -129.5t110 -344.5v-121h-688l-2 -5q2 -153 76.5 -251.5t209.5 -98.5q98 0 172 28t128 77l75 -125q-57 -55 -150.5 -93t-224.5 -38q-147 0 -256 67.5t-168 187t-59 276.5zM276 641l2 -5h489v26q0 113 -60.5 189.5 t-180.5 76.5q-97 0 -165.5 -82t-84.5 -205zM515 -208q0 102 66.5 184.5t206.5 136.5l69 -56q-81 -53 -128 -110.5t-47 -132.5q0 -99 99 -99q28 0 51 7.5t49 17.5l32 -120q-35 -19 -77.5 -31t-101.5 -12q-95 0 -157 56t-62 159z" />
<glyph unicode="&#x11a;" horiz-adv-x="1279" d="M79 0v123l160 28v1124l-160 27v125h1057v-343h-155l-22 194h-527v-465h526v-151h-526v-517h559l21 197h154v-342h-1087zM339 1792v25h158l144 -145l142 145h157v-26l-241 -232h-117z" />
<glyph unicode="&#x11b;" horiz-adv-x="1037" d="M73 510v43q0 151 62 270t165.5 188t225.5 69q214 0 324 -129.5t110 -344.5v-121h-688l-2 -5q2 -153 76.5 -251.5t209.5 -98.5q98 0 172 28t128 77l75 -125q-57 -55 -150.5 -93t-224.5 -38q-147 0 -256 67.5t-168 187t-59 276.5zM224 1504v25h158l144 -145l142 145h157 v-26l-241 -232h-117zM276 641l2 -5h489v26q0 113 -60.5 189.5t-180.5 76.5q-97 0 -165.5 -82t-84.5 -205z" />
<glyph unicode="&#x11c;" horiz-adv-x="1319" d="M78 702v23q0 216 79 378t216.5 253t311.5 91q167 0 283 -38t198 -103v-288h-159l-20 207q-96 64 -282 64q-123 0 -221 -70.5t-155 -196.5t-57 -295v-25q0 -171 52.5 -298t153.5 -197t245 -70q98 0 165.5 17.5t119.5 44.5v335l-273 10v142h466v-553q-61 -58 -176.5 -106 t-301.5 -48q-198 0 -343 92t-223.5 254.5t-78.5 376.5zM358 1559v26l241 232h117l243 -233v-25h-158l-144 145l-142 -145h-157z" />
<glyph unicode="&#x11d;" horiz-adv-x="1133" d="M76 490v21q0 170 50.5 298.5t145 199.5t225.5 71q197 0 302 -153l17 133h294v-123l-131 -29v-894q0 -206 -114.5 -324t-326.5 -118q-76 0 -165.5 21t-156.5 57l50 150q53 -28 126.5 -47t143.5 -19q129 0 189.5 72.5t60.5 207.5v101q-106 -136 -291 -136 q-129 0 -223.5 64.5t-145 179.5t-50.5 267zM270 490q0 -160 67.5 -257t205.5 -97q87 0 146 40t97 112v488q-37 68 -97 107.5t-144 39.5q-138 0 -206.5 -115.5t-68.5 -296.5v-21zM272 1271v26l241 232h117l243 -233v-25h-158l-144 145l-142 -145h-157z" />
<glyph unicode="&#x11e;" horiz-adv-x="1319" d="M78 702v23q0 216 79 378t216.5 253t311.5 91q167 0 283 -38t198 -103v-288h-159l-20 207q-96 64 -282 64q-123 0 -221 -70.5t-155 -196.5t-57 -295v-25q0 -171 52.5 -298t153.5 -197t245 -70q98 0 165.5 17.5t119.5 44.5v335l-273 10v142h466v-553q-61 -58 -176.5 -106 t-301.5 -48q-198 0 -343 92t-223.5 254.5t-78.5 376.5zM355 1811l2 6h147q0 -71 38 -115t118 -44q78 0 116.5 44t38.5 115h148l2 -6q-1 -123 -82 -199.5t-223 -76.5t-223.5 76.5t-81.5 199.5z" />
<glyph unicode="&#x11f;" horiz-adv-x="1133" d="M76 490v21q0 170 50.5 298.5t145 199.5t225.5 71q197 0 302 -153l17 133h294v-123l-131 -29v-894q0 -206 -114.5 -324t-326.5 -118q-76 0 -165.5 21t-156.5 57l50 150q53 -28 126.5 -47t143.5 -19q129 0 189.5 72.5t60.5 207.5v101q-106 -136 -291 -136 q-129 0 -223.5 64.5t-145 179.5t-50.5 267zM268 1523l2 6h147q0 -71 38 -115t118 -44q78 0 116.5 44t38.5 115h148l2 -6q-1 -123 -82 -199.5t-223 -76.5t-223.5 76.5t-81.5 199.5zM270 490q0 -160 67.5 -257t205.5 -97q87 0 146 40t97 112v488q-37 68 -97 107.5t-144 39.5 q-138 0 -206.5 -115.5t-68.5 -296.5v-21z" />
<glyph unicode="&#x120;" horiz-adv-x="1319" d="M78 702v23q0 216 79 378t216.5 253t311.5 91q167 0 283 -38t198 -103v-288h-159l-20 207q-96 64 -282 64q-123 0 -221 -70.5t-155 -196.5t-57 -295v-25q0 -171 52.5 -298t153.5 -197t245 -70q98 0 165.5 17.5t119.5 44.5v335l-273 10v142h466v-553q-61 -58 -176.5 -106 t-301.5 -48q-198 0 -343 92t-223.5 254.5t-78.5 376.5zM557 1610v207h203v-207h-203z" />
<glyph unicode="&#x121;" horiz-adv-x="1133" d="M76 490v21q0 170 50.5 298.5t145 199.5t225.5 71q197 0 302 -153l17 133h294v-123l-131 -29v-894q0 -206 -114.5 -324t-326.5 -118q-76 0 -165.5 21t-156.5 57l50 150q53 -28 126.5 -47t143.5 -19q129 0 189.5 72.5t60.5 207.5v101q-106 -136 -291 -136 q-129 0 -223.5 64.5t-145 179.5t-50.5 267zM270 490q0 -160 67.5 -257t205.5 -97q87 0 146 40t97 112v488q-37 68 -97 107.5t-144 39.5q-138 0 -206.5 -115.5t-68.5 -296.5v-21zM471 1322v207h203v-207h-203z" />
<glyph unicode="&#x122;" horiz-adv-x="1319" d="M78 702v23q0 216 79 378t216.5 253t311.5 91q167 0 283 -38t198 -103v-288h-159l-20 207q-96 64 -282 64q-123 0 -221 -70.5t-155 -196.5t-57 -295v-25q0 -171 52.5 -298t153.5 -197t245 -70q98 0 165.5 17.5t119.5 44.5v335l-273 10v142h466v-553q-61 -58 -176.5 -106 t-301.5 -48q-198 0 -343 92t-223.5 254.5t-78.5 376.5zM517 -454q35 49 52 98t17 114v88h176v-85q0 -179 -161 -287z" />
<glyph unicode="&#x123;" horiz-adv-x="1133" d="M76 490v21q0 170 50.5 298.5t145 199.5t225.5 71q197 0 302 -153l17 133h294v-123l-131 -29v-894q0 -206 -114.5 -324t-326.5 -118q-76 0 -165.5 21t-156.5 57l50 150q53 -28 126.5 -47t143.5 -19q129 0 189.5 72.5t60.5 207.5v101q-106 -136 -291 -136 q-129 0 -223.5 64.5t-145 179.5t-50.5 267zM270 490q0 -160 67.5 -257t205.5 -97q87 0 146 40t97 112v488q-37 68 -97 107.5t-144 39.5q-138 0 -206.5 -115.5t-68.5 -296.5v-21zM453 1273v85q0 180 161 287l84 -72q-35 -49 -51.5 -98t-16.5 -114v-88h-177z" />
<glyph unicode="&#x124;" horiz-adv-x="1546" d="M79 0v123l160 28v1124l-160 27v125h513v-125l-160 -27v-493h682v493l-159 27v125h512v-125l-160 -27v-1124l160 -28v-123h-512v123l159 28v479h-682v-479l160 -28v-123h-513zM472 1559v26l241 232h117l243 -233v-25h-158l-144 145l-142 -145h-157z" />
<glyph unicode="&#x125;" horiz-adv-x="1288" d="M11 1638v26l241 232h117l243 -233v-25h-158l-144 145l-142 -145h-157zM48 0v123l160 28v1226l-160 27v125h353v-610q55 77 134 119t176 42q171 0 265 -102t94 -314v-513l160 -28v-123h-513v123l160 28v515q0 257 -224 257q-80 0 -145 -37.5t-107 -102.5v-632l160 -28 v-123h-513z" />
<glyph unicode="&#x126;" horiz-adv-x="1546" d="M79 0v123l160 28v1124l-160 27v125h513v-125l-160 -27v-493h682v493l-159 27v125h512v-125l-160 -27v-1124l160 -28v-123h-512v123l159 28v479h-682v-479l160 -28v-123h-513zM91 936v142h1364v-142h-1364z" />
<glyph unicode="&#x127;" horiz-adv-x="1288" d="M48 0v123l160 28v1226l-160 27v125h353v-610q55 77 134 119t176 42q171 0 265 -102t94 -314v-513l160 -28v-123h-513v123l160 28v515q0 257 -224 257q-80 0 -145 -37.5t-107 -102.5v-632l160 -28v-123h-513zM48 1131v152h591v-152h-591z" />
<glyph unicode="&#x128;" horiz-adv-x="671" d="M-5 1588q0 63 27.5 115t73.5 84t103 32q44 0 94 -24.5t96.5 -49t80.5 -24.5q40 0 69 31.5t29 79.5l106 -28q0 -94 -59.5 -159t-144.5 -65q-48 0 -98 24t-95 48.5t-78 24.5q-41 0 -70 -32t-29 -78zM79 0v123l160 28v1124l-160 27v125h513v-125l-160 -27v-1124l160 -28 v-123h-513z" />
<glyph unicode="&#x129;" horiz-adv-x="638" d="M-23 1300q0 63 27.5 115t73.5 84t103 32q44 0 94 -24.5t96.5 -49t80.5 -24.5q40 0 69 31.5t29 79.5l106 -28q0 -94 -59.5 -159t-144.5 -65q-48 0 -98 24t-95 48.5t-78 24.5q-41 0 -70 -32t-29 -78zM66 0v123l159 28v757l-159 28v124h352v-909l160 -28v-123h-512z" />
<glyph unicode="&#x12a;" horiz-adv-x="671" d="M-19 1611v143h707v-143h-707zM79 0v123l160 28v1124l-160 27v125h513v-125l-160 -27v-1124l160 -28v-123h-513z" />
<glyph unicode="&#x12b;" horiz-adv-x="638" d="M-36 1323v143h707v-143h-707zM66 0v123l159 28v757l-159 28v124h352v-909l160 -28v-123h-512z" />
<glyph unicode="&#x12c;" horiz-adv-x="671" d="M30 1811l2 6h147q0 -71 38 -115t118 -44q78 0 116.5 44t38.5 115h148l2 -6q-1 -123 -82 -199.5t-223 -76.5t-223.5 76.5t-81.5 199.5zM79 0v123l160 28v1124l-160 27v125h513v-125l-160 -27v-1124l160 -28v-123h-513z" />
<glyph unicode="&#x12d;" horiz-adv-x="638" d="M13 1523l2 6h147q0 -71 38 -115t118 -44q78 0 116.5 44t38.5 115h148l2 -6q-1 -123 -82 -199.5t-223 -76.5t-223.5 76.5t-81.5 199.5zM66 0v123l159 28v757l-159 28v124h352v-909l160 -28v-123h-512z" />
<glyph unicode="&#x12e;" horiz-adv-x="671" d="M79 0v123l160 28v1124l-160 27v125h513v-125l-160 -27v-1124l160 -28v-123h-513zM279 -219q0 79 58.5 149t184.5 126l70 -56q-69 -51 -107.5 -97.5t-38.5 -99.5q0 -41 22 -64.5t72 -23.5q26 0 48.5 7.5t48.5 17.5l32 -120q-35 -19 -75.5 -31t-88.5 -12 q-103 0 -164.5 53.5t-61.5 150.5z" />
<glyph unicode="&#x12f;" horiz-adv-x="638" d="M66 0v123l159 28v757l-159 28v124h352v-909l160 -28v-123h-512zM215 1322v207h203v-207h-203zM265 -219q0 79 58.5 149t184.5 126l70 -56q-69 -51 -107.5 -97.5t-38.5 -99.5q0 -41 22 -64.5t72 -23.5q26 0 48.5 7.5t48.5 17.5l32 -120q-35 -19 -75.5 -31t-88.5 -12 q-103 0 -164.5 53.5t-61.5 150.5z" />
<glyph unicode="&#x130;" horiz-adv-x="671" d="M79 0v123l160 28v1124l-160 27v125h513v-125l-160 -27v-1124l160 -28v-123h-513zM233 1610v207h203v-207h-203z" />
<glyph unicode="&#x131;" horiz-adv-x="638" d="M66 0v123l159 28v757l-159 28v124h352v-909l160 -28v-123h-512z" />
<glyph unicode="&#x132;" horiz-adv-x="1808" d="M79 0v123l160 28v1124l-160 27v125h513v-125l-160 -27v-1124l160 -28v-123h-513zM708 407l2 6h185q4 -144 66 -212t178 -68q122 0 178.5 76t56.5 196v870l-190 25v127h543v-125l-160 -27v-870q0 -192 -108 -309t-317 -117q-119 0 -215.5 47.5t-154.5 142.5t-64 238z" />
<glyph unicode="&#x133;" horiz-adv-x="1219" d="M66 0v123l159 28v757l-159 28v124h352v-909l160 -28v-123h-512zM215 1322v207h203v-207h-203zM605 -411l13 147q14 -5 46.5 -8.5t50.5 -3.5q58 0 91.5 50.5t33.5 138.5v995l-159 28v124h352v-1147q0 -164 -84 -252.5t-234 -88.5q-31 0 -56.5 4.5t-53.5 12.5zM830 1322 v207h203v-207h-203z" />
<glyph unicode="&#x134;" horiz-adv-x="1145" d="M59 407l2 6h185q4 -144 66 -212t178 -68q122 0 178.5 76t56.5 196v870l-190 25v127h543v-125l-160 -27v-870q0 -192 -108 -309t-317 -117q-119 0 -215.5 47.5t-154.5 142.5t-64 238zM517 1559v26l241 232h117l243 -233v-25h-158l-144 145l-142 -145h-157z" />
<glyph unicode="&#x135;" horiz-adv-x="514" d="M-55 -411l13 147q14 -5 46.5 -8.5t50.5 -3.5q58 0 91.5 50.5t33.5 138.5v995l-159 28v124h352v-1147q0 -164 -84 -252.5t-234 -88.5q-31 0 -56.5 4.5t-53.5 12.5zM-29 1271v26l241 232h117l243 -233v-25h-158l-144 145l-142 -145h-157z" />
<glyph unicode="&#x136;" horiz-adv-x="1470" d="M79 0v123l160 28v1124l-160 27v125h513v-125l-160 -27v-613l561 622l4 5l-107 13v125h458v-125l-135 -24l-436 -474l490 -656l131 -25v-123h-476v123l118 14l-1 1l-383 532l-224 -243v-276l160 -28v-123h-513zM594 -454q35 49 52 98t17 114v88h176v-85q0 -179 -161 -287z " />
<glyph unicode="&#x137;" horiz-adv-x="1261" d="M63 0v123l159 28v1226l-159 27v125h353v-985l375 373l5 6l-114 13v124h457v-124l-136 -26l-298 -299l365 -464l153 -24v-123h-479v123l108 13l-3 4l-269 346l-164 -166v-169l159 -28v-123h-512zM489 -454q35 49 52 98t17 114v88h176v-85q0 -179 -161 -287z" />
<glyph unicode="&#x138;" horiz-adv-x="1231" d="M63 0v123l159 28v757l-159 28v124h353v-516l375 373l5 6l-114 13v124h457v-124l-136 -26l-300 -301l342 -462l117 -24v-123h-232l-352 484l-162 -164v-169l159 -28v-123h-512z" />
<glyph unicode="&#x139;" horiz-adv-x="1185" d="M79 0v123l160 28v1124l-160 27v125h513v-125l-160 -27v-1127h505l22 225h148v-373h-1028zM227 1550l181 267h225l2 -6l-264 -261h-144z" />
<glyph unicode="&#x13a;" horiz-adv-x="639" d="M63 0v123l159 28v1226l-159 27v125h353v-1378l159 -28v-123h-512zM202 1629l181 267h225l2 -6l-264 -261h-144z" />
<glyph unicode="&#x13b;" horiz-adv-x="1185" d="M79 0v123l160 28v1124l-160 27v125h513v-125l-160 -27v-1127h505l22 225h148v-373h-1028zM451 -454q35 49 52 98t17 114v88h176v-85q0 -179 -161 -287z" />
<glyph unicode="&#x13c;" horiz-adv-x="639" d="M63 0v123l159 28v1226l-159 27v125h353v-1378l159 -28v-123h-512zM178 -454q35 49 52 98t17 114v88h176v-85q0 -179 -161 -287z" />
<glyph unicode="&#x13d;" horiz-adv-x="1185" d="M79 0v123l160 28v1124l-160 27v125h513v-125l-160 -27v-1127h505l22 225h148v-373h-1028zM869 1127q35 49 52 98t17 114v88h176v-85q0 -180 -161 -288z" />
<glyph unicode="&#x13e;" horiz-adv-x="639" d="M63 0v123l159 28v1226l-159 27v125h353v-1378l159 -28v-123h-512zM481 1229q35 49 52 98t17 114v88h176v-85q0 -180 -161 -288z" />
<glyph unicode="&#x13f;" horiz-adv-x="1185" d="M79 0v123l160 28v1124l-160 27v125h513v-125l-160 -27v-1127h505l22 225h148v-373h-1028zM880 617v198h193v-198h-193z" />
<glyph unicode="&#x140;" horiz-adv-x="639" d="M63 0v123l159 28v1226l-159 27v125h353v-1378l159 -28v-123h-512zM562 617v198h193v-198h-193z" />
<glyph unicode="&#x141;" horiz-adv-x="1185" d="M79 0v123l160 28v1124l-160 27v125h513v-125l-160 -27v-1127h505l22 225h148v-373h-1028zM84 565v162l577 183v-161z" />
<glyph unicode="&#x142;" horiz-adv-x="639" d="M63 0v123l159 28v1226l-159 27v125h353v-1378l159 -28v-123h-512zM80 565v162l480 183v-161z" />
<glyph unicode="&#x143;" horiz-adv-x="1560" d="M81 0v123l160 28v1124l-160 27v125h355l700 -1112l6 2v958l-176 27v125h513v-125l-160 -27v-1275h-176l-719 1118l-6 -2v-965l176 -28v-123h-513zM661 1550l181 267h225l2 -6l-264 -261h-144z" />
<glyph unicode="&#x144;" horiz-adv-x="1316" d="M73 0v123l159 28v757l-159 28v124h332l13 -157q53 84 133 130.5t182 46.5q172 0 266 -100.5t94 -310.5v-518l159 -28v-123h-512v123l160 28v514q0 141 -55.5 199.5t-169.5 58.5q-83 0 -147 -40t-103 -110v-622l160 -28v-123h-512zM543 1262l181 267h225l2 -6l-264 -261 h-144z" />
<glyph unicode="&#x145;" horiz-adv-x="1560" d="M81 0v123l160 28v1124l-160 27v125h355l700 -1112l6 2v958l-176 27v125h513v-125l-160 -27v-1275h-176l-719 1118l-6 -2v-965l176 -28v-123h-513zM638 -454q35 49 52 98t17 114v88h176v-85q0 -179 -161 -287z" />
<glyph unicode="&#x146;" horiz-adv-x="1316" d="M73 0v123l159 28v757l-159 28v124h332l13 -157q53 84 133 130.5t182 46.5q172 0 266 -100.5t94 -310.5v-518l159 -28v-123h-512v123l160 28v514q0 141 -55.5 199.5t-169.5 58.5q-83 0 -147 -40t-103 -110v-622l160 -28v-123h-512zM519 -454q35 49 52 98t17 114v88h176 v-85q0 -179 -161 -287z" />
<glyph unicode="&#x147;" horiz-adv-x="1560" d="M81 0v123l160 28v1124l-160 27v125h355l700 -1112l6 2v958l-176 27v125h513v-125l-160 -27v-1275h-176l-719 1118l-6 -2v-965l176 -28v-123h-513zM479 1792v25h158l144 -145l142 145h157v-26l-241 -232h-117z" />
<glyph unicode="&#x148;" horiz-adv-x="1316" d="M73 0v123l159 28v757l-159 28v124h332l13 -157q53 84 133 130.5t182 46.5q172 0 266 -100.5t94 -310.5v-518l159 -28v-123h-512v123l160 28v514q0 141 -55.5 199.5t-169.5 58.5q-83 0 -147 -40t-103 -110v-622l160 -28v-123h-512zM360 1504v25h158l144 -145l142 145h157 v-26l-241 -232h-117z" />
<glyph unicode="&#x149;" horiz-adv-x="1316" d="M66 1229q35 49 52 98t17 114v88h176v-85q0 -179 -161 -287zM73 0v123l159 28v757l-159 28v124h332l13 -157q53 84 133 130.5t182 46.5q172 0 266 -100.5t94 -310.5v-518l159 -28v-123h-512v123l160 28v514q0 141 -55.5 199.5t-169.5 58.5q-83 0 -147 -40t-103 -110v-622 l160 -28v-123h-512z" />
<glyph unicode="&#x14a;" horiz-adv-x="1527" d="M69 0v123l159 28v1124l-159 27v125h352l686 -1090l6 2v936l-159 27v125h512v-125l-160 -27v-1362q0 -164 -84 -252.5t-235 -88.5q-31 0 -56 4.5t-54 12.5l14 147q13 -5 46 -8.5t50 -3.5q60 0 93 50.5t33 138.5v87l-686 1090l-6 -2v-937l160 -28v-123h-512z" />
<glyph unicode="&#x14b;" horiz-adv-x="1237" d="M88 0v123l160 28v757l-160 28v124h332l13 -146q53 79 131.5 122.5t176.5 43.5q170 0 265 -100.5t95 -310.5v-756q0 -164 -85 -252.5t-235 -88.5q-31 0 -57 4.5t-54 12.5l14 157q13 -5 46 -8.5t51 -3.5q60 0 93 46.5t33 132.5v752q0 141 -55.5 199.5t-170.5 58.5 q-83 0 -143 -32t-97 -89v-651l160 -28v-123h-513z" />
<glyph unicode="&#x14c;" horiz-adv-x="1323" d="M69 703v20q0 213 71 376t204 255.5t318 92.5q195 0 326.5 -92.5t199 -255.5t67.5 -376v-20q0 -213 -67.5 -376t-199 -255.5t-326.5 -92.5q-185 0 -317.5 92.5t-204 255.5t-71.5 376zM263 703q0 -167 46 -294t135 -198t218 -71q142 0 229.5 70.5t128.5 197.5t41 295v22 q0 167 -41.5 293t-129.5 197t-228 71q-129 0 -218 -71.5t-135 -197.5t-46 -292v-22zM309 1611v143h707v-143h-707z" />
<glyph unicode="&#x14d;" horiz-adv-x="1101" d="M76 518v22q0 157 58 279t164.5 191.5t251.5 69.5q147 0 253 -69.5t164 -191t58 -279.5v-22q0 -157 -58 -279t-163.5 -191t-251.5 -69q-147 0 -253.5 69.5t-164.5 191.5t-58 278zM197 1323v143h707v-143h-707zM270 518q0 -168 71 -278t211 -110q137 0 208.5 110t71.5 278 v22q0 112 -32 199.5t-94.5 138t-155.5 50.5q-92 0 -155 -50.5t-94 -138t-31 -199.5v-22z" />
<glyph unicode="&#x14e;" horiz-adv-x="1323" d="M69 703v20q0 213 71 376t204 255.5t318 92.5q195 0 326.5 -92.5t199 -255.5t67.5 -376v-20q0 -213 -67.5 -376t-199 -255.5t-326.5 -92.5q-185 0 -317.5 92.5t-204 255.5t-71.5 376zM263 703q0 -167 46 -294t135 -198t218 -71q142 0 229.5 70.5t128.5 197.5t41 295v22 q0 167 -41.5 293t-129.5 197t-228 71q-129 0 -218 -71.5t-135 -197.5t-46 -292v-22zM357 1811l2 6h147q0 -71 38 -115t118 -44q78 0 116.5 44t38.5 115h148l2 -6q-1 -123 -82 -199.5t-223 -76.5t-223.5 76.5t-81.5 199.5z" />
<glyph unicode="&#x14f;" horiz-adv-x="1101" d="M76 518v22q0 157 58 279t164.5 191.5t251.5 69.5q147 0 253 -69.5t164 -191t58 -279.5v-22q0 -157 -58 -279t-163.5 -191t-251.5 -69q-147 0 -253.5 69.5t-164.5 191.5t-58 278zM246 1523l2 6h147q0 -71 38 -115t118 -44q78 0 116.5 44t38.5 115h148l2 -6 q-1 -123 -82 -199.5t-223 -76.5t-223.5 76.5t-81.5 199.5zM270 518q0 -168 71 -278t211 -110q137 0 208.5 110t71.5 278v22q0 112 -32 199.5t-94.5 138t-155.5 50.5q-92 0 -155 -50.5t-94 -138t-31 -199.5v-22z" />
<glyph unicode="&#x150;" horiz-adv-x="1323" d="M69 703v20q0 213 71 376t204 255.5t318 92.5q195 0 326.5 -92.5t199 -255.5t67.5 -376v-20q0 -213 -67.5 -376t-199 -255.5t-326.5 -92.5q-185 0 -317.5 92.5t-204 255.5t-71.5 376zM263 703q0 -167 46 -294t135 -198t218 -71q142 0 229.5 70.5t128.5 197.5t41 295v22 q0 167 -41.5 293t-129.5 197t-228 71q-129 0 -218 -71.5t-135 -197.5t-46 -292v-22zM388 1550l181 267h206l2 -5l-235 -262h-154zM652 1555l236 262h223l3 -6l-293 -261h-167z" />
<glyph unicode="&#x151;" horiz-adv-x="1101" d="M76 518v22q0 157 58 279t164.5 191.5t251.5 69.5q147 0 253 -69.5t164 -191t58 -279.5v-22q0 -157 -58 -279t-163.5 -191t-251.5 -69q-147 0 -253.5 69.5t-164.5 191.5t-58 278zM270 518q0 -168 71 -278t211 -110q137 0 208.5 110t71.5 278v22q0 112 -32 199.5t-94.5 138 t-155.5 50.5q-92 0 -155 -50.5t-94 -138t-31 -199.5v-22zM276 1262l181 267h206l2 -5l-235 -262h-154zM540 1267l236 262h223l3 -6l-293 -261h-167z" />
<glyph unicode="&#x152;" horiz-adv-x="1947" d="M69 703v20q0 213 73.5 376t215 255.5t343.5 92.5q90 0 198 -20h924v-343h-166l-15 191h-562v-462h546v-151h-546v-511h573l16 191h165v-342h-934q-109 -21 -199 -21q-202 0 -343 92.5t-215 255.5t-74 376zM263 703q0 -167 48.5 -294t146 -198t243.5 -71q93 0 186 26v1093 q-94 27 -186 27q-146 0 -243.5 -71.5t-146 -197.5t-48.5 -292v-22z" />
<glyph unicode="&#x153;" horiz-adv-x="1808" d="M76 518v22q0 157 57.5 279t164 191.5t251.5 69.5q127 0 225.5 -54t161.5 -151q63 96 158.5 150.5t202.5 54.5q213 0 323.5 -129.5t110.5 -344.5v-121h-688l-3 -5q3 -153 77 -251.5t209 -98.5q98 0 172 28t128 77l75 -125q-58 -56 -150.5 -93.5t-224.5 -37.5 q-129 0 -229 52t-163 147q-63 -95 -160.5 -147t-222.5 -52q-146 0 -253 69.5t-164.5 191.5t-57.5 278zM270 518q0 -168 70.5 -278t210.5 -110q138 0 209.5 110t71.5 278v22q0 112 -32.5 199.5t-95 138t-155.5 50.5q-92 0 -154.5 -50.5t-93.5 -138t-31 -199.5v-22zM1047 641 l2 -5h489v26q0 113 -61 189.5t-180 76.5q-97 0 -166 -82t-84 -205z" />
<glyph unicode="&#x154;" horiz-adv-x="1357" d="M79 0v123l160 28v1124l-160 27v124h636q234 0 358.5 -103.5t124.5 -293.5q0 -147 -73.5 -238t-205.5 -126l241 -521l99 -18v-126h-238l-286 643l-303 -6v-486l160 -28v-123h-513zM432 789h264q162 0 235 61.5t73 180.5q0 113 -70.5 178.5t-218.5 65.5h-283v-486z M560 1550l181 267h225l2 -6l-264 -261h-144z" />
<glyph unicode="&#x155;" horiz-adv-x="836" d="M71 0v123l159 28v757l-159 28v124h332l16 -135l2 -19q45 82 111.5 128t151.5 46q30 0 62 -5.5t46 -10.5l-26 -179l-134 8q-76 5 -128 -35t-81 -106v-601l160 -28v-123h-512zM323 1262l181 267h225l2 -6l-264 -261h-144z" />
<glyph unicode="&#x156;" horiz-adv-x="1357" d="M79 0v123l160 28v1124l-160 27v124h636q234 0 358.5 -103.5t124.5 -293.5q0 -147 -73.5 -238t-205.5 -126l241 -521l99 -18v-126h-238l-286 643l-303 -6v-486l160 -28v-123h-513zM432 789h264q162 0 235 61.5t73 180.5q0 113 -70.5 178.5t-218.5 65.5h-283v-486z M537 -454q35 49 52 98t17 114v88h176v-85q0 -179 -161 -287z" />
<glyph unicode="&#x157;" horiz-adv-x="836" d="M71 0v123l159 28v757l-159 28v124h332l16 -135l2 -19q45 82 111.5 128t151.5 46q30 0 62 -5.5t46 -10.5l-26 -179l-134 8q-76 5 -128 -35t-81 -106v-601l160 -28v-123h-512zM192 -454q35 49 52 98t17 114v88h176v-85q0 -179 -161 -287z" />
<glyph unicode="&#x158;" horiz-adv-x="1357" d="M79 0v123l160 28v1124l-160 27v124h636q234 0 358.5 -103.5t124.5 -293.5q0 -147 -73.5 -238t-205.5 -126l241 -521l99 -18v-126h-238l-286 643l-303 -6v-486l160 -28v-123h-513zM378 1792v25h158l144 -145l142 145h157v-26l-241 -232h-117zM432 789h264q162 0 235 61.5 t73 180.5q0 113 -70.5 178.5t-218.5 65.5h-283v-486z" />
<glyph unicode="&#x159;" horiz-adv-x="836" d="M71 0v123l159 28v757l-159 28v124h332l16 -135l2 -19q45 82 111.5 128t151.5 46q30 0 62 -5.5t46 -10.5l-26 -179l-134 8q-76 5 -128 -35t-81 -106v-601l160 -28v-123h-512zM141 1504v25h158l144 -145l142 145h157v-26l-241 -232h-117z" />
<glyph unicode="&#x15a;" horiz-adv-x="1181" d="M113 135v305h150l32 -224q64 -40 138.5 -61.5t160.5 -21.5q146 0 226.5 65.5t80.5 170.5q0 98 -72.5 163t-259.5 107q-221 51 -337.5 155.5t-116.5 262.5q0 112 59 200.5t165 139t247 50.5q150 0 265 -45.5t190 -109.5v-286h-150l-33 204q-44 36 -109.5 59.5t-162.5 23.5 q-124 0 -201 -64t-77 -169q0 -92 73.5 -150t254.5 -103q225 -56 341.5 -165.5t116.5 -270.5q0 -114 -62 -203t-174 -139t-264 -50q-130 0 -251 38.5t-230 117.5zM472 1550l181 267h225l2 -6l-264 -261h-144z" />
<glyph unicode="&#x15b;" horiz-adv-x="1001" d="M102 319h146l36 -151q104 -44 218 -44q117 0 168 45.5t51 111.5q0 63 -51.5 106.5t-186.5 74.5q-192 44 -282.5 118t-90.5 197q0 86 50 154.5t139 108.5t208 40q120 0 206 -27.5t149 -73.5l10 -242h-145l-31 141q-34 26 -81.5 39.5t-107.5 13.5q-91 0 -147 -42t-56 -106 q0 -37 16 -64.5t62 -49.5t135 -44q222 -52 309.5 -132t87.5 -198q0 -134 -99.5 -225t-312.5 -91q-107 0 -200 22t-198 67zM382 1262l181 267h225l2 -6l-264 -261h-144z" />
<glyph unicode="&#x15c;" horiz-adv-x="1181" d="M113 135v305h150l32 -224q64 -40 138.5 -61.5t160.5 -21.5q146 0 226.5 65.5t80.5 170.5q0 98 -72.5 163t-259.5 107q-221 51 -337.5 155.5t-116.5 262.5q0 112 59 200.5t165 139t247 50.5q150 0 265 -45.5t190 -109.5v-286h-150l-33 204q-44 36 -109.5 59.5t-162.5 23.5 q-124 0 -201 -64t-77 -169q0 -92 73.5 -150t254.5 -103q225 -56 341.5 -165.5t116.5 -270.5q0 -114 -62 -203t-174 -139t-264 -50q-130 0 -251 38.5t-230 117.5zM290 1559v26l241 232h117l243 -233v-25h-158l-144 145l-142 -145h-157z" />
<glyph unicode="&#x15d;" horiz-adv-x="1001" d="M102 319h146l36 -151q104 -44 218 -44q117 0 168 45.5t51 111.5q0 63 -51.5 106.5t-186.5 74.5q-192 44 -282.5 118t-90.5 197q0 86 50 154.5t139 108.5t208 40q120 0 206 -27.5t149 -73.5l10 -242h-145l-31 141q-34 26 -81.5 39.5t-107.5 13.5q-91 0 -147 -42t-56 -106 q0 -37 16 -64.5t62 -49.5t135 -44q222 -52 309.5 -132t87.5 -198q0 -134 -99.5 -225t-312.5 -91q-107 0 -200 22t-198 67zM200 1271v26l241 232h117l243 -233v-25h-158l-144 145l-142 -145h-157z" />
<glyph unicode="&#x15e;" horiz-adv-x="1181" d="M113 135v305h150l32 -224q64 -40 138.5 -61.5t160.5 -21.5q146 0 226.5 65.5t80.5 170.5q0 98 -72.5 163t-259.5 107q-221 51 -337.5 155.5t-116.5 262.5q0 112 59 200.5t165 139t247 50.5q150 0 265 -45.5t190 -109.5v-286h-150l-33 204q-44 36 -109.5 59.5t-162.5 23.5 q-124 0 -201 -64t-77 -169q0 -92 73.5 -150t254.5 -103q225 -56 341.5 -165.5t116.5 -270.5q0 -114 -62 -203t-174 -139t-264 -50q-130 0 -251 38.5t-230 117.5zM490 -138l39 169h139l-20 -88q65 -11 107 -50t42 -116q0 -93 -77.5 -148t-221.5 -55l-7 107q71 0 113.5 23.5 t42.5 69.5t-35.5 63.5t-121.5 24.5z" />
<glyph unicode="&#x15f;" horiz-adv-x="1001" d="M102 319h146l36 -151q104 -44 218 -44q117 0 168 45.5t51 111.5q0 63 -51.5 106.5t-186.5 74.5q-192 44 -282.5 118t-90.5 197q0 86 50 154.5t139 108.5t208 40q120 0 206 -27.5t149 -73.5l10 -242h-145l-31 141q-34 26 -81.5 39.5t-107.5 13.5q-91 0 -147 -42t-56 -106 q0 -37 16 -64.5t62 -49.5t135 -44q222 -52 309.5 -132t87.5 -198q0 -134 -99.5 -225t-312.5 -91q-107 0 -200 22t-198 67zM400 -138l39 169h139l-20 -88q65 -11 107 -50t42 -116q0 -93 -77.5 -148t-221.5 -55l-7 107q71 0 113.5 23.5t42.5 69.5t-35.5 63.5t-121.5 24.5z" />
<glyph unicode="&#x160;" horiz-adv-x="1181" d="M113 135v305h150l32 -224q64 -40 138.5 -61.5t160.5 -21.5q146 0 226.5 65.5t80.5 170.5q0 98 -72.5 163t-259.5 107q-221 51 -337.5 155.5t-116.5 262.5q0 112 59 200.5t165 139t247 50.5q150 0 265 -45.5t190 -109.5v-286h-150l-33 204q-44 36 -109.5 59.5t-162.5 23.5 q-124 0 -201 -64t-77 -169q0 -92 73.5 -150t254.5 -103q225 -56 341.5 -165.5t116.5 -270.5q0 -114 -62 -203t-174 -139t-264 -50q-130 0 -251 38.5t-230 117.5zM290 1792v25h158l144 -145l142 145h157v-26l-241 -232h-117z" />
<glyph unicode="&#x161;" horiz-adv-x="1001" d="M102 319h146l36 -151q104 -44 218 -44q117 0 168 45.5t51 111.5q0 63 -51.5 106.5t-186.5 74.5q-192 44 -282.5 118t-90.5 197q0 86 50 154.5t139 108.5t208 40q120 0 206 -27.5t149 -73.5l10 -242h-145l-31 141q-34 26 -81.5 39.5t-107.5 13.5q-91 0 -147 -42t-56 -106 q0 -37 16 -64.5t62 -49.5t135 -44q222 -52 309.5 -132t87.5 -198q0 -134 -99.5 -225t-312.5 -91q-107 0 -200 22t-198 67zM200 1504v25h158l144 -145l142 145h157v-26l-241 -232h-117z" />
<glyph unicode="&#x162;" horiz-adv-x="1377" d="M94 1083v344h1186v-344h-143l-30 198h-323v-1130l160 -28v-123h-513v123l160 28v1130h-323l-29 -198h-145zM588 -138l39 169h139l-20 -88q65 -11 107 -50t42 -116q0 -93 -77.5 -148t-221.5 -55l-7 107q71 0 113.5 23.5t42.5 69.5t-35.5 63.5t-121.5 24.5z" />
<glyph unicode="&#x163;" horiz-adv-x="715" d="M24 917v143h167v256h193v-256h230v-143h-230v-644q0 -76 30.5 -112.5t81.5 -36.5q34 0 76 6.5t66 11.5l26 -126q-42 -13 -103 -23t-114 -10q-118 0 -187 69.5t-69 220.5v644h-167zM303 -138l39 169h139l-20 -88q65 -11 107 -50t42 -116q0 -93 -77.5 -148t-221.5 -55 l-7 107q71 0 113.5 23.5t42.5 69.5t-35.5 63.5t-121.5 24.5z" />
<glyph unicode="&#x164;" horiz-adv-x="1377" d="M94 1083v344h1186v-344h-143l-30 198h-323v-1130l160 -28v-123h-513v123l160 28v1130h-323l-29 -198h-145zM388 1792v25h158l144 -145l142 145h157v-26l-241 -232h-117z" />
<glyph unicode="&#x165;" horiz-adv-x="715" d="M24 917v143h167v256h193v-256h230v-143h-230v-644q0 -76 30.5 -112.5t81.5 -36.5q34 0 76 6.5t66 11.5l26 -126q-42 -13 -103 -23t-114 -10q-118 0 -187 69.5t-69 220.5v644h-167zM481 1229q35 49 52 98t17 114v88h176v-85q0 -180 -161 -288z" />
<glyph unicode="&#x166;" horiz-adv-x="1377" d="M94 1083v344h1186v-344h-143l-30 198h-323v-1130l160 -28v-123h-513v123l160 28v1130h-323l-29 -198h-145zM393 638v152h591v-152h-591z" />
<glyph unicode="&#x167;" horiz-adv-x="715" d="M22 577v152h591v-152h-591zM24 917v143h167v256h193v-256h230v-143h-230v-644q0 -76 30.5 -112.5t81.5 -36.5q34 0 76 6.5t66 11.5l26 -126q-42 -13 -103 -23t-114 -10q-118 0 -187 69.5t-69 220.5v644h-167z" />
<glyph unicode="&#x168;" horiz-adv-x="1491" d="M69 1302v125h512v-125l-160 -27v-815q0 -160 89.5 -243t232.5 -83q144 0 235.5 81.5t91.5 244.5v815l-160 27v125h513v-125l-160 -27v-815q0 -233 -143.5 -357t-379.5 -124q-147 0 -262.5 58t-182.5 165.5t-67 257.5v815zM406 1588q0 63 27.5 115t73.5 84t103 32 q44 0 94 -24.5t96.5 -49t80.5 -24.5q40 0 69 31.5t29 79.5l106 -28q0 -94 -59.5 -159t-144.5 -65q-48 0 -98 24t-95 48.5t-78 24.5q-41 0 -70 -32t-29 -78z" />
<glyph unicode="&#x169;" horiz-adv-x="1220" d="M51 936v124h315v-627q0 -169 50 -233t155 -64q103 0 170 42t102 118v612l-142 28v124h335v-909l121 -28v-123h-295l-12 157q-50 -85 -129 -131.5t-182 -46.5q-172 0 -269.5 111t-97.5 345v473zM254 1300q0 63 27.5 115t73.5 84t103 32q44 0 94 -24.5t96.5 -49t80.5 -24.5 q40 0 69 31.5t29 79.5l106 -28q0 -94 -59.5 -159t-144.5 -65q-48 0 -98 24t-95 48.5t-78 24.5q-41 0 -70 -32t-29 -78z" />
<glyph unicode="&#x16a;" horiz-adv-x="1491" d="M69 1302v125h512v-125l-160 -27v-815q0 -160 89.5 -243t232.5 -83q144 0 235.5 81.5t91.5 244.5v815l-160 27v125h513v-125l-160 -27v-815q0 -233 -143.5 -357t-379.5 -124q-147 0 -262.5 58t-182.5 165.5t-67 257.5v815zM392 1611v143h707v-143h-707z" />
<glyph unicode="&#x16b;" horiz-adv-x="1220" d="M51 936v124h315v-627q0 -169 50 -233t155 -64q103 0 170 42t102 118v612l-142 28v124h335v-909l121 -28v-123h-295l-12 157q-50 -85 -129 -131.5t-182 -46.5q-172 0 -269.5 111t-97.5 345v473zM240 1323v143h707v-143h-707z" />
<glyph unicode="&#x16c;" horiz-adv-x="1491" d="M69 1302v125h512v-125l-160 -27v-815q0 -160 89.5 -243t232.5 -83q144 0 235.5 81.5t91.5 244.5v815l-160 27v125h513v-125l-160 -27v-815q0 -233 -143.5 -357t-379.5 -124q-147 0 -262.5 58t-182.5 165.5t-67 257.5v815zM441 1811l2 6h147q0 -71 38 -115t118 -44 q78 0 116.5 44t38.5 115h148l2 -6q-1 -123 -82 -199.5t-223 -76.5t-223.5 76.5t-81.5 199.5z" />
<glyph unicode="&#x16d;" horiz-adv-x="1220" d="M51 936v124h315v-627q0 -169 50 -233t155 -64q103 0 170 42t102 118v612l-142 28v124h335v-909l121 -28v-123h-295l-12 157q-50 -85 -129 -131.5t-182 -46.5q-172 0 -269.5 111t-97.5 345v473zM289 1523l2 6h147q0 -71 38 -115t118 -44q78 0 116.5 44t38.5 115h148l2 -6 q-1 -123 -82 -199.5t-223 -76.5t-223.5 76.5t-81.5 199.5z" />
<glyph unicode="&#x16e;" horiz-adv-x="1491" d="M69 1302v125h512v-125l-160 -27v-815q0 -160 89.5 -243t232.5 -83q144 0 235.5 81.5t91.5 244.5v815l-160 27v125h513v-125l-160 -27v-815q0 -233 -143.5 -357t-379.5 -124q-147 0 -262.5 58t-182.5 165.5t-67 257.5v815zM543 1679q0 82 59.5 138t144.5 56 q83 0 142 -55.5t59 -138.5q0 -85 -59 -138t-142 -53q-85 0 -144.5 53t-59.5 138zM644 1679q0 -43 30.5 -72.5t72.5 -29.5q41 0 70.5 29t29.5 73t-29.5 74t-70.5 30q-43 0 -73 -30t-30 -74z" />
<glyph unicode="&#x16f;" horiz-adv-x="1220" d="M51 936v124h315v-627q0 -169 50 -233t155 -64q103 0 170 42t102 118v612l-142 28v124h335v-909l121 -28v-123h-295l-12 157q-50 -85 -129 -131.5t-182 -46.5q-172 0 -269.5 111t-97.5 345v473zM391 1391q0 82 59.5 138t144.5 56q83 0 142 -55.5t59 -138.5q0 -85 -59 -138 t-142 -53q-85 0 -144.5 53t-59.5 138zM492 1391q0 -43 30.5 -72.5t72.5 -29.5q41 0 70.5 29t29.5 73t-29.5 74t-70.5 30q-43 0 -73 -30t-30 -74z" />
<glyph unicode="&#x170;" horiz-adv-x="1491" d="M69 1302v125h512v-125l-160 -27v-815q0 -160 89.5 -243t232.5 -83q144 0 235.5 81.5t91.5 244.5v815l-160 27v125h513v-125l-160 -27v-815q0 -233 -143.5 -357t-379.5 -124q-147 0 -262.5 58t-182.5 165.5t-67 257.5v815zM471 1550l181 267h206l2 -5l-235 -262h-154z M735 1555l236 262h223l3 -6l-293 -261h-167z" />
<glyph unicode="&#x171;" horiz-adv-x="1220" d="M51 936v124h315v-627q0 -169 50 -233t155 -64q103 0 170 42t102 118v612l-142 28v124h335v-909l121 -28v-123h-295l-12 157q-50 -85 -129 -131.5t-182 -46.5q-172 0 -269.5 111t-97.5 345v473zM319 1262l181 267h206l2 -5l-235 -262h-154zM583 1267l236 262h223l3 -6 l-293 -261h-167z" />
<glyph unicode="&#x172;" horiz-adv-x="1491" d="M69 1302v125h512v-125l-160 -27v-815q0 -160 89.5 -243t232.5 -83q144 0 235.5 81.5t91.5 244.5v815l-160 27v125h513v-125l-160 -27v-815q0 -233 -143.5 -357t-379.5 -124q-147 0 -262.5 58t-182.5 165.5t-67 257.5v815zM573 -219q0 79 58.5 149t184.5 126l70 -56 q-69 -51 -107.5 -97.5t-38.5 -99.5q0 -41 22 -64.5t72 -23.5q26 0 48.5 7.5t48.5 17.5l32 -120q-35 -19 -75.5 -31t-88.5 -12q-103 0 -164.5 53.5t-61.5 150.5z" />
<glyph unicode="&#x173;" horiz-adv-x="1220" d="M51 936v124h315v-627q0 -169 50 -233t155 -64q103 0 170 42t102 118v612l-142 28v124h335v-909l121 -28v-123h-295l-12 157q-50 -85 -129 -131.5t-182 -46.5q-172 0 -269.5 111t-97.5 345v473zM845 -219q0 79 58.5 149t184.5 126l70 -56q-69 -51 -107.5 -97.5 t-38.5 -99.5q0 -41 22 -64.5t72 -23.5q26 0 48.5 7.5t48.5 17.5l32 -120q-35 -19 -75.5 -31t-88.5 -12q-103 0 -164.5 53.5t-61.5 150.5z" />
<glyph unicode="&#x174;" horiz-adv-x="2086" d="M71 1302v125h462v-125l-148 -22l186 -785l43 -183l6 -1l57 183l287 933h170l290 -933l56 -194h6l51 194l184 786l-160 22v125h455v-125l-113 -14l-319 -1288h-184l-309 988l-39 144h-6l-39 -144l-310 -988h-173l-333 1288zM743 1559v26l241 232h117l243 -233v-25h-158 l-144 145l-142 -145h-157z" />
<glyph unicode="&#x175;" horiz-adv-x="1786" d="M51 936v124h438v-124l-130 -22l146 -528l33 -125h6l43 125l230 674h163l220 -672l47 -149h5l46 149l148 527l-133 21v124h428v-124l-117 -17l-275 -919h-183l-214 637l-51 171l-6 -1l-50 -170l-231 -637h-165l-279 922zM593 1271v26l241 232h117l243 -233v-25h-158 l-144 145l-142 -145h-157z" />
<glyph unicode="&#x176;" horiz-adv-x="1431" d="M64 1302v125h492v-125l-163 -18l303 -561l20 -38l1 2l20 36l317 561l-168 18v125h482v-125l-124 -18l-432 -750v-383l160 -28v-123h-511v123l159 28v368l-439 765zM415 1559v26l241 232h117l243 -233v-25h-158l-144 145l-142 -145h-157z" />
<glyph unicode="&#x177;" horiz-adv-x="1168" d="M24 936v124h444v-124l-128 -20l207 -530l50 -138h6l245 668l-136 20v124h437v-124l-110 -16l-418 -1083q-44 -115 -117.5 -190t-200.5 -75q-23 0 -59 5.5t-56 9.5l20 152q16 -2 45.5 -3.5t40.5 -1.5q62 0 100.5 47t71.5 129l47 112l-376 898zM283 1271v26l241 232h117 l243 -233v-25h-158l-144 145l-142 -145h-157z" />
<glyph unicode="&#x178;" horiz-adv-x="1431" d="M64 1302v125h492v-125l-163 -18l303 -561l20 -38l1 2l20 36l317 561l-168 18v125h482v-125l-124 -18l-432 -750v-383l160 -28v-123h-511v123l159 28v368l-439 765zM407 1610v207h203v-207h-203zM822 1610v207h203v-207h-203z" />
<glyph unicode="&#x179;" horiz-adv-x="1173" d="M88 0v146l742 1130h-555l-17 -184h-155v335h950v-142l-746 -1135h606l18 203h154v-353h-997zM455 1550l181 267h225l2 -6l-264 -261h-144z" />
<glyph unicode="&#x17a;" horiz-adv-x="1011" d="M86 0v135l577 776h-394l-25 -178h-145v327h804v-131l-584 -782h452l26 179h144v-326h-855zM387 1262l181 267h225l2 -6l-264 -261h-144z" />
<glyph unicode="&#x17b;" horiz-adv-x="1173" d="M88 0v146l742 1130h-555l-17 -184h-155v335h950v-142l-746 -1135h606l18 203h154v-353h-997zM471 1610v207h203v-207h-203z" />
<glyph unicode="&#x17c;" horiz-adv-x="1011" d="M86 0v135l577 776h-394l-25 -178h-145v327h804v-131l-584 -782h452l26 179h144v-326h-855zM404 1322v207h203v-207h-203z" />
<glyph unicode="&#x17d;" horiz-adv-x="1173" d="M88 0v146l742 1130h-555l-17 -184h-155v335h950v-142l-746 -1135h606l18 203h154v-353h-997zM272 1792v25h158l144 -145l142 145h157v-26l-241 -232h-117z" />
<glyph unicode="&#x17e;" horiz-adv-x="1011" d="M86 0v135l577 776h-394l-25 -178h-145v327h804v-131l-584 -782h452l26 179h144v-326h-855zM205 1504v25h158l144 -145l142 145h157v-26l-241 -232h-117z" />
<glyph unicode="&#x17f;" horiz-adv-x="719" d="M56 0v123l160 28v1044q0 169 88.5 261.5t247.5 92.5q33 0 67 -5t75 -15l-25 -142q-41 10 -86 10q-85 0 -129.5 -53t-44.5 -149v-1044l159 -28v-123h-512z" />
<glyph unicode="&#x18f;" horiz-adv-x="1373" d="M76 631v108h986v53q0 149 -50 262t-150.5 177.5t-251.5 64.5q-112 0 -191.5 -23t-156.5 -60l-48 136q51 35 150 66.5t246 31.5q202 0 347 -82t221.5 -229.5t76.5 -343.5v-160q0 -189 -76.5 -336.5t-205 -232t-288.5 -84.5q-298 0 -453.5 173t-155.5 479zM270 574 q0 -204 97 -324t318 -120q113 0 195 61.5t129 168t52 244.5v3h-791v-33z" />
<glyph unicode="&#x192;" horiz-adv-x="751" d="M-3 -411l13 147q14 -5 46.5 -8.5t50.5 -3.5q58 0 91.5 50.5t33.5 138.5v1004h-166v143h166v135q0 169 88.5 261.5t246.5 92.5q34 0 67.5 -5t75.5 -15l-24 -147q-18 4 -43 7t-51 3q-167 0 -167 -197v-135h192v-143h-192v-1004q0 -164 -84 -252.5t-234 -88.5 q-32 0 -57.5 4.5t-52.5 12.5z" />
<glyph unicode="&#x1a0;" horiz-adv-x="1323" d="M69 703v20q0 213 71 376t204 255.5t318 92.5q195 0 326.5 -92.5t199 -255.5t67.5 -376v-20q0 -213 -67.5 -376t-199 -255.5t-326.5 -92.5q-185 0 -317.5 92.5t-204 255.5t-71.5 376zM263 703q0 -167 46 -294t135 -198t218 -71q142 0 229.5 70.5t128.5 197.5t41 295v22 q0 167 -41.5 293t-129.5 197t-228 71q-129 0 -218 -71.5t-135 -197.5t-46 -292v-22zM965 1297q120 0 163 75.5t41 188.5h174q0 -115 -37.5 -205t-120.5 -141t-219 -51z" />
<glyph unicode="&#x1a1;" horiz-adv-x="1139" d="M76 518v22q0 157 58 279t164.5 191.5t251.5 69.5q147 0 253 -69.5t164 -191t58 -279.5v-22q0 -157 -58 -279t-163.5 -191t-251.5 -69q-147 0 -253.5 69.5t-164.5 191.5t-58 278zM270 518q0 -168 71 -278t211 -110q137 0 208.5 110t71.5 278v22q0 112 -32 199.5t-94.5 138 t-155.5 50.5q-92 0 -155 -50.5t-94 -138t-31 -199.5v-22zM800 940q82 0 121 27t51 80t12 130h155q0 -105 -30 -185t-103.5 -125t-204.5 -45z" />
<glyph unicode="&#x1af;" horiz-adv-x="1689" d="M69 1302v125h513v-125l-160 -27v-815q0 -162 92.5 -246t243.5 -84q158 0 255 84t97 246v815l-159 27v125h352v-201q108 10 152 83t44 209h170v-5q4 -198 -85 -307t-281 -123v-623q0 -155 -69 -262.5t-191.5 -163t-284.5 -55.5q-157 0 -276.5 55.5t-186.5 163t-67 262.5 v815z" />
<glyph unicode="&#x1b0;" horiz-adv-x="1312" d="M51 936v124h315v-627q0 -169 50 -233t155 -64q103 0 170 42t102 118v612l-142 28v124h335v-909l121 -28v-123h-295l-12 157q-50 -85 -129 -131.5t-182 -46.5q-172 0 -269.5 111t-97.5 345v473zM985 940q82 0 121 27t51 80t12 130h155q0 -105 -30 -185t-103.5 -125 t-204.5 -45z" />
<glyph unicode="&#x1f0;" horiz-adv-x="514" d="M-55 -411l13 147q14 -5 46.5 -8.5t50.5 -3.5q58 0 91.5 50.5t33.5 138.5v995l-159 28v124h352v-1147q0 -164 -84 -252.5t-234 -88.5q-31 0 -56.5 4.5t-53.5 12.5zM-29 1504v25h158l144 -145l142 145h157v-26l-241 -232h-117z" />
<glyph unicode="&#x1fa;" d="M69 0v123l105 15l499 1289h166l490 -1289l105 -15v-123h-410v123l108 19l-94 263h-572l-97 -263l108 -19v-123h-408zM526 566h453l-210 581l-11 32h-6l-12 -32zM556 1526q0 80 58 134.5t141 54.5q81 0 138.5 -54t57.5 -135q0 -83 -57.5 -134t-138.5 -51q-83 0 -141 51 t-58 134zM657 1526q0 -40 29 -68.5t69 -28.5t67.5 27.5t27.5 69.5t-27.5 71t-67.5 29q-41 0 -69.5 -29t-28.5 -71zM679 1770l120 226h189l2 -6l-184 -220h-127z" />
<glyph unicode="&#x1fb;" horiz-adv-x="1109" d="M77 288q0 151 123.5 242.5t343.5 91.5h189v104q0 96 -58.5 149t-163.5 53q-67 0 -116 -16t-89 -45l-21 -148h-149v243q144 118 378 118q193 0 302.5 -92t109.5 -264v-510q0 -21 0.5 -40.5t2.5 -39.5l103 -11v-123h-277q-17 80 -21 146q-56 -72 -139.5 -119.5 t-178.5 -47.5q-166 0 -252.5 81t-86.5 228zM270 284q0 -143 174 -143q96 0 175.5 46t113.5 111v192h-196q-133 0 -200 -63.5t-67 -142.5zM324 1238q0 80 58 134.5t141 54.5q81 0 138.5 -54t57.5 -135q0 -83 -57.5 -134t-138.5 -51q-83 0 -141 51t-58 134zM425 1238 q0 -40 29 -68.5t69 -28.5t67.5 27.5t27.5 69.5t-27.5 71t-67.5 29q-41 0 -69.5 -29t-28.5 -71zM447 1482l120 226h189l2 -6l-184 -220h-127z" />
<glyph unicode="&#x1fc;" horiz-adv-x="2054" d="M50 0v123l138 20l777 1284h948v-316h-165l-14 164h-498l19 -457h579v-152h-573l22 -515h511l16 164h164v-315h-1037v123l153 27l-8 193h-545l-119 -206l81 -14v-123h-449zM638 518h437l-30 696l-5 2l-8 -14zM1016 1550l181 267h225l2 -6l-264 -261h-144z" />
<glyph unicode="&#x1fd;" horiz-adv-x="1702" d="M77 296q0 150 123.5 240.5t344.5 90.5h189v99q0 96 -58.5 149t-163.5 53q-67 0 -116 -16t-89 -45l-21 -148h-149v243q144 118 377 118q246 0 343 -162q129 162 332 162q209 0 322.5 -127.5t113.5 -350.5v-117h-696l-2 -5q1 -156 78 -253t229 -97q102 0 166.5 27t141.5 77 l66 -135q-54 -44 -146 -82t-228 -38q-266 0 -420 207q-140 -207 -388 -207q-171 0 -260 83.5t-89 233.5zM270 292q0 -64 43.5 -107.5t131.5 -43.5q99 0 181.5 57.5t118.5 136.5q-6 48 -8.5 82.5t-2.5 76.5v1h-196q-133 0 -200.5 -62.5t-67.5 -140.5zM755 1262l181 267h225 l2 -6l-264 -261h-144zM929 632l2 -5h501v31q0 119 -59 194.5t-184 75.5q-113 0 -181 -83t-79 -213z" />
<glyph unicode="&#x1fe;" horiz-adv-x="1323" d="M69 703v20q0 213 71 376t204 255.5t318 92.5q195 0 326.5 -92.5t199 -255.5t67.5 -376v-20q0 -213 -67.5 -376t-199 -255.5t-326.5 -92.5q-185 0 -317.5 92.5t-204 255.5t-71.5 376zM120 -92l937 1579h146l-937 -1579h-146zM263 703q0 -167 46 -294t135 -198t218 -71 q142 0 229.5 70.5t128.5 197.5t41 295v22q0 167 -41.5 293t-129.5 197t-228 71q-129 0 -218 -71.5t-135 -197.5t-46 -292v-22zM544 1550l181 267h225l2 -6l-264 -261h-144z" />
<glyph unicode="&#x1ff;" horiz-adv-x="1101" d="M76 518v22q0 157 58 279t164.5 191.5t251.5 69.5q147 0 253 -69.5t164 -191t58 -279.5v-22q0 -157 -58 -279t-163.5 -191t-251.5 -69q-147 0 -253.5 69.5t-164.5 191.5t-58 278zM161 -128l651 1317h126l-650 -1317h-127zM270 518q0 -168 71 -278t211 -110 q137 0 208.5 110t71.5 278v22q0 112 -32 199.5t-94.5 138t-155.5 50.5q-92 0 -155 -50.5t-94 -138t-31 -199.5v-22zM432 1262l181 267h225l2 -6l-264 -261h-144z" />
<glyph unicode="&#x218;" horiz-adv-x="1181" d="M113 135v305h150l32 -224q64 -40 138.5 -61.5t160.5 -21.5q146 0 226.5 65.5t80.5 170.5q0 98 -72.5 163t-259.5 107q-221 51 -337.5 155.5t-116.5 262.5q0 112 59 200.5t165 139t247 50.5q150 0 265 -45.5t190 -109.5v-286h-150l-33 204q-44 36 -109.5 59.5t-162.5 23.5 q-124 0 -201 -64t-77 -169q0 -92 73.5 -150t254.5 -103q225 -56 341.5 -165.5t116.5 -270.5q0 -114 -62 -203t-174 -139t-264 -50q-130 0 -251 38.5t-230 117.5zM449 -454q35 49 52 98t17 114v88h176v-85q0 -179 -161 -287z" />
<glyph unicode="&#x219;" horiz-adv-x="1001" d="M102 319h146l36 -151q104 -44 218 -44q117 0 168 45.5t51 111.5q0 63 -51.5 106.5t-186.5 74.5q-192 44 -282.5 118t-90.5 197q0 86 50 154.5t139 108.5t208 40q120 0 206 -27.5t149 -73.5l10 -242h-145l-31 141q-34 26 -81.5 39.5t-107.5 13.5q-91 0 -147 -42t-56 -106 q0 -37 16 -64.5t62 -49.5t135 -44q222 -52 309.5 -132t87.5 -198q0 -134 -99.5 -225t-312.5 -91q-107 0 -200 22t-198 67zM358 -454q35 49 52 98t17 114v88h176v-85q0 -179 -161 -287z" />
<glyph unicode="&#x21a;" horiz-adv-x="1377" d="M94 1083v344h1186v-344h-143l-30 198h-323v-1130l160 -28v-123h-513v123l160 28v1130h-323l-29 -198h-145zM547 -454q35 49 52 98t17 114v88h176v-85q0 -179 -161 -287z" />
<glyph unicode="&#x21b;" horiz-adv-x="715" d="M24 917v143h167v256h193v-256h230v-143h-230v-644q0 -76 30.5 -112.5t81.5 -36.5q34 0 76 6.5t66 11.5l26 -126q-42 -13 -103 -23t-114 -10q-118 0 -187 69.5t-69 220.5v644h-167zM261 -454q35 49 52 98t17 114v88h176v-85q0 -179 -161 -287z" />
<glyph unicode="&#x2c6;" horiz-adv-x="679" d="M39 1271v26l241 232h117l243 -233v-25h-158l-144 145l-142 -145h-157z" />
<glyph unicode="&#x2c7;" horiz-adv-x="679" d="M39 1504v25h158l144 -145l142 145h157v-26l-241 -232h-117z" />
<glyph unicode="&#x2d8;" horiz-adv-x="687" d="M39 1523l2 6h147q0 -71 38 -115t118 -44q78 0 116.5 44t38.5 115h148l2 -6q-1 -123 -82 -199.5t-223 -76.5t-223.5 76.5t-81.5 199.5z" />
<glyph unicode="&#x2d9;" horiz-adv-x="281" d="M39 1322v207h203v-207h-203z" />
<glyph unicode="&#x2da;" horiz-adv-x="483" d="M39 1391q0 82 59.5 138t144.5 56q83 0 142 -55.5t59 -138.5q0 -85 -59 -138t-142 -53q-85 0 -144.5 53t-59.5 138zM140 1391q0 -43 30.5 -72.5t72.5 -29.5q41 0 70.5 29t29.5 73t-29.5 74t-70.5 30q-43 0 -73 -30t-30 -74z" />
<glyph unicode="&#x2db;" horiz-adv-x="468" d="M39 -219q0 79 58.5 149t184.5 126l70 -56q-69 -51 -107.5 -97.5t-38.5 -99.5q0 -41 22 -64.5t72 -23.5q26 0 48.5 7.5t48.5 17.5l32 -120q-35 -19 -75.5 -31t-88.5 -12q-103 0 -164.5 53.5t-61.5 150.5z" />
<glyph unicode="&#x2dc;" horiz-adv-x="757" d="M39 1300q0 63 27.5 115t73.5 84t103 32q44 0 94 -24.5t96.5 -49t80.5 -24.5q40 0 69 31.5t29 79.5l106 -28q0 -94 -59.5 -159t-144.5 -65q-48 0 -98 24t-95 48.5t-78 24.5q-41 0 -70 -32t-29 -78z" />
<glyph unicode="&#x2dd;" horiz-adv-x="804" d="M39 1262l181 267h206l2 -5l-235 -262h-154zM303 1267l236 262h223l3 -6l-293 -261h-167z" />
<glyph unicode="&#x386;" d="M69 0v123l105 15l499 1289h166l490 -1289l105 -15v-123h-410v123l108 19l-94 263h-572l-97 -263l108 -19v-123h-408zM275 1223l51 367h204l-159 -367h-96zM526 566h453l-210 581l-11 32h-6l-12 -32z" />
<glyph unicode="&#x388;" horiz-adv-x="1467" d="M-3 1223l51 367h204l-159 -367h-96zM266 0v123l160 28v1124l-160 27v125h1057v-343h-155l-22 194h-527v-465h526v-151h-526v-517h559l21 197h154v-342h-1087z" />
<glyph unicode="&#x389;" horiz-adv-x="1753" d="M-3 1223l51 367h204l-159 -367h-96zM286 0v123l160 28v1124l-160 27v125h513v-125l-160 -27v-493h682v493l-159 27v125h512v-125l-160 -27v-1124l160 -28v-123h-512v123l159 28v479h-682v-479l160 -28v-123h-513z" />
<glyph unicode="&#x38a;" horiz-adv-x="878" d="M-3 1223l51 367h204l-159 -367h-96zM286 0v123l160 28v1124l-160 27v125h513v-125l-160 -27v-1124l160 -28v-123h-513z" />
<glyph unicode="&#x38c;" horiz-adv-x="1323" d="M-2 1223l51 367h204l-159 -367h-96zM69 703v20q0 213 71 376t204 255.5t318 92.5q195 0 326.5 -92.5t199 -255.5t67.5 -376v-20q0 -213 -67.5 -376t-199 -255.5t-326.5 -92.5q-185 0 -317.5 92.5t-204 255.5t-71.5 376zM263 703q0 -167 46 -294t135 -198t218 -71 q142 0 229.5 70.5t128.5 197.5t41 295v22q0 167 -41.5 293t-129.5 197t-228 71q-129 0 -218 -71.5t-135 -197.5t-46 -292v-22z" />
<glyph unicode="&#x38e;" horiz-adv-x="1637" d="M21 1223l51 367h204l-159 -367h-96zM270 1302v125h492v-125l-163 -18l303 -561l20 -38l1 2l20 36l317 561l-168 18v125h482v-125l-124 -18l-432 -750v-383l160 -28v-123h-511v123l159 28v368l-439 765z" />
<glyph unicode="&#x38f;" horiz-adv-x="1333" d="M-3 1223l51 367h204l-159 -367h-96zM102 747v54q0 191 71.5 336.5t199.5 227.5t296 82q169 0 297.5 -82t200.5 -227.5t72 -336.5v-54q0 -119 -36.5 -233t-102 -208t-155.5 -155h275v-151h-487v193q148 25 230.5 166.5t82.5 387.5v56q0 238 -100.5 365.5t-276.5 127.5 q-175 0 -274.5 -127.5t-99.5 -365.5v-56q0 -247 84.5 -388.5t234.5 -165.5v-193h-486v151h269q-90 61 -156 155t-102.5 208t-36.5 233z" />
<glyph unicode="&#x390;" horiz-adv-x="655" d="M-33 1223v196h194v-196h-194zM30 936v124h354v-797q0 -73 25.5 -100t69.5 -27q50 0 90 26l43 -131q-45 -30 -88 -41t-96 -11q-116 0 -177 70t-61 224v635zM232 1368l34 264h209l-134 -264h-109zM444 1223v196h194v-196h-194z" />
<glyph unicode="&#x391;" d="M69 0v123l105 15l499 1289h166l490 -1289l105 -15v-123h-410v123l108 19l-94 263h-572l-97 -263l108 -19v-123h-408zM526 566h453l-210 581l-11 32h-6l-12 -32z" />
<glyph unicode="&#x392;" horiz-adv-x="1295" d="M79 0v123l160 28v1124l-160 27v125h616q223 0 349 -96.5t126 -289.5q0 -95 -60 -170t-159 -111q128 -28 202.5 -127t74.5 -230q0 -196 -127.5 -299.5t-344.5 -103.5h-677zM432 151h324q132 0 205 65t73 185q0 125 -61.5 196.5t-187.5 71.5h-353v-518zM432 820h313 q104 0 168 60.5t64 164.5q0 115 -72.5 172.5t-209.5 57.5h-263v-455z" />
<glyph unicode="&#x393;" horiz-adv-x="1191" d="M75 0v123l160 28v1124l-160 27v125h1035v-316h-165l-15 164h-502v-1124l160 -28v-123h-513z" />
<glyph unicode="&#x394;" horiz-adv-x="1403" d="M30 0l604 1427h166l564 -1427h-1334zM289 151h820l-362 952l-30 77h-6l-27 -67z" />
<glyph unicode="&#x395;" horiz-adv-x="1279" d="M79 0v123l160 28v1124l-160 27v125h1057v-343h-155l-22 194h-527v-465h526v-151h-526v-517h559l21 197h154v-342h-1087z" />
<glyph unicode="&#x396;" horiz-adv-x="1173" d="M88 0v146l742 1130h-555l-17 -184h-155v335h950v-142l-746 -1135h606l18 203h154v-353h-997z" />
<glyph unicode="&#x397;" horiz-adv-x="1546" d="M79 0v123l160 28v1124l-160 27v125h513v-125l-160 -27v-493h682v493l-159 27v125h512v-125l-160 -27v-1124l160 -28v-123h-512v123l159 28v479h-682v-479l160 -28v-123h-513z" />
<glyph unicode="&#x398;" horiz-adv-x="1374" d="M77 703v20q0 207 78.5 371t218.5 258.5t325 94.5q189 0 334 -94.5t226.5 -258.5t81.5 -371v-20q0 -208 -81.5 -371.5t-226.5 -258t-334 -94.5q-185 0 -325 94.5t-218.5 258t-78.5 371.5zM270 703q0 -168 51 -295.5t147 -199t231 -71.5q142 0 242.5 71.5t153.5 199 t53 295.5v22q0 166 -54 293.5t-154.5 199t-240.5 71.5q-135 0 -231 -72t-147 -199t-51 -293v-22zM453 646v151h499v-151h-499z" />
<glyph unicode="&#x399;" horiz-adv-x="671" d="M79 0v123l160 28v1124l-160 27v125h513v-125l-160 -27v-1124l160 -28v-123h-513z" />
<glyph unicode="&#x39a;" horiz-adv-x="1470" d="M79 0v123l160 28v1124l-160 27v125h513v-125l-160 -27v-613l561 622l4 5l-107 13v125h458v-125l-135 -24l-436 -474l490 -656l131 -25v-123h-476v123l118 14l-1 1l-383 532l-224 -243v-276l160 -28v-123h-513z" />
<glyph unicode="&#x39b;" horiz-adv-x="1421" d="M51 0v123l103 15l472 1289h167l472 -1289l104 -15v-123h-410v123l109 19l-329 929l-27 77h-5l-30 -84l-327 -922l110 -19v-123h-409z" />
<glyph unicode="&#x39c;" horiz-adv-x="1942" d="M92 0v123l160 28v1124l-160 27v125h418l459 -1083h6l445 1083h430v-125l-160 -27v-1124l160 -28v-123h-512v123l168 28v1012l-5 1l-463 -1113h-129l-479 1111l-5 -1l7 -597v-413l173 -28v-123h-513z" />
<glyph unicode="&#x39d;" horiz-adv-x="1560" d="M81 0v123l160 28v1124l-160 27v125h355l700 -1112l6 2v958l-176 27v125h513v-125l-160 -27v-1275h-176l-719 1118l-6 -2v-965l176 -28v-123h-513z" />
<glyph unicode="&#x39e;" horiz-adv-x="1155" d="M65 0v315h164l15 -164h676l16 164h164v-315h-1035zM65 1111v316h1024v-316h-166l-15 164h-663l-15 -164h-165zM272 664v152h611v-152h-611z" />
<glyph unicode="&#x39f;" horiz-adv-x="1323" d="M69 703v20q0 213 71 376t204 255.5t318 92.5q195 0 326.5 -92.5t199 -255.5t67.5 -376v-20q0 -213 -67.5 -376t-199 -255.5t-326.5 -92.5q-185 0 -317.5 92.5t-204 255.5t-71.5 376zM263 703q0 -167 46 -294t135 -198t218 -71q142 0 229.5 70.5t128.5 197.5t41 295v22 q0 167 -41.5 293t-129.5 197t-228 71q-129 0 -218 -71.5t-135 -197.5t-46 -292v-22z" />
<glyph unicode="&#x3a0;" horiz-adv-x="1544" d="M75 0v123l160 28v1124l-160 27v125h1400v-125l-160 -27v-1124l160 -28v-123h-513v123l160 28v1124h-694v-1124l160 -28v-123h-513z" />
<glyph unicode="&#x3a1;" horiz-adv-x="1271" d="M79 0v123l160 28v1124l-160 27v125h656q228 0 355 -117.5t127 -309.5q0 -194 -127 -311t-355 -117h-303v-421l160 -28v-123h-513zM432 723h303q145 0 217 78t72 197q0 118 -72 197.5t-217 79.5h-303v-552z" />
<glyph unicode="&#x3a3;" horiz-adv-x="1157" d="M77 0v144l470 569l-470 570v144h957v-316h-166l-14 164h-536l-3 -5l437 -546v-23l-437 -544l3 -5h585l14 164h165v-316h-1005z" />
<glyph unicode="&#x3a4;" horiz-adv-x="1377" d="M94 1083v344h1186v-344h-143l-30 198h-323v-1130l160 -28v-123h-513v123l160 28v1130h-323l-29 -198h-145z" />
<glyph unicode="&#x3a5;" horiz-adv-x="1431" d="M64 1302v125h492v-125l-163 -18l303 -561l20 -38l1 2l20 36l317 561l-168 18v125h482v-125l-124 -18l-432 -750v-383l160 -28v-123h-511v123l159 28v368l-439 765z" />
<glyph unicode="&#x3a6;" horiz-adv-x="1441" d="M77 708q0 136 71 241.5t193 167t275 61.5h8v97l-159 27v125h512v-125l-160 -27v-97h6q155 0 277 -61t193 -166t71 -241q0 -137 -71.5 -241t-193.5 -162.5t-276 -58.5h-6v-97l160 -28v-123h-512v123l159 28v97h-8q-153 0 -275 58t-193 161.5t-71 240.5zM269 708 q0 -147 90 -227.5t257 -80.5h8v627h-8q-166 0 -256.5 -86.5t-90.5 -232.5zM817 400h8q165 0 256 81.5t91 228.5q0 145 -91 231t-256 86h-8v-627z" />
<glyph unicode="&#x3a7;" horiz-adv-x="1375" d="M78 0v123l124 22l442 579l-410 557l-124 21v125h462v-125l-134 -12l316 -440l300 440l-138 12v125h466v-125l-131 -21l-387 -557l430 -579l126 -22v-123h-468v123l138 13l-338 464l-337 -464l130 -13v-123h-467z" />
<glyph unicode="&#x3a8;" horiz-adv-x="1631" d="M54 1302v125h352v-521q0 -166 80 -269t214 -123l6 1v760l-160 27v125h512v-125l-159 -27v-761l6 -1q141 18 225.5 121t84.5 272v521h353v-125l-160 -27v-369q0 -159 -63.5 -278t-178 -189.5t-267.5 -86.5v-201l159 -28v-123h-512v123l160 28v202q-224 23 -358 168 t-134 385v369z" />
<glyph unicode="&#x3a9;" horiz-adv-x="1326" d="M95 747v54q0 191 71.5 336.5t199.5 227.5t296 82q169 0 297.5 -82t200.5 -227.5t72 -336.5v-54q0 -119 -36.5 -233t-102 -208t-155.5 -155h275v-151h-487v193q148 25 230.5 166.5t82.5 387.5v56q0 238 -100.5 365.5t-276.5 127.5q-175 0 -274.5 -127.5t-99.5 -365.5v-56 q0 -247 84.5 -388.5t234.5 -165.5v-193h-486v151h269q-90 61 -156 155t-102.5 208t-36.5 233z" />
<glyph unicode="&#x3aa;" horiz-adv-x="671" d="M26 1610v207h203v-207h-203zM79 0v123l160 28v1124l-160 27v125h513v-125l-160 -27v-1124l160 -28v-123h-513zM441 1610v207h203v-207h-203z" />
<glyph unicode="&#x3ab;" horiz-adv-x="1431" d="M64 1302v125h492v-125l-163 -18l303 -561l20 -38l1 2l20 36l317 561l-168 18v125h482v-125l-124 -18l-432 -750v-383l160 -28v-123h-511v123l159 28v368l-439 765zM407 1610v207h203v-207h-203zM822 1610v207h203v-207h-203z" />
<glyph unicode="&#x3ac;" horiz-adv-x="1183" d="M102 490v21q0 170 49 298.5t142 199.5t223 71q98 0 173 -38.5t127 -111.5l17 130h164v-770q0 -82 19.5 -113.5t54.5 -31.5q19 0 31 6l23 -138q-29 -20 -58.5 -27t-65.5 -7q-70 0 -115 37t-66 117q-105 -154 -306 -154q-129 0 -221.5 64.5t-141.5 179t-49 267.5zM295 490 q0 -162 65.5 -261t203.5 -99q85 0 143 45t97 128v451q-40 81 -98 127.5t-141 46.5q-138 0 -204 -116.5t-66 -300.5v-21zM492 1223l51 367h204l-159 -367h-96z" />
<glyph unicode="&#x3ad;" horiz-adv-x="1075" d="M103 299q0 182 197 246q-84 34 -131 94t-47 131q0 148 113.5 228t311.5 80q119 0 215 -39t151 -108.5t52 -160.5l-2 -6h-182q0 69 -68 117t-166 48q-114 0 -173 -46.5t-59 -112.5q0 -72 52.5 -114t165.5 -42h206v-147h-206q-236 0 -236 -168q0 -72 67 -121t183 -49 q110 0 181 55t71 130h182l2 -6q3 -106 -56 -179t-159.5 -110.5t-220.5 -37.5q-198 0 -321 85t-123 233zM464 1223l51 367h204l-159 -367h-96z" />
<glyph unicode="&#x3ae;" horiz-adv-x="1183" d="M-4 1021q40 28 91 43.5t103 15.5q79 0 127.5 -34.5t59.5 -101.5q2 -7 3 -14.5t2 -12.5q53 78 131 120.5t175 42.5q173 0 266 -95.5t93 -315.5v-1076h-193v1072q0 141 -56 202t-170 61q-83 0 -143.5 -33t-97.5 -91v-804h-193v805q0 55 -19.5 77t-52.5 22q-20 0 -45 -7.5 t-38 -13.5zM553 1223l51 367h204l-159 -367h-96z" />
<glyph unicode="&#x3af;" horiz-adv-x="655" d="M30 936v124h354v-797q0 -73 25.5 -100t69.5 -27q50 0 90 26l43 -131q-45 -30 -88 -41t-96 -11q-116 0 -177 70t-61 224v635zM235 1223l51 367h204l-159 -367h-96z" />
<glyph unicode="&#x3b0;" horiz-adv-x="1195" d="M24 1021q89 59 196 59q96 0 146.5 -55t50.5 -175v-432q0 -149 51 -218.5t140 -69.5q87 0 151 60t99.5 156t35.5 206q-3 123 -35.5 249t-86.5 259h202q50 -104 81.5 -230t31.5 -278q0 -162 -54 -292t-159 -205.5t-257 -75.5q-188 0 -290.5 108.5t-102.5 332.5v385 q0 56 -19.5 77.5t-53.5 21.5q-20 0 -45 -7.5t-37 -13.5zM259 1223v196h194v-196h-194zM524 1368l34 264h209l-134 -264h-109zM736 1223v196h194v-196h-194z" />
<glyph unicode="&#x3b1;" horiz-adv-x="1183" d="M102 490v21q0 170 49 298.5t142 199.5t223 71q98 0 173 -38.5t127 -111.5l17 130h164v-770q0 -82 19.5 -113.5t54.5 -31.5q19 0 31 6l23 -138q-29 -20 -58.5 -27t-65.5 -7q-70 0 -115 37t-66 117q-105 -154 -306 -154q-129 0 -221.5 64.5t-141.5 179t-49 267.5zM295 490 q0 -162 65.5 -261t203.5 -99q85 0 143 45t97 128v451q-40 81 -98 127.5t-141 46.5q-138 0 -204 -116.5t-66 -300.5v-21z" />
<glyph unicode="&#x3b2;" horiz-adv-x="1148" d="M140 -375v1427q0 108 60 198t160 143.5t220 53.5q128 0 223 -49t147.5 -136t52.5 -201q0 -89 -48.5 -163.5t-134.5 -119.5q117 -43 181.5 -139t64.5 -223q0 -136 -56 -234t-156.5 -150.5t-233.5 -52.5q-80 0 -155 22t-132 67v-443h-193zM333 237q43 -50 112 -78.5 t156 -28.5q126 0 199 78.5t73 204.5q0 73 -29 136t-82 102.5t-126 39.5h-140v152h80q120 0 176.5 59t56.5 163q0 93 -61 162t-168 69q-105 0 -176 -70.5t-71 -173.5v-815z" />
<glyph unicode="&#x3b3;" horiz-adv-x="1064" d="M20 1047q24 10 63 17.5t69 7.5q70 0 105.5 -27.5t62.5 -110.5l204 -621l17 -83h6l20 83l197 602l-132 21v124h410v-124l-85 -14l-317 -863v-467h-193v458l-281 797q-14 38 -30 49t-49 11q-9 0 -14.5 -0.5t-35.5 -5.5z" />
<glyph unicode="&#x3b4;" horiz-adv-x="1140" d="M95 499v20q0 112 41.5 205.5t113 157t162.5 85.5l4 11q-95 37 -147 106.5t-52 158.5q0 134 99 212t274 78q73 0 150.5 -22.5t156.5 -61.5l-43 -130q-56 22 -127.5 40t-140.5 18q-81 0 -127.5 -36t-46.5 -94q0 -47 47.5 -93.5t170.5 -88.5q415 -145 415 -546v-20 q0 -152 -58 -268.5t-164 -183.5t-252 -67q-147 0 -253.5 67t-164.5 183.5t-58 268.5zM289 499q0 -161 71.5 -265t210.5 -104q138 0 209 104t71 265v20q0 86 -35.5 164t-98.5 133.5t-146 72.5q-138 0 -210 -105.5t-72 -264.5v-20z" />
<glyph unicode="&#x3b5;" horiz-adv-x="1075" d="M103 299q0 182 197 246q-84 34 -131 94t-47 131q0 148 113.5 228t311.5 80q119 0 215 -39t151 -108.5t52 -160.5l-2 -6h-182q0 69 -68 117t-166 48q-114 0 -173 -46.5t-59 -112.5q0 -72 52.5 -114t165.5 -42h206v-147h-206q-236 0 -236 -168q0 -72 67 -121t183 -49 q110 0 181 55t71 130h182l2 -6q3 -106 -56 -179t-159.5 -110.5t-220.5 -37.5q-198 0 -321 85t-123 233z" />
<glyph unicode="&#x3b6;" horiz-adv-x="1048" d="M113 1275v152h838v-121l-336 -412q-84 -100 -136.5 -181t-76.5 -160t-24 -174t32 -143.5t108 -64.5l131 -38q100 -29 156 -51.5t78.5 -59t22.5 -106.5q0 -47 -26.5 -102t-66.5 -105t-81 -84l-102 84q48 56 70 96.5t22 80.5q0 35 -35 60t-114 45l-88 23 q-167 44 -233.5 124.5t-66.5 235.5q0 118 68 275.5t210 322.5l262 298l-2 5h-610z" />
<glyph unicode="&#x3b7;" horiz-adv-x="1183" d="M-4 1021q40 28 91 43.5t103 15.5q79 0 127.5 -34.5t59.5 -101.5q2 -7 3 -14.5t2 -12.5q53 78 131 120.5t175 42.5q173 0 266 -95.5t93 -315.5v-1076h-193v1072q0 141 -56 202t-170 61q-83 0 -143.5 -33t-97.5 -91v-804h-193v805q0 55 -19.5 77t-52.5 22q-20 0 -45 -7.5 t-38 -13.5z" />
<glyph unicode="&#x3b8;" horiz-adv-x="1138" d="M124 544v338q0 272 122 418.5t331 146.5q211 0 333.5 -146.5t122.5 -418.5v-338q0 -274 -121.5 -419.5t-332.5 -145.5q-210 0 -332.5 146t-122.5 419zM318 505q0 -186 67.5 -280.5t193.5 -94.5q261 0 261 375v130h-522v-130zM318 787h522v136q0 373 -263 373 q-126 0 -192.5 -94t-66.5 -279v-136z" />
<glyph unicode="&#x3b9;" horiz-adv-x="655" d="M30 936v124h354v-797q0 -73 25.5 -100t69.5 -27q50 0 90 26l43 -131q-45 -30 -88 -41t-96 -11q-116 0 -177 70t-61 224v635z" />
<glyph unicode="&#x3ba;" horiz-adv-x="1231" d="M63 0v123l159 28v757l-159 28v124h353v-516l375 373l5 6l-114 13v124h457v-124l-136 -26l-300 -301l342 -462l117 -24v-123h-232l-352 484l-162 -164v-169l159 -28v-123h-512z" />
<glyph unicode="&#x3bb;" horiz-adv-x="1112" d="M34 0l382 1005l-98 235q-21 53 -46 74.5t-65 21.5q-9 0 -23 -1t-23 -1l-1 142q16 4 53.5 8t62.5 4q95 0 142.5 -38.5t75.5 -121.5l432 -1097q18 -48 39 -67.5t54 -19.5h20.5t14.5 2l6 -151q-14 -4 -35 -8t-42 -4q-64 0 -107 15.5t-75.5 58.5t-62.5 126l-229 588l-6 -1 l-30 -113l-225 -657h-214z" />
<glyph unicode="&#x3bc;" horiz-adv-x="1288" d="M65 936v124h351v-609q0 -185 54 -253t154 -68q97 0 157 36t90 105v637l-160 28v124h353v-909l160 -28v-123h-333l-9 107q-87 -128 -250 -128q-139 0 -216 67v-454h-192v1316z" />
<glyph unicode="&#x3bd;" horiz-adv-x="1120" d="M25 936v124h445v-124l-138 -20l235 -603l28 -86h6l31 86l219 603l-142 20v124h443v-124l-111 -15l-359 -921h-169l-378 921z" />
<glyph unicode="&#x3be;" horiz-adv-x="983" d="M96 439q0 144 81 242t226 144q-115 41 -179.5 116t-64.5 168q0 158 129 247.5t351 89.5q66 0 135 -11t115 -27l-29 -149q-60 17 -113 26.5t-106 9.5q-143 0 -216 -52.5t-73 -129.5q0 -101 75.5 -157t235.5 -56h141v-152h-141q-374 0 -374 -313q0 -120 75.5 -193.5 t187.5 -99.5l110 -23q95 -23 151.5 -45t82 -60.5t25.5 -110.5q-1 -47 -27.5 -101t-66 -104t-81.5 -84l-101 84q54 63 73 96t19 84q0 42 -34.5 63t-116.5 38l-55 13q-145 33 -241.5 85t-145 139t-48.5 223z" />
<glyph unicode="&#x3bf;" horiz-adv-x="1126" d="M76 518v22q0 157 58 279t164.5 191.5t251.5 69.5q147 0 253 -69.5t164 -191t58 -279.5v-22q0 -157 -58 -279t-163.5 -191t-251.5 -69q-147 0 -253.5 69.5t-164.5 191.5t-58 278zM270 518q0 -168 71 -278t211 -110q137 0 208.5 110t71.5 278v22q0 112 -32 199.5t-94.5 138 t-155.5 50.5q-92 0 -155 -50.5t-94 -138t-31 -199.5v-22z" />
<glyph unicode="&#x3c0;" horiz-adv-x="1255" d="M74 907v153h1018v-153h-161v-644q0 -73 25.5 -100t69.5 -27q50 0 90 26l43 -131q-45 -30 -88 -41t-96 -11q-117 0 -177.5 70t-60.5 224v634h-346v-907h-193v907h-124z" />
<glyph unicode="&#x3c1;" horiz-adv-x="1132" d="M131 -408v973q0 162 57.5 277t157 176.5t224.5 61.5q224 0 342 -155.5t118 -413.5v-21q0 -154 -48.5 -268.5t-139.5 -178.5t-220 -64q-188 0 -298 116v-503h-193zM324 268q37 -66 95 -102t144 -36q137 0 205.5 100t68.5 260v21q0 185 -64.5 301t-202.5 116 q-80 0 -135 -53t-83 -136t-28 -175v-296z" />
<glyph unicode="&#x3c2;" horiz-adv-x="1070" d="M97 510v41q0 149 56.5 268.5t160.5 190t248 70.5q123 0 215.5 -46.5t144 -131.5t48.5 -201l-2 -6h-174q0 102 -60 167.5t-172 65.5q-90 0 -150.5 -52t-91 -137.5t-30.5 -187.5v-41q0 -267 341 -359q102 -28 162.5 -52.5t87 -64t26.5 -111.5q-1 -46 -27.5 -100.5 t-66.5 -104.5t-81 -85l-101 85q53 62 72 95.5t19 84.5q0 42 -33 62.5t-117 39.5q-475 103 -475 510z" />
<glyph unicode="&#x3c3;" horiz-adv-x="1221" d="M103 518v22q0 152 57.5 269t163 184t251.5 67h557v-153h-272q93 -70 142.5 -174t49.5 -231v-22q0 -137 -59 -250.5t-165.5 -182t-250.5 -68.5q-146 0 -252 69.5t-164 191t-58 278.5zM296 518q0 -168 70.5 -278t210.5 -110q138 0 209.5 110t71.5 278v22q0 158 -72 262.5 t-212 104.5q-137 0 -207.5 -104.5t-70.5 -262.5v-22z" />
<glyph unicode="&#x3c4;" horiz-adv-x="993" d="M61 910v150h867v-150h-343v-647q0 -72 26 -99.5t70 -27.5q24 0 47.5 7.5t41.5 18.5l44 -130q-45 -31 -88.5 -42t-95.5 -11q-116 0 -177 70t-61 224v637h-331z" />
<glyph unicode="&#x3c5;" horiz-adv-x="1195" d="M24 1021q89 59 196 59q96 0 146.5 -55t50.5 -175v-432q0 -149 51 -218.5t140 -69.5q87 0 151 60t99.5 156t35.5 206q-3 123 -35.5 249t-86.5 259h202q50 -104 81.5 -230t31.5 -278q0 -162 -54 -292t-159 -205.5t-257 -75.5q-188 0 -290.5 108.5t-102.5 332.5v385 q0 56 -19.5 77.5t-53.5 21.5q-20 0 -45 -7.5t-37 -13.5z" />
<glyph unicode="&#x3c6;" horiz-adv-x="1470" d="M111 553q0 164 62 293t188 214l105 -133q-82 -72 -120 -169.5t-42 -204.5q0 -101 35 -189t106.5 -146.5t182.5 -73.5l6 2v662q0 66 36 124t97.5 93t138.5 35q127 0 232.5 -69.5t168 -189t62.5 -268.5q0 -148 -58.5 -266.5t-178.5 -193t-305 -89.5v-452h-193v452 q-179 17 -295 94t-172 199.5t-56 275.5zM827 145l6 -3q116 15 192 71.5t113.5 139.5t37.5 180q-3 102 -35.5 187.5t-91.5 136t-143 50.5q-39 0 -59 -25.5t-20 -67.5v-669z" />
<glyph unicode="&#x3c7;" horiz-adv-x="1168" d="M61 0v123l113 23l303 380l-293 387l-113 23v124l255 -1l271 -384l190 250l-95 11v124h418v-124l-113 -23l-302 -372l310 -395l115 -23v-123h-242l-287 401l-208 -267l95 -11v-123h-417z" />
<glyph unicode="&#x3c8;" horiz-adv-x="1545" d="M-1 1021q84 59 194 59q95 0 146 -54.5t51 -174.5v-269q0 -200 80.5 -307t217.5 -128l6 2v910h193v-914l6 -2q119 13 197 71.5t116.5 148t38.5 193.5q-3 122 -35 247.5t-87 256.5h202q50 -104 81.5 -229t31.5 -275q0 -158 -58.5 -282.5t-180.5 -201t-312 -90.5v-447h-193 v451q-238 27 -367.5 175t-129.5 423v221q0 55 -19.5 77t-53.5 22q-19 0 -44 -7.5t-38 -13.5z" />
<glyph unicode="&#x3c9;" horiz-adv-x="1645" d="M114 551q0 152 36 279t96 230h202q-65 -133 -103 -259t-38 -250q0 -186 49.5 -303.5t157.5 -117.5q96 0 152.5 79.5t56.5 251.5v294h194v-294q0 -172 56.5 -251.5t153.5 -79.5q108 0 158 116.5t50 304.5q0 124 -39.5 251t-101.5 258h202q58 -104 95 -231t37 -278 q0 -167 -41.5 -296t-128 -202.5t-220.5 -73.5q-236 0 -318 231q-82 -231 -316 -231q-136 0 -222 73.5t-127 202.5t-41 296z" />
<glyph unicode="&#x3ca;" horiz-adv-x="655" d="M0 1322v207h203v-207h-203zM30 936v124h354v-797q0 -73 25.5 -100t69.5 -27q50 0 90 26l43 -131q-45 -30 -88 -41t-96 -11q-116 0 -177 70t-61 224v635zM415 1322v207h203v-207h-203z" />
<glyph unicode="&#x3cb;" horiz-adv-x="1195" d="M24 1021q89 59 196 59q96 0 146.5 -55t50.5 -175v-432q0 -149 51 -218.5t140 -69.5q87 0 151 60t99.5 156t35.5 206q-3 123 -35.5 249t-86.5 259h202q50 -104 81.5 -230t31.5 -278q0 -162 -54 -292t-159 -205.5t-257 -75.5q-188 0 -290.5 108.5t-102.5 332.5v385 q0 56 -19.5 77.5t-53.5 21.5q-20 0 -45 -7.5t-37 -13.5zM291 1322v207h203v-207h-203zM706 1322v207h203v-207h-203z" />
<glyph unicode="&#x3cc;" horiz-adv-x="1126" d="M76 518v22q0 157 58 279t164.5 191.5t251.5 69.5q147 0 253 -69.5t164 -191t58 -279.5v-22q0 -157 -58 -279t-163.5 -191t-251.5 -69q-147 0 -253.5 69.5t-164.5 191.5t-58 278zM270 518q0 -168 71 -278t211 -110q137 0 208.5 110t71.5 278v22q0 112 -32 199.5t-94.5 138 t-155.5 50.5q-92 0 -155 -50.5t-94 -138t-31 -199.5v-22zM477 1223l51 367h204l-159 -367h-96z" />
<glyph unicode="&#x3cd;" horiz-adv-x="1195" d="M24 1021q89 59 196 59q96 0 146.5 -55t50.5 -175v-432q0 -149 51 -218.5t140 -69.5q87 0 151 60t99.5 156t35.5 206q-3 123 -35.5 249t-86.5 259h202q50 -104 81.5 -230t31.5 -278q0 -162 -54 -292t-159 -205.5t-257 -75.5q-188 0 -290.5 108.5t-102.5 332.5v385 q0 56 -19.5 77.5t-53.5 21.5q-20 0 -45 -7.5t-37 -13.5zM526 1223l51 367h204l-159 -367h-96z" />
<glyph unicode="&#x3ce;" horiz-adv-x="1645" d="M114 551q0 152 36 279t96 230h202q-65 -133 -103 -259t-38 -250q0 -186 49.5 -303.5t157.5 -117.5q96 0 152.5 79.5t56.5 251.5v294h194v-294q0 -172 56.5 -251.5t153.5 -79.5q108 0 158 116.5t50 304.5q0 124 -39.5 251t-101.5 258h202q58 -104 95 -231t37 -278 q0 -167 -41.5 -296t-128 -202.5t-220.5 -73.5q-236 0 -318 231q-82 -231 -316 -231q-136 0 -222 73.5t-127 202.5t-41 296zM749 1223l51 367h204l-159 -367h-96z" />
<glyph unicode="&#x3d1;" horiz-adv-x="1315" d="M119 580v647l193 2v-649q0 -130 40 -230t114 -156.5t175 -56.5q159 0 252 112.5t98 309.5v14q-141 6 -247.5 63.5t-166 155.5t-59.5 223v61q0 170 93 270.5t240 100.5q153 0 242.5 -98.5t89.5 -272.5v-496q0 -181 -67.5 -316.5t-189.5 -210t-285 -74.5q-155 0 -272.5 78 t-183.5 214.5t-66 308.5zM711 1013q0 -117 73.5 -194.5t200.5 -81.5l6 2v337q0 213 -140 213q-65 0 -102.5 -53.5t-37.5 -159.5v-63z" />
<glyph unicode="&#x3d2;" horiz-adv-x="1206" d="M51 1414q23 14 47.5 19t59.5 5q79 0 139.5 -51t111.5 -173l174 -398l18 -66h6l18 66l176 398q50 122 110 173t140 51q33 0 57.5 -5t49.5 -19l-22 -149q-16 8 -39 8q-72 0 -103 -73l-293 -632v-568h-192v566l-294 634q-34 73 -103 73q-28 0 -38 -8z" />
<glyph unicode="&#x3d6;" horiz-adv-x="1638" d="M103 907v153h1453v-153h-131q28 -79 44.5 -168t16.5 -188q0 -167 -37.5 -296t-115.5 -202.5t-198 -73.5q-237 0 -317 232q-81 -232 -316 -232q-121 0 -199 73.5t-115 203t-37 295.5q0 99 15.5 188t45.5 168h-109zM344 551q0 -186 40.5 -303.5t128.5 -117.5 q96 0 152.5 79.5t56.5 251.5v245h194v-245q0 -172 56.5 -251.5t153.5 -79.5q85 0 126 117t41 304q-6 171 -76 356h-798q-34 -92 -53.5 -181t-21.5 -175z" />
<glyph unicode="&#x400;" horiz-adv-x="1279" d="M79 0v123l160 28v1124l-160 27v125h1057v-343h-155l-22 194h-527v-465h526v-151h-526v-517h559l21 197h154v-342h-1087zM351 1811l2 6h226l180 -267h-144z" />
<glyph unicode="&#x401;" horiz-adv-x="1279" d="M79 0v123l160 28v1124l-160 27v125h1057v-343h-155l-22 194h-527v-465h526v-151h-526v-517h559l21 197h154v-342h-1087zM331 1610v207h203v-207h-203zM746 1610v207h203v-207h-203z" />
<glyph unicode="&#x402;" horiz-adv-x="1541" d="M73 1111v316h1147v-316h-166l-14 164h-357v-452q79 22 153 36.5t126 14.5q241 0 375.5 -118.5t134.5 -331.5q0 -211 -124 -322t-357 -108l-5 2l-2 138q159 0 227 74.5t68 215.5q-2 140 -81 214t-236 74q-60 0 -135 -12t-144 -33v-516l141 -28v-123h-494v123l160 28v1124 h-238l-15 -164h-164z" />
<glyph unicode="&#x403;" horiz-adv-x="1191" d="M75 0v123l160 28v1124l-160 27v125h1035v-316h-165l-15 164h-502v-1124l160 -28v-123h-513zM516 1550l181 267h225l2 -6l-264 -261h-144z" />
<glyph unicode="&#x404;" horiz-adv-x="1258" d="M51 704v20q0 210 80 373t223 257t332 94q163 0 286.5 -63t184.5 -141v-254h-136l-36 202q-47 46 -115.5 75.5t-163.5 29.5q-138 0 -237 -64t-155 -176.5t-67 -259.5h580v-151h-581q9 -151 64 -266.5t150.5 -182t225.5 -66.5q97 0 176.5 30.5t122.5 74.5l36 202h136v-254 q-61 -79 -184.5 -141.5t-286.5 -62.5q-186 0 -329 94.5t-224.5 258t-81.5 371.5z" />
<glyph unicode="&#x405;" horiz-adv-x="1181" d="M113 135v305h150l32 -224q64 -40 138.5 -61.5t160.5 -21.5q146 0 226.5 65.5t80.5 170.5q0 98 -72.5 163t-259.5 107q-221 51 -337.5 155.5t-116.5 262.5q0 112 59 200.5t165 139t247 50.5q150 0 265 -45.5t190 -109.5v-286h-150l-33 204q-44 36 -109.5 59.5t-162.5 23.5 q-124 0 -201 -64t-77 -169q0 -92 73.5 -150t254.5 -103q225 -56 341.5 -165.5t116.5 -270.5q0 -114 -62 -203t-174 -139t-264 -50q-130 0 -251 38.5t-230 117.5z" />
<glyph unicode="&#x406;" horiz-adv-x="648" d="M79 0v123l160 28v1124l-160 27v125h513v-125l-160 -27v-1124l160 -28v-123h-513z" />
<glyph unicode="&#x407;" horiz-adv-x="671" d="M26 1610v207h203v-207h-203zM79 0v123l160 28v1124l-160 27v125h513v-125l-160 -27v-1124l160 -28v-123h-513zM441 1610v207h203v-207h-203z" />
<glyph unicode="&#x408;" horiz-adv-x="1159" d="M59 407l2 6h185q4 -144 66 -212t178 -68q122 0 178.5 76t56.5 196v870l-190 25v127h543v-125l-160 -27v-870q0 -192 -108 -309t-317 -117q-119 0 -215.5 47.5t-154.5 142.5t-64 238z" />
<glyph unicode="&#x409;" horiz-adv-x="2160" d="M56 0v151h39q147 0 211.5 139.5t65.5 464.5v520l-159 27v125h1199v-125l-160 -27v-404h352q152 0 259.5 -55t164 -153.5t56.5 -227.5q0 -194 -126 -314.5t-354 -120.5h-545v1275h-494l-1 -520q0 -393 -105.5 -574t-351.5 -181h-51zM1252 151h352q144 0 216 83t72 203 q0 119 -72 201t-216 82h-352v-569z" />
<glyph unicode="&#x40a;" horiz-adv-x="2228" d="M79 0v123l160 28v1124l-160 27v125h513v-125l-160 -27v-465h694v465l-160 27v125h513v-125l-160 -27v-452h352q228 0 354.5 -111.5t126.5 -295.5q0 -186 -127 -301t-354 -115h-705v123l160 28v509h-694v-509l160 -28v-123h-513zM1319 162h352q145 0 217 72.5t72 182.5 t-72 182t-217 72h-352v-509z" />
<glyph unicode="&#x40b;" horiz-adv-x="1710" d="M55 1111v316h1147v-316h-165l-15 164h-336v-424q74 19 151.5 29t179.5 10q235 0 357 -104t122 -335v-300l160 -28v-123h-512v123l159 28v300q0 161 -68 223.5t-218 62.5q-87 0 -168.5 -11t-162.5 -29v-546l160 -28v-123h-514v123l160 28v1124h-258l-14 -164h-165z" />
<glyph unicode="&#x40c;" horiz-adv-x="1422" d="M70 0v123l159 28v1124l-159 27v125h512v-125l-160 -27v-491h156l323 465q79 109 138 149t136 40q46 0 78 -11.5t67 -32.5l-28 -137q-27 5 -47 8.5t-40 3.5q-46 0 -77.5 -24.5t-73.5 -83.5l-307 -427l474 -586l134 -25v-123h-468v123l109 14l-4 5l-385 479h-185v-470 l160 -28v-123h-512zM593 1550l181 267h225l2 -6l-264 -261h-144z" />
<glyph unicode="&#x40d;" horiz-adv-x="1542" d="M75 0v123l160 28v1124l-160 27v125h513v-125l-160 -27v-822l6 -2l686 734v90l-160 27v125h513v-125l-160 -27v-1124l160 -28v-123h-513v123l160 28v796l-6 2l-686 -735v-63l160 -28v-123h-513zM485 1811l2 6h226l180 -267h-144z" />
<glyph unicode="&#x40e;" horiz-adv-x="1332" d="M53 1302v125h448v-125l-120 -18l217 -524l71 -185h6l268 708l-125 19v125h456v-125l-112 -16l-440 -1052q-38 -85 -79 -142t-103 -85t-161 -28q-24 0 -57 3t-42 6l6 146q10 -2 42.5 -3t48.5 -1q70 0 100 35t68 114l38 82l-414 924zM353 1811l2 6h147q0 -71 38 -115 t118 -44q78 0 116.5 44t38.5 115h148l2 -6q-1 -123 -82 -199.5t-223 -76.5t-223.5 76.5t-81.5 199.5z" />
<glyph unicode="&#x40f;" horiz-adv-x="1543" d="M75 0v123l160 28v1124l-160 27v125h513v-125l-160 -27v-1124h694v1124l-160 27v125h513v-125l-160 -27v-1124l160 -28v-123h-597v-352h-193v352h-610z" />
<glyph unicode="&#x410;" d="M69 0v123l105 15l499 1289h166l490 -1289l105 -15v-123h-410v123l108 19l-94 263h-572l-97 -263l108 -19v-123h-408zM526 566h453l-210 581l-11 32h-6l-12 -32z" />
<glyph unicode="&#x411;" horiz-adv-x="1331" d="M59 0v123l160 28v1124l-160 27v125h1035v-316h-166l-15 164h-492v-432h352q230 0 355.5 -113t125.5 -305q0 -193 -126 -309t-355 -116h-714zM421 151h352q145 0 216.5 78.5t71.5 197.5q0 116 -71.5 190t-216.5 74h-352v-540z" />
<glyph unicode="&#x412;" horiz-adv-x="1318" d="M79 0v123l160 28v1124l-160 27v125h616q223 0 349 -96.5t126 -289.5q0 -95 -60 -170t-159 -111q128 -28 202.5 -127t74.5 -230q0 -196 -127.5 -299.5t-344.5 -103.5h-677zM432 151h324q132 0 205 65t73 185q0 125 -61.5 196.5t-187.5 71.5h-353v-518zM432 820h313 q104 0 168 60.5t64 164.5q0 115 -72.5 172.5t-209.5 57.5h-263v-455z" />
<glyph unicode="&#x413;" horiz-adv-x="1191" d="M75 0v123l160 28v1124l-160 27v125h1035v-316h-165l-15 164h-502v-1124l160 -28v-123h-513z" />
<glyph unicode="&#x414;" horiz-adv-x="1538" d="M54 151h122q50 58 96 149t76 226t34 324l24 426l-151 26v125h1178v-125l-160 -27v-1124h196l-20 -501h-173v350h-1029v-352h-165zM390 151h690v1124h-480l-23 -425q-9 -234 -59 -411t-128 -288z" />
<glyph unicode="&#x415;" horiz-adv-x="1279" d="M79 0v123l160 28v1124l-160 27v125h1057v-343h-155l-22 194h-527v-465h526v-151h-526v-517h559l21 197h154v-342h-1087z" />
<glyph unicode="&#x416;" horiz-adv-x="2000" d="M61 1395q31 20 67.5 31.5t84.5 11.5q81 0 143 -39.5t131 -149.5l284 -465h139v491l-159 27v125h511v-125l-160 -27v-491h151l285 465q67 110 129 149.5t145 39.5q47 0 83.5 -11.5t67.5 -31.5l-28 -136q-21 4 -42 7t-42 3q-47 0 -80 -25t-72 -83l-273 -424l374 -593 l143 -21v-123h-451v123l76 13l-3 5l-291 480h-172v-470l160 -28v-123h-511v123l159 28v470h-178l-293 -481l-2 -4l77 -13v-123h-452v123l143 21l380 602l-261 415q-38 58 -71 83t-80 25q-21 0 -42 -3t-42 -7z" />
<glyph unicode="&#x417;" horiz-adv-x="1197" d="M74 390l2 6h185q0 -112 82 -189t230 -77q143 0 236.5 73t93.5 206q0 117 -80.5 179.5t-237.5 62.5h-161v153h161q151 0 223.5 63.5t72.5 173.5q0 113 -81 184t-240 71q-103 0 -173.5 -30t-115.5 -75l-37 -201h-135v253q61 78 185.5 141t293.5 63q228 0 362 -102t134 -278 q0 -118 -61.5 -203t-169.5 -132q122 -41 187.5 -126.5t65.5 -208.5q0 -130 -66.5 -224t-185 -144t-275.5 -50q-136 0 -249.5 47.5t-180.5 138.5t-65 225z" />
<glyph unicode="&#x418;" horiz-adv-x="1542" d="M75 0v123l160 28v1124l-160 27v125h513v-125l-160 -27v-822l6 -2l686 734v90l-160 27v125h513v-125l-160 -27v-1124l160 -28v-123h-513v123l160 28v796l-6 2l-686 -735v-63l160 -28v-123h-513z" />
<glyph unicode="&#x419;" horiz-adv-x="1542" d="M75 0v123l160 28v1124l-160 27v125h513v-125l-160 -27v-822l6 -2l686 734v90l-160 27v125h513v-125l-160 -27v-1124l160 -28v-123h-513v123l160 28v796l-6 2l-686 -735v-63l160 -28v-123h-513zM469 1811l2 6h147q0 -71 38 -115t118 -44q78 0 116.5 44t38.5 115h148l2 -6 q-1 -123 -82 -199.5t-223 -76.5t-223.5 76.5t-81.5 199.5z" />
<glyph unicode="&#x41a;" horiz-adv-x="1422" d="M70 0v123l159 28v1124l-159 27v125h512v-125l-160 -27v-491h156l323 465q79 109 138 149t136 40q46 0 78 -11.5t67 -32.5l-28 -137q-27 5 -47 8.5t-40 3.5q-46 0 -77.5 -24.5t-73.5 -83.5l-307 -427l474 -586l134 -25v-123h-468v123l109 14l-4 5l-385 479h-185v-470 l160 -28v-123h-512z" />
<glyph unicode="&#x41b;" horiz-adv-x="1481" d="M56 0v151h39q88 0 140.5 58.5t79 190.5t36.5 355l23 521l-153 26v125h1191v-125l-160 -27v-1124l160 -28v-123h-512v123l159 28v1124h-493l-23 -520q-13 -268 -56.5 -434.5t-134.5 -243.5t-245 -77h-51z" />
<glyph unicode="&#x41c;" horiz-adv-x="1942" d="M92 0v123l160 28v1124l-160 27v125h418l459 -1083h6l445 1083h430v-125l-160 -27v-1124l160 -28v-123h-512v123l168 28v1012l-5 1l-463 -1113h-129l-479 1111l-5 -1l7 -597v-413l173 -28v-123h-513z" />
<glyph unicode="&#x41d;" horiz-adv-x="1546" d="M79 0v123l160 28v1124l-160 27v125h513v-125l-160 -27v-493h682v493l-159 27v125h512v-125l-160 -27v-1124l160 -28v-123h-512v123l159 28v479h-682v-479l160 -28v-123h-513z" />
<glyph unicode="&#x41e;" horiz-adv-x="1416" d="M69 703v20q0 213 71 376t204 255.5t318 92.5q195 0 326.5 -92.5t199 -255.5t67.5 -376v-20q0 -213 -67.5 -376t-199 -255.5t-326.5 -92.5q-185 0 -317.5 92.5t-204 255.5t-71.5 376zM263 703q0 -167 46 -294t135 -198t218 -71q142 0 229.5 70.5t128.5 197.5t41 295v22 q0 167 -41.5 293t-129.5 197t-228 71q-129 0 -218 -71.5t-135 -197.5t-46 -292v-22z" />
<glyph unicode="&#x41f;" horiz-adv-x="1544" d="M75 0v123l160 28v1124l-160 27v125h1400v-125l-160 -27v-1124l160 -28v-123h-513v123l160 28v1124h-694v-1124l160 -28v-123h-513z" />
<glyph unicode="&#x420;" horiz-adv-x="1274" d="M79 0v123l160 28v1124l-160 27v125h656q228 0 355 -117.5t127 -309.5q0 -194 -127 -311t-355 -117h-303v-421l160 -28v-123h-513zM432 723h303q145 0 217 78t72 197q0 118 -72 197.5t-217 79.5h-303v-552z" />
<glyph unicode="&#x421;" horiz-adv-x="1294" d="M78 703v20q0 210 75.5 373t217 257t337.5 94q138 0 252.5 -43t190.5 -109v-308h-154l-21 225q-99 76 -269 76q-141 0 -238 -72t-147 -198.5t-50 -292.5v-22q0 -270 119 -418.5t340 -148.5q69 0 134.5 17t108.5 43l22 199h151v-310q-81 -50 -192.5 -78t-230.5 -28 q-214 0 -358 94.5t-216 258t-72 371.5z" />
<glyph unicode="&#x422;" horiz-adv-x="1377" d="M94 1083v344h1186v-344h-143l-30 198h-323v-1130l160 -28v-123h-513v123l160 28v1130h-323l-29 -198h-145z" />
<glyph unicode="&#x423;" horiz-adv-x="1332" d="M53 1302v125h448v-125l-120 -18l217 -524l71 -185h6l268 708l-125 19v125h456v-125l-112 -16l-440 -1052q-38 -85 -79 -142t-103 -85t-161 -28q-24 0 -57 3t-42 6l6 146q10 -2 42.5 -3t48.5 -1q70 0 100 35t68 114l38 82l-414 924z" />
<glyph unicode="&#x424;" horiz-adv-x="1568" d="M82 709q0 151 76 271t206.5 189t295.5 69h28v114l-160 29v123h513v-123l-160 -29v-114h25q165 0 296.5 -68.5t207.5 -188t76 -271.5q0 -147 -76 -265.5t-207.5 -186.5t-296.5 -68h-25v-116l160 -28v-123h-513v123l160 28v116h-28q-166 0 -296.5 67.5t-206 185.5 t-75.5 266zM273 709q0 -165 100.5 -266.5t286.5 -101.5h28v745h-28q-186 0 -286.5 -104t-100.5 -273zM881 341h27q183 0 284.5 102.5t101.5 266.5q0 170 -101.5 273t-284.5 103h-27v-745z" />
<glyph unicode="&#x425;" horiz-adv-x="1498" d="M78 0v123l124 22l442 579l-410 557l-124 21v125h462v-125l-134 -12l316 -440l300 440l-138 12v125h466v-125l-131 -21l-387 -557l430 -579l126 -22v-123h-468v123l138 13l-338 464l-337 -464l130 -13v-123h-467z" />
<glyph unicode="&#x426;" horiz-adv-x="1562" d="M75 0v123l160 28v1124l-160 27v125h513v-125l-160 -27v-1124h694v1124l-160 27v125h513v-125l-160 -27v-1124h186v-495h-191v344h-1235z" />
<glyph unicode="&#x427;" horiz-adv-x="1495" d="M58 1302v125h512v-125l-159 -27v-299q0 -162 67.5 -224t217.5 -62q102 0 196 13.5t191 40.5v531l-160 27v125h514v-125l-160 -27v-1124l160 -28v-123h-514v123l160 28v440q-93 -28 -180.5 -41t-206.5 -13q-235 0 -356.5 103t-121.5 336v299z" />
<glyph unicode="&#x428;" horiz-adv-x="1996" d="M75 0v123l160 28v1124l-160 27v125h513v-125l-160 -27v-1124h482v1124l-159 27v125h511v-125l-160 -27v-1124h481v1124l-160 27v125h513v-125l-160 -27v-1124l160 -28v-123h-1861z" />
<glyph unicode="&#x429;" horiz-adv-x="2003" d="M75 0v123l160 28v1124l-160 27v125h513v-125l-160 -27v-1124h482v1124l-159 27v125h511v-125l-160 -27v-1124h481v1124l-160 27v125h513v-125l-160 -27v-1123h176l-19 -496h-172v344h-1686z" />
<glyph unicode="&#x42a;" horiz-adv-x="1705" d="M61 1112v315h874v-125l-160 -27v-432h352q229 0 355 -113t126 -305q0 -193 -126.5 -309t-354.5 -116h-705v123l160 28v1124h-342l-14 -163h-165zM775 151h352q145 0 216.5 78.5t71.5 197.5q0 116 -71.5 190t-216.5 74h-352v-540z" />
<glyph unicode="&#x42b;" horiz-adv-x="1855" d="M69 0v123l159 28v1124l-159 27v125h512v-125l-160 -27v-432h352q230 0 355.5 -113t125.5 -305q0 -193 -126 -309t-355 -116h-704zM421 151h352q145 0 216.5 78.5t71.5 197.5q0 116 -71.5 190t-216.5 74h-352v-540zM1285 0v123l160 28v1124l-160 27v125h513v-125l-160 -27 v-1124l160 -28v-123h-513z" />
<glyph unicode="&#x42c;" horiz-adv-x="1330" d="M69 0v123l159 28v1124l-159 27v125h512v-125l-160 -27v-432h352q230 0 355.5 -113t125.5 -305q0 -193 -126 -309t-355 -116h-704zM421 151h352q145 0 216.5 78.5t71.5 197.5q0 116 -71.5 190t-216.5 74h-352v-540z" />
<glyph unicode="&#x42d;" horiz-adv-x="1231" d="M81 184v254h136l36 -202q42 -44 121.5 -74.5t177.5 -30.5q126 0 216.5 64t141 176.5t57.5 260.5l-2 5h-543v151h544l2 5q-7 149 -58 262.5t-146 177.5t-232 64q-96 0 -164.5 -29.5t-114.5 -75.5l-36 -202h-136v254q41 52 109.5 98.5t160.5 75.5t201 29q188 0 326.5 -93 t214 -256t75.5 -374v-20q0 -210 -77.5 -373t-216.5 -257t-322 -94q-164 0 -287.5 63t-183.5 141z" />
<glyph unicode="&#x42e;" horiz-adv-x="1954" d="M46 0v123l160 28v1124l-160 27v125h513v-125l-160 -27v-505h210q9 195 90 347t218 239.5t312 87.5q189 0 334 -95t226.5 -259t81.5 -371v-20q0 -208 -81.5 -371.5t-226.5 -257.5t-334 -94q-172 0 -306 82.5t-216 227.5t-96 333h-212v-468l160 -28v-123h-513zM801 699 q0 -168 51 -295.5t147 -199t230 -71.5q142 0 242.5 71.5t153.5 199t53 295.5v22q0 166 -54 293.5t-154.5 199t-240.5 71.5q-134 0 -230 -72t-147 -199t-51 -293v-22z" />
<glyph unicode="&#x42f;" horiz-adv-x="1356" d="M55 33l27 137q33 -10 60 -10q40 0 70 23.5t58 67.5l198 344l3 5q-153 50 -233 150.5t-80 247.5q0 203 134 316t370 113h618v-125l-160 -27v-1124l160 -28v-123h-514v123l160 28v408h-289l-215 -395q-99 -172 -245 -172q-41 0 -68 10t-54 31zM351 1000q0 -129 80.5 -209 t230.5 -80h264v564h-264q-152 0 -231.5 -73.5t-79.5 -201.5z" />
<glyph unicode="&#x430;" horiz-adv-x="1109" d="M77 288q0 151 123.5 242.5t343.5 91.5h189v104q0 96 -58.5 149t-163.5 53q-67 0 -116 -16t-89 -45l-21 -148h-149v243q144 118 378 118q193 0 302.5 -92t109.5 -264v-510q0 -21 0.5 -40.5t2.5 -39.5l103 -11v-123h-277q-17 80 -21 146q-56 -72 -139.5 -119.5 t-178.5 -47.5q-166 0 -252.5 81t-86.5 228zM270 284q0 -143 174 -143q96 0 175.5 46t113.5 111v192h-196q-133 0 -200 -63.5t-67 -142.5z" />
<glyph unicode="&#x431;" horiz-adv-x="1142" d="M104 498v137q0 314 131.5 500t352.5 230q123 23 178.5 54t55.5 103h149l2 -6q2 -115 -34 -174.5t-114 -88t-201 -49.5q-134 -22 -228.5 -103t-116.5 -237l4 -5q58 62 145.5 101.5t186.5 39.5q135 0 233 -62t151.5 -170t53.5 -249v-21q0 -152 -58 -269t-164.5 -183.5 t-252.5 -66.5t-252 66.5t-164 183.5t-58 269zM297 498q0 -160 70.5 -264t210.5 -104q138 0 209.5 104t71.5 264v21q0 142 -72 236t-211 94q-138 0 -208.5 -94t-70.5 -236v-21z" />
<glyph unicode="&#x432;" horiz-adv-x="1245" d="M95 0v123l160 28v757l-160 28v124h577q210 0 325.5 -73t115.5 -219q0 -74 -45 -132.5t-127 -88.5q99 -25 155 -92t56 -153q0 -149 -108.5 -225.5t-303.5 -76.5h-645zM448 149h292q217 0 217 158q0 75 -54.5 116.5t-162.5 41.5h-292v-316zM448 612h225q247 0 247 147 q0 151 -248 151h-224v-298z" />
<glyph unicode="&#x433;" horiz-adv-x="1053" d="M71 0v123l159 28v757l-159 28v124h865v-273h-126l-13 120h-374v-756l160 -28v-123h-512z" />
<glyph unicode="&#x434;" horiz-adv-x="1277" d="M65 151h83q54 63 91 126.5t59 153t32 231.5l10 247l-154 27v124h1013v-124l-160 -28v-757h141l-20 -463h-173v312h-730v-312h-174zM370 151h476v738h-314l-9 -227q-10 -177 -50 -301.5t-103 -209.5z" />
<glyph unicode="&#x435;" horiz-adv-x="1037" d="M73 510v43q0 151 62 270t165.5 188t225.5 69q214 0 324 -129.5t110 -344.5v-121h-688l-2 -5q2 -153 76.5 -251.5t209.5 -98.5q98 0 172 28t128 77l75 -125q-57 -55 -150.5 -93t-224.5 -38q-147 0 -256 67.5t-168 187t-59 276.5zM276 641l2 -5h489v26q0 113 -60.5 189.5 t-180.5 76.5q-97 0 -165.5 -82t-84.5 -205z" />
<glyph unicode="&#x436;" horiz-adv-x="1693" d="M38 0v123l151 22l276 410l-178 266q-28 42 -60 65.5t-72 23.5q-21 0 -27 -1t-48 -7l-27 131q36 23 65.5 34.5t75.5 11.5q74 0 135 -44t110 -126l183 -297h117v296l-160 28v124h513v-124l-160 -28v-296h126l184 297q48 82 109 126t137 44q45 0 74.5 -12t65.5 -34l-27 -131 q-42 6 -48.5 7t-25.5 1q-41 0 -73.5 -23.5t-58.5 -65.5l-184 -274l272 -402l150 -22v-123h-296l-276 450h-129v-299l160 -28v-123h-513v123l160 28v299h-130l-275 -450h-296z" />
<glyph unicode="&#x437;" horiz-adv-x="1027" d="M87 308l2 6h183q0 -75 65 -130t167 -55q105 0 162.5 48.5t57.5 121.5q0 85 -50.5 124.5t-157.5 39.5h-184v156h184q102 0 146 39t44 112q0 67 -50 113t-152 46q-91 0 -153 -48t-62 -117h-183l-2 6q-4 91 48.5 160.5t144.5 108.5t207 39q186 0 291 -80t105 -228 q0 -71 -43.5 -131t-120.5 -94q183 -65 183 -246q0 -149 -114 -233.5t-301 -84.5q-116 0 -212 37.5t-152 110.5t-53 179z" />
<glyph unicode="&#x438;" horiz-adv-x="1368" d="M95 0v123l160 28v757l-160 28v124h512v-124l-160 -28v-598l6 -2l467 752h353v-124l-160 -28v-757l160 -28v-123h-513v123l160 28v600l-6 2l-467 -753h-352z" />
<glyph unicode="&#x439;" horiz-adv-x="1368" d="M95 0v123l160 28v757l-160 28v124h512v-124l-160 -28v-598l6 -2l467 752h353v-124l-160 -28v-757l160 -28v-123h-513v123l160 28v600l-6 2l-467 -753h-352zM385 1523l2 6h147q0 -71 38 -115t118 -44q78 0 116.5 44t38.5 115h148l2 -6q-1 -123 -82 -199.5t-223 -76.5 t-223.5 76.5t-81.5 199.5z" />
<glyph unicode="&#x43a;" horiz-adv-x="1238" d="M95 0v123l160 28v757l-160 28v124h513v-124l-160 -28v-296h102l221 297q60 84 117.5 127t128.5 43q45 0 74.5 -11.5t66.5 -34.5l-27 -131q-42 6 -48.5 7t-26.5 1q-36 0 -70.5 -26t-61.5 -63l-205 -265l335 -408l136 -25v-123h-258l-359 450h-125v-299l160 -28v-123h-513z " />
<glyph unicode="&#x43b;" horiz-adv-x="1289" d="M68 0l3 165l40 1q104 0 144.5 101t40.5 341v300l-160 28v124h1065v-124l-159 -28v-757l159 -28v-123h-512v123l160 28v756h-360v-299q0 -314 -83 -461t-284 -147h-54z" />
<glyph unicode="&#x43c;" horiz-adv-x="1689" d="M95 0v123l160 28v757l-160 28v124h409l345 -807h6l345 807h402v-124l-159 -28v-757l159 -28v-123h-512v123l160 28v585l-6 2l-326 -738h-133l-331 754l-6 -2v-601l160 -28v-123h-513z" />
<glyph unicode="&#x43d;" horiz-adv-x="1367" d="M95 0v123l160 28v757l-160 28v124h513v-124l-160 -28v-306h471v306l-159 28v124h513v-124l-160 -28v-757l160 -28v-123h-513v123l159 28v300h-471v-300l160 -28v-123h-513z" />
<glyph unicode="&#x43e;" horiz-adv-x="1126" d="M76 518v22q0 157 58 279t164.5 191.5t251.5 69.5q147 0 253 -69.5t164 -191t58 -279.5v-22q0 -157 -58 -279t-163.5 -191t-251.5 -69q-147 0 -253.5 69.5t-164.5 191.5t-58 278zM270 518q0 -168 71 -278t211 -110q137 0 208.5 110t71.5 278v22q0 112 -32 199.5t-94.5 138 t-155.5 50.5q-92 0 -155 -50.5t-94 -138t-31 -199.5v-22z" />
<glyph unicode="&#x43f;" horiz-adv-x="1368" d="M95 0v123l160 28v757l-160 28v124h1178v-124l-160 -28v-757l160 -28v-123h-513v123l160 28v756h-472v-756l160 -28v-123h-513z" />
<glyph unicode="&#x440;" horiz-adv-x="1215" d="M33 936v124h326l17 -129q109 149 305 149q131 0 224.5 -71t142.5 -199t49 -299v-21q0 -153 -49.5 -267.5t-142 -179t-221.5 -64.5q-193 0 -298 131v-366l169 -27v-125h-512v125l150 27v1164zM386 268q36 -66 94.5 -102t143.5 -36q137 0 208 100t71 260v21 q0 181 -71 296.5t-210 115.5q-82 0 -141 -37t-95 -102v-516z" />
<glyph unicode="&#x441;" horiz-adv-x="1045" d="M76 510v41q0 151 57 270.5t164 189t255 69.5q128 0 224.5 -42t162.5 -116l5 -255h-151l-33 186q-34 34 -84 54.5t-117 20.5q-87 0 -152 -51t-101 -136t-36 -190v-41q0 -175 75 -277.5t206 -102.5q98 0 162.5 54t79.5 148h173l2 -6q-5 -91 -54 -170.5t-139.5 -128 t-222.5 -48.5q-144 0 -251 67.5t-166 187t-59 276.5z" />
<glyph unicode="&#x442;" horiz-adv-x="1162" d="M76 745v315h1004v-315h-166l-14 165h-228v-759l160 -28v-123h-513v123l160 28v759h-223l-15 -165h-165z" />
<glyph unicode="&#x443;" horiz-adv-x="1168" d="M24 936v124h444v-124l-128 -20l207 -530l50 -138h6l245 668l-136 20v124h437v-124l-110 -16l-418 -1083q-44 -115 -117.5 -190t-200.5 -75q-23 0 -59 5.5t-56 9.5l20 152q16 -2 45.5 -3.5t40.5 -1.5q62 0 100.5 47t71.5 129l47 112l-376 898z" />
<glyph unicode="&#x444;" horiz-adv-x="1441" d="M89 490v21q0 171 44.5 299.5t130.5 199t210 70.5q40 0 75 -7t66 -19v323l-159 27v125h352v-480q34 14 73 22.5t85 8.5q124 0 210 -70.5t131 -199t45 -299.5v-21q0 -231 -100 -371t-284 -140q-46 0 -86 8t-74 22v-265l160 -27v-125h-512v125l159 27v261q-31 -12 -66.5 -19 t-76.5 -7q-183 0 -283 140t-100 371zM282 490q0 -164 56.5 -262t182.5 -98q55 0 94 14v770q-19 6 -42 10t-50 4q-127 0 -184 -115.5t-57 -301.5v-21zM808 144q40 -14 101 -14q127 0 188 99t61 261v21q0 184 -61.5 300.5t-189.5 116.5q-54 0 -99 -17v-767z" />
<glyph unicode="&#x445;" horiz-adv-x="1178" d="M41 0v123l118 23l316 390l-309 377l-105 23v124h415v-124l-106 -12l218 -270l212 271l-114 11v124h409v-124l-108 -23l-287 -374l330 -393l110 -23v-123h-450v123l127 11l-232 283l-225 -283l114 -11v-123h-433z" />
<glyph unicode="&#x446;" horiz-adv-x="1334" d="M69 0v123l159 28v757l-159 28v124h512v-124l-160 -28v-757h473v757l-160 28v124h513v-124l-160 -29v-756h130l-18 -466h-173v315h-957z" />
<glyph unicode="&#x447;" horiz-adv-x="1327" d="M64 938v123h512v-123l-160 -28v-160q0 -128 54.5 -187.5t162.5 -59.5q125 0 240 29v376l-160 28v124h513v-124l-160 -28v-757l160 -28v-123h-513v123l160 28v227q-110 -28 -240 -28q-192 0 -301 101t-109 299v160z" />
<glyph unicode="&#x448;" horiz-adv-x="1834" d="M95 0v123l160 28v757l-160 28v124h513v-124l-160 -28v-757h372v909h193v-909h374v757l-160 28v124h513v-124l-160 -28v-757l160 -28v-123h-1645z" />
<glyph unicode="&#x449;" horiz-adv-x="1835" d="M83 0v123l160 28v757l-160 28v124h513v-124l-160 -28v-757h372v909h194v-909h373v757l-160 28v124h513v-124l-160 -28v-756h171l-20 -467h-172v315h-1464z" />
<glyph unicode="&#x44a;" horiz-adv-x="1391" d="M30 746v314h765v-124l-160 -28v-212h263q188 0 293 -95.5t105 -248.5q0 -154 -105.5 -253t-292.5 -99h-616v123l160 28v757h-232l-14 -162h-166zM635 151h263q105 0 154.5 55.5t49.5 138.5q0 80 -50 140t-154 60h-263v-394z" />
<glyph unicode="&#x44b;" horiz-adv-x="1697" d="M95 0v123l160 28v757l-160 28v124h513v-124l-160 -28v-212h262q189 0 293.5 -95.5t104.5 -248.5q0 -154 -105 -253t-293 -99h-615zM448 151h262q105 0 154.5 55.5t49.5 138.5q0 80 -50 140t-154 60h-262v-394zM1130 0v123l160 28v757l-160 28v124h353v-909l159 -28v-123 h-512z" />
<glyph unicode="&#x44c;" horiz-adv-x="1187" d="M95 0v123l160 28v757l-160 28v124h513v-124l-160 -28v-212h262q189 0 293.5 -95.5t104.5 -248.5q0 -154 -105 -253t-293 -99h-615zM448 151h262q105 0 154.5 55.5t49.5 138.5q0 80 -50 140t-154 60h-262v-394z" />
<glyph unicode="&#x44d;" horiz-adv-x="1067" d="M95 329l2 6h174q0 -58 34 -104t89 -73.5t120 -27.5q141 0 206 94t69 236l-2 5h-392v150h391l2 5q-8 132 -74 220t-200 88q-69 0 -123 -20.5t-88 -53.5l-41 -167h-155l10 235q65 74 166.5 116t230.5 42q152 0 258.5 -69.5t161.5 -189t55 -270.5v-41q0 -152 -55 -272 t-161 -189.5t-259 -69.5q-113 0 -210 49.5t-155 129.5t-54 171z" />
<glyph unicode="&#x44e;" horiz-adv-x="1730" d="M68 0v123l159 28v757l-159 28v124h352v-448h260q13 139 73.5 244t161.5 164.5t236 59.5q146 0 252.5 -69.5t164.5 -191t58 -279.5v-22q0 -157 -58 -278.5t-164 -191t-252 -69.5q-138 0 -240.5 61t-162 169.5t-70.5 252.5h-259v-311l160 -28v-123h-512zM870 518 q0 -168 71 -278t211 -110q138 0 209.5 110t71.5 278v22q0 111 -32 198.5t-94.5 138.5t-155.5 51q-94 0 -156 -51t-93.5 -138.5t-31.5 -198.5v-22z" />
<glyph unicode="&#x44f;" horiz-adv-x="1275" d="M64 0v123l139 21l181 296q-101 36 -155.5 114.5t-54.5 181.5q0 143 109 233.5t298 90.5h608v-124l-160 -28v-757l160 -28v-123h-513v123l160 28v261h-262l-251 -412h-259zM368 734q0 -71 49 -120.5t145 -49.5h274v346h-255q-105 0 -159 -52t-54 -124z" />
<glyph unicode="&#x450;" horiz-adv-x="1037" d="M73 510v43q0 151 62 270t165.5 188t225.5 69q214 0 324 -129.5t110 -344.5v-121h-688l-2 -5q2 -153 76.5 -251.5t209.5 -98.5q98 0 172 28t128 77l75 -125q-57 -55 -150.5 -93t-224.5 -38q-147 0 -256 67.5t-168 187t-59 276.5zM236 1523l2 6h226l180 -267h-144zM276 641 l2 -5h489v26q0 113 -60.5 189.5t-180.5 76.5q-97 0 -165.5 -82t-84.5 -205z" />
<glyph unicode="&#x451;" horiz-adv-x="1037" d="M73 510v43q0 151 62 270t165.5 188t225.5 69q214 0 324 -129.5t110 -344.5v-121h-688l-2 -5q2 -153 76.5 -251.5t209.5 -98.5q98 0 172 28t128 77l75 -125q-57 -55 -150.5 -93t-224.5 -38q-147 0 -256 67.5t-168 187t-59 276.5zM216 1322v207h203v-207h-203zM276 641 l2 -5h489v26q0 113 -60.5 189.5t-180.5 76.5q-97 0 -165.5 -82t-84.5 -205zM631 1322v207h203v-207h-203z" />
<glyph unicode="&#x452;" horiz-adv-x="1272" d="M30 1156v111h190v110l-159 27v125h353v-262h209v-111h-209v-237q54 77 133.5 119t176.5 42q171 0 265 -102t94 -314v-751q0 -164 -84 -252.5t-235 -88.5q-31 0 -57 4.5t-53 12.5l14 147q13 -5 46.5 -8.5t49.5 -3.5q59 0 92.5 50.5t33.5 138.5v753q0 257 -225 257 q-79 0 -144 -37.5t-107 -102.5v-632l159 -28v-123h-512v123l159 28v1005h-190z" />
<glyph unicode="&#x453;" horiz-adv-x="1053" d="M71 0v123l159 28v757l-159 28v124h865v-273h-126l-13 120h-374v-756l160 -28v-123h-512zM408 1262l181 267h225l2 -6l-264 -261h-144z" />
<glyph unicode="&#x454;" horiz-adv-x="1095" d="M112 510v41q0 151 54.5 270.5t160.5 189t260 69.5q127 0 228.5 -42t168.5 -116l9 -235h-154l-42 167q-35 33 -88.5 53.5t-121.5 20.5q-138 0 -204 -91.5t-71 -226.5l2 -5h356v-151h-356l-2 -5q5 -138 70.5 -228.5t204.5 -90.5q64 0 119 27.5t89 73.5t34 104h174l1 -6 q3 -91 -54.5 -171t-153.5 -129.5t-209 -49.5q-154 0 -260.5 69.5t-160.5 189.5t-54 272z" />
<glyph unicode="&#x455;" horiz-adv-x="1001" d="M102 319h146l36 -151q104 -44 218 -44q117 0 168 45.5t51 111.5q0 63 -51.5 106.5t-186.5 74.5q-192 44 -282.5 118t-90.5 197q0 86 50 154.5t139 108.5t208 40q120 0 206 -27.5t149 -73.5l10 -242h-145l-31 141q-34 26 -81.5 39.5t-107.5 13.5q-91 0 -147 -42t-56 -106 q0 -37 16 -64.5t62 -49.5t135 -44q222 -52 309.5 -132t87.5 -198q0 -134 -99.5 -225t-312.5 -91q-107 0 -200 22t-198 67z" />
<glyph unicode="&#x456;" horiz-adv-x="659" d="M66 0v123l159 28v757l-159 28v124h352v-909l160 -28v-123h-512zM215 1322v207h203v-207h-203z" />
<glyph unicode="&#x457;" horiz-adv-x="638" d="M9 1322v207h203v-207h-203zM66 0v123l159 28v757l-159 28v124h352v-909l160 -28v-123h-512zM424 1322v207h203v-207h-203z" />
<glyph unicode="&#x458;" horiz-adv-x="559" d="M-55 -411l13 147q14 -5 46.5 -8.5t50.5 -3.5q58 0 91.5 50.5t33.5 138.5v995l-159 28v124h352v-1147q0 -164 -84 -252.5t-234 -88.5q-31 0 -56.5 4.5t-53.5 12.5zM170 1322v207h203v-207h-203z" />
<glyph unicode="&#x459;" horiz-adv-x="1750" d="M64 0l3 155l40 1q104 0 149.5 106.5t45.5 345.5v300l-160 28v124h1017v-124l-159 -28v-250h262q188 0 293 -91t105 -235q0 -145 -105.5 -238.5t-292.5 -93.5h-615v123l160 28v756h-312v-299q0 -312 -87.5 -460t-288.5 -148h-55zM1000 149h262q104 0 154 55t50 130 q0 72 -49.5 122.5t-154.5 50.5h-262v-358z" />
<glyph unicode="&#x45a;" horiz-adv-x="1856" d="M95 0v123l160 28v757l-160 28v124h513v-124l-160 -28v-247h471v247l-159 28v124h513v-124l-160 -28v-251h263q188 0 293 -90.5t105 -234.5q0 -145 -105.5 -238.5t-292.5 -93.5h-616v123l159 28v360h-471v-360l160 -28v-123h-513zM1113 149h263q104 0 154 55t50 130 q0 72 -49.5 122.5t-154.5 50.5h-263v-358z" />
<glyph unicode="&#x45b;" horiz-adv-x="1288" d="M48 0v123l160 28v1226l-160 27v125h353v-610q55 77 134 119t176 42q171 0 265 -102t94 -314v-513l160 -28v-123h-513v123l160 28v515q0 257 -224 257q-80 0 -145 -37.5t-107 -102.5v-632l160 -28v-123h-513zM48 1131v152h591v-152h-591z" />
<glyph unicode="&#x45c;" horiz-adv-x="1238" d="M95 0v123l160 28v757l-160 28v124h513v-124l-160 -28v-296h102l221 297q60 84 117.5 127t128.5 43q45 0 74.5 -11.5t66.5 -34.5l-27 -131q-42 6 -48.5 7t-26.5 1q-36 0 -70.5 -26t-61.5 -63l-205 -265l335 -408l136 -25v-123h-258l-359 450h-125v-299l160 -28v-123h-513z M501 1262l181 267h225l2 -6l-264 -261h-144z" />
<glyph unicode="&#x45d;" horiz-adv-x="1368" d="M95 0v123l160 28v757l-160 28v124h512v-124l-160 -28v-598l6 -2l467 752h353v-124l-160 -28v-757l160 -28v-123h-513v123l160 28v600l-6 2l-467 -753h-352zM401 1523l2 6h226l180 -267h-144z" />
<glyph unicode="&#x45e;" horiz-adv-x="1168" d="M24 936v124h444v-124l-128 -20l207 -530l50 -138h6l245 668l-136 20v124h437v-124l-110 -16l-418 -1083q-44 -115 -117.5 -190t-200.5 -75q-23 0 -59 5.5t-56 9.5l20 152q16 -2 45.5 -3.5t40.5 -1.5q62 0 100.5 47t71.5 129l47 112l-376 898zM279 1523l2 6h147 q0 -71 38 -115t118 -44q78 0 116.5 44t38.5 115h148l2 -6q-1 -123 -82 -199.5t-223 -76.5t-223.5 76.5t-81.5 199.5z" />
<glyph unicode="&#x45f;" horiz-adv-x="1369" d="M96 0v123l160 28v757l-160 28v124h513v-124l-160 -28v-757h472v757l-160 28v124h513v-124l-160 -28v-757l160 -28v-123h-490v-349h-193v349h-495z" />
<glyph unicode="&#x460;" horiz-adv-x="1727" d="M141 383v1044h193v-1044q0 -123 54.5 -188t143.5 -65q106 0 171 64.5t65 188.5v1044h200v-1044q0 -123 60 -188t158 -65q97 0 156.5 65t59.5 188v1044h193v-1044q0 -197 -113 -300.5t-296 -103.5q-107 0 -190.5 43t-129.5 127q-50 -84 -136.5 -127t-197.5 -43 q-176 0 -283.5 103.5t-107.5 300.5z" />
<glyph unicode="&#x461;" horiz-adv-x="1572" d="M147 345v715h193v-715q0 -106 43 -160.5t116 -54.5q88 0 143 55t55 160v715h194v-715q0 -106 48.5 -160.5t129.5 -54.5q80 0 129.5 55t49.5 160v715h193v-715q0 -178 -103 -272t-269 -94q-92 0 -163.5 35.5t-113.5 105.5q-46 -70 -122 -105.5t-171 -35.5 q-159 0 -255.5 94t-96.5 272z" />
<glyph unicode="&#x462;" horiz-adv-x="1330" d="M68 994v152h591v-152h-591zM69 0v123l159 28v1124l-159 27v125h512v-125l-160 -27v-432h352q230 0 355.5 -113t125.5 -305q0 -193 -126 -309t-355 -116h-704zM421 151h352q145 0 216.5 78.5t71.5 197.5q0 116 -71.5 190t-216.5 74h-352v-540z" />
<glyph unicode="&#x463;" horiz-adv-x="1179" d="M74 1060v151h187v166l-160 27v125h353v-318h314v-151h-314v-327h262q189 0 293.5 -100.5t104.5 -262.5q0 -161 -105 -265.5t-293 -104.5h-615v123l160 28v909h-187zM454 151h262q105 0 154.5 60.5t49.5 152.5q0 88 -50 153t-154 65h-262v-431z" />
<glyph unicode="&#x464;" horiz-adv-x="1767" d="M56 0v123l160 28v1124l-160 27v125h512v-125l-159 -27v-458h191q17 187 101 329t219.5 222t310.5 80q163 0 286.5 -63t184.5 -141v-254h-136l-36 202q-47 46 -115.5 75.5t-164.5 29.5q-133 0 -230.5 -60.5t-154 -167.5t-67.5 -246l3 -6h532v-152h-536l-3 -4 q4 -153 57.5 -272.5t150.5 -188.5t229 -69q97 0 176.5 30.5t122.5 74.5l36 202h136v-254q-61 -79 -184.5 -141.5t-286.5 -62.5q-177 0 -317 87.5t-223 240t-94 347.5v10h-188v-514l159 -28v-123h-512z" />
<glyph unicode="&#x465;" horiz-adv-x="1613" d="M86 0v123l160 28v757l-160 28v124h353v-456h211q9 138 66 245t160 169t247 62q127 0 228.5 -42t168.5 -116l9 -235h-154l-42 167q-35 33 -88.5 53.5t-121.5 20.5q-138 0 -204 -91.5t-71 -227.5l2 -5h352v-151h-352l-2 -5q5 -137 70.5 -227.5t204.5 -90.5q64 0 119.5 27.5 t89 73.5t33.5 104h174l2 -6q3 -91 -55 -171t-154 -129.5t-209 -49.5q-144 0 -246.5 61t-159.5 168t-67 245h-211v-302l160 -28v-123h-513z" />
<glyph unicode="&#x466;" horiz-adv-x="1398" d="M51 0v123l102 15l464 1289h165l456 -1289l102 -15v-123h-410v123l111 19l-103 306h-152v-448h-192v448h-139l-106 -306l111 -19v-123h-409zM511 609h372l-168 493l-13 40h-6l-12 -34z" />
<glyph unicode="&#x467;" horiz-adv-x="1178" d="M59 0v123l68 13l377 924h165l379 -924l70 -13v-123h-212l-116 288h-104v-288h-192v288h-111l-113 -288h-211zM443 440h286l-123 306l-18 66h-6l-18 -66z" />
<glyph unicode="&#x468;" horiz-adv-x="1896" d="M39 0v123l160 28v1124l-160 27v125h513v-125l-160 -27v-665h468l295 817h165l456 -1289l102 -15v-123h-410v123l111 19l-103 306h-152v-448h-192v448h-139l-106 -306l111 -19v-123h-409v123l102 15l112 311h-411v-298l160 -28v-123h-513zM1049 609h372l-168 493l-13 40 h-6l-15 -41z" />
<glyph unicode="&#x469;" horiz-adv-x="1724" d="M41 0v123l160 28v757l-160 28v124h353v-620h396l253 620h165l379 -924l70 -13v-123h-211l-117 288h-104v-288h-192v288h-111l-114 -288h-210v123l68 13l62 151h-334v-136l160 -28v-123h-513zM982 440h286l-123 306l-18 66h-6l-18 -66z" />
<glyph unicode="&#x46a;" horiz-adv-x="1857" d="M54 0v123l160 28v213q0 229 121 331.5t356 102.5h36l-295 484l-141 20v125h1290v-125l-140 -20l-295 -484h21q234 0 356 -102.5t122 -331.5v-213l160 -28v-123h-512v123l159 28v213q0 158 -67.5 220t-217.5 62h-113l-25 -22v-473l160 -28v-123h-513v123l160 28v468 l-17 27h-128q-150 0 -217 -62t-67 -220v-213l159 -28v-123h-512zM653 1275l264 -455l14 -22h10l16 28l262 449h-566z" />
<glyph unicode="&#x46b;" horiz-adv-x="1568" d="M67 0v123l121 28v8q0 216 99 318.5t285 112.5q11 1 16.5 1h9.5l-193 324l-139 21v124h1050v-124l-138 -21l-193 -324h11t21 -2q175 -13 270 -116t95 -314v-8l121 -28v-123h-314v159q0 159 -58.5 220.5t-187.5 61.5h-50l-8 -9v-281l160 -28v-123h-513v123l160 28v281l-5 9 h-60q-130 0 -188 -61.5t-58 -220.5v-159h-314zM619 907l171 -309h6l167 309h-344z" />
<glyph unicode="&#x46c;" horiz-adv-x="2389" d="M55 0v123l160 28v1124l-160 27v125h512v-125l-159 -27v-476h873l-294 483l-141 20v125h1289v-125l-140 -20l-295 -484h22q234 0 356 -102.5t122 -331.5v-213l160 -28v-123h-513v123l160 28v213q0 158 -67.5 220t-217.5 62h-114l-24 -22v-473l159 -28v-123h-512v123 l160 28v468l-17 27h-128q-150 0 -217.5 -62t-67.5 -220v-213l160 -28v-123h-512v123l159 28v213q0 180 77 283h-437v-496l159 -28v-123h-512zM1207 1275l265 -455l14 -22h9l17 28l262 449h-567z" />
<glyph unicode="&#x46d;" horiz-adv-x="2144" d="M18 0v123l159 28v757l-159 28v124h352v-467h749l-192 322l-139 21v124h1050v-124l-138 -21l-193 -324h11t22 -2q174 -13 269 -116t95 -314v-8l122 -28v-123h-315v159q0 159 -58.5 220.5t-187.5 61.5h-50l-8 -9v-281l160 -28v-123h-513v123l160 28v281l-5 9h-59 q-131 0 -188.5 -61.5t-57.5 -220.5v-159h-315v123l121 28v8q0 178 70 282h-410v-290l160 -28v-123h-512zM1142 907l170 -309h6l168 309h-344z" />
<glyph unicode="&#x46e;" horiz-adv-x="1031" d="M41 1044l1 236q66 73 167.5 115t228.5 42q136 0 242 -49.5t166 -139t60 -207.5q0 -101 -64 -181.5t-176 -123.5q127 -40 194.5 -126.5t67.5 -210.5q0 -130 -59.5 -224.5t-164.5 -144.5t-243 -50h-48q-75 0 -109 -28.5t-34 -80.5q0 -69 46 -110.5t110 -71.5l-77 -124 q-109 46 -185.5 126.5t-76.5 188.5q0 127 88 189.5t245 62.5h41q127 0 200 73t73 190q0 262 -316 262h-140v151h140q151 0 222.5 62.5t71.5 174.5q0 102 -70.5 171t-203.5 69q-75 0 -133.5 -20t-95.5 -55l-13 -166h-155zM151 1792v25h158l144 -145l142 145h157v-26 l-241 -232h-117z" />
<glyph unicode="&#x46f;" horiz-adv-x="928" d="M30 932q62 65 158.5 101t218.5 36q123 0 217.5 -39t147.5 -109.5t53 -163.5q0 -73 -51.5 -133.5t-141.5 -97.5q104 -32 159.5 -92.5t55.5 -144.5q0 -147 -118 -228t-309 -81h-48q-142 0 -142 -109q0 -69 46 -110.5t111 -71.5l-78 -124q-109 46 -185 126.5t-77 188.5 q0 127 87.5 189.5t245.5 62.5h40q110 0 172 41t62 112q0 160 -277 160h-139v152h139q130 0 192.5 44.5t62.5 118.5q0 66 -57 111.5t-168 46.5q-68 0 -121.5 -15t-87.5 -40l-14 -145h-153zM109 1504v25h158l144 -145l142 145h157v-26l-242 -232h-116z" />
<glyph unicode="&#x470;" horiz-adv-x="1631" d="M54 1302v125h352v-521q0 -166 80 -269t214 -123l6 1v760l-160 27v125h512v-125l-159 -27v-761l6 -1q141 18 225.5 121t84.5 272v521h353v-125l-160 -27v-369q0 -159 -63.5 -278t-178 -189.5t-267.5 -86.5v-201l159 -28v-123h-512v123l160 28v202q-224 23 -358 168 t-134 385v369z" />
<glyph unicode="&#x471;" horiz-adv-x="1545" d="M-1 1021q84 59 194 59q95 0 146 -54.5t51 -174.5v-269q0 -200 80.5 -307t217.5 -128l6 2v910h193v-914l6 -2q119 13 197 71.5t116.5 148t38.5 193.5q-3 122 -35 247.5t-87 256.5h202q50 -104 81.5 -229t31.5 -275q0 -158 -58.5 -282.5t-180.5 -201t-312 -90.5v-447h-193 v451q-238 27 -367.5 175t-129.5 423v221q0 55 -19.5 77t-53.5 22q-19 0 -44 -7.5t-38 -13.5z" />
<glyph unicode="&#x472;" horiz-adv-x="1374" d="M77 703v20q0 207 78.5 371t218.5 258.5t325 94.5q189 0 334 -94.5t226.5 -258.5t81.5 -371v-20q0 -208 -81.5 -371.5t-226.5 -258t-334 -94.5q-185 0 -325 94.5t-218.5 258t-78.5 371.5zM276 785l2 -5h861l2 5q-7 148 -61.5 261.5t-151.5 178t-229 64.5 q-127 0 -219.5 -64.5t-145 -178t-58.5 -261.5zM278 623q9 -145 61.5 -254t143.5 -170.5t216 -61.5q197 0 312 134t129 352l-2 5h-858z" />
<glyph unicode="&#x473;" horiz-adv-x="1162" d="M102 518v22q0 157 58 279t163.5 191.5t251.5 69.5t253 -69.5t165 -191t58 -279.5v-22q0 -157 -58 -278.5t-164 -191t-252 -69.5q-147 0 -253 69.5t-164 191t-58 278.5zM302 455q7 -143 77 -234t198 -91q126 0 195.5 91t77.5 234l-2 5h-544zM303 616l2 -4h542l2 4 q-11 137 -81 224.5t-193 87.5t-192 -87.5t-80 -224.5z" />
<glyph unicode="&#x474;" horiz-adv-x="1359" d="M56 1302v125h421v-125l-113 -19l292 -909l32 -118h6l32 118l248 789q48 153 112.5 218t169.5 65h49l-1 -166h-11q-49 0 -78.5 -31t-57.5 -109l-384 -1140h-165l-452 1288z" />
<glyph unicode="&#x475;" horiz-adv-x="1140" d="M64 936v124h408v-124l-115 -20l186 -603l18 -76h5l19 76l146 524q40 124 105 183t145 59q33 0 57.5 -5t49.5 -20l-22 -148q-12 8 -39 8q-31 0 -60 -25.5t-42 -66.5l-290 -822h-146l-324 921z" />
<glyph unicode="&#x476;" horiz-adv-x="1359" d="M56 1302v125h421v-125l-113 -19l292 -909l32 -118h6l32 118l248 789q48 153 112.5 218t169.5 65h49l-1 -166h-11q-49 0 -78.5 -31t-57.5 -109l-384 -1140h-165l-452 1288zM250 1811l3 6h224l236 -262l-2 -5h-168zM587 1812l2 5h207l180 -267h-153z" />
<glyph unicode="&#x477;" horiz-adv-x="1140" d="M64 936v124h408v-124l-115 -20l186 -603l18 -76h5l19 76l146 524q40 124 105 183t145 59q33 0 57.5 -5t49.5 -20l-22 -148q-12 8 -39 8q-31 0 -60 -25.5t-42 -66.5l-290 -822h-146l-324 921zM129 1523l3 6h224l236 -262l-2 -5h-168zM466 1524l2 5h207l180 -267h-153z" />
<glyph unicode="&#x478;" horiz-adv-x="2492" d="M69 703v20q0 213 71 376t204 255.5t318 92.5q195 0 326.5 -92.5t199 -255.5t67.5 -376v-20q0 -213 -67.5 -376t-199 -255.5t-326.5 -92.5q-185 0 -317.5 92.5t-204 255.5t-71.5 376zM263 703q0 -167 46 -294t135 -198t218 -71q142 0 229.5 70.5t128.5 197.5t41 295v22 q0 167 -41.5 293t-129.5 197t-228 71q-129 0 -218 -71.5t-135 -197.5t-46 -292v-22zM1348 936v124h444v-124l-128 -20l207 -530l50 -138h6l245 668l-136 20v124h437v-124l-110 -16l-418 -1083q-44 -115 -117.5 -190t-200.5 -75q-23 0 -59 5.5t-56 9.5l20 152 q16 -2 45.5 -3.5t40.5 -1.5q62 0 100.5 47t71.5 129l47 112l-376 898z" />
<glyph unicode="&#x479;" horiz-adv-x="2259" d="M76 518v22q0 157 58 279t164.5 191.5t251.5 69.5q147 0 253 -69.5t164 -191t58 -279.5v-22q0 -157 -58 -279t-163.5 -191t-251.5 -69q-147 0 -253.5 69.5t-164.5 191.5t-58 278zM270 518q0 -168 71 -278t211 -110q137 0 208.5 110t71.5 278v22q0 112 -32 199.5t-94.5 138 t-155.5 50.5q-92 0 -155 -50.5t-94 -138t-31 -199.5v-22zM1116 936v124h444v-124l-128 -20l207 -530l50 -138h6l245 668l-136 20v124h437v-124l-110 -16l-418 -1083q-44 -115 -117.5 -190t-200.5 -75q-23 0 -59 5.5t-56 9.5l20 152q16 -2 45.5 -3.5t40.5 -1.5q62 0 100.5 47 t71.5 129l47 112l-376 898z" />
<glyph unicode="&#x47a;" horiz-adv-x="1416" d="M77 703v20q0 192 68.5 348t191 254t285.5 118v114h158v-114q168 -21 294 -119t196.5 -253.5t70.5 -347.5v-20q0 -192 -70.5 -347.5t-196.5 -253t-294 -118.5v-122h-158v122q-163 20 -285.5 117.5t-191 253t-68.5 348.5zM270 703q0 -227 93 -378.5t259 -180.5v108h158 v-108q176 29 272 180.5t96 378.5v22q0 224 -97 375t-271 182v-106h-158v106q-166 -31 -259 -182t-93 -375v-22z" />
<glyph unicode="&#x47b;" horiz-adv-x="1142" d="M102 518v22q0 142 47.5 256t136.5 187t212 91v108h154v-108q123 -18 213 -90.5t138 -186.5t48 -257v-22q0 -144 -48 -258t-138 -186t-213 -90v-100h-154v101q-124 19 -212.5 91t-136 185.5t-47.5 256.5zM295 518q0 -143 51 -244.5t152 -132.5v105h154v-106 q101 30 153.5 132t52.5 246v22q0 142 -52 245t-154 132v-98h-154v98q-101 -30 -152 -133t-51 -244v-22z" />
<glyph unicode="&#x47c;" horiz-adv-x="1707" d="M133 420v565q0 214 107 326.5t278 108.5l6 -2v-143q-89 0 -143.5 -74.5t-54.5 -215.5v-565q0 -142 54.5 -216t143.5 -74q106 0 171 64.5t65 188.5v424h195v-424q0 -123 64.5 -188t170.5 -65q89 0 144 74t55 216v565q0 141 -55 215.5t-144 74.5v143l6 2q170 4 278 -108.5 t108 -326.5v-565q0 -214 -108.5 -327.5t-283.5 -113.5q-112 0 -198 42t-134 125q-50 -83 -136.5 -125t-197.5 -42q-176 0 -283.5 113.5t-107.5 327.5zM545 1593v36q0 106 60.5 159.5t172.5 53.5q35 0 91.5 -18t122.5 -42.5t132.5 -42.5t122.5 -18h44v-127h-46 q-65 0 -136.5 18.5t-138.5 42.5t-117 42t-71 18q-49 0 -77 -26.5t-28 -77.5v-18h-132zM736 1356l57 113l-1 137h184v-120l-162 -194z" />
<glyph unicode="&#x47d;" horiz-adv-x="1501" d="M112 382v285q0 195 96 298t250 99l6 -3v-143q-73 0 -116 -64t-43 -187v-285q0 -124 43 -188t116 -64q88 0 143 55t55 160v229h193v-229q0 -106 53.5 -160.5t143.5 -54.5q71 0 115 64.5t44 187.5v285q0 123 -44 187t-115 64v143l5 3q154 4 250.5 -99t96.5 -298v-285 q0 -197 -97 -300t-255 -103q-98 0 -174 35.5t-120 106.5q-47 -71 -122.5 -106.5t-171.5 -35.5q-159 0 -255.5 103t-96.5 300zM476 1242v35q0 106 61 160t173 54q35 0 91.5 -18.5t122.5 -43t132 -42.5t122 -18h44v-126h-46q-65 0 -136.5 18t-138.5 42t-117 42t-71 18 q-49 0 -77 -26.5t-28 -77.5v-17h-132zM667 1004l57 113l-1 137h184v-120l-161 -194z" />
<glyph unicode="&#x47e;" horiz-adv-x="1727" d="M141 383v1044h193v-1044q0 -123 54.5 -188t143.5 -65q106 0 171 64.5t65 188.5v1044h200v-1044q0 -123 60 -188t158 -65q97 0 156.5 65t59.5 188v1044h193v-1044q0 -197 -113 -300.5t-296 -103.5q-107 0 -190.5 43t-129.5 127q-50 -84 -136.5 -127t-197.5 -43 q-176 0 -283.5 103.5t-107.5 300.5zM457 1654v107h804l2 -107h-325v-123h-175v123h-306z" />
<glyph unicode="&#x47f;" horiz-adv-x="1532" d="M147 345v715h193v-715q0 -106 43 -160.5t116 -54.5q88 0 143 55t55 160v715h194v-715q0 -106 48.5 -160.5t129.5 -54.5q80 0 129.5 55t49.5 160v715h193v-715q0 -178 -103 -272t-269 -94q-92 0 -163.5 35.5t-113.5 105.5q-46 -70 -122 -105.5t-171 -35.5 q-159 0 -255.5 94t-96.5 272zM395 1321v107h805l2 -107h-326v-125h-174v125h-307z" />
<glyph unicode="&#x480;" horiz-adv-x="1241" d="M112 586v254q0 175 69.5 312.5t192.5 216t285 78.5q161 0 279 -58t182.5 -164t61.5 -248l-2 -6h-185q0 150 -88 237.5t-248 87.5q-108 0 -187.5 -60t-123 -163t-43.5 -231v-256q0 -130 43.5 -233t123 -163t187.5 -60h111v-505h-192v360q-140 19 -245 101t-163 210.5 t-58 289.5z" />
<glyph unicode="&#x481;" horiz-adv-x="1036" d="M102 510v41q0 148 56.5 268t160.5 190.5t247 70.5q119 0 212 -50.5t146 -136t50 -192.5l-2 -6h-174q0 64 -31 116.5t-83.5 84.5t-117.5 32q-89 0 -149.5 -52t-91 -138t-30.5 -187v-41q0 -104 30 -190.5t90 -138t151 -51.5h105v-505h-193v362q-118 21 -202.5 94.5 t-129 184.5t-44.5 244z" />
<glyph unicode="&#x482;" horiz-adv-x="1115" d="M38 558l69 121l287 -167l199 356l-284 168l70 123l285 -167l183 323h166l-223 -399l287 -167l-74 -122l-283 167l-200 -356l284 -168l-71 -123l-285 167l-178 -314h-169l220 390z" />
<glyph unicode="&#x483;" horiz-adv-x="0" d="M39 1165v231h534l-1 105l172 -1v-212h-533v-124z" />
<glyph unicode="&#x484;" horiz-adv-x="0" d="M39 1277v127h43q56 0 122 18.5t132.5 43t122.5 42.5t92 18q111 0 172 -54t61 -160v-35h-131v18q0 51 -29 77t-77 26q-21 0 -71.5 -18t-117.5 -42.5t-138.5 -42.5t-135.5 -18h-45z" />
<glyph unicode="&#x485;" horiz-adv-x="0" d="M39 1470v121h183l-1 -138l58 -113l-79 -65z" />
<glyph unicode="&#x486;" horiz-adv-x="0" d="M39 1340l57 113l-1 138h184v-121l-161 -195z" />
<glyph unicode="&#x488;" horiz-adv-x="1975" d="M39 483q-5 77 50.5 128t149.5 51t149.5 -50.5t51.5 -128.5l-2 -6h-102q0 43 -23.5 71t-73.5 28q-49 0 -72 -28.5t-23 -70.5h-103zM202 -25q-5 76 50.5 127t149.5 51t150 -50.5t52 -127.5l-2 -6h-103q0 43 -23.5 71t-73.5 28q-49 0 -71.5 -28.5t-22.5 -70.5h-104zM212 976 q-5 78 50.5 128t150.5 50q94 0 149 -50t51 -128l-1 -6h-102q0 42 -24 70.5t-73 28.5t-72 -28.5t-23 -70.5h-104zM773 1248q-5 77 50 127.5t150 50.5q94 0 149.5 -50.5t51.5 -127.5l-2 -6h-102q0 42 -24 70.5t-73 28.5t-72 -28.5t-23 -70.5h-103zM778 -304q-5 79 50 129 t150 50q94 0 149.5 -50t51.5 -129l-2 -6h-102q0 43 -24 71t-73 28t-72 -28t-23 -71h-103zM1343 -25q-5 76 50 127t150 51q94 0 149 -50.5t51 -127.5l-2 -6h-101q0 43 -24 71t-73 28t-72.5 -28.5t-23.5 -70.5h-102zM1352 976q-4 77 51 127.5t149 50.5t150 -50t52 -128l-2 -6 h-103q0 43 -23.5 71t-73.5 28q-49 0 -71.5 -28.5t-22.5 -70.5h-104zM1536 483q-5 77 50.5 128t149.5 51t149 -50.5t51 -128.5l-1 -6h-102q0 43 -23.5 71t-73.5 28q-49 0 -72 -28.5t-23 -70.5h-103z" />
<glyph unicode="&#x489;" horiz-adv-x="1897" d="M39 534v96l339 -69v-137l-12 -11zM230 -78l288 196l95 -97l-1 -17l-314 -150zM315 1164l63 68l194 -293l-96 -96l-16 2zM843 -405l68 346h135l10 -14l-119 -332h-94zM843 1117l119 331h94l-68 -345h-133zM1284 982l2 16l314 150l67 -67q-19 -11 -91 -60t-197 -136z M1324 61l95 97l17 -2l146 -319l-65 -69zM1519 482v136l13 12l326 -121v-96z" />
<glyph unicode="&#x48a;" horiz-adv-x="1542" d="M75 0v123l160 28v1124l-160 27v125h513v-125l-160 -27v-822l6 -2l686 734v90l-160 27v125h513v-125l-160 -27v-1124l160 -28v-123h-513v123l160 28v796l-6 2l-686 -735v-63l160 -28v-123h-513zM469 1811l2 6h147q0 -71 38 -115t118 -44q78 0 116.5 44t38.5 115h148l2 -6 q-1 -123 -82 -199.5t-223 -76.5t-223.5 76.5t-81.5 199.5zM1188 -329q46 70 69.5 143.5t23.5 156.5v149h193v-146q0 -96 -48 -201t-130 -175z" />
<glyph unicode="&#x48b;" horiz-adv-x="1368" d="M95 0v123l160 28v757l-160 28v124h512v-124l-160 -28v-598l6 -2l467 752h353v-124l-160 -28v-757l160 -28v-123h-513v123l160 28v600l-6 2l-467 -753h-352zM385 1523l2 6h147q0 -71 38 -115t118 -44q78 0 116.5 44t38.5 115h148l2 -6q-1 -123 -82 -199.5t-223 -76.5 t-223.5 76.5t-81.5 199.5zM988 -329q46 70 69.5 143.5t23.5 156.5v149h193v-146q0 -96 -48 -201t-130 -175z" />
<glyph unicode="&#x48c;" horiz-adv-x="1330" d="M68 994v152h591v-152h-591zM69 0v123l159 28v1124l-159 27v125h512v-125l-160 -27v-432h352q230 0 355.5 -113t125.5 -305q0 -193 -126 -309t-355 -116h-704zM421 151h352q145 0 216.5 78.5t71.5 197.5q0 116 -71.5 190t-216.5 74h-352v-540z" />
<glyph unicode="&#x48d;" horiz-adv-x="1174" d="M38 1275v152h217v38l-160 29v123h353v-190h286v-152h-286v-542h263q189 0 293 -100.5t104 -262.5q0 -161 -105 -265.5t-292 -104.5h-616v123l160 28v1124h-217zM448 151h263q104 0 153.5 61t49.5 152q0 88 -50 153t-153 65h-263v-431z" />
<glyph unicode="&#x48e;" horiz-adv-x="1274" d="M70 0v123l159 28v1124l-159 27v125h655q229 0 355.5 -117.5t126.5 -309.5q0 -179 -105 -290l116 -128l-113 -102l-129 141q-108 -49 -251 -49h-303v-421l160 -28v-123h-512zM422 723h303q76 0 134 24l-120 131l114 102l123 -134q38 63 38 152q0 118 -72 197.5t-217 79.5 h-303v-552z" />
<glyph unicode="&#x48f;" horiz-adv-x="1215" d="M33 936v124h326l17 -129q109 149 305 149q131 0 224.5 -71t142.5 -199t49 -299v-21q0 -226 -105 -365l82 -91l-114 -103l-85 94q-84 -46 -191 -46q-193 0 -298 131v-366l169 -27v-125h-512v125l150 27v1164zM386 268q36 -66 94.5 -102t143.5 -36q73 0 130 31l-124 137 l114 103l114 -128q45 89 45 217v21q0 181 -71 296.5t-210 115.5q-82 0 -141 -37t-95 -102v-516z" />
<glyph unicode="&#x490;" horiz-adv-x="1182" d="M59 0v123l160 28v1124l-160 27v125h853l27 327h155v-479h-682v-1124l159 -28v-123h-512z" />
<glyph unicode="&#x491;" horiz-adv-x="1051" d="M61 0v123l159 28v757l-159 28v124h684l38 197h126v-350h-495v-756l159 -28v-123h-512z" />
<glyph unicode="&#x492;" horiz-adv-x="1191" d="M75 0v123l160 28v1124l-160 27v125h1035v-316h-165l-15 164h-502v-1124l160 -28v-123h-513zM75 662v152h591v-152h-591z" />
<glyph unicode="&#x493;" horiz-adv-x="1053" d="M70 480v152h591v-152h-591zM71 0v123l159 28v757l-159 28v124h865v-273h-126l-13 120h-374v-756l160 -28v-123h-512z" />
<glyph unicode="&#x494;" horiz-adv-x="1215" d="M75 0v123l160 28v1124l-160 27v125h1035v-316h-165l-15 164h-502v-459h119q278 0 433 -150.5t155 -415.5q0 -258 -119 -395t-342 -133l-6 2l-2 139q148 0 212 100t64 287q-2 198 -100 301.5t-295 103.5h-119v-504l160 -28v-123h-513z" />
<glyph unicode="&#x495;" horiz-adv-x="1124" d="M61 0v123l159 28v757l-159 28v124h865v-273h-125l-14 120h-373v-274h125q148 0 260.5 -57t176.5 -161t64 -248q-1 -92 -43.5 -186t-127 -165.5t-208.5 -93.5l-50 146q126 34 181 110t55 189q-2 144 -86.5 224t-221.5 80h-125v-320l159 -28v-123h-512z" />
<glyph unicode="&#x496;" horiz-adv-x="2000" d="M61 1395q31 20 67.5 31.5t84.5 11.5q81 0 143 -39.5t131 -149.5l284 -465h139v491l-159 27v125h511v-125l-160 -27v-491h151l285 465q67 110 129 149.5t145 39.5q47 0 83.5 -11.5t67.5 -31.5l-28 -136q-21 4 -42 7t-42 3q-47 0 -80 -25t-72 -83l-273 -424l374 -593 l143 -21v-123h-451v123l76 13l-3 5l-291 480h-172v-470l160 -28v-123h-511v123l159 28v470h-178l-293 -481l-2 -4l77 -13v-123h-452v123l143 21l380 602l-261 415q-38 58 -71 83t-80 25q-21 0 -42 -3t-42 -7zM1750 106h193v-458h-193v458z" />
<glyph unicode="&#x497;" horiz-adv-x="1693" d="M38 0v123l151 22l276 410l-178 266q-28 42 -60 65.5t-72 23.5q-21 0 -27 -1t-48 -7l-27 131q36 23 65.5 34.5t75.5 11.5q74 0 135 -44t110 -126l183 -297h117v296l-160 28v124h513v-124l-160 -28v-296h126l184 297q48 82 109 126t137 44q45 0 74.5 -12t65.5 -34l-27 -131 q-42 6 -48.5 7t-25.5 1q-41 0 -73.5 -23.5t-58.5 -65.5l-184 -274l272 -402l150 -22v-123h-296l-276 450h-129v-299l160 -28v-123h-513v123l160 28v299h-130l-275 -450h-296zM1439 106h193v-458h-193v458z" />
<glyph unicode="&#x498;" horiz-adv-x="1197" d="M74 390l2 6h185q0 -112 82 -189t230 -77q143 0 236.5 73t93.5 206q0 117 -80.5 179.5t-237.5 62.5h-161v153h161q151 0 223.5 63.5t72.5 173.5q0 113 -81 184t-240 71q-103 0 -173.5 -30t-115.5 -75l-37 -201h-135v253q61 78 185.5 141t293.5 63q228 0 362 -102t134 -278 q0 -118 -61.5 -203t-169.5 -132q122 -41 187.5 -126.5t65.5 -208.5q0 -130 -66.5 -224t-185 -144t-275.5 -50q-136 0 -249.5 47.5t-180.5 138.5t-65 225zM495 106h193v-458h-193v458z" />
<glyph unicode="&#x499;" horiz-adv-x="1027" d="M87 308l2 6h183q0 -75 65 -130t167 -55q105 0 162.5 48.5t57.5 121.5q0 85 -50.5 124.5t-157.5 39.5h-184v156h184q102 0 146 39t44 112q0 67 -50 113t-152 46q-91 0 -153 -48t-62 -117h-183l-2 6q-4 91 48.5 160.5t144.5 108.5t207 39q186 0 291 -80t105 -228 q0 -71 -43.5 -131t-120.5 -94q183 -65 183 -246q0 -149 -114 -233.5t-301 -84.5q-116 0 -212 37.5t-152 110.5t-53 179zM406 106h193v-458h-193v458z" />
<glyph unicode="&#x49a;" horiz-adv-x="1422" d="M70 0v123l159 28v1124l-159 27v125h512v-125l-160 -27v-491h156l323 465q79 109 138 149t136 40q46 0 78 -11.5t67 -32.5l-28 -137q-27 5 -47 8.5t-40 3.5q-46 0 -77.5 -24.5t-73.5 -83.5l-307 -427l474 -586l134 -25v-123h-468v123l109 14l-4 5l-385 479h-185v-470 l160 -28v-123h-512zM1162 106h193v-458h-193v458z" />
<glyph unicode="&#x49b;" horiz-adv-x="1238" d="M95 0v123l160 28v757l-160 28v124h513v-124l-160 -28v-296h102l221 297q60 84 117.5 127t128.5 43q45 0 74.5 -11.5t66.5 -34.5l-27 -131q-42 6 -48.5 7t-26.5 1q-36 0 -70.5 -26t-61.5 -63l-205 -265l335 -408l136 -25v-123h-258l-359 450h-125v-299l160 -28v-123h-513z M996 106h193v-458h-193v458z" />
<glyph unicode="&#x49c;" horiz-adv-x="1440" d="M69 0v123l159 28v1124l-159 27v125h512v-125l-160 -27v-491h97v259h154v-259h62l233 465q56 114 117 151.5t148 37.5q47 0 83 -11.5t69 -31.5l-29 -136q-20 4 -41 7t-43 3q-48 0 -79 -24t-63 -84l-229 -426l339 -592l135 -20v-123h-293l-323 621h-86v-217h-154v217h-97 v-470l160 -28v-123h-512z" />
<glyph unicode="&#x49d;" horiz-adv-x="1340" d="M88 0v123l160 28v757l-160 28v124h513v-124l-160 -28v-296h73v207h154v-207h42l164 297q49 84 106 127t130 43q45 0 74.5 -11.5t66.5 -34.5l-27 -131q-42 6 -48.5 7t-25.5 1q-41 0 -68 -22t-55 -67l-159 -257l275 -421l117 -20v-123h-266l-264 450h-62v-187h-154v187h-73 v-299l160 -28v-123h-513z" />
<glyph unicode="&#x49e;" horiz-adv-x="1422" d="M69 998v152h591v-152h-591zM70 0v123l159 28v1124l-159 27v125h512v-125l-160 -27v-491h156l323 465q79 109 138 149t136 40q46 0 78 -11.5t67 -32.5l-28 -137q-27 5 -47 8.5t-40 3.5q-46 0 -77.5 -24.5t-73.5 -83.5l-307 -427l474 -586l134 -25v-123h-468v123l109 14 l-4 5l-385 479h-185v-470l160 -28v-123h-512z" />
<glyph unicode="&#x49f;" horiz-adv-x="1239" d="M71 1135v152h169v90l-160 27v125h353v-242h254v-152h-254v-492h124l223 277l3 3l-97 13v124h444v-124l-129 -26l-280 -333l340 -430l121 -24v-123h-440v123l95 12l4 1l-281 353h-127v-338l160 -28v-123h-513v123l160 28v984h-169z" />
<glyph unicode="&#x4a0;" horiz-adv-x="1751" d="M20 1112v315h917v-125l-160 -27v-491h156l322 465q80 109 138.5 149t136.5 40q46 0 78 -11.5t67 -32.5l-29 -137q-26 5 -46 8.5t-40 3.5q-46 0 -78 -24.5t-74 -83.5l-306 -427l474 -586l134 -25v-123h-468v123l108 14l-6 9l-383 475h-184v-470l160 -28v-123h-513v123 l160 28v1124h-385l-15 -163h-164z" />
<glyph unicode="&#x4a1;" horiz-adv-x="1532" d="M80 746v314h844v-124l-160 -28v-296h102l222 297q60 84 117 127t129 43q45 0 74.5 -11.5t66.5 -34.5l-28 -131q-42 6 -48 7t-26 1q-36 0 -71 -26t-61 -63l-205 -265l334 -408l136 -25v-123h-257l-359 450h-126v-299l160 -28v-123h-512v123l159 28v756h-311l-14 -161h-166 z" />
<glyph unicode="&#x4a2;" horiz-adv-x="1546" d="M79 0v123l160 28v1124l-160 27v125h513v-125l-160 -27v-493h682v493l-159 27v125h512v-125l-160 -27v-1124l160 -28v-123h-512v123l159 28v479h-682v-479l160 -28v-123h-513zM1274 106h193v-458h-193v458z" />
<glyph unicode="&#x4a3;" horiz-adv-x="1367" d="M95 0v123l160 28v757l-160 28v124h513v-124l-160 -28v-306h471v306l-159 28v124h513v-124l-160 -28v-757l160 -28v-123h-513v123l159 28v300h-471v-300l160 -28v-123h-513zM1080 106h193v-458h-193v458z" />
<glyph unicode="&#x4a4;" horiz-adv-x="2004" d="M47 0v123l160 28v1124l-160 27v125h513v-125l-160 -27v-493h692v493l-160 27v125h1006v-315h-164l-15 163h-474v-1124l160 -28v-123h-513v123l160 28v479h-692v-479l160 -28v-123h-513z" />
<glyph unicode="&#x4a5;" horiz-adv-x="1554" d="M83 0v123l160 28v757l-160 28v124h513v-124l-160 -28v-306h471v306l-159 28v124h755v-314h-165l-15 161h-221v-756l159 -28v-123h-513v123l159 28v300h-471v-300l160 -28v-123h-513z" />
<glyph unicode="&#x4a6;" horiz-adv-x="2084" d="M75 0v123l160 28v1124l-160 27v125h1400v-125l-160 -27v-459h55q278 0 433 -150.5t155 -415.5q0 -258 -119 -395t-342 -133l-5 2l-2 139q148 0 211.5 100t63.5 287q-2 198 -100 301.5t-295 103.5h-55v-504l160 -28v-123h-513v123l160 28v1124h-694v-1124l160 -28v-123 h-513z" />
<glyph unicode="&#x4a7;" horiz-adv-x="1870" d="M83 0v123l160 28v757l-160 28v124h1178v-124l-159 -28v-274h78q154 0 271 -57t183 -161.5t66 -248.5q-1 -91 -44 -185t-126.5 -166t-208.5 -94l-50 146q125 33 180.5 110t55.5 189q-2 144 -91 224.5t-236 80.5h-78v-321l159 -28v-123h-512v123l159 28v756h-472v-756 l160 -28v-123h-513z" />
<glyph unicode="&#x4a8;" horiz-adv-x="1510" d="M104 665v158q0 179 56.5 319.5t155.5 220.5t227 77l6 -2l1 -149q-78 0 -134.5 -60t-87.5 -165t-31 -239v-160q0 -153 50.5 -273t142 -187.5t216.5 -67.5q63 0 124 14q-120 95 -184 232t-64 303v218q0 154 51 276.5t141.5 193.5t210.5 71q119 0 210 -69t142 -191t51 -281 v-239q0 -154 -55.5 -286t-156.5 -225q96 -27 223 -27v-156q-219 0 -388 72q-139 -64 -305 -64q-179 0 -314.5 90t-211.5 244.5t-76 351.5zM775 684q0 -150 59 -266.5t167 -184.5q91 62 142.5 178t51.5 258v237q0 171 -56.5 276.5t-153.5 105.5q-64 0 -111 -49.5t-73 -136 t-26 -196.5v-222z" />
<glyph unicode="&#x4a9;" horiz-adv-x="1252" d="M110 559v55q0 135 43.5 239t120 163t176.5 56l6 -2v-148q-71 0 -112 -85.5t-41 -220.5v-57q0 -123 35 -218t100.5 -149.5t154.5 -54.5q48 0 84 11q-187 159 -187 414v100q0 187 84.5 303t228.5 116q95 0 165.5 -57t109 -156.5t38.5 -225.5v-103q0 -109 -32 -204.5 t-91 -168.5q72 -21 172 -21v-157q-179 0 -314 56q-114 -65 -258 -65q-143 0 -252 75.5t-170 206.5t-61 298zM686 560q0 -100 36.5 -179.5t105.5 -128.5h6q92 102 92 287v106q0 121 -29.5 198t-89.5 77q-58 0 -89.5 -69t-31.5 -187v-104z" />
<glyph unicode="&#x4aa;" horiz-adv-x="1294" d="M78 703v20q0 210 75.5 373t217 257t337.5 94q138 0 252.5 -43t190.5 -109v-308h-154l-21 225q-99 76 -269 76q-141 0 -238 -72t-147 -198.5t-50 -292.5v-22q0 -270 119 -418.5t340 -148.5q69 0 134.5 17t108.5 43l22 199h151v-310q-81 -50 -192.5 -78t-230.5 -28 q-214 0 -358 94.5t-216 258t-72 371.5zM595 106h193v-458h-193v458z" />
<glyph unicode="&#x4ab;" horiz-adv-x="1045" d="M76 510v41q0 151 57 270.5t164 189t255 69.5q128 0 224.5 -42t162.5 -116l5 -255h-151l-33 186q-34 34 -84 54.5t-117 20.5q-87 0 -152 -51t-101 -136t-36 -190v-41q0 -175 75 -277.5t206 -102.5q98 0 162.5 54t79.5 148h173l2 -6q-5 -91 -54 -170.5t-139.5 -128 t-222.5 -48.5q-144 0 -251 67.5t-166 187t-59 276.5zM458 106h193v-458h-193v458z" />
<glyph unicode="&#x4ac;" horiz-adv-x="1377" d="M94 1083v344h1186v-344h-143l-30 198h-323v-1130l160 -28v-123h-513v123l160 28v1130h-323l-29 -198h-145zM750 106h193v-458h-193v458z" />
<glyph unicode="&#x4ad;" horiz-adv-x="1162" d="M76 745v315h1004v-315h-166l-14 165h-228v-759l160 -28v-123h-513v123l160 28v759h-223l-15 -165h-165zM639 106h193v-458h-193v458z" />
<glyph unicode="&#x4ae;" horiz-adv-x="1431" d="M64 1302v125h492v-125l-163 -18l303 -561l20 -38l1 2l20 36l317 561l-168 18v125h482v-125l-124 -18l-432 -750v-383l160 -28v-123h-511v123l159 28v368l-439 765z" />
<glyph unicode="&#x4af;" horiz-adv-x="1064" d="M20 1047q24 10 63 17.5t69 7.5q70 0 105.5 -27.5t62.5 -110.5l204 -621l17 -83h6l20 83l197 602l-132 21v124h410v-124l-85 -14l-317 -863v-467h-193v458l-281 797q-14 38 -30 49t-49 11q-9 0 -14.5 -0.5t-35.5 -5.5z" />
<glyph unicode="&#x4b0;" horiz-adv-x="1431" d="M64 1302v125h492v-125l-163 -18l303 -561l20 -38l1 2l20 36l317 561l-168 18v125h482v-125l-124 -18l-432 -750v-383l160 -28v-123h-511v123l159 28v368l-439 765zM416 453v152h591v-152h-591z" />
<glyph unicode="&#x4b1;" horiz-adv-x="1064" d="M20 1047q24 10 63 17.5t69 7.5q70 0 105.5 -27.5t62.5 -110.5l204 -621l17 -83h6l20 83l197 602l-132 21v124h410v-124l-85 -14l-317 -863v-467h-193v458l-281 797q-14 38 -30 49t-49 11q-9 0 -14.5 -0.5t-35.5 -5.5zM236 -5v152h620v-152h-620z" />
<glyph unicode="&#x4b2;" horiz-adv-x="1498" d="M78 0v123l124 22l442 579l-410 557l-124 21v125h462v-125l-134 -12l316 -440l300 440l-138 12v125h466v-125l-131 -21l-387 -557l430 -579l126 -22v-123h-468v123l138 13l-338 464l-337 -464l130 -13v-123h-467zM1227 106h193v-458h-193v458z" />
<glyph unicode="&#x4b3;" horiz-adv-x="1178" d="M41 0v123l118 23l316 390l-309 377l-105 23v124h415v-124l-106 -12l218 -270l212 271l-114 11v124h409v-124l-108 -23l-287 -374l330 -393l110 -23v-123h-450v123l127 11l-232 283l-225 -283l114 -11v-123h-433zM946 106h193v-458h-193v458z" />
<glyph unicode="&#x4b4;" horiz-adv-x="1780" d="M75 1111v316h935v-316h-165l-15 164h-155v-1124h694v1124l-160 27v125h513v-125l-160 -27v-1124h186v-495h-191v344h-1235v123l160 28v1124h-227l-14 -164h-166z" />
<glyph unicode="&#x4b5;" horiz-adv-x="1542" d="M50 746v314h916v-314h-164l-15 163h-164v-758h502v909h353v-124l-160 -28v-757h130l-19 -466h-172v315h-987v123l160 28v758h-200l-14 -163h-166z" />
<glyph unicode="&#x4b6;" horiz-adv-x="1495" d="M58 1302v125h512v-125l-159 -27v-299q0 -162 67.5 -224t217.5 -62q102 0 196 13.5t191 40.5v531l-160 27v125h514v-125l-160 -27v-1124l160 -28v-123h-514v123l160 28v440q-93 -28 -180.5 -41t-206.5 -13q-235 0 -356.5 103t-121.5 336v299zM1243 106h193v-458h-193v458z " />
<glyph unicode="&#x4b7;" horiz-adv-x="1327" d="M64 938v123h512v-123l-160 -28v-160q0 -128 54.5 -187.5t162.5 -59.5q125 0 240 29v376l-160 28v124h513v-124l-160 -28v-757l160 -28v-123h-513v123l160 28v227q-110 -28 -240 -28q-192 0 -301 101t-109 299v160zM1033 106h193v-458h-193v458z" />
<glyph unicode="&#x4b8;" horiz-adv-x="1496" d="M58 1302v125h512v-125l-159 -27v-299q0 -149 56.5 -212.5t182.5 -72.5v306h155v-303q70 6 138.5 18t139.5 32v531l-160 27v125h514v-125l-160 -27v-1124l160 -28v-123h-514v123l160 28v440q-71 -22 -136 -34t-142 -17v-230h-155v228q-213 9 -322.5 113t-109.5 325v299z " />
<glyph unicode="&#x4b9;" horiz-adv-x="1324" d="M89 938v123h513v-123l-160 -28v-160q0 -209 152 -241v268h155v-270q75 7 150 25v376l-160 28v124h512v-124l-159 -28v-757l159 -28v-123h-512v123l160 28v227q-73 -18 -150 -24v-133h-155v132q-163 16 -254 116t-91 281v160z" />
<glyph unicode="&#x4ba;" horiz-adv-x="1506" d="M57 0v124l160 28v1124l-160 27v124h513v-124l-159 -27v-440q94 26 180.5 40t206.5 14q234 0 356 -103.5t122 -335.5v-299l160 -28v-124h-513v124l160 28v299q0 161 -68 223.5t-217 62.5q-103 0 -197 -14t-190 -41v-530l159 -28v-124h-513z" />
<glyph unicode="&#x4bb;" horiz-adv-x="1288" d="M48 0v123l160 28v1226l-160 27v125h353v-610q55 77 134 119t176 42q171 0 265 -102t94 -314v-513l160 -28v-123h-513v123l160 28v515q0 257 -224 257q-80 0 -145 -37.5t-107 -102.5v-632l160 -28v-123h-513z" />
<glyph unicode="&#x4bc;" horiz-adv-x="1508" d="M65 1059h148q0 -91 39 -150.5t121 -79.5v4q0 177 70.5 315.5t191 218t270.5 79.5q258 0 394 -174t136 -479v-107h-869v-94q0 -207 102 -335.5t311 -128.5q106 0 181.5 22.5t146.5 60.5l48 -137q-49 -35 -143 -66t-233 -31q-190 0 -326 77t-208 215.5t-72 322.5v100 q-154 19 -234.5 116.5t-73.5 250.5zM566 818h676v32q0 202 -79.5 323t-257.5 121q-105 0 -181 -60.5t-117 -165t-41 -235.5v-15z" />
<glyph unicode="&#x4bd;" horiz-adv-x="1284" d="M10 850h154q0 -119 65 -171q25 119 89.5 209.5t156 141t195.5 50.5q214 0 324 -129.5t110 -344.5v-121h-688l-2 -5q2 -153 76.5 -251.5t209.5 -98.5q98 0 172 28t128 77l75 -125q-57 -55 -150.5 -93t-224.5 -38q-148 0 -256.5 67.5t-167.5 187t-59 276.5v16 q-103 34 -155 116.5t-52 207.5zM420 641l2 -5h489v26q0 113 -60.5 189.5t-180.5 76.5q-97 0 -165.5 -82t-84.5 -205z" />
<glyph unicode="&#x4be;" horiz-adv-x="1508" d="M65 1059h148q0 -91 39 -150.5t121 -79.5v4q0 177 70.5 315.5t191 218t270.5 79.5q258 0 394 -174t136 -479v-107h-869v-94q0 -207 102 -335.5t311 -128.5q106 0 181.5 22.5t146.5 60.5l48 -137q-49 -35 -143 -66t-233 -31q-190 0 -326 77t-208 215.5t-72 322.5v100 q-154 19 -234.5 116.5t-73.5 250.5zM566 818h676v32q0 202 -79.5 323t-257.5 121q-105 0 -181 -60.5t-117 -165t-41 -235.5v-15zM826 106h193v-458h-193v458z" />
<glyph unicode="&#x4bf;" horiz-adv-x="1284" d="M10 850h154q0 -119 65 -171q25 119 89.5 209.5t156 141t195.5 50.5q214 0 324 -129.5t110 -344.5v-121h-688l-2 -5q2 -153 76.5 -251.5t209.5 -98.5q98 0 172 28t128 77l75 -125q-57 -55 -150.5 -93t-224.5 -38q-148 0 -256.5 67.5t-167.5 187t-59 276.5v16 q-103 34 -155 116.5t-52 207.5zM420 641l2 -5h489v26q0 113 -60.5 189.5t-180.5 76.5q-97 0 -165.5 -82t-84.5 -205zM590 106h193v-458h-193v458z" />
<glyph unicode="&#x4c0;" horiz-adv-x="648" d="M79 0v123l160 28v1124l-160 27v125h513v-125l-160 -27v-1124l160 -28v-123h-513z" />
<glyph unicode="&#x4c1;" horiz-adv-x="2000" d="M61 1395q31 20 67.5 31.5t84.5 11.5q81 0 143 -39.5t131 -149.5l284 -465h139v491l-159 27v125h511v-125l-160 -27v-491h151l285 465q67 110 129 149.5t145 39.5q47 0 83.5 -11.5t67.5 -31.5l-28 -136q-21 4 -42 7t-42 3q-47 0 -80 -25t-72 -83l-273 -424l374 -593 l143 -21v-123h-451v123l76 13l-3 5l-291 480h-172v-470l160 -28v-123h-511v123l159 28v470h-178l-293 -481l-2 -4l77 -13v-123h-452v123l143 21l380 602l-261 415q-38 58 -71 83t-80 25q-21 0 -42 -3t-42 -7zM701 1811l2 6h147q0 -71 38 -115t118 -44q78 0 116.5 44 t38.5 115h148l2 -6q-1 -123 -82 -199.5t-223 -76.5t-223.5 76.5t-81.5 199.5z" />
<glyph unicode="&#x4c2;" horiz-adv-x="1693" d="M38 0v123l151 22l276 410l-178 266q-28 42 -60 65.5t-72 23.5q-21 0 -27 -1t-48 -7l-27 131q36 23 65.5 34.5t75.5 11.5q74 0 135 -44t110 -126l183 -297h117v296l-160 28v124h513v-124l-160 -28v-296h126l184 297q48 82 109 126t137 44q45 0 74.5 -12t65.5 -34l-27 -131 q-42 6 -48.5 7t-25.5 1q-41 0 -73.5 -23.5t-58.5 -65.5l-184 -274l272 -402l150 -22v-123h-296l-276 450h-129v-299l160 -28v-123h-513v123l160 28v299h-130l-275 -450h-296zM531 1523l2 6h147q0 -71 38 -115t118 -44q78 0 116.5 44t38.5 115h148l2 -6q-1 -123 -82 -199.5 t-223 -76.5t-223.5 76.5t-81.5 199.5z" />
<glyph unicode="&#x4c3;" horiz-adv-x="1397" d="M69 0v123l159 28v1124l-159 27v125h512v-125l-160 -27v-462h125l510 614h248v-125l-151 -26l-386 -461l-5 -6q5 0 23 -1q226 -24 355 -171t129 -390q0 -258 -119.5 -395t-341.5 -133l-6 2l-2 139q148 0 212 99.5t64 287.5q-2 198 -100 301t-296 103h-259v-500l160 -28 v-123h-512z" />
<glyph unicode="&#x4c4;" horiz-adv-x="1252" d="M88 0v123l160 28v757l-160 28v124h513v-124l-160 -28v-296h82l341 448h257v-124l-145 -26l-252 -308q184 -28 292 -137t108 -293q-1 -87 -43.5 -176.5t-126 -157.5t-207.5 -91l-51 147q125 32 180.5 103t55.5 175q-2 142 -88.5 210t-238.5 68h-164v-299l160 -28v-123 h-513z" />
<glyph unicode="&#x4c5;" horiz-adv-x="1481" d="M56 0v151h39q88 0 140.5 58.5t79 190.5t36.5 355l23 521l-153 26v125h1191v-125l-160 -27v-1124l160 -28v-123h-512v123l159 28v1124h-493l-23 -520q-13 -268 -56.5 -434.5t-134.5 -243.5t-245 -77h-51zM1127 -329q46 70 69.5 143.5t23.5 156.5v149h193v-146 q0 -96 -48 -201t-130 -175z" />
<glyph unicode="&#x4c6;" horiz-adv-x="1289" d="M68 0l3 165l40 1q104 0 144.5 101t40.5 341v300l-160 28v124h1065v-124l-159 -28v-757l159 -28v-123h-512v123l160 28v756h-360v-299q0 -314 -83 -461t-284 -147h-54zM916 -329q46 70 69.5 143.5t23.5 156.5v149h193v-146q0 -96 -48 -201t-130 -175z" />
<glyph unicode="&#x4c7;" horiz-adv-x="1531" d="M75 0v123l160 28v1124l-160 27v125h513v-125l-160 -27v-493h692v493l-160 27v125h513v-125l-160 -27v-1362q0 -164 -84 -252.5t-235 -88.5q-55 0 -110 17l14 147q12 -5 45.5 -8.5t50.5 -3.5q59 0 92.5 50.5t33.5 138.5v717h-692v-479l160 -28v-123h-513z" />
<glyph unicode="&#x4c8;" horiz-adv-x="1340" d="M88 0v123l160 28v757l-160 28v124h513v-124l-160 -28v-306h471v306l-159 28v124h513v-124l-160 -28v-995q0 -164 -84.5 -252.5t-235.5 -88.5q-55 0 -110 17l15 147q13 -5 45.5 -8.5t49.5 -3.5q60 0 93 50.5t33 138.5v538h-471v-300l160 -28v-123h-513z" />
<glyph unicode="&#x4c9;" horiz-adv-x="1546" d="M79 0v123l160 28v1124l-160 27v125h513v-125l-160 -27v-493h682v493l-159 27v125h512v-125l-160 -27v-1124l160 -28v-123h-512v123l159 28v479h-682v-479l160 -28v-123h-513zM1182 -329q46 70 69.5 143.5t23.5 156.5v149h193v-146q0 -96 -48 -201t-130 -175z" />
<glyph unicode="&#x4ca;" horiz-adv-x="1367" d="M95 0v123l160 28v757l-160 28v124h513v-124l-160 -28v-306h471v306l-159 28v124h513v-124l-160 -28v-757l160 -28v-123h-513v123l159 28v300h-471v-300l160 -28v-123h-513zM988 -329q46 70 69.5 143.5t23.5 156.5v149h193v-146q0 -96 -48 -201t-130 -175z" />
<glyph unicode="&#x4cb;" horiz-adv-x="1495" d="M58 1302v125h512v-125l-159 -27v-299q0 -162 67.5 -224t217.5 -62q102 0 196 13.5t191 40.5v531l-160 27v125h514v-125l-160 -27v-1124l160 -28v-123h-514v123l160 28v440q-93 -28 -180.5 -41t-206.5 -13q-235 0 -356.5 103t-121.5 336v299zM1243 106h193v-458h-193v458z " />
<glyph unicode="&#x4cc;" horiz-adv-x="1327" d="M64 938v123h512v-123l-160 -28v-160q0 -128 54.5 -187.5t162.5 -59.5q125 0 240 29v376l-160 28v124h513v-124l-160 -28v-757l160 -28v-123h-513v123l160 28v227q-110 -28 -240 -28q-192 0 -301 101t-109 299v160zM1033 106h193v-458h-193v458z" />
<glyph unicode="&#x4cd;" horiz-adv-x="1942" d="M92 0v123l160 28v1124l-160 27v125h418l459 -1083h6l445 1083h430v-125l-160 -27v-1124l160 -28v-123h-512v123l168 28v1012l-5 1l-463 -1113h-129l-479 1111l-5 -1l7 -597v-413l173 -28v-123h-513zM1565 -329q46 70 69.5 143.5t23.5 156.5v149h193v-146q0 -96 -48 -201 t-130 -175z" />
<glyph unicode="&#x4ce;" horiz-adv-x="1689" d="M95 0v123l160 28v757l-160 28v124h409l345 -807h6l345 807h402v-124l-159 -28v-757l159 -28v-123h-512v123l160 28v585l-6 2l-326 -738h-133l-331 754l-6 -2v-601l160 -28v-123h-513zM1317 -329q46 70 69.5 143.5t23.5 156.5v149h193v-146q0 -96 -48 -201t-130 -175z" />
<glyph unicode="&#x4cf;" horiz-adv-x="648" d="M79 0v123l160 28v1124l-160 27v125h513v-125l-160 -27v-1124l160 -28v-123h-513z" />
<glyph unicode="&#x4d0;" d="M69 0v123l105 15l499 1289h166l490 -1289l105 -15v-123h-410v123l108 19l-94 263h-572l-97 -263l108 -19v-123h-408zM450 1811l2 6h147q0 -71 38 -115t118 -44q78 0 116.5 44t38.5 115h148l2 -6q-1 -123 -82 -199.5t-223 -76.5t-223.5 76.5t-81.5 199.5zM526 566h453 l-210 581l-11 32h-6l-12 -32z" />
<glyph unicode="&#x4d1;" horiz-adv-x="1109" d="M77 288q0 151 123.5 242.5t343.5 91.5h189v104q0 96 -58.5 149t-163.5 53q-67 0 -116 -16t-89 -45l-21 -148h-149v243q144 118 378 118q193 0 302.5 -92t109.5 -264v-510q0 -21 0.5 -40.5t2.5 -39.5l103 -11v-123h-277q-17 80 -21 146q-56 -72 -139.5 -119.5 t-178.5 -47.5q-166 0 -252.5 81t-86.5 228zM218 1523l2 6h147q0 -71 38 -115t118 -44q78 0 116.5 44t38.5 115h148l2 -6q-1 -123 -82 -199.5t-223 -76.5t-223.5 76.5t-81.5 199.5zM270 284q0 -143 174 -143q96 0 175.5 46t113.5 111v192h-196q-133 0 -200 -63.5t-67 -142.5z " />
<glyph unicode="&#x4d2;" d="M69 0v123l105 15l499 1289h166l490 -1289l105 -15v-123h-410v123l108 19l-94 263h-572l-97 -263l108 -19v-123h-408zM446 1610v207h203v-207h-203zM526 566h453l-210 581l-11 32h-6l-12 -32zM861 1610v207h203v-207h-203z" />
<glyph unicode="&#x4d3;" horiz-adv-x="1109" d="M77 288q0 151 123.5 242.5t343.5 91.5h189v104q0 96 -58.5 149t-163.5 53q-67 0 -116 -16t-89 -45l-21 -148h-149v243q144 118 378 118q193 0 302.5 -92t109.5 -264v-510q0 -21 0.5 -40.5t2.5 -39.5l103 -11v-123h-277q-17 80 -21 146q-56 -72 -139.5 -119.5 t-178.5 -47.5q-166 0 -252.5 81t-86.5 228zM214 1322v207h203v-207h-203zM270 284q0 -143 174 -143q96 0 175.5 46t113.5 111v192h-196q-133 0 -200 -63.5t-67 -142.5zM629 1322v207h203v-207h-203z" />
<glyph unicode="&#x4d4;" horiz-adv-x="2054" d="M50 0v123l138 20l777 1284h948v-316h-165l-14 164h-498l19 -457h579v-152h-573l22 -515h511l16 164h164v-315h-1037v123l153 27l-8 193h-545l-119 -206l81 -14v-123h-449zM638 518h437l-30 696l-5 2l-8 -14z" />
<glyph unicode="&#x4d5;" horiz-adv-x="1702" d="M77 296q0 150 123.5 240.5t344.5 90.5h189v99q0 96 -58.5 149t-163.5 53q-67 0 -116 -16t-89 -45l-21 -148h-149v243q144 118 377 118q246 0 343 -162q129 162 332 162q209 0 322.5 -127.5t113.5 -350.5v-117h-696l-2 -5q1 -156 78 -253t229 -97q102 0 166.5 27t141.5 77 l66 -135q-54 -44 -146 -82t-228 -38q-266 0 -420 207q-140 -207 -388 -207q-171 0 -260 83.5t-89 233.5zM270 292q0 -64 43.5 -107.5t131.5 -43.5q99 0 181.5 57.5t118.5 136.5q-6 48 -8.5 82.5t-2.5 76.5v1h-196q-133 0 -200.5 -62.5t-67.5 -140.5zM929 632l2 -5h501v31 q0 119 -59 194.5t-184 75.5q-113 0 -181 -83t-79 -213z" />
<glyph unicode="&#x4d6;" horiz-adv-x="1279" d="M79 0v123l160 28v1124l-160 27v125h1057v-343h-155l-22 194h-527v-465h526v-151h-526v-517h559l21 197h154v-342h-1087zM335 1811l2 6h147q0 -71 38 -115t118 -44q78 0 116.5 44t38.5 115h148l2 -6q-1 -123 -82 -199.5t-223 -76.5t-223.5 76.5t-81.5 199.5z" />
<glyph unicode="&#x4d7;" horiz-adv-x="1037" d="M73 510v43q0 151 62 270t165.5 188t225.5 69q214 0 324 -129.5t110 -344.5v-121h-688l-2 -5q2 -153 76.5 -251.5t209.5 -98.5q98 0 172 28t128 77l75 -125q-57 -55 -150.5 -93t-224.5 -38q-147 0 -256 67.5t-168 187t-59 276.5zM220 1523l2 6h147q0 -71 38 -115t118 -44 q78 0 116.5 44t38.5 115h148l2 -6q-1 -123 -82 -199.5t-223 -76.5t-223.5 76.5t-81.5 199.5zM276 641l2 -5h489v26q0 113 -60.5 189.5t-180.5 76.5q-97 0 -165.5 -82t-84.5 -205z" />
<glyph unicode="&#x4d8;" horiz-adv-x="1373" d="M76 631v108h986v53q0 149 -50 262t-150.5 177.5t-251.5 64.5q-112 0 -191.5 -23t-156.5 -60l-48 136q51 35 150 66.5t246 31.5q202 0 347 -82t221.5 -229.5t76.5 -343.5v-160q0 -189 -76.5 -336.5t-205 -232t-288.5 -84.5q-298 0 -453.5 173t-155.5 479zM270 574 q0 -204 97 -324t318 -120q113 0 195 61.5t129 168t52 244.5v3h-791v-33z" />
<glyph unicode="&#x4d9;" horiz-adv-x="1092" d="M101 455v120h690v5q-3 152 -77 251t-208 99q-99 0 -172.5 -29t-127.5 -77l-76 127q57 54 150 92t226 38q147 0 255.5 -67.5t168 -187t59.5 -275.5v-43q0 -152 -62.5 -271t-165 -188t-225.5 -68q-216 0 -325.5 128.5t-109.5 345.5zM294 399q0 -115 61 -191t181 -76 q95 0 163.5 81t84.5 205l-2 5h-488v-24z" />
<glyph unicode="&#x4da;" horiz-adv-x="1373" d="M76 631v108h986v53q0 149 -50 262t-150.5 177.5t-251.5 64.5q-112 0 -191.5 -23t-156.5 -60l-48 136q51 35 150 66.5t246 31.5q202 0 347 -82t221.5 -229.5t76.5 -343.5v-160q0 -189 -76.5 -336.5t-205 -232t-288.5 -84.5q-298 0 -453.5 173t-155.5 479zM270 574 q0 -204 97 -324t318 -120q113 0 195 61.5t129 168t52 244.5v3h-791v-33zM351 1610v207h203v-207h-203zM766 1610v207h203v-207h-203z" />
<glyph unicode="&#x4db;" horiz-adv-x="1092" d="M101 455v120h690v5q-3 152 -77 251t-208 99q-99 0 -172.5 -29t-127.5 -77l-76 127q57 54 150 92t226 38q147 0 255.5 -67.5t168 -187t59.5 -275.5v-43q0 -152 -62.5 -271t-165 -188t-225.5 -68q-216 0 -325.5 128.5t-109.5 345.5zM218 1322v207h203v-207h-203zM294 399 q0 -115 61 -191t181 -76q95 0 163.5 81t84.5 205l-2 5h-488v-24zM633 1322v207h203v-207h-203z" />
<glyph unicode="&#x4dc;" horiz-adv-x="2000" d="M61 1395q31 20 67.5 31.5t84.5 11.5q81 0 143 -39.5t131 -149.5l284 -465h139v491l-159 27v125h511v-125l-160 -27v-491h151l285 465q67 110 129 149.5t145 39.5q47 0 83.5 -11.5t67.5 -31.5l-28 -136q-21 4 -42 7t-42 3q-47 0 -80 -25t-72 -83l-273 -424l374 -593 l143 -21v-123h-451v123l76 13l-3 5l-291 480h-172v-470l160 -28v-123h-511v123l159 28v470h-178l-293 -481l-2 -4l77 -13v-123h-452v123l143 21l380 602l-261 415q-38 58 -71 83t-80 25q-21 0 -42 -3t-42 -7zM698 1610v207h203v-207h-203zM1113 1610v207h203v-207h-203z" />
<glyph unicode="&#x4dd;" horiz-adv-x="1693" d="M38 0v123l151 22l276 410l-178 266q-28 42 -60 65.5t-72 23.5q-21 0 -27 -1t-48 -7l-27 131q36 23 65.5 34.5t75.5 11.5q74 0 135 -44t110 -126l183 -297h117v296l-160 28v124h513v-124l-160 -28v-296h126l184 297q48 82 109 126t137 44q45 0 74.5 -12t65.5 -34l-27 -131 q-42 6 -48.5 7t-25.5 1q-41 0 -73.5 -23.5t-58.5 -65.5l-184 -274l272 -402l150 -22v-123h-296l-276 450h-129v-299l160 -28v-123h-513v123l160 28v299h-130l-275 -450h-296zM527 1322v207h203v-207h-203zM942 1322v207h203v-207h-203z" />
<glyph unicode="&#x4de;" horiz-adv-x="1197" d="M74 390l2 6h185q0 -112 82 -189t230 -77q143 0 236.5 73t93.5 206q0 117 -80.5 179.5t-237.5 62.5h-161v153h161q151 0 223.5 63.5t72.5 173.5q0 113 -81 184t-240 71q-103 0 -173.5 -30t-115.5 -75l-37 -201h-135v253q61 78 185.5 141t293.5 63q228 0 362 -102t134 -278 q0 -118 -61.5 -203t-169.5 -132q122 -41 187.5 -126.5t65.5 -208.5q0 -130 -66.5 -224t-185 -144t-275.5 -50q-136 0 -249.5 47.5t-180.5 138.5t-65 225zM269 1610v207h203v-207h-203zM684 1610v207h203v-207h-203z" />
<glyph unicode="&#x4df;" horiz-adv-x="1027" d="M87 308l2 6h183q0 -75 65 -130t167 -55q105 0 162.5 48.5t57.5 121.5q0 85 -50.5 124.5t-157.5 39.5h-184v156h184q102 0 146 39t44 112q0 67 -50 113t-152 46q-91 0 -153 -48t-62 -117h-183l-2 6q-4 91 48.5 160.5t144.5 108.5t207 39q186 0 291 -80t105 -228 q0 -71 -43.5 -131t-120.5 -94q183 -65 183 -246q0 -149 -114 -233.5t-301 -84.5q-116 0 -212 37.5t-152 110.5t-53 179zM205 1322v207h203v-207h-203zM620 1322v207h203v-207h-203z" />
<glyph unicode="&#x4e0;" horiz-adv-x="1101" d="M81 390l2 6h186q0 -112 74 -189t193 -77q135 0 213.5 73t78.5 191q0 150 -79.5 220t-234.5 70h-145v151l370 435l-2 5h-439l-14 -164h-165v316h851l1 -118l-402 -474v-7h6t14 -1q204 -15 318 -125.5t114 -303.5q0 -130 -61 -224.5t-170.5 -144.5t-253.5 -50 q-125 0 -230 47.5t-166.5 139t-58.5 224.5z" />
<glyph unicode="&#x4e1;" horiz-adv-x="1106" d="M79 23l2 5h186q0 -109 76.5 -186t204.5 -77q126 0 202 73t76 188q0 151 -79.5 221t-235.5 70h-145v150l350 436l-3 4h-417l-14 -162h-165v315h851l1 -117l-388 -483q209 -16 323.5 -127t114.5 -303q0 -129 -60 -222.5t-166.5 -144t-244.5 -50.5q-132 0 -239.5 47 t-170 138.5t-59.5 224.5z" />
<glyph unicode="&#x4e2;" horiz-adv-x="1542" d="M75 0v123l160 28v1124l-160 27v125h513v-125l-160 -27v-822l6 -2l686 734v90l-160 27v125h513v-125l-160 -27v-1124l160 -28v-123h-513v123l160 28v796l-6 2l-686 -735v-63l160 -28v-123h-513zM420 1611v143h707v-143h-707z" />
<glyph unicode="&#x4e3;" horiz-adv-x="1368" d="M95 0v123l160 28v757l-160 28v124h512v-124l-160 -28v-598l6 -2l467 752h353v-124l-160 -28v-757l160 -28v-123h-513v123l160 28v600l-6 2l-467 -753h-352zM336 1323v143h707v-143h-707z" />
<glyph unicode="&#x4e4;" horiz-adv-x="1542" d="M75 0v123l160 28v1124l-160 27v125h513v-125l-160 -27v-822l6 -2l686 734v90l-160 27v125h513v-125l-160 -27v-1124l160 -28v-123h-513v123l160 28v796l-6 2l-686 -735v-63l160 -28v-123h-513zM465 1610v207h203v-207h-203zM880 1610v207h203v-207h-203z" />
<glyph unicode="&#x4e5;" horiz-adv-x="1368" d="M95 0v123l160 28v757l-160 28v124h512v-124l-160 -28v-598l6 -2l467 752h353v-124l-160 -28v-757l160 -28v-123h-513v123l160 28v600l-6 2l-467 -753h-352zM381 1322v207h203v-207h-203zM796 1322v207h203v-207h-203z" />
<glyph unicode="&#x4e6;" horiz-adv-x="1416" d="M69 703v20q0 213 71 376t204 255.5t318 92.5q195 0 326.5 -92.5t199 -255.5t67.5 -376v-20q0 -213 -67.5 -376t-199 -255.5t-326.5 -92.5q-185 0 -317.5 92.5t-204 255.5t-71.5 376zM263 703q0 -167 46 -294t135 -198t218 -71q142 0 229.5 70.5t128.5 197.5t41 295v22 q0 167 -41.5 293t-129.5 197t-228 71q-129 0 -218 -71.5t-135 -197.5t-46 -292v-22zM354 1610v207h203v-207h-203zM769 1610v207h203v-207h-203z" />
</font>
</defs>
</svg>
