<svg xmlns="http://www.w3.org/2000/svg" viewBox="0 0 77.18 70.38">
  <title>ico-items-3-1</title>
  <path d="M37.47,0a5.58,5.58,0,0,0-5.53,4.53H31.8L13.64,25h9.08L35.28,10.85a5.69,5.69,0,0,0,2.19.5,5.84,5.84,0,0,0,2.21-.5L52.22,25h9.09L43.14,4.53H43A5.56,5.56,0,0,0,37.47,0ZM4.56,29.51A4.54,4.54,0,0,0,0,34H0v2.27a4.49,4.49,0,0,0,4.2,4.47l7.16,25c2.27,4.54,4.54,4.54,6.8,4.54H59c2.27,0,4.53,0,6.81-4.54l7.17-25a4.48,4.48,0,0,0,4.18-4.47V34.05a4.52,4.52,0,0,0-4.51-4.54H4.56ZM17.33,40.85h1.13A5.86,5.86,0,0,1,24,45.11l3.19,14.12a3.47,3.47,0,0,1-2.48,4.23,3.9,3.9,0,0,1-1.13.1H22.43a5.91,5.91,0,0,1-5.53-4.33L13.71,45.11A3.41,3.41,0,0,1,16.19,41a3.37,3.37,0,0,1,1.14-.1Zm21.28,0a4.55,4.55,0,0,1,4.54,4.53V59a4.54,4.54,0,1,1-9.07,0V45.4a4.53,4.53,0,0,1,4.52-4.55Zm20.14,0H59.9a3.43,3.43,0,0,1,3.61,4.26L60.32,59.23a5.91,5.91,0,0,1-5.54,4.33H53.64a3.47,3.47,0,0,1-3.71-3.2,3.58,3.58,0,0,1,.1-1.13l3.19-14.12a5.87,5.87,0,0,1,5.53-4.26Z" transform="translate(-0.01 0)" fill="#fff" fill-rule="evenodd"/>
</svg>
