<svg xmlns="http://www.w3.org/2000/svg" viewBox="0 0 70.48 60.12">
  <title>ico-items-2-1</title>
  <path d="M8.27,0A8.28,8.28,0,0,0,0,8.27V39.41A8.27,8.27,0,0,0,8.23,47.7h18.7v6.21H18.64A2.08,2.08,0,0,0,16.56,56v4.15H53.88V56a2.08,2.08,0,0,0-2.07-2.08H43.52V47.7H62.18a8.27,8.27,0,0,0,8.29-8.25V8.31A8.28,8.28,0,0,0,62.21,0H8.27Zm2.08,8.3H60.1a2.06,2.06,0,0,1,2.07,2v27a2.07,2.07,0,0,1-2.06,2.08H10.35a2.08,2.08,0,0,1-2.08-2.08V10.38a2.08,2.08,0,0,1,2.08-2.07Z" transform="translate(0.02 -0.01)" fill="#fff" fill-rule="evenodd"/>
</svg>
