<svg xmlns="http://www.w3.org/2000/svg" viewBox="0 0 56.37 78.86">
  <title>ico-items-1-1</title>
  <path d="M55.28,18.34,50.48,26,26.54,11.13l4.79-7.7a7.24,7.24,0,0,1,10-2.33h0L53,8.34A7.26,7.26,0,0,1,55.28,18.34ZM26.49,64.49,2.59,49.58,24.72,14.13l23.9,14.92Zm3.23-41.38a2.33,2.33,0,0,0-3.22.63L10.78,48.93a2.31,2.31,0,0,0,.82,3.15h0a2.34,2.34,0,0,0,3.22-.61l15.72-25.2A2.34,2.34,0,0,0,29.72,23.11Zm8.66,5.4a2.33,2.33,0,0,0-3.22.63L19.43,54.34a2.41,2.41,0,0,0,4.08,2.54L39.23,31.69a2.34,2.34,0,0,0-.85-3.18ZM13.74,73.21A14.4,14.4,0,0,0,.44,64.92L0,53.81l23.87,14.9ZM7,69.19a11.28,11.28,0,0,1,4.39,5L1,78.86.53,67.48A11.32,11.32,0,0,1,7,69.19Z" transform="translate(-0.01 0)" fill="#fff" fill-rule="evenodd"/>
</svg>
