<?xml version="1.0" standalone="no"?>
<!DOCTYPE svg PUBLIC "-//W3C//DTD SVG 1.1//EN" "http://www.w3.org/Graphics/SVG/1.1/DTD/svg11.dtd" >
<svg xmlns="http://www.w3.org/2000/svg" xmlns:xlink="http://www.w3.org/1999/xlink" version="1.1">
<metadata></metadata>
<defs>
<font id="mrs_sheppardsregular" horiz-adv-x="578" >
<font-face units-per-em="1000" ascent="800" descent="-200" />
<missing-glyph horiz-adv-x="360" />
<glyph horiz-adv-x="0" />
<glyph horiz-adv-x="333" />
<glyph unicode=" "  horiz-adv-x="360" />
<glyph unicode="&#x09;" horiz-adv-x="360" />
<glyph unicode="&#xa0;" horiz-adv-x="360" />
<glyph unicode="!" horiz-adv-x="501" d="M382 204q-29 0 -50.5 21t-21.5 53q0 26 30.5 106.5t80.5 182t105.5 198.5t112.5 166.5t95 76.5q22 0 36.5 -9.5t20 -24t7 -24t1.5 -18.5q0 -43 -58 -164.5t-131.5 -245t-141.5 -221t-86 -97.5zM325.5 176q28.5 0 41.5 -18.5t13 -45.5q0 -35 -26 -74.5t-65.5 -65 t-75.5 -25.5q-29 0 -44 17.5t-19 39.5v2v5.5t2 15.5t4.5 23t9 26.5t15 28.5t22 26.5t30.5 23t40.5 15.5t52 6z" />
<glyph unicode="&#x22;" horiz-adv-x="666" d="M217 376l131 327q5 10 17 17t24 7q13 0 46 -13q45 -17 45 -44q0 -24 -20.5 -67t-49 -87t-57.5 -84.5t-49 -65.5l-20 -26q-15 -7 -32 -7q-33 0 -35 43zM451 376l131 327q4 10 16 17t24 7q13 0 46 -13q45 -17 45 -44q0 -24 -20.5 -67t-49 -87t-57.5 -84.5t-49 -65.5 l-20 -26q-14 -7 -32 -7q-32 0 -34 43z" />
<glyph unicode="#" horiz-adv-x="925" d="M-9 442q93 3 213 9q4 7 11 21t13 25.5t11 22.5q-42 -2 -108 -2h-10q-17 0 -25.5 0.5t-22 1.5t-20.5 3.5t-15 6.5t-11.5 11t-3.5 16q0 21 17.5 28.5t34.5 7.5q0 12 214 25q136 262 143 272q35 49 65 49q15 0 28.5 -10.5t13.5 -25.5q0 -24 -129 -278q127 6 196 7 q123 240 136 258q35 49 64 49q16 0 29 -10.5t13 -25.5q0 -24 -124 -269q130 0 144 -10q9 -7 30.5 -9t36 -9t14.5 -27q0 -22 -45.5 -28.5t-207.5 -13.5l-22 -1q-23 -46 -35 -68q115 4 146 4q18 0 34.5 -3t31 -13.5t14.5 -27.5q0 -22 -44.5 -28.5t-205.5 -13.5l-20 -2l-29 -56 q-40 -76 -57 -107t-38 -62t-34 -39t-29 -8t-27 15t-11 30q0 16 9 27q43 85 98 195l-198 -7q-11 -22 -31 -60q-69 -128 -94.5 -164t-55.5 -36q-11 0 -20 8t-13.5 18t-4.5 19q0 16 9 27q41 81 94 185h-97l-14 -2q-22 0 -32.5 0.5t-27 1.5t-23.5 3.5t-15 6.5t-11 11t-3 16 q0 21 17 28.5t34 7.5zM554 530l-195 -7q-35 -65 -36 -68l197 9q23 43 34 66z" />
<glyph unicode="$" horiz-adv-x="1081" d="M288 -115q13 32 32 72q-56 -9 -108 -9q-83 0 -143 19t-97 63t-37 111q0 93 134 147q10 -10 25 -17t29.5 -11t35.5 -6.5t34 -3t35 -1.5t28 -1q120 8 212 37q3 7 34 76.5t48 106.5q-58 1 -217 6q-80 1 -131.5 45t-51.5 112q0 60 60 122.5t153.5 111.5t206 85.5t219.5 50.5 q72 158 76 167q21 49 42 49q11 0 20 -10.5t9 -25.5q0 -13 -69 -173q11 1 36 1q107 0 169.5 -33t62.5 -102q0 -26 -42 -94.5t-96.5 -128t-83.5 -59.5q-10 0 -18 8.5t-8 18.5q0 18 31.5 54t31.5 53q0 13 -28 13q-62 0 -192 -42l-65 -147q55 -2 134 -11q46 -7 80.5 -23t53 -34 t29.5 -41t14 -39.5t3 -34.5q0 -49 -33.5 -100t-90.5 -95.5t-131 -84.5t-157 -70t-167 -47q-54 -118 -63 -134q-14 -23 -30 -23q-10 0 -18 15t-8 29q0 13 7 28zM647 468h-19q-13 -27 -35 -76.5t-31 -70.5q63 30 100 64t42 57q-2 16 -15 21t-42 5zM494 575q0 -12 21.5 -16.5 t72.5 -6.5q15 37 50 112q-144 -57 -144 -89z" />
<glyph unicode="%" horiz-adv-x="1274" d="M295 17q670 952 689 978q34 49 64 49q15 0 28.5 -10.5t13.5 -25.5q0 -28 -332 -500t-388 -540q-6 -7 -19.5 -15t-26.5 -8q-16 0 -26.5 15t-10.5 30q0 16 8 27zM648 960h4q18 12 35 12q14 0 23.5 -9t13 -20.5t3.5 -23.5q0 -38 -26 -101t-71 -130.5t-99 -128t-117 -100 t-117 -39.5q-49 0 -88 57t-39 136q0 64 27 125.5t70.5 107.5t96.5 82t106.5 54.5t98.5 18.5q51 0 79 -41zM660 886q0 5 -4.5 9t-8.5 6l-5 2q-64 0 -132 -59.5t-111 -145.5t-43 -161v-3q4 -29 26 -29q36 0 103.5 73t121 165.5t53.5 142.5zM1211 539h4q18 11 35 11 q14 0 23.5 -9t13 -20.5t3.5 -23.5q0 -38 -26 -100.5t-71 -130.5t-99 -128.5t-117 -99.5t-117 -39q-49 0 -88 56.5t-39 136.5q0 63 27 124.5t70.5 107.5t96.5 82t106.5 54.5t98.5 18.5q51 0 79 -40zM1223 464q0 5 -4.5 9t-8.5 6l-5 2q-48 0 -100.5 -36t-93 -90t-66.5 -119 t-26 -121v-3q4 -28 26 -28q36 0 103.5 72.5t121 165t53.5 142.5z" />
<glyph unicode="&#x26;" horiz-adv-x="1418" d="M847 197q-22 -1 -36 -1q-55 0 -94.5 30t-39.5 84q0 43 87.5 89.5t206.5 75t213 28.5q96 0 155 -33.5t59 -103.5q0 -28 -65 -56.5t-142.5 -46.5t-143.5 -31.5t-66 -15.5q-56 -61 -134.5 -112t-154.5 -82t-153.5 -53t-135 -31t-96.5 -9q-168 0 -247 39t-79 105 q0 56 35 119.5t95 122.5t146.5 111t184.5 84q9 2 9 6t-6 8.5t-12 5.5q-93 10 -99 11q-42 10 -71.5 25.5t-43.5 34t-20 34.5t-6 32q0 66 75.5 135t187 119t243 82t240.5 32q66 0 113.5 -10t75 -29t39.5 -43t12 -53q0 -44 -27 -92t-63 -82t-71.5 -56.5t-54.5 -22.5 q-10 0 -19 9t-9 19q0 21 28 52.5t28 47.5t-36 16q-30 0 -80.5 -11t-106.5 -27.5t-115 -38.5t-105.5 -43t-76.5 -41t-30 -32q2 -10 40 -10q35 0 81.5 7t71.5 7q64 0 64 -35q0 -10 -6 -18t-21 -16t-30 -14t-43 -17t-49 -21q-123 -55 -197 -137.5t-74 -157.5q0 -37 17 -65 t47.5 -44t68 -23.5t83.5 -7.5q80 0 162 21t136.5 56.5t54.5 73.5z" />
<glyph unicode="'" horiz-adv-x="358" d="M217 376l131 327q5 10 17 17t24 7q13 0 46 -13q45 -17 45 -44q0 -24 -20.5 -67t-49 -87t-57.5 -84.5t-49 -65.5l-20 -26q-15 -7 -32 -7q-33 0 -35 43z" />
<glyph unicode="(" horiz-adv-x="616" d="M357 -107q0 -21 -11.5 -36.5t-27.5 -23.5t-32.5 -12.5t-27.5 -5.5l-12 -1q-46 33 -80.5 90.5t-53 123.5t-27.5 126.5t-9 113.5q0 187 81 358.5t227 302.5q55 50 124 99t103 49h4q15 -1 48.5 -33.5t33.5 -62.5v-5q-4 -21 -28 -52t-58.5 -67.5t-76 -83t-82 -108t-74 -132.5 t-54 -166t-20.5 -200q0 -133 53 -274z" />
<glyph unicode=")" horiz-adv-x="607" d="M377 999q0 21 11.5 37t28 23.5t32.5 12.5t28 6l11 1q37 -27 67 -70.5t49 -92t31.5 -102.5t17.5 -100.5t5 -88.5q0 -187 -81 -358.5t-227 -302.5q-54 -50 -123.5 -99t-102.5 -49h-4q-16 1 -49.5 33.5t-33.5 62.5v4q4 22 28 52.5t58.5 67.5t76 83.5t82 108t74 132.5 t54.5 166t21 200q0 133 -54 273z" />
<glyph unicode="*" horiz-adv-x="688" d="M278 698q0 3 0.5 7t4 14.5t9.5 18.5t19.5 14.5t31.5 6.5q56 0 119 -78q85 123 153 123q20 0 42.5 -18.5t22.5 -41.5q0 -36 -58 -96q28 -4 43.5 -10.5t24 -19t11.5 -33.5q-1 -40 -30.5 -60t-97.5 -20q29 -59 29 -95q0 -24 -19 -24q3 6 -52.5 54t-79.5 65q-21 -21 -48 -53 t-44 -54l-16 -21q-19 0 -19 25q0 36 48 131q-40 10 -73.5 20.5t-58 22t-38 22.5t-13.5 21q0 6 5 12q64 -5 121 -6q-37 45 -37 73z" />
<glyph unicode="+" horiz-adv-x="852" d="M482 402l-43 -291q-2 -19 -12.5 -32.5t-27.5 -13.5q-9 2 -13.5 3.5t-10 5.5t-7.5 12t-2 21q0 81 31 293h-285q-21 0 -37 12.5t-16 38.5q0 11 7 26q19 20 346 23q6 43 16 116q18 127 29 169t35 42h8q19 -4 29 -21t10 -28l-42 -278q52 0 123.5 1.5t90.5 1.5q69 0 93.5 -9 t24.5 -38q0 -25 -14 -39.5t-24 -14.5h-309z" />
<glyph unicode="," horiz-adv-x="398" d="M170 117q0 3 1 9t6.5 21t13.5 26t25.5 20.5t39.5 9.5q59 0 93.5 -30.5t34.5 -86.5q0 -43 -40.5 -98t-97.5 -94t-102 -39q-8 0 -12.5 4.5t-4.5 12.5q0 9 11 19q43 47 61.5 75.5t19.5 52.5q0 9 -24.5 43t-24.5 55z" />
<glyph unicode="-" horiz-adv-x="872" d="M834 200l-678 -1q-22 0 -38 12t-16 38q0 12 7 26q22 23 418 23q82 0 186.5 -0.5t107.5 -0.5q18 0 35 -10t17 -32q0 -26 -14.5 -40.5t-24.5 -14.5z" />
<glyph unicode="." horiz-adv-x="400" d="M281 186q31 0 45 -16.5t14 -41.5q0 -52 -59.5 -101.5t-117.5 -49.5q-39 0 -55 22t-16 49q0 7 13.5 28.5t36 46.5t60.5 44t79 19z" />
<glyph unicode="/" horiz-adv-x="745" d="M-59 -32q789 1001 808 1027q35 49 65 49q15 0 28 -10.5t13 -25.5q0 -27 -360 -486t-479 -603q-6 -7 -19.5 -15t-26.5 -8q-16 0 -27 15t-11 30q0 16 9 27z" />
<glyph unicode="0" horiz-adv-x="1000" d="M963 996h9q33 24 68 24q42 0 62 -33.5t20 -73.5q0 -63 -38 -162.5t-100.5 -209.5t-150 -221t-180.5 -200t-197 -145t-195 -56q-38 0 -75 19t-68.5 54t-56 81.5t-38.5 106.5t-14 124q0 92 28.5 182t77.5 165.5t114 143t139 119t150 89t150 57t137 19.5q48 0 87 -18t71 -65 zM985 847q0 11 -8.5 20t-16.5 12l-8 4q-66 0 -136 -33.5t-132 -89t-118.5 -130t-97 -154.5t-64.5 -165t-24 -160v-4q9 -58 52 -58t114.5 58.5t145.5 149.5t141 192.5t109.5 199.5t42.5 158z" />
<glyph unicode="1" horiz-adv-x="576" d="M20 -33q-11 33 -11 85q0 91 39.5 224.5t98.5 262t122 245.5t114 191.5t71 82.5q13 5 28 5q38 0 75.5 -23t37.5 -51q0 -37 -29.5 -158.5t-77 -277t-100 -305.5t-107 -260t-89.5 -125q-13 -4 -29 -4q-42 0 -85.5 32t-57.5 76z" />
<glyph unicode="2" horiz-adv-x="950" d="M1014 838q0 -32 -22.5 -68t-58 -68t-79 -63.5t-86.5 -56t-78.5 -44t-58.5 -29.5l-22 -11q-57 -26 -168.5 -100t-129.5 -84q-32 -17 -32 -26q0 -6 18 -6q22 0 54 9q1 0 3 0.5t3 0.5q101 22 170 22q67 0 128 -20t103.5 -50t75 -66t48 -68.5t15.5 -56.5q0 -7 -3 -13t-8 -10 t-11 -7t-13.5 -4.5t-14.5 -2t-15 -0.5q-17 0 -50.5 3.5t-55.5 3.5q-102 0 -315.5 -31.5t-295.5 -31.5q-69 0 -128 45t-59 112q0 47 70.5 110.5t183.5 130.5t230 130.5t235.5 130t174.5 110.5q-9 28 -54 28q-76 0 -160 -22t-141 -49t-104 -49.5t-58 -21.5q-37 1 -76.5 31 t-65 71t-25.5 75q0 67 76.5 136t197 112.5t239.5 43.5q28 0 60 -4t67 -13.5t68.5 -23.5t64 -34.5t53.5 -45t36.5 -57t13.5 -68.5z" />
<glyph unicode="3" horiz-adv-x="977" d="M949 262q0 -39 -32 -84.5t-92.5 -89t-138 -79.5t-177.5 -58t-202 -22q-285 0 -285 185q0 54 25 112.5t57 94t53 35.5q17 -1 28 -13.5t11 -28.5q0 -12 -14.5 -38.5t-14.5 -37.5q0 -26 42 -26t120 25.5t151.5 60t128.5 72t55 58.5q-4 10 -42 10q-35 0 -80 -7.5t-70 -7.5 q-73 0 -73 44q0 13 13.5 22.5t51 26.5t59.5 28q28 15 130 62.5t155 79t53 51.5q-9 29 -55 29q-75 0 -159 -22.5t-141 -49.5t-104 -49t-58 -21q-57 2 -112 62.5t-55 114.5q0 67 76.5 135.5t197 112.5t239.5 44q40 0 86.5 -8.5t96 -28t89 -47t65.5 -70t26 -92.5 q0 -49 -38 -99.5t-92.5 -89t-115 -71t-105.5 -50.5t-64 -21l-7 -3q0 -2 1 -3q0 -4 7 -9t13 -6q122 -12 209.5 -78t87.5 -155z" />
<glyph unicode="4" horiz-adv-x="1065" d="M444 420q1 -23 12 -23q27 0 145 91.5t281.5 245t283.5 296.5q22 21 45 21q17 0 32.5 -11t19.5 -39q-2 -28 -20.5 -62.5t-56.5 -87.5t-41 -58q-325 -480 -431 -672q-33 -59 -64.5 -131t-46.5 -97t-34 -25q-28 0 -53 27t-38 59.5t-13 55.5q0 32 13 64t38 76q12 22 53 76 t71.5 99t30.5 62q0 3 -3 3q-11 0 -48.5 -24t-89.5 -58t-110.5 -68.5t-122.5 -58.5t-114 -24q-40 0 -71.5 19t-50 48.5t-28.5 61t-10 61.5q0 39 41.5 102t100.5 128.5t118 129.5t100.5 121t41.5 88q9 22 17 45.5t13 36t10 26t10 19t11 11.5t16 7.5t21.5 3t30.5 1.5 q37 0 70.5 -11.5t61.5 -33t44.5 -58t16.5 -83.5q0 -31 -31 -89.5t-76 -120t-89.5 -119t-75.5 -94.5z" />
<glyph unicode="5" horiz-adv-x="1068" d="M658 468q-92 0 -179.5 31.5t-153.5 84t-106 126.5t-40 154q0 176 486 204q114 6 308 6q108 0 171 -32t63 -99q0 -33 -50.5 -108t-114 -137.5t-94.5 -62.5q-11 0 -18.5 9.5t-7.5 19.5q2 18 38 56.5t38 57.5q0 11 -30 11q-53 0 -134.5 -3.5t-182.5 -11t-172.5 -24.5 t-73.5 -39q0 -19 10 -36.5t32 -31.5t44 -25.5t59 -22t63.5 -17t71 -14.5t68 -11.5t65.5 -9.5q6 -1 9 -2q174 -25 174 -180q0 -80 -60.5 -159.5t-156 -139t-218.5 -96.5t-243 -37q-83 0 -142.5 18t-96 59.5t-36.5 104.5q2 33 16.5 61.5t30.5 46t40.5 33t37 21.5t30.5 14 q12 -12 29 -20t43.5 -12.5t40.5 -6t47.5 -2.5t35.5 -1q52 3 95 10.5t73.5 17.5t54 21t38 25.5t24.5 26.5t15.5 27t8 25.5t4.5 23.5t4 19q-1 16 -14.5 21.5t-43.5 5.5z" />
<glyph unicode="6" horiz-adv-x="1087" d="M955 778q-108 0 -210 -29t-176.5 -72.5t-136.5 -100.5q36 -2 115.5 -3t152 -4t125.5 -10q54 -8 96.5 -27t68.5 -42.5t43.5 -52t24 -54t6.5 -50.5q0 -79 -67.5 -158t-170.5 -137t-229.5 -94t-240.5 -36q-91 0 -160 23.5t-110.5 67t-62 100t-20.5 126.5q0 74 22 156.5 t64.5 165t100 160.5t132.5 145t157.5 118t179.5 80t195 29q37 0 71.5 -5.5t69 -20t59.5 -36.5t40.5 -58.5t15.5 -82.5q0 -31 -10 -52t-27 -31t-34.5 -14t-37.5 -4q-26 0 -46 3zM749 454q0 10 -7.5 18.5t-23 14t-33 10t-44.5 7.5t-49 4.5t-55 2.5t-55 1.5t-56.5 1t-52.5 0.5 q-51 -59 -79 -119t-28 -104q0 -55 45 -55q50 0 98 7.5t87 20t75 29t63 34.5t49 36.5t36.5 35.5t22 30.5t7.5 22.5v2z" />
<glyph unicode="7" horiz-adv-x="951" d="M288 -65q-69 0 -128 45t-59 112q0 41 44 107t110.5 135t144 142.5t144 131t110.5 98t44 46.5q0 4 -8 4q-5 0 -89.5 -21.5t-192 -43t-169.5 -21.5q-73 0 -115 37.5t-42 93.5q0 41 66.5 114.5t151.5 131t133 57.5q31 0 31 -23q0 -18 -18 -36q-3 -3 -20.5 -15t-31.5 -23.5 t-14 -15.5q0 -10 25 -10q54 0 203 31t223 31q40 0 80 -7.5t78 -22.5t61.5 -44t23.5 -68q0 -14 -6 -27.5t-18 -26t-24.5 -22.5t-32 -20.5t-34 -17.5t-36.5 -17q-27 -12 -92 -102.5t-142 -210.5t-155 -238.5t-146 -200.5t-100 -83z" />
<glyph unicode="8" horiz-adv-x="1006" d="M436 523q5 1 12 3l-143 21q-32 8 -57 25.5t-39 37.5t-23 43.5t-12 40.5t-3 30q0 54 46.5 109.5t123 101t168.5 82t190 56.5t181 20q121 0 175 -37t54 -98q0 -44 -16.5 -86t-46 -78.5t-65.5 -69t-81.5 -61t-88 -51t-88.5 -42.5q73 -5 95 -16q48 -7 84.5 -23.5t56 -35.5 t31.5 -43t15 -41.5t3 -36.5q0 -78 -81 -160t-201.5 -142.5t-264 -99t-264.5 -38.5q-133 0 -209.5 49.5t-76.5 156.5q0 44 34.5 91.5t88.5 88t117 77.5t123 63.5t103 43t59 19.5zM658 495l-104 15q-34 -9 -44 -9q-52 -24 -77 -35.5t-80 -38t-86 -43.5t-68 -38t-54 -36 t-17 -25t7 -17t16 -9.5t20 -2.5q114 8 218.5 33t172.5 56t109.5 60t45.5 49q-5 41 -59 41zM406 636q0 -46 186 -57q337 131 337 216q0 16 -33 16q-57 0 -175 -32t-216 -74.5t-99 -68.5z" />
<glyph unicode="9" horiz-adv-x="1137" d="M239 192q125 0 239.5 31t200 83t147.5 111.5t101 123.5q-107 -73 -242.5 -120t-253.5 -47q-65 0 -117.5 15.5t-94 48t-64.5 88t-23 129.5q0 63 41.5 127.5t111.5 116.5t156 93.5t181.5 64.5t182.5 23q89 0 160.5 -33.5t117 -92t69.5 -134.5t24 -163q0 -73 -16 -147.5 t-50.5 -148t-84.5 -140t-120 -123.5t-154 -99t-191.5 -66t-226.5 -24q-271 0 -271 185q0 54 23.5 112t54 94t50.5 36q16 -2 26 -14.5t10 -27.5q0 -13 -13.5 -39t-13.5 -38q0 -25 40 -25zM550 469q82 0 192 36t220 106q17 43 17 80q0 39 -20.5 61.5t-61.5 22.5 q-93 0 -182 -25t-149.5 -62t-97 -78.5t-36.5 -75.5q0 -31 31.5 -48t86.5 -17z" />
<glyph unicode=":" horiz-adv-x="433" d="M281 186q31 0 45 -16.5t14 -41.5q0 -52 -59.5 -101.5t-117.5 -49.5q-39 0 -55 22t-16 49q0 7 13.5 28.5t36 46.5t60.5 44t79 19zM485 465q0 -55 -53 -107.5t-109 -57.5q-40 0 -58.5 20.5t-18.5 43.5q0 9 11.5 31t32 48.5t56 48.5t76.5 26q18 0 31 -5.5t19 -13t9.5 -15.5 t3.5 -13v-6z" />
<glyph unicode=";" horiz-adv-x="398" d="M170 117q0 3 1 9t6.5 21t13.5 26t25.5 20.5t39.5 9.5q59 0 93.5 -30.5t34.5 -86.5q0 -43 -40.5 -98t-97.5 -94t-102 -39q-8 0 -12.5 4.5t-4.5 12.5q0 9 11 19q43 47 61.5 75.5t19.5 52.5q0 9 -24.5 43t-24.5 55zM492 444q0 -58 -40.5 -110t-94.5 -58q-40 0 -58 21t-18 44 q0 8 4 23t15 37t26.5 41.5t42.5 35.5t60 19q18 0 31 -5.5t19 -13.5t9.5 -16t3.5 -13v-5z" />
<glyph unicode="&#x3c;" horiz-adv-x="794" d="M220 416l454 -190q22 -16 22 -42q0 -23 -12 -33.5t-30 -10.5q-15 0 -23 4q-56 15 -246.5 96t-272.5 127h-7q-12 0 -22.5 6t-18.5 23.5t-8 45.5t100 84.5t292 147.5q51 24 101 46.5t84.5 37.5t61 26.5t40.5 17.5l14 6q18 0 30.5 -17t12.5 -54q0 -41 -22 -63z" />
<glyph unicode="=" horiz-adv-x="794" d="M704 310l-620 4q-22 0 -38 12.5t-16 37.5q0 12 7 26q22 23 418 23q82 0 157.5 -3.5t78.5 -3.5q19 0 35.5 -10t16.5 -32q0 -25 -14.5 -39.5t-24.5 -14.5zM778 495l-621 5q-21 0 -37 12t-16 38q0 12 7 26q21 23 417 23q60 0 112 -2t83 -3.5t42 -1.5q18 0 34.5 -10t16.5 -32 q0 -25 -14 -40t-24 -15z" />
<glyph unicode="&#x3e;" horiz-adv-x="794" d="M638 534l-454 190q-23 18 -23 41q0 10 2.5 18t6.5 13t9.5 8.5t11.5 5t12 1.5q14 0 25 -5q55 -15 245.5 -96t272.5 -127h6q19 0 34 -17.5t15 -57.5q0 -28 -103 -86.5t-288 -145.5q-37 -18 -74 -34.5t-66 -30t-55 -24.5t-44.5 -19t-32.5 -14t-21.5 -8.5t-8.5 -2.5 q-18 0 -30.5 16.5t-12.5 53.5q0 40 23 63z" />
<glyph unicode="?" horiz-adv-x="720" d="M582 412q-137 -99 -137 -177q-38 -48 -118 -48q-28 0 -48 7t-20 16q0 39 19.5 76t54 69t77 62t92.5 60t96 57t92.5 59.5t77.5 61.5q-8 26 -39 26q-55 0 -115.5 -20t-102 -44.5t-75 -44t-40.5 -19.5q-27 1 -55.5 28t-47 64t-18.5 68q0 60 55 122t141.5 101.5t172.5 39.5 q23 0 50.5 -5.5t57.5 -16.5t57 -29.5t49 -42t35 -56.5t13 -71q0 -29 -18 -63.5t-46.5 -66.5t-63 -64.5t-69 -58.5t-63.5 -46.5t-46 -32.5zM369 140q-41 0 -79 -19t-60.5 -44t-36 -46.5t-13.5 -29.5q0 -26 16 -48t55 -22q58 0 117.5 49.5t59.5 101.5q0 25 -14 41.5t-45 16.5z " />
<glyph unicode="@" horiz-adv-x="901" d="M700 108q90 2 154.5 72t64.5 164q0 109 -48 159.5t-129 50.5q-69 0 -151.5 -35t-151 -88.5t-114.5 -122t-46 -129.5q0 -66 23 -116.5t62.5 -80t87.5 -44t102 -14.5q94 0 176.5 39t114.5 103q4 -8 7.5 -16.5t5 -11.5t2.5 -7.5t1 -10.5q0 -36 -47 -68.5t-123.5 -52 t-159.5 -19.5q-57 0 -109 10t-101 33.5t-85 58.5t-57.5 88.5t-21.5 121.5q0 75 19.5 140.5t53.5 114t79 86t98 61t108.5 35.5t112.5 12q92 0 169.5 -29t126.5 -88.5t49 -137.5q0 -63 -22 -123.5t-62.5 -110t-104.5 -79.5t-142 -30q-14 0 -29 11.5t-15 26.5q0 17 7.5 35.5 t7.5 24.5t-4 6q-3 0 -6 -3l-3 -3q-18 -13 -41.5 -28.5t-61.5 -34t-59 -18.5q-14 0 -25 5t-18 13t-12.5 17t-8.5 18.5t-4.5 17.5t-1.5 12l-1 5q0 39 29.5 88.5t77.5 95t118 76.5t142 31q39 0 73 -20.5t34 -46.5q0 -12 -12 -20.5t-22 -11t-19 -3.5q-22 -5 -75.5 -32.5 t-102 -63.5t-48.5 -57q0 -4 3.5 -8.5t9.5 -4.5q18 0 63 33t89 65.5t59 32.5q8 0 13 -6t5 -14q0 -4 -1.5 -8t-4 -8.5t-4.5 -8.5t-6.5 -9.5t-8 -9.5t-9 -10.5t-9 -10t-10 -10.5t-9.5 -10q-23 -24 -37 -47.5t-14 -34.5q0 -2 2.5 -4t4.5 -2z" />
<glyph unicode="A" horiz-adv-x="806" d="M1097 887q0 -33 -22.5 -71t-52.5 -66.5t-59 -47.5t-43 -19q-9 0 -17.5 4.5t-8.5 13.5q0 18 19 39.5t38.5 39t19.5 26.5q0 5 -8 5q-57 0 -165 -76t-210.5 -177t-179.5 -210t-77 -168q0 -24 17 -24q28 0 131 87t210 190.5t198 198.5q14 3 19 3q15 0 28 -8t18.5 -16t5.5 -12 q-2 -21 -19 -62t-39.5 -83t-54.5 -97t-54.5 -90.5t-49 -77.5t-28.5 -45t-2 -7q0 -10 8 -10q2 0 4 1q3 2 12.5 8t19.5 13t21.5 15t16.5 12q13 10 25 10q9 0 17.5 -7.5t8.5 -17.5q0 -31 -54 -74.5t-116.5 -73t-91.5 -29.5q-33 0 -58.5 21.5t-25.5 54.5q0 29 17.5 74.5 l17.5 45.5q0 4 -3 4q-4 0 -10 -4q-226 -180 -337 -180q-85 0 -134.5 66t-49.5 159q0 96 41 194t109.5 181.5t160.5 157t191.5 125t204.5 81.5t198 30q87 0 140 -28t53 -79z" />
<glyph unicode="B" horiz-adv-x="973" d="M780 1084q88 0 158 -19.5t110 -47.5t67 -62.5t36.5 -61.5t9.5 -48q0 -34 -18 -67t-51 -52q-42 -24 -98.5 -55t-147.5 -75t-143 -60q-23 -10 -23 -18q0 -3 20 -5q40 0 81.5 -5.5t89 -20.5t83.5 -38t60 -63.5t24 -91.5q0 -59 -30.5 -111.5t-81.5 -91t-117.5 -70.5 t-137.5 -52.5t-143.5 -35t-133 -21t-107.5 -6.5q-28 0 -64.5 4t-83 14.5t-84 26t-63 42t-25.5 59.5q0 50 42.5 98.5t79.5 51.5q1 0 26 -5.5t69.5 -11t91.5 -5.5q85 0 191 22.5t193 56t147 73t60 71.5q0 27 -57.5 39.5t-148.5 12.5q-78 0 -121 -9q-7 0 -57.5 -56.5 t-95.5 -110t-54 -64.5q-9 -8 -25 -15t-29 -7t-21.5 8.5t-8.5 15.5t7 19q5 8 38 53.5t61.5 86.5t28.5 44q0 7 -6 17t-12 21.5t-6 22.5q0 14 22.5 23t54.5 16.5t44 15.5q5 2 38.5 42t68.5 83t44 50q12 12 32 12q9 0 15 -1t12.5 -7.5t6.5 -18.5q0 -16 -28 -55t-28 -46 q0 -3 2 -5q25 0 105.5 37.5t154 79t92.5 56.5q15 6 15 19q0 8 -4 13t-25 10.5t-59 5.5q-60 0 -124 -7t-120 -18t-109 -24.5t-94.5 -28.5t-73 -28.5t-48.5 -24t-17 -16.5q0 -4 11 -4q9 0 41.5 6t43.5 6q20 0 22 -10q0 -26 -51.5 -48t-141.5 -22q-67 0 -119 38.5t-52 105.5 q0 16 13 42t41 58.5t67.5 66.5t98 66.5t126 58t157 41t186.5 15.5z" />
<glyph unicode="C" horiz-adv-x="692" d="M995 788q-34 0 -96 -33.5t-133.5 -87.5t-146 -125.5t-134.5 -143.5t-98.5 -145t-38.5 -128q0 -27 31 -27q26 0 81.5 33.5t108 74t99 74.5t56.5 34q11 0 23 -7q12 -8 12 -26q0 -16 -29 -50.5t-80.5 -75.5t-112 -79t-133 -63.5t-135.5 -25.5q-47 0 -85 15t-68.5 47 t-47 87.5t-16.5 131.5q0 104 31.5 198t85 165t125 131.5t150 101.5t161.5 70t158.5 42t140.5 13q132 0 191.5 -36t59.5 -95q0 -41 -26.5 -90.5t-62.5 -88t-75 -64.5t-64 -26q-37 0 -37 22q0 11 6.5 25.5t13.5 23.5l23 23t39.5 41.5t31.5 37.5q7 9 7 17q0 9 -16 9z" />
<glyph unicode="D" horiz-adv-x="1166" d="M1388 570q0 -45 -19.5 -99t-62 -114.5t-103.5 -118.5t-150.5 -111.5t-196.5 -93.5t-248.5 -64t-299.5 -24q-13 0 -46 5.5t-81.5 19t-91 33.5t-73 54t-30.5 74q0 67 58.5 120.5t116.5 53.5q17 0 52 -11.5t87 -23.5t110 -12q94 0 214 30.5t231 79t206.5 104t153.5 110.5 t58 93q0 34 -59 51t-157 17q-119 0 -257.5 -21.5t-252.5 -61t-147 -84.5q1 -1 5 -1q10 0 46 7t52 7q25 0 25 -16q0 -25 -77 -47.5t-127 -22.5q-81 0 -130.5 49t-58.5 133q0 41 29.5 82.5t80 78t120.5 69t148 56t165.5 37t171.5 13.5q61 0 118 -7.5t111.5 -23.5t100.5 -41 t84.5 -61.5t66 -82t42.5 -105.5t15 -130zM478 364q222 280 238 296q36 43 64 43q16 0 29 -12t13 -27q0 -6 -2 -13t-4.5 -12t-8 -12.5t-8 -11t-9 -11t-7.5 -8.5q-12 -17 -125 -151.5t-117 -136.5q-1 0 -7 -5.5t-14.5 -10t-16.5 -4.5q-16 0 -26 14.5t-10 28.5q0 19 11 33z" />
<glyph unicode="E" horiz-adv-x="825" d="M991 1093q66 0 113.5 -10.5t74.5 -29.5t39.5 -42.5t12.5 -52.5q0 -44 -27 -98t-63 -95.5t-72 -69.5t-54 -28q-11 0 -20 9t-9 20q0 20 28.5 51.5t28.5 47.5t-36 16q-59 0 -183.5 -37t-227.5 -84t-104 -72q2 -10 41 -10q35 0 81 7t71 7q65 0 65 -34q0 -10 -6 -18.5 t-21.5 -16t-30.5 -14t-42.5 -17.5t-49.5 -21q-15 -7 -49 -22t-57 -25.5t-58 -26.5t-59.5 -28t-54.5 -27t-50 -27t-38 -23.5t-26.5 -20.5t-8.5 -16q0 -10 7 -17t17 -9.5t22 -2.5q76 0 166.5 22.5t155.5 49.5t118.5 49t64.5 22q51 -2 84.5 -50.5t33.5 -97.5q0 -53 -57.5 -111 t-144.5 -104t-195.5 -76.5t-204.5 -30.5q-57 0 -105.5 12t-89 36t-67 65.5t-34.5 97.5q0 44 34 92t87.5 89t116.5 79t122 65.5t103 44.5t61 20q9 2 9 6t-6 8.5t-12 5.5q-93 10 -99 12q-41 9 -71 30t-44 47t-20 47t-6 38q0 67 75.5 136t187 119t243 82t240.5 32z" />
<glyph unicode="F" horiz-adv-x="426" d="M302 343l-259 -329q0 1 -4 -3.5t-10.5 -11t-14.5 -13.5t-17 -11.5t-16 -4.5q-15 0 -29.5 7.5t-14.5 19.5q0 23 27 71q4 5 42 55t78 100t46 56q7 8 7 12q0 6 -7 6q-5 0 -97.5 -24t-118.5 -24q-22 0 -34 12t-28 43q-6 9 -6 21q0 18 13.5 30t29.5 18q71 27 174 58t171 48 l68 16q88 100 103 118q8 13 8 18q0 7 -13 7q-2 0 -27 -6t-68 -11.5t-90 -5.5q-86 0 -156.5 54t-70.5 123q0 31 38 72.5t86.5 74.5t93.5 57t60 24q35 0 35 -26q0 -14 -31 -40.5t-50 -34.5q-5 -2 -5 -7q0 -9 10 -9t101 25.5t201 56.5t243 56.5t218 25.5q19 0 51 -11t65.5 -29 t58 -48t24.5 -63q0 -30 -153 -91.5t-315 -110t-201 -49.5q-10 0 -10 -10q0 -2 4.5 -13.5t4.5 -15.5q0 -12 -32.5 -48t-32.5 -42q0 -8 10 -8q9 0 103.5 14t138.5 14q23 0 37.5 -21t14.5 -43q0 -14 -10.5 -23t-34.5 -21q-6 -3 -32 -10.5t-62.5 -17t-79 -20.5t-84 -21 t-75.5 -18t-55 -13z" />
<glyph unicode="G" horiz-adv-x="995" d="M1165 380q0 -28 -52.5 -55t-115.5 -44t-116.5 -29.5t-53.5 -13.5q-71 -77 -148.5 -132t-147.5 -83t-127 -40.5t-106 -12.5q-46 0 -84.5 12t-63.5 31t-44 44t-29 49t-16 48.5t-7.5 39.5t-1.5 25q0 107 38 206t103.5 176.5t152.5 144.5t184 114.5t199 81t198.5 50 t179.5 16.5q122 0 194.5 -34.5t72.5 -100.5q0 -30 -40.5 -84t-94 -97t-84.5 -43q-27 0 -27 31q0 20 24 48t48.5 51t24.5 32q0 7 -8 7q-34 0 -95 -19t-136.5 -55t-156 -84t-157 -109t-137 -126.5t-97 -141t-36.5 -146.5q0 -42 40 -42q44 0 105 26t103 55.5t43 42.5 q-22 -2 -36 -2q-55 0 -94.5 30t-39.5 84q0 45 67.5 88.5t167.5 70.5t192 27q96 0 155.5 -33t59.5 -104z" />
<glyph unicode="H" horiz-adv-x="943" d="M1349 991q14 0 21.5 -9t8.5 -17l1 -9q-11 -45 -38 -90.5t-58.5 -83.5t-95 -116t-120.5 -156q107 -38 107 -87q0 -18 -14 -29.5t-36 -11.5q-14 -1 -71.5 -3.5t-97.5 -5.5q-12 -1 -42 -39t-67 -92t-76.5 -107.5t-79 -91t-65.5 -37.5t-47.5 34.5t-33 84t-19 99t-10.5 84.5 l-2 35q-11 -16 -30 -42.5t-71.5 -94t-97 -119t-93 -94t-74.5 -42.5q-28 0 -50.5 22t-35.5 54.5t-19.5 64.5t-6.5 58q0 56 61 159t153 212t190 208.5t181 164t118 64.5t57.5 -39t22.5 -74q0 -17 -14.5 -49.5t-51.5 -93t-65.5 -105t-91.5 -139.5q158 33 223 43q24 26 80.5 90 t96.5 109t97.5 104t99.5 96t85 64t71 27zM575 311l18 -102q31 54 97 137q-3 -1 -13.5 -2t-19.5 -2t-22 -3t-22.5 -4.5t-19 -6t-14 -8t-4.5 -9.5z" />
<glyph unicode="I" horiz-adv-x="557" d="M17 102q0 69 55.5 164t140 188t186 186t193 163.5t160.5 114.5t90 44q42 0 84 -37t42 -70q0 -20 -68 -120t-172 -231.5t-215 -259.5t-210 -215.5t-143 -87.5q-50 0 -96.5 52.5t-46.5 108.5z" />
<glyph unicode="J" horiz-adv-x="970" d="M1234 786q0 -72 -69 -190t-187 -260q37 -26 64.5 -56.5t27.5 -54.5q0 -32 -30 -39q-141 -36 -284 -90q-101 -98 -204 -183.5t-202.5 -152.5t-189 -105.5t-154.5 -38.5q-54 0 -94 55t-40 112q0 75 38.5 146.5t103 129.5t148.5 109t176 88.5t184 65t173.5 41t144.5 13.5 q17 0 48 -3q209 226 209 301q0 20 -11.5 27t-37.5 7q-68 0 -192 -44t-222 -100.5t-98 -88.5q0 -10 31 -10l113 15q39 0 39 -26q0 -29 -60 -48t-113.5 -19t-103 13.5t-90 38t-64.5 64t-24 87.5q0 60 73 133t180.5 133t237.5 101t234 41q113 0 179 -51.5t66 -160.5zM99 -289 q0 -5 6 -5q34 0 141 79t246 202q-112 -53 -200 -105t-140.5 -97.5t-52.5 -73.5z" />
<glyph unicode="K" horiz-adv-x="1082" d="M36 181q0 38 49.5 117t128 173.5t179.5 195t200 182t194 134t158 52.5q32 0 45.5 -21t18.5 -59v-3q0 -32 -53 -116t-102 -148t-74 -92q-12 -17 -12 -23q0 -4 7 -4q5 0 30 7q83 27 191 82t195 109t146.5 94t69.5 49q9 7 9 10t-5 3q-6 0 -74 -31.5t-84 -31.5 q-13 0 -39.5 15t-26.5 38q0 26 71.5 62t152.5 59.5t115 23.5q21 0 39.5 -3.5t34.5 -16t16 -31.5q0 -38 -40 -85.5t-101.5 -93t-140.5 -92.5t-153 -85.5t-142.5 -71.5t-106 -49.5t-46.5 -19.5q-10 -6 -10 -15q8 -18 21.5 -49.5t48 -113.5t60.5 -148t48 -129t22 -81 q0 -40 -38 -63t-99 -23q-52 0 -97 18.5t-76.5 49t-58.5 69t-44.5 79t-32 79.5t-23.5 69.5t-17.5 49t-15 18.5t-21.5 -13q-2 -3 -37.5 -40t-78 -79.5t-91 -87.5t-91.5 -74.5t-65 -29.5q-15 0 -31.5 7t-31 19.5t-28.5 28.5t-25.5 34t-20 35t-13 33.5t-4.5 27.5z" />
<glyph unicode="L" horiz-adv-x="1154" d="M730 359q66 -8 124 -21t118.5 -37t103 -55.5t69.5 -79.5t27 -107q0 -33 -16.5 -41.5t-55.5 -8.5q-108 0 -309 22.5t-347 24.5q-231 -206 -417 -206q-78 0 -128 51t-50 119q0 46 15 88.5t46.5 82.5t84 72.5t122 57.5t166.5 38.5t212 13.5q64 0 143 -6q29 33 83 100 q-29 1 -52 6t-45.5 17t-39 35.5t-24.5 57.5q0 17 9.5 30t35.5 13q134 0 285 36q71 79 132 136.5t130.5 108t141 77t142.5 27.5q109 -10 109 -95q0 -79 -65 -158t-168 -139t-233 -101t-257 -50q-60 -72 -92 -109zM1381 927q0 6 -9 6q-74 0 -159.5 -60.5t-188.5 -172.5 q99 32 179.5 71.5t129 81t48.5 74.5zM0 -60q0 -8 13 -8q146 0 308 120q-54 -4 -104 -11t-102 -19.5t-83.5 -33.5t-31.5 -48z" />
<glyph unicode="M" horiz-adv-x="1183" d="M-30 192q0 -3 1 -5t3 -3t4 -1q9 0 49.5 34t139 122.5t157.5 140.5q75 65 162 151.5t155 160t128 138.5t97.5 102.5t46.5 37.5q30 0 63 -40.5t52 -82t19 -56.5q0 -23 -29 -91t-57.5 -128.5t-28.5 -63.5q0 -6 3 -6q4 0 56.5 38t128 95t165.5 124t169.5 124t140 95t75.5 38 q20 0 39.5 -14.5t32 -35.5t12.5 -38q0 -27 -101 -156t-222.5 -269.5t-222.5 -266t-101 -147.5q0 -5 9 -5q6 0 31.5 22.5t43.5 22.5q30 0 30 -29q0 -15 -27.5 -46.5t-75.5 -68t-104 -70.5t-120.5 -56t-117.5 -22q-68 0 -98 33.5t-30 84.5q0 33 22.5 82t57 99t75.5 99t80 87.5 t67 59.5q8 8 8 12q0 3 -5 3q-11 0 -100 -76t-192 -167.5t-201.5 -167.5t-126.5 -76q-14 0 -32 15.5t-30.5 35t-12.5 30.5q0 34 29 97.5t63.5 120t64 102.5t29.5 50l-5 3q-3 0 -7 -5q-15 -13 -102 -98t-164.5 -158t-161.5 -136.5t-119 -63.5q-21 0 -31 20t-10 49 q0 41 35 126.5t84.5 158t82.5 72.5q16 0 27 -9.5t11 -27.5q0 -13 -57 -98t-57 -102z" />
<glyph unicode="N" horiz-adv-x="784" d="M816 477q0 -10 5 -10q4 0 8 1.5t8 5t6.5 6t6.5 8t5 6.5q18 17 106 113.5t167.5 180.5t172.5 166t143 100q38 16 64 16q17 0 39.5 -15t22.5 -31q0 -12 -13 -23l-25.5 -20t-55.5 -44t-79.5 -66.5t-99 -88t-112.5 -108t-122 -125.5q-40 -43 -105.5 -115.5t-105.5 -116.5 t-96 -103t-94 -95t-79 -70.5t-72.5 -50t-55.5 -15.5q-32 0 -68 35.5t-58 76t-22 61.5q0 11 7.5 37.5t21 62.5t31.5 77.5t40.5 85.5t45.5 84t48.5 75.5t48.5 57.5q19 19 19 32q0 9 -9 9q-16 0 -30 -17q-9 -11 -61.5 -72t-91 -105t-101.5 -113.5t-114 -119t-106 -98t-99 -74.5 t-74 -26q-27 2 -38.5 26.5t-11.5 52.5q0 25 15.5 77.5t38 106.5t52 94t54.5 40q13 0 22 -7t9 -20q0 -22 -42 -105.5t-42 -97.5q0 -7 5 -7q14 0 100.5 80t165.5 159l80 80q67 63 167 170.5t169.5 184t141.5 135.5t112 59q26 0 47 -19.5t32 -46.5t16.5 -51.5t5.5 -39.5 q0 -50 -41.5 -157t-83 -195.5t-41.5 -93.5z" />
<glyph unicode="O" horiz-adv-x="797" d="M1132 950q37 22 70 22q35 0 52.5 -23.5t17.5 -51.5q0 -51 -49 -140t-128.5 -191t-187 -208t-218.5 -191.5t-229 -139.5t-212 -54q-37 0 -70.5 15t-62.5 45.5t-46 83t-17 121.5q0 106 46.5 211.5t123 190t174.5 158t200.5 122.5t201.5 77t178 28q104 0 147 -75h9zM405 180 q0 -52 43 -52q45 0 129 56t175.5 143t176 182.5t139 184.5t55.5 138q0 13 -11 13q-16 0 -50.5 -30.5t-69 -70t-62.5 -77.5t-33 -52q-1 -1 -4.5 -7t-7.5 -11t-11.5 -9.5t-16.5 -4.5q-22 0 -35 12.5t-13 28.5t20.5 50t41 63.5t20.5 35.5q0 5 -4 5q-23 0 -101.5 -72t-163 -167 t-151 -199.5t-66.5 -159.5z" />
<glyph unicode="P" horiz-adv-x="714" d="M233 60q120 143 244 293h-35q-25 0 -47 12.5t-22 39.5t19.5 40t42.5 13q14 0 24 -2q35 -2 55 -2q30 0 48 1q39 48 89.5 109t76 92t28.5 35q35 49 65 49q15 0 28.5 -10.5t13.5 -25.5q0 -23 -170 -232q115 23 219 63t177.5 97.5t76.5 116.5q1 18 -45.5 27.5t-119.5 9.5 q-99 0 -235 -24t-253 -58.5t-199 -76t-82 -73.5q0 -4 8 -4q14 0 64 18t68 18q17 0 21 -11q0 -24 -36.5 -51t-94 -46t-111.5 -19q-26 0 -49 5t-44 16.5t-36 29.5t-23.5 45t-8.5 61q0 66 53 133t142 121t199 97t231 66.5t230 23.5q88 0 160.5 -16t129.5 -49.5t89 -90.5 t32 -132q0 -42 -27 -91t-82.5 -99t-131.5 -93.5t-184.5 -77t-230.5 -47.5q-44 -53 -97 -116.5t-90 -108t-67 -80t-38 -44.5q-6 -8 -19.5 -16t-26.5 -8q-16 0 -26.5 15t-10.5 30q0 16 8 27z" />
<glyph unicode="Q" horiz-adv-x="1159" d="M1326 53q0 -56 -116 -56q-24 0 -129 12t-269.5 32.5t-257.5 30.5q-274 -132 -433 -132q-13 0 -29 1.5t-37 6t-40.5 11t-39 17.5t-34 25.5t-23.5 35t-9 44.5q0 77 45.5 136t125.5 93.5t179 51.5t216 17q186 0 375 -41q144 109 237.5 210t94.5 152q0 24 -66 24 q-85 0 -233.5 -34t-267 -80.5t-118.5 -78.5q0 -5 10 -5q23 0 91 16.5t76 16.5q34 0 37 -19q0 -21 -37 -39t-84 -26t-86 -8q-105 1 -170.5 37.5t-65.5 98.5q0 78 62 149.5t158.5 121t213.5 79t227 29.5q74 0 136.5 -14t111.5 -42.5t77 -76.5t28 -112q0 -85 -91.5 -196.5 t-242.5 -225.5q169 -46 273.5 -115t104.5 -147zM336 92q-52 0 -112.5 -15.5t-99 -34.5t-38.5 -29q0 -6 18 -6q134 0 318 79q-78 6 -86 6z" />
<glyph unicode="R" horiz-adv-x="1071" d="M1279 733q0 -51 -46 -101t-116.5 -87t-149 -63.5t-151.5 -37.5q-25 -9 -25 -18t52 -73t115 -137t115.5 -144t52.5 -92q0 -39 -44 -70t-109 -31q-38 0 -77 12.5t-71.5 30t-68.5 47.5t-61 55t-57 63.5t-49 61t-44.5 60t-36.5 49.5q-167 -206 -190 -228q-2 -2 -13 -12 t-18.5 -14.5t-15.5 -4.5q-21 0 -42 36q7 18 81.5 126.5t114.5 149.5q2 4 6.5 10t6.5 8.5t4 6.5t2 7q0 10 -18 21q-29 23 -29 49q0 27 41 35l114 21q132 172 155 195q32 32 61 32q11 0 18 -7.5t7 -18.5q0 -18 -30 -59l-80 -114q6 0 78.5 18t164.5 45t166 66t74 72 q0 22 -23 36.5t-62 21t-93 6.5q-133 0 -316 -33t-316.5 -79.5t-133.5 -82.5q0 -3 7 -3q14 0 90.5 10.5t99.5 10.5q13 0 25 -7.5t12 -17.5q0 -13 -27 -24q-121 -48 -219 -48q-39 0 -76.5 9.5t-70.5 28t-53 51.5t-20 75q0 82 69 154t179.5 119t246 73.5t270.5 26.5 q107 0 199.5 -17t166 -51.5t116 -92t42.5 -131.5z" />
<glyph unicode="S" horiz-adv-x="937" d="M150 638q0 73 85 148t211.5 129t273 88t266.5 34q78 0 134 -14.5t90 -47t34 -81.5q0 -28 -46 -100t-106.5 -134t-93.5 -62q-5 0 -10.5 2.5t-9.5 6.5t-6.5 9.5t-2.5 9.5q0 19 35.5 57t35.5 56q0 13 -33 13q-56 0 -170.5 -31.5t-210 -73.5t-95.5 -68q0 -10 13 -15 t40.5 -6.5t59.5 -2t83.5 -4t99.5 -10.5q50 -7 88.5 -23.5t59 -35.5t33 -43t16 -41.5t3.5 -36.5q-1 -78 -86.5 -160t-212 -142.5t-277.5 -99t-278 -38.5q-68 0 -122.5 11.5t-96.5 35t-65 63.5t-23 93q0 27 12.5 51t27.5 39t40 30t37 20.5t31 13.5q13 -12 32 -20t47.5 -12 t42.5 -5.5t49.5 -3t37.5 -1.5q96 6 180 25t139 42.5t95.5 50.5t60 49t22.5 38q-2 16 -16.5 21.5t-46.5 5.5q-39 0 -95 1t-120 2.5t-89 2.5q-58 0 -104.5 21t-72.5 58.5t-26 84.5z" />
<glyph unicode="T" horiz-adv-x="273" d="M1151 913q0 -30 -151.5 -91.5t-313 -109.5t-202.5 -50q7 -1 15.5 -4t18 -11.5t9.5 -20.5q0 -18 -24 -46q-55 -65 -203 -246q-4 -4 -34.5 -43.5t-71.5 -93t-82.5 -108t-73.5 -95t-38 -46.5l-9 -9l-9 -9t-8.5 -8t-9.5 -7t-9 -4t-10 -2q-20 0 -37 12.5t-17 33.5 q0 33 28.5 87.5t69.5 109t81.5 104t69.5 80.5l28 31q107 121 250 264l9.5 9t17.5 14q-180 -42 -266 -42t-156.5 54.5t-70.5 122.5q0 31 38 72.5t86.5 74.5t93.5 57t60 24q35 0 35 -26q0 -10 -16.5 -26.5t-35 -30t-29.5 -18.5q-5 -2 -5 -7q0 -9 10 -9t101 25.5t201 56.5 t243 56.5t218 25.5q19 0 51 -11t65.5 -29t58 -48t24.5 -63z" />
<glyph unicode="U" horiz-adv-x="950" d="M815 1028q35 0 63.5 -14.5t45 -40t16.5 -56.5q0 -33 -14 -72.5t-35.5 -74t-48.5 -64.5q-170 -190 -171 -192q-3 -3 -3 -9q0 -14 13 -14q7 0 15 6q5 4 52 39t112 84t142.5 107t144.5 109t117.5 90t61.5 49q24 21 58 21q15 0 27 -5t20 -15.5t8 -25.5q0 -32 -39 -79 q-2 -2 -112.5 -125.5t-207 -233t-196.5 -230.5t-125 -164q-6 -11 -6 -19t9 -8q7 0 17 5q4 2 75 48t94 46q17 0 17 -16q0 -35 -65 -84.5t-148.5 -84.5t-135.5 -35q-49 0 -79.5 28t-36.5 86q4 84 126 244q10 10 10 19q0 4 -4 4q-12 0 -60.5 -33.5t-113 -82t-133 -96.5 t-133 -82t-101.5 -34t-64 26.5t-38.5 62t-11.5 71.5q0 45 30 103t80.5 117.5t110.5 120t126 118t120.5 103.5t100.5 84.5t61 53.5q6 4 6 10q0 4 -7 4q-17 0 -80 -34.5t-74 -34.5q-26 0 -31 20q0 42 76.5 85.5t169 69t149.5 25.5z" />
<glyph unicode="V" horiz-adv-x="630" d="M-14 183q0 104 47 216.5t123 207.5t170.5 182t189 147.5t180 96t142.5 35.5q25 0 56.5 -20.5t31.5 -46.5q0 -22 -38.5 -78t-96 -125t-124.5 -154t-124 -163t-95.5 -154.5t-38.5 -126.5q0 -23 23 -23q28 0 75.5 36.5t103 96t124 135.5t138.5 155.5t147.5 155.5t149 135.5 t145.5 96t135 36.5q28 0 58 -15t30 -38q0 -13 -15.5 -23.5t-54 -29.5t-92 -48t-140 -92t-187.5 -148t-245 -228t-303 -321q-34 -39 -74.5 -66t-73.5 -41t-72.5 -21.5t-62 -9t-51.5 -1.5h-1q-26 0 -52.5 15t-48.5 40t-40 56t-28.5 65t-10.5 65z" />
<glyph unicode="W" horiz-adv-x="973" d="M-62 177q0 57 29 135t78 159t111 164.5t130.5 156.5t133 130.5t123 91t96.5 33.5q29 -7 55.5 -44.5t26.5 -70.5q0 -83 -240 -418q-13 -19 -13 -24t4 -5l9 3q63 46 137.5 116.5t177 174.5t164.5 164q40 36 61 39q51 0 94 -42.5t43 -101.5q0 -28 -35 -97t-73.5 -131 t-79.5 -125l-41 -63q-7 -11 -7 -17q0 -5 2 -5q6 0 16 10q56 56 186 172.5t240 212.5t116 102q14 14 33 29.5t55.5 35t66.5 19.5q31 0 63 -31t32 -56q0 -18 -17 -31.5t-50 -28.5q-69 -32 -317 -226q-51 -41 -186.5 -163t-253 -227t-233.5 -191.5t-157 -86.5q-37 0 -65 31.5 t-39.5 67.5t-11.5 65q0 37 31 107.5t65 131.5q15 23 15 34q0 3 -2 3q-6 0 -21 -16q-8 -6 -66.5 -64t-122.5 -122t-126 -118.5t-80 -56.5q-48 9 -102.5 65t-54.5 109z" />
<glyph unicode="X" horiz-adv-x="871" d="M845 3q-15 0 -31 9.5t-32 29t-28.5 37t-27.5 45t-21.5 40t-17.5 33.5q-29 48 -87 150q-47 -41 -112.5 -101.5t-108 -100t-96.5 -84.5t-92.5 -71t-79 -44t-72.5 -18q-48 0 -96 55.5t-48 100.5q0 53 29 114.5t77 120.5t116.5 121.5t141 117.5t156.5 110l-163 278 q-7 22 -7 35q0 20 14.5 38t40.5 18q35 0 64 -64q5 -12 141 -247q160 99 304.5 169t176.5 70q4 0 9.5 -0.5t21.5 -3t30.5 -6.5t32 -12.5t30.5 -19.5t21.5 -28t8.5 -38q0 -28 -22.5 -62t-72 -78.5t-97.5 -83.5t-129.5 -104t-137.5 -111q111 -193 114 -198q1 -1 20.5 -30 t31.5 -49t24.5 -49t12.5 -49q0 -18 -9.5 -28t-19.5 -11z" />
<glyph unicode="Y" horiz-adv-x="783" d="M770 696q-63 -77 -147 -166t-145.5 -151t-71.5 -75l-1 -10q0 -13 8 -13q9 0 25 10q19 10 103.5 68t209 148t269.5 211.5t247 229.5q22 21 48 21q17 0 30 -11t13 -39q0 -16 -16 -42t-34 -47.5t-47 -53.5t-38 -43q-6 -6 -75 -84t-145 -164t-179 -204.5t-189.5 -219 t-164 -194.5t-113.5 -143q-43 -59 -87.5 -131t-64 -97.5t-38.5 -25.5q-32 0 -56.5 41.5t-24.5 73.5q0 17 4.5 34.5t11 33t17 33.5t20.5 33t24 33q43 59 253.5 293t257.5 279q9 11 9 16q0 3 -3 3q-8 0 -41 -22q-6 -4 -57.5 -38.5t-89.5 -59t-101 -62t-110.5 -61.5t-98 -42 t-83.5 -18q-43 0 -75 26t-45.5 59.5t-13.5 67.5q0 49 21 92q16 37 92 114.5t160 152.5t163.5 155t101.5 120q2 5 2 7q0 4 -5 4q-11 0 -20 -7q-2 -1 -30.5 -18.5t-57.5 -34.5t-57.5 -31.5t-36.5 -14.5q-13 0 -23.5 10.5t-10.5 26.5q0 27 39 65t96.5 70.5t130 56t131.5 23.5 q28 0 52 -5.5t45 -18t35 -31t22.5 -46t8.5 -62.5q0 -29 -13.5 -60.5t-26.5 -48.5z" />
<glyph unicode="Z" horiz-adv-x="852" d="M148 720q0 41 66.5 115t151.5 131.5t134 57.5q30 0 30 -23q0 -19 -17 -36q-3 -3 -14.5 -11.5t-23 -16t-20.5 -15.5t-9 -12q0 -10 25 -10q54 0 203 31t223 31q41 0 81 -7.5t77.5 -22.5t61 -44t23.5 -67q0 -18 -9.5 -34.5t-22.5 -28.5t-35.5 -26t-39.5 -22t-44 -20 q-64 -29 -345.5 -174t-361.5 -188q-31 -17 -31 -26q0 -5 17 -5q22 0 55 8l2 1t3 1q101 21 170 21q67 0 128 -19.5t104 -50t75 -66t47.5 -68.5t15.5 -56q0 -21 -19.5 -29.5t-44.5 -8.5q-18 0 -51.5 3.5t-55.5 3.5q-102 0 -315.5 -31.5t-295.5 -31.5q-69 0 -128 45t-59 112 q0 40 64 97.5t160.5 113t208.5 113.5t208 102.5t160.5 76t64.5 37.5q0 4 -9 4q-5 0 -89 -21.5t-192 -43t-170 -21.5q-48 0 -84.5 18t-54.5 47.5t-18 65.5z" />
<glyph unicode="[" horiz-adv-x="614" d="M481 981l-226 -1089q2 -6 4 -6q13 0 69.5 31t67.5 31q19 -8 19 -21q0 -24 -41.5 -54.5t-102 -51.5t-110.5 -21q-37 0 -56.5 19.5t-19.5 75.5q0 48 14.5 126.5t36.5 163t47.5 190.5t47.5 206.5t36.5 215t14.5 212.5q0 50 25.5 78.5t62.5 28.5q49 0 112 -18.5t108 -46 t45 -50.5q0 -26 -23 -26l-130 6h-1z" />
<glyph unicode="\" horiz-adv-x="538" d="M477 -192q0 -18 -11.5 -35.5t-34.5 -17.5q-18 0 -30 17.5t-14 30.5q-32 198 -108 722.5t-76 623.5q0 13 4.5 20.5t11.5 10t17 2.5q48 0 55 -80z" />
<glyph unicode="]" horiz-adv-x="614" d="M204 -65l227 1089q-2 6 -5 6q-12 0 -68.5 -31t-68.5 -31q-18 8 -18 21q0 24 41.5 54t102 51.5t109.5 21.5q37 0 62 -26t25 -82q0 -35 -21.5 -125.5t-52 -207t-61 -245t-52 -270.5t-21.5 -254q0 -49 -25 -77.5t-63 -28.5q-48 0 -111 18.5t-108.5 46t-45.5 50.5q0 26 23 26 l130 -6h1z" />
<glyph unicode="^" d="M478 353q-18 0 -33.5 19.5t-26 51.5t-18.5 62.5t-14.5 62t-9.5 40.5q-80 -23 -268 -122q-16 -6 -27 -6q-16 0 -16 13q0 22 32.5 62.5t82.5 81.5t119.5 71.5t132.5 30.5q11 0 24.5 -35t25 -83t19 -99t7.5 -81q0 -69 -30 -69z" />
<glyph unicode="_" horiz-adv-x="794" d="M739 -114l-679 -1q-21 0 -37 12t-16 38q0 12 7 26q22 23 418 23q60 0 126 -0.5t111.5 -0.5h56.5q18 0 35 -10t17 -32q0 -25 -14.5 -40t-24.5 -15z" />
<glyph unicode="`" d="M150 729q44 0 104.5 -44t103 -102.5t42.5 -98.5q0 -3 -1 -5t-2 -3t-3 -2.5t-3 -2t-3.5 -2t-3.5 -1.5q-87 72 -131 86q-6 2 -17.5 5t-40 13.5t-50.5 22.5t-40.5 30.5t-18.5 38.5q0 1 0.5 3.5t2 9t3.5 13t7 14t11 12.5t16.5 9t23.5 4z" />
<glyph unicode="a" d="M143 -12q-17 0 -31.5 6.5t-23 16t-15.5 21t-10 23.5t-5 21.5t-3 15.5v6q0 38 22.5 86.5t65.5 97t98 89t127 66t145 25.5q48 0 91 -26t43 -59q0 -14 -15 -24.5t-28.5 -14t-24.5 -4.5q-20 -4 -65.5 -27t-94.5 -52t-85.5 -61t-36.5 -51q0 -6 4.5 -11t10.5 -5q24 0 80.5 41 t111 82t73.5 41q10 0 16 -8t6 -18q0 -5 -2 -11t-5 -12t-8 -13t-10 -13t-12 -14t-12.5 -14t-13.5 -14.5t-13 -13.5q-12 -12 -22 -25t-17.5 -24.5t-13 -21.5t-8.5 -18t-3 -13q0 -4 2.5 -6.5t5.5 -3.5h2q8 0 36.5 18t60.5 41t40 27q9 4 16 4q9 0 14.5 -6t5.5 -14t-30 -32.5 t-69.5 -51t-81.5 -47t-64 -20.5q-17 0 -36.5 14.5t-19.5 32.5q0 21 10 44t10 31q0 7 -4 7t-9 -2q-20 -16 -48.5 -35t-79 -45t-77.5 -26z" />
<glyph unicode="b" horiz-adv-x="506" d="M488 393l61 6q20 0 20 -23q0 -12 -4 -27.5t-11.5 -38t-9.5 -29.5q35 -16 69 -16q51 0 75 39q2 0 4.5 -0.5t6.5 -4t4 -10.5q-2 -28 -36.5 -45.5t-81.5 -17.5q-25 0 -57 7q0 -42 -61.5 -102.5t-149.5 -105.5t-156 -45q-113 0 -113 132q0 49 54 136.5t137.5 184t185 198 t194 181.5t166.5 131.5t102 51.5q15 0 22.5 -36t7.5 -72q0 -20 -67 -92.5t-147.5 -150t-147.5 -152.5t-67 -99zM431 317v16q-12 0 -61 -60t-93 -123t-44 -71q0 -6 6 -6q33 0 73 18t73 44.5t55 60t22 62.5q-3 2 -8 6.5t-7.5 7t-6.5 7t-5.5 9t-2.5 12t-1 17.5z" />
<glyph unicode="c" horiz-adv-x="475" d="M618 228q-1 -11 -59 -51.5t-135 -85t-162.5 -80t-131.5 -35.5q-45 0 -82.5 32.5t-37.5 73.5q0 52 30 109t79 104.5t106 86.5t115.5 61t104.5 22q31 0 53.5 -3.5t42.5 -12t30.5 -27t10.5 -45.5q0 -29 -30 -71t-71 -72.5t-69 -30.5q-29 0 -29 17q0 12 14 20q10 5 30 21.5 t37.5 35.5t17.5 27q0 4 -8 4q-33 0 -90 -45t-101 -100.5t-44 -84.5q0 -23 26 -23q24 0 80.5 29.5t139 80t97.5 58.5q8 5 16 5q9 0 14.5 -6t5.5 -14z" />
<glyph unicode="d" horiz-adv-x="648" d="M332.5 104q-7.5 0 -29 -12t-45 -26.5t-53.5 -26.5t-52 -12q-44 0 -67 28.5t-23 61.5q0 57 32 115.5t82.5 104t110 81.5t117.5 55t102 19q28 0 50 -5.5t34 -11.5t15 -6h3q3 0 3 2q53 65 130.5 149.5t161 168.5t155 141.5t100.5 57.5q24 -3 43 -37.5t21 -74.5 q-7 -26 -117 -141.5t-234.5 -242.5t-151.5 -168q-26 -38 -147 -203.5t-140 -183.5q-10 -9 -24 -9q-32 0 -59 28.5t-27 62.5q0 20 8.5 49.5l8.5 29.5q0 6 -7.5 6zM481 338q-20 0 -66.5 -34.5t-84.5 -74.5t-38 -55q0 -13 12 -13q20 0 54 24t64 53.5t51.5 56.5t21.5 33 q0 5 -4 7.5t-10 2.5z" />
<glyph unicode="e" horiz-adv-x="515" d="M281 68q30 0 85.5 25t106 55.5t95.5 55.5t56 25q9 0 14.5 -6t5.5 -14q-1 -11 -58 -48.5t-132.5 -78.5t-161 -73.5t-134.5 -32.5q-54 0 -76.5 30t-22.5 75q0 24 25.5 52t56.5 48t56.5 37t25.5 22q0 7 -12.5 14t-27.5 13.5t-27.5 21.5t-12.5 36q0 54 66.5 108t156 86.5 t161.5 32.5q41 0 73.5 -10t53 -32t20.5 -54q0 -18 -10.5 -36t-27 -32t-36 -26.5t-37.5 -20.5t-32 -12.5t-20 -4.5q-11 0 -20.5 5.5t-9.5 13.5q0 6 20 14t39.5 18.5t19.5 21.5q0 8 -16 8q-14 0 -76.5 -21.5t-121 -48.5t-58.5 -40q0 -16 42 -16q8 0 32.5 4t37.5 4q49 0 49 -49 q0 -21 -30 -45.5t-65.5 -43t-65.5 -38t-30 -30.5q0 -10 23 -13z" />
<glyph unicode="f" horiz-adv-x="370" d="M279 135q-8 0 -84.5 -85.5t-150.5 -178.5t-74 -109q0 -13 24 -13q12 0 44.5 19.5t75 55.5t82 80.5t66.5 102.5t27 114q0 14 -10 14zM648 356q0 -15 -75 -63.5t-151 -88.5l-75 -41q12 -29 12 -71q0 -58 -33 -120.5t-85.5 -116t-118.5 -102.5t-131 -83t-124.5 -54.5 t-98.5 -20.5q-33 0 -51.5 25.5t-18.5 62.5t17 74q21 48 155.5 207t326.5 366q19 20 145.5 166.5t245 285.5t125.5 147q10 11 28.5 29t49.5 40t50 22q27 0 27 -45q0 -38 -18 -96.5t-38 -98.5q-19 -36 -221 -274.5t-204 -240.5q-7 -9 -7 -16q0 -6 6 -6q18 0 75.5 33.5 t109.5 66.5t57 33q9 0 14.5 -6t5.5 -14z" />
<glyph unicode="g" horiz-adv-x="512" d="M302 86q-9 -6 -25 -14.5t-52 -23.5t-58 -15q-30 0 -53.5 12t-35.5 30.5t-17.5 36.5t-5.5 33q0 23 18.5 62.5t58 86.5t91.5 89t127.5 70t157.5 28q20 0 48 -10t52 -31t24 -45.5t-40 -34.5q-68 -18 -140 -51.5t-126.5 -77t-54.5 -80.5q0 -14 13 -14q21 0 57 20t72.5 49 t71 57.5t60.5 49.5t32 23q21 0 21 -28q0 -41 -29.5 -118t-78.5 -168.5t-117 -186.5t-140.5 -172.5t-153.5 -127t-151 -49.5q-15 0 -37.5 32.5t-22.5 62.5q0 10 1 14q6 24 36.5 55t74 64.5t95 71t101.5 77.5t91 79.5t66.5 82.5t25.5 82q0 2 -5 2q-16 0 -52 -23z" />
<glyph unicode="h" horiz-adv-x="702" d="M498 -43q-54 0 -82.5 29t-28.5 74q0 37 33 90.5t67 91.5q8 9 8 14t-4 5q-1 0 -14 -5q-23 -9 -103.5 -68t-144.5 -116q-89 -78 -122 -78q-32 0 -47 27.5t-15 62.5q0 65 67 179t167 232t205.5 226t191 176.5t115.5 68.5q24 0 46.5 -21t22.5 -49q0 -33 -55.5 -118.5 t-124 -171t-139 -175.5t-89.5 -121q-6 -8 -6 -13q0 -6 8 -6q4 0 10 3q80 44 130.5 65.5t70 24.5t49.5 3q13 0 29.5 -3.5t32 -14.5t15.5 -26q0 -19 -52.5 -81.5t-104.5 -123.5t-52 -76q0 -16 14 -16q17 0 50.5 19.5t67.5 43.5t36 25q9 4 16 4q9 0 14.5 -6t5.5 -14 q0 -11 -51 -50t-122 -75t-115 -36z" />
<glyph unicode="i" horiz-adv-x="328" d="M88 -37q18 0 46 18t59 47.5t64 66t63 74.5t53.5 71.5t37.5 59.5t14 36q0 9 -2 18.5t-7.5 24t-19.5 24t-36 9.5q-49 -9 -110 -50t-112.5 -95.5t-86.5 -118t-35 -112.5q0 -32 21.5 -52.5t50.5 -20.5zM451 458q-25 0 -39 17t-17 34l-2 17q4 36 24 65.5t46 44.5t49 23t38 8 q32 0 45.5 -17.5t13.5 -41.5q0 -16 -10.5 -39t-29.5 -46.5t-50.5 -42t-67.5 -22.5z" />
<glyph unicode="j" horiz-adv-x="370" d="M418 471q24 0 43 -27.5t19 -47.5q0 -10 -22 -57.5t-61.5 -119.5t-90.5 -155.5t-113 -166.5t-125 -150.5t-131.5 -109.5t-126.5 -42q-22 0 -43.5 4t-47 14.5t-41 34t-15.5 57.5q0 32 29 92.5t78 103.5q14 11 28 11q6 0 11.5 -2.5t8.5 -7t3 -10.5q0 -7 -38 -73.5t-38 -86.5 q0 -4 3 -4q11 0 89 84t165.5 187.5t159 194.5t71.5 104q0 12 -11 12q-8 0 -32 -11.5t-34.5 -11.5t-22 8.5t-11.5 19.5q0 18 74 56.5t148 69.5zM616 747q29 0 42 -18t13 -46q0 -58 -55 -112.5t-109 -54.5q-36 0 -50.5 23.5t-14.5 53.5q0 7 7.5 23.5t23 39t35 43t48.5 34.5 t60 14z" />
<glyph unicode="k" horiz-adv-x="636" d="M897 831l-353 -402q0 -9 9 -9q8 0 56.5 18t80.5 18q29 0 44.5 -15t15.5 -44q0 -90 -252 -195q0 -10 28.5 -46t63 -75t63 -78t28.5 -55q0 -23 -20 -40t-72 -17q-65 0 -128.5 40t-102 101.5t-38.5 120.5q0 14 -6 14q-4 0 -16 -11q-4 -4 -30 -32.5t-46.5 -49.5t-46 -40.5 t-40.5 -19.5q-35 0 -65 27.5t-30 67.5q0 43 49 125t125.5 175t171.5 191.5t185.5 177t170 129.5t122.5 51q14 0 25 -17t16 -36t5 -32q0 -21 -13 -42zM616 377q-24 0 -65 -20t-76.5 -46t-62 -48t-26.5 -27q0 -6 14 -6q28 0 83.5 19t104 50.5t48.5 59.5q0 18 -20 18z" />
<glyph unicode="l" horiz-adv-x="475" d="M373 307q-5 -6 -12.5 -16.5t-26.5 -39.5t-33.5 -54t-26.5 -52t-12 -43q0 -18 19 -18q30 0 85.5 25t106 55t95.5 55.5t56 25.5q8 0 14 -5.5t6 -11.5v-3q-1 -4 -33 -28.5t-85.5 -58t-114 -66t-127 -55.5t-116.5 -23q-125 0 -125 146q0 66 40 147.5t105 160t149.5 153.5 t171 131t173 90.5t152.5 34.5q30 0 53.5 -11.5t34.5 -28t16 -31t5 -24.5q0 -46 -47 -106t-118 -115t-150.5 -105t-148 -84t-106.5 -45zM828 742q-24 0 -110.5 -75.5t-161.5 -150.5l-75 -75q-12 -12 -12 -18q0 -7 13 -7q38 0 124 67.5t157 145.5t71 107q0 6 -6 6z" />
<glyph unicode="m" horiz-adv-x="895" d="M19 82q0 24 10.5 51t28 52.5t41 51.5t49 49t51 44.5t48.5 38.5t41 29.5t28 19.5l11 7q23 10 47 10q17 0 31.5 -6.5t25 -21t10.5 -34.5q0 -15 -7.5 -32t-15.5 -28t-17 -22.5t-11 -14.5q-4 -6 -4 -10q0 -5 4 -5q8 0 42.5 26.5t74.5 58.5t89.5 59t83.5 27q28 0 47 -16.5 t19 -43.5q0 -13 -9 -28t-24.5 -34t-21.5 -28q-4 -6 -4 -10q0 -6 9 -6q13 0 53 33.5t85.5 66.5t71.5 33q29 0 47.5 -25.5t18.5 -50.5q0 -21 -36.5 -70.5t-73.5 -96t-37 -60.5q0 -11 10 -11q9 1 20.5 8.5t21.5 7.5q19 0 19 -16q0 -48 -54 -83t-115 -35q-47 0 -77.5 25 t-30.5 76q0 19 12.5 49.5t25.5 43.5q4 9 4 12q0 4 -4 4q-7 0 -13 -4q-6 -3 -30 -23.5t-55 -47t-64.5 -53t-66 -44.5t-52.5 -18q-30 0 -46 22.5t-16 46.5q0 22 15 52t28 46q4 7 4 13q0 7 -5 7q-6 0 -13 -6q-36 -29 -77.5 -60t-99.5 -66t-82 -35q-28 0 -46.5 23t-18.5 52z" />
<glyph unicode="n" horiz-adv-x="656" d="M29 101q0 37 79.5 126t173 163.5t130.5 74.5q22 -2 37.5 -24t15.5 -62q0 -28 -34 -73.5t-55 -66.5q-3 -3 -3 -7q0 -6 6 -6q3 0 8 3q10 7 139 91t142 92q19 11 36 11q20 0 50.5 -18t30.5 -42q0 -28 -33 -72t-73 -81.5t-73 -76t-33 -57.5q0 -11 16 -11q6 0 24 8.5t21 8.5 q20 0 20 -16q0 -37 -61 -71t-125 -34q-47 0 -77.5 23.5t-30.5 73.5q0 48 56 121l2 1q5 8 5 12t-4 4q-6 0 -13 -4q-3 -2 -59.5 -38t-118.5 -74.5t-80 -47.5q-23 -13 -43 -13q-24 0 -50 27.5t-26 54.5z" />
<glyph unicode="o" horiz-adv-x="480" d="M487 341q0 -39 46 -39q24 0 59 11t61 22t28 11q4 0 7 -2.5t5.5 -5.5t3.5 -7t1 -7q0 -16 -66.5 -41t-114.5 -25q-13 0 -25 1q-13 0 -20 -16q-20 -37 -37.5 -66t-41.5 -63t-48.5 -58t-52.5 -45t-61 -32t-68 -11q-50 0 -82.5 34.5t-32.5 106.5q0 64 26 123t67.5 102.5t91 77 t99 50t88.5 16.5q117 -13 117 -70q0 -16 -11 -35q-4 -5 -9.5 -7.5t-12 -4t-9.5 -2.5q-8 -9 -8 -18zM235 94q0 -28 18 -28q17 0 61 40t83 98t39 97q0 9 -8.5 9t-39 -22t-65 -52.5t-61.5 -70.5t-27 -71z" />
<glyph unicode="p" horiz-adv-x="591" d="M-262 -423q0 50 36.5 132t94.5 174t128.5 191t141 188.5t129 161.5t94.5 114l37 42q22 20 47 20q17 0 27.5 -15.5t10.5 -30.5q-1 -10 -17 -51.5t-39 -95.5t-23 -56q-5 -8 -5 -13q0 -7 8 -7q9 0 34.5 20t53 43.5t63.5 43.5t63 20q21 0 37 -4t32 -14.5t24.5 -32t8.5 -53.5 q-5 -39 -42 -100t-88.5 -119.5t-117.5 -101t-122 -42.5q-25 0 -45 10t-29.5 22t-18 22t-12.5 10q-2 0 -3.5 -1t-2.5 -2.5t-2.5 -4t-2.5 -4.5q-2 -2 -277 -456q-6 -10 -13 -20t-18.5 -24t-23.5 -25.5t-26 -22t-29.5 -16.5t-30.5 -6q-37 0 -59.5 32.5t-22.5 71.5zM553 360 q-23 0 -89 -55.5t-122.5 -117.5t-56.5 -80q0 -3 6 -3q18 0 46.5 14.5t58.5 37.5t60.5 51.5t54 56t38.5 51t15 36.5q0 9 -11 9z" />
<glyph unicode="q" horiz-adv-x="542" d="M492 418q62 0 99.5 -35.5t37.5 -62.5q0 -26 -124 -49q-32 -6 -90 -35.5t-106 -66.5t-48 -60q0 -14 14 -14q52 0 242 124q8 5 17 12.5t14.5 11.5t11 7t9.5 3q10 0 17 -11t7 -17q0 -15 -21 -39q-6 -7 -158.5 -187.5t-171.5 -201.5q-5 -6 -41.5 -52.5t-72 -93.5t-39.5 -53 q-1 -3 -1 -6q0 -4 6 -4q8 0 48 25.5t51 26.5q22 -2 22 -19q0 -25 -48.5 -65t-107 -70t-88.5 -30q-39 0 -66 27.5t-30 64.5q0 35 45 99.5t86 109.5q39 43 97 95.5t103 89.5t87 69.5t45 36.5q15 10 15 15t-6 5q-7 0 -43.5 -21t-80 -42t-67.5 -21q-44 0 -81.5 33t-37.5 72 q0 53 33.5 105t86 91t113.5 69.5t120 47t102 16.5z" />
<glyph unicode="r" horiz-adv-x="424" d="M348 537q11 0 19.5 -9.5t8.5 -20.5q0 -13 -15 -32q-13 -16 -47 -55t-40 -46q-5 -4 -5 -9.5t9 -5.5q10 0 78 25t85 25q26 0 49 -18t23 -47q0 -19 -27.5 -55.5t-60.5 -71.5t-60.5 -72.5t-27.5 -58.5q0 -5 4 -5q8 0 27 9t22 9q16 0 16 -11q0 -29 -35 -61.5t-80.5 -52.5 t-78.5 -20q-43 0 -73.5 26.5t-30.5 65.5q0 51 44 106t107 88q30 13 30 28q0 4 -1 6q-64 -26 -104 -26q-79 0 -79 46q0 22 18.5 52.5t47 60.5t61.5 57.5t64.5 47t51.5 25.5z" />
<glyph unicode="s" horiz-adv-x="462" d="M297 212q-27 0 -53.5 5.5t-51.5 18t-40 35t-15 52.5q0 48 51 90.5t124 66t143 23.5t113 -25t43 -78q-1 -33 -42.5 -64t-83 -46.5t-57.5 -15.5t-16 10q0 9 13 17q5 3 37 17.5t48 24.5q13 9 13 14q0 6 -13 6q-30 0 -90 -16t-110.5 -37.5t-50.5 -35.5q0 -13 58 -13 q142 0 142 -114q0 -39 -35 -72.5t-84.5 -53t-94.5 -30.5t-72 -11q-38 0 -84 35t-46 67q0 36 91 52q40 5 106.5 26t66.5 40q0 2 -1.5 5t-4 5t-4.5 2z" />
<glyph unicode="t" horiz-adv-x="383" d="M125 580q0 5 10.5 11t38 14t69 16t112.5 15.5t159 11.5q38 33 77 67t67.5 58t52 43.5t36.5 29.5l12 9q21 0 21 -31l3 -71q-4 -15 -60 -99h70q160 0 186 -32q25 -30 25 -49q0 -24 -44 -24q-54 -3 -312 -3q-62 -64 -117 -125.5t-94.5 -109t-74 -92t-58 -77t-43.5 -61 t-33.5 -47.5t-25 -32.5t-21 -19.5t-18.5 -6q-31 0 -57 14t-41.5 39.5t-15.5 55.5q0 127 353 459h-222q-26 0 -40.5 7.5t-14.5 28.5z" />
<glyph unicode="u" horiz-adv-x="652" d="M778 197q0 -17 -39.5 -54t-93.5 -74.5t-118 -66t-107 -28.5q-70 0 -70 76q0 20 14.5 42t14.5 25q0 8 -15 8q-5 0 -11 -3q-1 0 -47 -28t-97.5 -54t-76.5 -26q-30 0 -56.5 24t-26.5 54q0 49 29 100.5t71 91t86.5 71.5t78 48.5t43.5 16.5q14 0 31 -10.5t30 -28.5t13 -34 q0 -20 -16 -33q-18 -16 -39.5 -37t-44.5 -50t-23 -43q0 -18 17 -18q30 0 86.5 43t95.5 81.5t65 68.5q38 40 73 40q24 0 51.5 -20.5t27.5 -41.5q0 -13 -8 -27q-6 -10 -56.5 -74.5t-53.5 -68.5t-8.5 -12.5t-10.5 -18.5t-5 -15q0 -7 5.5 -7t8.5 1q8 0 38.5 21.5t64.5 46.5 t43 30q8 4 15 4q5 0 9 -1.5t6.5 -4.5t4 -6.5t1.5 -7.5z" />
<glyph unicode="v" horiz-adv-x="432" d="M-3 16q0 19 26 86.5t63.5 144.5t87 137.5t88.5 60.5q23 0 44 -16.5t31.5 -35t10.5 -30.5q-1 -20 -43.5 -93.5t-42.5 -95.5q0 -7 7 -7q6 0 25 16q4 3 25.5 24.5t50 49t65 61.5t73.5 66t72 59t64.5 43.5t46.5 16.5t32.5 -21.5t15.5 -35.5q0 -5 -7 -7q-40 -8 -101.5 -46.5 t-138.5 -102.5t-135 -116t-136 -124.5t-97 -89.5q-26 -22 -48 -22q-31 0 -55 29t-24 49z" />
<glyph unicode="w" horiz-adv-x="792" d="M37 104q0 39 50 111t116 138.5t136 116.5t107 50q12 -1 20.5 -7.5t8.5 -15.5q0 -5 -3.5 -17t-3.5 -16q0 -3 8 -20t8 -29q-1 -10 -16.5 -30t-34 -39t-34 -38.5t-15.5 -28.5q0 -4 5 -4q1 0 7 3q14 8 70.5 47.5t93.5 67.5q37 27 75 27q46 0 46 -40q0 -17 -6.5 -40 t-16.5 -43.5t-23 -43t-23 -38.5t-19.5 -30t-10.5 -17q-9 -12 -9 -21q0 -4 4 -4q5 0 21 8q7 5 43 37t85 75.5t99.5 88.5t93 81.5t57.5 47.5q2 1 7.5 5.5t10 7.5l10.5 7t12 7t12.5 6t13 4.5t12.5 1.5q13 0 25.5 -8t12.5 -20q0 -16 -35 -37q-36 -23 -113 -87.5t-149.5 -128.5 t-141 -124.5t-83.5 -72.5q-89 -75 -155 -75q-38 0 -58.5 22t-20.5 56q0 27 11 55.5t24.5 48t25 37.5t11.5 26q0 5 -5 5l-8 -2q-6 -3 -32.5 -21.5t-59 -41t-72 -49.5t-65.5 -44q-49 -30 -68 -30t-40 27.5t-21 47.5z" />
<glyph unicode="x" horiz-adv-x="496" d="M484 -17q-17 4 -59 57t-89 128q-24 -20 -65.5 -58.5t-64.5 -58.5t-53 -44t-53 -34t-42 -10q-25 0 -49.5 28.5t-24.5 51.5q0 64 71.5 140.5t182.5 150.5q-61 111 -61 148q0 8 8 21.5t14 13.5q4 0 5 -6q16 -41 83 -147q84 54 161.5 92t94.5 38q3 0 8.5 -0.5t18.5 -4 t23.5 -8.5t19 -16t8.5 -26q0 -12 -9.5 -27.5t-24 -30.5t-39 -36t-47 -39t-57 -45.5t-60.5 -48.5q120 -188 120 -211q0 -8 -5 -12.5t-10 -5.5h-5z" />
<glyph unicode="y" horiz-adv-x="527" d="M40 131q0 38 30.5 85t75 88.5t92 76.5t85 56t50.5 21q11 0 20 -14.5t13 -35t4 -39.5q0 -11 -2 -18t-4 -9.5t-7.5 -7.5t-6.5 -6q-8 -8 -51.5 -58t-49.5 -58q-4 -7 -4 -18q0 -14 12 -14q8 0 15 6q20 12 118 88.5t126 99.5q39 28 57 28q8 0 21.5 -12t13.5 -20 q0 -33 -59.5 -125.5t-134.5 -189.5t-165.5 -216.5t-130.5 -178.5q-41 -63 -82 -63q-20 0 -40 21t-20 62q0 18 4 42q4 26 27.5 66.5t60.5 87t67 82t68 77.5t42 47q6 8 6 12t-6 4q-5 0 -33 -17.5t-66.5 -34.5t-70.5 -17q-19 0 -35 13t-24 31.5t-12 34t-4 23.5z" />
<glyph unicode="z" horiz-adv-x="473" d="M467 487q20 0 38.5 -6t31.5 -19t13 -30q0 -26 -42 -66q-16 -16 -51.5 -45t-68 -54.5t-59.5 -46.5t-29 -24q-6 -6 -6 -12q0 -8 11 -8q4 0 19.5 3t29 5t26.5 2q41 0 85.5 -27t44.5 -67q0 -20 -16.5 -34t-47.5 -16q-57 -5 -179.5 -40t-144.5 -35t-57.5 25.5t-35.5 46.5 q0 23 51 67t98 74.5t71 42.5q28 15 66 43t38 38q0 7 -6 7q-1 0 -40.5 -11.5t-63.5 -11.5q-35 0 -65 23t-30 59q0 31 38 73t86 71.5t78 29.5q7 0 12 -5.5t5 -12.5q0 -10 -19 -23q-70 -43 -70 -51q0 -7 13 -7t82 21t94 21z" />
<glyph unicode="{" horiz-adv-x="614" d="M341 719q0 101 -50 243q-9 19 -9 47q0 50 25.5 78.5t62.5 28.5q35 0 80 -18.5t81 -44t60.5 -53.5t24.5 -45q0 -26 -23 -26q-9 0 -56 26t-55 26h-1q0 -14 16 -120t16 -173q0 -60 -11.5 -104t-28 -65.5t-37 -35.5t-38 -18t-31.5 -8.5t-17 -11.5q0 -7 14 -19t31 -26.5 t31.5 -44t14.5 -66.5q0 -42 -25.5 -106t-55 -114.5t-64.5 -107t-41 -69.5q2 -6 4 -6q13 0 69.5 31t67.5 31q19 -8 19 -21q0 -24 -41.5 -54.5t-102 -51.5t-110.5 -21q-18 0 -35.5 4t-35.5 14t-29 30.5t-11 49.5q0 33 22 71t53 74.5t61.5 75t52.5 85t22 91.5q0 66 -52 92 q-74 34 -74 72q0 28 15.5 48t38.5 30t49.5 24t49.5 30t38 49t15 79z" />
<glyph unicode="|" horiz-adv-x="286" d="M350 1100h7q14 -3 30.5 -13t27 -20.5t10.5 -15.5l-255 -1219q-4 -34 -37 -43q-31 -8 -45 16q-6 10 -6 22q0 21 29 152.5t99 452.5t140 668z" />
<glyph unicode="}" horiz-adv-x="665" d="M446 596q0 -27 16.5 -54.5t36 -47.5t35.5 -48.5t16 -56.5q0 -52 -99 -52q-9 0 -19 -2t-27 -12t-30 -27t-22.5 -52t-9.5 -83q0 -60 13 -112t26.5 -94.5t13.5 -81.5q0 -50 -30.5 -76.5t-63.5 -26.5q-46 0 -103.5 42.5t-95 96t-37.5 85.5q0 8 4 14t9.5 8.5t12.5 2.5 q10 0 51 -57t50 -57q3 0 4 3q0 15 -12 120.5t-12 174.5q0 63 12.5 108.5t32 67.5t42 35.5t41.5 16.5t32 7.5t13 10.5q0 5 -13.5 16.5t-30 25.5t-30 42t-13.5 62t15.5 79t44 97t49 86.5t53.5 83t34 50.5q-3 3 -22 3q-14 0 -49.5 -2.5t-45.5 -2.5q-5 0 -10 3t-8 8.5t-3 11.5 q3 34 71.5 51.5t157.5 17.5q38 -3 63 -13.5t38.5 -31.5t13.5 -52q-2 -26 -12.5 -49t-19.5 -33l-10 -11q-173 -175 -173 -295z" />
<glyph unicode="~" horiz-adv-x="648" d="M648 243q-1 -2 -2.5 -6t-7.5 -15t-13.5 -21t-20.5 -22t-28.5 -21t-37.5 -15t-47 -6q-37 6 -138.5 46.5t-120.5 44.5q-15 0 -26 -9.5t-19 -9.5q-7 1 -14 5t-11.5 10.5t-4.5 14.5v1q19 38 57.5 63t79.5 25q31 0 141.5 -40t136.5 -40q11 0 18.5 5t10 10.5t6.5 10.5t9 5 q12 -1 22 -12t10 -24z" />
<glyph unicode="&#xa1;" horiz-adv-x="577" d="M346 347q29 0 50.5 -21t21.5 -52q0 -34 -48.5 -148.5t-113.5 -240.5t-140.5 -229.5t-122.5 -111.5q-22 0 -36.5 9t-20 24t-7 24.5t-1.5 18.5q0 43 58.5 164.5t131.5 245t141 220.5t87 97zM402 376q-28 0 -41.5 18t-13.5 45q0 55 55.5 110.5t111.5 55.5q29 0 44 -17.5 t19 -40.5v-1v-6t-1.5 -15.5t-4.5 -23t-9.5 -26.5t-15 -28.5t-22 -26.5t-30 -22.5t-40.5 -15.5t-52 -6z" />
<glyph unicode="&#xa2;" horiz-adv-x="475" d="M802 737q-1 -12 -66.5 -57.5t-163.5 -98t-172 -77.5q-53 -121 -73 -158q-14 -23 -30 -23q-10 0 -18 15t-8 29q0 13 7 28q14 36 39 90h-3q-22 0 -43.5 9t-38.5 23.5t-27.5 34t-10.5 40.5q0 41 19.5 85.5t52 84.5t74 76.5t87 64.5t90.5 46q64 146 66 150q21 49 42 49 q10 0 19.5 -10.5t9.5 -25.5q0 -16 -51 -139q9 2 26 2q31 0 53.5 -3.5t42.5 -12.5t30.5 -27t10.5 -45q0 -29 -30 -71t-70.5 -72.5t-69.5 -30.5t-29 17q0 12 15 20q9 5 29 21.5t38 35.5t18 27q0 4 -9 4q-33 0 -90 -45t-101 -101t-44 -84q0 -23 26 -23q24 0 80.5 29t139 80 t97.5 59q9 4 16 4q6 0 11 -3t7 -7.5t2 -9.5z" />
<glyph unicode="&#xa3;" horiz-adv-x="1130" d="M984 505q-2 -18 -12.5 -30.5t-24 -19t-37 -10t-42.5 -4t-50 -0.5q-27 0 -42 1q-67 -79 -70 -83q66 -8 123.5 -21t118 -37t103 -55.5t70 -79.5t27.5 -107q0 -33 -16.5 -41.5t-55.5 -8.5q-92 0 -196 10.5t-223 22.5t-238 14q-230 -206 -416 -206q-78 0 -128.5 51t-50.5 119 q0 56 21.5 106t70 95.5t122 79t184.5 53t249 19.5q64 0 142 -6q25 28 71 85q-77 12 -108 23q-26 12 -26 68q4 47 32 47q109 -38 178 -49q56 67 113 130q-32 1 -55.5 5.5t-47.5 16t-41 35.5t-25 60q0 16 9.5 29.5t35.5 13.5q207 0 286 3q200 175 376 177q110 -10 110 -95 q0 -46 -14.5 -82t-38.5 -61t-63.5 -43.5t-82 -29.5t-102.5 -17.5t-116.5 -9t-131.5 -2.5q-56 -63 -118 -135q34 2 61 10t36 15l9 8q10 0 16 -16t7 -32zM-24 -60q0 -8 12 -8q146 0 309 120q-55 -4 -104.5 -11t-102 -19.5t-83.5 -33.5t-31 -48zM1356 927q0 6 -8 6 q-88 0 -205 -93q114 7 163.5 27.5t49.5 59.5z" />
<glyph unicode="&#xa4;" horiz-adv-x="895" d="M622 248v1q-79 -65 -176 -65q-85 0 -142 35l-62 -65q-3 -3 -10 -3q-9 0 -17 5t-8 14q0 14 48 91q-46 56 -46 144q0 43 12 88t35.5 88.5t55.5 79.5q-63 89 -63 121q0 8 2.5 12.5t8.5 6.5t10 2.5t12 0.5q16 0 84 -96q91 68 200 68q85 0 135 -57q92 95 121 95q6 0 10.5 -2.5 t7.5 -6.5t5 -9t2 -11q0 -22 -108 -130q17 -47 17 -105q0 -65 -22 -131t-63 -118l79 -111q3 0 3 -11q-7 -18 -20 -18h-3q-6 1 -14 6t-19 14t-21 18t-26.5 24zM422 455q0 -60 27 -92.5t68 -32.5q37 0 70 23.5t54 61t33.5 82t12.5 86.5q0 60 -23.5 98t-70.5 38q-27 0 -57.5 -20 t-55.5 -53.5t-41.5 -84t-16.5 -106.5z" />
<glyph unicode="&#xa5;" horiz-adv-x="783" d="M778 36q-2 -18 -14.5 -30.5t-28.5 -19t-44.5 -10t-51.5 -4.5t-60 -1h-27q-15 -17 -41 -49q39 3 69.5 12.5t42.5 17.5l11 8q11 0 18 -19t8 -37l1 -19q-2 -18 -9.5 -31.5t-23 -22t-31 -13.5t-40.5 -7.5t-44.5 -3t-50.5 -0.5q-26 0 -39 1q-28 -39 -55.5 -82t-43.5 -68.5 t-31.5 -48.5t-27 -32.5t-23.5 -9.5q-32 0 -56.5 41.5t-24.5 73.5q0 62 65 152q-10 2 -20.5 4.5t-20 5t-14.5 3.5q-30 14 -30 82q4 57 38 57q85 -29 136 -42q6 6 20 22.5t22 24.5q-63 13 -69 15q-30 11 -30 67q4 48 37 48q70 -22 144 -37q259 290 310 336q8 11 8 16q0 3 -2 3 q-8 0 -41 -21q-9 -6 -47.5 -32t-72 -48t-83 -53t-94 -55t-90 -46.5t-85.5 -34.5t-68 -12q-33 0 -60 15t-42.5 38.5t-23.5 49t-8 49.5q0 50 20 93q14 30 58.5 75.5t101 94t113 97.5t104.5 97t66 81q2 5 2 7q0 4 -5 4q-11 0 -20 -7q-2 -1 -30.5 -18.5t-57.5 -34.5t-57.5 -31.5 t-36.5 -14.5q-13 0 -23.5 10.5t-10.5 26.5q0 27 39 65t96.5 70.5t130 56t131.5 23.5q28 0 52 -5.5t45 -18t35 -31t22.5 -46t8.5 -62.5q0 -29 -13.5 -60.5t-26.5 -48.5l-14 -16q-63 -77 -128 -142t-108 -103t-53 -51v-10q0 -13 7 -13q9 0 25 10q17 10 36.5 20.5t74.5 43.5 t106.5 66.5t124.5 84.5t139 102t139.5 115.5t133.5 128.5q22 21 48 21q17 0 30 -11t13 -39q0 -16 -16 -42t-34 -47.5t-47 -53.5t-38 -43q-13 -14 -115 -127.5t-238.5 -267.5t-237.5 -272q38 3 67.5 11t40.5 15l10 7q12 0 18.5 -15.5t8.5 -31.5z" />
<glyph unicode="&#xa6;" horiz-adv-x="286" d="M245 605l105 495h7q14 -3 30.5 -13t27 -20.5t10.5 -15.5l-104 -494q-4 -23 -23 -23q-18 0 -35.5 21.5t-17.5 49.5zM82 -173l124 602h7q14 -3 30.5 -13t27 -20.5t10.5 -15.5l-111 -548q0 -2 -1 -5t-4.5 -10.5t-8.5 -13t-14 -10.5t-21 -5q-6 0 -11.5 1.5t-10.5 4.5t-9 7.5 t-6 11t-2 14.5z" />
<glyph unicode="&#xa7;" horiz-adv-x="462" d="M137 323q0 51 55 94.5t136 66.5q15 41 66.5 76.5t118 54.5t129.5 19q70 0 113 -25t43 -78q-1 -33 -42 -64t-82.5 -46.5t-58.5 -15.5q-16 0 -16 10q0 9 13 17q5 3 37 17.5t48 24.5q13 9 13 14q0 6 -13 6q-29 0 -89.5 -16t-111 -37.5t-50.5 -35.5q0 -13 58 -13 q143 0 143 -114q0 -27 -17.5 -51.5t-46.5 -43t-60 -32t-67 -23.5q-8 -35 -45 -64.5t-83.5 -47t-88.5 -27t-66 -9.5q-38 0 -84 35t-46 67q0 36 91 52q23 3 73.5 16.5t77.5 28.5l-40 37q-47 10 -77.5 36.5t-30.5 70.5zM259 274q0 -10 36 -13l26 4q40 5 106.5 26t66.5 40 q0 2 -1.5 5t-3.5 5t-5 2q-31 0 -56 5q-30 -7 -59 -17t-54 -20t-40.5 -20t-15.5 -17z" />
<glyph unicode="&#xa8;" horiz-adv-x="328" d="M112 482q-24 0 -38.5 17t-16.5 34l-2 17q3 37 23 66t46.5 44.5t49.5 23t38 7.5q32 0 45.5 -17.5t13.5 -41.5q0 -12 -6.5 -29t-20 -37t-32 -37t-45 -30t-55.5 -17zM330 471q-25 0 -39 17t-17 34l-2 17q4 36 24 65.5t46 44.5t49 23t38 8q32 0 45.5 -17.5t13.5 -41.5 q0 -16 -10.5 -39t-29.5 -46.5t-50.5 -42t-67.5 -22.5z" />
<glyph unicode="&#xa9;" horiz-adv-x="1104" d="M668 1030q121 0 222.5 -56.5t162 -159t60.5 -228.5q0 -86 -26.5 -170.5t-72 -156t-109.5 -133t-137 -104.5t-156 -67t-166 -24q-131 0 -234 57.5t-159.5 158.5t-56.5 227q0 92 28 179.5t76.5 158.5t114.5 131t140 100.5t155 63.5t158 23zM636 926q-93 0 -188 -42.5 t-170.5 -113.5t-123 -171t-47.5 -207q0 -156 100.5 -256.5t259.5 -100.5q99 0 197 43.5t172 115.5t120 171t46 203.5t-49.5 187t-132.5 126.5t-184 44zM805 660q-33 0 -102.5 -46.5t-138.5 -111t-121.5 -140t-52.5 -127.5q0 -18 20 -18q22 0 72.5 35t96 69.5t53.5 34.5 q10 0 15 -5q7 -3 7 -15q0 -13 -29.5 -43.5t-73.5 -63t-102.5 -57t-108.5 -24.5q-63 0 -100.5 42.5t-37.5 136.5q0 77 27 145.5t72 117.5t102 88t118.5 62.5t119 35.5t106.5 12q160 0 160 -82q0 -36 -27.5 -77.5t-61.5 -68.5t-56 -27q-25 0 -25 13q0 14 13 31q43 44 61 67 q4 4 4 11q0 5 -10 5z" />
<glyph unicode="&#xaa;" d="M179 516q-24 0 -41.5 11t-26 27t-13.5 32t-6 28l-1 11q0 38 22.5 86.5t65.5 97t98 89t127 66t145 25.5q48 0 91 -26t43 -59q0 -14 -15 -24.5t-28.5 -14t-24.5 -4.5q-20 -4 -65.5 -27t-94.5 -52t-85.5 -61t-36.5 -51q0 -6 4.5 -11t10.5 -5q24 0 80.5 41t111 82t73.5 41 q10 0 16 -8t6 -18q0 -7 -3.5 -15.5t-8 -16t-14 -18.5t-15.5 -17.5t-18 -19t-17 -18.5q-14 -15 -26.5 -31t-20.5 -29.5t-12.5 -24.5t-4.5 -17q0 -4 2.5 -6.5t5.5 -3.5h2q8 0 36.5 18t60.5 41t40 27q9 4 16 4q6 0 11 -3t7 -7.5t2 -9.5q0 -11 -48 -47.5t-108.5 -70t-88.5 -33.5 q-11 0 -24 6.5t-22.5 17.5t-9.5 23q0 21 10 44t10 31t-4 8t-9 -3q-20 -15 -48.5 -34.5t-79 -45t-77.5 -25.5zM521 444q-2 -2 -6.5 -5.5t-22 -11t-39 -14t-58 -11.5t-78.5 -5q-78 0 -176 18q-9 0 -17.5 -4.5t-15.5 -16.5t-7 -30q0 -12 3.5 -20.5t13 -14t18.5 -8.5t27 -4.5 t32 -2t40 -0.5h14q39 0 75.5 2.5t75.5 9t68.5 17t50 27.5t24.5 39v7q0 23 -22 28z" />
<glyph unicode="&#xab;" horiz-adv-x="665" d="M265 215q72 -51 92 -76t20 -61q0 -73 -17 -77q-18 0 -66.5 44t-92.5 101.5t-50 88.5v1q1 10 38 47.5t82.5 77t88 71.5t52.5 32q13 0 20 -37t7 -77q0 -25 -3 -33t-36.5 -27t-76 -41t-58.5 -34zM508 196q69 -48 91 -74t22 -57q0 -79 -16 -82q-19 0 -68 43.5t-93.5 100 t-50.5 88.5v1q0 13 59 68.5t124 106t81 54.5q23 0 23 -145q-6 -9 -80 -49.5t-92 -54.5z" />
<glyph unicode="&#xac;" horiz-adv-x="852" d="M717 501q69 0 93.5 -9t24.5 -37q0 -33 -5 -75.5t-9.5 -67t-16 -81t-13.5 -68.5t-6.5 -22t-13.5 -17t-21 -7q-9 2 -13 3.5t-10 5.5t-8 12t-2 20q0 64 25 242q-62 0 -335.5 -0.5t-288.5 -0.5q-13 0 -24.5 4.5t-20 16.5t-8.5 29q0 12 7 26q56 26 645 26z" />
<glyph unicode="&#xad;" horiz-adv-x="872" d="M834 200l-678 -1q-22 0 -38 12t-16 38q0 12 7 26q22 23 418 23q82 0 186.5 -0.5t107.5 -0.5q18 0 35 -10t17 -32q0 -26 -14.5 -40.5t-24.5 -14.5z" />
<glyph unicode="&#xae;" horiz-adv-x="1104" d="M668 1030q121 0 222.5 -56.5t162 -159t60.5 -228.5q0 -86 -26.5 -170.5t-72 -156t-109.5 -133t-137 -104.5t-156 -67t-166 -24q-131 0 -234 57.5t-159.5 158.5t-56.5 227q0 92 28 179.5t76.5 158.5t114.5 131t140 100.5t155 63.5t158 23zM636 926q-93 0 -188 -42.5 t-170.5 -113.5t-123 -171t-47.5 -207q0 -156 100.5 -256.5t259.5 -100.5q99 0 197 43.5t172 115.5t120 171t46 203.5t-49.5 187t-132.5 126.5t-184 44zM864 606q0 51 -38 85t-97 49t-134 15q-94 0 -182.5 -23t-148.5 -67.5t-60 -100.5q0 -40 34.5 -61.5t78.5 -21.5 q16 0 31.5 1.5t28 4.5t23.5 6.5t18.5 7.5t13.5 7t9 5.5t3 3.5q0 5 -7 9t-14 4q-11 0 -50 -5t-48 -5q-2 0 -2 1q0 18 68 42t162 41t163 17q90 0 90 -32q0 -17 -38 -37t-85 -34t-84 -23.5t-40 -9.5q0 2 14.5 21t28 40t13.5 29q0 11 -13 11q-9 0 -32 -22t-46 -49t-33 -44h1 q0 -1 -20 -3.5t-40 -9t-20 -16.5q0 -9 12 -21t12 -15q0 2 -26 -34t-53.5 -76.5t-31.5 -47.5q13 -19 22 -19q2 0 13 10t26.5 26.5t32 34t30.5 35t20 28.5q5 -6 19 -25t22.5 -30.5t25 -31t29.5 -32.5t31 -28.5t34.5 -24.5t36.5 -15t40 -6q22 0 40 7t28 18.5t10 24.5 q0 14 -43 68t-86 104.5t-43 56.5q0 5 15 9q50 8 102.5 28.5t93 53t40.5 66.5z" />
<glyph unicode="&#xaf;" horiz-adv-x="794" d="M655 560l-462 16q-21 0 -37 12.5t-16 37.5q0 12 7 26q10 10 88 10q28 0 122.5 -2t155.5 -2q81 0 104 -0.5t25 -0.5q19 0 35.5 -10t16.5 -32q0 -26 -14.5 -40.5t-24.5 -14.5z" />
<glyph unicode="&#xb0;" d="M465 923q25 0 43 -10t27 -24.5t14 -29t6 -24.5l1 -10q0 -49 -19.5 -91.5t-48.5 -69t-63.5 -46t-64 -27.5t-50.5 -8q-41 0 -69 13t-40 33.5t-12 47.5q0 37 22 80t58.5 80t89 61.5t106.5 24.5zM367 665q42 0 82.5 37t40.5 71q0 19 -16.5 30.5t-50.5 11.5q-30 0 -61 -34.5 t-31 -64.5q0 -8 4.5 -19.5t13.5 -21.5t18 -10z" />
<glyph unicode="&#xb1;" horiz-adv-x="918" d="M492 469l-34 -220q-3 -18 -13 -32t-27 -14q-10 2 -14 3.5t-9.5 6t-8 12t-2.5 20.5q0 69 24 223h-286q-21 0 -37 12.5t-16 37.5q0 12 7 26q19 21 346 23q7 46 16 116q14 100 21.5 122t32.5 22h8q19 -4 29 -21t10 -28l-32 -211q52 0 123.5 1.5t90.5 1.5q69 0 94 -9t25 -37 q0 -18 -8.5 -31t-17 -18.5t-13.5 -5.5h-309zM599 167q47 0 70.5 -3.5t35.5 -13.5t12 -29q0 -25 -14.5 -40t-24.5 -15q-626 -1 -678 -1q-13 0 -24.5 4.5t-20 16.5t-8.5 29q0 12 7 26q56 26 645 26z" />
<glyph unicode="&#xb2;" horiz-adv-x="668" d="M711 899q0 -23 -16.5 -48t-43.5 -45q-104 -73 -176.5 -117t-185.5 -104q-18 -11 -18 -16q0 -3 10 -3q13 0 33 4l1.5 1t2.5 1q69 13 101 13q50 0 94 -19t71 -46t42.5 -54t15.5 -46q0 -21 -39 -21q-10 0 -30.5 2t-33.5 2q-61 0 -189 -19.5t-177 -19.5q-41 0 -77 31t-36 72 q0 34 67 86t151 97t181 99t137 85q-6 17 -32 17q-45 0 -95.5 -13.5t-84.5 -29.5t-62.5 -29.5t-34.5 -13.5q-34 1 -67.5 37.5t-33.5 68.5q0 41 46 82t118 67.5t144 26.5q24 0 52 -5t57.5 -17t53.5 -28.5t39 -42t15 -55.5z" />
<glyph unicode="&#xb3;" horiz-adv-x="682" d="M668 550q0 -29 -33 -64t-86.5 -64.5t-129 -50t-151.5 -20.5q-172 0 -172 110q0 24 9.5 51.5t22.5 47.5t27 33t24 13t23 -8t13 -16q0 -7 -9 -23t-9 -23q0 -16 25 -16q33 0 94.5 25t109.5 56.5t48 47.5q-2 6 -22 6q-15 0 -47 -4t-38 -4q-44 0 -44 25q0 5 3.5 9.5t11 8.5 t15.5 8t21 10t23 12q19 10 75.5 35.5t85 42.5t28.5 29q-6 17 -33 17q-45 0 -93.5 -12t-80 -26.5t-57 -26.5t-31.5 -11q-35 1 -68 37.5t-33 68.5q0 40 46 81t118.5 67t143.5 26q31 0 68.5 -8.5t75.5 -25t63 -46.5t25 -67q0 -36 -33.5 -73t-79 -63t-83 -43t-53.5 -19l-4 -2 q0 -1 1 -3q0 -5 12 -8q73 -7 125.5 -46.5t52.5 -93.5z" />
<glyph unicode="&#xb4;" d="M536 672q7 -19 7 -30q0 -22 -19 -38.5t-46 -25.5t-54 -14t-46 -7l-19 -1q-20 -3 -56 -18.5t-62 -29.5l-26 -14q-13 6 -13 19q0 28 44.5 75.5t108.5 85t110 37.5q19 0 31.5 -3t22.5 -11.5t17 -24.5z" />
<glyph unicode="&#xb6;" horiz-adv-x="947" d="M742 854q-50 0 -107.5 -42.5t-102 -100.5t-74 -119.5t-29.5 -99.5q0 -5 4 -5q7 0 32.5 20t34.5 20q10 0 11 -13q0 -41 -41 -86.5t-83 -45.5q-36 0 -59.5 43t-23.5 137q0 97 29.5 204.5t77.5 195.5t115 145.5t135 57.5q58 0 121.5 -32t106.5 -85.5t43 -107.5 q0 -29 -290.5 -502.5t-333.5 -525.5q-6 -7 -19.5 -15t-26.5 -8q-16 0 -26.5 15t-10.5 30q0 16 8 27q514 834 533 860q9 13 23 27q-19 6 -47 6zM409 -29q514 834 533 860q35 49 65 49q9 0 18.5 -4.5t16 -13t6.5 -18.5q0 -30 -260.5 -449.5t-303.5 -472.5q-6 -7 -19.5 -15 t-26.5 -8q-16 0 -27 15t-11 30q0 16 9 27z" />
<glyph unicode="&#xb7;" horiz-adv-x="400" d="M274 395q21 0 34.5 -9t19 -21t5.5 -28q0 -52 -59.5 -101.5t-117.5 -49.5q-39 0 -55 21.5t-16 48.5q0 8 13.5 29.5t36 46.5t60.5 44t79 19z" />
<glyph unicode="&#xb8;" horiz-adv-x="475" d="M199 14l59 -18q0 -1 -1.5 -7t-1.5 -11q0 -10 5.5 -17.5t24.5 -19.5q30 -19 30 -58q0 -17 -8 -31.5t-27 -24.5t-45 -10q-29 0 -60.5 8t-46.5 17q-12 6 -23 31.5t-11 42.5q0 24 21 24q16 0 35 -8q7 -3 21 -7t31 -7.5t27 -3.5q13 0 13 7q0 6 -12.5 17t-25 25t-12.5 27 q0 10 7 24z" />
<glyph unicode="&#xb9;" horiz-adv-x="521" d="M262 338q-43 0 -70.5 36.5t-27.5 81.5q0 68 36.5 173t83 196t90 159t58.5 74q6 3 17 3q22 0 44.5 -11t27.5 -26v-6q0 -22 -17.5 -97.5t-47 -173t-62.5 -190t-69.5 -156t-62.5 -63.5z" />
<glyph unicode="&#xba;" horiz-adv-x="480" d="M596 860q0 -39 46 -39q24 0 59.5 10.5t61.5 21.5t28 11q7 0 12 -7t5 -15q0 -9 -31 -25t-75 -28.5t-76 -12.5q-13 0 -24 2q-13 0 -20 -16q-26 -46 -46.5 -79.5t-51.5 -73t-61 -64.5t-69.5 -41.5t-81.5 -16.5q-24 0 -44 7.5t-36 23.5t-25.5 44t-9.5 66q0 63 26 122.5 t67.5 103t91.5 76.5t99 49.5t89 16.5q117 -13 117 -70q0 -15 -12 -35q-3 -4 -7 -6.5t-8 -3t-8.5 -2t-6.5 -2.5q-9 -9 -9 -17zM344 612q0 -27 19 -27q12 0 42 25t61.5 60t55.5 77.5t24 71.5q0 9 -9 9t-39.5 -21.5t-65 -52.5t-61.5 -71t-27 -71zM530 508q-3 -3 -10 -9.5 t-36 -22.5t-66 -28.5t-103.5 -22.5t-146.5 -10q-15 0 -27.5 -11t-12.5 -34q0 -18 8 -29.5t17.5 -15.5t19.5 -4q33 0 93 10t127 28t115.5 49.5t48.5 69.5q0 13 -7 21.5t-20 8.5z" />
<glyph unicode="&#xbb;" horiz-adv-x="665" d="M567 232q-71 51 -91.5 75.5t-20.5 61.5q0 73 17 76q13 0 46.5 -27.5t67.5 -64t62.5 -77.5t32.5 -64v-2q-1 -13 -60 -69.5t-123 -107t-78 -50.5q-12 0 -19.5 37t-7.5 76q0 25 3 34q3 8 37 26.5t76.5 41t57.5 34.5zM324 251q-69 48 -90.5 73.5t-21.5 57.5q0 78 16 82 q18 0 67 -44t93.5 -100.5t50.5 -87.5v-2q0 -13 -59 -68.5t-123.5 -106t-80.5 -54.5q-23 0 -23 146q4 7 38.5 26.5t76 42t56.5 35.5z" />
<glyph unicode="&#xbc;" horiz-adv-x="1314" d="M262 338q-43 0 -70.5 36.5t-27.5 81.5q0 68 36.5 173t83 196t90 159t58.5 74q6 3 17 3q22 0 44.5 -11t27.5 -26v-6q0 -22 -17.5 -97.5t-47 -173t-62.5 -190t-69.5 -156t-62.5 -63.5zM834 268q7 8 19 22t43 52.5t55 71.5t43.5 68.5t19.5 53.5q0 54 -38 83t-86 29 q-15 0 -23.5 -1.5t-15 -3.5t-10.5 -10.5t-7 -15t-9.5 -25.5t-12.5 -35q0 -22 -37.5 -69.5t-83 -94t-83.5 -97.5t-38 -80q0 -38 30 -76t75 -38q35 0 83.5 20.5t86.5 45.5t73.5 48t44.5 26q5 0 5 -6q-4 -15 -45.5 -69.5t-48.5 -68.5q-30 -52 -30 -84q0 -21 30.5 -53.5 t57.5 -32.5q11 0 20 15.5t28 58.5t38 79q43 76 126.5 204t132.5 199q5 7 19.5 27.5t23.5 34t18 32t10 31.5q-2 11 -14.5 18.5t-23.5 9.5t-18 2q-13 0 -26 -13q-72 -85 -169.5 -175.5t-168 -144t-86.5 -53.5q-6 0 -8 15zM89 -32q-8 -11 -8 -27q0 -15 10.5 -30t26.5 -15 q9 0 19.5 4.5t17 9.5t9.5 9q47 58 237.5 296.5t396.5 506t206 286.5q0 15 -13.5 25.5t-28.5 10.5q-30 0 -65 -49z" />
<glyph unicode="&#xbd;" horiz-adv-x="1175" d="M262 338q-43 0 -70.5 36.5t-27.5 81.5q0 68 36.5 173t83 196t90 159t58.5 74q6 3 17 3q22 0 44.5 -11t27.5 -26v-6q0 -22 -17.5 -97.5t-47 -173t-62.5 -190t-69.5 -156t-62.5 -63.5zM1195 484q0 -23 -16.5 -48t-43.5 -44q-104 -74 -176.5 -118t-185.5 -104 q-18 -10 -18 -16q0 -3 10 -3q13 0 33 5l1 0.5t3 0.5q69 13 101 13q40 0 77 -12.5t62.5 -32t45 -42t29 -43t9.5 -34.5q0 -22 -39 -22q-10 0 -30.5 2t-34.5 2q-61 0 -188.5 -19t-176.5 -19q-26 0 -52 13.5t-43.5 37.5t-17.5 51q0 34 67 86t151 97t181 99t137 85q-6 17 -32 17 q-45 0 -95.5 -13.5t-84.5 -29.5t-62.5 -29.5t-35.5 -13.5q-33 1 -66.5 37.5t-33.5 68.5q0 41 46 82.5t118 67.5t144 26q31 0 66.5 -8.5t70 -25.5t57.5 -47t23 -67zM89 -32q-8 -11 -8 -27q0 -15 10.5 -30t26.5 -15q9 0 19.5 4.5t17 9.5t9.5 9q47 58 237.5 296.5t396.5 506 t206 286.5q0 15 -13.5 25.5t-28.5 10.5q-30 0 -65 -49z" />
<glyph unicode="&#xbe;" horiz-adv-x="1527" d="M1047 268q4 4 10.5 11.5t25 30t35.5 44t38 49.5t35.5 51.5t25 45.5t10.5 36q0 54 -38 83t-86 29q-15 0 -23.5 -1.5t-14.5 -3.5t-10.5 -10.5t-7.5 -15t-9.5 -25.5t-12.5 -35q0 -22 -37.5 -69.5t-83 -94t-83.5 -97.5t-38 -80q0 -38 30 -76t75 -38q36 0 84 20.5t86.5 45.5 t73.5 48t44 26q5 0 5 -6q-4 -15 -45 -69.5t-49 -68.5q-30 -52 -30 -84q0 -21 30.5 -53.5t57.5 -32.5q11 0 20 15.5t28 58.5t38 79q23 40 61 101t76.5 119.5t70.5 106.5t51 76q5 7 19.5 27.5t23.5 34t18 32t10 31.5q-2 11 -14.5 18.5t-23.5 9.5t-18 2q-13 0 -26 -13 q-72 -85 -169.5 -175.5t-168 -144t-85.5 -53.5q-7 0 -9 15zM668 550q0 -29 -33 -64t-86.5 -64.5t-129 -50t-151.5 -20.5q-172 0 -172 110q0 24 9.5 51.5t22.5 47.5t27 33t24 13t23 -8t13 -16q0 -7 -9 -23t-9 -23q0 -16 25 -16q33 0 94.5 25t109.5 56.5t48 47.5q-2 6 -22 6 q-15 0 -47 -4t-38 -4q-44 0 -44 25q0 5 3.5 9.5t11 8.5t15.5 8t21 10t23 12q19 10 75.5 35.5t85 42.5t28.5 29q-6 17 -33 17q-45 0 -93.5 -12t-80 -26.5t-57 -26.5t-31.5 -11q-35 1 -68 37.5t-33 68.5q0 40 46 81t118.5 67t143.5 26q31 0 68.5 -8.5t75.5 -25t63 -46.5 t25 -67q0 -36 -33.5 -73t-79 -63t-83 -43t-53.5 -19l-4 -2q0 -1 1 -3q0 -5 12 -8q73 -7 125.5 -46.5t52.5 -93.5zM302 -32q-8 -11 -8 -27q0 -15 10.5 -30t26.5 -15q7 0 15 2.5t14 6.5t10.5 7.5t6.5 6.5q47 58 237.5 296.5t396.5 506t206 286.5q0 15 -13.5 25.5t-28.5 10.5 q-30 0 -65 -49z" />
<glyph unicode="&#xbf;" horiz-adv-x="686" d="M229 59q39 32 68 62t42 50.5t20 36t8 22.5v8q40 47 117 47q28 0 48 -6.5t20 -16.5q0 -45 -27.5 -88.5t-69.5 -78t-98.5 -71.5t-110 -67.5t-110 -68.5t-91.5 -72q6 -26 39 -26q54 0 114 20t101.5 44.5t75 44t41.5 19.5q27 -1 56 -27.5t47 -63.5t18 -67q0 -62 -55 -123.5 t-142 -101t-173 -39.5q-29 0 -62.5 7.5t-69 25t-64.5 42.5t-47.5 63t-18.5 84q0 22 11 48.5t30 51.5t43 51t51 49.5t54 45t51 38.5t43 30t30 20zM444 331q-33 0 -47 17t-14 42q0 52 60 101t119 49q20 0 34 -6.5t21.5 -18t10.5 -22.5t3 -22q0 -8 -13.5 -29.5t-35.5 -47 t-60 -44.5t-78 -19z" />
<glyph unicode="&#xc0;" horiz-adv-x="806" d="M1097 887q0 -33 -22.5 -71t-52.5 -66.5t-59 -47.5t-43 -19q-9 0 -17.5 4.5t-8.5 13.5q0 18 19 39.5t38.5 39t19.5 26.5q0 5 -8 5q-57 0 -165 -76t-210.5 -177t-179.5 -210t-77 -168q0 -24 17 -24q28 0 131 87t210 190.5t198 198.5q14 3 19 3q15 0 28 -8t18.5 -16t5.5 -12 q-2 -21 -19 -62t-39.5 -83t-54.5 -97t-54.5 -90.5t-49 -77.5t-28.5 -45t-2 -7q0 -10 8 -10q2 0 4 1q3 2 12.5 8t19.5 13t21.5 15t16.5 12q13 10 25 10q9 0 17.5 -7.5t8.5 -17.5q0 -31 -54 -74.5t-116.5 -73t-91.5 -29.5q-33 0 -58.5 21.5t-25.5 54.5q0 29 17.5 74.5 l17.5 45.5q0 4 -3 4q-4 0 -10 -4q-226 -180 -337 -180q-85 0 -134.5 66t-49.5 159q0 96 41 194t109.5 181.5t160.5 157t191.5 125t204.5 81.5t198 30q87 0 140 -28t53 -79zM877 1277q34 0 78.5 -26.5t82 -64.5t64 -81t26.5 -73l-2 -4t-2 -3.5t-3 -3t-3 -2t-3.5 -1.5l-2.5 -1 q-88 72 -131 86q-7 2 -18.5 5t-40 13.5t-50.5 22t-40 30.5t-18 38q0 3 0.5 7.5t4 15.5t9.5 19.5t19 15.5t30 7z" />
<glyph unicode="&#xc1;" horiz-adv-x="806" d="M1097 887q0 -33 -22.5 -71t-52.5 -66.5t-59 -47.5t-43 -19q-9 0 -17.5 4.5t-8.5 13.5q0 18 19 39.5t38.5 39t19.5 26.5q0 5 -8 5q-57 0 -165 -76t-210.5 -177t-179.5 -210t-77 -168q0 -24 17 -24q28 0 131 87t210 190.5t198 198.5q14 3 19 3q15 0 28 -8t18.5 -16t5.5 -12 q-2 -21 -19 -62t-39.5 -83t-54.5 -97t-54.5 -90.5t-49 -77.5t-28.5 -45t-2 -7q0 -10 8 -10q2 0 4 1q3 2 12.5 8t19.5 13t21.5 15t16.5 12q13 10 25 10q9 0 17.5 -7.5t8.5 -17.5q0 -31 -54 -74.5t-116.5 -73t-91.5 -29.5q-33 0 -58.5 21.5t-25.5 54.5q0 29 17.5 74.5 l17.5 45.5q0 4 -3 4q-4 0 -10 -4q-226 -180 -337 -180q-85 0 -134.5 66t-49.5 159q0 96 41 194t109.5 181.5t160.5 157t191.5 125t204.5 81.5t198 30q87 0 140 -28t53 -79zM1349 1217q7 -19 7 -30q0 -22 -18.5 -39t-46 -25.5t-54.5 -14t-46 -6.5l-19 -2q-20 -3 -56 -18.5 t-62 -29.5l-26 -14q-13 7 -13 19q0 21 28 55t67 66t86.5 55t82.5 23q28 0 44 -8t26 -31z" />
<glyph unicode="&#xc2;" horiz-adv-x="806" d="M1097 887q0 -33 -22.5 -71t-52.5 -66.5t-59 -47.5t-43 -19q-9 0 -17.5 4.5t-8.5 13.5q0 18 19 39.5t38.5 39t19.5 26.5q0 5 -8 5q-57 0 -165 -76t-210.5 -177t-179.5 -210t-77 -168q0 -24 17 -24q28 0 131 87t210 190.5t198 198.5q14 3 19 3q15 0 28 -8t18.5 -16t5.5 -12 q-2 -21 -19 -62t-39.5 -83t-54.5 -97t-54.5 -90.5t-49 -77.5t-28.5 -45t-2 -7q0 -10 8 -10q2 0 4 1q3 2 12.5 8t19.5 13t21.5 15t16.5 12q13 10 25 10q9 0 17.5 -7.5t8.5 -17.5q0 -31 -54 -74.5t-116.5 -73t-91.5 -29.5q-33 0 -58.5 21.5t-25.5 54.5q0 29 17.5 74.5 l17.5 45.5q0 4 -3 4q-4 0 -10 -4q-226 -180 -337 -180q-85 0 -134.5 66t-49.5 159q0 96 41 194t109.5 181.5t160.5 157t191.5 125t204.5 81.5t198 30q87 0 140 -28t53 -79zM1212 982q-16 0 -30.5 11t-23.5 25t-17.5 37.5t-12 38t-8.5 36.5q-26 -7 -69 -15t-77.5 -16 t-57.5 -20q-16 -6 -28 -6q-15 0 -15 13q0 12 7 27.5t21.5 32.5t34 33.5t46 31t56 26t65.5 18t73 6.5q22 0 44.5 -73t22.5 -137q0 -69 -31 -69z" />
<glyph unicode="&#xc3;" horiz-adv-x="806" d="M1097 887q0 -33 -22.5 -71t-52.5 -66.5t-59 -47.5t-43 -19q-9 0 -17.5 4.5t-8.5 13.5q0 18 19 39.5t38.5 39t19.5 26.5q0 5 -8 5q-57 0 -165 -76t-210.5 -177t-179.5 -210t-77 -168q0 -24 17 -24q28 0 131 87t210 190.5t198 198.5q14 3 19 3q15 0 28 -8t18.5 -16t5.5 -12 q-2 -21 -19 -62t-39.5 -83t-54.5 -97t-54.5 -90.5t-49 -77.5t-28.5 -45t-2 -7q0 -10 8 -10q2 0 4 1q3 2 12.5 8t19.5 13t21.5 15t16.5 12q13 10 25 10q9 0 17.5 -7.5t8.5 -17.5q0 -31 -54 -74.5t-116.5 -73t-91.5 -29.5q-33 0 -58.5 21.5t-25.5 54.5q0 29 17.5 74.5 l17.5 45.5q0 4 -3 4q-4 0 -10 -4q-226 -180 -337 -180q-85 0 -134.5 66t-49.5 159q0 96 41 194t109.5 181.5t160.5 157t191.5 125t204.5 81.5t198 30q87 0 140 -28t53 -79zM1224 1148q-1 -5 -4.5 -12t-16 -25.5t-28.5 -32.5t-45 -25.5t-63 -11.5q-29 5 -60.5 26t-58 41.5 t-44.5 23.5q-14 0 -25 -9.5t-19 -9.5q-8 1 -14.5 5t-11.5 11t-5 14v2q19 37 58 62.5t79 25.5q26 0 60 -20.5t67 -40.5t55 -20q11 0 18.5 5t10 11t6.5 11t9 5q12 -1 22 -12.5t10 -23.5z" />
<glyph unicode="&#xc4;" horiz-adv-x="806" d="M1097 887q0 -33 -22.5 -71t-52.5 -66.5t-59 -47.5t-43 -19q-9 0 -17.5 4.5t-8.5 13.5q0 18 19 39.5t38.5 39t19.5 26.5q0 5 -8 5q-57 0 -165 -76t-210.5 -177t-179.5 -210t-77 -168q0 -24 17 -24q28 0 131 87t210 190.5t198 198.5q14 3 19 3q15 0 28 -8t18.5 -16t5.5 -12 q-2 -21 -19 -62t-39.5 -83t-54.5 -97t-54.5 -90.5t-49 -77.5t-28.5 -45t-2 -7q0 -10 8 -10q2 0 4 1q3 2 12.5 8t19.5 13t21.5 15t16.5 12q13 10 25 10q9 0 17.5 -7.5t8.5 -17.5q0 -31 -54 -74.5t-116.5 -73t-91.5 -29.5q-33 0 -58.5 21.5t-25.5 54.5q0 29 17.5 74.5 l17.5 45.5q0 4 -3 4q-4 0 -10 -4q-226 -180 -337 -180q-85 0 -134.5 66t-49.5 159q0 96 41 194t109.5 181.5t160.5 157t191.5 125t204.5 81.5t198 30q87 0 140 -28t53 -79zM838 1051q-24 0 -38.5 17t-16.5 34l-3 17q4 37 24 66t46 44.5t49 23t38 7.5q33 0 46 -17.5t13 -41.5 q0 -16 -10.5 -38.5t-29.5 -46.5t-50.5 -42.5t-67.5 -22.5zM1056 1040q-25 0 -39.5 17t-16.5 33l-2 17q3 37 23 66.5t46.5 44.5t49.5 22.5t38 7.5q32 0 45.5 -17.5t13.5 -41.5q0 -15 -11 -38t-29.5 -46.5t-50 -42t-67.5 -22.5z" />
<glyph unicode="&#xc5;" horiz-adv-x="806" d="M1097 887q0 -33 -22.5 -71t-52.5 -66.5t-59 -47.5t-43 -19q-9 0 -17.5 4.5t-8.5 13.5q0 18 19 39.5t38.5 39t19.5 26.5q0 5 -8 5q-57 0 -165 -76t-210.5 -177t-179.5 -210t-77 -168q0 -24 17 -24q28 0 131 87t210 190.5t198 198.5q14 3 19 3q15 0 28 -8t18.5 -16t5.5 -12 q-2 -21 -19 -62t-39.5 -83t-54.5 -97t-54.5 -90.5t-49 -77.5t-28.5 -45t-2 -7q0 -10 8 -10q2 0 4 1q3 2 12.5 8t19.5 13t21.5 15t16.5 12q13 10 25 10q9 0 17.5 -7.5t8.5 -17.5q0 -31 -54 -74.5t-116.5 -73t-91.5 -29.5q-33 0 -58.5 21.5t-25.5 54.5q0 29 17.5 74.5 l17.5 45.5q0 4 -3 4q-4 0 -10 -4q-226 -180 -337 -180q-85 0 -134.5 66t-49.5 159q0 96 41 194t109.5 181.5t160.5 157t191.5 125t204.5 81.5t198 30q87 0 140 -28t53 -79zM1178 1231q17 0 30 -5.5t19 -14t9.5 -16.5t4.5 -14v-6q0 -35 -20 -64t-48.5 -44.5t-56 -23.5 t-46.5 -8q-42 0 -63 15t-21 39q0 29 26 62t71.5 56.5t94.5 23.5zM1106 1097q2 1 6 2.5t14.5 7t18 11t14 15.5t6.5 20q0 16 -16 16q-21 0 -42 -20t-21 -37q0 -15 20 -15z" />
<glyph unicode="&#xc6;" horiz-adv-x="1399" d="M1565 1093q241 -2 241 -135q0 -44 -27 -98t-63.5 -95.5t-72 -69.5t-53.5 -28q-11 0 -20 9t-9 20q0 20 28 51.5t28 47.5t-36 16q-29 0 -79.5 -11t-107 -27.5t-115 -38t-105.5 -43t-77 -41t-30 -32.5q2 -10 40 -10q35 0 81.5 7t71.5 7q65 0 65 -34q0 -9 -5.5 -16.5 t-13.5 -13t-23 -12.5t-29 -12.5t-37 -14.5t-42 -18q-15 -7 -49.5 -22t-57 -25.5t-58 -26.5t-60 -28t-54.5 -27t-49.5 -27t-37.5 -23.5t-27 -20.5t-9 -16q0 -15 14 -22t32 -7q76 0 166.5 22.5t155.5 49.5t119 49t65 22q50 -2 84 -50.5t34 -97.5q0 -53 -57.5 -111t-144.5 -104 t-195.5 -76.5t-204.5 -30.5q-58 0 -106.5 12t-88.5 36t-66.5 65.5t-35.5 97.5q0 26 10 50q-97 -71 -203.5 -130.5t-167.5 -59.5q-85 0 -134.5 66t-49.5 159q0 96 41 194t109.5 181.5t160.5 157t191.5 125t204.5 81.5t198 30q95 0 146 -32q33 17 69 32t73.5 28t75.5 24 t76.5 20t76 15t74.5 9t70 3zM348 156q28 0 103 41t162.5 96.5t215.5 124.5t239 112q9 2 9 6t-5.5 8.5t-11.5 5.5q-93 10 -100 12q-41 9 -71 30t-44 47t-20 47t-6 38q0 10 3 28q-74 -48 -161 -126t-160 -160t-121.5 -160.5t-48.5 -125.5q0 -24 17 -24z" />
<glyph unicode="&#xc7;" horiz-adv-x="708" d="M1011 788q-34 0 -96.5 -33.5t-133.5 -87.5t-145.5 -125.5t-134.5 -143.5t-98.5 -145t-38.5 -128q0 -27 31 -27q26 0 81.5 33.5t107.5 74t99 74.5t57 34q11 0 23 -7q12 -8 12 -26q0 -16 -29.5 -50.5t-80.5 -75.5t-112 -79t-133 -63.5t-135 -25.5q-9 0 -37 3q4 -9 33 -29 q36 -23 36 -69q0 -33 -24.5 -57t-72.5 -24q-23 0 -50 5t-46.5 12t-31.5 14q-14 7 -27 37.5t-13 51.5q0 27 26 27q21 0 40 -8q59 -22 95 -22q16 0 16 9q0 7 -15 20t-30 29t-16 31q-100 61 -100 251q0 104 31.5 198t85 165t125 131.5t150 101.5t161 70t158.5 42t141 13 q132 0 191.5 -36t59.5 -95q0 -41 -26.5 -90.5t-62.5 -88t-75 -64.5t-64 -26q-37 0 -37 22q0 11 6.5 25.5t13.5 23.5q3 3 22.5 23t39.5 41.5t32 37.5q7 9 7 17q0 9 -16 9z" />
<glyph unicode="&#xc8;" horiz-adv-x="825" d="M991 1093q240 -2 240 -135q0 -44 -27 -98t-63 -95.5t-72 -69.5t-54 -28q-11 0 -20 9t-9 20q0 20 28.5 51.5t28.5 47.5t-36 16q-59 0 -183.5 -37t-227.5 -84t-104 -72q2 -10 41 -10q35 0 81 7t71 7q65 0 65 -34q0 -10 -6 -18.5t-21.5 -16t-30.5 -14t-42.5 -17.5t-49.5 -21 q-15 -7 -49 -22t-57 -25.5t-58 -26.5t-59.5 -28t-54.5 -27t-50 -27t-38 -23.5t-26.5 -20.5t-8.5 -16q0 -10 7 -17t17 -9.5t22 -2.5q76 0 166.5 22.5t155.5 49.5t118.5 49t64.5 22q51 -2 84.5 -50.5t33.5 -97.5q0 -53 -57.5 -111t-144.5 -104t-195.5 -76.5t-204.5 -30.5 q-57 0 -105.5 12t-89 36t-67 65.5t-34.5 97.5q0 44 34 92t87.5 89t116.5 79t122 65.5t103 44.5t61 20q9 2 9 6t-6 8.5t-12 5.5q-93 10 -99 12q-41 9 -71 30t-44 47t-20 47t-6 38q0 67 75.5 136t187 119t243 82t240.5 32zM1053 1354q44 0 104.5 -44t103 -102.5t42.5 -98.5 q0 -3 -1 -5t-2 -3t-3 -2.5t-3 -2t-3.5 -2t-3.5 -1.5q-88 72 -131 86q-3 1 -9 2.5t-23.5 7t-33 11.5t-35 16t-33.5 20.5t-23.5 24t-9.5 28.5q0 2 0.5 6.5t4 16t9.5 20t19 15.5t31 7z" />
<glyph unicode="&#xc9;" horiz-adv-x="825" d="M991 1093q240 -2 240 -135q0 -44 -27 -98t-63 -95.5t-72 -69.5t-54 -28q-11 0 -20 9t-9 20q0 20 28.5 51.5t28.5 47.5t-36 16q-59 0 -183.5 -37t-227.5 -84t-104 -72q2 -10 41 -10q35 0 81 7t71 7q65 0 65 -34q0 -10 -6 -18.5t-21.5 -16t-30.5 -14t-42.5 -17.5t-49.5 -21 q-15 -7 -49 -22t-57 -25.5t-58 -26.5t-59.5 -28t-54.5 -27t-50 -27t-38 -23.5t-26.5 -20.5t-8.5 -16q0 -10 7 -17t17 -9.5t22 -2.5q76 0 166.5 22.5t155.5 49.5t118.5 49t64.5 22q51 -2 84.5 -50.5t33.5 -97.5q0 -53 -57.5 -111t-144.5 -104t-195.5 -76.5t-204.5 -30.5 q-57 0 -105.5 12t-89 36t-67 65.5t-34.5 97.5q0 44 34 92t87.5 89t116.5 79t122 65.5t103 44.5t61 20q9 2 9 6t-6 8.5t-12 5.5q-93 10 -99 12q-41 9 -71 30t-44 47t-20 47t-6 38q0 67 75.5 136t187 119t243 82t240.5 32zM1380 1342q7 -19 7 -30q0 -22 -19 -39t-46 -25.5 t-54.5 -14t-46.5 -6.5l-19 -2q-19 -3 -55 -18.5t-63 -29.5l-26 -13q-13 6 -13 18q0 21 28 55.5t67 66t86.5 54.5t82.5 23q19 0 31.5 -3t22 -11.5t17.5 -24.5z" />
<glyph unicode="&#xca;" horiz-adv-x="825" d="M991 1093q240 -2 240 -135q0 -44 -27 -98t-63 -95.5t-72 -69.5t-54 -28q-11 0 -20 9t-9 20q0 20 28.5 51.5t28.5 47.5t-36 16q-59 0 -183.5 -37t-227.5 -84t-104 -72q2 -10 41 -10q35 0 81 7t71 7q65 0 65 -34q0 -10 -6 -18.5t-21.5 -16t-30.5 -14t-42.5 -17.5t-49.5 -21 q-15 -7 -49 -22t-57 -25.5t-58 -26.5t-59.5 -28t-54.5 -27t-50 -27t-38 -23.5t-26.5 -20.5t-8.5 -16q0 -10 7 -17t17 -9.5t22 -2.5q76 0 166.5 22.5t155.5 49.5t118.5 49t64.5 22q51 -2 84.5 -50.5t33.5 -97.5q0 -53 -57.5 -111t-144.5 -104t-195.5 -76.5t-204.5 -30.5 q-57 0 -105.5 12t-89 36t-67 65.5t-34.5 97.5q0 44 34 92t87.5 89t116.5 79t122 65.5t103 44.5t61 20q9 2 9 6t-6 8.5t-12 5.5q-93 10 -99 12q-41 9 -71 30t-44 47t-20 47t-6 38q0 67 75.5 136t187 119t243 82t240.5 32zM1287 1090q-14 0 -26 7t-21.5 20.5t-16 26.5 t-12.5 32.5t-9 31.5t-7 30q-26 -7 -69 -15t-78 -16t-57 -20q-16 -6 -28 -6q-15 0 -15 13q0 12 7 27.5t21.5 32.5t34 33.5t46 31t56 26t65.5 18t73 6.5q22 0 44.5 -73t22.5 -137q0 -69 -31 -69z" />
<glyph unicode="&#xcb;" horiz-adv-x="825" d="M991 1093q240 -2 240 -135q0 -44 -27 -98t-63 -95.5t-72 -69.5t-54 -28q-11 0 -20 9t-9 20q0 20 28.5 51.5t28.5 47.5t-36 16q-59 0 -183.5 -37t-227.5 -84t-104 -72q2 -10 41 -10q35 0 81 7t71 7q65 0 65 -34q0 -10 -6 -18.5t-21.5 -16t-30.5 -14t-42.5 -17.5t-49.5 -21 q-15 -7 -49 -22t-57 -25.5t-58 -26.5t-59.5 -28t-54.5 -27t-50 -27t-38 -23.5t-26.5 -20.5t-8.5 -16q0 -10 7 -17t17 -9.5t22 -2.5q76 0 166.5 22.5t155.5 49.5t118.5 49t64.5 22q51 -2 84.5 -50.5t33.5 -97.5q0 -53 -57.5 -111t-144.5 -104t-195.5 -76.5t-204.5 -30.5 q-57 0 -105.5 12t-89 36t-67 65.5t-34.5 97.5q0 44 34 92t87.5 89t116.5 79t122 65.5t103 44.5t61 20q9 2 9 6t-6 8.5t-12 5.5q-93 10 -99 12q-41 9 -71 30t-44 47t-20 47t-6 38q0 67 75.5 136t187 119t243 82t240.5 32zM1041 1148q-24 0 -38.5 17t-16.5 33l-2 17 q3 37 23 66.5t46 44.5t49 22.5t38 7.5q33 0 46.5 -17.5t13.5 -41.5q0 -15 -11 -38t-30 -46.5t-50.5 -42t-67.5 -22.5zM1259 1136q-16 0 -27.5 7t-17 17t-9 20t-3.5 17l-1 7q3 37 23 66t46.5 44.5t49.5 23t38 7.5q32 0 45.5 -17.5t13.5 -41.5q0 -10 -5 -24t-13.5 -29.5 t-22.5 -31.5t-31 -29.5t-39.5 -23t-46.5 -12.5z" />
<glyph unicode="&#xcc;" horiz-adv-x="557" d="M17 102q0 69 55.5 164t140 188t186 186t193 163.5t160.5 114.5t90 44q42 0 84 -37t42 -70q0 -20 -68 -120t-172 -231.5t-215 -259.5t-210 -215.5t-143 -87.5q-50 0 -96.5 52.5t-46.5 108.5zM812 1250q45 0 105 -44t103 -102.5t43 -98.5q-3 -9 -16 -16q-88 72 -131 87 q-7 1 -18 4t-40 13.5t-51 22.5t-40 30.5t-18 38.5q0 3 0.5 7t4 15.5t9.5 20t19 15.5t30 7z" />
<glyph unicode="&#xcd;" horiz-adv-x="557" d="M17 102q0 69 55.5 164t140 188t186 186t193 163.5t160.5 114.5t90 44q42 0 84 -37t42 -70q0 -20 -68 -120t-172 -231.5t-215 -259.5t-210 -215.5t-143 -87.5q-50 0 -96.5 52.5t-46.5 108.5zM1308 1185q7 -19 7 -30q0 -22 -19 -39t-46 -25.5t-54.5 -14t-46.5 -6.5l-19 -2 q-19 -3 -55 -18.5t-63 -29.5l-26 -13q-13 6 -13 18q0 21 28 55.5t67 66t86.5 54.5t82.5 23q28 0 44 -8t27 -31z" />
<glyph unicode="&#xce;" horiz-adv-x="557" d="M17 102q0 69 55.5 164t140 188t186 186t193 163.5t160.5 114.5t90 44q42 0 84 -37t42 -70q0 -20 -68 -120t-172 -231.5t-215 -259.5t-210 -215.5t-143 -87.5q-50 0 -96.5 52.5t-46.5 108.5zM1122 958q-17 0 -31.5 11t-23.5 25t-17 37.5t-12 38t-8 36.5q-21 -6 -98 -21 t-107 -31q-16 -6 -27 -6q-16 0 -16 13q0 23 23 52.5t61 57t97 47t123 19.5q22 0 44 -73t22 -137q0 -69 -30 -69z" />
<glyph unicode="&#xcf;" horiz-adv-x="557" d="M17 102q0 69 55.5 164t140 188t186 186t193 163.5t160.5 114.5t90 44q42 0 84 -37t42 -70q0 -20 -68 -120t-172 -231.5t-215 -259.5t-210 -215.5t-143 -87.5q-50 0 -96.5 52.5t-46.5 108.5zM878 1020q-24 0 -38.5 16.5t-16.5 33.5l-2 17q3 37 23 66t46.5 44.5t49.5 23 t38 7.5q32 0 45.5 -17.5t13.5 -41.5q0 -10 -5 -23.5t-13.5 -29.5t-22.5 -32t-31 -29.5t-39.5 -23t-47.5 -11.5zM1096 1008q-15 0 -27 7t-17.5 17t-9 20t-3.5 17l-1 7q4 36 24 65.5t46 44.5t49 23t38 8q32 0 45.5 -17.5t13.5 -41.5q0 -12 -6.5 -29.5t-20 -37t-31.5 -37 t-44.5 -30.5t-55.5 -16z" />
<glyph unicode="&#xd0;" horiz-adv-x="1166" d="M1388 570q0 -45 -19.5 -99t-62 -114.5t-103.5 -118.5t-150.5 -111.5t-196.5 -93.5t-248.5 -64t-299.5 -24q-13 0 -46 5.5t-81.5 19t-91 33.5t-73 54t-30.5 74q0 67 58.5 120.5t116.5 53.5q17 0 52 -11.5t87 -23.5t110 -12q94 0 214 30.5t231 79t206.5 104t153.5 110.5 t58 93q0 34 -59 51t-157 17q-119 0 -257.5 -21.5t-252.5 -61t-147 -84.5q1 -1 5 -1q10 0 46 7t52 7q25 0 25 -16q0 -25 -77 -47.5t-127 -22.5q-81 0 -130.5 49t-58.5 133q0 41 29.5 82.5t80 78t120.5 69t148 56t165.5 37t171.5 13.5q61 0 118 -7.5t111.5 -23.5t100.5 -41 t84.5 -61.5t66 -82t42.5 -105.5t15 -130zM478 364q16 21 39 49q-61 -3 -71 -3q-16 0 -30 6.5t-14 21.5q0 9 7 15t15.5 8.5t17.5 2.5q46 0 118 3q141 177 156 193q36 43 64 43q16 0 29 -12t13 -27q0 -6 -2 -13t-4.5 -12t-8 -12.5t-8 -11t-9 -11t-7.5 -8.5q-12 -17 -93 -114 q22 5 42 10.5t32.5 9.5t22 8t13.5 6l4 2q27 0 27 -17q0 -45 -187 -73q-23 -27 -49 -57t-39.5 -46t-14.5 -17q-1 0 -7 -5.5t-14.5 -10t-16.5 -4.5q-16 0 -26 14.5t-10 28.5q0 19 11 33z" />
<glyph unicode="&#xd1;" horiz-adv-x="784" d="M816 477q0 5 41.5 93.5t83 195.5t41.5 157q0 15 -5.5 39.5t-16.5 51.5t-32 46.5t-47 19.5q-33 0 -83.5 -36t-112 -99t-123 -130t-138 -148.5t-133.5 -135.5q-316 -319 -346 -319q-5 0 -5 7q0 14 42 97.5t42 105.5q0 13 -9 20t-22 7q-33 0 -72 -66t-63.5 -141.5 t-24.5 -110.5q0 -28 11.5 -52.5t38.5 -26.5q30 0 74 26t99 74.5t106 98t114 119t101.5 113.5t91 105t61.5 72q14 17 30 17q9 0 9 -9q0 -13 -19 -32q-52 -50 -111.5 -158t-95.5 -200.5t-36 -121.5q0 -21 22 -61.5t58 -76t68 -35.5q24 0 55.5 15.5t72.5 50t79 70.5t94 95 t96 103t105.5 116.5t105.5 115.5q59 63 122 125.5t112.5 108t99 88t79.5 66.5t55.5 44l25.5 20q13 11 13 23q0 11 -11.5 22t-26 17.5t-24.5 6.5q-26 0 -64 -16q-41 -15 -107.5 -69t-139.5 -128t-138 -143.5t-125 -135.5t-79 -84q-1 -1 -5 -6.5t-6.5 -8t-6.5 -6t-8 -5 t-8 -1.5q-5 0 -5 10zM1498 1244q-2 -4 -5 -11.5t-15.5 -25.5t-28.5 -32t-45 -25.5t-63 -11.5q-30 5 -61 26t-57.5 41t-44.5 23q-15 0 -25.5 -9t-19.5 -9q-11 1 -20.5 9.5t-9.5 20.5v1q19 37 57.5 62.5t79.5 25.5q25 0 59.5 -20t67 -40.5t54.5 -20.5q12 0 19 5t10 11t7 11 t9 5t11 -3.5t10.5 -8.5t7.5 -11.5t3 -12.5z" />
<glyph unicode="&#xd2;" horiz-adv-x="797" d="M1132 950q37 22 70 22q35 0 52.5 -23.5t17.5 -51.5q0 -51 -49 -140t-128.5 -191t-187 -208t-218.5 -191.5t-229 -139.5t-212 -54q-37 0 -70.5 15t-62.5 45.5t-46 83t-17 121.5q0 106 46.5 211.5t123 190t174.5 158t200.5 122.5t201.5 77t178 28q104 0 147 -75h9zM405 180 q0 -52 43 -52q45 0 129 56t175.5 143t176 182.5t139 184.5t55.5 138q0 13 -11 13q-16 0 -50.5 -30.5t-69 -70t-62.5 -77.5t-33 -52q-1 -1 -4.5 -7t-7.5 -11t-11.5 -9.5t-16.5 -4.5q-22 0 -35 12.5t-13 28.5t20.5 50t41 63.5t20.5 35.5q0 5 -4 5q-23 0 -101.5 -72t-163 -167 t-151 -199.5t-66.5 -159.5zM1048 1289q45 0 105.5 -44t103 -102.5t42.5 -98.5q0 -2 -1.5 -4.5t-2 -3.5t-3 -2.5t-3 -2t-3.5 -2l-3 -1.5q-88 72 -131 87q-7 1 -18 4t-40 13.5t-51 22.5t-40 30.5t-18 38.5q0 3 0.5 7t4 15.5t9.5 20t19 15.5t30 7z" />
<glyph unicode="&#xd3;" horiz-adv-x="797" d="M1132 950q37 22 70 22q35 0 52.5 -23.5t17.5 -51.5q0 -51 -49 -140t-128.5 -191t-187 -208t-218.5 -191.5t-229 -139.5t-212 -54q-37 0 -70.5 15t-62.5 45.5t-46 83t-17 121.5q0 106 46.5 211.5t123 190t174.5 158t200.5 122.5t201.5 77t178 28q104 0 147 -75h9zM405 180 q0 -52 43 -52q45 0 129 56t175.5 143t176 182.5t139 184.5t55.5 138q0 13 -11 13q-16 0 -50.5 -30.5t-69 -70t-62.5 -77.5t-33 -52q-1 -1 -4.5 -7t-7.5 -11t-11.5 -9.5t-16.5 -4.5q-22 0 -35 12.5t-13 28.5t20.5 50t41 63.5t20.5 35.5q0 5 -4 5q-23 0 -101.5 -72t-163 -167 t-151 -199.5t-66.5 -159.5zM1457 1227q7 -19 7 -30q0 -22 -18.5 -39t-46 -25.5t-54.5 -14t-46 -6.5l-19 -2q-20 -3 -56 -18.5t-62 -29.5l-26 -14q-13 7 -13 19q0 28 45 76t108.5 85.5t110.5 37.5q28 0 44 -8t26 -31z" />
<glyph unicode="&#xd4;" horiz-adv-x="797" d="M1132 950q37 22 70 22q35 0 52.5 -23.5t17.5 -51.5q0 -51 -49 -140t-128.5 -191t-187 -208t-218.5 -191.5t-229 -139.5t-212 -54q-37 0 -70.5 15t-62.5 45.5t-46 83t-17 121.5q0 106 46.5 211.5t123 190t174.5 158t200.5 122.5t201.5 77t178 28q104 0 147 -75h9zM405 180 q0 -52 43 -52q45 0 129 56t175.5 143t176 182.5t139 184.5t55.5 138q0 13 -11 13q-16 0 -50.5 -30.5t-69 -70t-62.5 -77.5t-33 -52q-1 -1 -4.5 -7t-7.5 -11t-11.5 -9.5t-16.5 -4.5q-22 0 -35 12.5t-13 28.5t20.5 50t41 63.5t20.5 35.5q0 5 -4 5q-23 0 -101.5 -72t-163 -167 t-151 -199.5t-66.5 -159.5zM1356 1007q-16 0 -30.5 11t-23.5 25t-17.5 37.5t-12 38t-8.5 36.5q-21 -6 -97.5 -21t-106.5 -31q-16 -6 -28 -6q-15 0 -15 13q0 23 22.5 52.5t61 57t97.5 47t122 19.5q22 0 44.5 -73.5t22.5 -136.5q0 -69 -31 -69z" />
<glyph unicode="&#xd5;" horiz-adv-x="797" d="M1132 950q37 22 70 22q35 0 52.5 -23.5t17.5 -51.5q0 -51 -49 -140t-128.5 -191t-187 -208t-218.5 -191.5t-229 -139.5t-212 -54q-37 0 -70.5 15t-62.5 45.5t-46 83t-17 121.5q0 106 46.5 211.5t123 190t174.5 158t200.5 122.5t201.5 77t178 28q104 0 147 -75h9zM405 180 q0 -52 43 -52q45 0 129 56t175.5 143t176 182.5t139 184.5t55.5 138q0 13 -11 13q-16 0 -50.5 -30.5t-69 -70t-62.5 -77.5t-33 -52q-1 -1 -4.5 -7t-7.5 -11t-11.5 -9.5t-16.5 -4.5q-22 0 -35 12.5t-13 28.5t20.5 50t41 63.5t20.5 35.5q0 5 -4 5q-23 0 -101.5 -72t-163 -167 t-151 -199.5t-66.5 -159.5zM1395 1164q-1 -5 -4 -12t-15.5 -25.5t-28.5 -32.5t-45 -25.5t-64 -11.5q-29 5 -60.5 26t-57.5 41.5t-44 23.5q-15 0 -26 -9.5t-19 -9.5q-11 1 -20.5 10t-9.5 20v2q12 24 33.5 44t49 31.5t54.5 11.5q25 0 59 -20t67 -40t55 -20q9 0 15.5 3t10 8 t6 9.5t5.5 8t8 3.5q7 -1 14.5 -6.5t12 -13.5t4.5 -16z" />
<glyph unicode="&#xd6;" horiz-adv-x="797" d="M1132 950q37 22 70 22q35 0 52.5 -23.5t17.5 -51.5q0 -51 -49 -140t-128.5 -191t-187 -208t-218.5 -191.5t-229 -139.5t-212 -54q-37 0 -70.5 15t-62.5 45.5t-46 83t-17 121.5q0 106 46.5 211.5t123 190t174.5 158t200.5 122.5t201.5 77t178 28q104 0 147 -75h9zM405 180 q0 -52 43 -52q45 0 129 56t175.5 143t176 182.5t139 184.5t55.5 138q0 13 -11 13q-16 0 -50.5 -30.5t-69 -70t-62.5 -77.5t-33 -52q-1 -1 -4.5 -7t-7.5 -11t-11.5 -9.5t-16.5 -4.5q-22 0 -35 12.5t-13 28.5t20.5 50t41 63.5t20.5 35.5q0 5 -4 5q-23 0 -101.5 -72t-163 -167 t-151 -199.5t-66.5 -159.5zM953 1107q-24 0 -38.5 17t-16.5 34l-2 17q3 37 23 66t46.5 44.5t49 23t38.5 7.5q32 0 45.5 -17.5t13.5 -41.5q0 -15 -11 -38t-30 -47t-50.5 -42.5t-67.5 -22.5zM1171 1096q-16 0 -27.5 7t-17 17t-9 20t-3.5 17l-1 7q4 36 24 65.5t46 44.5t49 23 t38 8q32 0 45.5 -17.5t13.5 -41.5q0 -16 -10.5 -39t-29.5 -46.5t-50.5 -42t-67.5 -22.5z" />
<glyph unicode="&#xd7;" horiz-adv-x="705" d="M215 707q0 7 24 33t30 26q4 0 6 -6l104 -193q12 10 34 26t35.5 26t33.5 24.5t33.5 24t29.5 21t27 18.5t21.5 13.5t16.5 9.5t9 3q13 0 13 -23q0 -12 -8.5 -26t-21 -28t-35 -33.5t-42.5 -35.5t-51.5 -41t-54.5 -45q12 -19 31.5 -52t31 -51.5t27.5 -45t25 -42t18 -31.5 t13 -24.5t4 -11.5q0 -8 -11.5 -17t-22.5 -14l-11 -5q-26 30 -76 97t-97 138q-74 -63 -177 -136t-121 -73t-27 16t-9 38l288 227q-90 146 -90 193z" />
<glyph unicode="&#xd8;" horiz-adv-x="797" d="M272 -114q26 38 68 98q-51 -11 -92 -11q-37 0 -70.5 15t-62.5 45.5t-46 83t-17 121.5q0 106 46.5 211.5t123 190t174.5 158t200.5 122.5t201.5 77t178 28q50 0 82 -14q17 24 33.5 47.5t25 35.5t9.5 13q35 49 65 49q15 0 28.5 -10t13.5 -26q0 -12 -105 -170h4q37 22 70 22 q35 0 52.5 -23.5t17.5 -51.5q0 -49 -45 -133.5t-123.5 -184.5t-175 -200t-211 -190t-219.5 -144q-128 -179 -151 -208q-6 -7 -19.5 -15t-26.5 -8q-8 0 -15.5 4.5t-12 11.5t-7 14.5t-2.5 14.5q0 16 8 27zM405 180q0 -50 36 -52q231 329 450 644v1q0 5 -4 5q-23 0 -101.5 -72 t-163 -167t-151 -199.5t-66.5 -159.5zM1112 845q-34 0 -141 -125q-147 -215 -355 -507q106 79 223.5 199.5t200 239t83.5 180.5q0 13 -11 13z" />
<glyph unicode="&#xd9;" horiz-adv-x="950" d="M815 1028q35 0 63.5 -14.5t45 -40t16.5 -56.5q0 -33 -14 -72.5t-35.5 -74t-48.5 -64.5q-170 -190 -171 -192q-3 -3 -3 -9q0 -14 13 -14q7 0 15 6q5 4 52 39t112 84t142.5 107t144.5 109t117.5 90t61.5 49q24 21 58 21q15 0 27 -5t20 -15.5t8 -25.5q0 -32 -39 -79 q-2 -2 -112.5 -125.5t-207 -233t-196.5 -230.5t-125 -164q-6 -11 -6 -19t9 -8q7 0 17 5q4 2 75 48t94 46q17 0 17 -16q0 -35 -65 -84.5t-148.5 -84.5t-135.5 -35q-49 0 -79.5 28t-36.5 86q4 84 126 244q10 10 10 19q0 4 -4 4q-12 0 -60.5 -33.5t-113 -82t-133 -96.5 t-133 -82t-101.5 -34t-64 26.5t-38.5 62t-11.5 71.5q0 45 30 103t80.5 117.5t110.5 120t126 118t120.5 103.5t100.5 84.5t61 53.5q6 4 6 10q0 4 -7 4q-17 0 -80 -34.5t-74 -34.5q-26 0 -31 20q0 42 76.5 85.5t169 69t149.5 25.5zM1102 1329q44 0 104.5 -44t103 -102.5 t42.5 -98.5q0 -2 -1 -4t-2 -3.5t-3 -3t-3 -2t-4 -1.5t-3 -2q-88 73 -131 87q-7 1 -18 4.5t-40 14t-51 22t-40 30.5t-18 38q0 3 0.5 7.5t4 15.5t9.5 19.5t19 15.5t31 7z" />
<glyph unicode="&#xda;" horiz-adv-x="950" d="M815 1028q-42 0 -108 -16t-130 -40t-110.5 -58t-46.5 -66q5 -20 31 -20q11 0 74 34.5t80 34.5q7 0 7 -4q0 -6 -6 -10q-15 -15 -61 -53.5t-100.5 -84.5t-120.5 -103.5t-126 -118t-110.5 -120t-80.5 -117.5t-30 -103q0 -36 11.5 -71.5t38.5 -62t64 -26.5q31 0 82.5 24.5 t106 61t113.5 79t107 79t84.5 60.5t47.5 24q4 0 4 -4q0 -9 -10 -19q-122 -160 -126 -244q6 -58 36.5 -86t79.5 -28q52 0 135.5 35t148.5 84.5t65 84.5q0 16 -17 16q-23 0 -94 -46t-75 -48q-10 -5 -17 -5q-9 0 -9 8t6 19q25 43 125 164t196.5 230.5t207 233t112.5 125.5 q39 47 39 79q0 22 -16 34t-39 12q-34 0 -58 -21q-21 -19 -171.5 -133t-302.5 -227.5t-156 -117.5q-8 -6 -15 -6q-13 0 -13 14q0 6 3 9q1 2 171 192q42 47 70 104.5t28 106.5q0 48 -36 79.5t-89 31.5zM1498 1248q7 -19 7 -30q0 -22 -19 -38.5t-46 -25.5t-54.5 -14t-46.5 -7 l-19 -1q-19 -3 -55 -18.5t-62 -29.5l-27 -14q-12 6 -12 19q0 28 44.5 75.5t108.5 85t110 37.5q19 0 31.5 -3t22.5 -11.5t17 -24.5z" />
<glyph unicode="&#xdb;" horiz-adv-x="950" d="M815 1028q-42 0 -108 -16t-130 -40t-110.5 -58t-46.5 -66q5 -20 31 -20q11 0 74 34.5t80 34.5q7 0 7 -4q0 -6 -6 -10q-15 -15 -61 -53.5t-100.5 -84.5t-120.5 -103.5t-126 -118t-110.5 -120t-80.5 -117.5t-30 -103q0 -36 11.5 -71.5t38.5 -62t64 -26.5q31 0 82.5 24.5 t106 61t113.5 79t107 79t84.5 60.5t47.5 24q4 0 4 -4q0 -9 -10 -19q-122 -160 -126 -244q6 -58 36.5 -86t79.5 -28q52 0 135.5 35t148.5 84.5t65 84.5q0 16 -17 16q-23 0 -94 -46t-75 -48q-10 -5 -17 -5q-9 0 -9 8t6 19q25 43 125 164t196.5 230.5t207 233t112.5 125.5 q39 47 39 79q0 22 -16 34t-39 12q-34 0 -58 -21q-21 -19 -171.5 -133t-302.5 -227.5t-156 -117.5q-8 -6 -15 -6q-13 0 -13 14q0 6 3 9q1 2 171 192q42 47 70 104.5t28 106.5q0 48 -36 79.5t-89 31.5zM1405 1045q-16 0 -30.5 11t-23.5 25.5t-17.5 38t-12 38t-8.5 36.5 q-21 -6 -97.5 -21t-106.5 -31q-16 -6 -28 -6q-15 0 -15 13q0 22 22.5 52t61 57.5t97.5 47t122 19.5q22 0 44.5 -73.5t22.5 -136.5q0 -70 -31 -70z" />
<glyph unicode="&#xdc;" horiz-adv-x="950" d="M815 1028q-42 0 -108 -16t-130 -40t-110.5 -58t-46.5 -66q5 -20 31 -20q11 0 74 34.5t80 34.5q7 0 7 -4q0 -6 -6 -10q-15 -15 -61 -53.5t-100.5 -84.5t-120.5 -103.5t-126 -118t-110.5 -120t-80.5 -117.5t-30 -103q0 -36 11.5 -71.5t38.5 -62t64 -26.5q31 0 82.5 24.5 t106 61t113.5 79t107 79t84.5 60.5t47.5 24q4 0 4 -4q0 -9 -10 -19q-122 -160 -126 -244q6 -58 36.5 -86t79.5 -28q52 0 135.5 35t148.5 84.5t65 84.5q0 16 -17 16q-23 0 -94 -46t-75 -48q-10 -5 -17 -5q-9 0 -9 8t6 19q25 43 125 164t196.5 230.5t207 233t112.5 125.5 q39 47 39 79q0 22 -16 34t-39 12q-34 0 -58 -21q-21 -19 -171.5 -133t-302.5 -227.5t-156 -117.5q-8 -6 -15 -6q-13 0 -13 14q0 6 3 9q1 2 171 192q42 47 70 104.5t28 106.5q0 48 -36 79.5t-89 31.5zM1022 1090q-24 0 -38.5 17t-16.5 34l-2 17q3 37 23 66t46.5 44t49.5 23 t38 8q32 0 45.5 -17.5t13.5 -41.5q0 -16 -11 -38.5t-30 -46.5t-50.5 -42.5t-67.5 -22.5zM1240 1079q-15 0 -27 7t-17.5 16.5t-9 19.5t-3.5 17l-1 7q4 37 24 66t46 44.5t49 23t38 7.5q32 0 45.5 -17.5t13.5 -41.5q0 -15 -10.5 -38t-29.5 -46.5t-50.5 -42t-67.5 -22.5z" />
<glyph unicode="&#xdd;" horiz-adv-x="783" d="M770 696q3 2 6.5 6.5t12.5 18.5t16 28t13 34t6 38q0 85 -44.5 124t-118.5 39q-59 0 -131.5 -23.5t-130 -56t-96.5 -70.5t-39 -65q0 -16 10.5 -26.5t23.5 -10.5q8 0 36.5 14.5t57.5 31.5t57.5 34.5t30.5 18.5q9 7 20 7q5 0 5 -4q0 -2 -2 -7q-22 -40 -101.5 -120 t-163.5 -155t-160 -152.5t-92 -114.5q-21 -43 -21 -92q0 -34 13.5 -67.5t45.5 -59.5t75 -26q33 0 83.5 18t98 42t110.5 61.5t101 62t89.5 59t57.5 38.5q33 22 41 22q3 0 3 -3q0 -5 -9 -16q-47 -45 -257.5 -279t-253.5 -293q-37 -49 -57 -88.5t-20 -78.5q0 -32 24.5 -73.5 t56.5 -41.5q12 0 24 10.5t28 34t32.5 50.5t46 72t59.5 87q36 49 113.5 143t164 194.5t189.5 219t179 204.5t145 164t75 84q9 11 38 43t47 53.5t34 47.5t16 42q0 15 -4 25.5t-11 15.5t-14 7t-14 2q-26 0 -48 -21q-102 -108 -247 -229.5t-269.5 -211.5t-209 -148t-103.5 -68 q-16 -10 -25 -10q-8 0 -8 13l1 10q10 13 71.5 75t145.5 151t147 166zM1361 1214q7 -19 7 -30q0 -22 -19 -39t-46 -25.5t-54 -14t-46 -6.5l-19 -2q-20 -3 -56 -18.5t-62 -29.5l-26 -14q-13 7 -13 19q0 21 27.5 55.5t67 66t86.5 54.5t82 23q29 0 44.5 -8t26.5 -31z" />
<glyph unicode="&#xde;" horiz-adv-x="902" d="M291 60q52 64 125 155q-43 14 -43 49q0 27 19.5 40t42.5 13q14 0 24 -2q23 -3 36 -3q37 46 120 149t125 155q-92 -17 -183.5 -42t-163.5 -52.5t-116.5 -56.5t-44.5 -52q0 -4 8 -4q14 0 64 18t68 18q17 0 21 -12q0 -23 -36.5 -50t-94 -46t-111.5 -19q-71 0 -116 37.5 t-45 119.5t82 164.5t206.5 142t277 97t289.5 37.5q58 0 128 -10q11 13 22 27t17 21.5t8 8.5q34 49 64 49q15 0 28.5 -10t13.5 -26q0 -10 -62 -93q192 -70 192 -255q0 -45 -30 -96.5t-91.5 -104t-145 -97t-203 -76.5t-253.5 -39q-59 -71 -106.5 -129t-60.5 -74 q-6 -8 -19.5 -16t-26.5 -8q-16 0 -27 15t-11 30q0 16 9 27zM1166 608q1 17 -45.5 27t-119.5 10q-60 0 -127 -9q-57 -72 -256 -316q90 11 184.5 38.5t175 64.5t133.5 86t55 99z" />
<glyph unicode="&#xdf;" horiz-adv-x="774" d="M117 -144q-71 -78 -98 -78q-26 0 -37.5 27t-11.5 63q0 65 64.5 201t159 286t194 289.5t178.5 230.5t102 91q45 0 81 -14t57 -35t34.5 -47.5t18.5 -49t5 -42.5q0 -39 -8.5 -71.5t-23 -58.5t-38 -50.5t-50.5 -44t-63 -40.5q-13 -10 -13 -18q0 -3 10 -5q21 0 42.5 -5.5 t45.5 -20.5t42.5 -38.5t30.5 -63.5t12 -91q0 -59 -15.5 -111.5t-41.5 -91t-60 -70.5t-70.5 -52.5t-73 -35t-67.5 -21t-55 -6.5q-14 0 -33 4t-42.5 14.5t-43 25.5t-32.5 42t-13 60q0 50 22 98.5t41 51.5q1 0 6 -2.5t13.5 -5.5t19.5 -6.5t26 -5.5t30 -2q54 0 103 22.5 t81.5 56.5t51.5 71.5t19 68.5q0 26 -14.5 41t-42.5 15q-41 0 -62 -9h-6q-12 0 -22 5t-16.5 13.5t-6.5 17.5q0 23 38 39q8 5 21.5 13t48.5 31t61.5 43t48 42.5t21.5 36.5q0 7 -2 12.5t-12.5 11t-29.5 5.5q-58 0 -144 -86.5t-167 -209.5t-153.5 -246t-116.5 -209z" />
<glyph unicode="&#xe0;" d="M143 -12q-17 0 -31.5 6.5t-23 16t-15.5 21t-10 23.5t-5 21.5t-3 15.5v6q0 38 22.5 86.5t65.5 97t98 89t127 66t145 25.5q48 0 91 -26t43 -59q0 -14 -15 -24.5t-28.5 -14t-24.5 -4.5q-20 -4 -65.5 -27t-94.5 -52t-85.5 -61t-36.5 -51q0 -6 4.5 -11t10.5 -5q24 0 80.5 41 t111 82t73.5 41q10 0 16 -8t6 -18q0 -5 -2 -11t-5 -12t-8 -13t-10 -13t-12 -14t-12.5 -14t-13.5 -14.5t-13 -13.5q-12 -12 -22 -25t-17.5 -24.5t-13 -21.5t-8.5 -18t-3 -13q0 -4 2.5 -6.5t5.5 -3.5h2q8 0 36.5 18t60.5 41t40 27q9 4 16 4q9 0 14.5 -6t5.5 -14t-30 -32.5 t-69.5 -51t-81.5 -47t-64 -20.5q-17 0 -36.5 14.5t-19.5 32.5q0 21 10 44t10 31q0 7 -4 7t-9 -2q-20 -16 -48.5 -35t-79 -45t-77.5 -26zM402 744q44 0 104.5 -43.5t103 -102t42.5 -98.5q0 -3 -1 -5t-2 -3l-3 -3t-3 -2t-3.5 -1.5t-3.5 -1.5q-87 72 -131 86q-6 2 -17.5 5 t-40 13.5t-50.5 22t-40.5 30.5t-18.5 39q0 1 0.5 3.5t2 9t3.5 12.5t7 13.5t11 13t16.5 9t23.5 3.5z" />
<glyph unicode="&#xe1;" d="M143 -12q-17 0 -31.5 6.5t-23 16t-15.5 21t-10 23.5t-5 21.5t-3 15.5v6q0 38 22.5 86.5t65.5 97t98 89t127 66t145 25.5q48 0 91 -26t43 -59q0 -14 -15 -24.5t-28.5 -14t-24.5 -4.5q-20 -4 -65.5 -27t-94.5 -52t-85.5 -61t-36.5 -51q0 -6 4.5 -11t10.5 -5q24 0 80.5 41 t111 82t73.5 41q10 0 16 -8t6 -18q0 -5 -2 -11t-5 -12t-8 -13t-10 -13t-12 -14t-12.5 -14t-13.5 -14.5t-13 -13.5q-12 -12 -22 -25t-17.5 -24.5t-13 -21.5t-8.5 -18t-3 -13q0 -4 2.5 -6.5t5.5 -3.5h2q8 0 36.5 18t60.5 41t40 27q9 4 16 4q9 0 14.5 -6t5.5 -14t-30 -32.5 t-69.5 -51t-81.5 -47t-64 -20.5q-17 0 -36.5 14.5t-19.5 32.5q0 21 10 44t10 31q0 7 -4 7t-9 -2q-20 -16 -48.5 -35t-79 -45t-77.5 -26zM927 672q8 -19 8 -30q0 -22 -19 -38.5t-46.5 -25.5t-54.5 -14t-46 -7l-19 -1q-20 -3 -56 -18.5t-62 -29.5l-26 -14q-13 6 -13 19 q0 28 45 75.5t109 85t110 37.5q28 0 44 -8t26 -31z" />
<glyph unicode="&#xe2;" d="M143 -12q-17 0 -31.5 6.5t-23 16t-15.5 21t-10 23.5t-5 21.5t-3 15.5v6q0 38 22.5 86.5t65.5 97t98 89t127 66t145 25.5q48 0 91 -26t43 -59q0 -14 -15 -24.5t-28.5 -14t-24.5 -4.5q-20 -4 -65.5 -27t-94.5 -52t-85.5 -61t-36.5 -51q0 -6 4.5 -11t10.5 -5q24 0 80.5 41 t111 82t73.5 41q10 0 16 -8t6 -18q0 -5 -2 -11t-5 -12t-8 -13t-10 -13t-12 -14t-12.5 -14t-13.5 -14.5t-13 -13.5q-12 -12 -22 -25t-17.5 -24.5t-13 -21.5t-8.5 -18t-3 -13q0 -4 2.5 -6.5t5.5 -3.5h2q8 0 36.5 18t60.5 41t40 27q9 4 16 4q9 0 14.5 -6t5.5 -14t-30 -32.5 t-69.5 -51t-81.5 -47t-64 -20.5q-17 0 -36.5 14.5t-19.5 32.5q0 21 10 44t10 31q0 7 -4 7t-9 -2q-20 -16 -48.5 -35t-79 -45t-77.5 -26zM746 441q-17 0 -31.5 11t-23.5 25t-17 37.5t-11.5 38t-8.5 36.5q-21 -6 -98 -21t-107 -31q-16 -6 -27 -6q-16 0 -16 13q0 18 14 40.5 t41.5 46.5t63.5 44t84.5 32.5t100.5 12.5q7 0 15 -10t15.5 -26.5t14 -38t11.5 -44.5t7.5 -47t2.5 -44q0 -69 -30 -69z" />
<glyph unicode="&#xe3;" d="M818 615q-1 -4 -4.5 -11.5t-16 -26t-28.5 -32.5t-45 -25.5t-63 -11.5q-30 5 -61 26.5t-57.5 41.5t-44.5 23q-15 0 -25.5 -9.5t-18.5 -9.5q-6 1 -11.5 3.5t-9.5 6.5t-7 9.5t-3 11.5v1q19 37 58 62.5t79 25.5q26 0 60 -20t67 -40.5t55 -20.5q11 0 18.5 5t10 11t6.5 11t9 5 q11 -1 21.5 -12.5t10.5 -23.5zM143 -12q-17 0 -31.5 6.5t-23 16t-15.5 21t-10 23.5t-5 21.5t-3 15.5v6q0 38 22.5 86.5t65.5 97t98 89t127 66t145 25.5q48 0 91 -26t43 -59q0 -14 -15 -24.5t-28.5 -14t-24.5 -4.5q-20 -4 -65.5 -27t-94.5 -52t-85.5 -61t-36.5 -51 q0 -6 4.5 -11t10.5 -5q24 0 80.5 41t111 82t73.5 41q10 0 16 -8t6 -18q0 -5 -2 -11t-5 -12t-8 -13t-10 -13t-12 -14t-12.5 -14t-13.5 -14.5t-13 -13.5q-12 -12 -22 -25t-17.5 -24.5t-13 -21.5t-8.5 -18t-3 -13q0 -4 2.5 -6.5t5.5 -3.5h2q8 0 36.5 18t60.5 41t40 27q9 4 16 4 q9 0 14.5 -6t5.5 -14t-30 -32.5t-69.5 -51t-81.5 -47t-64 -20.5q-17 0 -36.5 14.5t-19.5 32.5q0 21 10 44t10 31q0 7 -4 7t-9 -2q-20 -16 -48.5 -35t-79 -45t-77.5 -26z" />
<glyph unicode="&#xe4;" d="M143 -12q-17 0 -31.5 6.5t-23 16t-15.5 21t-10 23.5t-5 21.5t-3 15.5v6q0 38 22.5 86.5t65.5 97t98 89t127 66t145 25.5q48 0 91 -26t43 -59q0 -14 -15 -24.5t-28.5 -14t-24.5 -4.5q-20 -4 -65.5 -27t-94.5 -52t-85.5 -61t-36.5 -51q0 -6 4.5 -11t10.5 -5q24 0 80.5 41 t111 82t73.5 41q10 0 16 -8t6 -18q0 -5 -2 -11t-5 -12t-8 -13t-10 -13t-12 -14t-12.5 -14t-13.5 -14.5t-13 -13.5q-12 -12 -22 -25t-17.5 -24.5t-13 -21.5t-8.5 -18t-3 -13q0 -4 2.5 -6.5t5.5 -3.5h2q8 0 36.5 18t60.5 41t40 27q9 4 16 4q9 0 14.5 -6t5.5 -14t-30 -32.5 t-69.5 -51t-81.5 -47t-64 -20.5q-17 0 -36.5 14.5t-19.5 32.5q0 21 10 44t10 31q0 7 -4 7t-9 -2q-20 -16 -48.5 -35t-79 -45t-77.5 -26zM480 511q-25 0 -39.5 17t-16.5 34l-2 17q3 37 23 66t46.5 44.5t49.5 23t38 7.5q32 0 45.5 -17.5t13.5 -41.5q0 -16 -11 -38.5 t-29.5 -46.5t-50 -42.5t-67.5 -22.5zM697 500q-24 0 -38.5 17t-16.5 33l-3 17q4 37 24 66.5t46 44.5t49 22.5t38 7.5q33 0 46 -17.5t13 -41.5q0 -12 -6.5 -29t-20 -36.5t-31.5 -37t-44.5 -30.5t-55.5 -16z" />
<glyph unicode="&#xe5;" d="M717 714q17 0 30 -5.5t19 -14t9.5 -16.5t4.5 -14v-6q0 -35 -19.5 -63.5t-48.5 -44t-56 -24t-47 -8.5q-42 0 -62.5 15t-20.5 39q0 46 58.5 94t132.5 48zM645 580q1 1 3.5 1.5t8.5 3.5t11.5 6t12.5 8t11.5 10t8 12.5t3.5 14.5q0 16 -16 16q-10 0 -21.5 -5.5t-20.5 -14 t-15 -19t-6 -18.5q0 -15 20 -15zM143 -12q-17 0 -31.5 6.5t-23 16t-15.5 21t-10 23.5t-5 21.5t-3 15.5v6q0 38 22.5 86.5t65.5 97t98 89t127 66t145 25.5q48 0 91 -26t43 -59q0 -14 -15 -24.5t-28.5 -14t-24.5 -4.5q-20 -4 -65.5 -27t-94.5 -52t-85.5 -61t-36.5 -51 q0 -6 4.5 -11t10.5 -5q24 0 80.5 41t111 82t73.5 41q10 0 16 -8t6 -18q0 -5 -2 -11t-5 -12t-8 -13t-10 -13t-12 -14t-12.5 -14t-13.5 -14.5t-13 -13.5q-12 -12 -22 -25t-17.5 -24.5t-13 -21.5t-8.5 -18t-3 -13q0 -4 2.5 -6.5t5.5 -3.5h2q8 0 36.5 18t60.5 41t40 27q9 4 16 4 q9 0 14.5 -6t5.5 -14t-30 -32.5t-69.5 -51t-81.5 -47t-64 -20.5q-17 0 -36.5 14.5t-19.5 32.5q0 21 10 44t10 31q0 7 -4 7t-9 -2q-20 -16 -48.5 -35t-79 -45t-77.5 -26z" />
<glyph unicode="&#xe6;" horiz-adv-x="908" d="M674 68q38 0 116.5 40t146 80.5t80.5 40.5q9 0 14.5 -6t5.5 -14q-1 -11 -57.5 -48.5t-132.5 -78.5t-161.5 -73.5t-133.5 -32.5q-46 0 -71 23q-61 -32 -84 -32q-17 0 -36.5 14.5t-19.5 32.5q0 21 10 44t10 31q0 7 -4 7t-9 -2q-20 -16 -48.5 -35t-79 -45t-77.5 -26 q-17 0 -31.5 6.5t-23 16t-15.5 21t-10 23.5t-5 21.5t-3 15.5v6q0 38 22.5 86.5t65.5 97t98 89t127 66t145 25.5q51 0 92 -27q61 50 152 83.5t163 33.5q64 0 105.5 -24t41.5 -72q0 -26 -22 -52t-51.5 -42.5t-54.5 -27t-35 -10.5q-11 0 -20.5 5.5t-9.5 13.5q0 6 20 14 t39.5 18.5t19.5 21.5q0 8 -16 8q-25 0 -140.5 -45.5t-115.5 -64.5q0 -16 42 -16q9 0 33 4t37 4q49 0 49 -49q0 -21 -29.5 -45.5t-65.5 -43t-66 -38t-30 -30.5q0 -10 23 -13zM312 127q28 0 141.5 61.5t138.5 70.5q-17 8 -25.5 13t-18.5 17.5t-12 28.5q-46 -20 -99 -51 t-96.5 -67t-43.5 -57q0 -6 4.5 -11t10.5 -5z" />
<glyph unicode="&#xe7;" horiz-adv-x="516" d="M660 228q-1 -11 -59 -51.5t-135 -85t-162.5 -80t-132.5 -35.5q0 -3 0.5 -5.5t2 -5.5t3.5 -5.5t5.5 -5.5t8 -6t11.5 -7q30 -19 30 -58q0 -17 -8 -31.5t-27 -24.5t-46 -10q-29 0 -60.5 8t-45.5 17q-13 6 -24 31.5t-11 42.5q0 24 22 24q15 0 34 -8q4 -1 11 -3.5t16.5 -5 t18.5 -5t18 -3.5t15 -1q13 0 13 7q0 6 -12.5 17t-25 25t-12.5 27v4q-25 15 -40.5 38.5t-15.5 49.5q0 52 30 109t79 104.5t106 86.5t115.5 61t104.5 22q31 0 53.5 -3.5t42.5 -12t30.5 -27t10.5 -45.5q0 -29 -30 -71t-71 -72.5t-69 -30.5q-29 0 -29 17q0 12 14 20 q16 8 50.5 40t34.5 44q0 4 -8 4q-33 0 -90.5 -45t-101 -100.5t-43.5 -84.5q0 -23 26 -23q24 0 80 29.5t138.5 80t98.5 58.5q8 5 15 5q5 0 9 -2t6.5 -4.5t4 -6.5t1.5 -7z" />
<glyph unicode="&#xe8;" horiz-adv-x="515" d="M281 68q30 0 85.5 25t106 55.5t95.5 55.5t56 25q9 0 14.5 -6t5.5 -14q-1 -11 -58 -48.5t-132.5 -78.5t-161 -73.5t-134.5 -32.5q-54 0 -76.5 30t-22.5 75q0 24 25.5 52t56.5 48t56.5 37t25.5 22q0 7 -12.5 14t-27.5 13.5t-27.5 21.5t-12.5 36q0 54 66.5 108t156 86.5 t161.5 32.5q41 0 73.5 -10t53 -32t20.5 -54q0 -18 -10.5 -36t-27 -32t-36 -26.5t-37.5 -20.5t-32 -12.5t-20 -4.5q-11 0 -20.5 5.5t-9.5 13.5q0 6 20 14t39.5 18.5t19.5 21.5q0 8 -16 8q-14 0 -76.5 -21.5t-121 -48.5t-58.5 -40q0 -16 42 -16q8 0 32.5 4t37.5 4q49 0 49 -49 q0 -21 -30 -45.5t-65.5 -43t-65.5 -38t-30 -30.5q0 -10 23 -13zM410 845q45 0 105.5 -43.5t103 -102.5t42.5 -99q0 -2 -1 -4t-2 -3.5t-3.5 -3t-3 -2t-3.5 -1.5l-3 -1q-88 72 -131 86q-7 2 -18 5t-40 13.5t-51 22t-40 30.5t-18 38q0 3 0.5 7.5t4 15.5t9.5 19.5t19 15.5t30 7z " />
<glyph unicode="&#xe9;" horiz-adv-x="515" d="M281 68q30 0 85.5 25t106 55.5t95.5 55.5t56 25q9 0 14.5 -6t5.5 -14q-1 -11 -58 -48.5t-132.5 -78.5t-161 -73.5t-134.5 -32.5q-54 0 -76.5 30t-22.5 75q0 24 25.5 52t56.5 48t56.5 37t25.5 22q0 7 -12.5 14t-27.5 13.5t-27.5 21.5t-12.5 36q0 54 66.5 108t156 86.5 t161.5 32.5q41 0 73.5 -10t53 -32t20.5 -54q0 -18 -10.5 -36t-27 -32t-36 -26.5t-37.5 -20.5t-32 -12.5t-20 -4.5q-11 0 -20.5 5.5t-9.5 13.5q0 6 20 14t39.5 18.5t19.5 21.5q0 8 -16 8q-14 0 -76.5 -21.5t-121 -48.5t-58.5 -40q0 -16 42 -16q8 0 32.5 4t37.5 4q49 0 49 -49 q0 -21 -30 -45.5t-65.5 -43t-65.5 -38t-30 -30.5q0 -10 23 -13zM880 789q7 -19 7 -30q0 -22 -19 -39t-46 -25.5t-54 -14t-46 -6.5l-19 -2q-20 -3 -56 -18.5t-62 -29.5l-26 -13q-13 6 -13 18q0 29 44.5 76.5t108.5 85t110 37.5q29 0 44.5 -8t26.5 -31z" />
<glyph unicode="&#xea;" horiz-adv-x="515" d="M281 68q30 0 85.5 25t106 55.5t95.5 55.5t56 25q9 0 14.5 -6t5.5 -14q-1 -11 -58 -48.5t-132.5 -78.5t-161 -73.5t-134.5 -32.5q-54 0 -76.5 30t-22.5 75q0 24 25.5 52t56.5 48t56.5 37t25.5 22q0 7 -12.5 14t-27.5 13.5t-27.5 21.5t-12.5 36q0 54 66.5 108t156 86.5 t161.5 32.5q41 0 73.5 -10t53 -32t20.5 -54q0 -18 -10.5 -36t-27 -32t-36 -26.5t-37.5 -20.5t-32 -12.5t-20 -4.5q-11 0 -20.5 5.5t-9.5 13.5q0 6 20 14t39.5 18.5t19.5 21.5q0 8 -16 8q-14 0 -76.5 -21.5t-121 -48.5t-58.5 -40q0 -16 42 -16q8 0 32.5 4t37.5 4q49 0 49 -49 q0 -21 -30 -45.5t-65.5 -43t-65.5 -38t-30 -30.5q0 -10 23 -13zM723 528q-17 0 -31.5 11t-23.5 25.5t-17 38t-12 38t-8 36.5q-21 -6 -98 -21t-107 -31q-16 -6 -27 -6q-16 0 -16 13q0 18 14 40.5t41.5 46.5t63.5 43.5t84.5 32.5t100.5 13q7 0 15 -10t15.5 -26.5t14 -38 t11 -44.5t7.5 -47t3 -44q0 -70 -30 -70z" />
<glyph unicode="&#xeb;" horiz-adv-x="515" d="M281 68q30 0 85.5 25t106 55.5t95.5 55.5t56 25q9 0 14.5 -6t5.5 -14q-1 -11 -58 -48.5t-132.5 -78.5t-161 -73.5t-134.5 -32.5q-54 0 -76.5 30t-22.5 75q0 24 25.5 52t56.5 48t56.5 37t25.5 22q0 7 -12.5 14t-27.5 13.5t-27.5 21.5t-12.5 36q0 54 66.5 108t156 86.5 t161.5 32.5q41 0 73.5 -10t53 -32t20.5 -54q0 -18 -10.5 -36t-27 -32t-36 -26.5t-37.5 -20.5t-32 -12.5t-20 -4.5q-11 0 -20.5 5.5t-9.5 13.5q0 6 20 14t39.5 18.5t19.5 21.5q0 8 -16 8q-14 0 -76.5 -21.5t-121 -48.5t-58.5 -40q0 -16 42 -16q8 0 32.5 4t37.5 4q49 0 49 -49 q0 -21 -30 -45.5t-65.5 -43t-65.5 -38t-30 -30.5q0 -10 23 -13zM396 599q-24 0 -38.5 17t-16.5 34l-3 17q4 36 24 65.5t46 44.5t49 23t38 8q33 0 46 -17.5t13 -41.5q0 -16 -10.5 -38.5t-29.5 -46.5t-50.5 -42.5t-67.5 -22.5zM613 588q-24 0 -38.5 16.5t-16.5 33.5l-2 17 q3 37 23 66t46.5 44.5t49.5 23t38 7.5q32 0 45.5 -17.5t13.5 -41.5q0 -12 -6.5 -29t-20 -37t-32 -37t-44.5 -30t-56 -16z" />
<glyph unicode="&#xec;" horiz-adv-x="360" d="M88 -37q-29 0 -50.5 20.5t-21.5 52.5q0 33 16 73.5t43 79.5t62.5 77t73.5 68t77 51t72 27q22 0 36 -9.5t19.5 -24t7.5 -24t2 -18.5q0 -18 -41 -78.5t-94.5 -126t-112 -117t-89.5 -51.5zM255 729q45 0 105 -44t102.5 -102.5t42.5 -98.5q-1 -9 -15 -16q-88 72 -131 86 q-7 2 -18.5 5t-40 13.5t-50.5 22.5t-40 30.5t-18 38.5v3.5t1.5 9t3.5 13t7 14t11.5 12.5t16.5 9t23 4z" />
<glyph unicode="&#xed;" horiz-adv-x="328" d="M88 -37q18 0 46 18t59 47.5t64 66t63 74.5t53.5 71.5t37.5 59.5t14 36q0 9 -2 18.5t-7.5 24t-19.5 24t-36 9.5q-49 -9 -110 -50t-112.5 -95.5t-86.5 -118t-35 -112.5q0 -32 21.5 -52.5t50.5 -20.5zM772 664q7 -19 7 -30q0 -22 -19 -39t-46 -25.5t-54 -14t-46 -6.5l-19 -2 q-9 -1 -22 -5.5t-26.5 -10t-27.5 -12t-26 -12.5t-21.5 -11t-15.5 -8l-5 -3q-13 7 -13 19q0 28 44.5 76t108.5 85.5t110 37.5q29 0 44.5 -8t26.5 -31z" />
<glyph unicode="&#xee;" horiz-adv-x="360" d="M88 -37q18 0 46 18t59 47.5t64 66t63 74.5t53.5 71.5t37.5 59.5t14 36q0 9 -2 18.5t-7.5 24t-19.5 24t-36 9.5q-49 -9 -110 -50t-112.5 -95.5t-86.5 -118t-35 -112.5q0 -32 21.5 -52.5t50.5 -20.5zM554 418q-16 0 -30.5 11t-23.5 25t-17.5 37.5t-12 38t-8.5 36.5 q-22 -6 -53.5 -12.5t-55.5 -11t-50.5 -12t-44.5 -16.5q-16 -6 -28 -6q-15 0 -15 13q0 23 22.5 52.5t61 57t97.5 47t122 19.5q22 0 44.5 -73t22.5 -137q0 -69 -31 -69z" />
<glyph unicode="&#xef;" horiz-adv-x="328" d="M88 -37q18 0 46 18t59 47.5t64 66t63 74.5t53.5 71.5t37.5 59.5t14 36q0 9 -2 18.5t-7.5 24t-19.5 24t-36 9.5q-49 -9 -110 -50t-112.5 -95.5t-86.5 -118t-35 -112.5q0 -32 21.5 -52.5t50.5 -20.5zM333 482q-25 0 -39 17t-17 34l-2 17q4 37 24 66t46 44.5t49 23t38 7.5 q32 0 45.5 -17.5t13.5 -41.5q0 -15 -10.5 -38t-29.5 -46.5t-50.5 -42.5t-67.5 -23zM550 471q-24 0 -38.5 17t-16.5 34l-3 17q4 36 24 65.5t46 44.5t49 23t38 8q33 0 46 -17.5t13 -41.5q0 -16 -10.5 -39t-29.5 -46.5t-50.5 -42t-67.5 -22.5z" />
<glyph unicode="&#xf0;" horiz-adv-x="485" d="M696 769q21 0 21 -17q0 -31 -63 -56q-4 -82 -20 -167t-43.5 -166t-68.5 -152.5t-89.5 -125.5t-110.5 -85.5t-129 -31.5q-24 0 -44 8t-36.5 24t-25.5 44t-9 65q0 62 34 121.5t87 104t115.5 80t120.5 54.5t101 22q13 39 13 107v72q-59 -9 -94 -9q-14 0 -25 6.5t-11 20.5 t10 20t22 6q40 0 92 3q-6 62 -18.5 110.5t-26.5 76t-29.5 48t-27.5 29.5t-20 16.5t-8 13.5q0 64 100 73q69 -29 105 -121.5t36 -222.5q15 6 25.5 13t13.5 12zM265 94q0 -28 19 -28q59 0 112 74.5t95 195.5q-34 -19 -84 -59t-96 -94t-46 -89z" />
<glyph unicode="&#xf1;" horiz-adv-x="656" d="M29 101q0 37 79.5 126t173 163.5t130.5 74.5q22 -2 37.5 -24t15.5 -62q0 -28 -34 -73.5t-55 -66.5q-3 -3 -3 -7q0 -6 6 -6q3 0 8 3q10 7 139 91t142 92q19 11 36 11q20 0 50.5 -18t30.5 -42q0 -28 -33 -72t-73 -81.5t-73 -76t-33 -57.5q0 -11 16 -11q6 0 24 8.5t21 8.5 q20 0 20 -16q0 -37 -61 -71t-125 -34q-47 0 -77.5 23.5t-30.5 73.5q0 48 56 121l2 1q5 8 5 12t-4 4q-6 0 -13 -4q-3 -2 -59.5 -38t-118.5 -74.5t-80 -47.5q-23 -13 -43 -13q-24 0 -50 27.5t-26 54.5zM880 595q-2 -5 -5 -12t-15.5 -25.5t-28.5 -32.5t-45 -25.5t-63 -11.5 q-23 4 -48 18t-42.5 29t-37.5 28.5t-35 15.5q-15 0 -25.5 -9.5t-18.5 -9.5q-12 1 -21.5 10t-9.5 20v2q19 37 58 62.5t79 25.5q25 0 59.5 -20.5t67.5 -40.5t55 -20q11 0 18.5 5t10 11t6.5 11t9 5q11 -1 21.5 -12.5t10.5 -23.5z" />
<glyph unicode="&#xf2;" horiz-adv-x="480" d="M487 341q0 -39 46 -39q24 0 59 11t61 22t28 11q4 0 7 -2.5t5.5 -5.5t3.5 -7t1 -7q0 -16 -66.5 -41t-114.5 -25q-13 0 -25 1q-13 0 -20 -16q-20 -37 -37.5 -66t-41.5 -63t-48.5 -58t-52.5 -45t-61 -32t-68 -11q-50 0 -82.5 34.5t-32.5 106.5q0 64 26 123t67.5 102.5t91 77 t99 50t88.5 16.5q117 -13 117 -70q0 -16 -11 -35q-4 -5 -9.5 -7.5t-12 -4t-9.5 -2.5q-8 -9 -8 -18zM235 94q0 -28 18 -28q17 0 61 40t83 98t39 97q0 9 -8.5 9t-39 -22t-65 -52.5t-61.5 -70.5t-27 -71zM311 776q27 0 62 -17.5t67 -45.5t60 -60t45 -65t17 -57l-2 -4t-2 -3.5 t-3 -3t-3 -2t-3.5 -1.5l-2.5 -1q-88 72 -131 86q-7 2 -18.5 5t-40 13.5t-50.5 22t-40 30.5t-18 38v4t1.5 9t3.5 13t7 13.5t11.5 13t16.5 9t23 3.5z" />
<glyph unicode="&#xf3;" horiz-adv-x="480" d="M487 341q0 -39 46 -39q24 0 59 11t61 22t28 11q4 0 7 -2.5t5.5 -5.5t3.5 -7t1 -7q0 -16 -66.5 -41t-114.5 -25q-13 0 -25 1q-13 0 -20 -16q-20 -37 -37.5 -66t-41.5 -63t-48.5 -58t-52.5 -45t-61 -32t-68 -11q-50 0 -82.5 34.5t-32.5 106.5q0 64 26 123t67.5 102.5t91 77 t99 50t88.5 16.5q117 -13 117 -70q0 -16 -11 -35q-4 -5 -9.5 -7.5t-12 -4t-9.5 -2.5q-8 -9 -8 -18zM235 94q0 -28 18 -28q17 0 61 40t83 98t39 97q0 9 -8.5 9t-39 -22t-65 -52.5t-61.5 -70.5t-27 -71zM814 694q7 -19 7 -30q0 -22 -19 -39t-46 -25.5t-54.5 -14t-46.5 -6.5 l-19 -2q-19 -3 -55 -18.5t-62 -29.5l-27 -13q-12 6 -12 18q0 29 44.5 76.5t108.5 85t110 37.5q29 0 44.5 -8t26.5 -31z" />
<glyph unicode="&#xf4;" horiz-adv-x="480" d="M487 341q0 -39 46 -39q24 0 59 11t61 22t28 11q4 0 7 -2.5t5.5 -5.5t3.5 -7t1 -7q0 -16 -66.5 -41t-114.5 -25q-13 0 -25 1q-13 0 -20 -16q-20 -37 -37.5 -66t-41.5 -63t-48.5 -58t-52.5 -45t-61 -32t-68 -11q-50 0 -82.5 34.5t-32.5 106.5q0 64 26 123t67.5 102.5t91 77 t99 50t88.5 16.5q117 -13 117 -70q0 -16 -11 -35q-4 -5 -9.5 -7.5t-12 -4t-9.5 -2.5q-8 -9 -8 -18zM235 94q0 -28 18 -28q17 0 61 40t83 98t39 97q0 9 -8.5 9t-39 -22t-65 -52.5t-61.5 -70.5t-27 -71zM600 467q-14 0 -26 6.5t-21 20t-16 26.5t-13 33t-9 32t-7 30 q-21 -6 -97.5 -21t-106.5 -31q-16 -6 -28 -6q-15 0 -15 13q0 23 22.5 52.5t61 57t97.5 47t122 19.5q22 0 44.5 -73.5t22.5 -136.5q0 -69 -31 -69z" />
<glyph unicode="&#xf5;" horiz-adv-x="480" d="M487 341q0 -39 46 -39q24 0 59 11t61 22t28 11q4 0 7 -2.5t5.5 -5.5t3.5 -7t1 -7q0 -16 -66.5 -41t-114.5 -25q-13 0 -25 1q-13 0 -20 -16q-20 -37 -37.5 -66t-41.5 -63t-48.5 -58t-52.5 -45t-61 -32t-68 -11q-50 0 -82.5 34.5t-32.5 106.5q0 64 26 123t67.5 102.5t91 77 t99 50t88.5 16.5q117 -13 117 -70q0 -16 -11 -35q-4 -5 -9.5 -7.5t-12 -4t-9.5 -2.5q-8 -9 -8 -18zM235 94q0 -28 18 -28q17 0 61 40t83 98t39 97q0 9 -8.5 9t-39 -22t-65 -52.5t-61.5 -70.5t-27 -71zM708 619q-1 -4 -4 -11.5t-15.5 -25.5t-28.5 -32t-45 -25.5t-63 -11.5 q-30 5 -61 26t-57.5 41t-44.5 23q-15 0 -26 -9t-19 -9q-11 1 -20.5 9.5t-9.5 20.5v1q19 38 57.5 63t79.5 25q25 0 59.5 -20t67 -40t54.5 -20q11 0 18.5 4.5t10.5 10.5t7 11t9 5q11 -1 21 -12t10 -24z" />
<glyph unicode="&#xf6;" horiz-adv-x="480" d="M487 341q0 -39 46 -39q24 0 59 11t61 22t28 11q4 0 7 -2.5t5.5 -5.5t3.5 -7t1 -7q0 -16 -66.5 -41t-114.5 -25q-13 0 -25 1q-13 0 -20 -16q-20 -37 -37.5 -66t-41.5 -63t-48.5 -58t-52.5 -45t-61 -32t-68 -11q-50 0 -82.5 34.5t-32.5 106.5q0 64 26 123t67.5 102.5t91 77 t99 50t88.5 16.5q117 -13 117 -70q0 -16 -11 -35q-4 -5 -9.5 -7.5t-12 -4t-9.5 -2.5q-8 -9 -8 -18zM235 94q0 -28 18 -28q17 0 61 40t83 98t39 97q0 9 -8.5 9t-39 -22t-65 -52.5t-61.5 -70.5t-27 -71zM354 543q-24 0 -38.5 17t-16.5 34l-2 17q3 36 23 65.5t46.5 44.5t49 23 t38.5 8q32 0 45.5 -17.5t13.5 -41.5q0 -16 -11 -39t-30 -46.5t-50.5 -42t-67.5 -22.5zM572 531q-25 0 -39 17t-17 34l-2 17q4 37 24 66t46 44.5t49 23t38 7.5q32 0 45.5 -17.5t13.5 -41.5q0 -15 -10.5 -38t-29.5 -47t-50.5 -42.5t-67.5 -22.5z" />
<glyph unicode="&#xf7;" horiz-adv-x="859" d="M791 402l-679 -2q-21 0 -37 12.5t-16 38.5q0 11 7 26q5 9 95.5 14.5t226.5 7.5t203.5 3t119.5 1q69 0 93.5 -9t24.5 -38q0 -25 -14 -39.5t-24 -14.5zM445 341q31 0 45 -16.5t14 -40.5q0 -52 -59.5 -102t-117.5 -50q-39 0 -55 22t-16 49q0 8 13.5 29t36 46t60.5 44t79 19z M657 739q0 -55 -53.5 -107.5t-109.5 -58.5q-27 0 -45.5 11.5t-24.5 25.5t-6 28q0 6 6.5 22t21.5 37t35 41t49.5 35.5t62.5 18.5q18 0 31 -5.5t19 -13.5t9.5 -15.5t3.5 -13.5z" />
<glyph unicode="&#xf8;" horiz-adv-x="502" d="M52 -46q16 24 42 59q-25 36 -25 96t23.5 116.5t61 98.5t84 75.5t93.5 53t88 24.5q18 25 35.5 49.5t27.5 38t10 14.5q2 2 6 6.5t6.5 7.5t6 6.5t7 5.5t8 4t8.5 2q10 0 18 -6.5t8 -16.5q0 -13 -72 -119q71 -16 71 -61q0 -16 -12 -35q-4 -5 -9 -7.5t-11.5 -4t-9.5 -2.5 q-9 -9 -9 -18q0 -39 46 -39q19 0 45.5 7t47 15t37.5 15t19 7q3 0 6.5 -2.5t5.5 -5.5t3.5 -7t1.5 -7q0 -16 -66.5 -41t-114.5 -25q-13 0 -25 1q-13 0 -20 -16q-15 -27 -28 -49t-30 -48.5t-33.5 -47t-36 -41.5t-39.5 -36.5t-42.5 -27.5t-48 -18.5t-52.5 -6.5q-25 0 -44 9 q-10 -13 -19 -25t-14.5 -20t-7.5 -10q-2 -4 -11 -9t-17 -5q-6 0 -10.5 3t-7 7t-4 9t-1.5 10q0 13 4 17zM256 94q0 -28 19 -28q17 0 60.5 40t83 98t39.5 97q0 9 -8.5 9t-39.5 -22t-65.5 -52.5t-61.5 -70.5t-27 -71z" />
<glyph unicode="&#xf9;" horiz-adv-x="652" d="M778 197q0 -17 -39.5 -54t-93.5 -74.5t-118 -66t-107 -28.5q-70 0 -70 76q0 20 14.5 42t14.5 25q0 8 -15 8q-5 0 -11 -3q-1 0 -47 -28t-97.5 -54t-76.5 -26q-30 0 -56.5 24t-26.5 54q0 49 29 100.5t71 91t86.5 71.5t78 48.5t43.5 16.5q14 0 31 -10.5t30 -28.5t13 -34 q0 -20 -16 -33q-18 -16 -39.5 -37t-44.5 -50t-23 -43q0 -18 17 -18q30 0 86.5 43t95.5 81.5t65 68.5q38 40 73 40q24 0 51.5 -20.5t27.5 -41.5q0 -13 -8 -27q-6 -10 -56.5 -74.5t-53.5 -68.5t-8.5 -12.5t-10.5 -18.5t-5 -15q0 -7 5.5 -7t8.5 1q8 0 38.5 21.5t64.5 46.5 t43 30q8 4 15 4q5 0 9 -1.5t6.5 -4.5t4 -6.5t1.5 -7.5zM338 704q34 0 79 -27t82 -64.5t63.5 -80.5t26.5 -73q-1 -9 -14 -14q-1 -1 -2 -1q-88 72 -131 86q-7 2 -18 5t-40 13.5t-51 22t-40 30.5t-18 38v4t1.5 9t4 13t7 13.5t11 13t17 9t22.5 3.5z" />
<glyph unicode="&#xfa;" horiz-adv-x="652" d="M778 197q0 -17 -39.5 -54t-93.5 -74.5t-118 -66t-107 -28.5q-70 0 -70 76q0 20 14.5 42t14.5 25q0 8 -15 8q-5 0 -11 -3q-1 0 -47 -28t-97.5 -54t-76.5 -26q-30 0 -56.5 24t-26.5 54q0 49 29 100.5t71 91t86.5 71.5t78 48.5t43.5 16.5q14 0 31 -10.5t30 -28.5t13 -34 q0 -20 -16 -33q-18 -16 -39.5 -37t-44.5 -50t-23 -43q0 -18 17 -18q30 0 86.5 43t95.5 81.5t65 68.5q38 40 73 40q24 0 51.5 -20.5t27.5 -41.5q0 -13 -8 -27q-6 -10 -56.5 -74.5t-53.5 -68.5t-8.5 -12.5t-10.5 -18.5t-5 -15q0 -7 5.5 -7t8.5 1q8 0 38.5 21.5t64.5 46.5 t43 30q8 4 15 4q5 0 9 -1.5t6.5 -4.5t4 -6.5t1.5 -7.5zM860 649q7 -19 7 -30q0 -22 -19 -38.5t-46 -25.5t-54 -14t-46 -7l-19 -1q-13 -2 -32.5 -9t-38 -16t-35.5 -17.5t-28 -13.5l-10 -6q-13 6 -13 19q0 28 44.5 75.5t108.5 85t110 37.5q14 0 24.5 -1.5t19 -5.5t15 -12 t12.5 -20z" />
<glyph unicode="&#xfb;" horiz-adv-x="652" d="M778 197q0 -17 -39.5 -54t-93.5 -74.5t-118 -66t-107 -28.5q-70 0 -70 76q0 20 14.5 42t14.5 25q0 8 -15 8q-5 0 -11 -3q-1 0 -47 -28t-97.5 -54t-76.5 -26q-30 0 -56.5 24t-26.5 54q0 49 29 100.5t71 91t86.5 71.5t78 48.5t43.5 16.5q14 0 31 -10.5t30 -28.5t13 -34 q0 -20 -16 -33q-18 -16 -39.5 -37t-44.5 -50t-23 -43q0 -18 17 -18q30 0 86.5 43t95.5 81.5t65 68.5q38 40 73 40q24 0 51.5 -20.5t27.5 -41.5q0 -13 -8 -27q-6 -10 -56.5 -74.5t-53.5 -68.5t-8.5 -12.5t-10.5 -18.5t-5 -15q0 -7 5.5 -7t8.5 1q8 0 38.5 21.5t64.5 46.5 t43 30q8 4 15 4q5 0 9 -1.5t6.5 -4.5t4 -6.5t1.5 -7.5zM763 441q-14 0 -26 6.5t-21.5 20t-16 27t-12.5 33t-9 31.5t-7 30q-21 -6 -98 -21t-106 -31q-16 -6 -28 -6q-16 0 -16 13q0 18 14 40.5t41.5 46.5t63.5 44t85 32.5t100 12.5q8 0 16 -10t15 -26.5t13.5 -38t11.5 -44.5 t7.5 -47t2.5 -44q0 -69 -30 -69z" />
<glyph unicode="&#xfc;" horiz-adv-x="652" d="M778 197q0 -17 -39.5 -54t-93.5 -74.5t-118 -66t-107 -28.5q-70 0 -70 76q0 20 14.5 42t14.5 25q0 8 -15 8q-5 0 -11 -3q-1 0 -47 -28t-97.5 -54t-76.5 -26q-30 0 -56.5 24t-26.5 54q0 49 29 100.5t71 91t86.5 71.5t78 48.5t43.5 16.5q14 0 31 -10.5t30 -28.5t13 -34 q0 -20 -16 -33q-18 -16 -39.5 -37t-44.5 -50t-23 -43q0 -18 17 -18q30 0 86.5 43t95.5 81.5t65 68.5q38 40 73 40q24 0 51.5 -20.5t27.5 -41.5q0 -13 -8 -27q-6 -10 -56.5 -74.5t-53.5 -68.5t-8.5 -12.5t-10.5 -18.5t-5 -15q0 -7 5.5 -7t8.5 1q8 0 38.5 21.5t64.5 46.5 t43 30q8 4 15 4q5 0 9 -1.5t6.5 -4.5t4 -6.5t1.5 -7.5zM477 482q-25 0 -39 17t-17 34l-2 17q4 37 24 66t46 44.5t49 23t38 7.5q32 0 45.5 -17.5t13.5 -41.5q0 -15 -10.5 -38t-29.5 -46.5t-50.5 -42.5t-67.5 -23zM694 471q-24 0 -38.5 17t-16.5 34l-3 17q4 36 24 65.5 t46 44.5t49 23t38 8q33 0 46 -17.5t13 -41.5q0 -16 -10.5 -39t-29.5 -46.5t-50.5 -42t-67.5 -22.5z" />
<glyph unicode="&#xfd;" horiz-adv-x="527" d="M40 131q0 38 30.5 85t75 88.5t92 76.5t85 56t50.5 21q11 0 20 -14.5t13 -35t4 -39.5q0 -11 -2 -18t-4 -9.5t-7.5 -7.5t-6.5 -6q-8 -8 -51.5 -58t-49.5 -58q-4 -7 -4 -18q0 -14 12 -14q8 0 15 6q20 12 118 88.5t126 99.5q39 28 57 28q8 0 21.5 -12t13.5 -20 q0 -33 -59.5 -125.5t-134.5 -189.5t-165.5 -216.5t-130.5 -178.5q-41 -63 -82 -63q-20 0 -40 21t-20 62q0 18 4 42q4 26 27.5 66.5t60.5 87t67 82t68 77.5t42 47q6 8 6 12t-6 4q-5 0 -33 -17.5t-66.5 -34.5t-70.5 -17q-19 0 -35 13t-24 31.5t-12 34t-4 23.5zM858 672 q7 -19 7 -30q0 -22 -19 -38.5t-46 -25.5t-54 -14t-46 -7l-19 -1q-20 -3 -56 -18.5t-62 -29.5l-26 -14q-13 6 -13 19q0 28 45 75.5t108.5 85t110.5 37.5q19 0 31 -3t22 -11.5t17 -24.5z" />
<glyph unicode="&#xfe;" horiz-adv-x="610" d="M-262 -423q0 50 49.5 152.5t128.5 226.5t174.5 263t191.5 267.5t175 233t129 166.5l49 63q22 20 48 20q16 0 26.5 -15.5t10.5 -30.5q-1 -13 -156.5 -287.5t-158.5 -284.5q-5 -8 -5 -13q0 -7 8 -7q9 0 34.5 20t53 43.5t63.5 43.5t63 20q21 0 37 -4t32 -14.5t24.5 -32 t8.5 -53.5q-5 -39 -42 -100t-88.5 -119.5t-117.5 -101t-122 -42.5q-25 0 -45 10t-29.5 22t-18 22t-12.5 10q-2 0 -3.5 -1t-2.5 -2.5t-2.5 -4t-2.5 -4.5q-2 -2 -277 -456q-6 -10 -13 -20t-18.5 -24t-23.5 -25.5t-26 -22t-29.5 -16.5t-30.5 -6q-37 0 -59.5 32.5t-22.5 71.5z M553 360q-23 0 -89 -55.5t-122.5 -117.5t-56.5 -80q0 -3 6 -3q18 0 46.5 14.5t58.5 37.5t60.5 51.5t54 56t38.5 51t15 36.5q0 9 -11 9z" />
<glyph unicode="&#xff;" horiz-adv-x="527" d="M40 131q0 38 30.5 85t75 88.5t92 76.5t85 56t50.5 21q11 0 20 -14.5t13 -35t4 -39.5q0 -11 -2 -18t-4 -9.5t-7.5 -7.5t-6.5 -6q-8 -8 -51.5 -58t-49.5 -58q-4 -7 -4 -18q0 -14 12 -14q8 0 15 6q20 12 118 88.5t126 99.5q39 28 57 28q8 0 21.5 -12t13.5 -20 q0 -33 -59.5 -125.5t-134.5 -189.5t-165.5 -216.5t-130.5 -178.5q-41 -63 -82 -63q-20 0 -40 21t-20 62q0 18 4 42q4 26 27.5 66.5t60.5 87t67 82t68 77.5t42 47q6 8 6 12t-6 4q-5 0 -33 -17.5t-66.5 -34.5t-70.5 -17q-19 0 -35 13t-24 31.5t-12 34t-4 23.5zM455 508 q-24 0 -38.5 17t-16.5 34l-3 17q4 37 24 66t46 44.5t49 23t38 7.5q33 0 46 -17.5t13 -41.5q0 -15 -10.5 -38t-29.5 -47t-50.5 -42.5t-67.5 -22.5zM672 497q-24 0 -38.5 17t-16.5 34l-2 16q3 37 23 66.5t46.5 44.5t49.5 23t38 8q32 0 45.5 -17.5t13.5 -41.5q0 -16 -11 -39 t-30 -46.5t-50.5 -42t-67.5 -22.5z" />
<glyph unicode="&#x152;" horiz-adv-x="1578" d="M1744 1093q240 -2 240 -135q0 -44 -27 -98t-63 -95.5t-72 -69.5t-54 -28q-10 0 -19 9t-9 20q0 20 28 51.5t28 47.5t-36 16q-30 0 -80.5 -11t-106.5 -27.5t-115 -38t-105.5 -43t-76.5 -41t-30 -32.5q2 -10 40 -10q35 0 81.5 7t71.5 7q64 0 64 -34q0 -10 -6 -18.5t-21 -16 t-30 -14t-43 -17.5t-49 -21q-15 -7 -50 -22q-49 -22 -76.5 -34.5t-76.5 -35.5t-78 -38t-60 -33t-46 -31t-15 -22q0 -15 13.5 -22t32.5 -7q76 0 166.5 22.5t155.5 49.5t118.5 49t64.5 22q26 -1 49 -16t37.5 -37t23 -47.5t8.5 -47.5q0 -53 -57.5 -111t-144.5 -104 t-195.5 -76.5t-203.5 -30.5q-58 0 -106.5 12t-89 36t-67 65.5t-34.5 97.5q0 33 20 69q-134 -109 -262 -172.5t-233 -63.5q-37 0 -70.5 15t-62.5 45.5t-46 83t-17 121.5q0 106 46.5 211.5t123 190t174.5 158t200.5 122.5t201.5 77t178 28q28 0 58.5 -13.5t58.5 -40.5t42 -62 q117 79 291 131.5t318 52.5zM405 180q0 -52 43 -52q41 0 116 48t157 122t164.5 164t141.5 172q-29 43 -29 90q0 15 4 32q-18 -20 -36.5 -42.5t-32.5 -41.5t-23.5 -34.5t-12.5 -22.5q-1 -1 -4.5 -7t-7.5 -11t-11.5 -9.5t-16.5 -4.5q-22 0 -35 12.5t-13 28.5t20.5 50t41 63.5 t20.5 35.5q0 5 -4 5q-23 0 -101.5 -72t-163 -167t-151 -199.5t-66.5 -159.5zM1100 573q-79 -100 -167 -190q87 55 184 98t130 49q9 2 9 6t-6 8.5t-12 5.5q-93 10 -99 12q-17 3 -39 11z" />
<glyph unicode="&#x153;" horiz-adv-x="754" d="M520 68q30 0 86 25t106 55.5t95 55.5t56 25q9 0 14.5 -6t5.5 -14q-1 -11 -58 -48.5t-132.5 -78.5t-161 -73.5t-134.5 -32.5q-62 0 -87 46q-73 -54 -147 -54q-50 0 -82.5 34.5t-32.5 106.5q0 64 26 123t67.5 102.5t91 77t99 50t88.5 16.5q43 -6 68 -16q63 40 139.5 65 t138.5 25q41 0 73.5 -10t53 -32t20.5 -54q0 -18 -10.5 -36t-27 -32t-36 -26.5t-37.5 -20.5t-32 -12.5t-20 -4.5q-11 0 -20.5 5.5t-9.5 13.5q0 6 20 14t39.5 18.5t19.5 21.5q0 8 -16 8q-25 0 -140.5 -45.5t-115.5 -64.5q0 -16 42 -16q8 0 32.5 4t37.5 4q49 0 49 -49 q0 -21 -30 -45.5t-65.5 -43t-65.5 -38t-30 -30.5q0 -10 23 -13zM253 66q26 0 45 22q4 23 30.5 49.5t56 45.5t53.5 35.5t24 21.5q0 7 -12.5 13t-30.5 15.5t-27 22.5q-55 -37 -106 -94.5t-51 -102.5q0 -28 18 -28z" />
<glyph unicode="&#x178;" horiz-adv-x="783" d="M770 696q3 2 6.5 6.5t12.5 18.5t16 28t13 34t6 38q0 85 -44.5 124t-118.5 39q-59 0 -131.5 -23.5t-130 -56t-96.5 -70.5t-39 -65q0 -16 10.5 -26.5t23.5 -10.5q8 0 36.5 14.5t57.5 31.5t57.5 34.5t30.5 18.5q9 7 20 7q5 0 5 -4q0 -2 -2 -7q-22 -40 -101.5 -120 t-163.5 -155t-160 -152.5t-92 -114.5q-21 -43 -21 -92q0 -34 13.5 -67.5t45.5 -59.5t75 -26q33 0 83.5 18t98 42t110.5 61.5t101 62t89.5 59t57.5 38.5q33 22 41 22q3 0 3 -3q0 -5 -9 -16q-47 -45 -257.5 -279t-253.5 -293q-37 -49 -57 -88.5t-20 -78.5q0 -32 24.5 -73.5 t56.5 -41.5q12 0 24 10.5t28 34t32.5 50.5t46 72t59.5 87q36 49 113.5 143t164 194.5t189.5 219t179 204.5t145 164t75 84q9 11 38 43t47 53.5t34 47.5t16 42q0 15 -4 25.5t-11 15.5t-14 7t-14 2q-26 0 -48 -21q-102 -108 -247 -229.5t-269.5 -211.5t-209 -148t-103.5 -68 q-16 -10 -25 -10q-8 0 -8 13l1 10q10 13 71.5 75t145.5 151t147 166zM982 1063q-24 0 -38.5 17t-16.5 33l-3 17q4 37 24 66.5t46 44.5t49 23t38 8q33 0 46 -18t13 -42q0 -15 -10.5 -38t-29.5 -46.5t-50.5 -42t-67.5 -22.5zM1200 1051q-16 0 -27.5 7t-17 17t-9 20t-3.5 17 l-1 7q3 37 23 66t46.5 44.5t49.5 23t38 7.5q32 0 45.5 -17.5t13.5 -41.5q0 -10 -5 -24t-13.5 -29.5t-22.5 -31.5t-31 -29.5t-39.5 -23t-46.5 -12.5z" />
<glyph unicode="&#x2c6;" d="M468 441q-17 0 -31.5 11t-23.5 25t-17 37.5t-11.5 38t-8.5 36.5q-21 -6 -98 -21t-107 -31q-16 -6 -27 -6q-16 0 -16 13q0 23 23 52.5t61 57.5t97 47t123 19q22 0 44 -73t22 -137q0 -69 -30 -69z" />
<glyph unicode="&#x2dc;" d="M484 615q-2 -4 -5 -11.5t-15.5 -26t-28.5 -32.5t-45 -25.5t-63 -11.5q-30 5 -61 26.5t-57.5 41.5t-44.5 23q-15 0 -25.5 -9.5t-18.5 -9.5q-12 1 -21.5 10t-9.5 21v1q19 37 58 62.5t79 25.5q25 0 59.5 -20t67.5 -40.5t55 -20.5q11 0 18.5 5t10 11t6.5 11t9 5q7 -1 14.5 -6 t12.5 -13.5t5 -16.5z" />
<glyph unicode="&#x2000;" horiz-adv-x="690" />
<glyph unicode="&#x2001;" horiz-adv-x="1381" />
<glyph unicode="&#x2002;" horiz-adv-x="690" />
<glyph unicode="&#x2003;" horiz-adv-x="1381" />
<glyph unicode="&#x2004;" horiz-adv-x="460" />
<glyph unicode="&#x2005;" horiz-adv-x="345" />
<glyph unicode="&#x2006;" horiz-adv-x="230" />
<glyph unicode="&#x2007;" horiz-adv-x="230" />
<glyph unicode="&#x2008;" horiz-adv-x="172" />
<glyph unicode="&#x2009;" horiz-adv-x="276" />
<glyph unicode="&#x200a;" horiz-adv-x="76" />
<glyph unicode="&#x2010;" horiz-adv-x="872" d="M834 200l-678 -1q-22 0 -38 12t-16 38q0 12 7 26q22 23 418 23q82 0 186.5 -0.5t107.5 -0.5q18 0 35 -10t17 -32q0 -26 -14.5 -40.5t-24.5 -14.5z" />
<glyph unicode="&#x2011;" horiz-adv-x="872" d="M834 200l-678 -1q-22 0 -38 12t-16 38q0 12 7 26q22 23 418 23q82 0 186.5 -0.5t107.5 -0.5q18 0 35 -10t17 -32q0 -26 -14.5 -40.5t-24.5 -14.5z" />
<glyph unicode="&#x2012;" horiz-adv-x="872" d="M834 200l-678 -1q-22 0 -38 12t-16 38q0 12 7 26q22 23 418 23q82 0 186.5 -0.5t107.5 -0.5q18 0 35 -10t17 -32q0 -26 -14.5 -40.5t-24.5 -14.5z" />
<glyph unicode="&#x2013;" horiz-adv-x="538" d="M485 402l-416 -2q-11 0 -19 12.5t-8 38.5q0 13 4 26q6 12 96.5 17.5t188.5 5.5q41 0 93.5 -1t53.5 -1q10 0 18 -9.5t8 -32.5q0 -17 -4 -30.5t-8 -18.5t-7 -5z" />
<glyph unicode="&#x2014;" horiz-adv-x="1032" d="M943 402l-831 -2q-21 0 -37 12.5t-16 38.5q0 11 7 26q12 12 193 17.5t377 5.5q82 0 187 -1t107 -1q19 0 35.5 -9.5t16.5 -32.5q0 -17 -8 -30.5t-16.5 -18.5t-14.5 -5z" />
<glyph unicode="&#x2018;" horiz-adv-x="361" d="M314 511q0 -3 -1 -9t-6.5 -21t-13.5 -26.5t-25.5 -20.5t-39.5 -9q-59 0 -94 30t-35 86q1 26 17 58.5t42.5 62.5t57.5 55.5t64 40.5t60 15q7 0 12 -4.5t5 -12.5q0 -9 -11 -19q-104 -114 -106 -151q0 -7 11.5 -16t25.5 -16t25.5 -18.5t11.5 -24.5z" />
<glyph unicode="&#x2019;" horiz-adv-x="398" d="M268 655q0 4 1 9.5t6.5 20.5t13.5 26.5t25.5 21t39.5 9.5q59 0 93.5 -30.5t34.5 -86.5q0 -43 -40.5 -98.5t-98 -94.5t-101.5 -39q-8 0 -12.5 5t-4.5 12q0 9 11 19q104 114 105 151q0 7 -7.5 13.5t-18 12.5t-21.5 13t-18.5 16.5t-7.5 19.5z" />
<glyph unicode="&#x201a;" horiz-adv-x="398" d="M122 33q1 2 1 5t2.5 12t5.5 17t10 18t15.5 17.5t22 12.5t30.5 5q58 0 93 -30.5t35 -86.5q-1 -32 -25.5 -73.5t-60.5 -76t-78.5 -58.5t-76.5 -24q-7 0 -12 5t-5 12q0 9 12 19q103 114 105 151q0 8 -11.5 16.5t-25.5 15.5t-25.5 18.5t-11.5 24.5z" />
<glyph unicode="&#x201c;" horiz-adv-x="671" d="M624 511q-1 -3 -1.5 -9t-6 -21t-14 -26.5t-25.5 -20.5t-40 -9q-59 0 -93.5 30t-34.5 86q0 33 25 74t61 76t78.5 58.5t75.5 23.5q8 0 13 -4.5t5 -12.5q0 -9 -12 -19q-103 -114 -105 -151q0 -7 11.5 -16t25.5 -16t25.5 -18.5t11.5 -24.5zM376 480q0 -4 -1 -10t-6.5 -20.5 t-14 -26t-25.5 -21t-40 -9.5q-58 0 -93 30.5t-35 86.5q1 43 41.5 98.5t97.5 94.5t102 39q5 0 9 -2.5t6 -6.5t2 -9q0 -9 -11 -18q-104 -114 -106 -152q0 -7 11.5 -15.5t25.5 -16t25.5 -19t11.5 -23.5z" />
<glyph unicode="&#x201d;" horiz-adv-x="671" d="M268 655q0 4 1 9.5t6.5 20.5t13.5 26.5t25.5 21t39.5 9.5q59 0 93.5 -30.5t34.5 -86.5q0 -43 -40.5 -98.5t-98 -94.5t-101.5 -39q-8 0 -12.5 5t-4.5 12q0 9 11 19q104 114 105 151q0 7 -7.5 13.5t-18 12.5t-21.5 13t-18.5 16.5t-7.5 19.5zM516 687q0 3 0.5 9t6 21 t14 26.5t25.5 20.5t40 9q59 0 93.5 -30t34.5 -86q-1 -44 -41.5 -99t-97.5 -94t-101 -39q-8 0 -13 5t-5 12q0 9 12 19q103 114 105 151q0 8 -11.5 16.5t-25.5 15.5t-25 18.5t-11 24.5z" />
<glyph unicode="&#x201e;" horiz-adv-x="671" d="M111 33q0 2 0.5 5t2.5 12t5.5 17t10 18t15 17.5t22.5 12.5t30 5q39 0 67.5 -13.5t44.5 -40t16 -63.5q0 -43 -40.5 -98.5t-98 -94.5t-101.5 -39q-8 0 -12.5 5t-4.5 12q0 9 11 19q104 114 105 151q0 8 -11.5 16.5t-25 15.5t-25 18.5t-11.5 24.5zM359 65q0 3 1 9t6 21 t13.5 26.5t25.5 20.5t40 9q38 0 67 -13t45 -39.5t16 -63.5q-1 -44 -41.5 -99t-97.5 -94t-101 -39q-8 0 -13 4.5t-5 12.5q0 9 12 19q103 114 105 151q0 7 -11.5 16t-25 16t-25 18.5t-11.5 24.5z" />
<glyph unicode="&#x2022;" horiz-adv-x="593" d="M511 423q45 0 66 -24t21 -59q0 -49 -41 -101t-101.5 -85t-114.5 -33q-30 0 -51.5 10t-32 26.5t-15 32.5t-4.5 33q0 9 11.5 30.5t36 50.5t55.5 55.5t76.5 45t93.5 18.5z" />
<glyph unicode="&#x2026;" horiz-adv-x="1055" d="M281 181q31 0 45 -16.5t14 -40.5q0 -52 -59.5 -101.5t-117.5 -49.5q-39 0 -55 21.5t-16 48.5q0 8 13.5 29.5t36 46.5t60.5 43.5t79 18.5zM595 193q29 0 42.5 -16.5t13.5 -41.5q0 -53 -57 -103.5t-112 -50.5q-36 0 -51.5 22.5t-15.5 49.5q0 6 7.5 21.5t23.5 35.5 t36.5 38.5t50.5 31.5t62 13zM920 180q33 0 47.5 -15.5t14.5 -39.5q0 -49 -62 -95.5t-124 -46.5q-40 0 -56.5 20t-16.5 46q0 8 14 28t37.5 43.5t63 41.5t82.5 18z" />
<glyph unicode="&#x202f;" horiz-adv-x="276" />
<glyph unicode="&#x2039;" horiz-adv-x="462" d="M265 215q72 -51 92 -76t20 -61q0 -73 -17 -77q-18 0 -66.5 44t-92.5 101.5t-50 88.5v1q1 10 38 47.5t82.5 77t88 71.5t52.5 32q13 0 20 -37t7 -77q0 -25 -3 -33t-36.5 -27t-76 -41t-58.5 -34z" />
<glyph unicode="&#x203a;" horiz-adv-x="453" d="M324 251q-69 48 -90.5 73.5t-21.5 57.5q0 78 16 82q18 0 67 -44t93.5 -100.5t50.5 -87.5v-2q0 -13 -59 -68.5t-123.5 -106t-80.5 -54.5q-23 0 -23 146q4 7 38.5 26.5t76 42t56.5 35.5z" />
<glyph unicode="&#x205f;" horiz-adv-x="345" />
<glyph unicode="&#x20ac;" horiz-adv-x="1136" d="M281 618q37 73 99 135.5t133 105.5t150.5 73t154 43.5t141.5 13.5q76 0 131 -12t85.5 -34.5t44.5 -49t14 -59.5q0 -40 -20 -85.5t-48 -79.5t-60 -57t-55 -23q-36 0 -40 22q0 24 12 44t36 49.5t40 57.5q4 11 4 17q-3 9 -19 9q-45 0 -125 -57t-166 -146q32 3 61 7t43 7 l13 3q17 0 29.5 -16t15.5 -32l4 -15v-2q0 -9 -5.5 -16.5t-16.5 -13t-24.5 -9.5t-33 -6.5t-37.5 -4t-43.5 -2.5t-45.5 -1h-47q-152 0 -288.5 11t-211.5 23q-46 12 -55 68v7q0 11 4 19t10.5 12.5t14.5 7t17 2.5q55 -12 84 -16zM553 157q0 -33 9 -46t27 -13q26 0 76 33.5t95 74 t86 74.5t51 34q31 0 40 -33v-3q0 -18 -24 -52.5t-68 -75t-97.5 -77.5t-120 -61.5t-127.5 -24.5q-49 0 -93 17.5t-82.5 54.5t-65 103.5t-33.5 155.5q-15 2 -39 4.5t-35.5 4t-28.5 4.5t-25.5 5.5t-20 8t-17 11.5t-11.5 15.5t-9.5 21.5t-4.5 27l-2 13q0 44 43 44 q282 -65 448 -65q69 0 121.5 4t73.5 8t27 8q12 0 28.5 -21.5t16.5 -31.5q0 -24 -14.5 -40t-44 -24.5t-62.5 -12t-82 -4.5q-7 -7 -12 -18.5t-8.5 -24.5t-6 -27t-4 -26.5t-2.5 -22.5t-2 -16v-6z" />
<glyph unicode="&#x2122;" horiz-adv-x="1356" d="M549 416q0 -4 5 -4q4 0 25 18t69.5 62t81.5 72q39 34 83.5 78t79.5 81.5t65.5 70.5t50 52t23.5 19q12 0 25 -12.5t22 -29t15 -31t6 -19.5q0 -15 -29.5 -79t-29.5 -65l2 -3q3 0 90.5 65.5t179.5 131t107 65.5q7 0 15 -4t13.5 -10.5t9.5 -14.5t4 -15q0 -18 -83 -118 t-166 -198.5t-83 -112.5q0 -3 6 -3q3 0 16 11.5t22 11.5q15 0 15 -14.5t-36 -46.5t-91.5 -60.5t-99.5 -28.5q-35 0 -50.5 17.5t-15.5 44.5q0 40 56 112t99 105q1 1 3 3.5t2 4.5h-5q-7 0 -77.5 -62t-145.5 -124t-94 -62q-10 0 -23.5 15.5t-13.5 24.5q0 23 23.5 69t47 83 t23.5 38h-2q-3 0 -4 -1q-1 0 -71.5 -70t-127.5 -116.5t-81 -46.5q-20 0 -20 34q0 21 17.5 65t42.5 81t43 37t18 -19q0 -6 -28.5 -49.5t-28.5 -52.5zM884 785q0 -15 -76.5 -46.5t-158.5 -56t-105 -25.5q1 -1 4 -2t5.5 -2t5.5 -3t5 -5t2 -7q0 -3 -1.5 -6.5t-6 -9t-5.5 -7.5 q-6 -7 -53.5 -64.5t-51.5 -60.5q-7 -11 -76 -102t-77 -97l-6.5 -6.5t-7 -6.5t-7 -4t-8.5 -2q-10 0 -18.5 5.5t-8.5 17.5q0 26 35.5 79t71.5 92l36 39q65 75 126 136q2 0 4.5 2t5.5 5t5 4q-95 -21 -136 -21q-44 0 -80 28t-36 62q0 21 31.5 50t65.5 48t45 19q18 0 18 -13 q0 -10 -22 -25.5t-22 -16.5q0 -4 6 -4q4 0 76 21t165 42t149 21q25 0 63 -23.5t38 -54.5z" />
<glyph unicode="&#x25fc;" horiz-adv-x="518" d="M0 518h518v-518h-518v518z" />
<glyph unicode="&#xfb01;" horiz-adv-x="712" d="M472 -37q-29 0 -50.5 20.5t-21.5 52.5q0 47 31 105.5t82 113.5q-23 -13 -48.5 -27.5t-45.5 -25.5t-36.5 -20.5t-26.5 -13.5l-9 -5q12 -29 12 -71q0 -58 -33 -120.5t-85.5 -116t-118.5 -102.5t-131 -83t-124.5 -54.5t-98.5 -20.5q-33 0 -51.5 25.5t-18.5 62.5t17 74 q21 48 155.5 207t326.5 366q19 20 145.5 166.5t245 285.5t125.5 147q10 11 28.5 29t49.5 40t50 22q27 0 27 -45q0 -38 -18 -96.5t-38 -98.5q-19 -36 -221 -274.5t-204 -240.5q-7 -9 -7 -16q0 -6 6 -6q26 0 73.5 26.5t92.5 58t99.5 58t92.5 26.5q22 0 36.5 -9.5t20 -24t7 -24 t1.5 -18.5q0 -18 -40.5 -78.5t-94.5 -126t-112.5 -117t-89.5 -51.5zM279 135q-8 0 -84.5 -85.5t-150.5 -178.5t-74 -109q0 -13 24 -13q12 0 44.5 19.5t75 55.5t82 80.5t66.5 102.5t27 114q0 14 -10 14zM835 458q-24 0 -38.5 17t-16.5 34l-2 17q3 36 23 65.5t46.5 44.5t49 23 t38.5 8q32 0 45.5 -17.5t13.5 -41.5q0 -16 -11 -39t-30 -46.5t-50.5 -42t-67.5 -22.5z" />
<glyph unicode="&#xfb02;" horiz-adv-x="961" d="M860 307q-13 -17 -31.5 -43.5t-49 -81.5t-30.5 -80q0 -18 19 -18q38 0 116 40t146 80.5t80 40.5q9 0 14.5 -5.5t5.5 -11.5v-3q0 -4 -32 -28.5t-85.5 -58t-114 -66t-127 -55.5t-116.5 -23q-125 0 -125 146q0 38 16 88q-24 -10 -53.5 -20t-54 -17.5t-46 -14t-33.5 -10.5 l-12 -3q12 -29 12 -71q0 -58 -33 -120.5t-85.5 -116t-118.5 -102.5t-131 -83t-124.5 -54.5t-98.5 -20.5q-33 0 -51.5 25.5t-18.5 62.5t17 74q21 48 155.5 207t326.5 366q19 20 145.5 166.5t245 285.5t125.5 147q10 11 28.5 29t49.5 40t50 22q27 0 27 -45q0 -38 -18 -96.5 t-38 -98.5q-19 -36 -221 -274.5t-204 -240.5q-7 -9 -7 -16q0 -6 6 -6q28 0 184 45q47 95 139.5 198.5t198.5 184.5t218 133.5t194 52.5q31 0 54 -11.5t34.5 -28t16.5 -31t5 -24.5q0 -46 -47 -106t-118 -115t-151 -105t-148 -84t-106 -45zM279 135q-8 0 -84.5 -85.5 t-150.5 -178.5t-74 -109q0 -13 24 -13q12 0 44.5 19.5t75 55.5t82 80.5t66.5 102.5t27 114q0 14 -10 14zM1315 742q-24 0 -110.5 -75.5t-161.5 -150.5l-75 -75q-12 -12 -12 -18q0 -7 13 -7q37 0 123.5 67.5t157 145.5t70.5 107q0 6 -5 6z" />
</font>
</defs>
</svg>
