<?xml version="1.0" standalone="no"?>
<!DOCTYPE svg PUBLIC "-//W3C//DTD SVG 1.1//EN" "http://www.w3.org/Graphics/SVG/1.1/DTD/svg11.dtd" >
<svg xmlns="http://www.w3.org/2000/svg" xmlns:xlink="http://www.w3.org/1999/xlink" version="1.1">
<metadata></metadata>
<defs>
<font id="ralewaybold" horiz-adv-x="568" >
<font-face units-per-em="1000" ascent="800" descent="-200" />
<missing-glyph horiz-adv-x="237" />
<glyph unicode="&#xfb01;" horiz-adv-x="562" d="M92 390h-68v101h68v32q0 89 57 149.5t154 60.5q95 0 192 -65l-52 -99q-59 51 -131 51q-42 0 -64.5 -26.5t-22.5 -65.5v-37h278v-491h-133v390h-145v-390h-133v390z" />
<glyph unicode="&#xfb02;" horiz-adv-x="650" d="M652 17q-1 -2 -18.5 -7.5t-48.5 -11.5t-57 -6q-61 0 -96.5 32t-35.5 79v409q0 50 -18 79t-65 29q-87 0 -88 -111v-18h86v-101h-86v-390h-133v390h-68v101h68v44q0 95 57 146.5t160 51.5q109 0 164.5 -52t55.5 -142v-370q0 -22 12 -40t35 -18q7 0 15 1.5t15.5 3t13.5 3.5 t9.5 3.5t4.5 1.5z" />
<glyph horiz-adv-x="0" />
<glyph horiz-adv-x="0" />
<glyph horiz-adv-x="333" />
<glyph unicode="&#xd;" horiz-adv-x="0" />
<glyph unicode=" "  horiz-adv-x="237" />
<glyph unicode="&#x09;" horiz-adv-x="237" />
<glyph unicode="&#xa0;" horiz-adv-x="237" />
<glyph unicode="!" horiz-adv-x="303" d="M86 264v446h133v-446h-133zM86 0v149h133v-149h-133z" />
<glyph unicode="&#x22;" horiz-adv-x="389" d="M60 494v222h113v-222h-113zM216 494v222h113v-222h-113z" />
<glyph unicode="#" horiz-adv-x="713" d="M678 420h-144l-32 -136h130v-99h-154l-45 -185h-107l46 185h-119l-44 -185h-107l46 185h-111v99h134l33 136h-121v93h144l46 190h107l-47 -190h118l46 190h107l-47 -190h121v-93zM396 284l32 136h-118l-33 -136h119z" />
<glyph unicode="$" horiz-adv-x="627" d="M589 201q0 -52 -19 -92.5t-53.5 -64.5t-76.5 -37t-93 -15v-108h-59v110q-146 11 -254 89l60 118q21 -21 80.5 -49t122.5 -35v170q-3 1 -16 4.5t-20 5.5q-52 15 -87.5 30.5t-61.5 38t-38 52t-12 69.5q0 96 63 153.5t163 66.5v100h59v-100q115 -8 217 -77l-60 -111 q-9 10 -32.5 23.5t-60.5 27t-72 17.5v-171q9 -4 24 -7q57 -15 95 -30t69.5 -38.5t46.5 -58t15 -81.5zM203 509q0 -31 22 -49t72 -33v160q-94 -6 -94 -78zM339 115q105 3 105 72q0 33 -25.5 52t-79.5 36v-160z" />
<glyph unicode="%" horiz-adv-x="778" d="M35 563q0 63 47.5 106.5t115.5 43.5q45 0 82.5 -20t59 -54.5t21.5 -75.5q0 -63 -47.5 -106.5t-115.5 -43.5t-115.5 43.5t-47.5 106.5zM90 47l279 325l258 339l60 -54l-271 -320l-266 -344zM268 563q0 34 -21 58.5t-49 24.5q-19 0 -35 -11t-25.5 -30.5t-9.5 -41.5 q0 -35 20.5 -59.5t49.5 -24.5q19 0 35 11.5t25.5 31t9.5 41.5zM417 140q0 63 47.5 106.5t115.5 43.5q69 0 116 -43.5t47 -106.5t-47 -106.5t-116 -43.5q-68 0 -115.5 43.5t-47.5 106.5zM650 140q0 34 -20.5 59t-49.5 25t-49.5 -25t-20.5 -59t21 -59t49 -25q29 0 49.5 25 t20.5 59z" />
<glyph unicode="&#x26;" horiz-adv-x="704" d="M705 0h-174l-56 58q-88 -68 -198 -68q-106 0 -171.5 61t-65.5 148q0 106 120 195q-41 46 -57.5 79.5t-16.5 70.5q0 74 55 121t138 47q78 0 132.5 -41t54.5 -115q0 -36 -16 -69.5t-41 -59t-63 -51.5l135 -141q32 68 32 150h108q0 -131 -62 -233zM279 614 q-31 0 -51.5 -19.5t-20.5 -47.5q0 -16 11 -31.5t47 -54.5q42 27 61 47.5t19 45.5q0 27 -18.5 43.5t-47.5 16.5zM290 94q61 0 114 41l-162 172q-37 -28 -56 -53.5t-19 -55.5q0 -43 35 -73.5t88 -30.5z" />
<glyph unicode="'" horiz-adv-x="232" d="M60 494v222h113v-222h-113z" />
<glyph unicode="(" horiz-adv-x="306" d="M181 749l101 -42q-25 -38 -51.5 -92.5t-50 -133t-23.5 -140.5q0 -137 122 -345l-97 -48q-148 221 -148 396q0 92 38 188t109 217z" />
<glyph unicode=")" horiz-adv-x="305" d="M124 -52l-97 48q121 205 121 345q0 90 -41 195.5t-83 170.5l102 42q71 -120 108.5 -216.5t37.5 -188.5q0 -175 -148 -396z" />
<glyph unicode="*" horiz-adv-x="341" d="M74 515l47 70l-71 22l18 57l73 -30l-5 76h70l-5 -76l71 30l18 -57l-69 -22l46 -70l-51 -34l-45 74l-45 -74z" />
<glyph unicode="+" horiz-adv-x="416" d="M370 405v-107h-102v-112h-120v112h-101v107h101v112h120v-112h102z" />
<glyph unicode="," horiz-adv-x="229" d="M72 -114l27 118h-42v139h115v-139l-40 -118h-60z" />
<glyph unicode="-" horiz-adv-x="413" d="M57 212v120h300v-120h-300z" />
<glyph unicode="." horiz-adv-x="222" d="M57 0v143h109v-143h-109z" />
<glyph unicode="/" horiz-adv-x="691" d="M664 703l-491 -703h-146l490 703h147z" />
<glyph unicode="0" horiz-adv-x="607" d="M304 -10q-110 0 -182.5 85t-72.5 215q0 86 33 155t91.5 107.5t130.5 38.5q110 0 182.5 -85.5t72.5 -215.5t-72.5 -215t-182.5 -85zM304 469q-55 0 -89 -49.5t-34 -129t34 -129t89 -49.5q35 0 63 22t43.5 63t15.5 93t-15.5 93t-43.5 63.5t-63 22.5z" />
<glyph unicode="1" horiz-adv-x="489" d="M465 120v-120h-402v120h141v300q-18 -24 -71 -48.5t-89 -24.5v124q33 0 91.5 37t68.5 57h136v-445h125z" />
<glyph unicode="2" horiz-adv-x="558" d="M38 0q0 92 33 150t122 107q16 9 42.5 23t38.5 20.5t29.5 16.5t25 17t16 16t11.5 18t3 19q0 31 -24.5 51.5t-67.5 20.5q-74 0 -138 -76l-85 98q33 35 100 64.5t147 29.5q99 0 156 -46t57 -122q0 -33 -11.5 -60.5t-34.5 -49t-41.5 -34t-46.5 -28.5q-26 -15 -39.5 -23 t-37 -24t-39 -33t-23.5 -35h284v-120h-477z" />
<glyph unicode="3" horiz-adv-x="552" d="M515 57q0 -92 -70 -147.5t-188 -55.5q-150 0 -229 96l75 94q53 -69 150 -69q124 0 124 97q0 52 -37 79.5t-110 27.5h-28v99h31q59 0 93.5 27t34.5 70q0 39 -27 59.5t-73 20.5q-92 0 -140 -79l-83 93q30 46 95.5 73.5t142.5 27.5q101 0 164 -48t63 -127q0 -59 -35 -105 t-91 -56q62 -11 100 -59.5t38 -117.5z" />
<glyph unicode="4" horiz-adv-x="565" d="M309 -126v148h-289v118l331 425h91v-424h87v-119h-87v-148h-133zM152 141h172v223z" />
<glyph unicode="5" horiz-adv-x="548" d="M259 -148q-76 0 -137 33t-93 89l76 79q28 -38 69.5 -61t85.5 -23q54 0 88 33t34 85q0 25 -8.5 46.5t-23.5 36.5t-36 23.5t-46 8.5q-32 0 -60.5 -14.5t-45.5 -40.5h-115l81 418h346v-120h-250l-29 -158q27 29 92 29q100 0 165.5 -63t65.5 -163q0 -105 -73 -171.5 t-186 -66.5z" />
<glyph unicode="6" horiz-adv-x="600" d="M316 469q-49 0 -88 -20.5t-60 -56.5q2 63 20.5 108.5t51 69t76.5 23.5q28 0 55 -9.5t49.5 -27.5t37.5 -42l77 83q-39 53 -95 82t-122 29q-127 0 -199.5 -102.5t-72.5 -292.5q0 -152 69 -237.5t189 -85.5q109 0 183 71t74 174q0 99 -70.5 166.5t-174.5 67.5zM175 234.5 q0 53.5 38 91t92 37.5q26 0 50 -10t41.5 -27t28 -41t10.5 -50q0 -54 -39 -93.5t-91 -39.5q-53 0 -91.5 39.5t-38.5 93z" />
<glyph unicode="7" horiz-adv-x="555" d="M347 456h-319v121h528l-348 -703h-151z" />
<glyph unicode="8" horiz-adv-x="597" d="M298 -9q-70 0 -128 28t-92 79t-34 115q0 54 32.5 97t76.5 66q-37 19 -62.5 55t-25.5 77q0 60 37 105.5t89 67.5t108 22t108.5 -21.5t89.5 -67t37 -105.5q0 -41 -26.5 -78t-64.5 -55q30 -15 54.5 -38t40.5 -57t16 -73q0 -96 -74.5 -156.5t-181.5 -60.5zM299 421 q38 0 68.5 23t30.5 61q0 35 -29 57.5t-71 22.5q-41 0 -69.5 -22.5t-28.5 -58.5q0 -38 30.5 -60.5t68.5 -22.5zM298 321q-49 0 -84.5 -29.5t-35.5 -75.5t36.5 -75.5t84.5 -29.5t84.5 30.5t36.5 74.5q0 24 -10.5 44t-27.5 33t-39 20.5t-45 7.5z" />
<glyph unicode="9" horiz-adv-x="583" d="M276 86q50 0 88.5 20.5t59.5 56.5q-1 -62 -19.5 -107.5t-51 -69.5t-76.5 -24t-82 21t-61 59l-77 -84q39 -53 95.5 -81.5t122.5 -28.5q127 0 199.5 102.5t72.5 292.5q0 151 -69.5 236.5t-189.5 85.5q-109 0 -182.5 -70.5t-73.5 -173.5q0 -100 70 -167.5t174 -67.5z M418 321q0 -54 -38 -91.5t-91.5 -37.5t-92 37.5t-38.5 91.5t38.5 93t91.5 39t91.5 -39.5t38.5 -92.5z" />
<glyph unicode=":" horiz-adv-x="244" d="M68 370v143h108v-143h-108zM68 0v143h108v-143h-108z" />
<glyph unicode=";" horiz-adv-x="256" d="M71 370v143h109v-143h-109zM85 -114l27 118h-42v139h116v-139l-40 -118h-61z" />
<glyph unicode="&#x3c;" horiz-adv-x="509" d="M32 285l417 253v-141l-224 -141l224 -134v-149l-417 248v64z" />
<glyph unicode="=" horiz-adv-x="431" d="M61 318v86h310v-86h-310zM61 143v86h310v-86h-310z" />
<glyph unicode="&#x3e;" horiz-adv-x="509" d="M478 221l-418 -248v149l225 134l-225 141v141l418 -253v-64z" />
<glyph unicode="?" horiz-adv-x="481" d="M121 231q0 53 17 90t64 64q4 2 27.5 15t36 21.5t30.5 24t26.5 34t8.5 39.5q0 39 -28 62t-66 23q-69 0 -117 -79l-86 59q25 60 81.5 94t125.5 34q39 0 74.5 -11.5t65.5 -34t47.5 -61.5t17.5 -88q0 -59 -26 -96.5t-77 -70.5l-31.5 -17.5t-32.5 -19.5t-24 -20t-19.5 -28 t-5.5 -34h-109zM123 0v137h110v-137h-110z" />
<glyph unicode="@" horiz-adv-x="836" d="M787 220q0 -19 -1.5 -37.5t-6 -48t-15 -54t-26.5 -47.5t-42.5 -36t-60.5 -13q-84 0 -94 81q-32 -31 -76 -49t-93 -18q-72 0 -111.5 38t-39.5 101q0 39 16 68t43 45t58.5 23.5t67.5 7.5q63 0 112 -22q0 60 -25 91t-88 31q-80 0 -132 -43l-25 70q75 49 170 49 q49 0 84 -13.5t53 -32.5t28 -50t12 -54t2 -57v-95q0 -25 1.5 -42t6 -34.5t15.5 -26t27 -8.5q25 0 43 19t26.5 49.5t12 57.5t3.5 52q0 139 -89 230.5t-229 91.5q-92 0 -164.5 -41t-112.5 -113t-40 -162q0 -88 37.5 -160.5t108 -115.5t160.5 -43q43 0 77 9t77 29l16 -52 q-80 -40 -172 -40q-74 0 -140 27.5t-114.5 75.5t-76.5 118t-28 152q0 85 30.5 156t83 117t120 71t142.5 25q73 0 139.5 -25t117.5 -71.5t81.5 -119t30.5 -161.5zM517 159v38q-63 21 -111 21q-106 0 -106 -78q0 -34 21.5 -54t58.5 -20q48 0 86 20q51 24 51 73z" />
<glyph unicode="A" horiz-adv-x="665" d="M273 703h121l267 -703h-140l-66 175h-245l-64 -175h-141zM431 271l-97 276l-101 -276h198z" />
<glyph unicode="B" horiz-adv-x="673" d="M413 0h-340v703h376q48 0 85.5 -26.5t56.5 -67t19 -85.5q0 -53 -26.5 -98t-74.5 -66q61 -18 96 -64.5t35 -114.5q0 -85 -65 -133t-162 -48zM210 586v-177h182q35 0 59 24.5t24 64.5q0 39 -22 63.5t-55 24.5h-188zM420 301h-210v-185h203q37 0 63 26.5t26 64.5 q0 39 -24 66.5t-58 27.5z" />
<glyph unicode="C" horiz-adv-x="679" d="M377 707q63 0 117.5 -19.5t93.5 -54t62 -80.5l-105 -72q-24 55 -71.5 80t-100.5 25q-65 0 -112.5 -35.5t-69.5 -87.5t-22 -111q0 -46 15.5 -89t42 -76t65.5 -52.5t83 -19.5q54 0 102.5 26.5t70.5 80.5l112 -65q-31 -75 -114.5 -119t-174.5 -44q-58 0 -111.5 20.5 t-94.5 56t-71.5 81.5t-46.5 98.5t-16 105.5q0 65 23.5 127.5t66.5 112.5t110 80.5t146 30.5z" />
<glyph unicode="D" horiz-adv-x="708" d="M73 0v703h256q84 0 150.5 -27.5t109 -75.5t64.5 -111t22 -137q0 -159 -94 -255.5t-252 -96.5h-256zM329 583h-119v-463h119q98 0 153.5 65t55.5 167q0 104 -56 167.5t-153 63.5z" />
<glyph unicode="E" horiz-adv-x="594" d="M561 120v-120h-488v703h479v-120h-342v-169h296v-111h-296v-183h351z" />
<glyph unicode="F" d="M73 0v703h472v-120h-335v-181h279v-111h-279v-291h-137z" />
<glyph unicode="G" horiz-adv-x="717" d="M420 361h254v-361h-113v80q-85 -85 -196 -85q-91 0 -167.5 47.5t-121 130.5t-44.5 182q0 95 44.5 176t123.5 129t174 48q97 0 168.5 -41t107.5 -113l-102 -75q-26 51 -74 79.5t-105 28.5q-87 0 -143.5 -69t-56.5 -167q0 -100 59.5 -167.5t148.5 -67.5q102 0 184 97v48 h-141v100z" />
<glyph unicode="H" horiz-adv-x="737" d="M664 703v-703h-135v300h-319v-300h-137v703h137v-284h319v284h135z" />
<glyph unicode="I" horiz-adv-x="283" d="M73 0v703h137v-703h-137z" />
<glyph unicode="J" horiz-adv-x="486" d="M38 144q16 -13 49.5 -23.5t71.5 -10.5q33 0 56 10t36.5 27t20.5 48t9.5 64.5t2.5 86.5v357h137v-357q0 -50 -2.5 -87.5t-9 -76.5t-18.5 -66.5t-31.5 -53t-47 -40.5t-66 -24t-87.5 -9q-89 0 -152 44z" />
<glyph unicode="K" horiz-adv-x="662" d="M73 0v702h137v-334l295 335h150l-269 -312l286 -391h-153l-219 304l-90 -94v-210h-137z" />
<glyph unicode="L" horiz-adv-x="578" d="M73 0v703h137v-583h358v-120h-495z" />
<glyph unicode="M" horiz-adv-x="856" d="M646 0v465l-181 -346h-74l-181 346v-465h-137v703h147l208 -400l210 400h145v-703h-137z" />
<glyph unicode="N" horiz-adv-x="755" d="M210 450v-450h-137v703h106l366 -461v460h137v-702h-111z" />
<glyph unicode="O" horiz-adv-x="748" d="M31 351q0 94 44 175.5t124 131.5t177 50q74 0 139 -31t108.5 -81.5t68.5 -115t25 -131.5q0 -92 -44 -173t-123.5 -131t-176.5 -50q-74 0 -139 30.5t-109 80.5t-69 114t-25 131zM374 116q48 0 88 20.5t65 54t38.5 75t13.5 85.5q0 96 -56.5 165.5t-148.5 69.5 q-63 0 -111 -35t-71 -87.5t-23 -112.5q0 -96 56 -165.5t149 -69.5z" />
<glyph unicode="P" horiz-adv-x="616" d="M73 0v703h298q47 0 89.5 -20.5t71.5 -53.5t46 -75t17 -85q0 -93 -62 -163t-157 -70h-166v-236h-137zM210 355h158q25 0 45 14t31.5 40t11.5 60q0 52 -27.5 83t-66.5 31h-152v-228z" />
<glyph unicode="Q" horiz-adv-x="747" d="M721 0h-129l-41 46q-82 -51 -178 -51q-74 0 -139 30.5t-109 80.5t-69 114t-25 131q0 94 44 175.5t124 131.5t177 50q74 0 139 -31t108.5 -81.5t68.5 -115t25 -131.5q0 -44 -11 -87.5t-31.5 -82.5t-49.5 -71zM374 116q52 0 94 24l-108 120h129l49 -54q41 62 41 145 q0 96 -56.5 166t-148.5 70q-48 0 -87.5 -20.5t-64.5 -54t-39 -75t-14 -86.5q0 -96 56 -165.5t149 -69.5z" />
<glyph unicode="R" horiz-adv-x="658" d="M73 0v703h311q63 0 115 -34.5t80.5 -88t28.5 -111.5q0 -68 -34.5 -124t-92.5 -81l161 -264h-154l-143 236h-135v-236h-137zM210 355h171q38 0 63.5 33.5t25.5 81t-28.5 80.5t-66.5 33h-165v-228z" />
<glyph unicode="S" horiz-adv-x="606" d="M492 519q-18 20 -75.5 44.5t-113.5 24.5q-55 0 -83.5 -20.5t-28.5 -58.5q0 -17 7.5 -30t17.5 -22t34 -18t43 -14.5t58 -15.5q57 -15 95 -30t69.5 -38.5t46.5 -58t15 -81.5q0 -37 -9.5 -68t-27.5 -53.5t-41.5 -39.5t-53 -27.5t-61.5 -15.5t-67 -5q-79 0 -156.5 24 t-138.5 67l60 118q25 -25 95.5 -55.5t141.5 -30.5q55 0 84 18.5t29 53.5q0 15 -4.5 26.5t-17 21.5t-23.5 16.5t-34.5 14.5t-39 12.5t-48.5 14.5q-10 2 -16 4q-52 15 -87.5 30.5t-61.5 38t-38 52t-12 69.5q0 104 73 162.5t184 58.5q130 0 245 -78z" />
<glyph unicode="T" horiz-adv-x="612" d="M599 583h-225v-583h-135v583h-225v120h585v-120z" />
<glyph unicode="U" horiz-adv-x="742" d="M543 345v358h135v-358q0 -74 -18 -136t-54 -110.5t-96 -76t-139 -27.5q-65 0 -117.5 19t-87.5 51.5t-58.5 77.5t-34 95t-10.5 107v358h137v-358q0 -47 9 -86.5t28 -72.5t53 -51.5t80 -18.5q47 0 82 19t54 52.5t28 72.5t9 85z" />
<glyph unicode="V" horiz-adv-x="669" d="M146 703l190 -532l188 532h143l-274 -703h-115l-276 703h144z" />
<glyph unicode="W" horiz-adv-x="1042" d="M316 701h126l79 -233l79 233h127l-120 -320l89 -225l199 547h148l-286 -703h-114l-122 295l-122 -295h-115l-284 703h147l199 -547l88 225z" />
<glyph unicode="X" horiz-adv-x="639" d="M146 703l175 -261l174 261h148l-251 -357l243 -346h-148l-166 251l-168 -251h-148l243 346l-251 357h149z" />
<glyph unicode="Y" horiz-adv-x="653" d="M152 703l174 -339l176 339h147l-255 -457v-246h-136v248l-254 455h148z" />
<glyph unicode="Z" horiz-adv-x="620" d="M30 103l397 480h-386v120h543v-103l-384 -480h387v-120h-557v103z" />
<glyph unicode="[" horiz-adv-x="312" d="M81 -40v773h185v-106h-62v-561h62v-106h-185z" />
<glyph unicode="\" horiz-adv-x="630" d="M174 703l431 -703h-147l-431 703h147z" />
<glyph unicode="]" horiz-adv-x="312" d="M46 -40v106h63v561h-63v106h186v-773h-186z" />
<glyph unicode="^" horiz-adv-x="579" d="M39 300l196 403h111l195 -403h-109l-142 291l-144 -291h-107z" />
<glyph unicode="_" horiz-adv-x="470" d="M53 -120v120h364v-120h-364z" />
<glyph unicode="`" horiz-adv-x="252" d="M47 723h122l55 -118l-85 -26z" />
<glyph unicode="a" d="M25 154q0 75 61.5 121.5t159.5 46.5q75 0 126 -23v30q0 51 -29.5 79t-86.5 28q-78 0 -162 -59l-41 84q101 67 216 67q112 0 174 -55.5t62 -158.5v-162q0 -14 3 -22t10 -12.5t19 -4.5v-113q-34 -7 -59 -7q-71 0 -83 61l-3 29q-35 -45 -84 -69t-106 -24q-76 0 -126.5 47 t-50.5 117zM350 131q22 17 22 37v60q-53 20 -105 20q-51 0 -84 -23.5t-33 -59.5q0 -33 26 -55.5t64 -22.5q33 0 63 12t47 32z" />
<glyph unicode="b" horiz-adv-x="627" d="M176 90v-90h-116v723h133v-295q59 100 178 100q99 0 163 -79t64 -192q0 -112 -69.5 -189.5t-173.5 -77.5q-58 0 -105 26.5t-74 73.5zM462 256q0 65 -38.5 112t-96.5 47q-43 0 -79 -28.5t-55 -72.5v-124q13 -38 50 -62.5t76 -24.5q62 0 102.5 45t40.5 108z" />
<glyph unicode="c" horiz-adv-x="558" d="M301 528q82 0 143 -36t92 -97l-130 -40q-16 29 -44 44.5t-62 15.5q-58 0 -97 -43.5t-39 -112.5q0 -67 39.5 -111.5t96.5 -44.5q35 0 65.5 17.5t42.5 43.5l130 -39q-28 -61 -90.5 -98t-145.5 -37q-82 0 -145.5 37.5t-96 98.5t-32.5 133q0 113 75 191t198 78z" />
<glyph unicode="d" horiz-adv-x="638" d="M29 259q0 114 65.5 191.5t165.5 77.5q56 0 102.5 -27.5t73.5 -72.5v295h132v-571q0 -20 7 -29t24 -10v-113q-35 -7 -56 -7q-36 0 -59.5 17.5t-26.5 46.5l-2 33q-28 -48 -76.5 -74t-103.5 -26q-106 0 -176 77.5t-70 191.5zM436 190v124q-11 28 -32.5 51t-48.5 36.5 t-53 13.5q-59 0 -97.5 -47t-38.5 -112t41 -109t103 -44q39 0 75.5 25t50.5 62z" />
<glyph unicode="e" horiz-adv-x="593" d="M28 256q0 115 75 193.5t199 78.5q82 0 144.5 -37.5t94 -97.5t31.5 -132q0 -28 -3 -44h-401q4 -40 23.5 -69.5t49.5 -45t65 -15.5q40 0 75 19.5t48 50.5l114 -31q-29 -61 -93.5 -98.5t-148.5 -37.5q-81 0 -144.5 37t-96 97t-32.5 132zM436 303q-6 57 -43.5 93t-92.5 36 q-54 0 -91.5 -36t-42.5 -93h270z" />
<glyph unicode="f" horiz-adv-x="366" d="M92 0v390h-68v101h68v32q0 96 47 153t126 57q64 0 128 -31l-27 -100q-34 19 -72 19q-69 0 -69 -93v-37h126v-101h-126v-390h-133z" />
<glyph unicode="g" horiz-adv-x="627" d="M30 259q0 114 68 191.5t173 77.5q116 0 181 -100v91h116v-494q0 -75 -37.5 -131.5t-102 -85.5t-148.5 -29q-155 0 -242 108l72 70q30 -36 75 -57t95 -21q67 0 111.5 37t44.5 109v65q-26 -44 -72.5 -68.5t-100.5 -24.5q-102 0 -167.5 76.5t-65.5 185.5zM436 190v124 q-18 45 -56 73t-80 28q-59 0 -97 -47.5t-38 -112t41 -108.5t102 -44q42 0 77.5 25t50.5 62z" />
<glyph unicode="h" horiz-adv-x="597" d="M543 0h-133v291q0 60 -23 90t-64 30q-38 0 -77 -31t-53 -77v-303h-133v723h133v-300q19 33 48 56.5t64 36t74 12.5q164 0 164 -204v-324z" />
<glyph unicode="i" horiz-adv-x="252" d="M60 591v132h133v-132h-133zM60 0v519h133v-519h-133z" />
<glyph unicode="j" horiz-adv-x="258" d="M65 591v132h133v-132h-133zM-114 -148l58 91q21 -22 58 -22q26 0 44.5 18.5t18.5 46.5v533h133v-523q0 -83 -52 -136.5t-128 -53.5q-80 0 -132 46z" />
<glyph unicode="k" horiz-adv-x="552" d="M415 0l-151 225l-71 -71v-154h-133v723h133v-439l208 234h142l-194 -220l207 -298h-141z" />
<glyph unicode="l" horiz-adv-x="313" d="M59 723h133v-557q0 -29 14 -44.5t40 -15.5q24 0 53 14l18 -101q-57 -27 -127 -27q-62 0 -96.5 33.5t-34.5 94.5v603z" />
<glyph unicode="m" horiz-adv-x="921" d="M866 0h-132v291q0 120 -81 120q-26 0 -50.5 -14t-44 -38.5t-28.5 -56.5v-302h-133v291q0 120 -80 120q-39 0 -74 -30t-50 -78v-303h-133v519h120v-96q29 50 79 77.5t114 27.5q62 0 99 -30.5t48 -79.5q20 35 49 59.5t65 37.5t77 13q155 0 155 -204v-324z" />
<glyph unicode="n" horiz-adv-x="597" d="M543 0h-133v291q0 120 -82 120q-27 0 -54.5 -14t-49 -39t-31.5 -55v-303h-133v519h120v-96q29 49 84 77t122 28q157 0 157 -204v-324z" />
<glyph unicode="o" horiz-adv-x="599" d="M28 258q0 113 75 191.5t197 78.5t196.5 -78.5t74.5 -191.5q0 -72 -31.5 -132.5t-94.5 -98t-145 -37.5t-145 37.5t-95 98t-32 132.5zM300 103q58 0 97 44.5t39 111.5t-39 111.5t-97 44.5q-38 0 -69 -20t-49 -56t-18 -81q0 -67 39 -111t97 -44z" />
<glyph unicode="p" horiz-adv-x="627" d="M193 91v-302h-133v730h116v-89q20 30 46.5 52t60.5 34t72 12q104 0 173.5 -78t69.5 -190q0 -114 -64.5 -192t-162.5 -78q-59 0 -105 27t-73 74zM462 260q0 66 -41 110.5t-102 44.5q-39 0 -76 -25t-50 -62v-122q18 -45 55 -74t79 -29q39 0 70.5 22t48 58t16.5 77z" />
<glyph unicode="q" horiz-adv-x="627" d="M30 260q0 113 69.5 190.5t172.5 77.5q58 0 104 -26.5t75 -72.5v90h116v-570q0 -15 4 -23.5t11.5 -12.5t20.5 -4v-113q-34 -6 -72 -6q-26 0 -48 11.5t-35 32.5t-13 46v211q-59 -101 -179 -101q-98 0 -162 78.5t-64 191.5zM435 188v123q-11 43 -50 73.5t-81 30.5 q-60 0 -99.5 -47.5t-39.5 -111.5q0 -65 39.5 -109t101.5 -44q79 0 129 85z" />
<glyph unicode="r" horiz-adv-x="383" d="M369 404q-61 -1 -108.5 -24t-67.5 -66v-314h-133v519h122v-111q28 53 70.5 84t90.5 34q20 0 26 -1v-121z" />
<glyph unicode="s" horiz-adv-x="492" d="M22 70l49 83q96 -68 182 -68q40 0 63 15t23 43q0 26 -24.5 39.5t-89.5 30.5q-106 29 -145.5 58t-39.5 86q0 78 57.5 125t146.5 47q121 0 202 -72l-53 -80q-76 58 -150 58q-36 0 -58 -15t-22 -44q0 -25 20.5 -37t81.5 -28q112 -28 156.5 -60.5t44.5 -96.5 q0 -75 -56.5 -119.5t-153.5 -44.5q-65 0 -128 21t-106 59z" />
<glyph unicode="t" horiz-adv-x="380" d="M371 27q-80 -36 -146 -36q-60 0 -97.5 31.5t-37.5 96.5v298h-68v102h68v168h133v-168h109v-102h-109v-254q1 -50 49 -50q30 0 73 19z" />
<glyph unicode="u" horiz-adv-x="611" d="M55 194v325h133v-296q0 -120 86 -120q40 0 76 24t58 70v322h133v-367q0 -20 7 -29t24 -10v-113q-32 -6 -57 -6q-36 0 -58.5 16.5t-25.5 44.5l-3 42q-35 -53 -89 -80t-120 -27q-54 0 -90 23t-55 68.5t-19 112.5z" />
<glyph unicode="v" horiz-adv-x="543" d="M200 0l-191 519h137l131 -411l133 411h125l-191 -519h-144z" />
<glyph unicode="w" horiz-adv-x="830" d="M704 519h126l-217 -519h-109l-89 228l-88 -228h-109l-216 519h125l154 -394l64 168l-92 225h107l55 -160l55 160h107l-90 -225l62 -168z" />
<glyph unicode="x" horiz-adv-x="525" d="M143 519l111 -163l8 -17l10 17l111 163h137l-185 -261l188 -258h-137l-115 161l-9 17l-8 -17l-113 -161h-137l187 258l-184 261h136z" />
<glyph unicode="y" horiz-adv-x="544" d="M71 -101q38 -10 60 -10q27 0 43.5 23t36.5 88l-205 519h137l140 -404l125 404h125l-218 -622q-9 -27 -25.5 -49.5t-38.5 -39t-51.5 -26t-61.5 -9.5q-34 0 -67 11v115z" />
<glyph unicode="z" horiz-adv-x="488" d="M26 81l289 345h-277v93h416v-81l-287 -345h292v-93h-433v81z" />
<glyph unicode="{" horiz-adv-x="313" d="M210 627v-202q0 -38 -34 -69q34 -30 34 -68v-213h54v-106h-150q-5 0 -10 2.5t-9 9.5t-4 18v246q0 25 -14.5 43.5t-34.5 22.5v93q10 0 19 6t15.5 15.5t10.5 21t4 21.5v235q0 16 7.5 23t15.5 7h150v-106h-54z" />
<glyph unicode="|" horiz-adv-x="269" d="M78 -129v896h113v-896h-113z" />
<glyph unicode="}" horiz-adv-x="313" d="M50 627v106h151q4 0 9 -2t9.5 -9.5t4.5 -18.5v-235q0 -22 14.5 -43t34.5 -21v-93q-20 -4 -34.5 -22.5t-14.5 -43.5v-246q0 -16 -7.5 -23t-15.5 -7h-151v106h54v213q0 39 35 68q-35 32 -35 69v202h-54z" />
<glyph unicode="~" horiz-adv-x="561" d="M193 356q37 0 91.5 -26.5t82.5 -26.5q25 0 42 12.5t22 23t5 15.5h73q0 -5 -4 -18.5t-15 -32.5t-26.5 -36t-41 -29t-56.5 -12q-37 0 -92.5 25.5t-81.5 25.5q-15 0 -27 -5t-18.5 -12t-11 -15t-5.5 -13t-1 -6h-74q0 8 4.5 22t15 33.5t25 35.5t39.5 27.5t54 11.5z" />
<glyph unicode="&#xa1;" horiz-adv-x="301" d="M218 705v-150h-133v150h133zM218 441v-446h-133v446h133z" />
<glyph unicode="&#xa2;" horiz-adv-x="586" d="M273 -119v110q-99 8 -166.5 87.5t-67.5 176.5q0 104 62.5 180t171.5 92v112h60v-112q70 -3 126 -36.5t87 -95.5l-128 -40q-28 51 -85 56v-305q28 5 53.5 21t33.5 37l129 -39q-18 -43 -57.5 -74.5t-81 -46t-77.5 -14.5v-109h-60zM273 112v293q-44 -9 -71 -52t-27 -98 q0 -49 27 -89t71 -54z" />
<glyph unicode="&#xa3;" horiz-adv-x="539" d="M470 114l33 -99q-55 -30 -114 -30q-30 0 -90.5 14.5t-92.5 14.5q-55 0 -127 -22l-29 94q106 88 106 184v7h-100v100h72q-4 7 -17.5 36t-18.5 41.5t-11 35t-6 42.5q0 73 59.5 124.5t144.5 51.5q60 0 114.5 -28t90.5 -76l-69 -81q-25 34 -63 55.5t-74.5 21.5t-60 -23 t-23.5 -58q0 -21 8 -42.5t23.5 -52t22.5 -47.5h182v-100h-160v-1q0 -46 -19 -86t-65 -87q38 12 75 12q25 0 69 -8.5t66 -8.5q31 0 74 16z" />
<glyph unicode="&#xa4;" horiz-adv-x="546" d="M168 490q46 30 106 30q58 0 104 -29l68 70l55 -54l-67 -66q30 -48 30 -107.5t-31 -105.5l68 -68l-50 -49l-71 67q-46 -29 -106 -29q-62 0 -108 30l-72 -68l-48 49l68 69q-31 47 -31 105q0 60 30 105l-67 68l53 54zM274 233q26 0 47 13t33 36t12 53q0 22 -7 40.5t-19 32 t-29 21t-37 7.5q-39 0 -66 -29t-27 -73t26.5 -72.5t66.5 -28.5z" />
<glyph unicode="&#xa5;" horiz-adv-x="704" d="M500 398h72v-86h-119l-35 -66v-30h155v-86h-155v-130h-136v130h-153v86h153v32l-34 64h-118v86h73l-174 305h147l174 -339l176 339h148z" />
<glyph unicode="&#xa6;" horiz-adv-x="272" d="M193 767v-390h-113v390h113zM193 261v-390h-113v390h113z" />
<glyph unicode="&#xa7;" horiz-adv-x="526" d="M486 112q0 -51 -21 -91t-55 -62.5t-70.5 -34t-73.5 -11.5q-69 0 -124.5 32t-89.5 71l86 81q55 -58 122 -58q23 0 43 7.5t32.5 23.5t12.5 37q0 16 -6.5 27.5t-19.5 16.5t-24.5 7t-28.5 3q-64 5 -110.5 27.5t-70.5 60.5t-24 89q0 38 19 73q-16 15 -28 44t-12 65 q0 76 61.5 132t146.5 56q126 0 210 -122l-102 -48q-13 25 -39.5 38.5t-60.5 13.5q-36 0 -59.5 -19t-23.5 -49q0 -34 22 -47.5t61 -14.5q31 -1 60 -6.5t57.5 -18t49 -30.5t33.5 -47t13 -64q0 -54 -21 -81q35 -31 35 -101zM329 246q17 16 17 44q0 33 -25 48t-57 15 q-31 0 -55 9q-16 -16 -16 -42.5t16 -41.5t35.5 -18.5t46 -6.5t38.5 -7z" />
<glyph unicode="&#xa8;" horiz-adv-x="452" d="M76 598v118h110v-118h-110zM266 598v118h110v-118h-110z" />
<glyph unicode="&#xa9;" horiz-adv-x="832" d="M43 351q0 154 105 255.5t265 101.5q162 0 269.5 -101.5t107.5 -255.5q0 -153 -107.5 -255.5t-269.5 -102.5q-160 0 -265 102.5t-105 255.5zM737 350q0 131 -92.5 219.5t-231.5 88.5q-89 0 -162 -40.5t-114.5 -111t-41.5 -156.5q0 -130 91 -218.5t227 -88.5q90 0 164 38.5 t117 109t43 159.5zM172 351q0 46 16 88t46 75t78 53t108 20q77 0 134 -34t85 -93l-129 -39q-26 53 -91 53q-51 0 -81 -35.5t-30 -87.5q0 -56 34 -89.5t78 -33.5q28 0 54 15t39 40l130 -38q-25 -55 -83.5 -92.5t-137.5 -37.5q-73 0 -130.5 31t-88.5 85t-31 120z" />
<glyph unicode="&#xaa;" horiz-adv-x="439" d="M40 448q0 35 18.5 61.5t52.5 41.5t77 15q47 0 82 -16v19q0 33 -18.5 51.5t-55.5 18.5q-51 0 -109 -40l-30 60q69 47 148 47q51 0 87.5 -17t55.5 -50.5t19 -81.5v-103q0 -15 5.5 -21.5t19.5 -6.5v-84q-22 -4 -44 -4q-53 0 -61 43l-2 19q-49 -64 -127 -64q-50 0 -84 32 t-34 80zM256 434q14 12 14 25v39q-29 12 -65 12q-33 0 -53.5 -14.5t-20.5 -38.5q0 -10 4 -19.5t12 -16t18 -10.5t22 -4q44 0 69 27z" />
<glyph unicode="&#xab;" horiz-adv-x="642" d="M35 285l261 187v-108l-155 -108l155 -102v-108l-261 175v64zM324 285l260 187v-108l-155 -108l155 -102v-108l-260 175v64z" />
<glyph unicode="&#xac;" horiz-adv-x="605" d="M542 396v-291h-113v172h-371v119h484z" />
<glyph unicode="&#xad;" horiz-adv-x="596" d="M57 212v120h484v-120h-484z" />
<glyph unicode="&#xae;" horiz-adv-x="832" d="M43 351q0 76 28 142t77 113t118 74.5t149 27.5q106 0 192 -46.5t134.5 -128t48.5 -182.5q0 -153 -107 -255.5t-268 -102.5t-266.5 102t-105.5 256zM735 349q0 132 -91.5 220.5t-228.5 88.5t-227 -88t-90 -219t90 -220t227 -89q136 0 228 86.5t92 220.5zM254 570h193 q30 0 56 -13t44 -33.5t28.5 -46.5t10.5 -52q0 -42 -22 -77t-57 -49l102 -164h-106l-91 146h-64v-146h-94v435zM440 362q24 0 38.5 16.5t14.5 46.5t-16 46t-39 16h-90v-125h92z" />
<glyph unicode="&#xaf;" horiz-adv-x="414" d="M59 627v82h297v-82h-297z" />
<glyph unicode="&#xb0;" horiz-adv-x="282" d="M141 717q44 0 73 -28t29 -70q0 -47 -28.5 -76t-73.5 -29q-29 0 -52 13t-36 37t-13 55q0 27 13 49.5t36 35.5t52 13zM104 615q0 -15 10 -25q13 -12 27 -12q16 0 26 12q10 10 10 25t-10 27q-9 10 -26 10q-15 0 -27 -10q-10 -12 -10 -27z" />
<glyph unicode="&#xb1;" horiz-adv-x="467" d="M409 426v-106h-116v-126h-119v126h-116v106h116v125h119v-125h116zM58 28v107h351v-107h-351z" />
<glyph unicode="&#xb2;" horiz-adv-x="411" d="M30 385q0 81 28.5 124t100.5 72q8 3 26.5 10t27 11t23.5 10.5t22.5 12.5t16 14t12 17.5t3.5 20.5q0 26 -22 40t-63 14q-73 0 -122 -49l-50 58q19 25 68 46.5t116 21.5q52 0 88.5 -16t55 -45.5t18.5 -70.5q0 -95 -131 -132q-90 -29 -90 -82h209v-77h-337z" />
<glyph unicode="&#xb3;" horiz-adv-x="402" d="M28 457l42 59q9 -21 40.5 -39.5t77.5 -18.5q44 0 72.5 14t28.5 38q0 54 -146 54h-24v73h23q133 0 133 51q0 15 -13 26t-32 16t-39 5q-72 0 -112 -50l-50 63q21 28 66 44t95 16q73 0 121 -33t48 -82q0 -34 -24.5 -57t-69.5 -31q32 -4 55.5 -20t36 -38.5t12.5 -49.5 q0 -57 -52 -87.5t-127 -30.5q-62 0 -105 20.5t-57 57.5z" />
<glyph unicode="&#xb4;" horiz-adv-x="252" d="M132 579l-85 26l53 118h124z" />
<glyph unicode="&#xb5;" horiz-adv-x="657" d="M76 519h133v-296q0 -120 89 -120q38 0 74 24t58 70v322h132v-367q0 -21 8 -29.5t28 -9.5v-113q-33 -6 -62 -6q-36 0 -59 18t-26 47l-2 38q-11 -25 -35 -49t-58 -41t-67 -17q-35 0 -58 18t-31 41l9 -259h-133v729z" />
<glyph unicode="&#xb6;" horiz-adv-x="650" d="M314 703h291v-99h-69v-683h-112v285h-51v-285h-113v285q-50 0 -92.5 18t-71.5 49.5t-45 77.5t-16 100q0 120 73 186t206 66zM260 305v299q-54 -3 -84 -43t-30 -107q0 -65 32.5 -104.5t81.5 -44.5zM424 604h-51v-299h51v299z" />
<glyph unicode="&#xb7;" horiz-adv-x="222" d="M57 240v149h109v-149h-109z" />
<glyph unicode="&#xb8;" horiz-adv-x="322" d="M48 -126q33 -19 88 -19t55 33t-51 33q-32 0 -80 -12l61 119l51 -16l-34 -54q11 4 31 4q38 0 61 -17t23 -52q0 -39 -32 -63t-94 -24q-58 0 -106 20z" />
<glyph unicode="&#xb9;" horiz-adv-x="295" d="M274 464v-78h-226v78h77v259q-12 -16 -41.5 -33.5t-51.5 -17.5v78q18 0 41 14.5t37 27.5t15 16h80v-344h69z" />
<glyph unicode="&#xba;" horiz-adv-x="438" d="M36 521q0 78 50 131.5t133.5 53.5t134 -53.5t50.5 -131.5q0 -77 -50 -131t-134 -54t-134 54t-50 131zM219.5 419q36.5 0 61 28.5t24.5 73t-24.5 73t-61 28.5t-61 -28.5t-24.5 -73.5q0 -44 24.5 -72.5t61 -28.5z" />
<glyph unicode="&#xbb;" horiz-adv-x="642" d="M319 221l-262 -175v108l157 102l-157 108v108l262 -187v-64zM607 221l-261 -175v108l156 102l-156 108v108l261 -187v-64z" />
<glyph unicode="&#xbc;" horiz-adv-x="874" d="M274 380v-77h-226v77h77v259q-12 -16 -41.5 -33.5t-51.5 -17.5v79q18 0 41 14t37 27t15 16h80v-344h69zM95 47l279 325l258 339l60 -54l-271 -320l-266 -344zM708 0v92h-219v76l244 250h53v-249h60v-77h-60v-92h-78zM565 169h146v152z" />
<glyph unicode="&#xbd;" horiz-adv-x="902" d="M274 380v-77h-226v77h77v259q-12 -16 -41.5 -33.5t-51.5 -17.5v79q18 0 41 14t37 27t15 16h80v-344h69zM95 47l279 325l258 339l60 -54l-271 -320l-266 -344zM522 0q0 33 4 58t13.5 46t25 37t36 29.5t49.5 25.5q8 3 25.5 10t26.5 11t23 10.5t21.5 12.5t15.5 14t11.5 17 t3.5 20q0 26 -21.5 40.5t-61.5 14.5q-70 0 -120 -50l-49 57q19 26 67 47.5t114 21.5q77 0 117.5 -35t40.5 -97q0 -30 -12 -54t-33 -39t-40 -23.5t-42 -15.5q-89 -28 -89 -81h217v-77h-343z" />
<glyph unicode="&#xbe;" horiz-adv-x="982" d="M28 373l42 59q12 -23 43 -40t75 -17t72.5 13t28.5 38q0 55 -146 55h-24v72h23q133 0 133 52q0 21 -26 33t-58 12q-72 0 -112 -48l-50 63q21 28 65.5 43.5t95.5 15.5q73 0 121 -33t48 -82q0 -35 -24.5 -57.5t-69.5 -30.5q48 -7 76 -36.5t28 -70.5q0 -39 -26 -66.5 t-65.5 -40t-87.5 -12.5q-62 0 -105 20.5t-57 57.5zM203 47l279 325l258 339l60 -54l-271 -320l-266 -344zM816 0v92h-219v76l244 250h53v-249h60v-77h-60v-92h-78zM673 169h146v152z" />
<glyph unicode="&#xbf;" horiz-adv-x="474" d="M354 501v-137h-109v137h109zM356 270q0 -53 -17 -90t-64 -64q-5 -4 -22.5 -13t-28.5 -16t-27.5 -19t-26 -23.5t-16.5 -28t-7 -34.5q0 -20 7.5 -36t21 -26.5t30 -16.5t35.5 -6q68 0 116 79l87 -59q-26 -60 -82.5 -94t-124.5 -34q-31 0 -60 7t-56 22.5t-47 37.5t-31.5 55 t-11.5 73q0 59 26 96.5t78 69.5q8 6 30.5 18.5t32.5 19.5t24 19.5t20 28t6 34.5h108z" />
<glyph unicode="&#xc0;" horiz-adv-x="665" d="M245 906h122l55 -118l-84 -26zM273 703h121l267 -703h-140l-66 175h-245l-64 -175h-141zM431 271l-97 276l-101 -276h198z" />
<glyph unicode="&#xc1;" horiz-adv-x="665" d="M368 762l-85 26l54 118h123zM273 703h121l267 -703h-140l-66 175h-245l-64 -175h-141zM431 271l-97 276l-101 -276h198z" />
<glyph unicode="&#xc2;" horiz-adv-x="665" d="M181 806l105 100h95l106 -100l-69 -32l-84 63l-85 -63zM273 703h121l267 -703h-140l-66 175h-245l-64 -175h-141zM431 271l-97 276l-101 -276h198z" />
<glyph unicode="&#xc3;" horiz-adv-x="665" d="M266 824q-12 0 -21.5 -5t-14 -11t-7.5 -14t-3.5 -12t-0.5 -6h-73q0 12 6 31t18.5 41.5t36.5 38.5t54 16q32 0 70.5 -23.5t60.5 -23.5q13 0 23.5 5t15.5 11.5t8.5 14.5t4.5 12.5t1 6.5h73q0 -10 -6.5 -28.5t-19.5 -41.5t-38.5 -40t-57.5 -17t-71 22.5t-59 22.5zM273 703 h121l267 -703h-140l-66 175h-245l-64 -175h-141zM431 271l-97 276l-101 -276h198z" />
<glyph unicode="&#xc4;" horiz-adv-x="665" d="M183 782v118h110v-118h-110zM373 782v118h110v-118h-110zM273 703h121l267 -703h-140l-66 175h-245l-64 -175h-141zM431 271l-97 276l-101 -276h198z" />
<glyph unicode="&#xc5;" horiz-adv-x="665" d="M334 906q43 0 69.5 -20.5t26.5 -56t-26.5 -56t-70 -20.5t-69.5 20.5t-26 56.5q0 23 12 40.5t33.5 26.5t50.5 9zM294 830q0 -15 11.5 -25.5t28.5 -10.5q10 0 19.5 4.5t15 13t5.5 18.5q0 16 -11.5 25.5t-28.5 9.5t-28.5 -9.5t-11.5 -25.5zM273 703h121l267 -703h-140 l-66 175h-245l-64 -175h-141zM431 271l-97 276l-101 -276h198z" />
<glyph unicode="&#xc6;" horiz-adv-x="956" d="M414 703h500v-120h-330v-165h276v-120h-276v-178h339v-120h-474v175h-225l-104 -175h-145zM440 294v255l-158 -255h158z" />
<glyph unicode="&#xc7;" horiz-adv-x="679" d="M660 157q-27 -67 -98 -109.5t-154 -51.5l-25 -38q12 4 32 4q37 0 60.5 -17t23.5 -52q0 -26 -13.5 -45t-42.5 -30.5t-71 -11.5q-57 0 -106 20l27 48q33 -19 88 -19q56 0 56 33t-52 33q-32 0 -79 -12l43 86q-90 6 -164.5 60.5t-114 134.5t-39.5 166q0 65 23.5 127.5 t66.5 112.5t110 80.5t146 30.5q63 0 117.5 -19.5t93.5 -54t62 -80.5l-105 -72q-24 55 -71.5 80t-100.5 25q-65 0 -112.5 -35.5t-69.5 -87.5t-22 -111q0 -46 15.5 -89t42 -76t65.5 -52.5t83 -19.5q54 0 102.5 26.5t70.5 80.5z" />
<glyph unicode="&#xc8;" horiz-adv-x="594" d="M196 907h123l54 -118l-85 -26zM561 120v-120h-488v703h479v-120h-342v-169h296v-111h-296v-183h351z" />
<glyph unicode="&#xc9;" horiz-adv-x="594" d="M357 762l-85 26l54 118h123zM561 120v-120h-488v703h479v-120h-342v-169h296v-111h-296v-183h351z" />
<glyph unicode="&#xca;" horiz-adv-x="594" d="M169 806l105 100h96l105 -100l-68 -32l-84 63l-84 -63zM561 120v-120h-488v703h479v-120h-342v-169h296v-111h-296v-183h351z" />
<glyph unicode="&#xcb;" horiz-adv-x="594" d="M172 782v118h110v-118h-110zM362 782v118h110v-118h-110zM561 120v-120h-488v703h479v-120h-342v-169h296v-111h-296v-183h351z" />
<glyph unicode="&#xcc;" horiz-adv-x="283" d="M15 907h123l54 -118l-85 -26zM73 0v703h137v-703h-137z" />
<glyph unicode="&#xcd;" horiz-adv-x="283" d="M176 762l-85 26l54 118h123zM73 0v703h137v-703h-137z" />
<glyph unicode="&#xce;" horiz-adv-x="283" d="M-12 806l105 100h96l105 -100l-68 -32l-84 63l-85 -63zM73 0v703h137v-703h-137z" />
<glyph unicode="&#xcf;" horiz-adv-x="283" d="M-9 782v118h110v-118h-110zM181 782v118h110v-118h-110zM73 0v703h137v-703h-137z" />
<glyph unicode="&#xd0;" horiz-adv-x="713" d="M334 703q84 0 150.5 -27.5t109 -75.5t64.5 -111t22 -137q0 -159 -94.5 -255.5t-251.5 -96.5h-256v304h-47v99h47v300h256zM334 120q98 0 153.5 65t55.5 167q0 104 -56 167.5t-153 63.5h-119v-180h137v-99h-137v-184h119z" />
<glyph unicode="&#xd1;" horiz-adv-x="755" d="M310 823q-13 0 -22.5 -5t-14 -11t-7 -14t-3.5 -12t-1 -6h-73q0 6 2 15t6 21t10 24.5t15.5 24.5t21 21t27.5 15t34 6q32 0 70 -23.5t61 -23.5q11 0 20 3.5t14.5 9t9 11t5.5 11.5t2.5 9.5t0.5 5.5h73q0 -10 -6.5 -28.5t-19.5 -41.5t-38 -40t-57 -17t-71 22.5t-59 22.5z M210 450v-450h-137v703h106l366 -461v460h137v-702h-111z" />
<glyph unicode="&#xd2;" horiz-adv-x="748" d="M249 907h123l55 -118l-85 -26zM31 351q0 94 44 175.5t124 131.5t177 50q74 0 139 -31t108.5 -81.5t68.5 -115t25 -131.5q0 -92 -44 -173t-123.5 -131t-176.5 -50q-74 0 -139 30.5t-109 80.5t-69 114t-25 131zM374 116q48 0 88 20.5t65 54t38.5 75t13.5 85.5 q0 96 -56.5 165.5t-148.5 69.5q-63 0 -111 -35t-71 -87.5t-23 -112.5q0 -96 56 -165.5t149 -69.5z" />
<glyph unicode="&#xd3;" horiz-adv-x="748" d="M411 762l-85 26l53 118h124zM31 351q0 94 44 175.5t124 131.5t177 50q74 0 139 -31t108.5 -81.5t68.5 -115t25 -131.5q0 -92 -44 -173t-123.5 -131t-176.5 -50q-74 0 -139 30.5t-109 80.5t-69 114t-25 131zM374 116q48 0 88 20.5t65 54t38.5 75t13.5 85.5 q0 96 -56.5 165.5t-148.5 69.5q-63 0 -111 -35t-71 -87.5t-23 -112.5q0 -96 56 -165.5t149 -69.5z" />
<glyph unicode="&#xd4;" horiz-adv-x="748" d="M223 806l105 100h96l105 -100l-69 -32l-84 63l-84 -63zM31 351q0 94 44 175.5t124 131.5t177 50q74 0 139 -31t108.5 -81.5t68.5 -115t25 -131.5q0 -92 -44 -173t-123.5 -131t-176.5 -50q-74 0 -139 30.5t-109 80.5t-69 114t-25 131zM374 116q48 0 88 20.5t65 54t38.5 75 t13.5 85.5q0 96 -56.5 165.5t-148.5 69.5q-63 0 -111 -35t-71 -87.5t-23 -112.5q0 -96 56 -165.5t149 -69.5z" />
<glyph unicode="&#xd5;" horiz-adv-x="748" d="M309 824q-13 0 -22.5 -5t-14 -11t-7 -14t-3.5 -12t-1 -6h-73q0 6 2 15t6 21t10 24.5t15.5 24.5t21 21t27.5 15t34 6q32 0 70 -23.5t61 -23.5q13 0 23 5t15.5 11.5t8.5 14.5t4 12.5t1 6.5h73q0 -10 -6.5 -28.5t-19 -41.5t-38 -40t-57.5 -17t-71 22.5t-59 22.5zM31 351 q0 94 44 175.5t124 131.5t177 50q74 0 139 -31t108.5 -81.5t68.5 -115t25 -131.5q0 -92 -44 -173t-123.5 -131t-176.5 -50q-74 0 -139 30.5t-109 80.5t-69 114t-25 131zM374 116q48 0 88 20.5t65 54t38.5 75t13.5 85.5q0 96 -56.5 165.5t-148.5 69.5q-63 0 -111 -35 t-71 -87.5t-23 -112.5q0 -96 56 -165.5t149 -69.5z" />
<glyph unicode="&#xd6;" horiz-adv-x="748" d="M226 782v118h110v-118h-110zM416 782v118h110v-118h-110zM31 351q0 94 44 175.5t124 131.5t177 50q74 0 139 -31t108.5 -81.5t68.5 -115t25 -131.5q0 -92 -44 -173t-123.5 -131t-176.5 -50q-74 0 -139 30.5t-109 80.5t-69 114t-25 131zM374 116q48 0 88 20.5t65 54 t38.5 75t13.5 85.5q0 96 -56.5 165.5t-148.5 69.5q-63 0 -111 -35t-71 -87.5t-23 -112.5q0 -96 56 -165.5t149 -69.5z" />
<glyph unicode="&#xd7;" horiz-adv-x="472" d="M421 170l-83 -82l-102 102l-102 -102l-83 83l101 101l-97 98l84 82l97 -97l98 98l82 -83l-97 -98z" />
<glyph unicode="&#xd8;" horiz-adv-x="747" d="M620 598q46 -51 71.5 -116t25.5 -133q0 -92 -44 -173t-123.5 -131t-176.5 -50q-81 0 -150 36l-21 -31h-147l73 103q-23 25 -41 54.5t-30.5 61t-19 65.5t-6.5 67q0 94 44 175.5t124 131.5t177 50q79 0 149 -36l20 31h148zM169 351q0 -77 36 -136l247 355q-36 16 -78 16 q-63 0 -111 -35t-71 -87.5t-23 -112.5zM374 116q48 0 88 20.5t65 54t38.5 75t13.5 85.5q0 76 -36 137l-249 -355q37 -17 80 -17z" />
<glyph unicode="&#xd9;" horiz-adv-x="742" d="M245 907h122l55 -118l-85 -26zM543 345v358h135v-358q0 -74 -18 -136t-54 -110.5t-96 -76t-139 -27.5q-65 0 -117.5 19t-87.5 51.5t-58.5 77.5t-34 95t-10.5 107v358h137v-358q0 -47 9 -86.5t28 -72.5t53 -51.5t80 -18.5q47 0 82 19t54 52.5t28 72.5t9 85z" />
<glyph unicode="&#xda;" horiz-adv-x="742" d="M406 762l-85 26l53 118h124zM543 345v358h135v-358q0 -74 -18 -136t-54 -110.5t-96 -76t-139 -27.5q-65 0 -117.5 19t-87.5 51.5t-58.5 77.5t-34 95t-10.5 107v358h137v-358q0 -47 9 -86.5t28 -72.5t53 -51.5t80 -18.5q47 0 82 19t54 52.5t28 72.5t9 85z" />
<glyph unicode="&#xdb;" horiz-adv-x="742" d="M218 806l105 100h96l105 -100l-69 -32l-84 63l-84 -63zM543 345v358h135v-358q0 -74 -18 -136t-54 -110.5t-96 -76t-139 -27.5q-65 0 -117.5 19t-87.5 51.5t-58.5 77.5t-34 95t-10.5 107v358h137v-358q0 -47 9 -86.5t28 -72.5t53 -51.5t80 -18.5q47 0 82 19t54 52.5 t28 72.5t9 85z" />
<glyph unicode="&#xdc;" horiz-adv-x="742" d="M221 782v118h110v-118h-110zM411 782v118h110v-118h-110zM543 345v358h135v-358q0 -74 -18 -136t-54 -110.5t-96 -76t-139 -27.5q-65 0 -117.5 19t-87.5 51.5t-58.5 77.5t-34 95t-10.5 107v358h137v-358q0 -47 9 -86.5t28 -72.5t53 -51.5t80 -18.5q47 0 82 19t54 52.5 t28 72.5t9 85z" />
<glyph unicode="&#xdd;" horiz-adv-x="653" d="M360 762l-85 26l54 118h123zM152 703l174 -339l176 339h147l-255 -457v-246h-136v248l-254 455h148z" />
<glyph unicode="&#xde;" horiz-adv-x="597" d="M578 343q0 -94 -61.5 -164t-156.5 -70h-150v-109h-137v703h137v-127h144q48 0 90 -20t71 -53t46 -75t17 -85zM443 343q0 48 -29 80.5t-67 32.5h-137v-227h143q39 0 64.5 33t25.5 81z" />
<glyph unicode="&#xdf;" horiz-adv-x="552" d="M245 116q64 1 102.5 27.5t38.5 79.5q0 25 -9.5 45.5t-25 33.5t-36 20.5t-42.5 7.5h-21v118h19q36 0 56 20.5t20 53.5q0 37 -24 54.5t-54 17.5q-22 0 -39 -9t-26 -24.5t-13.5 -32t-4.5 -34.5v-494h-126v517q0 83 62.5 136.5t157.5 53.5q55 0 98.5 -19.5t69 -57t25.5 -86.5 q0 -33 -11.5 -64t-31.5 -52.5t-43 -29.5q64 -18 101 -68.5t37 -121.5q0 -44 -15 -80t-41 -60t-62 -40.5t-76.5 -24.5t-85.5 -9v122z" />
<glyph unicode="&#xe0;" d="M143 724h122l55 -118l-85 -26zM25 154q0 75 61.5 121.5t159.5 46.5q75 0 126 -23v30q0 51 -29.5 79t-86.5 28q-78 0 -162 -59l-41 84q101 67 216 67q112 0 174 -55.5t62 -158.5v-162q0 -14 3 -22t10 -12.5t19 -4.5v-113q-34 -7 -59 -7q-71 0 -83 61l-3 29 q-35 -45 -84 -69t-106 -24q-76 0 -126.5 47t-50.5 117zM350 131q22 17 22 37v60q-53 20 -105 20q-51 0 -84 -23.5t-33 -59.5q0 -33 26 -55.5t64 -22.5q33 0 63 12t47 32z" />
<glyph unicode="&#xe1;" d="M304 579l-85 26l53 118h124zM25 154q0 75 61.5 121.5t159.5 46.5q75 0 126 -23v30q0 51 -29.5 79t-86.5 28q-78 0 -162 -59l-41 84q101 67 216 67q112 0 174 -55.5t62 -158.5v-162q0 -14 3 -22t10 -12.5t19 -4.5v-113q-34 -7 -59 -7q-71 0 -83 61l-3 29q-35 -45 -84 -69 t-106 -24q-76 0 -126.5 47t-50.5 117zM350 131q22 17 22 37v60q-53 20 -105 20q-51 0 -84 -23.5t-33 -59.5q0 -33 26 -55.5t64 -22.5q33 0 63 12t47 32z" />
<glyph unicode="&#xe2;" d="M116 623l105 100h96l105 -100l-69 -32l-84 62l-84 -62zM25 154q0 75 61.5 121.5t159.5 46.5q75 0 126 -23v30q0 51 -29.5 79t-86.5 28q-78 0 -162 -59l-41 84q101 67 216 67q112 0 174 -55.5t62 -158.5v-162q0 -14 3 -22t10 -12.5t19 -4.5v-113q-34 -7 -59 -7 q-71 0 -83 61l-3 29q-35 -45 -84 -69t-106 -24q-76 0 -126.5 47t-50.5 117zM350 131q22 17 22 37v60q-53 20 -105 20q-51 0 -84 -23.5t-33 -59.5q0 -33 26 -55.5t64 -22.5q33 0 63 12t47 32z" />
<glyph unicode="&#xe3;" d="M202 641q-9 0 -16.5 -2.5t-12.5 -6.5t-8.5 -9t-5.5 -10t-3 -9.5t-1.5 -7t-0.5 -3.5h-73q0 11 6.5 30.5t18.5 42t36.5 38.5t54.5 16q32 0 70.5 -23.5t60.5 -23.5q13 0 23.5 5t15.5 11.5t8.5 14t4 12t0.5 7.5h73q0 -10 -6.5 -28.5t-19 -41.5t-38 -40t-57.5 -17t-71 22.5 t-59 22.5zM25 154q0 75 61.5 121.5t159.5 46.5q75 0 126 -23v30q0 51 -29.5 79t-86.5 28q-78 0 -162 -59l-41 84q101 67 216 67q112 0 174 -55.5t62 -158.5v-162q0 -14 3 -22t10 -12.5t19 -4.5v-113q-34 -7 -59 -7q-71 0 -83 61l-3 29q-35 -45 -84 -69t-106 -24 q-76 0 -126.5 47t-50.5 117zM350 131q22 17 22 37v60q-53 20 -105 20q-51 0 -84 -23.5t-33 -59.5q0 -33 26 -55.5t64 -22.5q33 0 63 12t47 32z" />
<glyph unicode="&#xe4;" d="M119 599v118h110v-118h-110zM309 599v118h110v-118h-110zM25 154q0 75 61.5 121.5t159.5 46.5q75 0 126 -23v30q0 51 -29.5 79t-86.5 28q-78 0 -162 -59l-41 84q101 67 216 67q112 0 174 -55.5t62 -158.5v-162q0 -14 3 -22t10 -12.5t19 -4.5v-113q-34 -7 -59 -7 q-71 0 -83 61l-3 29q-35 -45 -84 -69t-106 -24q-76 0 -126.5 47t-50.5 117zM350 131q22 17 22 37v60q-53 20 -105 20q-51 0 -84 -23.5t-33 -59.5q0 -33 26 -55.5t64 -22.5q33 0 63 12t47 32z" />
<glyph unicode="&#xe5;" d="M269.5 723q43.5 0 69.5 -20.5t26 -56t-26 -56t-69.5 -20.5t-70 20.5t-26.5 56t26.5 56t70 20.5zM230 646q0 -15 11 -25t28 -10q8 0 15.5 2.5t13 7t9 11.5t3.5 14q0 16 -11.5 26t-29.5 10q-16 0 -27.5 -10t-11.5 -26zM25 154q0 75 61.5 121.5t159.5 46.5q75 0 126 -23v30 q0 51 -29.5 79t-86.5 28q-78 0 -162 -59l-41 84q101 67 216 67q112 0 174 -55.5t62 -158.5v-162q0 -14 3 -22t10 -12.5t19 -4.5v-113q-34 -7 -59 -7q-71 0 -83 61l-3 29q-35 -45 -84 -69t-106 -24q-76 0 -126.5 47t-50.5 117zM350 131q22 17 22 37v60q-53 20 -105 20 q-51 0 -84 -23.5t-33 -59.5q0 -33 26 -55.5t64 -22.5q33 0 63 12t47 32z" />
<glyph unicode="&#xe6;" horiz-adv-x="927" d="M25 154q0 75 61.5 121.5t159.5 46.5q68 0 116 -20q2 23 8 44q-9 90 -114 90q-78 0 -163 -59l-41 84q102 67 217 67q121 0 181 -74q72 74 185 74q123 0 197 -78t75 -191q0 -10 -3 -42h-406q4 -59 45 -94.5t98 -35.5q40 0 75 19.5t47 50.5l114 -31q-30 -61 -93.5 -98.5 t-147.5 -37.5q-72 0 -129.5 28.5t-93.5 78.5q-22 -36 -59 -61t-75.5 -35.5t-76.5 -10.5q-76 0 -126.5 47t-50.5 117zM770 299q-5 59 -43 96t-94.5 37t-94.5 -37t-42 -96h274zM350 131q22 16 22 35q-8 24 -10 65q-48 17 -95 17q-51 0 -84.5 -23.5t-33.5 -59.5 q0 -33 26.5 -55.5t64.5 -22.5q33 0 63 12t47 32z" />
<glyph unicode="&#xe7;" horiz-adv-x="558" d="M538 125q-25 -54 -78.5 -90t-124.5 -43l-22 -34q12 4 32 4q37 0 60.5 -17t23.5 -52q0 -26 -14 -45t-43 -30.5t-70 -11.5q-57 0 -106 20l27 48q33 -19 88 -19t55 33t-51 33q-32 0 -79 -12l41 82q-112 9 -180.5 86t-68.5 182q0 113 75 191t198 78q82 0 143 -36t92 -97 l-130 -40q-16 29 -44 44.5t-62 15.5q-58 0 -97 -43.5t-39 -112.5q0 -67 39.5 -111.5t96.5 -44.5q35 0 65.5 17.5t42.5 43.5z" />
<glyph unicode="&#xe8;" horiz-adv-x="593" d="M173 724h123l54 -118l-85 -26zM28 256q0 115 75 193.5t199 78.5q82 0 144.5 -37.5t94 -97.5t31.5 -132q0 -28 -3 -44h-401q4 -40 23.5 -69.5t49.5 -45t65 -15.5q40 0 75 19.5t48 50.5l114 -31q-29 -61 -93.5 -98.5t-148.5 -37.5q-81 0 -144.5 37t-96 97t-32.5 132z M436 303q-6 57 -43.5 93t-92.5 36q-54 0 -91.5 -36t-42.5 -93h270z" />
<glyph unicode="&#xe9;" horiz-adv-x="593" d="M335 579l-86 26l54 118h124zM28 256q0 115 75 193.5t199 78.5q82 0 144.5 -37.5t94 -97.5t31.5 -132q0 -28 -3 -44h-401q4 -40 23.5 -69.5t49.5 -45t65 -15.5q40 0 75 19.5t48 50.5l114 -31q-29 -61 -93.5 -98.5t-148.5 -37.5q-81 0 -144.5 37t-96 97t-32.5 132zM436 303 q-6 57 -43.5 93t-92.5 36q-54 0 -91.5 -36t-42.5 -93h270z" />
<glyph unicode="&#xea;" horiz-adv-x="593" d="M147 623l104 100h96l105 -100l-68 -32l-84 62l-84 -62zM28 256q0 115 75 193.5t199 78.5q82 0 144.5 -37.5t94 -97.5t31.5 -132q0 -28 -3 -44h-401q4 -40 23.5 -69.5t49.5 -45t65 -15.5q40 0 75 19.5t48 50.5l114 -31q-29 -61 -93.5 -98.5t-148.5 -37.5q-81 0 -144.5 37 t-96 97t-32.5 132zM436 303q-6 57 -43.5 93t-92.5 36q-54 0 -91.5 -36t-42.5 -93h270z" />
<glyph unicode="&#xeb;" horiz-adv-x="593" d="M149 599v118h110v-118h-110zM340 599v118h109v-118h-109zM28 256q0 115 75 193.5t199 78.5q82 0 144.5 -37.5t94 -97.5t31.5 -132q0 -28 -3 -44h-401q4 -40 23.5 -69.5t49.5 -45t65 -15.5q40 0 75 19.5t48 50.5l114 -31q-29 -61 -93.5 -98.5t-148.5 -37.5 q-81 0 -144.5 37t-96 97t-32.5 132zM436 303q-6 57 -43.5 93t-92.5 36q-54 0 -91.5 -36t-42.5 -93h270z" />
<glyph unicode="&#xec;" horiz-adv-x="252" d="M0 724h123l54 -118l-85 -26zM60 0v519h133v-519h-133z" />
<glyph unicode="&#xed;" horiz-adv-x="252" d="M161 579l-85 26l54 118h123zM60 0v519h133v-519h-133z" />
<glyph unicode="&#xee;" horiz-adv-x="252" d="M-27 623l105 100h96l105 -100l-68 -32l-84 62l-84 -62zM60 0v519h133v-519h-133z" />
<glyph unicode="&#xef;" horiz-adv-x="252" d="M-24 599v118h110v-118h-110zM166 599v118h110v-118h-110zM60 0v519h133v-519h-133z" />
<glyph unicode="&#xf0;" horiz-adv-x="606" d="M450 615q61 -70 92.5 -156.5t31.5 -171.5q0 -136 -76.5 -216.5t-197.5 -80.5q-115 0 -192 69t-77 172q0 98 69.5 167t169.5 69q51 0 96 -21t73 -56q-23 101 -90 179l-92 -52l-38 51l84 48q-62 55 -158 107h170q52 -28 90 -62l77 45l39 -53zM302 103q58 0 97.5 38t39.5 94 q0 36 -18 64.5t-48.5 44.5t-68.5 16q-59 0 -98 -36.5t-39 -91.5t38.5 -92t96.5 -37z" />
<glyph unicode="&#xf1;" horiz-adv-x="597" d="M247 641q-10 0 -17.5 -2.5t-12 -6.5t-8.5 -9t-5.5 -10t-2.5 -9.5t-1.5 -7t-0.5 -3.5h-73q0 11 6 30.5t18.5 42t36.5 38.5t55 16t69.5 -23.5t60.5 -23.5q14 0 24 5t15.5 11.5t8.5 14t4 12t1 7.5h73q0 -10 -6.5 -28.5t-19.5 -41.5t-38.5 -40t-57.5 -17q-31 0 -70.5 22.5 t-58.5 22.5zM543 0h-133v291q0 120 -82 120q-27 0 -54.5 -14t-49 -39t-31.5 -55v-303h-133v519h120v-96q29 49 84 77t122 28q157 0 157 -204v-324z" />
<glyph unicode="&#xf2;" horiz-adv-x="599" d="M173 724h123l54 -118l-85 -26zM28 258q0 113 75 191.5t197 78.5t196.5 -78.5t74.5 -191.5q0 -72 -31.5 -132.5t-94.5 -98t-145 -37.5t-145 37.5t-95 98t-32 132.5zM300 103q58 0 97 44.5t39 111.5t-39 111.5t-97 44.5q-38 0 -69 -20t-49 -56t-18 -81q0 -67 39 -111 t97 -44z" />
<glyph unicode="&#xf3;" horiz-adv-x="599" d="M335 579l-86 26l54 118h124zM28 258q0 113 75 191.5t197 78.5t196.5 -78.5t74.5 -191.5q0 -72 -31.5 -132.5t-94.5 -98t-145 -37.5t-145 37.5t-95 98t-32 132.5zM300 103q58 0 97 44.5t39 111.5t-39 111.5t-97 44.5q-38 0 -69 -20t-49 -56t-18 -81q0 -67 39 -111t97 -44z " />
<glyph unicode="&#xf4;" horiz-adv-x="599" d="M147 623l104 100h96l105 -100l-68 -32l-84 62l-84 -62zM28 258q0 113 75 191.5t197 78.5t196.5 -78.5t74.5 -191.5q0 -72 -31.5 -132.5t-94.5 -98t-145 -37.5t-145 37.5t-95 98t-32 132.5zM300 103q58 0 97 44.5t39 111.5t-39 111.5t-97 44.5q-38 0 -69 -20t-49 -56 t-18 -81q0 -67 39 -111t97 -44z" />
<glyph unicode="&#xf5;" horiz-adv-x="599" d="M233 641q-13 0 -22.5 -5t-14 -11t-7.5 -14t-3.5 -12t-0.5 -6h-73q0 11 6 30.5t18.5 42t36.5 38.5t55 16q32 0 70 -23.5t60 -23.5q14 0 24 5t15.5 11.5t8.5 14t4 12t1 7.5h73q0 -10 -6.5 -28.5t-19.5 -41.5t-38.5 -40t-57.5 -17q-31 0 -70.5 22.5t-58.5 22.5zM28 258 q0 113 75 191.5t197 78.5t196.5 -78.5t74.5 -191.5q0 -72 -31.5 -132.5t-94.5 -98t-145 -37.5t-145 37.5t-95 98t-32 132.5zM300 103q58 0 97 44.5t39 111.5t-39 111.5t-97 44.5q-38 0 -69 -20t-49 -56t-18 -81q0 -67 39 -111t97 -44z" />
<glyph unicode="&#xf6;" horiz-adv-x="599" d="M149 599v118h110v-118h-110zM340 599v118h109v-118h-109zM28 258q0 113 75 191.5t197 78.5t196.5 -78.5t74.5 -191.5q0 -72 -31.5 -132.5t-94.5 -98t-145 -37.5t-145 37.5t-95 98t-32 132.5zM300 103q58 0 97 44.5t39 111.5t-39 111.5t-97 44.5q-38 0 -69 -20t-49 -56 t-18 -81q0 -67 39 -111t97 -44z" />
<glyph unicode="&#xf7;" horiz-adv-x="505" d="M198 415v127h112v-127h-112zM53 242v105h400v-105h-400zM198 48v127h112v-127h-112z" />
<glyph unicode="&#xf8;" horiz-adv-x="599" d="M489 456q20 -18 35 -40.5t25.5 -47.5t16 -53t5.5 -57q0 -72 -31.5 -132.5t-94.5 -98t-145 -37.5t-148 39l-27 -33h-75l57 68q-38 37 -58.5 88t-20.5 106q0 113 75 191.5t197 78.5q79 0 143 -37l26 32h75zM300 415q-38 0 -69 -20t-49 -56t-18 -81q0 -56 28 -96l176 233 q-30 20 -68 20zM300 103q58 0 97 44.5t39 111.5q0 56 -29 99l-179 -233q32 -22 72 -22z" />
<glyph unicode="&#xf9;" horiz-adv-x="611" d="M170 724h123l54 -118l-85 -26zM55 194v325h133v-296q0 -120 86 -120q40 0 76 24t58 70v322h133v-367q0 -20 7 -29t24 -10v-113q-32 -6 -57 -6q-36 0 -58.5 16.5t-25.5 44.5l-3 42q-35 -53 -89 -80t-120 -27q-54 0 -90 23t-55 68.5t-19 112.5z" />
<glyph unicode="&#xfa;" horiz-adv-x="611" d="M332 579l-85 26l53 118h124zM55 194v325h133v-296q0 -120 86 -120q40 0 76 24t58 70v322h133v-367q0 -20 7 -29t24 -10v-113q-32 -6 -57 -6q-36 0 -58.5 16.5t-25.5 44.5l-3 42q-35 -53 -89 -80t-120 -27q-54 0 -90 23t-55 68.5t-19 112.5z" />
<glyph unicode="&#xfb;" horiz-adv-x="611" d="M144 623l104 100h97l104 -100l-68 -32l-84 62l-84 -62zM55 194v325h133v-296q0 -120 86 -120q40 0 76 24t58 70v322h133v-367q0 -20 7 -29t24 -10v-113q-32 -6 -57 -6q-36 0 -58.5 16.5t-25.5 44.5l-3 42q-35 -53 -89 -80t-120 -27q-54 0 -90 23t-55 68.5t-19 112.5z" />
<glyph unicode="&#xfc;" horiz-adv-x="611" d="M147 599v118h109v-118h-109zM337 599v118h109v-118h-109zM55 194v325h133v-296q0 -120 86 -120q40 0 76 24t58 70v322h133v-367q0 -20 7 -29t24 -10v-113q-32 -6 -57 -6q-36 0 -58.5 16.5t-25.5 44.5l-3 42q-35 -53 -89 -80t-120 -27q-54 0 -90 23t-55 68.5t-19 112.5z " />
<glyph unicode="&#xfd;" horiz-adv-x="544" d="M318 579l-85 26l53 118h124zM71 -101q38 -10 60 -10q27 0 43.5 23t36.5 88l-205 519h137l140 -404l125 404h125l-218 -622q-9 -27 -25.5 -49.5t-38.5 -39t-51.5 -26t-61.5 -9.5q-34 0 -67 11v115z" />
<glyph unicode="&#xfe;" horiz-adv-x="594" d="M308 -24q-42 0 -71 15.5t-41 35.5v-238h-136v914h136v-225q40 56 120 56q56 0 104 -25t80 -65.5t50 -90t18 -100.5q0 -111 -77 -194t-183 -83zM308 414q-70 0 -112 -81v-159q0 -27 35 -52.5t73 -25.5q55 0 92 46.5t37 112.5q0 32 -9 61t-24.5 50.5t-39.5 34.5t-52 13z " />
<glyph unicode="&#xff;" horiz-adv-x="544" d="M133 599v118h110v-118h-110zM323 599v118h110v-118h-110zM71 -101q38 -10 60 -10q27 0 43.5 23t36.5 88l-205 519h137l140 -404l125 404h125l-218 -622q-9 -27 -25.5 -49.5t-38.5 -39t-51.5 -26t-61.5 -9.5q-34 0 -67 11v115z" />
<glyph unicode="&#x152;" horiz-adv-x="1074" d="M1041 120v-120h-475v104q-35 -49 -88 -79t-114 -30q-72 0 -135.5 30.5t-106 80.5t-67 114t-24.5 131q0 94 43 175.5t120.5 131.5t171.5 50q62 0 114 -29.5t86 -78.5v103h467v-120h-330v-165h276v-120h-276v-178h338zM560 352q0 95 -54 165t-141 70q-60 0 -106 -35 t-68 -88t-22 -113q0 -96 54 -165.5t142 -69.5q61 0 106.5 35t67 88t21.5 113z" />
<glyph unicode="&#x153;" horiz-adv-x="1000" d="M28 258q0 117 76.5 193.5t193.5 76.5q134 0 205 -121q74 121 208 121q116 0 190.5 -74.5t78.5 -194.5q0 -26 -3 -42h-400q3 -37 22 -67.5t51 -48t69 -17.5q41 0 76.5 21t47.5 52l110 -31q-14 -31 -38.5 -56.5t-56 -43t-68.5 -27t-76 -9.5q-119 0 -210 117 q-46 -60 -95.5 -88.5t-110.5 -28.5q-77 0 -138.5 34.5t-96.5 96t-35 137.5zM844 299q-5 59 -43.5 96t-93.5 37q-36 0 -66 -17t-47.5 -47t-20.5 -69h271zM436 258q0 68 -38.5 112.5t-97.5 44.5q-58 0 -97 -45t-39 -113q0 -66 38.5 -110t97.5 -44q39 0 70 20t48.5 55.5 t17.5 79.5z" />
<glyph unicode="&#x178;" horiz-adv-x="653" d="M175 782v118h110v-118h-110zM365 782v118h110v-118h-110zM152 703l174 -339l176 339h147l-255 -457v-246h-136v248l-254 455h148z" />
<glyph unicode="&#x2c6;" horiz-adv-x="365" d="M30 623l105 100h96l105 -100l-69 -32l-84 62l-84 -62z" />
<glyph unicode="&#x2dc;" horiz-adv-x="432" d="M151 641q-10 0 -18.5 -3.5t-13.5 -8.5t-8 -11t-4.5 -11.5t-2 -8.5t-0.5 -5h-73q0 11 6 30.5t18.5 42t36.5 38.5t55 16t69.5 -23.5t60.5 -23.5q14 0 24 5t15.5 11.5t8.5 14t4 12t1 7.5h73q0 -10 -6.5 -28.5t-19.5 -41.5t-38.5 -40t-57.5 -17t-71 22.5t-59 22.5z" />
<glyph unicode="&#x2000;" horiz-adv-x="453" />
<glyph unicode="&#x2001;" horiz-adv-x="907" />
<glyph unicode="&#x2002;" horiz-adv-x="453" />
<glyph unicode="&#x2003;" horiz-adv-x="907" />
<glyph unicode="&#x2004;" horiz-adv-x="302" />
<glyph unicode="&#x2005;" horiz-adv-x="226" />
<glyph unicode="&#x2006;" horiz-adv-x="151" />
<glyph unicode="&#x2007;" horiz-adv-x="151" />
<glyph unicode="&#x2008;" horiz-adv-x="113" />
<glyph unicode="&#x2009;" horiz-adv-x="181" />
<glyph unicode="&#x200a;" horiz-adv-x="50" />
<glyph unicode="&#x2010;" horiz-adv-x="413" d="M57 212v120h300v-120h-300z" />
<glyph unicode="&#x2011;" horiz-adv-x="413" d="M57 212v120h300v-120h-300z" />
<glyph unicode="&#x2012;" horiz-adv-x="413" d="M57 212v120h300v-120h-300z" />
<glyph unicode="&#x2013;" horiz-adv-x="596" d="M57 212v120h484v-120h-484z" />
<glyph unicode="&#x2014;" horiz-adv-x="918" d="M57 212v120h804v-120h-804z" />
<glyph unicode="&#x2018;" horiz-adv-x="243" d="M171 723l-22 -121h40v-134h-134v136l36 119h80z" />
<glyph unicode="&#x2019;" horiz-adv-x="234" d="M69 474l22 121h-40v134h134v-136l-36 -119h-80z" />
<glyph unicode="&#x201a;" horiz-adv-x="247" d="M74 -130l23 130h-40v145h133v-147l-35 -128h-81z" />
<glyph unicode="&#x201c;" horiz-adv-x="429" d="M171 723l-22 -121h40v-134h-134v136l36 119h80zM357 723l-21 -121h39v-134h-133v136l35 119h80z" />
<glyph unicode="&#x201d;" horiz-adv-x="420" d="M69 474l22 121h-40v134h134v-136l-36 -119h-80zM255 474l22 121h-39v134h133v-136l-35 -119h-81z" />
<glyph unicode="&#x201e;" horiz-adv-x="427" d="M74 -130l23 130h-40v145h133v-147l-35 -128h-81zM255 -130l22 130h-39v145h133v-147l-35 -128h-81z" />
<glyph unicode="&#x2022;" horiz-adv-x="359" d="M179 243q-21 0 -40 8t-32.5 22t-22 33t-8.5 40q0 43 30.5 73t72.5 30q28 0 52 -13.5t38 -37.5t14 -52q0 -43 -30.5 -73t-73.5 -30z" />
<glyph unicode="&#x2026;" horiz-adv-x="595" d="M57 0v143h109v-143h-109zM244 0v143h108v-143h-108zM430 0v143h109v-143h-109z" />
<glyph unicode="&#x202f;" horiz-adv-x="181" />
<glyph unicode="&#x2039;" horiz-adv-x="354" d="M35 285l261 187v-108l-155 -108l155 -102v-108l-261 175v64z" />
<glyph unicode="&#x203a;" horiz-adv-x="354" d="M319 221l-262 -175v108l157 102l-157 108v108l262 -187v-64z" />
<glyph unicode="&#x205f;" horiz-adv-x="226" />
<glyph unicode="&#x20ac;" horiz-adv-x="790" d="M634 222l111 -65q-31 -75 -114.5 -119t-174.5 -44q-112 0 -198 70t-122 176h-103l30 73h56q-3 22 -3 43v7h-69l29 74h49q13 54 41.5 102t70.5 86t100 60t125 22q63 0 117.5 -19.5t94 -54t62.5 -80.5l-105 -72q-25 55 -72 80t-101 25q-49 0 -88.5 -21t-64 -53.5 t-38.5 -74.5h254l-30 -74h-237v-11q0 -20 3 -39h232l-30 -73h-180q26 -57 73.5 -91t107.5 -34q54 0 102.5 26.5t71.5 80.5z" />
<glyph unicode="&#x2122;" horiz-adv-x="820" d="M336 619h-94v-212h-87v212h-94v86h275v-86zM623 703h127v-296h-86v185l-63 -144h-70l-64 144v-185h-86v296h127l57 -156z" />
<glyph unicode="&#x25fc;" horiz-adv-x="519" d="M0 520h520v-520h-520v520z" />
<glyph unicode="&#xfb03;" horiz-adv-x="822" d="M92 0v390h-68v101h68v13q0 82 47.5 137.5t128.5 55.5q60 0 128 -29q58 65 165 65q92 0 193 -65l-52 -99q-25 22 -60.5 36.5t-67.5 14.5q-30 0 -51 -13.5t-30 -33.5t-9 -45v-37h279v-491h-133v390h-146v-390h-133v390h-126v-390h-133zM225 491h126q0 47 9 79 q-27 14 -65 14q-36 0 -53 -21t-17 -55v-17z" />
<glyph unicode="&#xfb04;" horiz-adv-x="910" d="M788 -8q-60 0 -96 32.5t-36 78.5v413q0 104 -86 104q-44 0 -64.5 -31.5t-20.5 -81.5v-16h86v-101h-86v-390h-133v390h-127v-390h-133v390h-68v101h68v13q0 83 49 138t129 55q58 0 126 -29q57 65 173 65q73 0 123 -25t73.5 -67.5t23.5 -101.5v-370q0 -22 12 -40t36 -18 q10 0 24 3t24 6.5l10 3.5l18 -107q-2 -2 -19.5 -7.5t-48 -11.5t-57.5 -6zM225 491h127q0 51 7 80q-25 13 -61 13q-35 0 -54 -22t-19 -53v-18z" />
</font>
</defs>
</svg>
