<svg xmlns="http://www.w3.org/2000/svg" viewBox="0 0 477.16 477.07">
  <title>ico-phone</title>
  <path d="M475,380.32l-2.38-7.16c-5.62-16.72-24.06-34.16-41-38.75L369,317.29c-17-4.63-41.25,1.59-53.69,14L292.57,354A240.65,240.65,0,0,1,123.21,184.63l22.69-22.69c12.44-12.44,18.66-36.66,14-53.66L142.84,45.57c-4.63-17-22.1-35.41-38.78-41L96.9,2.19c-16.72-5.56-40.56.06-53,12.5L10,48.66C3.9,54.69,0,71.94,0,72A400.58,400.58,0,0,0,404.2,477.1c.56,0,18.31-3.82,24.37-9.85l33.94-33.94C475,420.88,480.57,397,475,380.32Z" transform="translate(0 -0.04)"/>
</svg>
