<svg xmlns="http://www.w3.org/2000/svg" viewBox="0 0 508.2 505.13">
  <title>ico-social-linkedin</title>
  <g>
    <path d="M1,53c2.5,0,1.7-2,1.9-3.3C5.9,29,16.6,13.9,36.6,7.4c16.1-5.2,32.9-4.6,47.9,4a46.56,46.56,0,0,1,20.4,24.5c2.8,7.8,4.9,15.9,4,24.2C106.8,81,97.4,98.4,74.4,106.5c-17.4,6-34.3,3.8-50.2-5.7-1-3.6-3.5-5.4-7.1-6h0c-.1-1.4-.3-2.8-2.2-2.8C7.7,84,4.3,74.3,2.9,63.8c-.2-1.2.3-2.9-1.9-2.8Z" transform="translate(-1 -4.08)"/>
    <path d="M276.2,216.1c4.3-2.6,6-6.4,8.2-9.5a110.55,110.55,0,0,1,41.2-34.9c23-11.3,47.4-12.5,72-10.2A117.89,117.89,0,0,1,450.7,180c19.4,12.4,33.3,29.6,42.8,50.2a153.65,153.65,0,0,1,11.9,39.6c2.1,12.9,3.7,25.6,3.7,38.7q-.15,97.5.1,195c0,4.6-1.3,5.8-5.8,5.7-30.7-.2-61.3-.2-92,0-4.5,0-5.5-1.3-5.5-5.6.1-61.3.4-122.7-.1-184-.1-13.9-2-27.7-9.2-40.4-6.4-11.2-15.3-19.2-27-23.8-15.7-6.2-31.9-7.4-48.3-2.8-16.6,4.6-28.1,15.5-36.3,30.3-4.6,8.3-6.2,17-7.5,26.3-1.3,10-1.1,19.8-1.1,29.7q-.3,82.05,0,164c0,5-1.2,6.4-6.3,6.3-30.3-.3-60.7-.2-91,0-4.2,0-5.7-1.3-5.6-5.2.1-2.8.3-5.6.3-8.4q0-158.25-.1-316.5c0-4.4.9-6,5.7-6q45.75.3,91.5,0c4.1,0,5.5,1,5.4,5.3C276,190.6,276.2,202.9,276.2,216.1Z" transform="translate(-1 -4.08)"/>
    <path d="M109,176.1c0,3.5.1,7,.1,10.5v316c0,6.4,0,6.4-6.5,6.4H7.1c-.1-2.5-.2-5-.2-7.5V265.2c0-28.1.1-56.3-.1-84.4,0-3.6.9-4.9,4.7-4.9C44,176.1,76.5,176,109,176.1Z" transform="translate(-1 -4.08)"/>
    <path d="M109,176.1c-32.5,0-64.9,0-97.4-.2-3.8,0-4.7,1.2-4.7,4.9.1,28.1,0,56.2,0,84.4V501.5c0,2.5.1,5,.2,7.5-1.7.1-3-.3-3-2.3V182.4c0-7.6.7-8.3,8.2-8.3q45.75,0,91.4.1C105.5,174.1,108.2,172.7,109,176.1Z" transform="translate(-1 -4.08)"/>
    <path d="M17.1,94.9c3.6.6,6.1,2.4,7.1,6A14,14,0,0,1,17.1,94.9Z" transform="translate(-1 -4.08)"/>
    <path d="M14.9,92.1c1.9,0,2,1.4,2.2,2.8C15,95,15,93.6,14.9,92.1Z" transform="translate(-1 -4.08)"/>
  </g>
</svg>
