<svg xmlns="http://www.w3.org/2000/svg" viewBox="0 0 107.2 107.2">
  <title>ico-social-web</title>
  <path  d="M36.3,31.28a70,70,0,0,0-3.6,18.5H49.9V31.28Zm3.1-7.5H49.9V9A56.8,56.8,0,0,0,39.4,23.78Zm-8.2,0a67.14,67.14,0,0,1,8.3-14.2,45.26,45.26,0,0,0-21.1,14.2ZM94,31.28H78.8A74.05,74.05,0,0,1,82,49.78H99.6A44.86,44.86,0,0,0,94,31.28ZM74.5,49.78a66,66,0,0,0-3.6-18.5H57.3v18.5Zm-6.7-26A54.49,54.49,0,0,0,57.3,9v14.8Zm8.2,0H88.8A47.12,47.12,0,0,0,67.7,9.58,67.14,67.14,0,0,1,76,23.78Zm-62.8,52H28.4a74,74,0,0,1-3.2-18.5H7.6A46,46,0,0,0,13.2,75.78Zm19.5-18.5a66,66,0,0,0,3.6,18.5H49.9V57.28Zm6.7,26a59,59,0,0,0,10.5,14.8V83.28Zm-8.2,0H18.3a47.12,47.12,0,0,0,21.1,14.2A65.83,65.83,0,0,1,31.2,83.28Zm47.6-7.5H94a46.5,46.5,0,0,0,5.6-18.5H82A74,74,0,0,1,78.8,75.78Zm-7.9,0a69.87,69.87,0,0,0,3.6-18.5H57.3v18.5Zm-3.1,7.5H57.3v14.8A51.44,51.44,0,0,0,67.8,83.28Zm8.2,0a66.64,66.64,0,0,1-8.3,14.2,45.26,45.26,0,0,0,21.1-14.2Zm-47.6-52H13.2a46.87,46.87,0,0,0-5.6,18.5H25.2A84.84,84.84,0,0,1,28.4,31.28Zm25.2,75.9a53.6,53.6,0,1,1,53.6-53.6h0a53.6,53.6,0,0,1-53.6,53.6Z" transform="translate(0 0.02)"/>
</svg>
