<svg xmlns="http://www.w3.org/2000/svg" viewBox="0 0 476.9 505.86">
  <title>ico-social-g</title>
  <g>
    <path d="M236.43,47.77c3.6,7.6,7.6,14.4,10.3,21.6,11.3,31,13.5,62.4,1.8,93.8-7,18.7-18.8,34.2-33.3,47.9a115.76,115.76,0,0,0-16.2,18.8c-4.3,6.5-4,13.8.4,20.7,8.6,13.7,20.3,24.5,32.4,35,26.1,22.7,39.9,51.5,41.4,86.1.8,17,.5,34-5.1,50.4-10.7,30.9-30.9,53.7-60.1,68.2-36.6,18.3-75,18.7-114.1,10.4-23.4-5-45-14.2-63.3-30-29.1-25.2-37.3-59.8-25.3-94.7,17.6-51.1,55.8-78,107.7-87.3,7.2-1.3,14.5-1.5,22.5-2.2a73,73,0,0,1-5-44.1c-9-1.8-17.7-2.9-26.1-5.4-24.2-7.1-42.7-22-56.3-43-15.8-24.2-22.4-51.3-20.3-79.9,2.2-30,14.7-55.7,35.8-77.1,16.7-17,36.6-28.7,59.9-34a115.89,115.89,0,0,1,24.2-2.8c41-.3,82-.1,123-.1,7.3,0,10.2,1.9,12.3,7.8,1.8,5,.1,10.3-4.5,14.2-7.9,6.7-15.9,13.1-23.4,20.2-4.3,4-8.7,5.8-14.4,5.2A23.82,23.82,0,0,0,236.43,47.77Zm-89.3,410.7c5-.6,12.1-1.2,19.2-2.4,14.7-2.4,28.2-7.6,39-18.5,11.9-11.9,15.4-26.9,15.9-42.9.5-13.4-2.3-26.2-12.4-35.7-10.8-10.3-22.5-19.7-33.9-29.3-1.7-1.4-4.2-2-6.5-2.5-27.1-6.4-52.3-1.9-75.1,14.2-32.9,23.1-37.1,65.1-9.6,94.2C100.43,453,121.53,459.07,147.13,458.47Zm44.6-318.4a128,128,0,0,0-8.6-45.4c-5.9-15.6-14.2-29.8-27.6-40.3-9.8-7.7-20.8-12.2-33.5-8.5-13.5,3.9-20.4,14.5-24.7,26.8-8,22.8-6.7,45.9-.2,68.8,5.8,20.2,15.2,38.3,31.9,51.9,17,13.8,38.4,13,50.8-6.5C189,172.57,191.73,156.67,191.73,140.07Z"/>
    <path d="M354.53,160.67v-38c0-10.1,3.8-13.8,14-13.8,5,0,10-.1,15,0,6.5.1,10.2,3.4,11.1,9.8a40.21,40.21,0,0,1,.3,6c0,25,.1,50-.1,75,0,4.5,1.1,6,5.8,5.9,21-.2,42-.1,63-.1,9.1,0,13,3.9,13.2,13q.15,10.5,0,21c-.1,9.6-3.9,13.4-13.4,13.4-21,0-42,.1-63-.1-4.4,0-5.6,1.3-5.6,5.7.2,25.3.1,50.7.1,76,0,11.7-3.5,15.2-15.1,15.2h-12c-8.9,0-13.2-4.2-13.2-13.1-.1-20.8,0-41.7,0-62.5,0-5-.3-10,.1-15,.3-4.7-1.1-6.3-6.1-6.3-20.5.3-41,.1-61.5.1-10.9,0-14.3-3.4-14.3-14.4,0-6.5-.1-13,0-19.5.1-10.1,3.6-13.6,13.5-13.6,20.8,0,41.7-.1,62.5.1,4.6,0,6-1.3,5.9-5.9C354.33,186.67,354.53,173.67,354.53,160.67Z"/>
  </g>
</svg>
