<svg xmlns="http://www.w3.org/2000/svg" viewBox="0 0 24 18">
  <title>ico-nav-contactus-AI</title>
  <path d="M23.74,17.3,15.46,9,21.58,2.9,23.76.73A1.52,1.52,0,0,1,24,1.5v15A1.52,1.52,0,0,1,23.74,17.3ZM21.05,2.37,18.26,5.16l-5.35,5.35-.93.94-9-9L1.45.92.76.23A1.4,1.4,0,0,1,1.5,0h21a1.54,1.54,0,0,1,.72.21L22.46,1ZM.91,1.45,8.47,9,.23,17.24A1.5,1.5,0,0,1,0,16.5V1.5A1.5,1.5,0,0,1,.23.76l.68.68ZM9,9.53l.32.32.11.11,1,1,1.5,1.5.06-.06h0L13.45,11l1.48-1.49,8.26,8.26a1.52,1.52,0,0,1-.69.19H1.5a1.4,1.4,0,0,1-.74-.23Z" fill="#b99403" fill-rule="evenodd"/>
</svg>
