<svg xmlns="http://www.w3.org/2000/svg" viewBox="0 0 288.05 83.03" preserveAspectRatio="xMinYMin meet">
  <title>logo_AI</title>
  <text transform="translate(90.18 62.01)" font-size="41.05" fill="#fff" font-family="LucidaSans-Ita" style="isolation: isolate">THEYALOW</text>
  <path d="M2.17,22.29,21,21.57,20.83,2.78l8,7.67L29,29.24,10.19,30ZM14.34,33.92l18.78-.71L33,14.42l8,7.67.13,18.79-18.79.71ZM62.17,79.66,62,60.87l18.79-.72-8-7.66L54,53.2,54.15,72ZM50,68l-.12-18.79,18.78-.71-8-7.67-18.78.71L42,60.35ZM60.43,1.9l.72,18.78,18.79-.13-7.67,8-18.79.12L52.76,9.91ZM48.8,14.06l.71,18.79,18.79-.13-7.67,8-18.79.12-.72-18.78ZM3.06,61.89l18.79-.12.72,18.78,7.66-8-.71-18.78-18.79.12ZM14.7,49.72l18.79-.12.71,18.78,7.67-8-.72-18.78-18.79.12Z" transform="translate(0.01 0.01)" fill="#f5c506" fill-rule="evenodd" opacity="0.5" style="isolation: isolate"/>
  <path d="M0,55,13.07,41.5,0,28h11.1L24.17,41.5,11.09,55Zm16.84,0L29.91,41.5,16.83,28h11.1L41,41.5,27.93,55ZM83,55,69.93,41.5,83,28H71.91L58.83,41.5,71.91,55ZM66.17,55,53.09,41.5,66.17,28H55.07L42,41.5,55.07,55ZM28,0,41.5,13.07,55,0v11.1L41.5,24.17,28,11.09V0Zm0,16.84L41.5,29.91,55,16.83v11.1L41.5,41,28,27.93V16.83ZM28,83,41.5,69.93,55,83V71.91L41.5,58.83,28,71.91V83Zm0-16.84L41.5,53.09,55,66.17V55.07L41.5,42,28,55.07v11.1Z" transform="translate(0.01 0.01)" fill="#f5c506" fill-rule="evenodd"/>
</svg>
