<?xml version="1.0" standalone="no"?>
<!DOCTYPE svg PUBLIC "-//W3C//DTD SVG 1.1//EN" "http://www.w3.org/Graphics/SVG/1.1/DTD/svg11.dtd" >
<svg xmlns="http://www.w3.org/2000/svg" xmlns:xlink="http://www.w3.org/1999/xlink" version="1.1">
<metadata></metadata>
<defs>
<font id="poppinsregular" horiz-adv-x="1289" >
<font-face units-per-em="2048" ascent="1638" descent="-410" />
<missing-glyph horiz-adv-x="577" />
<glyph unicode="&#xfb01;" horiz-adv-x="1098" d="M44 915v142h137v89q0 173 92.5 252t290.5 79v-143q-116 0 -161 -43t-45 -145v-89h597v-1057h-176v915h-421v-915h-177v915h-137zM751 1345.5q0 50.5 34.5 85t83.5 34.5t83 -34.5t34 -85t-34 -84.5t-84 -34t-83.5 34t-33.5 84.5z" />
<glyph unicode="&#xfb02;" horiz-adv-x="1098" d="M44 915v142h137v89q0 173 92.5 252t290.5 79v-143q-116 0 -161 -43t-45 -145v-89h221v-142h-221v-915h-177v915h-137zM779 0v1425h176v-1425h-176z" />
<glyph horiz-adv-x="0" />
<glyph horiz-adv-x="0" />
<glyph unicode="&#xd;" horiz-adv-x="577" />
<glyph unicode=" "  horiz-adv-x="577" />
<glyph unicode="&#x09;" horiz-adv-x="577" />
<glyph unicode="&#xa0;" horiz-adv-x="577" />
<glyph unicode="!" horiz-adv-x="788" d="M296 113q0 47 33 80t80 33t80 -33t33 -80t-33 -80t-80 -33t-80 33t-33 80zM312 1440h182l-18 -1041h-143z" />
<glyph unicode="&#x22;" horiz-adv-x="549" d="M62 1532h167l-23 -382h-121zM321 1532h168l-23 -382h-121z" />
<glyph unicode="#" horiz-adv-x="1631" d="M71 389v150h333l75 350h-298v151h329l83 385h169l-82 -385h402l83 385h169l-83 -385h270v-151h-301l-74 -350h263v-150h-296l-83 -389h-170l84 389h-404l-82 -389h-169l82 389h-300zM573 539h403l75 350h-402z" />
<glyph unicode="$" horiz-adv-x="1254" d="M116 333h187q5 -79 56 -132.5t150 -66.5v472q-199 44 -270 101q-87 69 -108 147q-15 52 -15 118q0 156 105.5 258t287.5 116v155h107v-155q161 -13 261.5 -101t117.5 -235h-192q-6 64 -55.5 116t-131.5 70v-463q240 -50 316 -130q82 -89 82 -232.5t-104.5 -255 t-293.5 -126.5v-156h-107v156q-173 13 -283 104.5t-110 239.5zM287 981.5q0 -96.5 56.5 -143.5t165.5 -78v439q-101 -9 -161.5 -65t-60.5 -152.5zM616 134q106 15 166.5 77.5t60.5 153.5t-58.5 138.5t-168.5 75.5v-445z" />
<glyph unicode="%" horiz-adv-x="1316" d="M88 1069q0 130 78 207.5t201.5 77.5t202.5 -77.5t79 -207.5t-79 -207.5t-201.5 -77.5t-201.5 77.5t-79 207.5zM181 0l780 1334h175l-780 -1334h-175zM235 1068.5q0 -175.5 132.5 -175.5t132.5 175.5t-132.5 175.5t-132.5 -175.5zM670 264.5q0 130.5 79 208.5t200.5 78 t201 -78t79.5 -208.5t-78.5 -207t-202 -76.5t-201.5 76.5t-78 207zM816 265.5q0 -175.5 133 -175.5t133 175.5t-133 175.5t-133 -175.5z" />
<glyph unicode="&#x26;" horiz-adv-x="1285" d="M73 377.5q0 171.5 110.5 281t270.5 109.5q22 0 51 -17l-77 57q-133 173 -133.5 303.5t93 222t252.5 91.5t253.5 -89.5t94.5 -213.5q0 -40 -14 -88h-177q11 35 11 92.5t-47 105.5t-121 48t-121 -48t-47 -127t88 -196l697 -909h-214l-202 270q-34 -125 -137 -205 t-253.5 -80t-264 110.5t-113.5 282zM235 379.5q0 -105.5 67 -179t163.5 -73.5t165.5 73.5t69 178t-68 178t-165.5 73.5t-164.5 -72.5t-67 -178z" />
<glyph unicode="'" horiz-adv-x="290" d="M62 1532h167l-23 -382h-121z" />
<glyph unicode="(" horiz-adv-x="1079" d="M292 775.5q0 356.5 139 657.5t370 471h187v-17q-266 -208 -396 -500t-130 -612.5t130 -613t396 -498.5v-17h-187q-231 169 -370 471t-139 658.5z" />
<glyph unicode=")" horiz-adv-x="1081" d="M94 -337q264 206 394.5 498.5t130.5 613t-130.5 612.5t-394.5 500v17h187q231 -170 370 -471t139 -657.5t-139 -658.5t-370 -471h-187v17z" />
<glyph unicode="*" horiz-adv-x="946" d="M112 949l273 104l-273 104l81 140l235 -177l-35 293h158l-39 -293l232 175l76 -138l-275 -104l275 -104l-76 -141l-232 176l39 -291h-158l35 291l-235 -179z" />
<glyph unicode="+" horiz-adv-x="1425" d="M224 628v153h408v415h163v-415h408v-153h-408v-415h-163v415h-408z" />
<glyph unicode="," horiz-adv-x="357" d="M75 -50v179h179q96 -404 -173 -404v84q48 0 70 23t22 74v44h-98z" />
<glyph unicode="-" horiz-adv-x="1129" d="M181 630v149h768v-149h-768z" />
<glyph unicode="." horiz-adv-x="434" d="M106 113q0 47 32.5 80t79 33t79 -33t32.5 -80t-32.5 -80t-79 -33t-79 33t-32.5 80z" />
<glyph unicode="/" horiz-adv-x="1036" d="M158 -327l525 2140h173l-525 -2140h-173z" />
<glyph unicode="0" horiz-adv-x="1223" d="M127 705.5q0 124.5 12.5 223.5t46 191.5t86.5 153t138.5 97t214 36.5t226 -53t148.5 -153q94 -185 94 -496q0 -400 -142 -569q-117 -134 -341 -134q-410 0 -472 479q-11 100 -11 224.5zM298 704.5q0 -96.5 5 -166.5t24.5 -146t52 -124.5t91 -79t139.5 -30.5t139.5 30.5 t92.5 79t51 125.5q31 123 31 279t-10.5 240.5t-40.5 168.5t-96 127t-157 43t-149.5 -30.5t-91 -79t-52 -124.5t-24.5 -146t-5 -166.5z" />
<glyph unicode="1" horiz-adv-x="617" d="M100 1211v156h330v-1367h-172v1211h-158z" />
<glyph unicode="2" horiz-adv-x="1113" d="M108 19v126q46 40 145 124.5t147 128t127 117.5t120.5 124t85.5 116q83 123 83 243.5t-62.5 193.5t-196 73t-205 -82t-77.5 -217h-167q8 216 130 332.5t317.5 116.5t314 -110.5t118.5 -301.5q0 -229 -224 -472q-81 -86 -125 -127q-123 -119 -264 -237h655v-148h-922z" />
<glyph unicode="3" horiz-adv-x="1133" d="M98 391h166q10 -110 91.5 -180t217.5 -70t208 72t72 186q0 152 -96.5 215.5t-294.5 63.5h-47v146h49q362 4 362 233q0 106 -68.5 167.5t-191.5 61.5t-194.5 -57t-86.5 -151h-169q15 168 139 263t317.5 95t306.5 -102t113 -260q0 -113 -63.5 -198.5t-164.5 -116.5v-10 q118 -33 185 -127.5t67 -252t-116 -267.5t-321.5 -110t-336 104t-144.5 295z" />
<glyph unicode="4" horiz-adv-x="1220" d="M86 312v123l663 951h223v-924h187v-150h-187v-312h-169v312h-717zM290 462h518v763z" />
<glyph unicode="5" horiz-adv-x="1220" d="M141 371h167q28 -104 111.5 -163t220.5 -59t215 92t78 248t-78 239.5t-231 83.5q-104 0 -179.5 -53.5t-111.5 -146.5h-160v795h834v-152h-672v-441q42 64 129 106.5t197.5 42.5t202 -41.5t141.5 -113.5q94 -138 94 -315q0 -218 -121.5 -355.5t-340 -137.5t-342.5 102 t-154 269z" />
<glyph unicode="6" horiz-adv-x="1238" d="M154 768q0 305 119.5 487.5t371.5 182.5q185 0 293.5 -99t126.5 -246h-158q-25 100 -86.5 148.5t-175.5 48.5q-173 0 -256 -127t-89 -432q52 94 154 147.5t228 53.5q192 0 311.5 -124.5t119.5 -335t-117.5 -341.5t-337.5 -131q-351 0 -448 296q-56 167 -56 472z M325 475.5q0 -150.5 83 -238.5t231.5 -88t228.5 83.5t80 230.5t-76.5 232.5t-216 85.5t-235 -77.5t-95.5 -228z" />
<glyph unicode="7" horiz-adv-x="1077" d="M77 1253v149h928v-131l-551 -1271h-192l576 1253h-761z" />
<glyph unicode="8" horiz-adv-x="1222" d="M121 389q0 133 67.5 228.5t179.5 131.5q-210 100 -210 322q0 163 118.5 270t335 107t333.5 -108t117 -271q0 -112 -57 -195.5t-151 -124.5q110 -36 177.5 -131.5t67.5 -228.5q0 -194 -134.5 -311t-354 -117t-354.5 117t-135 311zM287 397.5q0 -133.5 87.5 -210.5t236 -77 t235 78t86.5 210.5t-88.5 203t-232 70.5t-234 -70.5t-90.5 -204zM323 1059q0 -111 80 -180t207 -69t207 69t80 180t-76 175.5t-209.5 64.5t-211 -64.5t-77.5 -175.5z" />
<glyph unicode="9" horiz-adv-x="1222" d="M160 976q0 210 121 336t337 126q252 0 361.5 -172.5t109.5 -541t-101 -545.5t-354 -177q-195 0 -305 102t-131 256h160q44 -210 285 -210q154 0 225 118.5t71 414.5q-50 -77 -139 -117.5t-194 -40.5q-191 0 -318.5 120.5t-127.5 330.5zM325 982.5q0 -137.5 78 -222 t221.5 -84.5t217 81t73.5 223t-78 226t-215 84t-217 -85t-80 -222.5z" />
<glyph unicode=":" horiz-adv-x="580" d="M164 113q0 47 32.5 80t79.5 33t80 -33t33 -80t-33 -80t-80 -33t-79.5 33t-32.5 80zM164 933q0 46 32.5 79t79.5 33t80 -33t33 -79t-33 -78.5t-80 -32.5t-79.5 32.5t-32.5 78.5z" />
<glyph unicode=";" horiz-adv-x="531" d="M179 936.5q0 47.5 32.5 80t79 32.5t79 -32.5t32.5 -80t-32.5 -80t-79 -32.5t-79 32.5t-32.5 80zM189 -50v179h179q95 -404 -173 -404v84q48 0 70 23t22 74v44h-98z" />
<glyph unicode="&#x3c;" horiz-adv-x="1223" d="M213 705l467 441h221l-466 -441l466 -443h-221z" />
<glyph unicode="=" horiz-adv-x="1484" d="M243 419v153h1001v-153h-1001zM243 836v154h1001v-154h-1001z" />
<glyph unicode="&#x3e;" horiz-adv-x="1159" d="M254 262l466 443l-466 441h220l465 -441l-465 -443h-220z" />
<glyph unicode="?" horiz-adv-x="1205" d="M191 1040q-2 176 114.5 282.5t306 106.5t304 -106.5t114.5 -303.5t-114.5 -288.5t-345.5 -93.5v-253h-166v378h77q195 -2 289.5 53t94.5 217q0 118 -68 183t-187 65t-187.5 -62.5t-68.5 -177.5h-163zM379 97.5q0 47.5 33 80t80 32.5t79.5 -32.5t32.5 -80t-32.5 -80 t-79.5 -32.5t-80 32.5t-33 80z" />
<glyph unicode="@" horiz-adv-x="2226" d="M106 397q0 310 145.5 564.5t406 402.5t586.5 148q394 0 636 -226t242 -593q0 -298 -158 -504t-355 -206q-113 0 -166 67.5t-49 166.5q-147 -235 -399 -234q-202 0 -324 156.5t-87.5 396.5t206 388.5t387 148.5t336 -151.5t85.5 -372.5l-48 -310q-13 -108 75 -108 q112 0 213.5 162.5t101.5 399.5q0 306 -190.5 489t-529.5 183q-406 0 -669.5 -279t-263.5 -689q0 -347 214.5 -536.5t576.5 -198.5l-36 -147q-416 9 -676 241.5t-260 640.5zM762.5 527.5q-25.5 -167.5 53.5 -282t215 -114.5t249.5 114.5t138.5 282t-54 281t-215 113.5 t-249 -113.5t-138.5 -281z" />
<glyph unicode="A" horiz-adv-x="1330" d="M85 0l485 1334h192l484 -1334h-181l-104 292h-593l-104 -292h-179zM417 431h494l-246 689z" />
<glyph unicode="B" horiz-adv-x="1177" d="M145 0v1334h477q204 0 315.5 -99t111.5 -256q0 -223 -256 -294q129 -21 208 -115t79 -218q0 -152 -118.5 -252t-316.5 -100h-500zM320 138h315q127 0 199.5 64t72.5 174.5t-78 174t-207 63.5h-302v-476zM320 755h294q121 0 189.5 58.5t68.5 159.5t-68.5 161t-189.5 60 h-294v-439z" />
<glyph unicode="C" horiz-adv-x="1495" d="M75 668.5q0 295.5 196.5 487.5t483.5 192q208 0 370.5 -98t239.5 -284h-212q-119 226 -398 226q-217 0 -359 -143.5t-142 -380.5t141.5 -381t359.5 -144q132 0 236 58t162 168h212q-77 -185 -239.5 -282.5t-370.5 -97.5q-287 0 -483.5 192t-196.5 487.5z" />
<glyph unicode="D" horiz-adv-x="1339" d="M145 0v1334h421q323 0 509.5 -181t186.5 -492.5t-186.5 -486t-509.5 -174.5h-421zM320 134h246q252 0 385 139t133 387.5t-133 387t-385 138.5h-246v-1052z" />
<glyph unicode="E" horiz-adv-x="971" d="M145 0v1334h706v-138h-531v-455h473v-137h-473v-466h531v-138h-706z" />
<glyph unicode="F" horiz-adv-x="942" d="M145 0v1334h750v-140h-575v-453h454v-138h-454v-603h-175z" />
<glyph unicode="G" horiz-adv-x="1495" d="M75 668.5q0 295.5 196.5 487.5t483.5 192q208 0 370.5 -98t239.5 -284h-212q-119 226 -398 226q-217 0 -359 -143.5t-142 -380.5t141.5 -381t352.5 -144t338.5 119.5t149.5 323.5h-551v138h735v-138q-27 -258 -213.5 -427.5t-462.5 -169.5t-472.5 192t-196.5 487.5z" />
<glyph unicode="H" horiz-adv-x="1312" d="M145 0v1334h175v-593h672v593h176v-1334h-176v603h-672v-603h-175z" />
<glyph unicode="I" horiz-adv-x="463" d="M145 0v1334h175v-1334h-175z" />
<glyph unicode="J" horiz-adv-x="1062" d="M96 349h179q2 -92 49 -150t146.5 -58t147.5 58.5t48 149.5v985h175v-985q0 -166 -102 -264t-269 -98t-270.5 98t-103.5 264z" />
<glyph unicode="K" horiz-adv-x="1150" d="M145 0v1334h175v-618l549 618h228l-623 -676l623 -658h-232l-545 597v-597h-175z" />
<glyph unicode="L" horiz-adv-x="825" d="M145 0v1334h175v-1200h468v-134h-643z" />
<glyph unicode="M" horiz-adv-x="1649" d="M145 0v1334h178l503 -1093l500 1093h180v-1334h-178v972l-446 -972h-114l-448 972v-972h-175z" />
<glyph unicode="N" horiz-adv-x="1343" d="M145 0v1334h175l705 -1059v1059h174v-1334h-174l-705 1058v-1058h-175z" />
<glyph unicode="O" horiz-adv-x="1504" d="M75 668.5q0 295.5 196.5 487.5t483.5 192t482.5 -192t195.5 -488.5t-195.5 -488.5t-482.5 -192t-483.5 193t-196.5 488.5zM252 668q0 -237 142.5 -381t360 -144t358 144t140.5 381t-140.5 380.5t-359 143.5t-360 -143.5t-141.5 -380.5z" />
<glyph unicode="P" horiz-adv-x="1112" d="M145 0v1334h432q226 0 344.5 -109.5t118.5 -281t-115 -282t-348 -110.5h-257v-551h-175zM320 689h257q145 0 215.5 66.5t70.5 185.5q0 252 -286 253h-257v-505z" />
<glyph unicode="Q" horiz-adv-x="1510" d="M75 668.5q0 295.5 196.5 487.5t483.5 192t482.5 -192t195.5 -488q0 -190 -85.5 -342.5t-232.5 -240.5l340 -337h-230l-270 267q-92 -28 -200 -28q-287 0 -483.5 193t-196.5 488.5zM252 668q0 -237 142.5 -381t360 -144t358 144t140.5 381t-140.5 380.5t-359 143.5 t-360 -143.5t-141.5 -380.5z" />
<glyph unicode="R" horiz-adv-x="1187" d="M145 0v1334h432q226 0 344.5 -109.5t118.5 -268.5t-86.5 -264.5t-260.5 -133.5l367 -558h-219l-350 551h-171v-551h-175zM320 689h257q145 0 215.5 66.5t70.5 185.5q0 252 -286 253h-257v-505z" />
<glyph unicode="S" horiz-adv-x="1129" d="M116 333h187q7 -90 71.5 -146t191.5 -56t202 65.5t75 153t-40.5 134.5t-104 70t-141.5 39.5t-156 39.5t-141.5 59t-103.5 106.5t-40 173.5q0 169 120 272.5t314 103.5t308 -90t132 -248h-195q-7 79 -74 135t-179 56t-183.5 -56.5t-71.5 -166.5q0 -74 40.5 -122t103.5 -71 t141 -40t156.5 -39.5t141.5 -57t103.5 -103.5t40.5 -172q0 -156 -119 -271t-322.5 -115t-330 93t-126.5 253z" />
<glyph unicode="T" horiz-adv-x="1050" d="M85 1194v140h879v-140h-352v-1194h-175v1194h-352z" />
<glyph unicode="U" horiz-adv-x="1295" d="M143 468v866h177v-866q0 -165 87 -247.5t241.5 -82.5t242.5 82.5t88 247.5v866h176v-866q0 -235 -143 -358t-363.5 -123t-363 123t-142.5 358z" />
<glyph unicode="V" horiz-adv-x="1308" d="M46 1334h187l419 -1147l424 1147h186l-513 -1334h-189z" />
<glyph unicode="W" horiz-adv-x="1886" d="M46 1334h185l296 -1134l324 1134h192l298 -1130l314 1130h186l-405 -1334h-196l-301 1078l-321 -1078l-194 -2z" />
<glyph unicode="X" horiz-adv-x="1210" d="M96 0l413 668l-413 666h194l326 -527l306 527h195l-412 -668l410 -666h-193l-325 525l-307 -525h-194z" />
<glyph unicode="Y" horiz-adv-x="1100" d="M29 1334h193l329 -668l327 668h195l-434 -829v-505h-175v505z" />
<glyph unicode="Z" horiz-adv-x="1043" d="M96 0v138l651 1056h-651v140h852v-140l-650 -1056h650v-138h-852z" />
<glyph unicode="[" horiz-adv-x="911" d="M308 -329v2142h327v-145h-165v-1849h165v-148h-327z" />
<glyph unicode="\" horiz-adv-x="1314" d="M300 1813h176l600 -2140h-173z" />
<glyph unicode="]" horiz-adv-x="911" d="M277 -181h166v1849h-166v145h329v-2142h-329v148z" />
<glyph unicode="^" horiz-adv-x="1216" d="M73 327l454 1007h162l455 -1007h-185l-351 788l-350 -788h-185z" />
<glyph unicode="_" horiz-adv-x="1551" d="M275 -77h1024v-158h-1024v158z" />
<glyph unicode="`" horiz-adv-x="459" d="M19 1346v162l411 -243v-135z" />
<glyph unicode="a" d="M75 534q0 242 143.5 391t360.5 149q134 0 235.5 -63t153.5 -166v212h178v-1057h-178v215q-52 -104 -153 -168t-236 -64q-215 0 -359.5 154.5t-144.5 396.5zM254 535q0 -179 106 -290.5t252.5 -111.5t251 108t104.5 287t-104.5 286.5t-252 107.5t-252.5 -104t-105 -283z " />
<glyph unicode="b" d="M145 0v1425h175v-580q53 103 154.5 166t236.5 63q217 0 360 -149t143 -391t-144 -396.5t-359 -154.5q-135 0 -236.5 64.5t-154.5 167.5v-215h-175zM320 529q0 -178 104.5 -287t252 -109t252.5 110.5t105 290.5t-105 284t-252.5 104t-252 -107.5t-104.5 -285.5z" />
<glyph unicode="c" horiz-adv-x="1154" d="M75 528.5q0 245.5 142.5 395.5t370.5 150q190 0 310 -88.5t169 -252.5h-189q-31 92 -106 144.5t-184 52.5q-151 0 -242.5 -105t-91.5 -296.5t91.5 -296.5t242.5 -105q225 0 290 196h189q-48 -156 -170.5 -248t-308.5 -92q-228 0 -370.5 150t-142.5 395.5z" />
<glyph unicode="d" d="M75 534q0 242 143.5 391t360.5 149q134 0 235.5 -63t153.5 -166v580h178v-1425h-178v215q-52 -104 -153 -168t-236 -64q-215 0 -359.5 154.5t-144.5 396.5zM254 535q0 -179 106 -290.5t252.5 -111.5t251 108t104.5 287t-104.5 286.5t-252 107.5t-252.5 -104t-105 -283z " />
<glyph unicode="e" horiz-adv-x="1175" d="M75 529.5q0 246.5 144.5 395.5t374.5 149t370 -141.5t140 -360.5q0 -56 -9 -104h-841q7 -158 99 -249.5t235 -91.5q108 0 181.5 48.5t108.5 127.5h189q-50 -139 -172 -229.5t-307 -90.5q-228 0 -370.5 150t-142.5 396.5zM256 595h664q-2 152 -96.5 243.5t-234 91.5 t-231.5 -89.5t-102 -245.5z" />
<glyph unicode="f" horiz-adv-x="634" d="M44 915v142h137v89q0 173 92.5 252t290.5 79v-143q-116 0 -161 -43.5t-45 -144.5v-89h221v-142h-221v-915h-177v915h-137z" />
<glyph unicode="g" d="M75 534q0 242 143.5 391t360.5 149q134 0 235.5 -63t153.5 -166v212h178v-1084q0 -217 -140.5 -355t-356.5 -138t-357.5 100t-160.5 262h172q25 -90 117 -150t229 -60t228 89.5t91 251.5v242q-52 -104 -153 -168t-236 -64q-215 0 -359.5 154.5t-144.5 396.5zM254 535 q0 -179 106 -290.5t252.5 -111.5t251 108t104.5 287t-104.5 286.5t-252 107.5t-252.5 -104t-105 -283z" />
<glyph unicode="h" horiz-adv-x="1208" d="M145 0v1425h175v-540q108 189 345 189q174 0 291.5 -116.5t117.5 -331.5v-626h-173v597q0 160 -77 242.5t-212.5 82.5t-213.5 -82.5t-78 -242.5v-597h-175z" />
<glyph unicode="i" horiz-adv-x="463" d="M116 1345.5q0 50.5 34.5 85t83.5 34.5t83.5 -34.5t34.5 -85t-34.5 -84.5t-84.5 -34t-83.5 34t-33.5 84.5zM145 0v1057h175v-1057h-175z" />
<glyph unicode="j" horiz-adv-x="463" d="M-62 -356h73q74 0 104 30t30 99v1284h175v-1284q0 -273 -272 -273h-2h-108v144zM116 1345.5q0 50.5 34.5 85t83.5 34.5t83.5 -34.5t34.5 -85t-34.5 -84.5t-84.5 -34t-83.5 34t-33.5 84.5z" />
<glyph unicode="k" horiz-adv-x="987" d="M145 0v1425h175v-836l404 468h246l-498 -526l498 -531h-237l-413 464v-464h-175z" />
<glyph unicode="l" horiz-adv-x="463" d="M145 0v1425h175v-1425h-175z" />
<glyph unicode="m" horiz-adv-x="1962" d="M145 0v1057h175v-172q108 189 345 189q121 0 218.5 -58.5t148.5 -170.5q57 108 156.5 168.5t226.5 60.5q178 0 296 -116.5t118 -331.5v-626h-174v597q0 160 -78 242.5t-212.5 82.5t-212.5 -82.5t-78 -242.5v-597h-173v597q0 160 -77 242.5t-212.5 82.5t-213.5 -82.5 t-78 -242.5v-597h-175z" />
<glyph unicode="n" horiz-adv-x="1208" d="M145 0v1057h175v-172q108 189 345 189q174 0 291.5 -116.5t117.5 -331.5v-626h-173v597q0 160 -77 242.5t-212.5 82.5t-213.5 -82.5t-78 -242.5v-597h-175z" />
<glyph unicode="o" horiz-adv-x="1216" d="M75 527.5q0 244.5 152 395.5t381.5 151t381 -151t151.5 -394.5t-158.5 -394.5t-387.5 -151t-374.5 150t-145.5 394.5zM254 528q0 -190 96 -295.5t245 -105.5t257.5 106.5t108.5 295.5t-104 295t-253.5 106t-249.5 -106t-100 -296z" />
<glyph unicode="p" d="M145 -500v1557h175v-212q53 103 154.5 166t236.5 63q217 0 360 -149t143 -391t-144 -396.5t-359 -154.5q-135 0 -236.5 64.5t-154.5 167.5v-715h-175zM320 529q0 -178 104.5 -287t252 -109t252.5 110.5t105 290.5t-105 284t-252.5 104t-252 -107.5t-104.5 -285.5z" />
<glyph unicode="q" d="M75 534q0 242 143.5 391t360.5 149q134 0 235.5 -63t153.5 -166v212h178v-1557h-178v715q-52 -104 -153 -168t-236 -64q-215 0 -359.5 154.5t-144.5 396.5zM254 535q0 -179 106 -290.5t252.5 -111.5t251 108t104.5 287t-104.5 286.5t-252 107.5t-252.5 -104t-105 -283z " />
<glyph unicode="r" horiz-adv-x="707" d="M145 0v1057h175v-179q94 196 321 196v-183h-46q-134 0 -204.5 -70t-70.5 -244v-577h-175z" />
<glyph unicode="s" horiz-adv-x="1012" d="M106 316h181q3 -89 62 -142t162 -53t161.5 44.5t58.5 113t-46 109t-115.5 55.5t-151 36t-151 45.5t-115.5 84t-46 150.5q0 132 110.5 223.5t287 91.5t276.5 -89.5t109 -245.5h-180q-4 88 -60 142t-155 54t-156 -47t-57 -121t64.5 -114.5t156 -59t183 -42.5t156 -90 t64.5 -188.5t-111 -206t-288 -83.5t-283.5 88.5t-116.5 244.5z" />
<glyph unicode="t" horiz-adv-x="683" d="M46 915v142h137v262h177v-262h274v-142h-274v-643q0 -72 28.5 -100.5t102.5 -28.5h144v-143h-177q-276 0 -275 272v643h-137z" />
<glyph unicode="u" horiz-adv-x="1208" d="M134 430v627h174v-599q0 -158 78 -241.5t212.5 -83.5t212.5 83.5t78 241.5v599h176v-1057h-176v169q-105 -186 -341 -186h-3q-175 0 -293 116t-118 331z" />
<glyph unicode="v" horiz-adv-x="1069" d="M24 1057h186l323 -893l325 893h189l-413 -1057h-199z" />
<glyph unicode="w" horiz-adv-x="1554" d="M24 1057h180l244 -882l249 882h181l235 -884l242 884h177l-333 -1057h-181l-239 839l-239 -839h-182z" />
<glyph unicode="x" horiz-adv-x="919" d="M24 0l340 524l-340 533h198l252 -394l235 394h188l-341 -528l339 -529h-198l-251 393l-233 -393h-189z" />
<glyph unicode="y" horiz-adv-x="1071" d="M24 1057h191l324 -855l330 855h180l-637 -1551h-181l210 511z" />
<glyph unicode="z" horiz-adv-x="871" d="M81 0v143l510 772h-510v142h709v-142l-511 -772h511v-143h-709z" />
<glyph unicode="{" horiz-adv-x="1058" d="M279 676v81q195 38 195 248q0 66 -16.5 186t-16.5 205.5t19 166.5t43 127t62 83t61 50.5t54 26.5h174v-31q-246 -92 -246 -471q0 -85 15.5 -198.5t15.5 -192.5t-50 -148.5t-152 -90.5v-4q202 -41 202 -260q0 -57 -15.5 -171t-15.5 -198q0 -379 246 -472v-30h-174 q-31 13 -54 26.5t-61 49.5t-60 83q-64 120 -64 310q0 69 16.5 189.5t16.5 186.5q0 207 -195 248z" />
<glyph unicode="|" horiz-adv-x="579" d="M202 -204v1734h175v-1734h-175z" />
<glyph unicode="}" horiz-adv-x="1052" d="M204 -387q117 44 182.5 162.5t65.5 309.5q0 84 -15 198t-15 171q0 219 200 260v4q-102 21 -151 90.5t-49 148.5t15 192t15 199q0 191 -65.5 309t-182.5 162v31h178q31 -13 53.5 -26.5t60 -50.5t62.5 -83q62 -119 61 -310q0 -70 -15.5 -189.5t-15.5 -185.5 q0 -212 191 -248v-81q-192 -39 -191 -248q0 -66 15.5 -186.5t15.5 -206t-19 -166.5t-43 -127.5t-61.5 -82.5t-60.5 -49.5t-53 -26.5h-178v30z" />
<glyph unicode="~" horiz-adv-x="1000" d="M73 483q25 139 98 207.5t166 68.5t184 -62t142 -62t89.5 31t46.5 87h131q-50 -275 -281 -275q-77 0 -168.5 61.5t-141.5 61.5t-89.5 -32t-47.5 -86h-129z" />
<glyph unicode="&#xa1;" horiz-adv-x="815" d="M296 962q0 47 33 79.5t80 32.5t80 -32.5t33 -79.5t-33 -80t-80 -33t-80 33t-33 80zM312 -366l21 1042h143l18 -1042h-182z" />
<glyph unicode="&#xa2;" horiz-adv-x="1376" d="M136 501.5q0 198.5 114 341.5t325 162v169h116v-169q163 -15 266 -106t123 -217h-164q-57 176 -281 176q-152 0 -243.5 -95t-91.5 -261.5t91.5 -261.5t243.5 -95q224 0 281 176h164q-19 -126 -122.5 -217t-266.5 -104v-171h-116v171q-211 19 -325 161t-114 340.5z" />
<glyph unicode="&#xa3;" horiz-adv-x="1229" d="M86 593v123h168q-44 122 -44 241q0 183 117.5 296.5t310 113.5t294.5 -113t104 -286h-158q0 114 -59.5 182t-180 68t-193 -65t-72.5 -205q0 -91 49 -232h381v-123h-343q17 -69 18 -115q0 -188 -131 -333h702v-147h-853l-36 102q77 90 114.5 173t37.5 173.5t-16 146.5 h-210z" />
<glyph unicode="&#xa4;" horiz-adv-x="1033" d="M116 414l113 113q-53 85 -53.5 199.5t57.5 199.5l-117 116l86 86l118 -118q86 54 198 54.5t195 -55.5l119 119l86 -86l-117 -118q55 -86 55 -198t-57 -197l119 -115l-86 -87l-119 119q-87 -59 -201.5 -59t-195.5 54l-114 -114zM316 726q0 -110 55 -171t139.5 -61t145 61 t60.5 171t-58.5 171.5t-143 61.5t-141.5 -61.5t-57 -171.5z" />
<glyph unicode="&#xa5;" horiz-adv-x="1100" d="M29 1334h193l329 -668l327 668h195l-313 -597h265v-133l-336 -3l-50 -96v-103h386v-132h-386v-270h-175v270h-385v132h385v103l-50 96l-335 3v133h264z" />
<glyph unicode="&#xa6;" horiz-adv-x="579" d="M202 -204v728h175v-728h-175zM202 803v727h175v-727h-175z" />
<glyph unicode="&#xa7;" horiz-adv-x="1104" d="M86 458q0 123 70.5 206t195.5 120q-97 46 -149.5 103t-52.5 149q0 129 109 215.5t286 86.5t286.5 -80t109.5 -218h-169q-6 79 -60 126.5t-157 47.5q-234 0 -234 -167q0 -68 62 -110t254.5 -105.5t286.5 -145.5t94 -203t-68 -204t-195 -123q98 -46 150 -103t52 -149 q0 -129 -109 -216t-286.5 -87t-287 80t-109.5 219h168q5 -79 59 -127t161 -48q233 0 233 167q0 68 -61.5 110t-255.5 105.5t-288.5 145.5t-94.5 205zM264 470.5q0 -91.5 81 -156t211.5 -64.5t208.5 63.5t78 157t-81.5 156t-213 62.5t-208 -63.5t-76.5 -155z" />
<glyph unicode="&#xa8;" horiz-adv-x="555" d="M19 1297.5q0 42.5 31 73.5t73 31t73 -31t31 -73.5t-31 -73t-73 -30.5t-73 30.5t-31 73zM329 1297.5q0 42.5 30 73.5t74.5 31t74 -31t29.5 -73.5t-29.5 -73t-74 -30.5t-74.5 30.5t-30 73z" />
<glyph unicode="&#xa9;" horiz-adv-x="1519" d="M92 666q0 300 186 491t482.5 191t481.5 -191t185 -492t-185 -491.5t-481.5 -190.5t-482.5 191.5t-186 491.5zM179 666q0 -275 157 -441t423.5 -166t423.5 166t157 441t-157 440t-423.5 165t-423.5 -165t-157 -440zM340 668.5q0 198.5 119.5 321.5t299.5 123 q146 0 249 -74.5t142 -204.5h-169q-44 148 -222 147q-114 0 -184 -78.5t-70 -234.5t70 -236t184 -80q169 0 222 148h169q-41 -123 -145 -200.5t-246 -77.5q-179 0 -299 124t-120 322.5z" />
<glyph unicode="&#xaa;" horiz-adv-x="865" d="M64 1020q0 150 92 247.5t228 97.5q90 0 155 -38.5t98 -99.5v127h140v-674h-140v127q-33 -63 -98 -101t-155 -38q-135 0 -227.5 101t-92.5 251zM212 1019.5q0 -106.5 62.5 -173.5t150 -67t150 65t62.5 172.5t-62.5 171t-150 63.5t-150 -62.5t-62.5 -169z" />
<glyph unicode="&#xab;" horiz-adv-x="887" d="M86 568l186 337h171l-191 -337l191 -337h-171zM435 568l183 337h173l-190 -337l190 -337h-173z" />
<glyph unicode="&#xac;" horiz-adv-x="1420" d="M86 693v141h1235v-410h-173v269h-1062z" />
<glyph unicode="&#xad;" horiz-adv-x="1129" d="M181 630v149h768v-149h-768z" />
<glyph unicode="&#xae;" horiz-adv-x="1519" d="M92 665q0 301 187 492t487.5 191t487 -191t186.5 -492t-187.5 -491.5t-486 -190.5t-486.5 190.5t-188 491.5zM179 667q0 -274 158.5 -441t428.5 -167t429 166t159 441t-159 440t-429 165t-428.5 -165t-158.5 -439zM493 237v891h288q152 0 232 -73.5t80 -179t-57.5 -175.5 t-175.5 -90l245 -373h-144l-233 367h-120v-367h-115zM608 697h173q193 0 193 170.5t-193 170.5h-173v-341z" />
<glyph unicode="&#xaf;" horiz-adv-x="715" d="M19 1227v140h678v-140h-678z" />
<glyph unicode="&#xb0;" horiz-adv-x="792" d="M55 1007q0 154 96.5 247.5t245 93.5t244.5 -93.5t96 -247t-100 -246.5t-248 -93t-241 92.5t-93 246.5zM196 1007q0 -112 55 -171.5t139 -59.5t144.5 60.5t60.5 170.5t-58.5 172.5t-142.5 62.5t-141 -61.5t-57 -173.5z" />
<glyph unicode="&#xb1;" horiz-adv-x="1431" d="M226 250v154h408v318h-408v154h408v323h165v-323h408v-154h-408v-318h408v-154h-981z" />
<glyph unicode="&#xb2;" horiz-adv-x="619" d="M46 1176q4 85 65.5 138t171.5 53t177 -65.5t67 -145.5t-40.5 -137.5t-134.5 -127.5l-137 -96h318v-117h-485v99l196 156q135 110 135 211q0 50 -29 80.5t-71 30.5q-79 0 -92 -79h-141z" />
<glyph unicode="&#xb3;" horiz-adv-x="632" d="M37 869h136q17 -93 121 -93q54 0 87 26t33 71t-33.5 70t-88.5 25h-80v97h78q54 0 87 24t33 68t-30.5 71t-85.5 27q-88 0 -113 -69h-137q8 81 81 131t177 50t181 -58t77 -141q0 -115 -121 -154v-4q54 -16 88.5 -55.5t34.5 -108.5t-74 -123.5t-191.5 -54.5t-185 53 t-74.5 148z" />
<glyph unicode="&#xb4;" horiz-adv-x="448" d="M19 1130v135l411 243v-162z" />
<glyph unicode="&#xb5;" horiz-adv-x="1218" d="M145 -500v1557h173v-599q0 -158 78 -241.5t213 -83.5t212.5 83.5t77.5 241.5v599h175v-1057h-175v169q-107 -187 -344 -186q-143 0 -237 81v-564h-173z" />
<glyph unicode="&#xb6;" horiz-adv-x="1150" d="M71 940.5q0 174.5 116.5 284t339.5 109.5h480v-1334h-164v1194h-130v-1194h-164v551h-22q-227 0 -341.5 107.5t-114.5 282z" />
<glyph unicode="&#xb7;" horiz-adv-x="442" d="M110 661.5q0 47.5 32.5 80t79 32.5t79 -32.5t32.5 -80t-32.5 -80t-79 -32.5t-79 32.5t-32.5 80z" />
<glyph unicode="&#xb8;" horiz-adv-x="511" d="M19 -379h207q108 0 107.5 80t-107.5 80h-107v232h124v-115q111 0 180.5 -53t69.5 -143.5t-68.5 -146t-176.5 -55.5h-229v121z" />
<glyph unicode="&#xb9;" horiz-adv-x="369" d="M39 1249v106h238v-677h-141v571h-97z" />
<glyph unicode="&#xba;" horiz-adv-x="838" d="M64 1015q0 155 103 252.5t254.5 97.5t253 -96.5t101.5 -251t-106 -252t-257 -97.5t-250 96t-99 251zM212 1016.5q0 -113.5 56.5 -176.5t144 -63t152.5 63t65 176.5t-61.5 177t-150.5 63.5t-147.5 -63.5t-58.5 -177z" />
<glyph unicode="&#xbb;" horiz-adv-x="887" d="M96 231l191 337l-191 337h172l184 -337l-184 -337h-172zM445 231l189 337l-189 337h171l185 -337l-185 -337h-171z" />
<glyph unicode="&#xbc;" horiz-adv-x="1229" d="M62 1249v106h238v-677h-140v571h-98zM102 0l734 1334h161l-733 -1334h-162zM568 133v80l302 469h187v-455h93v-94h-93v-133h-141v133h-348zM713 227h207v329z" />
<glyph unicode="&#xbd;" horiz-adv-x="1254" d="M62 1249v106h238v-677h-140v571h-98zM102 0l703 1334h161l-702 -1334h-162zM697 496q3 85 65 138t171.5 53t177 -65.5t67.5 -145t-40.5 -137.5t-134.5 -127l-136 -96h317v-118h-486v100l197 156q134 110 135 210q0 50 -29 80.5t-71 30.5q-79 0 -92 -79h-141z" />
<glyph unicode="&#xbe;" horiz-adv-x="1310" d="M50 869h137q17 -93 121 -93q54 0 87 26t33 71t-34 70t-88 25h-80v97h79q53 0 86 24t33 68t-31 71t-85 27q-88 0 -113 -69h-138q8 81 81.5 131t177 50t180.5 -58t77 -141q0 -115 -121 -154v-4q54 -16 88.5 -55.5t34.5 -108.5t-73.5 -123.5t-191 -54.5t-185.5 53t-75 148z M215 0l790 1334h160l-788 -1334h-162zM676 133v80l302 469h187v-455h92v-94h-92v-133h-140v133h-349zM818 227h208v329z" />
<glyph unicode="&#xbf;" horiz-adv-x="1205" d="M175 39.5q0 197.5 114.5 288.5t345.5 94v254h166v-380h-77q-195 2 -289.5 -52.5t-94.5 -216.5q0 -117 68 -183t187 -66t187.5 63t68.5 178h163q2 -177 -114 -282.5t-306 -105.5t-304.5 105.5t-114.5 303zM601 962q0 47 32.5 79.5t79.5 32.5t80 -32.5t33 -79.5t-33 -80 t-80 -33t-79.5 33t-32.5 80z" />
<glyph unicode="&#xc0;" horiz-adv-x="1330" d="M85 0l485 1334h192l484 -1334h-181l-104 292h-593l-104 -292h-179zM417 431h494l-246 689zM443 1622v162l410 -242v-135z" />
<glyph unicode="&#xc1;" horiz-adv-x="1330" d="M85 0l485 1334h192l484 -1334h-181l-104 292h-593l-104 -292h-179zM417 431h494l-246 689zM443 1407v135l410 242v-162z" />
<glyph unicode="&#xc2;" horiz-adv-x="1330" d="M85 0l485 1334h192l484 -1334h-181l-104 292h-593l-104 -292h-179zM400 1427v147l266 160l267 -160v-147l-267 165zM417 431h494l-246 689z" />
<glyph unicode="&#xc3;" horiz-adv-x="1330" d="M85 0l485 1334h192l484 -1334h-181l-104 292h-593l-104 -292h-179zM377 1446q13 96 67 148t121 52t128.5 -42.5t96.5 -42.5q75 0 82 81h109q-13 -96 -67 -149t-120 -53t-128 43.5t-96.5 43.5t-56.5 -21.5t-26 -59.5h-110zM417 431h494l-246 689z" />
<glyph unicode="&#xc4;" horiz-adv-x="1330" d="M85 0l485 1334h192l484 -1334h-181l-104 292h-593l-104 -292h-179zM406 1574.5q0 42.5 30 73.5t74.5 31t74 -31t29.5 -73.5t-29.5 -73t-74 -30.5t-74.5 30.5t-30 73zM417 431h494l-246 689zM716 1574.5q0 42.5 30.5 73.5t73.5 31t73.5 -31t30.5 -73.5t-30.5 -73 t-73.5 -30.5t-73.5 30.5t-30.5 73z" />
<glyph unicode="&#xc5;" horiz-adv-x="1330" d="M85 0l485 1334h192l484 -1334h-181l-104 292h-593l-104 -292h-179zM417 431h494l-246 689zM466 1648q0 90 57.5 146t143.5 56t144 -55t58 -146t-58 -146t-144 -55t-143.5 55t-57.5 145zM566 1650q0 -44 29 -73t72.5 -29t72 29t28.5 73t-28.5 72t-72 28t-72.5 -28t-29 -72 z" />
<glyph unicode="&#xc6;" horiz-adv-x="1724" d="M25 0l761 1334h818v-138h-531v-455h473v-137h-473v-466h531v-138h-707v292h-515l-167 -292h-190zM458 431h439v776z" />
<glyph unicode="&#xc7;" horiz-adv-x="1495" d="M75 677.5q0 286.5 196.5 478.5t483.5 192q208 0 370.5 -98t239.5 -284h-212q-119 226 -398 226q-217 0 -359 -143.5t-142 -380.5t141.5 -381t359.5 -144q132 0 236 58t162 168h212q-73 -171 -217.5 -268t-333.5 -110v-93q112 0 181.5 -53t69.5 -143.5t-68.5 -146 t-176.5 -55.5h-229v121h206q108 0 108 80t-108 80h-106v210q-264 23 -440 211.5t-176 475z" />
<glyph unicode="&#xc8;" horiz-adv-x="971" d="M145 0v1334h706v-138h-531v-455h473v-137h-473v-466h531v-138h-706zM264 1622v162l410 -242v-135z" />
<glyph unicode="&#xc9;" horiz-adv-x="971" d="M145 0v1334h706v-138h-531v-455h473v-137h-473v-466h531v-138h-706zM264 1407v135l410 242v-162z" />
<glyph unicode="&#xca;" horiz-adv-x="971" d="M145 0v1334h706v-138h-531v-455h473v-137h-473v-466h531v-138h-706zM219 1427v147l266 160l268 -160v-147l-268 165z" />
<glyph unicode="&#xcb;" horiz-adv-x="971" d="M145 0v1334h706v-138h-531v-455h473v-137h-473v-466h531v-138h-706zM227 1574.5q0 42.5 31 73.5t73 31t73 -31t31 -73.5t-31 -73t-73 -30.5t-73 30.5t-31 73zM537 1574.5q0 42.5 30 73.5t74 31t74 -31t30 -73.5t-30 -73t-74 -30.5t-74 30.5t-30 73z" />
<glyph unicode="&#xcc;" horiz-adv-x="463" d="M9 1622v162l410 -242v-135zM145 0v1334h175v-1334h-175z" />
<glyph unicode="&#xcd;" horiz-adv-x="463" d="M9 1407v135l410 242v-162zM145 0v1334h175v-1334h-175z" />
<glyph unicode="&#xce;" horiz-adv-x="463" d="M-35 1427v147l266 160l267 -160v-147l-267 165zM145 0v1334h175v-1334h-175z" />
<glyph unicode="&#xcf;" horiz-adv-x="463" d="M-27 1574.5q0 42.5 31 73.5t73 31t73 -31t31 -73.5t-31 -73t-73 -30.5t-73 30.5t-31 73zM145 0v1334h175v-1334h-175zM283 1574.5q0 42.5 30 73.5t74 31t74 -31t30 -73.5t-30 -73t-74 -30.5t-74 30.5t-30 73z" />
<glyph unicode="&#xd0;" horiz-adv-x="1370" d="M8 581v158h167v595h422q323 0 509.5 -181t186.5 -492.5t-186.5 -486t-509.5 -174.5h-422v581h-167zM351 134h246q250 0 384 139t134 387.5t-134 387t-384 138.5h-246v-447h369v-158h-369v-447z" />
<glyph unicode="&#xd1;" horiz-adv-x="1343" d="M145 0v1334h175l705 -1059v1059h174v-1334h-174l-705 1058v-1058h-175zM385 1446q14 96 68 148t120 52t127.5 -42.5t96.5 -42.5q75 0 83 81h110q-13 -96 -67 -149t-121 -53t-128.5 43.5t-96 43.5t-57 -21.5t-26.5 -59.5h-109z" />
<glyph unicode="&#xd2;" horiz-adv-x="1504" d="M75 668.5q0 295.5 196.5 487.5t483.5 192t482.5 -192t195.5 -488.5t-195.5 -488.5t-482.5 -192t-483.5 193t-196.5 488.5zM252 668q0 -237 142.5 -381t360 -144t358 144t140.5 381t-140.5 380.5t-359 143.5t-360 -143.5t-141.5 -380.5zM531 1622v162l410 -242v-135z" />
<glyph unicode="&#xd3;" horiz-adv-x="1504" d="M75 668.5q0 295.5 196.5 487.5t483.5 192t482.5 -192t195.5 -488.5t-195.5 -488.5t-482.5 -192t-483.5 193t-196.5 488.5zM252 668q0 -237 142.5 -381t360 -144t358 144t140.5 381t-140.5 380.5t-359 143.5t-360 -143.5t-141.5 -380.5zM531 1407v135l410 242v-162z" />
<glyph unicode="&#xd4;" horiz-adv-x="1504" d="M75 668.5q0 295.5 196.5 487.5t483.5 192t482.5 -192t195.5 -488.5t-195.5 -488.5t-482.5 -192t-483.5 193t-196.5 488.5zM252 668q0 -237 142.5 -381t360 -144t358 144t140.5 381t-140.5 380.5t-359 143.5t-360 -143.5t-141.5 -380.5zM487 1427v147l266 160l267 -160 v-147l-267 165z" />
<glyph unicode="&#xd5;" horiz-adv-x="1504" d="M75 668.5q0 295.5 196.5 487.5t483.5 192t482.5 -192t195.5 -488.5t-195.5 -488.5t-482.5 -192t-483.5 193t-196.5 488.5zM252 668q0 -237 142.5 -381t360 -144t358 144t140.5 381t-140.5 380.5t-359 143.5t-360 -143.5t-141.5 -380.5zM466 1446q13 96 67.5 148t120.5 52 t127.5 -42.5t96.5 -42.5q75 0 83 81h110q-13 -96 -67.5 -149t-121 -53t-129 43.5t-96 43.5t-56 -21.5t-26.5 -59.5h-109z" />
<glyph unicode="&#xd6;" horiz-adv-x="1504" d="M75 668.5q0 295.5 196.5 487.5t483.5 192t482.5 -192t195.5 -488.5t-195.5 -488.5t-482.5 -192t-483.5 193t-196.5 488.5zM252 668q0 -237 142.5 -381t360 -144t358 144t140.5 381t-140.5 380.5t-359 143.5t-360 -143.5t-141.5 -380.5zM494 1574.5q0 42.5 30.5 73.5 t74.5 31t74 -31t30 -73.5t-30 -73t-74 -30.5t-74.5 30.5t-30.5 73zM805 1574.5q0 42.5 31 73.5t73 31t72.5 -31t30.5 -73.5t-30.5 -73t-72.5 -30.5t-73 30.5t-31 73z" />
<glyph unicode="&#xd7;" horiz-adv-x="1383" d="M275 406l304 303l-298 300l110 110l298 -301l303 301l115 -114l-302 -300l302 -305l-110 -110l-302 305l-306 -305z" />
<glyph unicode="&#xd8;" horiz-adv-x="1504" d="M54 0l192 206q-171 191 -171 474.5t196.5 475.5t483.5 192q237 0 419 -137l116 123h165l-190 -206q168 -189 168 -473t-195.5 -476t-482.5 -192q-239 0 -420 138l-116 -125h-165zM252 685.5q0 -219.5 106 -356.5l707 762q-133 101 -310 101q-219 0 -361 -143.5t-142 -363 zM445 243q128 -100 310 -100q217 0 357.5 144t140.5 381q0 197 -103 337z" />
<glyph unicode="&#xd9;" horiz-adv-x="1295" d="M143 468v866h177v-866q0 -165 87 -247.5t241.5 -82.5t242.5 82.5t88 247.5v866h176v-866q0 -235 -143 -358t-363.5 -123t-363 123t-142.5 358zM426 1622v162l410 -242v-135z" />
<glyph unicode="&#xda;" horiz-adv-x="1295" d="M143 468v866h177v-866q0 -165 87 -247.5t241.5 -82.5t242.5 82.5t88 247.5v866h176v-866q0 -235 -143 -358t-363.5 -123t-363 123t-142.5 358zM426 1407v135l410 242v-162z" />
<glyph unicode="&#xdb;" horiz-adv-x="1295" d="M143 468v866h177v-866q0 -165 87 -247.5t241.5 -82.5t242.5 82.5t88 247.5v866h176v-866q0 -235 -143 -358t-363.5 -123t-363 123t-142.5 358zM382 1427v147l265 160l268 -160v-147l-268 165z" />
<glyph unicode="&#xdc;" horiz-adv-x="1295" d="M143 468v866h177v-866q0 -165 87 -247.5t241.5 -82.5t242.5 82.5t88 247.5v866h176v-866q0 -235 -143 -358t-363.5 -123t-363 123t-142.5 358zM389 1574.5q0 42.5 30.5 73.5t73 31t73.5 -31t31 -73.5t-31 -73t-73.5 -30.5t-73 30.5t-30.5 73zM698 1574.5 q0 42.5 30.5 73.5t74.5 31t74 -31t30 -73.5t-30 -73t-74 -30.5t-74.5 30.5t-30.5 73z" />
<glyph unicode="&#xdd;" horiz-adv-x="1100" d="M29 1334h193l329 -668l327 668h195l-434 -829v-505h-175v505zM329 1407v135l410 242v-162z" />
<glyph unicode="&#xde;" horiz-adv-x="1112" d="M145 0v1334h173v-276h259q226 0 344.5 -108.5t118.5 -280t-115 -282t-348 -110.5h-257v-277h-175zM320 415h257q145 0 215.5 67t70.5 184q0 254 -286 254h-257v-505z" />
<glyph unicode="&#xdf;" horiz-adv-x="1260" d="M145 0v1065q0 175 110.5 277t289.5 102t278 -97.5t99 -229.5q0 -175 -175 -268l204 -129q137 -85 195.5 -172.5t58.5 -210.5q0 -160 -113.5 -257t-261.5 -97t-256 88.5t-108 240.5h153q6 -81 59 -128.5t147.5 -47.5t147.5 59t53 142q0 126 -163 231l-305 194v92l64 33 q122 64 122 199q0 88 -59 147.5t-149.5 59.5t-153 -61.5t-62.5 -160.5v-1071h-175z" />
<glyph unicode="&#xe0;" d="M75 534q0 242 143.5 391t360.5 149q134 0 235.5 -63t153.5 -166v212h178v-1057h-178v215q-52 -104 -153 -168t-236 -64q-215 0 -359.5 154.5t-144.5 396.5zM254 535q0 -179 106 -290.5t252.5 -111.5t251 108t104.5 287t-104.5 286.5t-252 107.5t-252.5 -104t-105 -283z M422 1346v162l410 -243v-135z" />
<glyph unicode="&#xe1;" d="M75 534q0 242 143.5 391t360.5 149q134 0 235.5 -63t153.5 -166v212h178v-1057h-178v215q-52 -104 -153 -168t-236 -64q-215 0 -359.5 154.5t-144.5 396.5zM254 535q0 -179 106 -290.5t252.5 -111.5t251 108t104.5 287t-104.5 286.5t-252 107.5t-252.5 -104t-105 -283z M422 1130v135l410 243v-162z" />
<glyph unicode="&#xe2;" d="M75 534q0 242 143.5 391t360.5 149q134 0 235.5 -63t153.5 -166v212h178v-1057h-178v215q-52 -104 -153 -168t-236 -64q-215 0 -359.5 154.5t-144.5 396.5zM254 535q0 -179 106 -290.5t252.5 -111.5t251 108t104.5 287t-104.5 286.5t-252 107.5t-252.5 -104t-105 -283z M377 1150v147l266 160l268 -160v-147l-268 165z" />
<glyph unicode="&#xe3;" d="M75 534q0 242 143.5 391t360.5 149q134 0 235.5 -63t153.5 -166v212h178v-1057h-178v215q-52 -104 -153 -168t-236 -64q-215 0 -359.5 154.5t-144.5 396.5zM254 535q0 -179 106 -290.5t252.5 -111.5t251 108t104.5 287t-104.5 286.5t-252 107.5t-252.5 -104t-105 -283z M356 1168q13 97 67.5 149t121.5 52t128.5 -42.5t96.5 -42.5q73 0 81 81h110q-13 -96 -67.5 -149t-119.5 -53t-129 43t-96.5 43t-55.5 -21t-27 -60h-110z" />
<glyph unicode="&#xe4;" d="M75 534q0 242 143.5 391t360.5 149q134 0 235.5 -63t153.5 -166v212h178v-1057h-178v215q-52 -104 -153 -168t-236 -64q-215 0 -359.5 154.5t-144.5 396.5zM254 535q0 -179 106 -290.5t252.5 -111.5t251 108t104.5 287t-104.5 286.5t-252 107.5t-252.5 -104t-105 -283z M385 1297.5q0 42.5 30.5 73.5t73 31t73.5 -31t31 -73.5t-31 -73t-73.5 -30.5t-73 30.5t-30.5 73zM695 1297.5q0 42.5 30 73.5t74 31t74 -31t30 -73.5t-30 -73t-74 -30.5t-74 30.5t-30 73z" />
<glyph unicode="&#xe5;" d="M75 534q0 242 143.5 391t360.5 149q134 0 235.5 -63t153.5 -166v212h178v-1057h-178v215q-52 -104 -153 -168t-236 -64q-215 0 -359.5 154.5t-144.5 396.5zM254 535q0 -179 106 -290.5t252.5 -111.5t251 108t104.5 287t-104.5 286.5t-252 107.5t-252.5 -104t-105 -283z M443 1370.5q0 90.5 57.5 146.5t143 56t143.5 -55t58 -146.5t-58 -146.5t-143.5 -55t-143 55t-57.5 145.5zM543 1372.5q0 -44.5 29 -73t72 -28.5t72 28.5t29 73t-29 72.5t-72 28t-72 -28t-29 -72.5z" />
<glyph unicode="&#xe6;" horiz-adv-x="2086" d="M75 534.5q0 242.5 146.5 391t385 148.5t357.5 -189v172h175v-172q74 103 165.5 146t214.5 43q219 0 356.5 -143t137.5 -359q0 -56 -7 -104h-854q15 -156 116 -248.5t233 -92.5q215 0 288 176h188q-50 -141 -168.5 -230.5t-296.5 -89.5q-118 0 -216 52.5t-157 143.5v-179 h-175v181q-59 -90 -160 -144t-225 -54q-215 0 -359.5 154.5t-144.5 397zM254 535q0 -179 106 -290.5t252.5 -111.5t251 108t104.5 287t-104.5 286.5t-252 107.5t-252.5 -104t-105 -283zM1152 595h681q-2 154 -93.5 244.5t-231 90.5t-240 -92.5t-116.5 -242.5z" />
<glyph unicode="&#xe7;" horiz-adv-x="1154" d="M75 538.5q0 235.5 142.5 385.5t370.5 150q190 0 310 -88.5t169 -252.5h-189q-31 92 -106 144.5t-184 52.5q-151 0 -242.5 -105t-91.5 -296.5t91.5 -296.5t242.5 -105q225 0 290 196h189q-46 -144 -152.5 -234.5t-269.5 -103.5v-87q112 0 181 -53t69 -143.5t-68 -146 t-177 -55.5h-228v121h206q108 0 107.5 80t-107.5 80h-106v206q-201 21 -324 168.5t-123 383z" />
<glyph unicode="&#xe8;" horiz-adv-x="1175" d="M75 529.5q0 246.5 144.5 395.5t374.5 149t370 -141.5t140 -360.5q0 -56 -9 -104h-841q7 -158 99 -249.5t235 -91.5q108 0 181.5 48.5t108.5 127.5h189q-50 -139 -172 -229.5t-307 -90.5q-228 0 -370.5 150t-142.5 396.5zM256 595h664q-2 152 -96.5 243.5t-234 91.5 t-231.5 -89.5t-102 -245.5zM366 1346v162l410 -243v-135z" />
<glyph unicode="&#xe9;" horiz-adv-x="1175" d="M75 529.5q0 246.5 144.5 395.5t374.5 149t370 -141.5t140 -360.5q0 -56 -9 -104h-841q7 -158 99 -249.5t235 -91.5q108 0 181.5 48.5t108.5 127.5h189q-50 -139 -172 -229.5t-307 -90.5q-228 0 -370.5 150t-142.5 396.5zM256 595h664q-2 152 -96.5 243.5t-234 91.5 t-231.5 -89.5t-102 -245.5zM366 1130v135l410 243v-162z" />
<glyph unicode="&#xea;" horiz-adv-x="1175" d="M75 529.5q0 246.5 144.5 395.5t374.5 149t370 -141.5t140 -360.5q0 -56 -9 -104h-841q7 -158 99 -249.5t235 -91.5q108 0 181.5 48.5t108.5 127.5h189q-50 -139 -172 -229.5t-307 -90.5q-228 0 -370.5 150t-142.5 396.5zM256 595h664q-2 152 -96.5 243.5t-234 91.5 t-231.5 -89.5t-102 -245.5zM321 1150v147l267 160l266 -160v-147l-266 165z" />
<glyph unicode="&#xeb;" horiz-adv-x="1175" d="M75 529.5q0 246.5 144.5 395.5t374.5 149t370 -141.5t140 -360.5q0 -56 -9 -104h-841q7 -158 99 -249.5t235 -91.5q108 0 181.5 48.5t108.5 127.5h189q-50 -139 -172 -229.5t-307 -90.5q-228 0 -370.5 150t-142.5 396.5zM256 595h664q-2 152 -96.5 243.5t-234 91.5 t-231.5 -89.5t-102 -245.5zM329 1297.5q0 42.5 30 73.5t74.5 31t74 -31t29.5 -73.5t-29.5 -73t-74 -30.5t-74.5 30.5t-30 73zM639 1297.5q0 42.5 30.5 73.5t73.5 31t73.5 -31t30.5 -73.5t-30.5 -73t-73.5 -30.5t-73.5 30.5t-30.5 73z" />
<glyph unicode="&#xec;" horiz-adv-x="463" d="M9 1346v162l410 -243v-135zM145 0v1057h175v-1057h-175z" />
<glyph unicode="&#xed;" horiz-adv-x="463" d="M9 1130v135l410 243v-162zM145 0v1057h175v-1057h-175z" />
<glyph unicode="&#xee;" horiz-adv-x="463" d="M-35 1150v147l266 160l267 -160v-147l-267 165zM145 0v1057h175v-1057h-175z" />
<glyph unicode="&#xef;" horiz-adv-x="463" d="M-27 1297.5q0 42.5 31 73.5t73 31t73 -31t31 -73.5t-31 -73t-73 -30.5t-73 30.5t-31 73zM145 0v1057h175v-1057h-175zM283 1297.5q0 42.5 30 73.5t74 31t74 -31t30 -73.5t-30 -73t-74 -30.5t-74 30.5t-30 73z" />
<glyph unicode="&#xf0;" horiz-adv-x="1212" d="M75 528.5q0 245.5 150 395.5t378 150q185 0 325 -130q-58 141 -177 270l-246 -82v114l161 53q-47 46 -144 126h192q52 -42 89 -79l262 88v-113l-180 -60q252 -287 252 -651q0 -304 -149.5 -465.5t-385.5 -161.5t-381.5 150t-145.5 395.5zM252 528q0 -190 97 -295.5 t246 -105.5t256.5 106.5t107.5 295.5t-104 295t-252.5 106t-249.5 -106t-101 -296z" />
<glyph unicode="&#xf1;" horiz-adv-x="1208" d="M145 0v1057h175v-172q108 189 345 189q174 0 291.5 -116.5t117.5 -331.5v-626h-173v597q0 160 -77 242.5t-212.5 82.5t-213.5 -82.5t-78 -242.5v-597h-175zM327 1168q13 96 67 148.5t120.5 52.5t128.5 -42.5t96 -42.5q75 0 83 81h110q-14 -96 -68 -149t-120 -53 t-127.5 43t-96.5 43t-57 -21t-26 -60h-110z" />
<glyph unicode="&#xf2;" horiz-adv-x="1216" d="M75 527.5q0 244.5 152 395.5t381.5 151t381 -151t151.5 -394.5t-158.5 -394.5t-387.5 -151t-374.5 150t-145.5 394.5zM254 528q0 -190 96 -295.5t245 -105.5t257.5 106.5t108.5 295.5t-104 295t-253.5 106t-249.5 -106t-100 -296zM385 1346v162l410 -243v-135z" />
<glyph unicode="&#xf3;" horiz-adv-x="1216" d="M75 527.5q0 244.5 152 395.5t381.5 151t381 -151t151.5 -394.5t-158.5 -394.5t-387.5 -151t-374.5 150t-145.5 394.5zM254 528q0 -190 96 -295.5t245 -105.5t257.5 106.5t108.5 295.5t-104 295t-253.5 106t-249.5 -106t-100 -296zM385 1130v135l410 243v-162z" />
<glyph unicode="&#xf4;" horiz-adv-x="1216" d="M75 527.5q0 244.5 152 395.5t381.5 151t381 -151t151.5 -394.5t-158.5 -394.5t-387.5 -151t-374.5 150t-145.5 394.5zM254 528q0 -190 96 -295.5t245 -105.5t257.5 106.5t108.5 295.5t-104 295t-253.5 106t-249.5 -106t-100 -296zM343 1150v147l265 160l268 -160v-147 l-268 165z" />
<glyph unicode="&#xf5;" horiz-adv-x="1216" d="M75 527.5q0 244.5 152 395.5t381.5 151t381 -151t151.5 -394.5t-158.5 -394.5t-387.5 -151t-374.5 150t-145.5 394.5zM254 528q0 -190 96 -295.5t245 -105.5t257.5 106.5t108.5 295.5t-104 295t-253.5 106t-249.5 -106t-100 -296zM320 1168q13 97 67 149t120 52 t128 -42.5t96 -42.5q76 0 83 81h110q-13 -96 -67 -149t-120.5 -53t-128 43t-96 43t-57 -21t-25.5 -60h-110z" />
<glyph unicode="&#xf6;" horiz-adv-x="1216" d="M75 527.5q0 244.5 152 395.5t381.5 151t381 -151t151.5 -394.5t-158.5 -394.5t-387.5 -151t-374.5 150t-145.5 394.5zM254 528q0 -190 96 -295.5t245 -105.5t257.5 106.5t108.5 295.5t-104 295t-253.5 106t-249.5 -106t-100 -296zM349 1297.5q0 42.5 29.5 73.5t73.5 31 t74 -31t30 -73.5t-30 -73t-74 -30.5t-73.5 30.5t-29.5 73zM658 1297.5q0 42.5 31 73.5t73.5 31t73.5 -31t31 -73.5t-31 -73t-73.5 -30.5t-73.5 30.5t-31 73z" />
<glyph unicode="&#xf7;" horiz-adv-x="1362" d="M212 628v153h980v-153h-980zM589 294q0 46 32.5 79t80 33t80 -33t32.5 -79t-32.5 -78.5t-80 -32.5t-80 32.5t-32.5 78.5zM589 1114q0 47 32.5 80t80 33t80 -33t32.5 -80t-32.5 -80t-80 -33t-80 33t-32.5 80z" />
<glyph unicode="&#xf8;" horiz-adv-x="1216" d="M55 0l143 158q-123 148 -123 381t152 384t381 151q187 0 329 -106l81 89h143l-147 -162q127 -149 127 -379.5t-158.5 -381.5t-389.5 -151q-183 0 -318 102l-77 -85h-143zM254 527q0 -146 60 -244l516 566q-94 81 -235 81t-241 -106t-100 -297zM382 202q86 -75 224 -75 t246.5 106.5t108.5 293.5q0 143 -62 241z" />
<glyph unicode="&#xf9;" horiz-adv-x="1208" d="M134 430v627h174v-599q0 -158 78 -241.5t212.5 -83.5t212.5 83.5t78 241.5v599h176v-1057h-176v169q-106 -187 -344 -186q-175 0 -293 116t-118 331zM384 1346v162l409 -243v-135z" />
<glyph unicode="&#xfa;" horiz-adv-x="1208" d="M134 430v627h174v-599q0 -158 78 -241.5t212.5 -83.5t212.5 83.5t78 241.5v599h176v-1057h-176v169q-106 -187 -344 -186q-175 0 -293 116t-118 331zM384 1130v135l409 243v-162z" />
<glyph unicode="&#xfb;" horiz-adv-x="1208" d="M134 430v627h174v-599q0 -158 78 -241.5t212.5 -83.5t212.5 83.5t78 241.5v599h176v-1057h-176v169q-106 -187 -344 -186q-175 0 -293 116t-118 331zM338 1150v147l266 160l268 -160v-147l-268 165z" />
<glyph unicode="&#xfc;" horiz-adv-x="1208" d="M134 430v627h174v-599q0 -158 78 -241.5t212.5 -83.5t212.5 83.5t78 241.5v599h176v-1057h-176v169q-106 -187 -344 -186q-175 0 -293 116t-118 331zM347 1297.5q0 42.5 30.5 73.5t73 31t73.5 -31t31 -73.5t-31 -73t-73.5 -30.5t-73 30.5t-30.5 73zM656 1297.5 q0 42.5 30 73.5t74.5 31t74.5 -31t30 -73.5t-30 -73t-74.5 -30.5t-74.5 30.5t-30 73z" />
<glyph unicode="&#xfd;" horiz-adv-x="1071" d="M24 1057h191l324 -855l330 855h180l-637 -1551h-181l210 511zM316 1130v135l410 243v-162z" />
<glyph unicode="&#xfe;" d="M145 -500v1925h175v-580q53 103 154.5 166t236.5 63q217 0 360 -149t143 -391t-144 -396.5t-359 -154.5q-135 0 -236.5 64.5t-154.5 167.5v-715h-175zM320 529q0 -178 104.5 -287t252 -109t252.5 110.5t105 290.5t-105 284t-252.5 104t-252 -107.5t-104.5 -285.5z" />
<glyph unicode="&#xff;" horiz-adv-x="1071" d="M24 1057h191l324 -855l330 855h180l-637 -1551h-181l210 511zM279 1297.5q0 42.5 29.5 73.5t74.5 31t74.5 -31t29.5 -73.5t-29.5 -73t-74.5 -30.5t-74.5 30.5t-29.5 73zM589 1297.5q0 42.5 30.5 73.5t73 31t73.5 -31t31 -73.5t-31 -73t-73.5 -30.5t-73 30.5t-30.5 73z " />
<glyph unicode="&#x152;" horiz-adv-x="2080" d="M75 669.5q0 296.5 197.5 487.5t482.5 191q327 0 498 -266v252h705v-140h-529v-453h471v-138h-471v-465h529v-138h-705v250q-173 -264 -498 -263q-287 0 -483.5 193t-196.5 489.5zM252 668q0 -237 142.5 -381t360 -144t358 144t140.5 381t-140.5 380.5t-359 143.5 t-360 -143.5t-141.5 -380.5z" />
<glyph unicode="&#x153;" horiz-adv-x="2061" d="M75 527.5q0 244.5 152 395.5t381 151q138 0 254 -62.5t185 -175.5q66 113 179.5 175.5t259.5 62.5q224 0 363.5 -141.5t139.5 -360.5q0 -56 -8 -104h-840q8 -160 99.5 -250.5t216.5 -90.5q233 0 306 176h189q-50 -139 -172.5 -229.5t-285.5 -90.5q-312 0 -449 241 q-71 -114 -190.5 -177.5t-261.5 -63.5q-227 0 -372.5 150t-145.5 394.5zM252 528q0 -190 97 -295.5t246 -105.5t256.5 106.5t107.5 295.5t-104 295t-252.5 106t-249.5 -106t-101 -296zM1144 595h664q-2 152 -96.5 243.5t-235 91.5t-232 -89.5t-100.5 -245.5z" />
<glyph unicode="&#x178;" horiz-adv-x="1100" d="M29 1334h193l329 -668l327 668h195l-434 -829v-505h-175v505zM292 1574.5q0 42.5 31 73.5t73.5 31t73 -31t30.5 -73.5t-30.5 -73t-73 -30.5t-73.5 30.5t-31 73zM603 1574.5q0 42.5 30 73.5t74 31t73.5 -31t29.5 -73.5t-29.5 -73t-73.5 -30.5t-74 30.5t-30 73z" />
<glyph unicode="&#x2c6;" horiz-adv-x="571" d="M19 1150v147l266 160l268 -160v-147l-268 165z" />
<glyph unicode="&#x2dc;" horiz-adv-x="642" d="M19 1168q14 97 68 149t120.5 52t128 -42.5t95.5 -42.5q76 0 83 81h110q-13 -96 -67 -149t-121 -53t-128.5 43t-96 43t-56.5 -21t-26 -60h-110z" />
<glyph unicode="&#x2000;" horiz-adv-x="952" />
<glyph unicode="&#x2001;" horiz-adv-x="1904" />
<glyph unicode="&#x2002;" horiz-adv-x="952" />
<glyph unicode="&#x2003;" horiz-adv-x="1904" />
<glyph unicode="&#x2004;" horiz-adv-x="634" />
<glyph unicode="&#x2005;" horiz-adv-x="476" />
<glyph unicode="&#x2006;" horiz-adv-x="317" />
<glyph unicode="&#x2007;" horiz-adv-x="317" />
<glyph unicode="&#x2008;" horiz-adv-x="238" />
<glyph unicode="&#x2009;" horiz-adv-x="380" />
<glyph unicode="&#x200a;" horiz-adv-x="105" />
<glyph unicode="&#x2010;" horiz-adv-x="1129" d="M181 630v149h768v-149h-768z" />
<glyph unicode="&#x2011;" horiz-adv-x="1129" d="M181 630v149h768v-149h-768z" />
<glyph unicode="&#x2012;" horiz-adv-x="1129" d="M181 630v149h768v-149h-768z" />
<glyph unicode="&#x2013;" horiz-adv-x="1374" d="M181 630v149h1013v-149h-1013z" />
<glyph unicode="&#x2014;" horiz-adv-x="1772" d="M181 630v149h1413v-149h-1413z" />
<glyph unicode="&#x2018;" horiz-adv-x="292" d="M46 1290q0 217 197 218v-86q-93 0 -93 -99v-45h94v-165h-174q-24 100 -24 177z" />
<glyph unicode="&#x2019;" horiz-adv-x="292" d="M48 1341v167h176q23 -103 22 -178q0 -217 -196 -217v85q92 0 93 99v44h-95z" />
<glyph unicode="&#x201a;" horiz-adv-x="357" d="M75 -50v179h179q96 -404 -173 -404v84q48 0 70 23t22 74v44h-98z" />
<glyph unicode="&#x201c;" horiz-adv-x="551" d="M46 1290q0 217 197 218v-86q-93 0 -93 -99v-45h94v-165h-174q-24 100 -24 177zM306 1290q0 217 197 218v-86q-92 0 -93 -99v-45h95v-165h-176q-23 100 -23 177z" />
<glyph unicode="&#x201d;" horiz-adv-x="551" d="M48 1341v167h176q23 -103 22 -178q0 -217 -196 -217v85q92 0 93 99v44h-95zM310 1341v167h175q24 -103 24 -178q0 -217 -197 -217v85q92 0 92 99v44h-94z" />
<glyph unicode="&#x201e;" horiz-adv-x="357" d="M75 -50v179h179q96 -404 -173 -404v84q48 0 70 23t22 74v44h-98z" />
<glyph unicode="&#x2022;" horiz-adv-x="858" d="M193 642q0 99 68 167.5t167 68.5t168.5 -68.5t69.5 -167.5t-69.5 -167.5t-168.5 -68.5t-167 68.5t-68 167.5z" />
<glyph unicode="&#x2026;" horiz-adv-x="1156" d="M106 113q0 47 32.5 80t79 33t79 -33t32.5 -80t-32.5 -80t-79 -33t-79 33t-32.5 80zM468 113q0 47 32.5 80t79 33t79 -33t32.5 -80t-32.5 -80t-79 -33t-79 33t-32.5 80zM828 113q0 47 32.5 80t79 33t79 -33t32.5 -80t-32.5 -80t-79 -33t-79 33t-32.5 80z" />
<glyph unicode="&#x202f;" horiz-adv-x="380" />
<glyph unicode="&#x2039;" horiz-adv-x="538" d="M86 568l186 337h171l-191 -337l191 -337h-171z" />
<glyph unicode="&#x203a;" horiz-adv-x="538" d="M96 231l191 337l-191 337h172l184 -337l-184 -337h-172z" />
<glyph unicode="&#x205f;" horiz-adv-x="476" />
<glyph unicode="&#x20ac;" horiz-adv-x="1535" d="M54 441v131h154q-6 46 -6 95t6 99h-154v129h183q68 206 243.5 329.5t392 123.5t379.5 -98t240 -284h-212q-119 226 -398 226q-160 0 -281.5 -78t-176.5 -219h458v-129h-493q-7 -40 -7 -97t7 -97h493v-131h-458q55 -141 177.5 -219.5t268.5 -78.5q291 0 410 226h212 q-77 -185 -240 -282.5t-379.5 -97.5t-392 123t-243.5 329h-183z" />
<glyph unicode="&#x2122;" horiz-adv-x="1506" d="M42 1249v106h445v-106h-154l2 -571h-140v571h-153zM606 678v677h170l218 -510l220 510h166v-677h-134v466l-206 -466h-99l-204 474v-474h-131z" />
<glyph unicode="&#x25fc;" horiz-adv-x="1058" d="M0 0v1058h1058v-1058h-1058z" />
</font>
</defs>
</svg>
